<svg id="Layer_1" data-name="Layer 1" xmlns="http://www.w3.org/2000/svg" xmlns:xlink="http://www.w3.org/1999/xlink" viewBox="0 0 146.9 81.9"><defs><clipPath id="clip-path" transform="translate(-26.1 -27.09)"><path d="M31.94,65c-.23.14-.5-.09-.86-.32a12.83,12.83,0,0,1-2.31-1.83A9.86,9.86,0,0,1,26.46,59a10.83,10.83,0,0,1,.28-6.47,13.89,13.89,0,0,1,3.57-5.15,14.25,14.25,0,0,1,8-4,51.64,51.64,0,0,0,6.43-1.07c3.75-1,7.41-2.94,9-6.66.67-1.62.83-3.47,1.59-5.07a6.1,6.1,0,0,1,4.27-3.39,5.12,5.12,0,0,1,2.9.1,6.75,6.75,0,0,1,2.69,1.81c-.68.8-1.34,1.68-2,2.54a4.2,4.2,0,0,0-2.9-1.5,3.71,3.71,0,0,0-3.34,1.65A8.44,8.44,0,0,0,56,35.52a9.26,9.26,0,0,1-2.35,4.65,12.38,12.38,0,0,1-2.71,2,23.21,23.21,0,0,1-6.71,2.45A40.25,40.25,0,0,0,33.92,48,8.75,8.75,0,0,0,30,51.12a8.25,8.25,0,0,0-.63,6.16,8.47,8.47,0,0,0,2.23,4.16c.5.47,1.32.64,1.17,1.35a7.89,7.89,0,0,1-.64,1.94A.6.6,0,0,1,31.94,65Z" style="fill:none"/></clipPath></defs><title>background-concentrese</title><path d="M42.27,107.49c-.25-.86-1.25-1.18-1.91-1.65a6.31,6.31,0,0,1-2-2.39,12.41,12.41,0,0,1-.75-3.17c-.2-1.24-.22-8.4-.28-11.59-.1-5.06.92-13.84,0-13.83a8.37,8.37,0,0,0-1.93.19,1.31,1.31,0,0,0-.67.32,1.46,1.46,0,0,0-.27,1c0,1.18.15,2.36.16,3.54,0,6.18.23,12.36.27,18.55a8.65,8.65,0,0,1-4.22,7.94c-.52.3-1.59.9-1.23,1.65s1.47.54,2.05.59a47.58,47.58,0,0,0,6,.19C38.3,108.83,42.67,108.92,42.27,107.49Z" transform="translate(-26.1 -27.09)" style="fill:#db900b"/><path d="M31.94,65c-.23.14-.5-.09-.86-.32a12.83,12.83,0,0,1-2.31-1.83A9.86,9.86,0,0,1,26.46,59a10.83,10.83,0,0,1,.28-6.47,13.89,13.89,0,0,1,3.57-5.15,14.25,14.25,0,0,1,8-4,51.64,51.64,0,0,0,6.43-1.07c3.75-1,7.41-2.94,9-6.66.67-1.62.83-3.47,1.59-5.07a6.1,6.1,0,0,1,4.27-3.39,5.12,5.12,0,0,1,2.9.1,6.75,6.75,0,0,1,2.69,1.81c-.68.8-1.34,1.68-2,2.54a4.2,4.2,0,0,0-2.9-1.5,3.71,3.71,0,0,0-3.34,1.65A8.44,8.44,0,0,0,56,35.52a9.26,9.26,0,0,1-2.35,4.65,12.38,12.38,0,0,1-2.71,2,23.21,23.21,0,0,1-6.71,2.45A40.25,40.25,0,0,0,33.92,48,8.75,8.75,0,0,0,30,51.12a8.25,8.25,0,0,0-.63,6.16,8.47,8.47,0,0,0,2.23,4.16c.5.47,1.32.64,1.17,1.35a7.89,7.89,0,0,1-.64,1.94A.6.6,0,0,1,31.94,65Z" transform="translate(-26.1 -27.09)" style="fill:#f9ad15"/><path d="M43.66,75.05a6,6,0,0,0,1.64-4,40.78,40.78,0,0,0-.12-4.42,26.52,26.52,0,0,0-1.35-6.31A12.47,12.47,0,0,1,43.37,54,16.53,16.53,0,0,1,45,50.34a9.85,9.85,0,0,0,1.34-3.78A3.87,3.87,0,0,0,44.87,43c-1.34-.89-2.9-.72-4-1.9-.67-.71-.31-1.77,0-2.7.39-1.18,1.34-2.23,1.57-3.45.43-2.4-.33-3.4-2-4.06a3.76,3.76,0,0,0-4.54,1.77,6.33,6.33,0,0,0-.22,4.08c.24,1.36.88,3.53-.24,4.71s-2.46,1.4-3.53,2.35a5.4,5.4,0,0,0-1.62,2.59c-.37,1.45.25,3,.78,4.38a16.48,16.48,0,0,1,1.66,5.29,11.85,11.85,0,0,1-1.53,5.51,50.59,50.59,0,0,0-2.83,5.95,11.89,11.89,0,0,0-.73,6.15c.45,1.94,3.15,2.66,4.91,2.59L39,76C40.76,75.84,42.18,76.16,43.66,75.05Z" transform="translate(-26.1 -27.09)" style="fill:#424242"/><path d="M54.6,103.83c-.12-.76,0-1.54,0-2.3-.07-1-.17-1.9-.25-2.85-.16-1.94-.32-3.87-.43-5.81a13.62,13.62,0,0,1,.26-3.31,26.35,26.35,0,0,0,.53-3.86,28.93,28.93,0,0,0-4.25.38s-.05,0-.05,0,.13,0,.11-.06a34.16,34.16,0,0,0,.14,5.81C51.11,96,52.31,100,52.85,104A7.89,7.89,0,0,0,54.6,103.83Z" transform="translate(-26.1 -27.09)" style="fill:#f8c19a"/><path d="M70.75,98.49c-.21.24-2.9-1.18-3.22-1.34-1.53-.62-3-1.33-4.51-2-1.76-.74-4.71-1.36-4.71-3.7a40.74,40.74,0,0,1,.44-5.94c0-.23,2-.26,2.18-.26a18.4,18.4,0,0,1,2,.42,38.22,38.22,0,0,0-.3,4.78,1.14,1.14,0,0,0,.66,1.24q4,2.81,8.28,5.3A2.87,2.87,0,0,1,70.75,98.49Z" transform="translate(-26.1 -27.09)" style="fill:#f8c19a"/><path d="M47.57,106.18A2.4,2.4,0,0,1,48.83,105c1.07-.4,2.12-.83,3.19-1.25a6.75,6.75,0,0,1,2.11-.53,1.26,1.26,0,0,1,1.09.49c.33.5-.1.77-.31,1.17a2.07,2.07,0,0,0-.16.59,17.53,17.53,0,0,0,0,2,.25.25,0,0,1-.06.17l-.12,0-1,.06a.24.24,0,0,1-.12,0,.21.21,0,0,1-.06-.18,14,14,0,0,0,.17-2.4.37.37,0,0,0-.09-.2c-.1-.1-.26,0-.39,0a7.31,7.31,0,0,0-1.84,1.71A3.41,3.41,0,0,1,49.1,108c-.82,0-1.8-.52-1.62-1.46A1.58,1.58,0,0,1,47.57,106.18Z" transform="translate(-26.1 -27.09)" style="fill:#e26a84"/><path d="M71.51,97a.82.82,0,0,1,.43-.12,1.66,1.66,0,0,1,1.18.45c.13.13.24.28.37.41a3.16,3.16,0,0,0,1.76.74c.71.12.29,1,0,1.3a.32.32,0,0,1-.13.1c-.27.09-.75-.54-1-.66A3.16,3.16,0,0,0,73,98.86c-.82-.06-.74.65-.84,1.24s-.18,1-.24,1.5a6.24,6.24,0,0,1-.46,2,1.87,1.87,0,0,1-1.55,1.12,1.4,1.4,0,0,1-1.55-1.24.93.93,0,0,1,0-.29,1.91,1.91,0,0,1,.49-1.1,7.94,7.94,0,0,1,.75-.58,3.33,3.33,0,0,0,.59-.71,3.06,3.06,0,0,0,.43-1.7A2.1,2.1,0,0,1,71.51,97Z" transform="translate(-26.1 -27.09)" style="fill:#e26a84"/><path d="M52.66,51c0,.9,1,1.55,1.84,1.61s1.29-.41,1.34.65a3.81,3.81,0,0,1-3.27,3.92,1.8,1.8,0,0,1-.73,0,2.45,2.45,0,0,1-.89-.53c-.37-.3-1-.47-1-1.08,0-.09.73-.5.82-.59a1.75,1.75,0,0,0,.35-2.16c-.14-.33-.37-.67-.26-1a1.06,1.06,0,0,1,.5-.5C51.81,51,52.27,50.8,52.66,51Z" transform="translate(-26.1 -27.09)" style="fill:#f8c19a"/><path d="M53.58,48.49a1.59,1.59,0,0,0-1.5-.86A4,4,0,0,0,49.39,49a3.12,3.12,0,0,0-1,2.26c.09,1,.63,2.15,1.82,2.07C52.44,53.22,54.76,50.67,53.58,48.49Z" transform="translate(-26.1 -27.09)" style="fill:#f8c19a"/><path d="M55.61,47.36c-.7.59-2.44.89-2.12-.52.14-.66.81-1.43,1.55-1.21s1.23,1.17.59,1.73Z" transform="translate(-26.1 -27.09)" style="fill:#424242"/><path d="M47.49,49.62c-.13.37.59.67.89.73s1.6-.64,1-1.05a2.8,2.8,0,0,0-1.87.2A.29.29,0,0,0,47.49,49.62Z" transform="translate(-26.1 -27.09)" style="fill:#f7aa77"/><path d="M58,56.44h.14c.19,0,.47-.7.59-.86a13.36,13.36,0,0,0,1-2.16,16.21,16.21,0,0,0,1-4.71,20.83,20.83,0,0,0-1.64-9.35,26.48,26.48,0,0,0-1.87-3.53,4.56,4.56,0,0,0-3-2.24,1,1,0,0,0-1.12.51c-.26.59.32,1,.69,1.35,3.19,2.8,3.66,8.13,3,12.11a15.53,15.53,0,0,1-1,3.34c-.25.64-1,1.41-.72,2.16s1.34,1.67,2,2.26a2.75,2.75,0,0,1,.54.59C57.78,56.1,57.7,56.42,58,56.44Z" transform="translate(-26.1 -27.09)" style="fill:#f8c19a"/><path d="M51,48.18a2,2,0,0,0,.45.5l.21.26c-.12-.15.13.2.15.23.37.59.9,1.38,1.62,1.48a1.23,1.23,0,0,0,1.48-.91,1.1,1.1,0,0,0,0-.57c-.12-.75-1-1.44-1.58-1.85s-1.64-.75-2.2-.12A.85.85,0,0,0,51,48.18Z" transform="translate(-26.1 -27.09)" style="fill:#2d2d2d"/><path d="M50.28,49.88a.35.35,0,0,0,.29-.39.34.34,0,0,0-.29-.29.35.35,0,0,0-.3.38A.34.34,0,0,0,50.28,49.88Z" transform="translate(-26.1 -27.09)" style="fill:#2d2d2d"/><path d="M48.31,51.51c.15.48.77.63,1.21.68A1.57,1.57,0,0,0,51,51.55a.14.14,0,0,0,0-.18.15.15,0,0,0-.13,0,2.46,2.46,0,0,1-1.28.44c-.43,0-.72-.29-1.11-.4a.08.08,0,0,0-.1.07Z" transform="translate(-26.1 -27.09)" style="fill:#2d2d2d"/><path d="M31.37,56a3.21,3.21,0,0,0,1.18-.38,5.75,5.75,0,0,0,1.08-.46.71.71,0,0,0-.35-1.32,3.39,3.39,0,0,0-1.49.47,1.48,1.48,0,0,0-1,1.13.59.59,0,0,0,.59.59Z" transform="translate(-26.1 -27.09)" style="fill:#f8c19a"/><g style="opacity:0.27000001072883606"><path d="M39.85,37.3c-.34-.07.21,0,.23,0a1.22,1.22,0,0,0,.73-.39,2.52,2.52,0,0,0,.65-1.52A3.51,3.51,0,0,0,40,32c-1.28-.9-2.55,1.25-1.23,2.1a1.87,1.87,0,0,1,.78,1.45c0,.43-.37,1.63.32,1.76Z" transform="translate(-26.1 -27.09)" style="fill:#8e8e8e"/></g><g style="opacity:0.27000001072883606"><path d="M43.57,49.87a5.66,5.66,0,0,0,1-1.57,3.77,3.77,0,0,0,.1-2.18A3.94,3.94,0,0,0,41.32,43a1.21,1.21,0,0,0-.59,2.25,4.3,4.3,0,0,1,1.06.5,2.84,2.84,0,0,1,.75,1.09A4.31,4.31,0,0,1,43,49.52c-.1.32.36.63.58.35Z" transform="translate(-26.1 -27.09)" style="fill:#8e8e8e"/></g><g style="clip-path:url(#clip-path)"><path d="M46.33,43.24a8.43,8.43,0,0,0,.54,1.53,4.31,4.31,0,0,0,.69,1.39.14.14,0,0,0,.2,0,.12.12,0,0,0,0-.09,4.92,4.92,0,0,0-.5-1.62,5.28,5.28,0,0,0-.71-1.35A.15.15,0,0,0,46.33,43.24Z" transform="translate(-26.1 -27.09)" style="fill:#424242"/><path d="M48.1,42.56a5.4,5.4,0,0,0,.64,1.55c.2.37.51,1,.95,1.06a.15.15,0,0,0,.18-.11V45a5.14,5.14,0,0,0-.7-1.14c-.27-.46-.49-1-.79-1.42a.15.15,0,0,0-.22,0A.14.14,0,0,0,48.1,42.56Z" transform="translate(-26.1 -27.09)" style="fill:#424242"/><path d="M49.75,41.74c.28.37.59.7.89,1a9.72,9.72,0,0,0,.93,1.09c.12.1.34.05.33-.13a2,2,0,0,0-.67-1.13A8.5,8.5,0,0,0,50,41.54c-.12-.09-.3.08-.21.2Z" transform="translate(-26.1 -27.09)" style="fill:#424242"/><path d="M51.77,40.48c.39.25.8.47,1.18.69a3.11,3.11,0,0,0,1,.47.13.13,0,0,0,.1-.19,1.83,1.83,0,0,0-.9-.72,9.08,9.08,0,0,0-1.33-.55c-.19-.07-.28.2-.13.3Z" transform="translate(-26.1 -27.09)" style="fill:#424242"/><path d="M53.46,38.53a3.91,3.91,0,0,1,1,.9c.25.27.51.65.89.75a.21.21,0,0,0,.24-.15.22.22,0,0,0,0-.14,3.82,3.82,0,0,0-.91-1,3,3,0,0,0-1-.65c-.15-.05-.24.19-.11.26Z" transform="translate(-26.1 -27.09)" style="fill:#424242"/><path d="M55.66,32.42a5.23,5.23,0,0,0,.84.51,3,3,0,0,0,1,.4c.11,0,.19-.1.11-.18a2.48,2.48,0,0,0-.83-.52,7.75,7.75,0,0,0-1-.41c-.12,0-.23.12-.13.2Z" transform="translate(-26.1 -27.09)" style="fill:#424242"/><path d="M56.87,30.53a4.72,4.72,0,0,1,.8,1.13c.19.3.46.69.85.69a.12.12,0,0,0,.12-.12v0a5.53,5.53,0,0,0-.72-1,2.07,2.07,0,0,0-.93-.8C56.9,30.34,56.79,30.46,56.87,30.53Z" transform="translate(-26.1 -27.09)" style="fill:#424242"/><path d="M59.26,29.18a13.57,13.57,0,0,0,.18,1.39c.05.46,0,.8.34,1.05a.14.14,0,0,0,.21-.09,3.08,3.08,0,0,0-.09-1.28,1.77,1.77,0,0,0-.47-1.15.11.11,0,0,0-.15,0,.14.14,0,0,0,0,.07Z" transform="translate(-26.1 -27.09)" style="fill:#424242"/><path d="M62.15,29.61c-.51.15-.8.83-1,1.26s-.59,1.12-.28,1.53a.15.15,0,0,0,.19.05c.35-.22.44-.83.59-1.18a6.12,6.12,0,0,0,.64-1.54.1.1,0,0,0-.11-.11h0Z" transform="translate(-26.1 -27.09)" style="fill:#424242"/><path d="M29.26,50.74a1.58,1.58,0,0,0,.81.76,3.27,3.27,0,0,0,1.17.49.11.11,0,0,0,.11-.11s0,0,0,0c-.07-.33-.47-.46-.73-.59a2.59,2.59,0,0,1-1.12-.65c-.09-.12-.32,0-.25.11Z" transform="translate(-26.1 -27.09)" style="fill:#424242"/><path d="M27.91,53.61a6.45,6.45,0,0,0,1.13.44,6.71,6.71,0,0,0,1.34.32.12.12,0,0,0,.11-.12.08.08,0,0,0,0-.07c-.59-.59-1.71-.55-2.47-.78a.12.12,0,0,0-.14.08A.11.11,0,0,0,27.91,53.61Z" transform="translate(-26.1 -27.09)" style="fill:#424242"/><path d="M27.5,56.54a1.49,1.49,0,0,0,1.24,0A5.34,5.34,0,0,0,30.13,56a.09.09,0,0,0,0-.13.08.08,0,0,0,0,0c-.88-.19-1.65.66-2.54.55a.14.14,0,0,0-.07.25Z" transform="translate(-26.1 -27.09)" style="fill:#424242"/><path d="M27.89,59.57c.33.12.77-.16,1.06-.28a3.4,3.4,0,0,0,1.18-.79c.08-.1,0-.27-.12-.22a8.24,8.24,0,0,0-1.18.51c-.3.15-.84.34-1,.65a.1.1,0,0,0,0,.13Z" transform="translate(-26.1 -27.09)" style="fill:#424242"/><path d="M29.15,61.72a14.26,14.26,0,0,1,1.18-1c.33-.27.81-.59.93-1a.13.13,0,0,0-.1-.16H31.1a3.17,3.17,0,0,0-1.14.81,4,4,0,0,0-1,1.21.17.17,0,0,0,.08.21.18.18,0,0,0,.16,0Z" transform="translate(-26.1 -27.09)" style="fill:#424242"/></g><path d="M50.6,61.4a1.7,1.7,0,0,1-.19.35c-1,1.46-3.4,2.17-5,2.74A23.06,23.06,0,0,1,35.75,66a8,8,0,0,1-4-1.47,9.94,9.94,0,0,1-3.17-4.16c-.59-1.48-.31-5.89-.16-6.23s.27-1.63.66-2,1.66-1.18,2.59-.07a4.66,4.66,0,0,1,.46,3.22c-.15,1.39-.14,3.25.64,4.35a4.05,4.05,0,0,0,2.63,1.28,18.75,18.75,0,0,0,11.48-2.73c.54-.37,1.88-1.86,2.46-1.77s1.3,1.52,1.42,2.09a4.14,4.14,0,0,1,.06.7A5.63,5.63,0,0,1,50.6,61.4Z" transform="translate(-26.1 -27.09)" style="fill:#f8c19a"/><path d="M66.32,85.43v-.12a18.83,18.83,0,0,0-.62-3.25,39.47,39.47,0,0,0-1.18-4.12c-.34-1-.89-1.9-1.33-2.84S62.12,73,61.73,71.84a14.55,14.55,0,0,1-.87-4.52,25.94,25.94,0,0,0-.52-5.63A25.85,25.85,0,0,0,59,57.57c-.23-.59-.83-4.38-3.12-5.77-.48-.29-1.17.47-.86.92.51.75,0,1.76-.59,2.44a2.4,2.4,0,0,1-2,.86c-.69-.1-1.51-.86-2.17-.78a1.68,1.68,0,0,0-1.12.66c-.32.59.23,1,.56,1.38a4.26,4.26,0,0,1,.78,3.47,5.57,5.57,0,0,1-1.63,2.36c-.67.7-.26,1.63.36,2.23a4.6,4.6,0,0,1,1.5,2.48,10.85,10.85,0,0,1-.47,5.59l-.78,2.53a55.34,55.34,0,0,0-1.76,6.81,17.07,17.07,0,0,0-.34,3.49c.07,1.67,2.21,1.37,3.43,1.46a85.62,85.62,0,0,0,12.07-.48C64.18,87.11,66.32,87.27,66.32,85.43Z" transform="translate(-26.1 -27.09)" style="fill:#2d2d2d"/><path d="M168,96.53a7,7,0,0,0-2.78-.26H82.8c-1.4-.28-2.84.2-4.27.28a46.87,46.87,0,0,0-.22,6.38,9.79,9.79,0,0,0,.66,3.68c1.34,3,5.2,2.31,7.88,2.31h47.39c8.74,0,17.48.07,26.23,0,1.95,0,3.79.18,5.65-.58,3.07-1.27,2.56-6.47,2.63-9.08C168.8,97.61,168.6,96.87,168,96.53Z" transform="translate(-26.1 -27.09)" style="fill:#2d2d2d"/><path d="M90.38,78a1.27,1.27,0,0,1-.83-1.37c0-2-.07-3.76-.1-5.79a5.45,5.45,0,0,0-1.7-.27.81.81,0,0,0-.55.15.91.91,0,0,0-.18.77c.14,1.93-.19,5,.08,5.7.2.53-.62-.2-1.53.57a1.42,1.42,0,0,0,.36,2.36c1,.48,1.52.06,1.65,1.26.35,3.14,0,4.41.3,6.59,0,.22.18.92.29.38.58-3,.56-7.57,1.26-8,.86-.49,2.11-.1,2-1.2C91.45,78.67,90.82,78.14,90.38,78Z" transform="translate(-26.1 -27.09)" style="fill:#2d2d2d"/><path d="M171.23,54.52c2.06-3.53,2.25-9.56.92-13.36-1.53-4.36-8.09-4.68-10.07-.46-.65,1.37-.11,2.45,0,3.8.35,2.9,0,5.27.15,8.18.05,1.11.22,2.4,1.17,3a3.55,3.55,0,0,0,1.65.35l2.74.11a4.17,4.17,0,0,0,2.3-.35A3.35,3.35,0,0,0,171.23,54.52Z" transform="translate(-26.1 -27.09)" style="fill:#2d2d2d"/><path d="M164.57,73.59a2.66,2.66,0,0,0,1.67.8A2,2,0,0,0,168,73.15c.69-1.44.81-7.83.81-9.62,0-1.45-.19-1.72-1.77-1.94-.91-.12-1.79.61-2.7.31-.06,0,.16.08,0,0a6,6,0,0,0-.49,2.8l-.15,7.58A1.5,1.5,0,0,0,164.57,73.59Z" transform="translate(-26.1 -27.09)" style="fill:#2d2d2d"/><path d="M168.39,96.36c1.82-2.46.36-7,.16-9.68-.07-1-.33-2.1-1.25-2.35a6.43,6.43,0,0,0-1.45,0,2.62,2.62,0,0,1-2.26-1.92,7.71,7.71,0,0,1-.13-3.14c1.19-11.82,2.76-23.93-.14-35.45a20.48,20.48,0,0,0-3-7.12c-2.9-4-7.9-6-12.8-6.31s-9.78.89-14.49,2.3-9.39,3-14.26,3.63A58.8,58.8,0,0,1,106,36.18c-2.12-.21-5.06.06-7-1s-2.75-3.48-3.92-5.16a7,7,0,0,0-5.17-2.95c-4-.28-6.26,3.41-6.23,6.95,0,2.24.61,4.43.8,6.65a18.53,18.53,0,0,1-2.07,10.07,7.62,7.62,0,0,0-1,3.79c.25,4.13,1.95,11.34,2.81,15.39.64,3,1.46,5.15,4.08,5.61,5.09.9-.55-18.45,6.32-22.05a8.23,8.23,0,0,1,3.56-.68q13.49-.49,27-.29c3.2.05,6.73.27,9,2.53,1.83,1.84,2.35,4.58,2.68,7.15a101.93,101.93,0,0,1,.8,10.33c.1,3.41,1.66,8-1.74,10.31-1.95,1.3-4.52,1.23-6.8,1.68-6.78,1.33-33.2,3.29-39.26,4.26-3.07.5-6.71,1-9.34,2.85-1.76,1.2-3.77,4.71-1.56,6.24,1.94,1.34,4.31.39,8.92.26,11-.31,15.86-.13,23.78-.13h44.92c3.21,0,9.47,1.31,11.76-1.54A.76.76,0,0,1,168.39,96.36Z" transform="translate(-26.1 -27.09)" style="fill:#6fb2b2"/><g style="opacity:0.36"><path d="M105,44.9c1.07.29,2.07.79,3.15,1.1a28.82,28.82,0,0,0,3.68.72,48.17,48.17,0,0,0,7.85.74,50.05,50.05,0,0,0,7.92-.63A38.8,38.8,0,0,0,135,44.7a65.56,65.56,0,0,1,7.09-2.38q.8-.2,1.59-.33c.44-.07.42-.07-.05,0,.3,0,.61-.06.92-.08a12.86,12.86,0,0,1,1.52,0c.18,0,1.18.15.2,0,.29,0,.59.11.88.18s1.66.59.72.18a11.38,11.38,0,0,1,1.24.67c.16.1.31.21.46.32-.79-.56,0,0,.1.11a11.24,11.24,0,0,1,1.18,1.21c.27.33.24.29-.08-.12.17.23.32.47.48.7a16.74,16.74,0,0,1,.84,1.49l.24.52c-.44-1-.05-.09,0,.1.28.77.54,1.53.89,2.26a3.89,3.89,0,0,0,4.42,1.8c1.52-.41,3.09-2.08,2.87-3.77-.7-5.42-4.79-10.14-9.75-12.21s-10.53-.5-15.32,1.27A75.91,75.91,0,0,1,128,39.22c-1.22.31-2.45.51-3.69.72l-1,.16c.79-.12-.35,0-.42,0-.7.08-1.4.14-2.1.2-2.6.2-5.18.34-7.78.59-1.28.12-2.56.28-3.85.44s-2.71.68-4.11,1a1.34,1.34,0,0,0,0,2.57Z" transform="translate(-26.1 -27.09)" style="fill:#fff"/></g><g style="opacity:0.36"><path d="M90.64,36c0,.27-.11.6-.12.85A8.67,8.67,0,0,0,90.67,38c0-.26-.06-.51-.1-.77a6.15,6.15,0,0,0,.78,2.8,3.25,3.25,0,0,0,3.59,1.46,3.17,3.17,0,0,0,2.33-3.06c0-.37-.08-.73-.15-1.1a3.7,3.7,0,0,0-.89-1.53,4,4,0,0,0-.51-.5,3.74,3.74,0,0,0-3.49-.88A2.28,2.28,0,0,0,90.64,36Z" transform="translate(-26.1 -27.09)" style="fill:#fff"/></g><g style="opacity:0.36"><path d="M92,93.92c2.66-.06,5.31-.64,8-.86s5.48-.37,8.23-.45c3-.1,6.09-.46,9.13-.8a86.69,86.69,0,0,0,9.38-1.14,1,1,0,0,0,0-1.88c-3-.62-6-.16-9,.19-3.16.36-6.32.75-9.5.87-2.87.11-5.74.2-8.59.58-2.68.36-5.64.77-7.91,2.38A.6.6,0,0,0,92,93.92Z" transform="translate(-26.1 -27.09)" style="fill:#fff"/></g><path d="M138.81,55.85l.08.06-.35-.27a4.25,4.25,0,0,0,.53.42,5.88,5.88,0,0,0,.62.29l-.41-.17.13.06-.33-.25,0,0a1.63,1.63,0,0,0,.7.42,1.79,1.79,0,0,0,.86,0,1.62,1.62,0,0,0,1.12-1.12,3.17,3.17,0,0,0,.07-.61,1.9,1.9,0,0,0-.56-1.33,2.14,2.14,0,0,0-1.63-.69,1.61,1.61,0,0,0-.86.23,1.72,1.72,0,0,0-.79,1,1.74,1.74,0,0,0,.79,1.92Z" transform="translate(-26.1 -27.09)" style="fill:#50929b"/><path d="M140.25,62.53l.05,0a1.78,1.78,0,0,0,1.73,0,1.82,1.82,0,0,0,.88-2.07,1.87,1.87,0,0,0-.83-1.08,1.81,1.81,0,0,0-1.83,3.12Z" transform="translate(-26.1 -27.09)" style="fill:#50929b"/><path d="M141.76,68.62a1.66,1.66,0,0,0,0-3.32,1.66,1.66,0,0,0,0,3.32Z" transform="translate(-26.1 -27.09)" style="fill:#50929b"/><path d="M143.28,77.14l0,0a1,1,0,0,0,.17-.4,1.64,1.64,0,0,0,0-.88c-.06-.14-.11-.29-.18-.43a1.76,1.76,0,1,0-2,2.57,1.83,1.83,0,0,0,.93,0l.42-.18a1.73,1.73,0,0,0,.63-.63Z" transform="translate(-26.1 -27.09)" style="fill:#50929b"/><g style="opacity:0.36"><path d="M168,40.6a1,1,0,0,0,.3.74.8.8,0,0,0,1.12,0,.68.68,0,0,0,.11-.79.75.75,0,0,0-.27-.26l.14.1-.06-.06a1.34,1.34,0,0,1,.11.14l0,0a1.22,1.22,0,0,0,.07.17.09.09,0,0,1,0,0,1.23,1.23,0,0,0,0,.19v-.08a1.5,1.5,0,0,1,0,.2s0-.05,0-.08a.76.76,0,0,0-.53-.94.72.72,0,0,0-.59.08.73.73,0,0,0-.38.66Z" transform="translate(-26.1 -27.09)" style="fill:#fff"/></g></svg>