<svg id="Layer_1" data-name="Layer 1" xmlns="http://www.w3.org/2000/svg" xmlns:xlink="http://www.w3.org/1999/xlink" viewBox="0 0 177.46 138.99"><defs><clipPath id="clip-path" transform="translate(-81.29 -17.68)"><path d="M91.25,82.1c-.4.23-.86-.15-1.47-.54a21.83,21.83,0,0,1-3.93-3.12A16.69,16.69,0,0,1,81.94,72,18.38,18.38,0,0,1,82.41,61a23.49,23.49,0,0,1,6.07-8.74A24.15,24.15,0,0,1,102,45.5a87.59,87.59,0,0,0,10.92-1.82c6.36-1.63,12.58-5,15.22-11.32,1.14-2.74,1.4-5.89,2.7-8.61A10.35,10.35,0,0,1,138.09,18a8.67,8.67,0,0,1,4.92.16,11.54,11.54,0,0,1,4.58,3.08c-1.16,1.36-2.28,2.85-3.32,4.31A7.13,7.13,0,0,0,139.35,23a6.31,6.31,0,0,0-5.68,2.8c-1.26,1.88-1.23,4.11-1.56,6.24a15.56,15.56,0,0,1-4,7.9,20.78,20.78,0,0,1-4.59,3.42,39.41,39.41,0,0,1-11.4,4.15A68.48,68.48,0,0,0,94.6,53.19C92.08,54.44,89.5,56,88,58.54A14,14,0,0,0,86.93,69a14.41,14.41,0,0,0,3.78,7.07c.85.79,2.25,1.09,2,2.29a13.82,13.82,0,0,1-1.09,3.29A1.06,1.06,0,0,1,91.25,82.1Z" style="fill:none"/></clipPath></defs><title>background-concentrese</title><path d="M249.55,41.48c.07-.06.07-.06,0,0l.11-.07.25-.2c-.2.17,0,0,0,0,.28-.21.32-.25.12-.1a3.79,3.79,0,0,0,.39-.31,1.34,1.34,0,0,0,.31-1.31,1.21,1.21,0,0,0-1.17-.89h-.06a1.26,1.26,0,0,0-1.11.63,2,2,0,0,0,.12,2.14.66.66,0,0,0,1,.13Z" transform="translate(-81.29 -17.68)" style="fill:#f7aa77"/><path d="M238.89,39.94a3.45,3.45,0,0,1,.28-.26,1.59,1.59,0,0,0,.4-.89,1.82,1.82,0,0,0-.69-2.14,1.34,1.34,0,0,0-1.84.48,1.67,1.67,0,0,0-.18,1.18,1.16,1.16,0,0,0,.17.47c.06.14.07.15,0,0,.09.21.15.45.26.65a3,3,0,0,0,.45.5.81.81,0,0,0,1.14,0Z" transform="translate(-81.29 -17.68)" style="fill:#f7aa77"/><path d="M245.85,48c0-2.21.61-4.69-.57-6.52-.93-1.45-2.57-.9-4-.68-.39.06-.26,3.33-.61,5.71-.38,2.61-1.73,3.81-3.25,4.28-3.85,1.18,1,6,2.92,6.69a5.56,5.56,0,0,0,5.44-1.41c1-.88,3.53-3,1.84-4.11A4.25,4.25,0,0,1,245.85,48Z" transform="translate(-81.29 -17.68)" style="fill:#f8c19a"/><path d="M254.25,88a82.45,82.45,0,0,1-.83-11.2c.17-3.82,1.17-7.56,1.55-11.37s.05-7.9-2.16-11c-1.41-2-5.54-4.31-6.17-3.47-.86,1.13-1.46,5.58-6.8,3.85-2.83-.92-2.43-4.36-5-3.52-1.46.48-4.65,2.07-4.77,3.84-.07,1,.52,1.93.71,2.87a19.7,19.7,0,0,1-.66,9.6,4.24,4.24,0,0,0,1.33,4.74c1.77,1.51,2,3.43,2,5.73A48,48,0,0,1,232,90.49c-.87,3.21-3.37,6.3-4.77,9.34a43.93,43.93,0,0,0-2.24,5.84c-.59,2-2.81,5.52-.26,6.83a13.73,13.73,0,0,0,5.43,1.32,49.21,49.21,0,0,1,5.36.92c2.37.44,4.76.76,7.16,1s6.06,1.4,7.51-1.18c.85-1.49,1-3.61,1.33-5.27.42-2,.8-4.1,1.28-6.13.56-2.39,1.21-4.76,1.61-7.18a22.85,22.85,0,0,0,0-5.42C254.4,89.71,254.33,88.87,254.25,88Z" transform="translate(-81.29 -17.68)" style="fill:#424242"/><path d="M219,47.36l0,0a3.63,3.63,0,0,1,3-.21c.69.56.79,5.46.89,6.64a6.77,6.77,0,0,1-2.94.11.38.38,0,0,1-.21-.07.4.4,0,0,1-.07-.18,42.46,42.46,0,0,1-.85-4.33C218.8,48.69,218.58,47.83,219,47.36Z" transform="translate(-81.29 -17.68)" style="fill:#f9ad15"/><path d="M226.32,54.73a4.44,4.44,0,0,1-1.8.06c-.21-1.41-1.26-7.61-.25-7.76a11.43,11.43,0,0,1,1.94,0c1,.14.83,4.71.87,5.87,0,.53.14,1.29-.36,1.7A.89.89,0,0,1,226.32,54.73Z" transform="translate(-81.29 -17.68)" style="fill:#e26a84"/><path d="M214.19,84.5c.4-.91,1.93-1.79,2.69-2.43,1.17-1,2.4-1.88,3.62-2.81,1.52-1.14,3-2.28,4.41-3.54,1.1-1,2.56-1.92,3.23-3.34.79-1.66.19-3.53,0-5.26-.48-3.92-.86-8.31,1.13-11.9a2.49,2.49,0,0,1,4.41-.06,7.18,7.18,0,0,1,.83,2.62,72.94,72.94,0,0,1,.83,9.22,39.83,39.83,0,0,1,0,6.82c-.59,4.26-5.44,6.06-8.5,8.08a36.88,36.88,0,0,1-5,2.85c-1.56.72-2.88,2-4.62,2.33-1.17.22-3.55-1.12-3-2.55Z" transform="translate(-81.29 -17.68)" style="fill:#2d2d2d"/><path d="M230.66,55a.93.93,0,0,1-.34.26c-.86.38-1.9.07-1.95-.72-.09-1.29-.73-4.12-.11-5.32a2,2,0,0,1,2-.41c.68.44.51,3,.55,4.05C230.8,53.51,231.12,54.48,230.66,55Z" transform="translate(-81.29 -17.68)" style="fill:#6fb2b2"/><path d="M234.5,105a3.22,3.22,0,0,1,1.1,1.79c.92,3.18-.06,6.56-.39,9.86-.16,1.66-.15,3.33-.16,5a184.52,184.52,0,0,1-1.46,21.66,14.88,14.88,0,0,1-6.23-.22c-.18,0,.22-10.94.21-12a90.52,90.52,0,0,0-1-11.15c-.5-3.79-1.15-7.57-.71-11.4a5.35,5.35,0,0,1,.45-1.82,4,4,0,0,1,2.62-2,12,12,0,0,1,3.34-.27A3.93,3.93,0,0,1,234.5,105Z" transform="translate(-81.29 -17.68)" style="fill:#f8c19a"/><path d="M250.47,144.22a87.76,87.76,0,0,0-1.05-14.11c-.62-4-2.11-7.93-2-12,0-2.73,1.61-5.32,1.33-8a2.57,2.57,0,0,0-.42-1.29,3.09,3.09,0,0,0-1.9-1,19.58,19.58,0,0,0-6.83-.16c-3.39,5.31-1.14,11.1.23,16.69q2.37,9.69,5.5,19.17C247.23,143.5,248.53,144.13,250.47,144.22Z" transform="translate(-81.29 -17.68)" style="fill:#f8c19a"/><path d="M190.79,71l0-.21c-.15-1.69-.36-3.38-.61-5.06-.2-1.35.67-3.21-.88-3.77-3.62-1.29-5.4.57-5.68,3.31a25,25,0,0,0,.27,7.91c.45,2.08,1,4.74,4,4.87C192.12,78.2,191.19,74.42,190.79,71Z" transform="translate(-81.29 -17.68)" style="fill:#e26a84"/><path d="M258.17,107.22c-.92,5.42-9.42,3.76-13.34,3.88q-9.39.27-18.77.4-28.45.38-56.89-.67c-3.45-.12-3.65-3.57-3.68-6.27,0-3,.6-6,.75-9,.14-2.83-.49-6.17,1-8.74s4.89-3.72,8-4.1c4.9-.59,9.86-.15,14.78.24q21.9,1.74,43.87,2.18c6.14.11,12.35.15,18.33,1.54a9.47,9.47,0,0,1,4.39,2c1.72,1.6,2.2,4.14,2.16,6.49C258.64,99.09,258.84,103.32,258.17,107.22Z" transform="translate(-81.29 -17.68)" style="fill:#db900b"/><path d="M257.28,105.19c-1.37,2.14-4.43,2.07-6.73,2.28-2,.18-14.07.13-18.05.25-7.16.2-14.25.63-21.42.54-6-.07-12-.28-18-.3-4.17,0-19.91-.28-23.68-.38-1.82,0-3.59-.63-4.08-2.59-.21-.87-.52-11.75.25-16.33.43-2.55.63-5.44,3.34-6.59s6.82-1.1,9.73-1.1c1.34,0,62.41.73,71.52,1.47,2.15.18,4.72.35,6.26,2a8.85,8.85,0,0,1,2.31,6.44c0,2.82,0,4.74.05,7.52C258.75,101,258.74,102.88,257.28,105.19Z" transform="translate(-81.29 -17.68)" style="fill:#f9ad15"/><path d="M240.73,32.17c-2,2.49-2.95,6.53-2.26,9s3.32,4.77,6,3.92c5.08-1.65,7.87-12.05,2.43-14.63C244.36,29.32,242.24,30.31,240.73,32.17Z" transform="translate(-81.29 -17.68)" style="fill:#f8c19a"/><path d="M246,26.38a3.25,3.25,0,0,0,2.7,3.16c4.2.47,6-8.25,1-7.31C247.94,22.56,245.89,24.45,246,26.38Z" transform="translate(-81.29 -17.68)" style="fill:#2d2d2d"/><path d="M245.6,143.32a4.67,4.67,0,0,1,5.11-.08c1.47,1.06,2.49,4,.32,4.87-1.8.73-1.3-.54-2.53-.83-.9-.21-1.54,1.23-2,1.79a16.1,16.1,0,0,1-5.22,4.16c-.89.44-2.4,1.25-3,.05-.39-.8.3-2,.75-2.6q1.39-1.8,2.8-3.59A14.93,14.93,0,0,1,245.6,143.32Z" transform="translate(-81.29 -17.68)" style="fill:#ef8f9f"/><path d="M230.07,85.07c.53.88.33,2.16.28,3.55-.13,2.95-3.65,2.39-5.72,2.48-1.88.08-3.76.15-5.64.2q-5.52.14-11,.08c-3.23,0-6.45-.12-9.67-.25-2.56-.11-5.78,0-6.55-2.85a57.82,57.82,0,0,1-1.44-8.78c-.31-2.79-1.11-5.53-1.23-8.34-.11-2.55-.26-5.07-.58-7.62-.58-4.66,2.69-7.58,6.94-8.58a62.33,62.33,0,0,1,17.44-1.4c5.34.28,10.59-.1,16,.23,2.78.17,4.22,1.51,4.54,4.18a45.54,45.54,0,0,1,0,11.19c-.57,4.4-5.66,2.55-8.77,2.42-2.45-.09-4.9-.16-7.35-.19-4.81-.06-9.62,0-14.43.09-1.71,0-3.28-.16-4.69,1-.87.74-.4,3.35-.37,4.4a30.39,30.39,0,0,0,.44,4.35c.23,1.26.63,2.67,1.77,3.24a4.36,4.36,0,0,0,2.38.23c4.32-.37,8.83-.53,13.23-.58,2.44,0,4.89-.25,7.34-.13,1.84.08,3.63-.42,5.47,0A2.39,2.39,0,0,1,230.07,85.07Z" transform="translate(-81.29 -17.68)" style="fill:#ef8f9f"/><path d="M230.6,119.78a2.73,2.73,0,0,0,.24-1.44c-.11-2.64-.72-5.36-1.07-8-.47-3.48-.93-7.06-.11-10.48s3-6.17,4.77-9.15c.83-1.4,2.46-2.51,3.06-4s-.72-2.4-2.11-2.92a12.22,12.22,0,0,0-4.1-.82c-2.5,0-5.05-.1-7.55-.23-.86,0-2.67-.39-3.3.36s.08,2.13-.18,3a12.31,12.31,0,0,1-2.95,4.59c-1.78,2-4,3.5-5.58,5.63-1.94,2.59-1.89,6.9-1.37,10,.69,4.13,3.1,14,4,14.36,1.77.72,3.78.23,5.61.08a57.43,57.43,0,0,1,6.69-.18C227.82,120.56,229.88,121.08,230.6,119.78Z" transform="translate(-81.29 -17.68)" style="fill:#93c9c0"/><path d="M230.86,83.09a58.24,58.24,0,0,0,.55-6.41c.21-2.12,1-5.16-.59-5-1.21.13-5-.66-5-.07,0,1.65-.14,3.5.65,3.9a10.72,10.72,0,0,0,2.28.54c1.51.41,1.54,2.07,1.52,3.32a23,23,0,0,0,0,3.7C230.22,83.28,230.82,83.29,230.86,83.09Z" transform="translate(-81.29 -17.68)" style="fill:#f7b0b9"/><path d="M219.75,148.05a11.11,11.11,0,0,1,2.93-.57c2-.21,4.22-.81,6.25-.39,2.56.53,1.55,5.47,1.34,7.17a1.48,1.48,0,0,1-.29.82c-1,1.12-11.74,1-13.33.75-2.54-.43-1.46-2.51-.64-4.11A7.54,7.54,0,0,1,219.75,148.05Z" transform="translate(-81.29 -17.68)" style="fill:#2d2d2d"/><path d="M170.72,129.54c.23,5.9.36,12.76.64,18.66.16,3.24-.31,6.55.64,7,.53.27,3.53.63,4.5-.15.25-.2-.62-20.34-1.1-31-.18-4,.39-8.93.36-14.05,0-.38-5.16-.79-5.56-.8C169.29,109.17,170.62,127,170.72,129.54Z" transform="translate(-81.29 -17.68)" style="fill:#db900b"/><path d="M254.33,109.56c.06,7.76-.58,45.8-2.45,46-1.11.09-3.23.43-4.19-.35a1.06,1.06,0,0,1-.25-.92c.48-10.69,1-40.27.22-44.23-.07-.37,4-.78,4.43-.78C253,109.22,254.32,108.94,254.33,109.56Z" transform="translate(-81.29 -17.68)" style="fill:#db900b"/><path d="M228.27,90.4a3.18,3.18,0,0,1-.43-3.54c.58-1,1.86-1.29,2.91-1.59a27.19,27.19,0,0,0,3.7-1.43,30.61,30.61,0,0,0,9.33-5.75c2.83-2.72,3.18-5.4,3.8-9.13.39-2.32,1.21-4.94,1.21-7.28.38-2.3.16-5.36,2-7.09,2.45-2.27,4.51,3.68,4.82,5.13.77,3.61.51,7.36.25,11s-.87,7.66-3.32,10.57-6.93,4.78-10.43,6.36c-1.72.78-3.63,1.14-5.41,1.93C234.78,90.49,230,92.55,228.27,90.4Z" transform="translate(-81.29 -17.68)" style="fill:#2d2d2d"/><path d="M229.16,92.17a.61.61,0,0,0,.07-.1c.72-1.09.94-3.32-.06-4.36a2.14,2.14,0,0,0-1.6-.53c-.88,0-5.07.51-4.74,2,.16.69,1.87.35,2.26.84.69.89-.67,1.55-1.15,2-1.39,1.33-3.88,4.18-.65,5.24,1.45.48,2.77-1.06,3.56-2.06S228.47,93.19,229.16,92.17Z" transform="translate(-81.29 -17.68)" style="fill:#f8c19a"/><path d="M233.93,142.5a2,2,0,0,0-1.52-.74,14,14,0,0,0-6.5.88,19.91,19.91,0,0,0-6.57,3.87c-.6.56-2.39,2-2,3,.49,1.33,2.49.87,3.47.53,1.65-.59,3.18-1.52,4.87-2.15a11.34,11.34,0,0,1,2.71-1.1c.94-.07,1.05,1,1.58,1.58a3,3,0,0,0,3.54-.19c1.06-1,.83-3.22.75-4.52A2.19,2.19,0,0,0,233.93,142.5Z" transform="translate(-81.29 -17.68)" style="fill:#ef8f9f"/><path d="M247.3,30.85c.42-1.73-1.29-2.84-2.83-2.93-1.85-.1-4,.71-4.5,2.68-.85,3.32,4,5.11,6.39,5.68,1.34.32,3.15.65,4.37-.22,2.12-1.51,1.27-3.9-.06-5.61a8.64,8.64,0,0,0-4-2.33c-1.88-.6-5.22-.11-5,2.54a2.22,2.22,0,0,0,2.18,2.18,2.33,2.33,0,0,0,.74-.07c.23-.1,1.15-.45.46-.2-.33,0-.35,0-.06,0,.64,0-.44-.1.24,0a4.82,4.82,0,0,1,2,.94q.34.24,0,0c.06,0,.32.4.12.1.1.16.19.31.27.47-.36-.66.21-1.56.75-2,.36-.13.42-.16.17-.09.6-.14.1,0-.08,0s-.71-.08-.19,0l-.63-.11a13.35,13.35,0,0,1-3.8-1.23c-.21-.14-.24-.16-.08-.06s.16.74.13.91c-.1.52-.36.44,0,.17s0,0,.35-.17a5.22,5.22,0,0,1,1.05-.16,3,3,0,0,1,.69-.08h.2c.36-.06.43-.06.18,0a.67.67,0,0,0,1-.39Z" transform="translate(-81.29 -17.68)" style="fill:#2d2d2d"/><path d="M195.12,90.77c.16,2.48.58,5.28-.51,7.61-1.38,3-5.79,2.11-8.4,2.28A5.6,5.6,0,0,0,181,104c-.86,2-.87,4.24-1,6.35a193.87,193.87,0,0,0-.65,19.58c.12,3.35.39,6.68.68,10a29.54,29.54,0,0,0,1.35,7.47,7.38,7.38,0,0,0,2.78,3.82,12.38,12.38,0,0,0,5,1.33,56.67,56.67,0,0,0,9.12,0c3.65-.15,7.29-.35,10.94-.43,1.54,0,3.08,0,4.62,0a10.19,10.19,0,0,1,3.06.42c.69.24,1-.85.3-1.1a13.52,13.52,0,0,0-4-.48c-2.16-.06-4.33,0-6.5.07-4.53.16-9.05.47-13.58.53a26.08,26.08,0,0,1-6.53-.63,5.32,5.32,0,0,1-2.92-1.62,9.16,9.16,0,0,1-1.73-3.74,44.38,44.38,0,0,1-1-8c-.29-3.46-.49-6.93-.54-10.4,0-2.11.13-4.2.22-6.3.12-2.7.14-5.41.31-8.12.11-1.8.23-3.63.42-5.44a7.24,7.24,0,0,1,1.8-4.6c1.58-1.5,4.41-1.09,6.39-1.12a7.65,7.65,0,0,0,5.23-1.64c2.28-2.15,1.79-6.7,1.2-9.42a.43.43,0,0,0-.84.12Z" transform="translate(-81.29 -17.68)" style="fill:#2d2d2d"/><path d="M204.77,57.87a17.18,17.18,0,0,0,2,.6c1,.09,2,.28,2.95.37,2.6.26,5.23.46,7.84.6,1.32.07,2.63.17,3.94.31l.94.11c.28,0,.3,0,.06,0l.44.06c.63.09,1.25.21,1.87.35s1,.24,1.45.38l.64.22c.43.16-.5-.24.12.06.16.07.32.17.48.26.55.33-.31-.28,0,0s.48.58,0-.12c.34.47-.17-.62,0-.08.85,3.17,5.92,1.76,4.89-1.35-.75-2.26-2.95-3.23-5.12-3.73a41.08,41.08,0,0,0-8.14-.81,61.82,61.82,0,0,0-8.49.41c-1.23.14-2.42.42-3.64.61-.76.11-1.4.52-2.13.68a.57.57,0,0,0,0,1.09Z" transform="translate(-81.29 -17.68)" style="fill:#f7b0b9"/><path d="M200.57,68.91a.85.85,0,0,0,0-1.69.85.85,0,0,0,0,1.69Z" transform="translate(-81.29 -17.68)" style="fill:#f7b0b9"/><path d="M204.69,68.7a.86.86,0,0,0,0-1.72.86.86,0,0,0,0,1.72Z" transform="translate(-81.29 -17.68)" style="fill:#f7b0b9"/><path d="M208.8,68.78a.94.94,0,0,0,0-1.88.94.94,0,0,0,0,1.88Z" transform="translate(-81.29 -17.68)" style="fill:#f7b0b9"/><path d="M241.6,37.6a1.12,1.12,0,0,0,.11.25.53.53,0,0,0,.91,0c0-.08.07-.16.11-.25a.58.58,0,0,0-.57-.73.58.58,0,0,0-.56.73Z" transform="translate(-81.29 -17.68)" style="fill:#2d2d2d"/><path d="M246.05,39.19a.6.6,0,0,0,0-1.2.6.6,0,0,0,0,1.2Z" transform="translate(-81.29 -17.68)" style="fill:#2d2d2d"/><path d="M241.61,42.3a1.67,1.67,0,0,0,1.23,1,2.1,2.1,0,0,0,1.75-.2.21.21,0,0,0,0-.31,2.24,2.24,0,0,0-1.18-.12,2.5,2.5,0,0,1-1.59-.47.11.11,0,0,0-.17.13Z" transform="translate(-81.29 -17.68)" style="fill:#2d2d2d"/><path d="M243.7,38.08a4.25,4.25,0,0,0-.65.92,2.16,2.16,0,0,0-.47,1.27,1,1,0,0,0,.46.8.94.94,0,0,0,1.12-.14,1.38,1.38,0,0,0,.37-.81c0-.18,0-.38,0-.57a5.88,5.88,0,0,0,0-1.11.52.52,0,0,0-.88-.36Z" transform="translate(-81.29 -17.68)" style="fill:#f7aa77"/><path d="M108.78,154.29c-.42-1.46-2.12-2-3.24-2.8a10.77,10.77,0,0,1-3.48-4.07,21.11,21.11,0,0,1-1.28-5.38c-.34-2.1-.36-14.26-.47-19.68-.17-8.59,1.56-23.51.07-23.5a14.35,14.35,0,0,0-3.27.33,2.12,2.12,0,0,0-1.15.54,2.49,2.49,0,0,0-.46,1.79c0,2,.26,4,.27,6,.07,10.51.39,21,.47,31.52.05,5.68-2.25,10.6-7.18,13.48-.87.51-2.69,1.53-2.09,2.81.5,1.09,2.51.92,3.49,1a83.74,83.74,0,0,0,10.14.33C102.05,156.57,109.47,156.72,108.78,154.29Z" transform="translate(-81.29 -17.68)" style="fill:#db900b"/><path d="M91.25,82.1c-.4.23-.86-.15-1.47-.54a21.83,21.83,0,0,1-3.93-3.12A16.69,16.69,0,0,1,81.94,72,18.38,18.38,0,0,1,82.41,61a23.49,23.49,0,0,1,6.07-8.74A24.15,24.15,0,0,1,102,45.5a87.59,87.59,0,0,0,10.92-1.82c6.36-1.63,12.58-5,15.22-11.32,1.14-2.74,1.4-5.89,2.7-8.61A10.35,10.35,0,0,1,138.09,18a8.67,8.67,0,0,1,4.92.16,11.54,11.54,0,0,1,4.58,3.08c-1.16,1.36-2.28,2.85-3.32,4.31A7.13,7.13,0,0,0,139.35,23a6.31,6.31,0,0,0-5.68,2.8c-1.26,1.88-1.23,4.11-1.56,6.24a15.56,15.56,0,0,1-4,7.9,20.78,20.78,0,0,1-4.59,3.42,39.41,39.41,0,0,1-11.4,4.15A68.48,68.48,0,0,0,94.6,53.19C92.08,54.44,89.5,56,88,58.54A14,14,0,0,0,86.93,69a14.41,14.41,0,0,0,3.78,7.07c.85.79,2.25,1.09,2,2.29a13.82,13.82,0,0,1-1.09,3.29A1.06,1.06,0,0,1,91.25,82.1Z" transform="translate(-81.29 -17.68)" style="fill:#f9ad15"/><path d="M111.15,99.18c1.72-1.54,2.52-4,2.78-6.7a65.07,65.07,0,0,0-.2-7.51c-.09-3.66-1.32-7.18-2.29-10.71s-1.7-7.28-.79-10.82a28.63,28.63,0,0,1,2.83-6.23,16.66,16.66,0,0,0,2.27-6.41,6.59,6.59,0,0,0-2.54-6c-2.28-1.51-4.94-1.23-6.8-3.23-1.13-1.21-.53-3,0-4.59.67-2,2.28-3.78,2.66-5.85.74-4.08-.55-5.78-3.36-6.9a6.38,6.38,0,0,0-7.71,3c-1.14,2.17-.77,4.62-.37,6.93s1.49,6-.41,8c-1.66,1.76-4.17,2.38-6,4a9.08,9.08,0,0,0-2.74,4.4c-.64,2.46.42,5.16,1.32,7.43,1.15,2.86,2.68,5.83,2.82,9s-1.15,6.42-2.6,9.35a87.33,87.33,0,0,0-4.81,10.11c-1.09,3.14-2,7.14-1.24,10.44s5.36,4.53,8.35,4.4l10.91-.5C106.22,100.53,108.63,101.07,111.15,99.18Z" transform="translate(-81.29 -17.68)" style="fill:#424242"/><path d="M129.74,148.07c-.22-1.28.08-2.62,0-3.9-.13-1.62-.29-3.23-.43-4.85-.28-3.29-.54-6.57-.73-9.87a23.21,23.21,0,0,1,.43-5.62,45.46,45.46,0,0,0,.91-6.55,48.55,48.55,0,0,0-7.22.64s-.08,0-.08.06.22-.07.19-.1a57,57,0,0,0,.23,9.86c.77,7,2.81,13.74,3.72,20.68A12.82,12.82,0,0,0,129.74,148.07Z" transform="translate(-81.29 -17.68)" style="fill:#f8c19a"/><path d="M157.17,139c-.36.41-4.94-2-5.48-2.27-2.59-1.05-5.08-2.27-7.65-3.35-3-1.26-8-2.31-8-6.28a69.63,69.63,0,0,1,.74-10.1c.05-.39,3.32-.44,3.71-.43,1.3,0,2.24.59,3.46.71a64.61,64.61,0,0,0-.51,8.12,1.95,1.95,0,0,0,1.12,2.1q6.84,4.77,14.06,9A4.82,4.82,0,0,1,157.17,139Z" transform="translate(-81.29 -17.68)" style="fill:#f8c19a"/><path d="M117.79,152.07a4.14,4.14,0,0,1,2.14-2c1.82-.67,3.61-1.41,5.42-2.12a11.14,11.14,0,0,1,3.59-.89,2.13,2.13,0,0,1,1.84.82c.56.86-.16,1.31-.52,2a3.28,3.28,0,0,0-.27,1,31,31,0,0,0-.06,3.48.39.39,0,0,1-.1.29.47.47,0,0,1-.2.06l-1.66.1a.3.3,0,0,1-.21,0,.35.35,0,0,1-.1-.3c0-1.37.52-2.73.29-4.08a.56.56,0,0,0-.15-.33c-.17-.17-.45-.08-.66,0A12.44,12.44,0,0,0,124,153a5.8,5.8,0,0,1-3.61,2.07c-1.39.07-3.05-.88-2.75-2.48A2.19,2.19,0,0,1,117.79,152.07Z" transform="translate(-81.29 -17.68)" style="fill:#e26a84"/><path d="M158.45,136.43a1.59,1.59,0,0,1,.74-.2,2.82,2.82,0,0,1,2,.77c.22.22.4.48.62.7a5.39,5.39,0,0,0,3,1.25c1.2.2.49,1.64,0,2.21a.52.52,0,0,1-.22.17c-.46.15-1.28-.92-1.66-1.12a5.15,5.15,0,0,0-2-.57c-1.39-.11-1.25,1.09-1.43,2.1-.16.85-.29,1.7-.4,2.55a10.6,10.6,0,0,1-.78,3.31,3.18,3.18,0,0,1-2.63,1.9,2.39,2.39,0,0,1-2.65-2.59,3.11,3.11,0,0,1,.83-1.87c.38-.41.88-.65,1.28-1a6.11,6.11,0,0,0,1-1.19,5.36,5.36,0,0,0,.73-2.9A3.57,3.57,0,0,1,158.45,136.43Z" transform="translate(-81.29 -17.68)" style="fill:#e26a84"/><path d="M126.44,58.35c-.07,1.54,1.77,2.63,3.13,2.73s2.19-.69,2.26,1.12a6.45,6.45,0,0,1-5.55,6.65,3,3,0,0,1-1.23,0,4.24,4.24,0,0,1-1.51-.9c-.63-.51-1.71-.8-1.62-1.83,0-.16,1.23-.85,1.39-1a3,3,0,0,0,.6-3.68c-.25-.56-.64-1.14-.44-1.72a1.82,1.82,0,0,1,.85-.86C125,58.39,125.77,58,126.44,58.35Z" transform="translate(-81.29 -17.68)" style="fill:#f8c19a"/><path d="M128,54.07a2.71,2.71,0,0,0-2.55-1.46A6.9,6.9,0,0,0,120.88,55a5.35,5.35,0,0,0-1.69,3.84c.14,1.77,1.07,3.66,3.09,3.53C126.06,62.1,130,57.77,128,54.07Z" transform="translate(-81.29 -17.68)" style="fill:#f8c19a"/><path d="M131.44,52.16c-1.18,1-4.14,1.5-3.6-.89.25-1.12,1.38-2.43,2.64-2.06s2.08,2,1,2.94Z" transform="translate(-81.29 -17.68)" style="fill:#424242"/><path d="M117.65,56c-.22.62,1,1.13,1.51,1.24.75.17,2.72-1.1,1.79-1.79a4.7,4.7,0,0,0-3.17.34A.48.48,0,0,0,117.65,56Z" transform="translate(-81.29 -17.68)" style="fill:#f7aa77"/><path d="M135.45,67.58l.25,0c.31-.08.79-1.19,1-1.46a23.41,23.41,0,0,0,1.75-3.68,27.49,27.49,0,0,0,1.66-8,35.42,35.42,0,0,0-2.79-15.87,43,43,0,0,0-3.18-6,7.74,7.74,0,0,0-5-3.81,1.65,1.65,0,0,0-1.91.87c-.43,1,.54,1.73,1.17,2.29,5.43,4.76,6.23,13.82,5.13,20.58a26.65,26.65,0,0,1-1.6,5.66c-.44,1.1-1.64,2.41-1.23,3.68.46,1.44,2.27,2.84,3.34,3.83a4.89,4.89,0,0,1,.93,1C135.13,67,135,67.54,135.45,67.58Z" transform="translate(-81.29 -17.68)" style="fill:#f8c19a"/><path d="M123.64,53.54a3.37,3.37,0,0,0,.75.85,5.28,5.28,0,0,1,.36.44c-.2-.25.23.34.26.4.63,1,1.52,2.34,2.75,2.51a2.09,2.09,0,0,0,2.52-2.52c-.21-1.27-1.69-2.44-2.68-3.13s-2.8-1.28-3.75-.21a1.44,1.44,0,0,0-.21,1.66Z" transform="translate(-81.29 -17.68)" style="fill:#2d2d2d"/><path d="M122.39,56.43a.58.58,0,0,0,0-1.15.58.58,0,0,0,0,1.15Z" transform="translate(-81.29 -17.68)" style="fill:#2d2d2d"/><path d="M119.05,59.2c.25.82,1.3,1.08,2.06,1.16a2.64,2.64,0,0,0,2.47-1.09.22.22,0,0,0-.3-.3,4.26,4.26,0,0,1-2.17.75c-.73,0-1.23-.5-1.9-.69a.14.14,0,0,0-.16.17Z" transform="translate(-81.29 -17.68)" style="fill:#2d2d2d"/><path d="M90.28,66.81a5.09,5.09,0,0,0,2-.65,9.6,9.6,0,0,0,1.83-.78,1.2,1.2,0,0,0-.6-2.23,5.56,5.56,0,0,0-2.53.79,2.51,2.51,0,0,0-1.63,1.92,1,1,0,0,0,1,1Z" transform="translate(-81.29 -17.68)" style="fill:#f8c19a"/><g style="opacity:0.27"><path d="M104.68,35.06c-.58-.12.36.06.39.06a2.09,2.09,0,0,0,1.23-.67,4.25,4.25,0,0,0,1.12-2.57A6,6,0,0,0,104.89,26c-2.16-1.53-4.33,2.12-2.08,3.56a3.19,3.19,0,0,1,1.33,2.46c.07.74-.63,2.78.54,3Z" transform="translate(-81.29 -17.68)" style="fill:#8e8e8e"/></g><g style="opacity:0.27"><path d="M111,56.41a9.56,9.56,0,0,0,1.7-2.66,6.48,6.48,0,0,0,.16-3.7c-.58-2.61-2.9-5.14-5.68-5.28-2-.1-2.88,2.95-1,3.81a7.28,7.28,0,0,1,1.8.86,5.15,5.15,0,0,1,1.27,1.84c.57,1.19,1.18,3.25.77,4.54-.17.55.62,1.07,1,.59Z" transform="translate(-81.29 -17.68)" style="fill:#8e8e8e"/></g><g style="clip-path:url(#clip-path)"><path d="M115.68,45.15a15.58,15.58,0,0,0,.92,2.61,7.22,7.22,0,0,0,1.18,2.35.23.23,0,0,0,.39-.16,8.62,8.62,0,0,0-.85-2.75,8.73,8.73,0,0,0-1.21-2.3c-.18-.21-.47,0-.43.25Z" transform="translate(-81.29 -17.68)" style="fill:#424242"/><path d="M118.69,44a9.5,9.5,0,0,0,1.09,2.64c.33.63.87,1.61,1.62,1.79a.24.24,0,0,0,.29-.29,8.2,8.2,0,0,0-1.18-1.93c-.46-.79-.83-1.66-1.34-2.42a.27.27,0,0,0-.48.21Z" transform="translate(-81.29 -17.68)" style="fill:#424242"/><path d="M121.49,42.61c.48.62,1,1.19,1.52,1.77a15.71,15.71,0,0,0,1.58,1.85c.2.16.57.08.55-.23A3.42,3.42,0,0,0,124,44.08a15.48,15.48,0,0,0-2.14-1.82c-.2-.15-.5.15-.35.35Z" transform="translate(-81.29 -17.68)" style="fill:#424242"/><path d="M124.93,40.46c.66.43,1.35.81,2,1.18a5,5,0,0,0,1.78.8c.18,0,.24-.19.18-.32a3.1,3.1,0,0,0-1.53-1.22,15.55,15.55,0,0,0-2.27-.95c-.31-.11-.47.34-.21.51Z" transform="translate(-81.29 -17.68)" style="fill:#424242"/><path d="M127.8,37.15a6.81,6.81,0,0,1,1.63,1.54c.42.46.87,1.1,1.5,1.26a.34.34,0,0,0,.38-.49,6.7,6.7,0,0,0-1.54-1.65A5.17,5.17,0,0,0,128,36.72c-.25-.1-.41.31-.18.43Z" transform="translate(-81.29 -17.68)" style="fill:#424242"/><path d="M131.54,26.78a8.57,8.57,0,0,0,1.42.87,5.43,5.43,0,0,0,1.78.68c.19,0,.33-.17.19-.32a4.11,4.11,0,0,0-1.41-.87,12.82,12.82,0,0,0-1.77-.71c-.2-.06-.38.21-.21.35Z" transform="translate(-81.29 -17.68)" style="fill:#424242"/><path d="M133.59,23.56a8.16,8.16,0,0,1,1.35,1.93c.33.51.78,1.17,1.45,1.17a.2.2,0,0,0,.19-.25,9.75,9.75,0,0,0-1.22-1.74,3.59,3.59,0,0,0-1.58-1.36c-.14-.07-.33.13-.19.25Z" transform="translate(-81.29 -17.68)" style="fill:#424242"/><path d="M137.64,21.27c0,.78.23,1.57.31,2.36s0,1.36.58,1.78c.13.11.31,0,.35-.14a4.92,4.92,0,0,0-.15-2.18,3,3,0,0,0-.79-1.95.18.18,0,0,0-.3.13Z" transform="translate(-81.29 -17.68)" style="fill:#424242"/><path d="M142.55,22c-.86.25-1.35,1.42-1.69,2.15s-1,1.9-.48,2.59a.24.24,0,0,0,.32.08c.6-.36.75-1.41,1-2a9.94,9.94,0,0,0,1.1-2.62.19.19,0,0,0-.23-.18Z" transform="translate(-81.29 -17.68)" style="fill:#424242"/><path d="M86.69,57.89a2.62,2.62,0,0,0,1.37,1.29,5.59,5.59,0,0,0,2,.84.18.18,0,0,0,.17-.23c-.12-.55-.8-.78-1.25-1a4.28,4.28,0,0,1-1.9-1.1c-.15-.2-.54-.08-.43.18Z" transform="translate(-81.29 -17.68)" style="fill:#424242"/><path d="M84.39,62.77a10.25,10.25,0,0,0,1.93.74,10.59,10.59,0,0,0,2.27.55.2.2,0,0,0,.14-.33c-1-1-2.91-.93-4.2-1.31a.19.19,0,0,0-.14.35Z" transform="translate(-81.29 -17.68)" style="fill:#424242"/><path d="M83.7,67.75a2.51,2.51,0,0,0,2.11,0,9.22,9.22,0,0,0,2.36-1,.17.17,0,0,0,0-.3c-1.49-.31-2.8,1.13-4.32.94-.23,0-.28.31-.11.42Z" transform="translate(-81.29 -17.68)" style="fill:#424242"/><path d="M84.36,72.9c.56.19,1.31-.27,1.81-.49a5.55,5.55,0,0,0,2-1.34c.14-.16,0-.45-.21-.37a13,13,0,0,0-2,.87c-.51.26-1.43.57-1.7,1.1a.16.16,0,0,0,.1.23Z" transform="translate(-81.29 -17.68)" style="fill:#424242"/><path d="M86.51,76.54a23.58,23.58,0,0,1,2-1.75c.56-.46,1.37-1,1.58-1.72a.23.23,0,0,0-.28-.28,5.51,5.51,0,0,0-1.93,1.37,7,7,0,0,0-1.75,2.07.26.26,0,0,0,.4.31Z" transform="translate(-81.29 -17.68)" style="fill:#424242"/></g><path d="M122.94,76a3.7,3.7,0,0,1-.32.59c-1.78,2.49-5.78,3.69-8.52,4.66-5.17,1.82-10.89,3-16.38,2.48a13.73,13.73,0,0,1-6.84-2.49,16.91,16.91,0,0,1-5.38-7.07c-1-2.52-.52-10-.28-10.59.36-.8.46-2.76,1.13-3.33s2.82-2,4.4-.11c1,1.26,1,3.44.78,5.46-.25,2.36-.24,5.52,1.08,7.39.89,1.28,3,2,4.48,2.18a31.89,31.89,0,0,0,19.5-4.64c.92-.63,3.19-3.15,4.18-3s2.2,2.57,2.41,3.54a6.78,6.78,0,0,1,.1,1.2A9.86,9.86,0,0,1,122.94,76Z" transform="translate(-81.29 -17.68)" style="fill:#f8c19a"/><path d="M149.64,116.82c0-.07,0-.14,0-.21a32.3,32.3,0,0,0-1.06-5.51,64.66,64.66,0,0,0-2-7c-.58-1.64-1.51-3.23-2.25-4.82-.84-1.84-1.83-3.62-2.49-5.54a25.08,25.08,0,0,1-1.48-7.69,45.07,45.07,0,0,0-.87-9.56,44,44,0,0,0-2.33-7c-.39-1-1.42-7.44-5.3-9.8-.82-.49-2,.81-1.46,1.56.86,1.29,0,3-1,4.15a4.06,4.06,0,0,1-3.47,1.46c-1.17-.16-2.56-1.46-3.69-1.32a2.81,2.81,0,0,0-1.9,1.12c-.55,1,.39,1.62.95,2.34a7.32,7.32,0,0,1,1.33,5.9c-.19,1.2-1.37,2.49-2.77,4-1.14,1.2-.44,2.78.6,3.79A7.87,7.87,0,0,1,123,86.91a18.26,18.26,0,0,1-.8,9.49c-.44,1.43-.88,2.87-1.31,4.3a94.58,94.58,0,0,0-3,11.57,28.77,28.77,0,0,0-.57,5.92c.12,2.85,3.75,2.33,5.82,2.48,6.69.46,13.78-.3,20.5-.81C146,119.68,149.64,119.94,149.64,116.82Z" transform="translate(-81.29 -17.68)" style="fill:#2d2d2d"/></svg>