<?xml version="1.0" encoding="utf-8"?>
<!-- Generator: Adobe Illustrator 24.0.1, SVG Export Plug-In . SVG Version: 6.00 Build 0)  -->
<svg version="1.1" id="Layer_1" xmlns="http://www.w3.org/2000/svg" xmlns:xlink="http://www.w3.org/1999/xlink" x="0px" y="0px"
	 viewBox="0 0 1600 2260.8" style="enable-background:new 0 0 1600 2260.8;" xml:space="preserve">
<style type="text/css">
	.st0{fill:#FCB58A;}
	.st1{fill:#DEC7B2;}
	.st2{fill:#689399;}
	.st3{fill:#D4BFA9;}
	.st4{fill:#EBDBCD;}
	.st5{fill:#110580;}
	.st6{fill:#FFFFFF;}
	.st7{fill:#AAACE3;}
	.st8{fill:#DADAED;}
	.st9{fill:#989BD7;}
	.st10{fill:#FFADB2;}
	.st11{fill:#FF7A82;}
	.st12{fill:#2B31BA;}
	.st13{fill:#F8D7BC;}
	.st14{fill:#F8ECE2;}
	.st15{fill:#EBD0BE;}
	.st16{fill:#F8E7D8;}
	.st17{fill:#FF5856;}
	.st18{fill:#D7D7E6;}
	.st19{fill:#C7645D;}
	.st20{fill:#4C7378;}
	.st21{fill:#6B4D3A;}
	.st22{fill:#8A634B;}
	.st23{fill:#C5C6E3;}
	.st24{fill:#F8D0B3;}
	.st25{fill:#4E53BA;}
	.st26{fill:#DEBCA7;}
	.st27{fill:#BFA990;}
	.st28{fill:#F3E9E1;}
	.st29{fill:none;stroke:#FF5C76;stroke-width:1.182;stroke-miterlimit:10;}
	.st30{fill:none;stroke:#FF5C76;stroke-width:1.182;stroke-linecap:round;stroke-linejoin:round;}
	.st31{fill:#FFEB7D;}
	.st32{fill:none;stroke:#465CFF;stroke-width:0.335;stroke-miterlimit:10;}
	.st33{fill:#465CFF;stroke:#465CFF;stroke-width:0.335;stroke-miterlimit:10;}
	.st34{fill:#621CD1;stroke:#621CD1;stroke-width:0.335;stroke-miterlimit:10;}
	.st35{fill:#465CFF;stroke:#A4D2FC;stroke-width:0.335;stroke-miterlimit:10;}
	.st36{fill:#FF5C76;stroke:#FF5C76;stroke-width:1.182;stroke-linecap:round;stroke-linejoin:round;}
</style>
<title>background-2</title>
<path class="st0" d="M1435,1002.4l-70-0.2c-23.8-0.2-43.3-14.8-43.6-32.3v-6.1c-0.2-17.5,18.9-31.7,42.4-31.4l70,0.2
	c23.8,0.2,43.3,14.8,43.6,32.3v6.1C1477.6,988.5,1458.6,1002.6,1435,1002.4z"/>
<path class="st0" d="M220.1,998.4l-70-0.2c-23.8-0.2-43.3-14.8-43.6-32.3v-6.1c-0.2-17.5,18.9-31.7,42.4-31.4l70,0.2
	c23.8,0.2,43.3,14.8,43.6,32.3v6.1C262.8,984.5,243.7,998.6,220.1,998.4z"/>
<path class="st1" d="M221.9,2260.8L221.9,2260.8"/>
<path class="st2" d="M368.8,1761.8"/>
<path class="st0" d="M219,1008"/>
<path class="st0" d="M260.6,937"/>
<polygon class="st3" points="1563.2,1271.4 1535.1,1424.3 1412.3,1322.8 "/>
<circle class="st4" cx="455.9" cy="86.2" r="82.4"/>
<path class="st5" d="M534.2,251.6c-0.7,0-1.4-0.5-1.8-1.1c-0.4-0.9,0-2,0.9-2.5l8.5-3.8l-3.8-8.5c-0.5-0.9-0.1-2.1,0.8-2.5
	c0.9-0.5,2.1-0.1,2.5,0.8c0,0,0,0.1,0.1,0.1l5.2,12.1l-12.1,5.2C534.7,251.6,534.4,251.6,534.2,251.6z"/>
<path class="st5" d="M359.1,328.2c-0.7,0-1.4-0.5-1.8-1.1c-0.4-0.9,0-2,0.9-2.5l22-9.7c0.9-0.5,2.1-0.1,2.5,0.8s0.1,2.1-0.8,2.5
	c0,0-0.1,0-0.1,0.1l-22,9.7C359.6,328.1,359.3,328.2,359.1,328.2z M402.9,309.1c-0.7,0-1.4-0.5-1.8-1.1c-0.4-0.9,0-2,0.9-2.5l22-9.7
	c0.9-0.5,2.1-0.1,2.5,0.8s0.1,2.1-0.8,2.5c0,0-0.1,0-0.1,0.1l-22,9.7C403.4,309,403.1,309.1,402.9,309.1z M446.7,290
	c-0.7,0-1.4-0.5-1.8-1.1c-0.4-0.9,0-2,0.9-2.5l22-9.7c0.9-0.4,2,0,2.5,0.9c0.4,0.9,0,2.1-0.9,2.5l-22,9.7
	C447.2,289.9,446.9,290,446.7,290z M490.4,270.7c-0.7,0-1.4-0.5-1.8-1.1c-0.4-0.9,0-2,0.9-2.5l22-9.7c0.9-0.5,2.1-0.1,2.5,0.8
	c0.5,0.9,0.1,2.1-0.8,2.5c0,0-0.1,0-0.1,0.1l-22,9.7C490.9,270.6,490.6,270.7,490.4,270.7L490.4,270.7z"/>
<path class="st5" d="M325.9,343l-5.2-12.1c-0.4-1,0-2.1,1-2.5c0.9-0.4,2,0,2.4,0.9l3.8,8.5l8.5-3.8c0.9-0.5,2.1-0.1,2.5,0.8
	s0.1,2.1-0.8,2.5c0,0-0.1,0-0.1,0.1L325.9,343z"/>
<path class="st5" d="M313.5,311.8c-0.7,0-1.4-0.5-1.8-1.1l-9-20.4c-0.4-1,0-2.1,1-2.5c0.9-0.4,2,0,2.4,0.9l9,20.4
	c0.4,0.9,0,2-0.9,2.5C314,311.6,313.7,311.8,313.5,311.8z M295.6,270.9c-0.7,0-1.4-0.5-1.8-1.1l-9-20.4c-0.5-0.9-0.1-2.1,0.8-2.5
	c0.9-0.5,2.1-0.1,2.5,0.8c0,0,0,0.1,0.1,0.1l9,20.4c0.4,0.9,0,2-0.9,2.5C296.2,270.9,295.8,270.9,295.6,270.9z M277.8,230.3
	c-0.7,0-1.4-0.5-1.8-1.1l-9-20.4c-0.4-1,0-2.1,1-2.5c0.9-0.4,2,0,2.4,0.9l9,20.4c0.4,0.9,0,2-0.9,2.5
	C278.3,230.2,278,230.3,277.8,230.3L277.8,230.3z"/>
<path class="st5" d="M260.1,189.7c-0.7,0-1.4-0.5-1.8-1.1l-5.2-12.1l12.1-5.2c0.9-0.5,2.1-0.1,2.5,0.8s0.1,2.1-0.8,2.5
	c0,0-0.1,0-0.1,0.1l-8.5,3.8l3.8,8.5c0.4,0.9,0,2-0.9,2.5C260.8,189.6,260.4,189.7,260.1,189.7z"/>
<path class="st5" d="M287.7,165.4c-0.7,0-1.4-0.5-1.8-1.1c-0.4-0.9,0-2,0.9-2.5l22-9.7c0.9-0.4,2,0,2.5,0.9c0.4,0.9,0,2.1-0.9,2.5
	l-22,9.7C288.1,165.3,287.9,165.3,287.7,165.4z M331.5,146.1c-0.7,0-1.4-0.5-1.8-1.1c-0.4-0.9,0-2,0.9-2.5l22-9.7
	c0.9-0.5,2.1-0.1,2.5,0.8s0.1,2.1-0.8,2.5c0,0-0.1,0-0.1,0.1l-22,9.7C332.2,146.1,331.7,146.1,331.5,146.1L331.5,146.1z M375.3,127
	c-0.7,0-1.4-0.5-1.8-1.1c-0.4-0.9,0-2,0.9-2.5l22-9.7c1-0.4,2.1,0,2.5,1c0.4,0.9,0,2-0.9,2.4l-22,9.7C375.9,127,375.7,127,375.3,127
	z M419.3,107.9c-0.7,0-1.4-0.5-1.8-1.1c-0.4-0.9,0-2,0.9-2.5l22-9.7c1-0.4,2.1,0,2.5,1c0.4,0.9,0,2-0.9,2.4l-22,9.7
	C419.7,107.7,419.5,107.9,419.3,107.9z"/>
<path class="st5" d="M477.9,94.5c-0.7,0-1.4-0.5-1.8-1.1l-3.8-8.5l-8.5,3.8c-0.9,0.4-2,0-2.5-0.9c-0.4-0.9,0-2.1,0.9-2.5l12.1-5.2
	l5.2,12.1c0.4,0.9,0,2-0.9,2.5C478.4,94.5,478.1,94.5,477.9,94.5z"/>
<path class="st5" d="M531.1,216.6c-0.7,0-1.4-0.5-1.8-1.1l-9-20.4c-0.5-0.9-0.1-2.1,0.8-2.5c0.9-0.5,2.1-0.1,2.5,0.8
	c0,0,0,0.1,0.1,0.1l9,20.4c0.4,0.9,0,2-0.9,2.5C531.5,216.5,531.3,216.5,531.1,216.6z M513.3,175.8c-0.7,0-1.4-0.5-1.8-1.1l-9-20.4
	c-0.4-1,0-2.1,1-2.5c0.9-0.4,2,0,2.4,0.9l9,20.4c0.4,0.9,0,2-0.9,2.5C513.8,175.7,513.5,175.8,513.3,175.8z M495.6,135.1
	c-0.7,0-1.4-0.5-1.8-1.1l-9-20.4c-0.5-0.9-0.1-2.1,0.8-2.5c0.9-0.5,2.1-0.1,2.5,0.8c0,0,0,0.1,0.1,0.1l9,20.4c0.4,0.9,0,2-0.9,2.5
	C496.1,135,495.8,135.1,495.6,135.1L495.6,135.1z"/>
<path class="st5" d="M1448.5,1470.3l-10.1-3.8c-0.9-0.2-1.1-1.1-0.9-2c0.2-0.7,0.9-1.2,1.6-1c0.1,0,0.3,0.1,0.4,0.1l7.2,2.7l2.7-7.2
	c0.2-0.9,1.1-1.1,2-0.9s1.1,1.1,0.9,2L1448.5,1470.3z"/>
<path class="st5" d="M1422.9,1460.7h-0.4l-15.7-5.8c-0.9-0.2-1.1-1.1-0.9-2c0.2-0.7,0.9-1.2,1.6-1c0.1,0,0.3,0.1,0.4,0.1l15.7,5.8
	c0.9,0.2,1.1,1.1,0.9,2C1424.1,1460.3,1423.5,1460.7,1422.9,1460.7z M1391.4,1449h-0.4l-15.7-5.8c-0.9-0.2-1.1-1.1-0.9-2
	s1.1-1.1,2-0.9l15.7,5.8c0.9,0.2,1.1,1.1,0.9,2C1392.5,1448.5,1392.1,1449,1391.4,1449z M1359.8,1437.3h-0.4l-15.7-5.8
	c-0.9-0.2-1.1-1.1-0.9-2c0.2-0.7,0.9-1.2,1.6-1c0.1,0,0.3,0.1,0.4,0.1l15.7,5.8c0.9,0.2,1.1,1.1,0.9,2
	C1361,1436.9,1360.4,1437.3,1359.8,1437.3z M1328.1,1425.4h-0.4l-15.7-5.8c-0.9-0.2-1.1-1.1-0.9-2c0.2-0.7,0.9-1.2,1.6-1
	c0.1,0,0.3,0.1,0.4,0.1l15.7,5.8c0.9,0.2,1.1,1.1,0.9,2C1329.3,1425.1,1328.7,1425.4,1328.1,1425.4L1328.1,1425.4z"/>
<path class="st5" d="M1296.7,1413.7h-0.4l-10.1-3.8l3.8-10.1c0.2-0.7,0.9-1.2,1.6-1c0.1,0,0.3,0.1,0.4,0.1c0.9,0.2,1.1,1.1,0.9,2
	l-2.7,7.2l7.2,2.7c0.9,0.2,1.1,1.1,0.9,2C1297.9,1413.3,1297.3,1413.6,1296.7,1413.7z"/>
<path class="st5" d="M1297.1,1385.9h-0.4c-0.9-0.2-1.1-1.1-0.9-2l5.8-15.7c0.2-0.7,0.9-1.2,1.6-1c0.1,0,0.3,0.1,0.4,0.1
	c0.9,0.2,1.1,1.1,0.9,2l-5.8,15.7C1298.2,1385.4,1297.7,1385.7,1297.1,1385.9z M1308.8,1354.5h-0.4c-0.9-0.2-1.1-1.1-0.9-2l5.8-15.7
	c0.2-0.7,0.9-1.2,1.6-1c0.1,0,0.3,0.1,0.4,0.1c0.9,0.2,1.1,1.1,0.9,2l-5.8,15.7C1310,1354.1,1309.4,1354.4,1308.8,1354.5
	L1308.8,1354.5z M1320.5,1322.8h-0.4c-0.9-0.2-1.1-1.1-0.9-2l5.8-15.7c0.2-0.7,0.9-1.2,1.6-1c0.1,0,0.3,0.1,0.4,0.1
	c0.9,0.2,1.1,1.1,0.9,2l-5.8,15.7C1321.7,1322.4,1321.1,1322.8,1320.5,1322.8L1320.5,1322.8z M1332.4,1291.2h-0.4
	c-0.9-0.2-1.1-1.1-0.9-2l5.8-15.7c0.2-0.7,0.9-1.2,1.6-1c0.1,0,0.3,0.1,0.4,0.1c0.9,0.2,1.1,1.1,0.9,2l-5.8,15.7
	C1333.6,1290.8,1333,1291.1,1332.4,1291.2L1332.4,1291.2z"/>
<path class="st5" d="M1344.1,1259.7h-0.4c-0.9-0.2-1.1-1.1-0.9-2l3.8-10.1l10.1,3.8c0.9,0.2,1.1,1.1,0.9,2s-1.1,1.1-2,0.9l-7.2-2.7
	l-2.7,7.2C1345.3,1259.3,1344.7,1259.7,1344.1,1259.7z"/>
<path class="st5" d="M1482.4,1301.3h-0.4l-15.7-5.8c-0.9-0.2-1.1-1.1-0.9-2c0.2-0.7,0.9-1.2,1.6-1c0.1,0,0.3,0.1,0.4,0.1l15.7,5.8
	c0.9,0.2,1.1,1.1,0.9,2C1483.6,1300.9,1483,1301.2,1482.4,1301.3z M1450.7,1289.6h-0.4l-15.7-5.8c-0.9-0.2-1.1-1.1-0.9-2
	s1.1-1.1,2-0.9l15.7,5.8c0.9,0.2,1.1,1.1,0.9,2C1451.9,1289.2,1451.3,1289.5,1450.7,1289.6L1450.7,1289.6z M1419.3,1277.7h-0.4
	l-15.7-5.8c-0.9-0.2-1.1-1.1-0.9-2c0.2-0.7,0.9-1.2,1.6-1c0.1,0,0.3,0.1,0.4,0.1l15.7,5.8c0.9,0.2,1.1,1.1,0.9,2
	C1420.4,1277.2,1419.9,1277.7,1419.3,1277.7L1419.3,1277.7z M1387.6,1266h-0.4l-15.7-5.8c-0.9-0.2-1.1-1.1-0.9-2
	c0.2-0.7,0.9-1.2,1.6-1c0.1,0,0.3,0.1,0.4,0.1l15.7,5.8c0.9,0.2,1.1,1.1,0.9,2C1388.8,1265.7,1388.2,1266,1387.6,1266L1387.6,1266z"
	/>
<path class="st5" d="M1503.7,1319h-0.4c-0.9-0.2-1.1-1.1-0.9-2l2.7-7.2l-7.2-2.7c-0.9-0.2-1.1-1.1-0.9-2c0.2-0.7,0.9-1.2,1.6-1
	c0.1,0,0.3,0.1,0.4,0.1l10.1,3.8l-3.8,10.1C1505,1318.7,1504.3,1319,1503.7,1319z"/>
<path class="st5" d="M1456.5,1445.4h-0.4c-0.9-0.2-1.1-1.1-0.9-2l5.8-15.7c0.2-0.7,0.9-1.2,1.6-1c0.1,0,0.3,0.1,0.4,0.1
	c0.9,0.2,1.1,1.1,0.9,2l-5.8,15.7C1457.7,1445,1457.1,1445.4,1456.5,1445.4z M1468.2,1413.7h-0.4c-0.9-0.2-1.1-1.1-0.9-2l5.8-15.7
	c0.2-0.7,0.9-1.2,1.6-1c0.1,0,0.3,0.1,0.4,0.1c0.9,0.2,1.1,1.1,0.9,2l-5.8,15.7C1469.6,1413.5,1468.9,1413.7,1468.2,1413.7
	L1468.2,1413.7z M1480.1,1382.3h-0.4c-0.9-0.2-1.1-1.1-0.9-2l5.8-15.7c0.2-0.7,0.9-1.2,1.6-1c0.1,0,0.3,0.1,0.4,0.1
	c0.9,0.2,1.1,1.1,0.9,2l-5.8,15.7C1481.3,1381.9,1480.7,1382.2,1480.1,1382.3z M1491.8,1350.6h-0.4c-0.9-0.2-1.1-1.1-0.9-2l5.8-15.7
	c0.2-0.7,0.9-1.2,1.6-1c0.1,0,0.3,0.1,0.4,0.1c0.9,0.2,1.1,1.1,0.9,2l-5.8,15.7C1493,1350.2,1492.4,1350.6,1491.8,1350.6
	L1491.8,1350.6z"/>
<path class="st6" d="M1009.3,979.9c13.7-6.1,31-21.6,38.2-28.5c2.1-2,2.6-5.1,1.3-7.6"/>
<path class="st7" d="M352.1,386.6l-99-31.9c-5.9-2.1-9.2-8.4-7.4-14.4l20.9-64.7c2.1-5.9,8.4-9.2,14.4-7.4l99,31.9
	c5.9,2.1,9.2,8.4,7.4,14.4l-20.9,64.7C364.5,385.2,358.1,388.5,352.1,386.6z"/>
<path class="st7" d="M398.2,332.5c-4,0-7.6,2.7-8.8,6.5l-3.6,10.8l-3.6,10.8c-1.1,3.8,0,8.1,3.4,10.3l26.7,20.2
	c4,3.2,9.8,2.4,13-1.6c0.7-0.9,1.3-2,1.6-3.1l7-21.3l7-21.3c1.6-4.9-1-10.2-5.9-11.8c-1.1-0.4-2.2-0.5-3.3-0.5L398.2,332.5z"/>
<rect x="185" y="546" transform="matrix(0.9974 -7.271600e-02 7.271600e-02 0.9974 -46.7817 16.4354)" class="st8" width="34.6" height="209.5"/>
<rect x="179.4" y="575.1" transform="matrix(0.9974 -7.271600e-02 7.271600e-02 0.9974 -41.4169 15.0056)" class="st9" width="11.9" height="2.5"/>
<rect x="181.2" y="598.5" transform="matrix(0.9974 -7.271600e-02 7.271600e-02 0.9974 -43.1135 15.1981)" class="st9" width="11.9" height="2.5"/>
<rect x="183" y="621.8" transform="matrix(0.9974 -7.271600e-02 7.271600e-02 0.9974 -44.8028 15.3907)" class="st9" width="11.9" height="2.5"/>
<rect x="184.5" y="645.2" transform="matrix(0.9974 -7.271600e-02 7.271600e-02 0.9974 -46.5004 15.5615)" class="st9" width="11.9" height="2.5"/>
<rect x="186.3" y="668.8" transform="matrix(0.9974 -7.271600e-02 7.271600e-02 0.9974 -48.2121 15.7557)" class="st9" width="11.9" height="2.5"/>
<rect x="187.9" y="692.1" transform="matrix(0.9974 -7.271600e-02 7.271600e-02 0.9974 -49.9024 15.933)" class="st9" width="11.9" height="2.5"/>
<rect x="189.7" y="715.5" transform="matrix(0.9974 -7.271600e-02 7.271600e-02 0.9974 -51.599 16.1256)" class="st9" width="11.9" height="2.5"/>
<rect x="169.2" y="617.6" transform="matrix(0.985 -0.1724 0.1724 0.985 -118.2353 41.5962)" class="st10" width="22.2" height="167.5"/>
<polygon class="st4" points="176.8,616.9 154.8,620.7 158.4,589.3 162.9,588.4 "/>
<polygon class="st11" points="159.7,603.7 162.9,601.7 165.3,601.9 168.7,600.3 162.9,588.4 158.4,589.3 156.8,601.9 "/>
<path class="st12" d="M227.8,751.2L227.8,751.2c-3.8-0.7-6.3-4.3-5.8-8.1l17-110.2c0.2-0.9,0.4-1.8,0.7-2.7l9.9-27.8
	c1.3-3.2,4.7-5.1,8.1-4.5l1.6,0.2c3.4,0.7,5.8,3.7,5.8,7.2l-2.2,29.4c0,1-0.2,1.9-0.4,2.9l-26.3,108.2
	C235.3,749.6,231.6,752,227.8,751.2z"/>
<rect x="213.8" y="826.6" class="st13" width="143" height="47.8"/>
<polygon class="st11" points="362.9,823.3 362.9,826.9 213.6,826.9 213.6,874.7 362.9,874.7 362.9,878.3 56,878.3 56,823.3 "/>
<path class="st14" d="M168.9,960.2h211.3V883H168.9c-10.4,0-18.9,8.3-18.9,18.7c0,0.1,0,0.1,0,0.2v39.3c-0.1,10.4,8.2,18.9,18.6,19
	C168.6,960.2,168.8,960.2,168.9,960.2z"/>
<path class="st12" d="M43.9,878.3h345.8c1.4,0,2.5,1.1,2.5,2.5l0,0c0,1.4-1.1,2.5-2.5,2.5h-201c-21.3,0-38.6,17.3-38.6,38.6l0,0
	c0,21.3,17.3,38.6,38.6,38.6h201c1.4,0,2.5,1.1,2.5,2.5l0,0c0,1.4-1.1,2.5-2.5,2.5H43.9c-21.3,0-38.6-17.3-38.6-38.6v-9.7
	c-0.2-21.3,17-38.7,38.3-38.9C43.7,878.3,43.8,878.3,43.9,878.3z"/>
<rect x="179.7" y="895.6" class="st15" width="200.5" height="2.7"/>
<rect x="165.3" y="927.2" class="st15" width="214.9" height="2.7"/>
<rect x="171.8" y="912.4" class="st15" width="208.6" height="2.7"/>
<path class="st16" d="M216.3,821.2H84.7v-27.6h131.6c3.6-0.1,6.6,2.8,6.7,6.5c0,0.1,0,0.2,0,0.2v13.9c0.1,3.7-2.8,6.9-6.5,7
	C216.4,821.2,216.3,821.2,216.3,821.2z"/>
<path class="st17" d="M298,791.6H79.1c-0.5,0-0.9,0.4-0.9,0.9l0,0c0,0.5,0.4,0.9,0.9,0.9h129.8c7.5,0,13.7,6.2,13.7,13.7l0,0
	c0,7.5-6.2,13.7-13.7,13.7H79.1c-0.5,0-0.9,0.4-0.9,0.9l0,0c0,0.5,0.4,0.9,0.9,0.9H298c7.5,0,13.7-6.2,13.7-13.7v-4
	C311.9,797.7,305.7,791.6,298,791.6z"/>
<path class="st7" d="M161.5,676h96.1c2.2,0,4,1.7,4.1,3.9c0,0.3,0,0.5-0.1,0.8l-13.9,110.9h-77l-13.5-110.9c-0.2-2.4,1.6-4.5,4-4.7
	C161.3,676,161.4,676,161.5,676z"/>
<path class="st18" d="M259.4,597.4l-1.6-0.2c-3.5-0.8-7,1.1-8.3,4.5L239.4,630c-0.2,0.3-0.2,0.7-0.2,1.1c3.4,2.9,7.5,4.8,11.9,5.4
	c3.9,0.7,7.9,0.5,11.7-0.7c0-0.4,0.2-0.7,0.2-1.1l2.2-29.9C265.5,601.2,263,598.3,259.4,597.4z"/>
<path class="st19" d="M259.9,554.7c0.7-1.2,2.2-1.7,3.5-1c0.4,0.2,0.8,0.6,1,1c1.6,3.1,3.6,7,5.2,9.7c2.7,4.7,4,15.7,2.7,20.9
	c-1.6,6.3-6.1,12.8-7.4,14.8c-0.3,0.4-0.7,0.7-1.1,0.9c-2.3,0.7-4.8,0.7-7.2,0.2c-4.7-1.1-5.2-4.3-5.2-4.3s-2.7-10.3-2.2-16.6
	s3.8-14.4,5.4-15.7C255.1,563.5,257.8,558.6,259.9,554.7z"/>
<path class="st7" d="M1416.1,620.7L1416.1,620.7c-22.4,6.1-45.5-7-51.6-29.4l-10.8-39.5c-6.1-22.4,7-45.5,29.4-51.6l0,0
	c22.4-6.1,45.5,7,51.6,29.4l10.8,39.5C1451.6,591.4,1438.4,614.5,1416.1,620.7z"/>
<path class="st7" d="M1422.6,645c-36.8,10-74.8-11.7-84.9-48.5l-1.3-4.9c-1.2-4.3,1.3-8.7,5.6-9.9c4.3-1.2,8.7,1.3,9.9,5.6l1.3,4.9
	c7.5,28.3,36.5,45.1,64.8,37.5s45.1-36.5,37.5-64.8c-0.1-0.3-0.2-0.6-0.2-0.9l-1.3-4.9c-1.2-4.3,1.3-8.7,5.6-9.9
	c4.3-1.2,8.7,1.3,9.9,5.6l0,0l1.3,4.9c10.4,36.6-10.9,74.7-47.5,85C1423,644.9,1422.8,644.9,1422.6,645z"/>
<path class="st7" d="M1470.9,655.5c2.9-0.8,4.7-3.8,3.9-6.7c-0.2-0.8-0.6-1.6-1.2-2.3c-19.5-22.4-53.6-24.8-76-5.2
	c-9.2,8-15.4,18.9-17.6,30.8c-0.5,3.1,1.6,6.1,4.7,6.6c0.8,0.1,1.5,0.1,2.3-0.1L1470.9,655.5z"/>
<path class="st17" d="M1212,855.8c8.1-17.1,30.3-31.7,47.1-30.3s11.5,1.8,16.8,1.3s13.7-6.1,24.9-2.7c12.6,3.8,39.1,17.7,39.5,48.7
	c0.4,26.5-18.9,56.8-53.9,63.8s-58.6-6.1-69.2-21.1C1205.3,898.2,1204.2,872.2,1212,855.8z"/>
<path class="st20" d="M1266.6,847.5c0,0-2.7-39.7,13.5-56.6c18-18.6,41.5-36.1,39.7-24.7c-0.4,2.7,3.4,41.1-7.4,55.5
	C1296,843.7,1266.6,847.5,1266.6,847.5z"/>
<path class="st21" d="M1262.3,845.9c0,0-3.1-17.1-6.1-26.7c-6.3-19.8-10.3-29.2-10.3-29.2l17.5-3.8c0,0,6.5,23.3,7.6,32.3
	c2.2,15.9,0.9,26.5,0.9,26.5s-2.2,3.6-5.4,3.1C1263,848.2,1262.3,845.9,1262.3,845.9z"/>
<ellipse transform="matrix(0.9852 -0.1714 0.1714 0.9852 -116.5567 226.731)" class="st22" cx="1254.6" cy="788.3" rx="9" ry="4.3"/>
<path class="st23" d="M1593.7,964.9h-408.6c-3.6,0-6.5-2.9-6.5-6.5c0,0,0,0,0,0v-16.2c0-3.6,2.9-6.5,6.5-6.5c0,0,0,0,0,0h408.4
	c3.6,0,6.5,2.9,6.5,6.5c0,0,0,0,0,0v16.2C1600,961.9,1597.2,964.8,1593.7,964.9z"/>
<path class="st24" d="M1386.3,931h-89.4v-31.4h89.4c2.4,0,4.3,1.9,4.3,4.2c0,0,0,0,0,0.1v22.7c0.1,2.3-1.7,4.3-4.1,4.4
	C1386.4,931,1386.4,931,1386.3,931z"/>
<path class="st11" d="M1547.2,894.7h-257.7c-1.4,0-2.5,1.1-2.5,2.5s1.1,2.5,2.5,2.5h92.3c4.9,0,8.8,3.9,8.8,8.8v13.9
	c0,4.9-3.9,8.8-8.8,8.8h-91.6c-1.4,0-2.5,1.1-2.5,2.5s1.1,2.5,2.5,2.5h257.1c4.9,0,8.8-3.9,8.8-8.8v-23.6
	C1556,898.5,1552.2,894.7,1547.2,894.7z"/>
<path class="st16" d="M1429.8,892.4h-144.4v-30.3h144.4c4.2,0,7.6,3.3,7.6,7.5c0,0,0,0.1,0,0.1v15c0.1,4.2-3.2,7.6-7.4,7.7
	C1429.9,892.4,1429.8,892.4,1429.8,892.4z"/>
<path class="st25" d="M1520.1,859.9h-240.9c-0.5-0.1-1,0.3-1.1,0.9c0,0.1,0,0.1,0,0.2l0,0c-0.1,0.5,0.3,1,0.9,1.1c0.1,0,0.1,0,0.2,0
	H1422c8.4,0,15.3,6.8,15.3,15.3c0,0,0,0,0,0l0,0c0,8.4-6.9,15.3-15.3,15.3l0,0h-142.8c-0.5-0.1-1,0.3-1.1,0.9c0,0.1,0,0.1,0,0.2l0,0
	c-0.1,0.5,0.3,1,0.9,1.1c0.1,0,0.1,0,0.2,0h240.7c8.4,0,15.3-6.8,15.3-15.3c0,0,0,0,0,0v-4.5
	C1535.2,866.7,1528.4,859.9,1520.1,859.9z"/>
<path class="st26" d="M1395.2,883.4h-110v-1.3h110c0.3,0,0.7,0.2,0.7,0.6c0,0,0,0.1,0,0.1l0,0
	C1396.1,883.2,1395.7,883.4,1395.2,883.4z"/>
<path class="st26" d="M1420.6,873.5h-135.2v-1.3h135.2c0.3,0,0.7,0.2,0.7,0.6c0,0,0,0.1,0,0.1l0,0
	C1421.2,873.2,1420.9,873.5,1420.6,873.5z"/>
<ellipse transform="matrix(0.4566 -0.8897 0.8897 0.4566 291.8285 1263.6282)" class="st3" cx="1180.4" cy="392.9" rx="18" ry="46.9"/>
<path class="st4" d="M1146.9,356.9c8.5-15.5,15.7-31.4,19.1-48.7c7.4-37.3-2.7-80.6,21.1-110c17.1-21.3,47.6-27.8,74.5-24
	c33,4.7,64.4,24,79.5,53.7s11.2,69.2-12.6,92.3c-20,19.5-49.8,25.8-70.7,44.2c-11.7,10.3-20,24-28.7,37l-2.9,4
	C1162.4,398.5,1146.9,356.9,1146.9,356.9z"/>
<path class="st27" d="M1259.6,299.2c-2.7-9.9-11.2-9.4-18.9-6.1c-1.8-5.4-4.7-12.3-10.3-14.6c-6.3-2.5-13.5,1.8-18.4,5.6
	c-10.8,8.3-19.1,20.4-24,33s-7.4,26-11.9,38.8c-1.8,5.2,6.5,7.4,8.3,2.2c5.6-16.2,7.9-33.9,16.8-48.7c4.9-8.3,12.1-18,21.3-21.8
	c2.9-1.3,4.9-1.6,7,1.3c1.6,2.3,2.7,4.8,3.4,7.4c0,0.2,0.2,0.4,0.2,0.7c-1.1,0.7-2,1.3-2.9,2c-8.8,6.5-20.4,18.2-20.2,30.1
	c0,5.4,3.4,9.9,9,10.3c6.1,0.4,12.1-4.3,15.9-8.8c7.2-8.3,9.4-19.1,7.9-29.6c1.7-1,3.6-1.7,5.6-2c5.4-0.4,2.9,8.3,2.2,11.2
	c-2.7,9.7-8.3,18.2-13.7,26.5c-4,6.3-7.6,13-12.6,18.6c-5.4,6.3-12.6,10.6-19.3,15c-4.7,2.9-0.4,10.3,4.3,7.4
	c8.1-5.2,16.4-10.3,22.5-17.7c6.5-7.9,11.9-16.8,17.1-25.6C1254.5,325.1,1262.8,310.7,1259.6,299.2z M1234,313.8
	c-1,4.5-3.2,8.7-6.3,12.1c-1.8,2-10.1,8.8-9.4,2.5c0.4-3.8,3.4-7.9,5.6-11c3.1-4.1,6.7-7.7,10.8-10.8
	C1234.8,309,1234.5,311.4,1234,313.8z"/>
<path class="st27" d="M1172.1,409c-20.9-10.6-35-25.4-34.4-34.6l0,0l-10.6,37.3c-3.6,7.2,8.5,20.7,27.2,30.3s36.8,11.7,40.4,4.5
	c0.2-0.4,0.2-0.7,0.4-1.1l0,0l24.9-28.5l0,0C1213.2,422.7,1193,419.8,1172.1,409z"/>
<path class="st5" d="M940.1,122.8c-0.2,0-0.5-0.1-0.7-0.2c-0.9-0.5-1.3-1.6-0.9-2.5c1.5-3.6,3.5-7,5.8-10.1c0.6-0.9,1.8-1,2.7-0.4
	c0.9,0.6,1,1.8,0.4,2.7l0,0c-2.2,2.9-4,6.1-5.4,9.4C941.6,122.4,940.9,122.8,940.1,122.8z"/>
<path class="st5" d="M1243.5,238.4c-0.2,0-0.5-0.1-0.7-0.2l-2.7-0.9c-6.1-2.2-12.3-4.7-19.1-7.4c-1-0.4-1.5-1.5-1.1-2.5
	s1.5-1.5,2.5-1.1l0,0c6.5,2.7,12.8,5.2,18.9,7.4l2.7,0.9c1,0.4,1.4,1.5,1.1,2.5C1245,237.9,1244.3,238.5,1243.5,238.4z
	 M1200.8,220.4c-0.3,0-0.6,0-0.9-0.2c-7-3.6-13.7-7.7-20.2-12.1c-0.9-0.6-1-1.8-0.4-2.7s1.8-1,2.7-0.4c6.3,4.5,12.9,8.4,19.8,11.7
	c0.9,0.5,1.3,1.6,0.9,2.5C1202.3,219.9,1201.6,220.3,1200.8,220.4z M1163.1,193.7c-0.5,0-1-0.3-1.3-0.7
	c-5.6-5.6-10.5-11.8-14.8-18.4c-0.7-0.9-0.2-2,0.7-2.7s2-0.2,2.7,0.7c4.1,6.4,9,12.3,14.4,17.7c0.7,0.8,0.7,1.9,0,2.7
	C1164.3,193.4,1163.7,193.6,1163.1,193.7L1163.1,193.7z M1138.2,154.9c-0.8,0-1.6-0.5-1.8-1.3c-2.7-7.4-4.7-15.1-5.8-22.9
	c-0.2-1,0.6-2,1.6-2.2c1-0.2,2,0.6,2.2,1.6c1.1,7.5,3,14.9,5.6,22c0.3,1-0.2,2.1-1.1,2.5C1138.7,154.8,1138.4,154.9,1138.2,154.9
	L1138.2,154.9z M1150.7,130.4c-4.3,0-8.6-0.3-12.8-0.9c-1-0.2-1.8-1.2-1.6-2.2c0.2-1,1.2-1.8,2.2-1.6c4.1,0.6,8.2,0.9,12.3,0.9l0,0
	c3.4,0,6.9-0.2,10.3-0.7c1-0.1,2,0.6,2.2,1.6c0.1,1-0.6,1.9-1.6,2.2C1158,130.2,1154.3,130.4,1150.7,130.4z M1115.7,123.7h-0.7
	c-6.5-2.2-13-5.2-21.6-9c-1-0.4-1.4-1.5-1-2.5c0.4-1,1.5-1.4,2.5-1c0,0,0.1,0,0.1,0.1c8.3,3.8,14.8,6.7,21.3,9
	c1,0.3,1.5,1.4,1.2,2.3c0,0.1,0,0.1-0.1,0.2C1117.3,123.2,1116.4,123.7,1115.7,123.7L1115.7,123.7z M1183.3,122.8
	c-0.7,0-1.3-0.3-1.6-0.9c-0.4-1-0.1-2.1,0.7-2.7c3.5-2,6.7-4.3,9.7-7c2.6-2.3,4.8-5.1,6.5-8.1c0.7-0.8,2-1,2.8-0.2
	c0.7,0.5,0.9,1.4,0.6,2.2c-2,3.3-4.4,6.2-7.2,8.8c-3.1,2.9-6.5,5.4-10.3,7.4C1184.2,122.6,1183.7,122.8,1183.3,122.8z M1132.1,109.3
	L1132.1,109.3c-1.3-0.2-2-1.1-1.8-2c0.8-8,3-15.7,6.5-22.9c0.5-0.9,1.6-1.3,2.5-0.8c0.9,0.5,1.3,1.5,0.9,2.4
	c-3.3,6.8-5.4,14.1-6.3,21.6C1133.8,108.5,1133,109.3,1132.1,109.3L1132.1,109.3z M1073.3,104.8c-0.3,0-0.6-0.1-0.9-0.2
	c-2.5-1.1-4.9-2.2-7.4-3.4c-4.9-2.2-9.4-4-13.7-5.8c-1-0.4-1.5-1.5-1.1-2.5c0.4-1,1.5-1.5,2.5-1.1l0,0c4.5,1.8,9,3.6,13.9,5.8
	c2.5,1.1,4.9,2.2,7.4,3.4c0.9,0.5,1.3,1.6,0.9,2.5C1074.7,104.2,1074,104.8,1073.3,104.8z M962.6,97.4c-0.7,0.1-1.3-0.3-1.6-0.9
	c-0.7-0.9-0.2-2,0.7-2.7c6.7-4.3,14.1-7.5,21.8-9.4c1-0.3,2,0.2,2.3,1.2c0.3,1-0.2,2-1.2,2.3c-0.1,0-0.1,0-0.2,0.1
	c-7.3,1.9-14.3,4.9-20.7,9C963.5,97.4,963,97.4,962.6,97.4z M1030,88.6h-0.4c-7.5-1.7-15.1-2.7-22.7-2.9c-1,0-1.8-0.9-1.8-1.9
	c0,0,0-0.1,0-0.1c0-1,0.8-1.8,1.8-1.8c0,0,0,0,0,0l0,0c7.8,0.2,15.6,1.2,23.3,2.9c0.9,0.2,1.5,1,1.4,2c0,0.1,0,0.2-0.1,0.2
	c0.1,0.8-0.4,1.5-1.2,1.6C1030.2,88.6,1030.1,88.6,1030,88.6z M1206,85c-1,0-1.8-0.8-1.8-1.8c0,0,0,0,0,0c-0.1-6-2.4-11.8-6.5-16.2
	c-0.8-0.9-1.8-1.7-2.7-2.5c-0.9-0.6-1-1.8-0.4-2.7s1.8-1,2.7-0.4c1.1,0.9,2.2,1.8,3.1,2.9c4.8,5,7.5,11.7,7.6,18.6
	c0.1,1.1-0.8,2-1.9,2.1C1206,85,1206,85,1206,85z M1152.8,69.1c-0.6,0-1.2-0.2-1.6-0.7c-0.6-0.8-0.5-2.1,0.4-2.7c0,0,0,0,0,0
	c6.5-4.9,14-8.1,22-9.4c1-0.2,2,0.6,2.2,1.6c0.2,1-0.6,2-1.6,2.2c-7.4,1-14.4,4-20.2,8.8C1153.6,69.1,1153.2,69.1,1152.8,69.1z"/>
<path class="st5" d="M1274.5,253.4c-0.5,0-0.9-0.2-1.3-0.4c-2.7-2.3-5.7-4.3-9-5.8c-0.9-0.5-1.3-1.6-0.8-2.5
	c0.5-0.9,1.5-1.3,2.4-0.9c3.5,1.8,6.8,3.9,9.9,6.3c0.8,0.7,0.8,1.9,0.2,2.7C1275.5,253.2,1275,253.4,1274.5,253.4z"/>
<path class="st28" d="M1257.6,12.1c12.6,42.7,11.5,82.2,10.3,126c-0.2,12.1,39.3,8.3,42-2.2c10.6-42.2,3.1-87.8-10.3-128.4
	C1295.3-5.9,1254.2,0.6,1257.6,12.1L1257.6,12.1z"/>
<path class="st28" d="M1426.2,96c-19.1,34.4-43.1,62.9-67.6,93c-10.8,13.2,26.9,11,33.9,4.7c30.1-26.5,53.4-62.2,71.4-97.7
	C1469.3,85.7,1431.8,85.7,1426.2,96L1426.2,96z"/>
<path class="st28" d="M1419.5,275c26.9,0.7,53.9,2,80.6,3.6c9.7,0.7,24.7-3.1,27.6-13.9c2.9-10.8-9.9-16.6-18.4-17.1
	c-26.9-1.6-53.7-2.7-80.6-3.6c-9.7-0.2-24.5,2.9-27.6,13.9C1398.2,268.7,1410.7,274.8,1419.5,275z"/>
<path class="st12" d="M389.4,960.2h-22c-1.1,1.8-2.4,3.3-4,4.7h25.8c1.4,0,2.5-1.1,2.5-2.5l0,0c0-1.2-0.9-2.2-2-2.2
	C389.5,960.2,389.5,960.2,389.4,960.2z"/>
<path class="st12" d="M389.4,883c1.4,0,2.5-1.1,2.5-2.5s-1.1-2.5-2.5-2.5h-17.5v4.7L389.4,883z"/>
<path class="st29" d="M354.9,1304.3l-122.5,37c-10,3-20.5-2.6-23.6-12.6c0,0,0-0.1,0-0.1v-0.1l-43.6-144.7c-3-10,2.6-20.5,12.6-23.6
	c0,0,0,0,0,0h0.1l122.5-37c10-3,20.5,2.6,23.6,12.6v0.1l43.6,144.7C370.5,1290.6,364.9,1301.2,354.9,1304.3
	C354.9,1304.2,354.9,1304.2,354.9,1304.3L354.9,1304.3z"/>
<path class="st29" d="M313.1,1258.8l-71,21.4c-10,3-20.5-2.6-23.6-12.6v-0.1l-21.5-71c-3-10,2.6-20.5,12.6-23.6h0l71-21.4
	c10-3,20.5,2.6,23.6,12.6l0,0l21.5,71c3.1,9.9-2.5,20.4-12.4,23.5c0,0,0,0,0,0L313.1,1258.8z"/>
<polygon class="st30" points="467.7,1836.9 454.3,1809.7 424.5,1805.4 446,1784.4 441,1754.9 467.7,1768.9 494.1,1754.9 
	489.1,1784.4 510.6,1805.4 480.8,1809.7 "/>
<polyline class="st30" points="366.1,1473.6 362.3,1425.7 404.7,1448.3 "/>
<polyline class="st30" points="391.4,1512.2 343.4,1516 366.1,1473.6 "/>
<path class="st29" d="M610.2,520.4l-87.5-22.9c-10.1-2.7-16.1-13-13.6-23.1l27.4-104.6c2.7-10.1,13-16.1,23.1-13.6l87.5,22.9
	c10.1,2.7,16.1,13,13.6,23.1l-27.4,104.6c-2.4,10-12.5,16.2-22.5,13.8c0,0,0,0,0,0L610.2,520.4z"/>
<path class="st29" d="M601.2,473.7L554,461.3c-10.1-2.7-16.1-13-13.6-23.1l12.4-47.2c2.7-10.1,13.1-16.2,23.2-13.6l47.2,12.4
	c10.1,2.7,16.1,13,13.6,23.1l-12.4,47.2c-2.5,10-12.6,16.2-22.7,13.7c0,0,0,0,0,0L601.2,473.7z"/>
<polyline class="st30" points="750.4,138.5 720.6,134 742.3,113 737,83.5 763.7,97.5 "/>
<path class="st31" d="M78.1,1491c2.7,1.3,5.9,0.2,7.2-2.5l0.2-0.4l0,0c5.9-12.5,20.9-17.8,33.4-11.9s17.8,20.9,11.9,33.4l0,0
	c-0.1,0.4-0.2,0.7-0.5,1c-1.2,2.6,0,5.7,2.6,6.9l7.6,3.6c2.4,1.1,5.2,0.3,6.7-1.9c0.3-0.3,0.4-0.6,0.5-1c0.3-0.2,0.5-0.6,0.5-1
	c10.6-21.6,1.7-47.7-19.9-58.3c-21.6-10.6-47.7-1.7-58.3,19.9c-0.1,0.2-0.2,0.3-0.2,0.5l0,0c0,0.2-0.1,0.4-0.2,0.5
	c-0.2,0.5-0.2,1-0.5,1.4c-0.9,2.6,0.2,5.4,2.6,6.7L78.1,1491z"/>
<line class="st32" x1="1182.1" y1="1047.3" x2="1160.9" y2="1019.2"/>
<path class="st33" d="M1157.6,1014.7c2.3-1.8,5.7-1.4,7.6,0.9l0.2,0.3l21.1,27.9c1.7,2.6,0.9,6-1.7,7.7c-2.4,1.5-5.5,1.1-7.3-1.1
	l-21.1-28.1C1154.7,1019.9,1155.2,1016.5,1157.6,1014.7z"/>
<line class="st32" x1="1168" y1="1057.7" x2="1146.9" y2="1029.7"/>
<path class="st33" d="M1143.6,1025.2c2.3-1.8,5.7-1.4,7.6,0.9c0.1,0.1,0.1,0.2,0.2,0.2l21.1,28.1c1.9,2.4,1.6,5.9-0.8,7.8
	c-2.4,1.9-5.8,1.6-7.8-0.8c-0.1-0.2-0.2-0.3-0.3-0.5l-21.1-28.1c-1.8-2.4-1.4-5.8,1-7.6c0,0,0,0,0,0L1143.6,1025.2z"/>
<path class="st34" d="M1293.8,1636.8l-34.1,78.4c-3.3,5.9-1.4,13.2,4.3,16.8l1,0.4c0.4,0.1,0.7,0.4,1.1,0.6l60.7,26.5l0,0
	c5.3,2.3,11.5-0.2,13.8-5.5c0.1-0.3,0.3-0.9,0.4-1.2l0.9-1.6l30.3-69.9c2.6,0.4,5.3,0.6,7.9,0.5c12.5-1,22-8.7,21.4-17.3
	s-11.2-15-23.6-14c-10.8,0.8-19.3,6.7-21.1,13.8l-31.2,71.7l-43.5-18.9l27.5-63c2.6,0.4,5.3,0.6,7.9,0.5c12.5-1,22-8.6,21.4-17.3
	s-11.2-15-23.6-14C1304,1623.7,1295.5,1629.6,1293.8,1636.8z"/>
<path class="st35" d="M1161.5,1423.4l40.7,44.9c2.8,3.9,8.2,4.8,12.1,2.1l0.5-0.6c0.2-0.2,0.5-0.4,0.6-0.6l34.7-31.4l0,0
	c3-2.8,3.2-7.5,0.6-10.6c-0.2-0.3-0.4-0.5-0.7-0.6c-0.2-0.3-0.6-0.6-0.8-1l-36.2-39.8c1.1-1.5,1.9-3.2,2.4-5
	c3-8.3,0.9-16.8-4.9-18.8s-12.9,2.9-16,11.2c-2.7,5.9-1.6,12.9,2.8,17.7l37.1,40.9l-24.9,22.6l-32.8-36.1c1.1-1.5,2-3.2,2.4-5
	c3-8.3,0.9-16.8-5-18.8s-12.9,2.9-16,11.2C1155.8,1411.7,1157.1,1418.6,1161.5,1423.4z"/>
<path class="st35" d="M1150.2,692.9l37.1,40.8c2.5,3.5,7.4,4.4,10.9,1.9l0,0l0.5-0.5c0.2-0.2,0.5-0.4,0.6-0.6l31.5-28.5l0,0
	c2.8-2.5,3-6.8,0.5-9.6c0,0,0,0,0,0l0,0c-0.2-0.2-0.4-0.5-0.6-0.6c-0.2-0.4-0.5-0.7-0.8-1l-33-36.4c0.9-1.4,1.7-2.9,2.3-4.5
	c2.7-7.6,0.7-15.2-4.6-17.1s-11.7,2.6-14.6,10.2c-2.5,5.4-1.5,11.8,2.7,16.1l33.9,37.3L1194,721l-29.8-32.8c0.9-1.4,1.7-2.9,2.3-4.5
	c2.7-7.6,0.7-15.2-4.6-17.1s-11.7,2.6-14.6,10.2C1145,682.2,1146.2,688.6,1150.2,692.9z"/>
<polygon class="st36" points="543.7,658 554.1,703.1 586.9,735.6 542,745.7 509.2,778.8 499.1,733.6 466,701.1 511.2,690.8 "/>
<circle class="st4" cx="307.6" cy="1642.7" r="82.4"/>
<path class="st5" d="M210.8,1884.7c-0.7,0-1.4-0.5-1.8-1.1c-0.4-0.9,0-2,0.9-2.5l22-9.7c0.9-0.5,2.1-0.1,2.5,0.8
	c0.5,0.9,0.1,2.1-0.8,2.5c0,0-0.1,0-0.1,0.1l-22,9.7C211.3,1884.6,211.1,1884.7,210.8,1884.7z M254.6,1865.6c-0.7,0-1.4-0.5-1.8-1.1
	c-0.4-0.9,0-2,0.9-2.5l22-9.7c0.9-0.5,2.1-0.1,2.5,0.8c0.5,0.9,0.1,2.1-0.8,2.5c0,0-0.1,0-0.1,0.1l-22,9.7
	C255.1,1865.5,254.9,1865.6,254.6,1865.6z M298.4,1846.5c-0.7,0-1.4-0.5-1.8-1.1c-0.4-0.9,0-2,0.9-2.5l22-9.7c0.9-0.4,2,0,2.5,0.9
	c0.4,0.9,0,2.1-0.9,2.5l-22,9.7C298.9,1846.4,298.7,1846.5,298.4,1846.5z M342.1,1827.2c-0.7,0-1.4-0.5-1.8-1.1
	c-0.4-0.9,0-2,0.9-2.5l22-9.7c0.9-0.5,2.1-0.1,2.5,0.8c0.5,0.9,0.1,2.1-0.8,2.5c0,0-0.1,0-0.1,0.1l-22,9.7
	C342.6,1827.1,342.4,1827.2,342.1,1827.2L342.1,1827.2z"/>
<path class="st5" d="M177.6,1899.5l-5.2-12.1c-0.4-1,0-2.1,1-2.5c0.9-0.4,2,0,2.4,0.9l3.8,8.5l8.5-3.8c0.9-0.5,2.1-0.1,2.5,0.8
	c0.5,0.9,0.1,2.1-0.8,2.5c0,0-0.1,0-0.1,0.1L177.6,1899.5z"/>
<path class="st5" d="M165.2,1868.3c-0.7,0-1.4-0.5-1.8-1.1l-9-20.4c-0.4-1,0-2.1,1-2.5c0.9-0.4,2,0,2.4,0.9l9,20.4
	c0.4,0.9,0,2-0.9,2.5C165.7,1868.1,165.4,1868.3,165.2,1868.3z M147.3,1827.4c-0.7,0-1.4-0.5-1.8-1.1l-9-20.4
	c-0.5-0.9-0.1-2.1,0.8-2.5s2.1-0.1,2.5,0.8c0,0,0,0.1,0.1,0.1l9,20.4c0.4,0.9,0,2-0.9,2.5C147.9,1827.4,147.5,1827.4,147.3,1827.4z
	 M129.5,1786.8c-0.7,0-1.4-0.5-1.8-1.1l-9-20.4c-0.4-1,0-2.1,1-2.5c0.9-0.4,2,0,2.4,0.9l9,20.4c0.4,0.9,0,2-0.9,2.5
	C130,1786.7,129.8,1786.8,129.5,1786.8L129.5,1786.8z"/>
<path class="st5" d="M111.8,1746.2c-0.7,0-1.4-0.5-1.8-1.1l-5.2-12.1l12.1-5.2c0.9-0.5,2.1-0.1,2.5,0.8c0.5,0.9,0.1,2.1-0.8,2.5
	c0,0-0.1,0-0.1,0.1l-8.5,3.8l3.8,8.5c0.4,0.9,0,2-0.9,2.5C112.6,1746.1,112.2,1746.1,111.8,1746.2z"/>
<path class="st5" d="M139.4,1721.9c-0.7,0-1.4-0.5-1.8-1.1c-0.4-0.9,0-2,0.9-2.5l22-9.7c0.9-0.4,2,0,2.5,0.9c0.4,0.9,0,2.1-0.9,2.5
	l-22,9.7C139.9,1721.7,139.7,1721.8,139.4,1721.9z M183.2,1702.6c-0.7,0-1.4-0.5-1.8-1.1c-0.4-0.9,0-2,0.9-2.5l22-9.7
	c0.9-0.5,2.1-0.1,2.5,0.8c0.5,0.9,0.1,2.1-0.8,2.5c0,0-0.1,0-0.1,0.1l-22,9.7C183.9,1702.6,183.4,1702.6,183.2,1702.6L183.2,1702.6z
	 M227,1683.5c-0.7,0-1.4-0.5-1.8-1.1c-0.4-0.9,0-2,0.9-2.5l22-9.7c1-0.4,2.1,0,2.5,1c0.4,0.9,0,2-0.9,2.4l-22,9.7
	C227.6,1683.5,227.4,1683.5,227,1683.5z M271,1664.4c-0.7,0-1.4-0.5-1.8-1.1c-0.4-0.9,0-2,0.9-2.5l22-9.7c1-0.4,2.1,0,2.5,1
	c0.4,0.9,0,2-0.9,2.4l-22,9.7C271.4,1664.2,271.2,1664.4,271,1664.4z"/>
<path class="st5" d="M329.6,1651c-0.7,0-1.4-0.5-1.8-1.1l-3.8-8.5l-8.5,3.8c-0.9,0.4-2,0-2.5-0.9c-0.4-0.9,0-2.1,0.9-2.5l12.1-5.2
	l5.2,12.1c0.4,0.9,0,2-0.9,2.5C330.1,1651,329.9,1650.9,329.6,1651z"/>
<path class="st7" d="M203.8,1943.1l-99-31.9c-5.9-2.1-9.2-8.4-7.4-14.4l20.9-64.7c2.1-5.9,8.4-9.2,14.4-7.4l99,31.9
	c5.9,2.1,9.2,8.4,7.4,14.4l-20.9,64.7C216.3,1941.7,209.8,1945,203.8,1943.1z"/>
<path class="st7" d="M249.9,1889c-4,0-7.6,2.7-8.8,6.5l-3.6,10.8l-3.6,10.8c-1.1,3.8,0,8.1,3.4,10.3l26.7,20.2c4,3.2,9.8,2.4,13-1.6
	c0.7-0.9,1.3-2,1.6-3.1l7-21.3l7-21.3c1.6-4.9-1-10.2-5.9-11.8c-1.1-0.4-2.2-0.5-3.3-0.5L249.9,1889z"/>
</svg>
