<svg id="Layer_1" data-name="Layer 1" xmlns="http://www.w3.org/2000/svg" viewBox="0 0 1599.97 2260.78"><title>background-2</title><path d="M1435,1002.4l-70-.2c-23.8-.2-43.3-14.8-43.6-32.3v-6.1c-.2-17.5,18.9-31.7,42.4-31.4l70,.2c23.8.2,43.3,14.8,43.6,32.3V971C1477.6,988.5,1458.6,1002.6,1435,1002.4Z" transform="translate(-0.03 -0.02)" style="fill:#fcb58a"/><path d="M220.1,998.4l-70-.2c-23.8-.2-43.3-14.8-43.6-32.3v-6.1c-.2-17.5,18.9-31.7,42.4-31.4l70,.2c23.8.2,43.3,14.8,43.6,32.3V967C262.8,984.5,243.7,998.6,220.1,998.4Z" transform="translate(-0.03 -0.02)" style="fill:#fcb58a"/><path d="M221.9,1996.6c-86.9,0-157.6-8.1-160.1-18l12.8,151.5c0,71.8,66.2,130.7,147.3,130.7h0c81.1,0,147.3-58.8,147.3-130.7L382,1978.3h0C380.2,1988.5,309.3,1996.6,221.9,1996.6Z" transform="translate(-0.03 -0.02)" style="fill:#dec7b2"/><path d="M221.9,1996.6c-88.2,0-159.9-8.3-160.1-18.4v-.2c.7-10.1,72.1-18.4,160.1-18.4s159.4,8.3,160.1,18.4v.2C381.5,1988.3,310.1,1996.6,221.9,1996.6Z" transform="translate(-0.03 -0.02)" style="fill:#e8d4c1"/><path d="M221.9,1993.4c-74.3,0-134.7-7-134.9-15.7v-.2c.7-8.5,60.8-15.5,134.9-15.5,74.3,0,134.5,7,134.9,15.5v.2C356.6,1986.5,296.2,1993.4,221.9,1993.4Z" transform="translate(-0.03 -0.02)" style="fill:#ba9c7e"/><path d="M67.2,2043.5c10.3.2,20.4,4.3,29.2,12.8,16.4,15.9,26.7,40.4,40,59a313.49,313.49,0,0,0,13.2-31c4.7-12.6,21.6-24.2,34.8-14.1a136.17,136.17,0,0,1,33.9,38.6c7.9,13.2,14.4,29,26.7,38.8,11.9,9.7,25.4,12.3,30.3-4.7,4.3-15,2.7-31,7.6-46,4-12.6,10.3-25.4,23.1-31,15-6.5,29.6,1.6,43.1,8.3,8.1,4,15.9,8.3,23.6,13l-2.7,31.9c-13.7-8.5-30.5-19.1-44.7-21.1-9-1.3-8.3,4.7-9,13-.4,7.4-.4,15-.9,22.5-.9,15.3-3.1,30.5-12.1,43.1-19.3,27.2-55.5,25.8-80.8,8.5-13.7-9.2-23.6-21.3-32.3-35.2-2.9-4.5-5.6-9.2-8.5-13.9-11,25.4-27.6,48.3-55.2,38.6-17.1-6.1-28.3-24.7-38.4-38.6-3.1-4.3-9-14.8-14.8-24.2Z" transform="translate(-0.03 -0.02)" style="fill:#ebdbcd"/><path d="M4.6,1478.6c3.4-13,18.6-15,27.6-7.4,17.1,14.4,26,34.1,35.5,53.7a300.76,300.76,0,0,0,36.1,57.3c28.7,36.6,60.6,70.5,81.5,112.5,40.6,81.3,50.5,176.9,22.5,263.8-.9,2.7,4.5-11-4.3,13-7.9,21.8-38.8,10.1-38.6-15.3.2-24.9-6.3-48-17.3-70-21.8-43.8-49.2-84.6-70.5-128.6a1085.64,1085.64,0,0,1-55.7-137.2C6.6,1574.7-7.5,1526.4,4.6,1478.6Z" transform="translate(-0.03 -0.02)" style="fill:#4c7378"/><path d="M204.4,1223.8c11-20,43.1-6.5,36.8,15.5-18.9,64.2-5.4,132.2,6.3,196.5,11.9,65.6,25.8,130.7,33.9,196.9,14.4,117.4,9.7,249.4-64.7,347.8-8.1,10.6-24.9,1.8-18.2-10.8,7.4-13.9-11.2-105.5-19.5-134.7-8.3-30.3-16.8-60.4-24.2-90.9-14.8-59.5-26.9-120.1-30.1-181.4C118,1443.4,147.4,1328,204.4,1223.8Z" transform="translate(-0.03 -0.02)" style="fill:#57848a"/><path d="M239.9,1876.9c8.8-40,2.2-82.4,10.8-122.1,8.3-39.1,19.8-78.6,37.9-114.3,17.3-33.9,43.8-57.9,74.8-79,29.2-19.8,63.8-39.3,74.1-75.4,6.1-21.6,42.7-18.4,40.4,5.4-4.9,48.5-25.4,91.2-49.2,133.1-25.4,44.5-47.6,87.1-59.9,137.2-21.3,85.8-39.7,196.9-137.4,223.2C219.4,1988.1,221,1962.5,239.9,1876.9Z" transform="translate(-0.03 -0.02)" style="fill:#689399"/><path d="M219,1008" transform="translate(-0.03 -0.02)" style="fill:#fcb58a"/><path d="M260.6,937" transform="translate(-0.03 -0.02)" style="fill:#fcb58a"/><polygon points="1563.17 1271.38 1535.07 1424.28 1412.27 1322.78 1563.17 1271.38" style="fill:#d4bfa9"/><circle cx="455.87" cy="86.18" r="82.4" style="fill:#ebdbcd"/><path d="M534.2,251.6a2.24,2.24,0,0,1-1.8-1.1,2,2,0,0,1,.9-2.5l8.5-3.8-3.8-8.5a1.88,1.88,0,1,1,3.4-1.6l5.2,12.1-12.1,5.2C534.7,251.6,534.4,251.6,534.2,251.6Z" transform="translate(-0.03 -0.02)" style="fill:#110580"/><path d="M359.1,328.2a2.24,2.24,0,0,1-1.8-1.1,2,2,0,0,1,.9-2.5l22-9.7a1.88,1.88,0,1,1,1.6,3.4l-22,9.7A1.08,1.08,0,0,1,359.1,328.2Zm43.8-19.1a2.24,2.24,0,0,1-1.8-1.1,2,2,0,0,1,.9-2.5l22-9.7a1.88,1.88,0,1,1,1.6,3.4l-22,9.7A1.08,1.08,0,0,1,402.9,309.1ZM446.7,290a2.24,2.24,0,0,1-1.8-1.1,2,2,0,0,1,.9-2.5l22-9.7a2,2,0,0,1,2.5.9,1.89,1.89,0,0,1-.9,2.5l-22,9.7A1.08,1.08,0,0,1,446.7,290Zm43.7-19.3a2.24,2.24,0,0,1-1.8-1.1,2,2,0,0,1,.9-2.5l22-9.7a1.88,1.88,0,1,1,1.6,3.4l-22,9.7A.84.84,0,0,1,490.4,270.7Z" transform="translate(-0.03 -0.02)" style="fill:#110580"/><path d="M325.9,343l-5.2-12.1a1.88,1.88,0,0,1,3.4-1.6l3.8,8.5,8.5-3.8a1.88,1.88,0,1,1,1.6,3.4Z" transform="translate(-0.03 -0.02)" style="fill:#110580"/><path d="M313.5,311.8a2.24,2.24,0,0,1-1.8-1.1l-9-20.4a1.88,1.88,0,0,1,3.4-1.6l9,20.4a2,2,0,0,1-.9,2.5C314,311.6,313.7,311.8,313.5,311.8Zm-17.9-40.9a2.24,2.24,0,0,1-1.8-1.1l-9-20.4a1.88,1.88,0,1,1,3.4-1.6l9,20.4a2,2,0,0,1-.9,2.5C296.2,270.9,295.8,270.9,295.6,270.9Zm-17.8-40.6a2.24,2.24,0,0,1-1.8-1.1l-9-20.4a1.88,1.88,0,0,1,3.4-1.6l9,20.4a2,2,0,0,1-.9,2.5A1,1,0,0,1,277.8,230.3Z" transform="translate(-0.03 -0.02)" style="fill:#110580"/><path d="M260.1,189.7a2.24,2.24,0,0,1-1.8-1.1l-5.2-12.1,12.1-5.2a1.88,1.88,0,1,1,1.6,3.4l-8.5,3.8,3.8,8.5a2,2,0,0,1-.9,2.5A3.42,3.42,0,0,1,260.1,189.7Z" transform="translate(-0.03 -0.02)" style="fill:#110580"/><path d="M287.7,165.4a2.24,2.24,0,0,1-1.8-1.1,2,2,0,0,1,.9-2.5l22-9.7a2,2,0,0,1,2.5.9,1.89,1.89,0,0,1-.9,2.5l-22,9.7A3.1,3.1,0,0,1,287.7,165.4Zm43.8-19.3a2.24,2.24,0,0,1-1.8-1.1,2,2,0,0,1,.9-2.5l22-9.7a1.88,1.88,0,1,1,1.6,3.4l-22,9.7C332.2,146.1,331.7,146.1,331.5,146.1ZM375.3,127a2.24,2.24,0,0,1-1.8-1.1,2,2,0,0,1,.9-2.5l22-9.7a1.88,1.88,0,0,1,1.6,3.4l-22,9.7C375.9,127,375.7,127,375.3,127Zm44-19.1a2.24,2.24,0,0,1-1.8-1.1,2,2,0,0,1,.9-2.5l22-9.7A1.88,1.88,0,0,1,442,98l-22,9.7C419.7,107.7,419.5,107.9,419.3,107.9Z" transform="translate(-0.03 -0.02)" style="fill:#110580"/><path d="M477.9,94.5a2.24,2.24,0,0,1-1.8-1.1l-3.8-8.5-8.5,3.8a2,2,0,0,1-2.5-.9,1.89,1.89,0,0,1,.9-2.5l12.1-5.2,5.2,12.1a2,2,0,0,1-.9,2.5A1.08,1.08,0,0,0,477.9,94.5Z" transform="translate(-0.03 -0.02)" style="fill:#110580"/><path d="M531.1,216.6a2.24,2.24,0,0,1-1.8-1.1l-9-20.4a1.88,1.88,0,1,1,3.4-1.6l9,20.4a2,2,0,0,1-.9,2.5A6.37,6.37,0,0,1,531.1,216.6Zm-17.8-40.8a2.24,2.24,0,0,1-1.8-1.1l-9-20.4a1.88,1.88,0,0,1,3.4-1.6l9,20.4a2,2,0,0,1-.9,2.5A.84.84,0,0,1,513.3,175.8Zm-17.7-40.7a2.24,2.24,0,0,1-1.8-1.1l-9-20.4a1.88,1.88,0,1,1,3.4-1.6l9,20.4a2,2,0,0,1-.9,2.5A1.08,1.08,0,0,1,495.6,135.1Z" transform="translate(-0.03 -0.02)" style="fill:#110580"/><path d="M1448.5,1470.3l-10.1-3.8c-.9-.2-1.1-1.1-.9-2a1.36,1.36,0,0,1,2-.9l7.2,2.7,2.7-7.2c.2-.9,1.1-1.1,2-.9s1.1,1.1.9,2Z" transform="translate(-0.03 -0.02)" style="fill:#110580"/><path d="M1422.9,1460.7h-.4l-15.7-5.8c-.9-.2-1.1-1.1-.9-2a1.36,1.36,0,0,1,2-.9l15.7,5.8c.9.2,1.1,1.1.9,2A1.8,1.8,0,0,1,1422.9,1460.7Zm-31.5-11.7h-.4l-15.7-5.8c-.9-.2-1.1-1.1-.9-2s1.1-1.1,2-.9l15.7,5.8c.9.2,1.1,1.1.9,2C1392.5,1448.5,1392.1,1449,1391.4,1449Zm-31.6-11.7h-.4l-15.7-5.8c-.9-.2-1.1-1.1-.9-2a1.36,1.36,0,0,1,2-.9l15.7,5.8c.9.2,1.1,1.1.9,2A2,2,0,0,1,1359.8,1437.3Zm-31.7-11.9h-.4l-15.7-5.8c-.9-.2-1.1-1.1-.9-2a1.36,1.36,0,0,1,2-.9l15.7,5.8c.9.2,1.1,1.1.9,2A1.77,1.77,0,0,1,1328.1,1425.4Z" transform="translate(-0.03 -0.02)" style="fill:#110580"/><path d="M1296.7,1413.7h-.4l-10.1-3.8,3.8-10.1a1.36,1.36,0,0,1,2-.9c.9.2,1.1,1.1.9,2l-2.7,7.2,7.2,2.7c.9.2,1.1,1.1.9,2A2.2,2.2,0,0,1,1296.7,1413.7Z" transform="translate(-0.03 -0.02)" style="fill:#110580"/><path d="M1297.1,1385.9h-.4c-.9-.2-1.1-1.1-.9-2l5.8-15.7a1.36,1.36,0,0,1,2-.9c.9.2,1.1,1.1.9,2l-5.8,15.7A3.27,3.27,0,0,1,1297.1,1385.9Zm11.7-31.4h-.4c-.9-.2-1.1-1.1-.9-2l5.8-15.7a1.36,1.36,0,0,1,2-.9c.9.2,1.1,1.1.9,2l-5.8,15.7A2.16,2.16,0,0,1,1308.8,1354.5Zm11.7-31.7h-.4c-.9-.2-1.1-1.1-.9-2l5.8-15.7a1.36,1.36,0,0,1,2-.9c.9.2,1.1,1.1.9,2l-5.8,15.7A2,2,0,0,1,1320.5,1322.8Zm11.9-31.6h-.4c-.9-.2-1.1-1.1-.9-2l5.8-15.7a1.36,1.36,0,0,1,2-.9c.9.2,1.1,1.1.9,2l-5.8,15.7A2.06,2.06,0,0,1,1332.4,1291.2Z" transform="translate(-0.03 -0.02)" style="fill:#110580"/><path d="M1344.1,1259.7h-.4c-.9-.2-1.1-1.1-.9-2l3.8-10.1,10.1,3.8c.9.2,1.1,1.1.9,2s-1.1,1.1-2,.9l-7.2-2.7-2.7,7.2A2,2,0,0,1,1344.1,1259.7Z" transform="translate(-0.03 -0.02)" style="fill:#110580"/><path d="M1482.4,1301.3h-.4l-15.7-5.8c-.9-.2-1.1-1.1-.9-2a1.36,1.36,0,0,1,2-.9l15.7,5.8c.9.2,1.1,1.1.9,2A2.36,2.36,0,0,1,1482.4,1301.3Zm-31.7-11.7h-.4l-15.7-5.8c-.9-.2-1.1-1.1-.9-2s1.1-1.1,2-.9l15.7,5.8c.9.2,1.1,1.1.9,2A2.16,2.16,0,0,1,1450.7,1289.6Zm-31.4-11.9h-.4l-15.7-5.8c-.9-.2-1.1-1.1-.9-2a1.36,1.36,0,0,1,2-.9l15.7,5.8c.9.2,1.1,1.1.9,2C1420.4,1277.2,1419.9,1277.7,1419.3,1277.7Zm-31.7-11.7h-.4l-15.7-5.8c-.9-.2-1.1-1.1-.9-2a1.36,1.36,0,0,1,2-.9l15.7,5.8c.9.2,1.1,1.1.9,2A1.77,1.77,0,0,1,1387.6,1266Z" transform="translate(-0.03 -0.02)" style="fill:#110580"/><path d="M1503.7,1319h-.4c-.9-.2-1.1-1.1-.9-2l2.7-7.2-7.2-2.7c-.9-.2-1.1-1.1-.9-2a1.36,1.36,0,0,1,2-.9l10.1,3.8-3.8,10.1A1.71,1.71,0,0,1,1503.7,1319Z" transform="translate(-0.03 -0.02)" style="fill:#110580"/><path d="M1456.5,1445.4h-.4c-.9-.2-1.1-1.1-.9-2l5.8-15.7a1.36,1.36,0,0,1,2-.9c.9.2,1.1,1.1.9,2l-5.8,15.7A2,2,0,0,1,1456.5,1445.4Zm11.7-31.7h-.4c-.9-.2-1.1-1.1-.9-2l5.8-15.7a1.36,1.36,0,0,1,2-.9c.9.2,1.1,1.1.9,2l-5.8,15.7C1469.6,1413.5,1468.9,1413.7,1468.2,1413.7Zm11.9-31.4h-.4c-.9-.2-1.1-1.1-.9-2l5.8-15.7a1.36,1.36,0,0,1,2-.9c.9.2,1.1,1.1.9,2l-5.8,15.7A2.2,2.2,0,0,1,1480.1,1382.3Zm11.7-31.7h-.4c-.9-.2-1.1-1.1-.9-2l5.8-15.7a1.36,1.36,0,0,1,2-.9c.9.2,1.1,1.1.9,2l-5.8,15.7A1.89,1.89,0,0,1,1491.8,1350.6Z" transform="translate(-0.03 -0.02)" style="fill:#110580"/><path d="M1009.3,979.9c13.7-6.1,31-21.6,38.2-28.5a6.44,6.44,0,0,0,1.3-7.6" transform="translate(-0.03 -0.02)" style="fill:#fff"/><path d="M352.1,386.6l-99-31.9a11.74,11.74,0,0,1-7.4-14.4l20.9-64.7a11.74,11.74,0,0,1,14.4-7.4l99,31.9a11.74,11.74,0,0,1,7.4,14.4l-20.9,64.7A11.49,11.49,0,0,1,352.1,386.6Z" transform="translate(-0.03 -0.02)" style="fill:#aaace3"/><path d="M398.2,332.5a9.34,9.34,0,0,0-8.8,6.5l-3.6,10.8-3.6,10.8c-1.1,3.8,0,8.1,3.4,10.3l26.7,20.2a9.26,9.26,0,0,0,14.6-4.7l7-21.3,7-21.3a9.33,9.33,0,0,0-9.2-12.3Z" transform="translate(-0.03 -0.02)" style="fill:#aaace3"/><rect x="185.1" y="545.97" width="34.6" height="209.49" transform="translate(-46.85 16.44) rotate(-4.17)" style="fill:#dadaed"/><rect x="179.49" y="575.07" width="11.9" height="2.5" transform="translate(-41.48 15.01) rotate(-4.17)" style="fill:#989bd7"/><rect x="181.29" y="598.47" width="11.9" height="2.5" transform="translate(-43.18 15.2) rotate(-4.17)" style="fill:#989bd7"/><rect x="183.09" y="621.77" width="11.9" height="2.5" transform="translate(-44.87 15.39) rotate(-4.17)" style="fill:#989bd7"/><rect x="184.59" y="645.17" width="11.9" height="2.5" transform="translate(-46.57 15.56) rotate(-4.17)" style="fill:#989bd7"/><rect x="186.4" y="668.77" width="11.9" height="2.5" transform="translate(-48.28 15.76) rotate(-4.17)" style="fill:#989bd7"/><rect x="187.99" y="692.07" width="11.9" height="2.5" transform="translate(-49.97 15.94) rotate(-4.17)" style="fill:#989bd7"/><rect x="189.79" y="715.47" width="11.9" height="2.5" transform="translate(-51.67 16.13) rotate(-4.17)" style="fill:#989bd7"/><rect x="169.19" y="617.58" width="22.2" height="167.5" transform="translate(-118.24 41.57) rotate(-9.93)" style="fill:#ffadb2"/><polygon points="176.77 616.88 154.77 620.68 158.37 589.28 162.87 588.38 176.77 616.88" style="fill:#ebdbcd"/><polygon points="159.67 603.68 162.87 601.68 165.27 601.88 168.67 600.28 162.87 588.38 158.37 589.28 156.77 601.88 159.67 603.68" style="fill:#ff7a82"/><path d="M227.8,751.2h0a7.23,7.23,0,0,1-5.8-8.1l17-110.2a26.81,26.81,0,0,1,.7-2.7l9.9-27.8a7.41,7.41,0,0,1,8.1-4.5l1.6.2a7.38,7.38,0,0,1,5.8,7.2l-2.2,29.4a16.7,16.7,0,0,1-.4,2.9L236.2,745.8A7.1,7.1,0,0,1,227.8,751.2Z" transform="translate(-0.03 -0.02)" style="fill:#2b31ba"/><rect x="213.77" y="826.58" width="143" height="47.8" style="fill:#f8d7bc"/><polygon points="362.87 823.28 362.87 826.88 213.57 826.88 213.57 874.68 362.87 874.68 362.87 878.28 55.97 878.28 55.97 823.28 362.87 823.28" style="fill:#ff7a82"/><path d="M168.9,960.2H380.2V883H168.9A18.82,18.82,0,0,0,150,901.9v39.3A18.78,18.78,0,0,0,168.9,960.2Z" transform="translate(-0.03 -0.02)" style="fill:#f8ece2"/><path d="M43.9,878.3H389.7a2.54,2.54,0,0,1,2.5,2.5h0a2.54,2.54,0,0,1-2.5,2.5h-201a38.62,38.62,0,0,0-38.6,38.6h0a38.62,38.62,0,0,0,38.6,38.6h201a2.54,2.54,0,0,1,2.5,2.5h0a2.54,2.54,0,0,1-2.5,2.5H43.9A38.62,38.62,0,0,1,5.3,926.9v-9.7A38.62,38.62,0,0,1,43.9,878.3Z" transform="translate(-0.03 -0.02)" style="fill:#2b31ba"/><rect x="179.67" y="895.58" width="200.5" height="2.7" style="fill:#ebd0be"/><rect x="165.27" y="927.18" width="214.9" height="2.7" style="fill:#ebd0be"/><rect x="171.77" y="912.38" width="208.6" height="2.7" style="fill:#ebd0be"/><path d="M216.3,821.2H84.7V793.6H216.3a6.58,6.58,0,0,1,6.7,6.7v13.9A6.77,6.77,0,0,1,216.3,821.2Z" transform="translate(-0.03 -0.02)" style="fill:#f8e7d8"/><path d="M298,791.6H79.1a1,1,0,0,0-.9.9h0a1,1,0,0,0,.9.9H208.9a13.79,13.79,0,0,1,13.7,13.7h0a13.79,13.79,0,0,1-13.7,13.7H79.1a1,1,0,0,0-.9.9h0a1,1,0,0,0,.9.9H298a13.79,13.79,0,0,0,13.7-13.7v-4C311.9,797.7,305.7,791.6,298,791.6Z" transform="translate(-0.03 -0.02)" style="fill:#ff5856"/><path d="M161.5,676h96.1a4,4,0,0,1,4,4.7L247.7,791.6h-77L157.2,680.7A4.37,4.37,0,0,1,161.5,676Z" transform="translate(-0.03 -0.02)" style="fill:#aaace3"/><path d="M259.4,597.4l-1.6-.2a7.2,7.2,0,0,0-8.3,4.5L239.4,630a2.15,2.15,0,0,0-.2,1.1,23.37,23.37,0,0,0,11.9,5.4,25,25,0,0,0,11.7-.7c0-.4.2-.7.2-1.1l2.2-29.9C265.5,601.2,263,598.3,259.4,597.4Z" transform="translate(-0.03 -0.02)" style="fill:#d7d7e6"/><path d="M259.9,554.7a2.55,2.55,0,0,1,4.5,0c1.6,3.1,3.6,7,5.2,9.7,2.7,4.7,4,15.7,2.7,20.9-1.6,6.3-6.1,12.8-7.4,14.8a2.44,2.44,0,0,1-1.1.9,14.48,14.48,0,0,1-7.2.2c-4.7-1.1-5.2-4.3-5.2-4.3s-2.7-10.3-2.2-16.6,3.8-14.4,5.4-15.7C255.1,563.5,257.8,558.6,259.9,554.7Z" transform="translate(-0.03 -0.02)" style="fill:#c7645d"/><path d="M1416.1,620.7h0a42,42,0,0,1-51.6-29.4l-10.8-39.5a42,42,0,0,1,29.4-51.6h0a42,42,0,0,1,51.6,29.4l10.8,39.5A42,42,0,0,1,1416.1,620.7Z" transform="translate(-0.03 -0.02)" style="fill:#aaace3"/><path d="M1422.6,645a69.17,69.17,0,0,1-84.9-48.5l-1.3-4.9a8,8,0,1,1,15.5-4.3l1.3,4.9a52.95,52.95,0,1,0,102.1-28.1l-1.3-4.9a8,8,0,1,1,15.5-4.3l1.3,4.9A68.86,68.86,0,0,1,1422.6,645Z" transform="translate(-0.03 -0.02)" style="fill:#aaace3"/><path d="M1470.9,655.5a5.51,5.51,0,0,0,2.7-9,53.87,53.87,0,0,0-93.6,25.6,5.72,5.72,0,0,0,7,6.5Z" transform="translate(-0.03 -0.02)" style="fill:#aaace3"/><path d="M1212,855.8c8.1-17.1,30.3-31.7,47.1-30.3s11.5,1.8,16.8,1.3,13.7-6.1,24.9-2.7c12.6,3.8,39.1,17.7,39.5,48.7.4,26.5-18.9,56.8-53.9,63.8s-58.6-6.1-69.2-21.1C1205.3,898.2,1204.2,872.2,1212,855.8Z" transform="translate(-0.03 -0.02)" style="fill:#ff5856"/><path d="M1266.6,847.5s-2.7-39.7,13.5-56.6c18-18.6,41.5-36.1,39.7-24.7-.4,2.7,3.4,41.1-7.4,55.5C1296,843.7,1266.6,847.5,1266.6,847.5Z" transform="translate(-0.03 -0.02)" style="fill:#4c7378"/><path d="M1262.3,845.9s-3.1-17.1-6.1-26.7c-6.3-19.8-10.3-29.2-10.3-29.2l17.5-3.8s6.5,23.3,7.6,32.3c2.2,15.9.9,26.5.9,26.5s-2.2,3.6-5.4,3.1C1263,848.2,1262.3,845.9,1262.3,845.9Z" transform="translate(-0.03 -0.02)" style="fill:#6b4d3a"/><ellipse cx="1254.72" cy="788.21" rx="9" ry="4.3" transform="translate(-116.61 226.84) rotate(-9.87)" style="fill:#8a634b"/><path d="M1593.7,964.9H1185.1a6.49,6.49,0,0,1-6.5-6.5V942.2a6.49,6.49,0,0,1,6.5-6.5h408.4a6.49,6.49,0,0,1,6.5,6.5v16.2A6.45,6.45,0,0,1,1593.7,964.9Z" transform="translate(-0.03 -0.02)" style="fill:#c5c6e3"/><path d="M1386.3,931h-89.4V899.6h89.4a4.27,4.27,0,0,1,4.3,4.3v22.7A4.23,4.23,0,0,1,1386.3,931Z" transform="translate(-0.03 -0.02)" style="fill:#f8d0b3"/><path d="M1547.2,894.7H1289.5a2.5,2.5,0,0,0,0,5h92.3a8.81,8.81,0,0,1,8.8,8.8v13.9a8.81,8.81,0,0,1-8.8,8.8h-91.6a2.5,2.5,0,0,0,0,5h257.1a8.81,8.81,0,0,0,8.8-8.8V903.8C1556,898.5,1552.2,894.7,1547.2,894.7Z" transform="translate(-0.03 -0.02)" style="fill:#ff7a82"/><path d="M1429.8,892.4H1285.4V862.1h144.4a7.53,7.53,0,0,1,7.6,7.6v15A7.56,7.56,0,0,1,1429.8,892.4Z" transform="translate(-0.03 -0.02)" style="fill:#f8e7d8"/><path d="M1520.1,859.9H1279.2a1,1,0,0,0-1.1,1.1h0a1,1,0,0,0,1.1,1.1H1422a15.3,15.3,0,0,1,15.3,15.3h0a15.3,15.3,0,0,1-15.3,15.3H1279.2a1,1,0,0,0-1.1,1.1h0a1,1,0,0,0,1.1,1.1h240.7a15.3,15.3,0,0,0,15.3-15.3v-4.5A15.17,15.17,0,0,0,1520.1,859.9Z" transform="translate(-0.03 -0.02)" style="fill:#4e53ba"/><path d="M1395.2,883.4h-110v-1.3h110a.63.63,0,0,1,.7.7h0C1396.1,883.2,1395.7,883.4,1395.2,883.4Z" transform="translate(-0.03 -0.02)" style="fill:#debca7"/><path d="M1420.6,873.5H1285.4v-1.3h135.2a.63.63,0,0,1,.7.7h0A.67.67,0,0,1,1420.6,873.5Z" transform="translate(-0.03 -0.02)" style="fill:#debca7"/><ellipse cx="1180.37" cy="392.88" rx="18" ry="46.9" transform="translate(291.86 1263.63) rotate(-62.83)" style="fill:#d4bfa9"/><path d="M1146.9,356.9c8.5-15.5,15.7-31.4,19.1-48.7,7.4-37.3-2.7-80.6,21.1-110,17.1-21.3,47.6-27.8,74.5-24,33,4.7,64.4,24,79.5,53.7s11.2,69.2-12.6,92.3c-20,19.5-49.8,25.8-70.7,44.2-11.7,10.3-20,24-28.7,37l-2.9,4C1162.4,398.5,1146.9,356.9,1146.9,356.9Z" transform="translate(-0.03 -0.02)" style="fill:#ebdbcd"/><path d="M1259.6,299.2c-2.7-9.9-11.2-9.4-18.9-6.1-1.8-5.4-4.7-12.3-10.3-14.6-6.3-2.5-13.5,1.8-18.4,5.6-10.8,8.3-19.1,20.4-24,33s-7.4,26-11.9,38.8c-1.8,5.2,6.5,7.4,8.3,2.2,5.6-16.2,7.9-33.9,16.8-48.7,4.9-8.3,12.1-18,21.3-21.8,2.9-1.3,4.9-1.6,7,1.3a23.62,23.62,0,0,1,3.4,7.4c0,.2.2.4.2.7-1.1.7-2,1.3-2.9,2-8.8,6.5-20.4,18.2-20.2,30.1,0,5.4,3.4,9.9,9,10.3,6.1.4,12.1-4.3,15.9-8.8,7.2-8.3,9.4-19.1,7.9-29.6a15.19,15.19,0,0,1,5.6-2c5.4-.4,2.9,8.3,2.2,11.2-2.7,9.7-8.3,18.2-13.7,26.5-4,6.3-7.6,13-12.6,18.6-5.4,6.3-12.6,10.6-19.3,15-4.7,2.9-.4,10.3,4.3,7.4,8.1-5.2,16.4-10.3,22.5-17.7,6.5-7.9,11.9-16.8,17.1-25.6C1254.5,325.1,1262.8,310.7,1259.6,299.2ZM1234,313.8a26.12,26.12,0,0,1-6.3,12.1c-1.8,2-10.1,8.8-9.4,2.5.4-3.8,3.4-7.9,5.6-11a55.24,55.24,0,0,1,10.8-10.8A25.51,25.51,0,0,1,1234,313.8Z" transform="translate(-0.03 -0.02)" style="fill:#bfa990"/><path d="M1172.1,409c-20.9-10.6-35-25.4-34.4-34.6h0l-10.6,37.3c-3.6,7.2,8.5,20.7,27.2,30.3s36.8,11.7,40.4,4.5c.2-.4.2-.7.4-1.1h0l24.9-28.5h0C1213.2,422.7,1193,419.8,1172.1,409Z" transform="translate(-0.03 -0.02)" style="fill:#bfa990"/><path d="M940.1,122.8a1.08,1.08,0,0,1-.7-.2,2,2,0,0,1-.9-2.5,48.14,48.14,0,0,1,5.8-10.1,1.93,1.93,0,1,1,3.1,2.3,44,44,0,0,0-5.4,9.4A2.1,2.1,0,0,1,940.1,122.8Z" transform="translate(-0.03 -0.02)" style="fill:#110580"/><path d="M1243.5,238.4a1.08,1.08,0,0,1-.7-.2l-2.7-.9c-6.1-2.2-12.3-4.7-19.1-7.4a1.93,1.93,0,1,1,1.4-3.6c6.5,2.7,12.8,5.2,18.9,7.4l2.7.9a2,2,0,0,1,1.1,2.5A1.47,1.47,0,0,1,1243.5,238.4Zm-42.7-18a1.49,1.49,0,0,1-.9-.2,203.51,203.51,0,0,1-20.2-12.1,1.93,1.93,0,1,1,2.3-3.1,134.23,134.23,0,0,0,19.8,11.7,2,2,0,0,1,.9,2.5A2.28,2.28,0,0,1,1200.8,220.4Zm-37.7-26.7a1.71,1.71,0,0,1-1.3-.7,112.61,112.61,0,0,1-14.8-18.4c-.7-.9-.2-2,.7-2.7s2-.2,2.7.7a103.42,103.42,0,0,0,14.4,17.7,2,2,0,0,1,0,2.7A3.51,3.51,0,0,1,1163.1,193.7Zm-24.9-38.8a1.8,1.8,0,0,1-1.8-1.3,111.45,111.45,0,0,1-5.8-22.9,1.92,1.92,0,1,1,3.8-.6,107.67,107.67,0,0,0,5.6,22,2.09,2.09,0,0,1-1.1,2.5A.83.83,0,0,1,1138.2,154.9Zm12.5-24.5a78.73,78.73,0,0,1-12.8-.9,1.92,1.92,0,0,1,.6-3.8,72.75,72.75,0,0,0,12.3.9h0a68.5,68.5,0,0,0,10.3-.7,2,2,0,0,1,2.2,1.6,2.14,2.14,0,0,1-1.6,2.2,83.35,83.35,0,0,1-11,.7Zm-35-6.7h-.7c-6.5-2.2-13-5.2-21.6-9a1.88,1.88,0,1,1,1.6-3.4c8.3,3.8,14.8,6.7,21.3,9a1.85,1.85,0,0,1,1.1,2.5C1117.3,123.2,1116.4,123.7,1115.7,123.7Zm67.6-.9a1.89,1.89,0,0,1-1.6-.9,2.23,2.23,0,0,1,.7-2.7,52.09,52.09,0,0,0,9.7-7,30.88,30.88,0,0,0,6.5-8.1,2,2,0,0,1,3.4,2,39,39,0,0,1-7.2,8.8,47.27,47.27,0,0,1-10.3,7.4A1.58,1.58,0,0,1,1183.3,122.8Zm-51.2-13.5h0c-1.3-.2-2-1.1-1.8-2a68.93,68.93,0,0,1,6.5-22.9,1.88,1.88,0,0,1,3.4,1.6,67.82,67.82,0,0,0-6.3,21.6A1.77,1.77,0,0,1,1132.1,109.3Zm-58.8-4.5a2,2,0,0,1-.9-.2c-2.5-1.1-4.9-2.2-7.4-3.4-4.9-2.2-9.4-4-13.7-5.8a1.93,1.93,0,1,1,1.4-3.6c4.5,1.8,9,3.6,13.9,5.8,2.5,1.1,4.9,2.2,7.4,3.4a2,2,0,0,1,.9,2.5A1.66,1.66,0,0,1,1073.3,104.8ZM962.6,97.4a1.54,1.54,0,0,1-1.6-.9c-.7-.9-.2-2,.7-2.7a71,71,0,0,1,21.8-9.4,1.81,1.81,0,1,1,.9,3.5,72.27,72.27,0,0,0-20.7,9C963.5,97.4,963,97.4,962.6,97.4Zm67.4-8.8h-.4a116.68,116.68,0,0,0-22.7-2.9,1.84,1.84,0,0,1-1.8-2,1.79,1.79,0,0,1,1.8-1.8h0a121.61,121.61,0,0,1,23.3,2.9,1.69,1.69,0,0,1,1.3,2.2A1.4,1.4,0,0,1,1030,88.6ZM1206,85a1.79,1.79,0,0,1-1.8-1.8,24.74,24.74,0,0,0-6.5-16.2,30.76,30.76,0,0,0-2.7-2.5,1.93,1.93,0,0,1,2.3-3.1,21.3,21.3,0,0,1,3.1,2.9,27.27,27.27,0,0,1,7.6,18.6,2,2,0,0,1-2,2.1Zm-53.2-15.9a2,2,0,0,1-1.6-.7,1.92,1.92,0,0,1,.4-2.7,49.31,49.31,0,0,1,22-9.4,1.92,1.92,0,1,1,.6,3.8,39.91,39.91,0,0,0-20.2,8.8A2.34,2.34,0,0,1,1152.8,69.1Z" transform="translate(-0.03 -0.02)" style="fill:#110580"/><path d="M1274.5,253.4a3.26,3.26,0,0,1-1.3-.4,38.93,38.93,0,0,0-9-5.8,1.88,1.88,0,0,1,1.6-3.4,57.08,57.08,0,0,1,9.9,6.3,2,2,0,0,1,.2,2.7A2,2,0,0,1,1274.5,253.4Z" transform="translate(-0.03 -0.02)" style="fill:#110580"/><path d="M1257.6,12.1c12.6,42.7,11.5,82.2,10.3,126-.2,12.1,39.3,8.3,42-2.2,10.6-42.2,3.1-87.8-10.3-128.4-4.3-13.4-45.4-6.9-42,4.6Z" transform="translate(-0.03 -0.02)" style="fill:#f3e9e1"/><path d="M1426.2,96c-19.1,34.4-43.1,62.9-67.6,93-10.8,13.2,26.9,11,33.9,4.7,30.1-26.5,53.4-62.2,71.4-97.7,5.4-10.3-32.1-10.3-37.7,0Z" transform="translate(-0.03 -0.02)" style="fill:#f3e9e1"/><path d="M1419.5,275c26.9.7,53.9,2,80.6,3.6,9.7.7,24.7-3.1,27.6-13.9s-9.9-16.6-18.4-17.1c-26.9-1.6-53.7-2.7-80.6-3.6-9.7-.2-24.5,2.9-27.6,13.9-2.9,10.8,9.6,16.9,18.4,17.1Z" transform="translate(-0.03 -0.02)" style="fill:#f3e9e1"/><path d="M389.4,960.2h-22a20.31,20.31,0,0,1-4,4.7h25.8a2.54,2.54,0,0,0,2.5-2.5h0A2.12,2.12,0,0,0,389.4,960.2Z" transform="translate(-0.03 -0.02)" style="fill:#2b31ba"/><path d="M389.4,883a2.5,2.5,0,1,0,0-5H371.9v4.7l17.5.3Z" transform="translate(-0.03 -0.02)" style="fill:#2b31ba"/><path d="M602.14,1187.36l-122.52,37A18.9,18.9,0,0,1,456,1211.73l0-.06L412.4,1067A18.89,18.89,0,0,1,425,1043.41l.06,0,122.51-37A18.91,18.91,0,0,1,571.14,1019l0,.06,43.61,144.68a18.88,18.88,0,0,1-12.55,23.57Z" transform="translate(-0.03 -0.02)" style="fill:none;stroke:#ff5c76;stroke-miterlimit:10;stroke-width:1.1820000410079956px"/><path d="M560.42,1141.84l-71,21.45a18.91,18.91,0,0,1-23.59-12.58l0-.06-21.45-71a18.91,18.91,0,0,1,12.58-23.59H457l71-21.45a18.9,18.9,0,0,1,23.58,12.58l0,0,21.45,71a18.79,18.79,0,0,1-12.4,23.51Z" transform="translate(-0.03 -0.02)" style="fill:none;stroke:#ff5c76;stroke-miterlimit:10;stroke-width:1.1820000410079956px"/><polygon points="467.68 1836.89 454.32 1809.72 424.54 1805.43 445.99 1784.44 440.98 1754.89 467.68 1768.95 494.14 1754.89 489.13 1784.44 510.58 1805.43 480.79 1809.72 467.68 1836.89" style="fill:none;stroke:#ff5c76;stroke-linecap:round;stroke-linejoin:round;stroke-width:1.1820000410079956px"/><polyline points="746.33 1412.6 742.51 1364.69 784.94 1387.33" style="fill:none;stroke:#ff5c76;stroke-linecap:round;stroke-linejoin:round;stroke-width:1.1820000410079956px"/><polyline points="771.59 1451.22 723.68 1455.03 746.33 1412.6" style="fill:none;stroke:#ff5c76;stroke-linecap:round;stroke-linejoin:round;stroke-width:1.1820000410079956px"/><path d="M610.24,520.42l-87.48-22.89a19.1,19.1,0,0,1-13.58-23.11l27.41-104.65a19.15,19.15,0,0,1,23.13-13.59l87.48,22.89a19.14,19.14,0,0,1,13.58,23.12L633.36,506.83a18.65,18.65,0,0,1-22.51,13.75Z" transform="translate(-0.03 -0.02)" style="fill:none;stroke:#ff5c76;stroke-miterlimit:10;stroke-width:1.1820000410079956px"/><path d="M601.19,473.7,554,461.3a19.12,19.12,0,0,1-13.59-23.12L552.79,391A19.14,19.14,0,0,1,576,377.4l47.19,12.39a19.12,19.12,0,0,1,13.58,23.12l-12.39,47.2a18.74,18.74,0,0,1-22.7,13.7Z" transform="translate(-0.03 -0.02)" style="fill:none;stroke:#ff5c76;stroke-miterlimit:10;stroke-width:1.1820000410079956px"/><polyline points="750.38 138.54 720.58 134.01 742.27 113.04 737.03 83.47 763.72 97.54" style="fill:none;stroke:#ff5c76;stroke-linecap:round;stroke-linejoin:round;stroke-width:1.1820000410079956px"/><path d="M458.41,1430a5.41,5.41,0,0,0,7.22-2.49l.16-.37h0a25.06,25.06,0,0,1,45.3,21.45,1.81,1.81,0,0,1-.49,1,5.25,5.25,0,0,0,2.63,6.91l7.63,3.57a5.28,5.28,0,0,0,6.67-1.9,1.87,1.87,0,0,0,.48-1,1.26,1.26,0,0,0,.47-1,43.55,43.55,0,1,0-78.42-37.9h0a.86.86,0,0,1-.23.49c-.25.47-.25,1-.48,1.42a5.4,5.4,0,0,0,2.62,6.68Z" transform="translate(-0.03 -0.02)" style="fill:#ffeb7d"/><line x1="1182.07" y1="1047.26" x2="1160.94" y2="1019.18" style="fill:none;stroke:#465cff;stroke-miterlimit:10;stroke-width:0.33500000834465027px"/><path d="M1157.66,1014.72a5.42,5.42,0,0,1,7.59.91l.19.26,21.11,27.92a5.57,5.57,0,0,1-8.94,6.61l-21.13-28.08A5.51,5.51,0,0,1,1157.66,1014.72Z" transform="translate(-0.03 -0.02)" style="fill:#465cff;stroke:#465cff;stroke-miterlimit:10;stroke-width:0.33500000834465027px"/><line x1="1168.02" y1="1057.74" x2="1146.89" y2="1029.66" style="fill:none;stroke:#465cff;stroke-miterlimit:10;stroke-width:0.33500000834465027px"/><path d="M1143.62,1025.2a5.4,5.4,0,0,1,7.58.92c.07.08.13.17.19.25l21.13,28.08a5.57,5.57,0,0,1-8.6,7.08c-.12-.15-.24-.31-.35-.47L1142.45,1033a5.43,5.43,0,0,1,1-7.62Z" transform="translate(-0.03 -0.02)" style="fill:#465cff;stroke:#465cff;stroke-miterlimit:10;stroke-width:0.33500000834465027px"/><path d="M1293.78,1636.79l-34.13,78.44a12.63,12.63,0,0,0,4.26,16.83l1,.42c.36.14.72.44,1.07.58l60.71,26.52h0a10.56,10.56,0,0,0,13.81-5.52c.14-.35.26-.87.4-1.23l.87-1.6,30.32-69.9a38.61,38.61,0,0,0,7.89.48c12.52-1,22-8.65,21.44-17.29s-11.25-15-23.6-14c-10.84.81-19.34,6.7-21.08,13.84l-31.16,71.7-43.48-18.9,27.52-63a37.91,37.91,0,0,0,7.89.47c12.52-1,22-8.64,21.44-17.28s-11.25-15-23.61-14C1304,1623.76,1295.52,1629.65,1293.78,1636.79Z" transform="translate(-0.03 -0.02)" style="fill:#621cd1;stroke:#621cd1;stroke-miterlimit:10;stroke-width:0.33500000834465027px"/><path d="M1161.53,1423.47l40.72,44.88a8.85,8.85,0,0,0,12.13,2.14l.46-.55c.15-.18.47-.38.62-.56l34.65-31.45h0a7.7,7.7,0,0,0,.56-10.61,1.3,1.3,0,0,0-.74-.62c-.2-.32-.56-.63-.77-1L1213,1385.91a14.87,14.87,0,0,0,2.44-5c3-8.29.86-16.79-4.94-18.82s-12.87,2.87-16,11.17a16,16,0,0,0,2.8,17.65l37.11,40.93-24.9,22.55-32.76-36.06a15.08,15.08,0,0,0,2.45-5c3-8.29.86-16.79-5-18.82s-12.87,2.87-16,11.17A17.2,17.2,0,0,0,1161.53,1423.47Z" transform="translate(-0.03 -0.02)" style="fill:#465cff;stroke:#a4d2fc;stroke-miterlimit:10;stroke-width:0.33500000834465027px"/><path d="M1150.27,692.89l37.11,40.78a7.83,7.83,0,0,0,10.9,1.92h0l.46-.55c.16-.18.47-.38.63-.57L1230.89,706h0a6.77,6.77,0,0,0,.53-9.56l0,0c-.19-.15-.39-.47-.57-.63a3.53,3.53,0,0,0-.77-.95l-33-36.38a25.27,25.27,0,0,0,2.32-4.47c2.73-7.58.65-15.23-4.6-17.14s-11.7,2.59-14.59,10.19a14.46,14.46,0,0,0,2.65,16.12l33.9,37.32L1194.08,721l-29.75-32.76a25.62,25.62,0,0,0,2.32-4.47c2.73-7.58.65-15.24-4.6-17.14s-11.7,2.58-14.59,10.18A14.75,14.75,0,0,0,1150.27,692.89Z" transform="translate(-0.03 -0.02)" style="fill:#465cff;stroke:#a4d2fc;stroke-miterlimit:10;stroke-width:0.33500000834465027px"/><polygon points="543.74 657.95 554.1 703.13 586.9 735.64 542.01 745.71 509.2 778.81 499.14 733.63 466.05 701.11 511.22 690.75 543.74 657.95" style="fill:#ff5c76;stroke:#ff5c76;stroke-linecap:round;stroke-linejoin:round;stroke-width:1.1820000410079956px"/></svg>