<svg id="Layer_1" data-name="Layer 1" xmlns="http://www.w3.org/2000/svg" viewBox="0 0 2686.3 1278.71"><title>backcard1</title><path d="M2646.64,1735.82s240.21-416.83-67-727.37S2008.12,870,1874.05,861.33,1697,580.72,1300.36,498.69,197.64,446.32,530,1039.48c160.43,286.32-346.88,237.87-257.5,704Z" transform="translate(-156.85 -465.15)" style="fill:#ed9f4a;opacity:0.2"/><rect x="246.76" y="401.14" width="1243.47" height="24.45" style="fill:#e8b491"/><path d="M1668.92,1685.6h-25.37V855a12.69,12.69,0,0,1,12.68-12.69h0A12.69,12.69,0,0,1,1668.92,855Z" transform="translate(-156.85 -465.15)" style="fill:#ce8d6a"/><path d="M416.29,1685.1H390.92V855a12.69,12.69,0,0,1,12.69-12.69h0A12.69,12.69,0,0,1,416.29,855Z" transform="translate(-156.85 -465.15)" style="fill:#ce8d6a"/><path d="M1747.36,1701.69H1565.11a12.69,12.69,0,0,1-12.69-12.69h0a12.69,12.69,0,0,1,12.69-12.68h182.25a12.69,12.69,0,0,1,12.69,12.68h0A12.69,12.69,0,0,1,1747.36,1701.69Z" transform="translate(-156.85 -465.15)" style="fill:#ce8d6a"/><path d="M494.73,1701.69H312.48A12.69,12.69,0,0,1,299.79,1689h0a12.69,12.69,0,0,1,12.69-12.68H494.73A12.69,12.69,0,0,1,507.42,1689h0A12.69,12.69,0,0,1,494.73,1701.69Z" transform="translate(-156.85 -465.15)" style="fill:#ce8d6a"/><path d="M1728.73,1701.69h-15a16.38,16.38,0,0,0,0,32.75h15a16.38,16.38,0,1,0,0-32.75Z" transform="translate(-156.85 -465.15)" style="fill:#233862"/><circle cx="1571.88" cy="1252.91" r="14.5" style="fill:#e8b491"/><path d="M1598.73,1701.69h-15a16.38,16.38,0,0,0,0,32.75h15a16.38,16.38,0,1,0,0-32.75Z" transform="translate(-156.85 -465.15)" style="fill:#233862"/><circle cx="1441.88" cy="1252.91" r="14.5" style="fill:#e8b491"/><path d="M476.11,1701.69h-15a16.38,16.38,0,1,0,0,32.75h15a16.38,16.38,0,0,0,0-32.75Z" transform="translate(-156.85 -465.15)" style="fill:#233862"/><circle cx="319.26" cy="1252.91" r="14.5" style="fill:#e8b491"/><path d="M346.11,1701.69h-15a16.38,16.38,0,1,0,0,32.75h15a16.38,16.38,0,0,0,0-32.75Z" transform="translate(-156.85 -465.15)" style="fill:#233862"/><circle cx="189.26" cy="1252.91" r="14.5" style="fill:#e8b491"/><path d="M745.78,1003c-26.3-16.85-78.2-45-133.14-46.71v-47c0-5.07-2.46-14.82-11.8-15.39a13.22,13.22,0,0,1-9.34-4.79,15.07,15.07,0,0,1-3.76-10.51c.92-10,7.56-16.21,17.33-16.21a9.32,9.32,0,0,1,7.5,3.95H621c-4.43-9.1-10.94-11.16-15.89-11.16-13.62,0-23.24,8.93-24.52,22.75A22.38,22.38,0,0,0,586,893.76a20.57,20.57,0,0,0,14.38,7.3c4.91.29,5,7.87,5,8.18v47c-52.56.66-104,27.43-130.42,43.61a13.74,13.74,0,0,0,7.21,25.43h257a12.08,12.08,0,0,0,6.52-22.25Zm-5.44,10.48a1,1,0,0,1-1.08.81h-257a2.66,2.66,0,0,1-2.68-2,2.58,2.58,0,0,1,1.2-3.09c25.76-15.78,76.2-42,126.82-42l2,0c53.28.75,104.49,28.56,130.27,45.07A1,1,0,0,1,740.34,1013.46Z" transform="translate(-156.85 -465.15)" style="fill:#ce8d6a"/><path d="M1389.78,1000.06c-26.3-16.85-78.2-45-133.14-46.71v-47c0-5.07-2.46-14.82-11.8-15.38a13.26,13.26,0,0,1-9.34-4.8,15.07,15.07,0,0,1-3.76-10.51c.92-10,7.56-16.21,17.33-16.21,4.47,0,7.4,3.07,9.32,6.87h7.81c-4.37-11.59-11.69-14.08-17.13-14.08-13.62,0-23.24,8.93-24.52,22.76a22.35,22.35,0,0,0,5.47,15.87,20.57,20.57,0,0,0,14.38,7.3c4.91.3,5,7.87,5,8.18v46.95c-52.56.66-104,27.44-130.42,43.61a13.74,13.74,0,0,0,7.21,25.43h257a12.08,12.08,0,0,0,6.52-22.25Zm-5.44,10.48a1,1,0,0,1-1.08.81h-257a2.66,2.66,0,0,1-2.68-2,2.58,2.58,0,0,1,1.2-3.09c25.76-15.78,76.2-42,126.82-42h2c53.28.75,104.49,28.56,130.27,45.07A1,1,0,0,1,1384.34,1010.54Z" transform="translate(-156.85 -465.15)" style="fill:#ce8d6a"/><path d="M1472.27,1000.06c-26.3-16.85-78.19-45-133.13-46.71v-47c0-5.07-2.47-14.82-11.81-15.38a13.23,13.23,0,0,1-9.33-4.8,15.09,15.09,0,0,1-3.77-10.51c.93-10,7.57-16.21,17.33-16.21,4.48,0,7.41,3.07,9.32,6.87h7.82c-4.37-11.59-11.7-14.08-17.14-14.08-13.61,0-23.23,8.93-24.51,22.76-.49,5.28,1.61,11.37,5.47,15.87a20.55,20.55,0,0,0,14.38,7.3c4.9.3,5,7.87,5,8.18v46.95c-52.56.66-104,27.44-130.41,43.61a13.73,13.73,0,0,0,7.2,25.43h257a12.08,12.08,0,0,0,6.51-22.25Zm-5.43,10.48a1,1,0,0,1-1.08.81h-257a2.67,2.67,0,0,1-2.68-2,2.59,2.59,0,0,1,1.2-3.09c25.77-15.78,76.21-42,126.83-42h2c53.28.75,104.48,28.56,130.26,45.07A1,1,0,0,1,1466.84,1010.54Z" transform="translate(-156.85 -465.15)" style="fill:#ce8d6a"/><path d="M1164.85,972.34s40,35.71,97.76,33.54,85.13-31,85.13-31,45.46,23.09,54.83,36.08,13.71,145.73,13.71,145.73-22.36,8.66-45.45,7.94l-9.38-28.14,28.43,472s-35.16,1.45-56.33-10.69c-20.39-11.69-51.11,3.88-78.53,7.57s-43.16-17.19-70.09-8.53c-42,13.5-74.55,5.77-74.55,5.77l43.25-467.43-11.72,27.34s-40.19,0-53.18-13.72c0,0,15.39-141.17,24-149.83S1164.85,972.34,1164.85,972.34Z" transform="translate(-156.85 -465.15)" style="fill:#80bdcc"/><path d="M1247.34,971.34s40,35.71,97.76,33.54,85.14-31,85.14-31,45.45,23.09,54.83,36.08,13.71,145.73,13.71,145.73-22.37,8.66-45.45,7.94l-9.38-28.14,30,538.63s-36.71,4.78-57.87-7.36c-20.4-11.69-51.12,3.88-78.53,7.57s-43.16-7.19-70.1,1.47c-42,13.5-74.55,5.77-74.55,5.77l43.25-547.43-11.72,27.34s-40.19,0-53.17-13.72c0,0,15.39-141.17,24-149.83S1247.34,971.34,1247.34,971.34Z" transform="translate(-156.85 -465.15)" style="fill:#233862"/><path d="M520.85,975.25s40,35.72,97.76,33.55,85.13-31,85.13-31,45.46,23.09,54.83,36.07,13.71,145.74,13.71,145.74-22.36,8.66-45.45,7.94l2.09-26.43,17,470.25s-35.16,1.44-56.33-10.69c-20.39-11.7-51.11,3.88-78.53,7.57s-43.16-17.19-70.09-8.53c-42,13.5-74.55,5.77-74.55,5.77L509.63,1138l-11.72,27.34s-40.19,0-53.18-13.72c0,0,15.39-141.17,24-149.83S520.85,975.25,520.85,975.25Z" transform="translate(-156.85 -465.15)" style="fill:#a8d29f"/><path d="M939.67,1003a350.33,350.33,0,0,0-48-25.75A287.38,287.38,0,0,0,863,966.42c-17.76-5.61-36.91-9.58-56.46-10.17h0v-47c0-5.07-2.47-14.82-11.81-15.39a13.19,13.19,0,0,1-9.33-4.79,15.09,15.09,0,0,1-3.77-10.51c.93-10,7.57-16.21,17.33-16.21a9.29,9.29,0,0,1,7.5,3.95h8.39c-4.42-9.1-10.94-11.16-15.89-11.16-13.61,0-23.23,8.93-24.51,22.75-.49,5.29,1.61,11.37,5.47,15.88a20.55,20.55,0,0,0,14.38,7.3c4.91.29,5,7.87,5,8.18v46.94c-21.71.27-43.22,5-62.86,11.6-9.1,3.06-17.81,6.51-25.94,10.12a360.54,360.54,0,0,0-41.62,21.9,13.72,13.72,0,0,0,7.2,25.42h257a12.07,12.07,0,0,0,6.51-22.25Zm-5.43,10.49a1,1,0,0,1-1.08.81h-257a2.65,2.65,0,0,1-2.68-2,2.59,2.59,0,0,1,1.21-3.08,346.24,346.24,0,0,1,40.46-21.27c8.07-3.58,16.71-7,25.73-10,19-6.32,39.83-10.75,60.63-10.75.68,0,1.36,0,2,0,19.28.27,38.31,4.08,55.94,9.62a284.35,284.35,0,0,1,31.3,12,345.69,345.69,0,0,1,43,23.41A1,1,0,0,1,934.24,1013.46Z" transform="translate(-156.85 -465.15)" style="fill:#ce8d6a"/><path d="M1084.17,1000.45a359.33,359.33,0,0,0-41.61-21.91c-8.14-3.61-16.84-7-25.94-10.11-19.64-6.6-41.16-11.33-62.86-11.61V909.88c0-.3.12-7.88,5-8.18a20.49,20.49,0,0,0,14.37-7.3c3.87-4.5,6-10.58,5.48-15.87-1.28-13.82-10.9-22.76-24.52-22.76-4.83,0-11.16,2-15.57,10.52h8.6a9.07,9.07,0,0,1,7-3.3c9.77,0,16.41,6.21,17.33,16.2a15.14,15.14,0,0,1-3.76,10.52,13.29,13.29,0,0,1-9.34,4.79c-9.34.57-11.8,10.31-11.8,15.38v47h0c-19.56.59-38.7,4.56-56.47,10.17a288.31,288.31,0,0,0-28.63,10.79,350.64,350.64,0,0,0-48,25.76,12.07,12.07,0,0,0,6.51,22.25H1077a13.72,13.72,0,0,0,7.19-25.42Zm-4.51,12.42a2.65,2.65,0,0,1-2.68,2H819.93a1,1,0,0,1-1.09-.81,1,1,0,0,1,.48-1.26,344.35,344.35,0,0,1,43-23.4,282.35,282.35,0,0,1,31.3-12c17.63-5.55,36.66-9.35,55.94-9.63h2c20.81,0,41.59,4.43,60.64,10.75,9,3,17.66,6.4,25.73,10a347.77,347.77,0,0,1,40.46,21.27A2.6,2.6,0,0,1,1079.66,1012.87Z" transform="translate(-156.85 -465.15)" style="fill:#ce8d6a"/><path d="M650.31,1511.49s17.07,18.45,43,9.79,53.07-.1,58.66,3.38c30.76,19.16,64.38,21.13,78.41-3.36,9.35-16.35,39,17.31,100.31,4.62,0,0-50.7-309.61-52.14-346.32s30-80.08,9.81-152.95c0,0-.09-.5-.22-1.43-.27-2-.77-6-1.08-11-.54-7.92-.61-18.19,1.41-26.4a23.86,23.86,0,0,1,4.58-10c-8.14-3.61-16.84-7.06-26-10.12-1.13,2.67-2.6,6.12-4.36,10.1-4.41,10-10.69,23.3-18,36.39-2.05,3.7-4.19,7.38-6.39,11-11.48,18.72-24.61,34.64-36.61,36.06,0,0-15.79-2.12-35.73-36.06-2-3.33-4-7-6-11a321.24,321.24,0,0,1-15.93-37.5c-1.18-3.32-2.38-6.77-3.56-10.35A287.38,287.38,0,0,0,712,977.22a13.52,13.52,0,0,0-1.07,1.82s1,3.78,2,9.76a143,143,0,0,1,1.94,25.47,99.25,99.25,0,0,1-.81,11c-.06.48-.13,1-.2,1.43,0,0-9.42,18.26-6.54,51.45s16.38,67.06,15.41,101.47C721.38,1225.79,651.75,1455.21,650.31,1511.49Zm232.15-481.06,5-3.18C886.52,1027.89,884.8,1029,882.46,1030.43Z" transform="translate(-156.85 -465.15)" style="fill:#fc7972"/><path d="M799.78,1462.13s17.07,18.46,43,9.8,53.07-.11,58.67,3.38c30.75,19.15,64.37,21.13,78.4-3.37,9.36-16.34,39,17.32,100.32,4.62,0,0-62.34-259.64-63.78-296.35s41.64-80,21.44-152.91c0,0-.09-.51-.22-1.43-.27-2-.76-6-1.08-10.95-.53-7.92-.61-18.2,1.42-26.41a23.85,23.85,0,0,1,4.57-10c-8.14-3.61-16.84-7-25.94-10.11-1.13,2.67-2.6,6.11-4.36,10.1-4.42,10-10.69,23.3-18,36.39-2,3.69-4.18,7.37-6.39,10.95-11.47,18.72-24.6,34.63-36.61,36.06,0,0-15.78-2.12-35.73-36.06-2-3.33-3.95-7-6-10.95a322,322,0,0,1-15.93-37.5q-1.78-5-3.57-10.35a288.31,288.31,0,0,0-28.63,10.79,15.34,15.34,0,0,0-1.06,1.82s1,3.78,2,9.77a143.06,143.06,0,0,1,1.93,25.47,101.72,101.72,0,0,1-.8,10.95c-.06.48-.14,1-.21,1.43,0,0-9.42,18.26-6.53,51.45s16.37,67.06,15.41,101.46C870.86,1226.44,801.22,1405.86,799.78,1462.13Zm232.16-431.05c2.34-1.47,4.06-2.57,5-3.19C1036,1028.54,1034.28,1029.65,1031.94,1031.08Z" transform="translate(-156.85 -465.15)" style="fill:#4d8693"/><path d="M1805.8,1743.29a10,10,0,0,1-10-10v-455H1573.36v455a10,10,0,0,1-20,0v-475H1815.8v475A10,10,0,0,1,1805.8,1743.29Z" transform="translate(-156.85 -465.15)" style="fill:#ba7556"/><path d="M2253.25,1140.26h0l-51.77,244.51,20.47.13,47.45-224.15A17,17,0,0,0,2253.25,1140.26Z" transform="translate(-156.85 -465.15)" style="fill:#41828c"/><path d="M2249.79,1743.29a10,10,0,0,1-9.95-9l-29.12-299.32H2070.87l-29.12,299.32a10,10,0,1,1-19.91-1.93l30.88-317.39h176.15l30.88,317.39a10,10,0,0,1-9,10.92C2250.44,1743.28,2250.11,1743.29,2249.79,1743.29Z" transform="translate(-156.85 -465.15)" style="fill:#41828c"/><rect x="1883.95" y="1140.12" width="195.33" height="16.67" style="fill:#41828c"/><path d="M2139.79,1743.29a10,10,0,0,1-9.95-9l-29.12-299.32H1960.87l-29.12,299.32a10,10,0,1,1-19.91-1.93l30.88-317.39h176.15l30.88,317.39a10,10,0,0,1-9,10.92C2140.44,1743.28,2140.11,1743.29,2139.79,1743.29Z" transform="translate(-156.85 -465.15)" style="fill:#7bb8c6"/><rect x="1777.62" y="1140.12" width="195.33" height="16.67" style="fill:#7bb8c6"/><path d="M1928.88,1414.94h310.33a15.1,15.1,0,0,0,15.09-15.09h0a15.09,15.09,0,0,0-15.09-15.08H1928.88a15.08,15.08,0,0,0-15.08,15.08h0A15.09,15.09,0,0,0,1928.88,1414.94Z" transform="translate(-156.85 -465.15)" style="fill:#fc7972"/><rect x="1895.26" y="672.1" width="234.86" height="89.5" rx="33.25" style="fill:#fc7972"/><path d="M1765.18,1589.62c-1.33,4-4.19,6.06-8.13,6.8H1757c-7.28,1.36-18.21-1.88-29.81-6.28-1.48-.56-2.82-1.05-4-1.45l-1-.3c-.24-.09-.49-.16-.73-.23-11.74-3.57-11.66.32-34.42-5.1-25.94-6.19-32.69-17-33-21-.26-3.39,11.68-3.2,25-3.06l2,0c1.78,0,3.58,0,5.36,0,16,0,20.52-5.09,37.24-17.15,13.59-9.79,67.2-69.59,67.2-69.59l23.2,27.43s-47.12,40.07-49.26,55c-1.13,8,2.38,14,2.25,21.13,0,.49,0,1,0,1.48C1766.76,1581.43,1766.5,1585.64,1765.18,1589.62Z" transform="translate(-156.85 -465.15)" style="fill:#e49963"/><path d="M1765.18,1589.62c-1.33,4-4.19,6.06-8.13,6.8H1757c-7.56.87-18.35-2.21-29.76-6.35-1.5-.54-2.84-1-4.08-1.38l-1-.3c-.24-.09-.49-.16-.73-.23-11.74-3.57-11.66.32-34.42-5.1-25.94-6.19-32.69-17-33-21-.26-3.39,11.68-3.2,25-3.06a78.8,78.8,0,0,0,37.62,16.1c17.88,2.4,37.37-.45,50.32.73,0,.49,0,1,0,1.48C1766.76,1581.43,1766.5,1585.64,1765.18,1589.62Z" transform="translate(-156.85 -465.15)" style="fill:#1c468a"/><path d="M1838.91,1696.18c-1.49,11-17.15,10.23-34.8,7.09s-13.19,1.65-38.09.5-33-9.89-34-13.52c-.88-3.22,11.26-5.15,24.27-7.5,1.63-.29,3.28-.6,4.92-.91,14.68-2.81,24.9-13,37.84-21.75,12.25-8.24,29.31-39.71,29.31-39.71l34.08.51s-16.06,28.17-22.19,40.36c-3.61,7.17-2.81,16.29-1.85,23.32A43.8,43.8,0,0,1,1838.91,1696.18Z" transform="translate(-156.85 -465.15)" style="fill:#e49963"/><path d="M1804.4,1704.54c-17.74-2.56-13.13,2.08-38.06,1.74s-33.38-13-34.49-16.55c-1-3.19,6.1-4.14,19-6.91l5.14-1.14s15.9,13.2,36.47,11.7c16.77-1.21,34-7.72,45.6-8.65a43.71,43.71,0,0,1,.86,11.59C1837.82,1707.41,1822.13,1707.1,1804.4,1704.54Z" transform="translate(-156.85 -465.15)" style="fill:#1c468a"/><path d="M1843,1110.35s-8.1-19.84-17-20.65-37.24-5.26-39.27-1.21,0,18.62,6.07,23.88,43.72,13.76,43.72,13.76Z" transform="translate(-156.85 -465.15)" style="fill:#e49963"/><path d="M1902.13,1310.5,1796.06,1492s-16.72,29.39-7.48,35.77c8.5,5.86,21.52,9.9,21.52,9.9s134.88-133.94,144.23-184.64S1902.13,1310.5,1902.13,1310.5Z" transform="translate(-156.85 -465.15)" style="fill:#233862"/><path d="M2173.36,1280.08s-222-7.46-262.56,20.57-94.66,337.07-94.66,337.07,4.26,3.13,13.52,3.75c8.6.57,27.26-5.26,27.26-5.26s90.33-141,95.66-175.82,2.4-65.54,17.76-67,231.63,19.09,249-40.11c16.54-56.51-12.87-99.55-12.87-99.55Z" transform="translate(-156.85 -465.15)" style="fill:#2b478b"/><path d="M2058.64,981.42c-3.35-6.94-7.11-19.26-8.95-41.22.28,2.18,4.07,29.88,14.72,45.56,43.76,28.73,127.63,124.66,126,142.84,0,0,29.55-50.11,30.06-50.41,0,0,54.5-69.3-10.09-109-32.83-20.18-32.67-46.07-31.29-68.56s-9-119.33-74.72-94c0,0-10.55-4.69-15.28-4,0,0,3.86.74,5.83,2.76-7.63-.45-18.53.11-27.62,5.28C2043.16,824.41,2021.59,947.32,2058.64,981.42Z" transform="translate(-156.85 -465.15)" style="fill:#2c3a64"/><path d="M2067,987.19c-.22.1,21.13,11.19,37.19,6.79,15.1-4.11,25-23.7,24.76-23.74-6.4-1.27-8.24-10.06-8.1-47.83l-2.9.56-48.62,9.63s1.11,15.3,1.14,29.72C2070.51,974.42,2069.77,985.9,2067,987.19Z" transform="translate(-156.85 -465.15)" style="fill:#e49963"/><path d="M2069.33,932.6s1.11,15.3,1.14,29.72c27.21-.77,41.59-25.59,47.48-39.35Z" transform="translate(-156.85 -465.15)" style="fill:#d68d5d"/><path d="M2123,917.68s14.25-22.53,17.68-41.79c2.44-13.75-4.56-64.73-55.79-57.39A69.54,69.54,0,0,0,2056,829.41c-11.12,7.51-27.17,23.73-9.23,68.22l4.67,15Z" transform="translate(-156.85 -465.15)" style="fill:#2c3a64"/><path d="M2060.25,946.25s64.37,1.06,64.42-39,8.38-67-32.72-69.33-49.1,12.91-52.37,26.29S2043.5,944.94,2060.25,946.25Z" transform="translate(-156.85 -465.15)" style="fill:#e49963"/><path d="M2121,845.35s-44-30.06-57.87-9.28c-4.22-3.61-11.73-6.23-21.67,5.81-14.92,18.09-1.64,50.06-1.64,50.06,6.12.72,7.57-20.3,10.78-30.51,2.42-7.7,10.49-15.57,14.32-19,5.62,12.66,21.07,43,42.35,48.43,27,7,38.79-.29,38.79-.29S2125.34,874.12,2121,845.35Z" transform="translate(-156.85 -465.15)" style="fill:#2c3a64"/><path d="M2236.58,1313.52c-3.47,9.63-14.11,12.12-28.38,10.44-27.21-3.18-67.63-21.45-96.76-34.08-44.4-19.25-64.59-1.16-78.72-13.41s16.15-39.49-10.09-166c-8.9-42.89,47.46-134.92,47.46-134.92s3.9,24.93,58.86-5.33c.28-.16,23.14,30.31,43.6,69.08,22.55,42.77,44.14,94.43,37.8,121.06C2198.23,1211.13,2246.68,1285.51,2236.58,1313.52Z" transform="translate(-156.85 -465.15)" style="fill:#a8d29f"/><path d="M2070.09,975.57l-33.23,136.51s-4.14,7.37-10.63,17.86c-15.23,24.62-43.42,66.45-61.46,70.7-8.9,2.1-27.83-5.31-48.79-15.89-39.61-20-86.45-51.38-86.45-51.38-3-18.17,12.78-33,12.78-33s94.87,35.65,104.29,36.33c20.54,1.46,41.44-97.66,60.64-130.7C2021.12,982.15,2070.09,975.57,2070.09,975.57Z" transform="translate(-156.85 -465.15)" style="fill:#a8d29f"/><path d="M2074.56,921.94s-1.2,5.1-13.87,4.31c0,0-10.64-.65-10.32-6.25C2050.37,920,2060.69,916,2074.56,921.94Z" transform="translate(-156.85 -465.15)" style="fill:#fff"/><path d="M2236.58,1313.52c-3.47,9.63-14.11,12.12-28.38,10.44-18.84-8.2-100.19-39.72-99.28-61.08,1.35-31.62,15.64-32.63,5.55-71.65-8.1-31.34,67.07-89.61,79.06-102.27,22.54,42.77,23.16,44.79,16.82,71.42C2198.23,1211.13,2246.68,1285.51,2236.58,1313.52Z" transform="translate(-156.85 -465.15)" style="fill:#82b378"/><path d="M2026.23,1129.94c-15.23,24.62-43.42,66.45-61.46,70.7-8.9,2.1-27.83-5.31-48.79-15.89,15.29,3.94,30.15,3.83,44.58,2.44,15.64-1.51,20.19-20.69,44.91-49.45C2021.51,1119.09,2025.45,1123.78,2026.23,1129.94Z" transform="translate(-156.85 -465.15)" style="fill:#82b378"/><path d="M2415.8,1743.29a10,10,0,0,1-10-10V1285.94H2183.36v447.35a10,10,0,0,1-20,0v-475H2425.8v475A10,10,0,0,1,2415.8,1743.29Z" transform="translate(-156.85 -465.15)" style="fill:#ba7556"/><rect x="2040.15" y="776.24" width="279.8" height="25.88" style="fill:#e8b491"/><rect x="1364.95" y="776.24" width="675.2" height="25.88" style="fill:#ce8d6a"/><path d="M2102.28,1123.06v-54.68a14.11,14.11,0,0,0-14.11-14.11h-67a14.11,14.11,0,0,0-14.11,14.11H1898.62v50.45H1993a14.11,14.11,0,0,1,14.11,14.11h.73a11.54,11.54,0,0,1,11.43,13.14l-8.5,60.62H1847.29v34.69h253.48v-27a7.65,7.65,0,0,0-7.64-7.65h0l-2.38-61.78a11.53,11.53,0,0,1,5.1-10A14.27,14.27,0,0,0,2102.28,1123.06Z" transform="translate(-156.85 -465.15)" style="fill:#41828c"/><path d="M2078,1123.06v-54.68a14.11,14.11,0,0,0-14.11-14.11h-67a14.11,14.11,0,0,0-14.11,14.11H1874.32v50.45h94.37a14.11,14.11,0,0,1,14.11,14.11h.73a11.54,11.54,0,0,1,11.43,13.14l-8.5,60.62H1836.18a13.19,13.19,0,0,0-13.19,13.19v21.5h253.48v-27a7.65,7.65,0,0,0-7.65-7.65h0l-2.37-61.78a11.53,11.53,0,0,1,5.1-10A14.27,14.27,0,0,0,2078,1123.06Z" transform="translate(-156.85 -465.15)" style="fill:#7bb8c6"/><rect x="1717.62" y="704.12" height="2.33" style="fill:#9ed9f0"/><path d="M1873.41,1054.27h-34.19a16.24,16.24,0,0,0-16.23,16.24v46.19a16.24,16.24,0,0,0,16.23,16.24h7.91v31.83a9.49,9.49,0,0,0,7.33,9.24v27h4v-26.91a9.51,9.51,0,0,0,7.67-9.32v-31.83h7.28a16.24,16.24,0,0,0,16.24-16.24v-46.19A16.24,16.24,0,0,0,1873.41,1054.27Z" transform="translate(-156.85 -465.15)" style="fill:#7bb8c6"/><polygon points="1708.5 583.82 1705.19 583.82 1705.19 562.82 1708.32 562.82 1708.32 559.2 1699.47 559.2 1699.47 555.82 1698.45 555.82 1698.45 559.2 1690.44 559.2 1690.44 562.82 1693.94 562.82 1693.94 583.82 1690.63 583.82 1690.63 587.45 1698.45 587.45 1698.45 592.82 1699.47 592.82 1699.47 587.45 1708.5 587.45 1708.5 583.82" style="fill:#7bb8c6"/><path d="M2089.16,1047.89c-17.49,0-31.67,21.89-31.67,48.89s14.18,48.89,31.67,48.89,31.67-21.89,31.67-48.89S2106.65,1047.89,2089.16,1047.89Zm22.62,42.56h-10.34c-1.29-6-4.33-10.65-8.18-12.63v-16C2102.67,1064.47,2110.09,1075.92,2111.78,1090.45Zm-26.72-28.6v16c-3.85,2-6.89,6.68-8.18,12.63h-10.34C2068.23,1075.92,2075.65,1064.47,2085.06,1061.85Zm-18.52,41.26h10.34c1.29,6,4.33,10.64,8.18,12.63v16C2075.65,1129.09,2068.23,1117.64,2066.54,1103.11Zm26.72,28.59v-16c3.85-2,6.89-6.68,8.18-12.63h10.34C2110.09,1117.64,2102.67,1129.09,2093.26,1131.7Z" transform="translate(-156.85 -465.15)" style="fill:#1c468a"/><path d="M2094.1,1047.89c-17.49,0-31.67,21.89-31.67,48.89s14.18,48.89,31.67,48.89,31.67-21.89,31.67-48.89S2111.59,1047.89,2094.1,1047.89Zm22.63,42.56h-10.35c-1.28-6-4.32-10.65-8.17-12.63v-16C2107.62,1064.47,2115,1075.92,2116.73,1090.45Zm-26.73-28.6v16c-3.85,2-6.89,6.68-8.18,12.63h-10.34C2073.17,1075.92,2080.59,1064.47,2090,1061.85Zm-18.52,41.26h10.34c1.29,6,4.33,10.64,8.18,12.63v16C2080.59,1129.09,2073.17,1117.64,2071.48,1103.11Zm26.73,28.59v-16c3.85-2,6.89-6.68,8.17-12.63h10.35C2115,1117.64,2107.62,1129.09,2098.21,1131.7Z" transform="translate(-156.85 -465.15)" style="fill:#233862"/><path d="M2120,1124s-13.62-10.6-26.49-8.08-19.17,11.36-18.67,15.39,7.32,15.39,17.16,16.4,37.84-6,37.84-6Z" transform="translate(-156.85 -465.15)" style="fill:#e49963"/><path d="M2129,970.24s52.47,3.23,70.63,28.56c25.57,35.66,86.93,194.28,57.86,214.55-32.73,22.82-146.08-59.68-146.08-59.68s-3.87-18.08,1.51-26.82,70.64,14.45,74.68,10.41-41.8-57-41.8-69.16S2129,970.24,2129,970.24Z" transform="translate(-156.85 -465.15)" style="fill:#a8d29f"/><path d="M1930.46,1206.7s-55.33,5.49-52.66,34.69c0,0-27.34,3.88-25.34,25.88s34.68,205.33,10,281.33,152.66,120.72,152.66,194.69H1379.8s130-2.69,142-64-44.67-146.54-11.34-204.27-1.33-248.52,138-241.06c109.34-.67,181.59-44.92,220.09-30.92C1904.3,1197.27,1930.46,1206.7,1930.46,1206.7Z" transform="translate(-156.85 -465.15)" style="fill:#fc7972"/><path d="M1793.13,1395.27s-30.41,231.33,53.46,271.33-89.46,56.05-155.46,39.69c0,0,83.25,6.41,89-32.64S1753.8,1519.27,1793.13,1395.27Z" transform="translate(-156.85 -465.15)" style="fill:#c4453b"/><path d="M1612.46,1605.27s-50.66-68-19.33-154.67,6-176,38-179.33,4.67,140-16,181.33S1612.46,1605.27,1612.46,1605.27Z" transform="translate(-156.85 -465.15)" style="fill:#c4453b"/><path d="M1734,1339.27s-43.44,107.48-23.51,234.74C1710.53,1574,1672.07,1468.38,1734,1339.27Z" transform="translate(-156.85 -465.15)" style="fill:#c4453b"/><path d="M1866.3,1207a41.47,41.47,0,0,0-31.75,31.25S1830.25,1212.5,1866.3,1207Z" transform="translate(-156.85 -465.15)" style="fill:#c4453b"/><polygon points="1909.69 741.87 1908.95 728.95 1835.45 741.62 1909.69 741.87" style="fill:#41828c"/><path d="M1983.05,1071s-2.13,45.25,3.87,52C1986.92,1123,1974.55,1119.39,1983.05,1071Z" transform="translate(-156.85 -465.15)" style="fill:#41828c"/><path d="M1889.65,1075.64v38.25S1893.64,1091.44,1889.65,1075.64Z" transform="translate(-156.85 -465.15)" style="fill:#41828c"/><path d="M2520.06,1567s-26.79-31.25-1.65-51.09c0,0,18.35-11.12,33.32-10.22,0,0-21.21,35.57-14.35,39.11s20.78-41.34,20.78-41.34,41.78-4,55.22,2.41c0,0-35.72,29.23-28.19,31s46.09-27,46.09-27,38.89,6.62,36.81,30.34-15.47,31-21.36,30.41-40.33-13.78-41.08-9,20,20.59,34.5,21.33c0,0-27.41,30.23-45.63,21.51s-19.77-22.56-31.13-27.75-21-5.17-16.36.12,25.24,10.43,31.73,21.92,12.33,19.24-6.52,16.4-49.49-16.63-50.84-32.42Z" transform="translate(-156.85 -465.15)" style="fill:#82b378"/><path d="M2649,1540.91s-105.61-4.07-128.93,26.13c0,0-5.16,15.45-21,29.52l-2.48,6.74s18.3-19.3,24.85-20.46C2521.4,1582.84,2511.16,1545.42,2649,1540.91Z" transform="translate(-156.85 -465.15)" style="fill:#82b378"/><path d="M2499,1596.56s-22.67,16.76-24.24,46.72l4.11.36s7.24-31,20.32-43.08S2499,1596.56,2499,1596.56Z" transform="translate(-156.85 -465.15)" style="fill:#82b378"/><path d="M2426.41,1527.75s42.61-23.87,22.72-56.25c0,0-15.9-19.88-33-25,0,0,9.09,48.28,0,49.42s-6.25-54.54-6.25-54.54-44.88-21.58-62.49-19.88c0,0,27.84,47.15,18.75,46s-40.34-48.86-40.34-48.86-46-8.52-53.4,18.75,4.55,40.9,11.36,42.61,50.57,1.13,49.43,6.81-30.68,14.77-47.15,9.66c0,0,18.18,44.88,42,42.61s31.24-17,46-18.18,25.57,2.84,18.18,6.82-32.38,1.3-44.31,11.44-21.59,16.39.57,20.94,61.92,1.7,69.88-15.34Z" transform="translate(-156.85 -465.15)" style="fill:#a8d29f"/><path d="M2293.47,1445.94s119.3,38.63,132.94,81.81c0,0-.57,19.31,11.36,41.47v8.52s-12.5-29-19.31-33C2418.46,1544.79,2445.16,1507.29,2293.47,1445.94Z" transform="translate(-156.85 -465.15)" style="fill:#82b378"/><path d="M2437.77,1569.22s18.4,27.94,7.91,61.94l-4.73-1.27s4.59-37.46-5-56.3S2437.77,1569.22,2437.77,1569.22Z" transform="translate(-156.85 -465.15)" style="fill:#82b378"/><path d="M2494.19,1494.84s-56.16-31.45-30-74.14c0,0,21-26.21,43.43-33,0,0-12,63.66,0,65.15s8.24-71.89,8.24-71.89,59.16-28.46,82.38-26.21c0,0-36.7,62.16-24.72,60.66s53.17-64.4,53.17-64.4,60.66-11.24,70.4,24.71-6,53.92-15,56.16-66.65,1.5-65.15,9,40.44,19.47,62.15,12.73c0,0-24,59.16-55.41,56.17s-41.19-22.47-60.66-24-33.7,3.75-24,9,42.69,1.72,58.42,15.09,28.45,21.6-.75,27.59-81.63,2.25-92.11-20.22Z" transform="translate(-156.85 -465.15)" style="fill:#a8d29f"/><path d="M2669.43,1387s-157.26,50.93-175.24,107.84c0,0,.75,25.46-15,54.67v11.23s16.47-38.19,25.46-43.44C2504.68,1517.3,2469.48,1467.88,2669.43,1387Z" transform="translate(-156.85 -465.15)" style="fill:#82b378"/><path d="M2479.22,1549.51s-24.26,36.82-10.43,81.65l6.24-1.67s-6.06-49.38,6.63-74.21S2479.22,1549.51,2479.22,1549.51Z" transform="translate(-156.85 -465.15)" style="fill:#82b378"/><path d="M2492.3,1728.38a110,110,0,0,0,110-110h-220A110,110,0,0,0,2492.3,1728.38Z" transform="translate(-156.85 -465.15)" style="fill:#f1a34f"/><path d="M2519.37,1727.54a110.11,110.11,0,0,1-123.68-109.18H2423A110,110,0,0,0,2519.37,1727.54Z" transform="translate(-156.85 -465.15)" style="fill:#ffb973"/><path d="M2603.84,1734H2380.76a13.57,13.57,0,0,1,13.58-13.57h195.93a13.57,13.57,0,0,1,13.57,13.57Z" transform="translate(-156.85 -465.15)" style="fill:#f1a34f"/><rect x="2221.82" y="1153.21" width="226.15" height="3.37" style="fill:#d86713"/><rect y="1269.13" width="2686.3" height="9.59" rx="3.53" style="fill:#2e3552"/></svg>