<svg id="_ÎÓÈ_1" data-name="‘ÎÓÈ_1" xmlns="http://www.w3.org/2000/svg" viewBox="0 0 2992.87 1350.63"><title>backcard2</title><path d="M2087.63,698.46h0a5.65,5.65,0,0,1-5.65-5.64V448a5.65,5.65,0,0,1,5.65-5.65h0a5.65,5.65,0,0,1,5.64,5.65V692.82A5.65,5.65,0,0,1,2087.63,698.46Z" transform="translate(-80.73 -358.07)" style="fill:#94b0ed"/><rect y="1342.69" width="2992.87" height="7.94" rx="3.39" style="fill:#2e3552"/><path d="M1078.83,1350.87a14,14,0,0,1-7.85-2.4c-3.36-2.32-5.85-6.66-2.75-11.9,4.43-7.47,5.38-16.53,5.39-16.62l1.65.1a46.42,46.42,0,0,1-5.54,17.11c-2.29,3.86-1.42,7.71,2.32,10.29a11.52,11.52,0,0,0,11.78.83l1,1.1A12.06,12.06,0,0,1,1078.83,1350.87Z" transform="translate(-80.73 -358.07)" style="fill:#f99746"/><path d="M2289.46,774.45V1638.5a61.21,61.21,0,0,1-61.22,61.21H860c-32.32,0-58.92-24.09-62.12-55-.16-1.54-.25-3.1-.29-4.67,0-.54,0-1,0-1.58V1427.4c0-1.65.08-3.28.2-4.89A62.75,62.75,0,0,1,845.31,1401h839.08c39,0,71.22-28.3,76.53-65.1a75.43,75.43,0,0,0,.76-10.71V1128.09a70.46,70.46,0,0,0-4.17-23.94c-10-27.89-37.17-47.88-69-47.88H1389.84c-64.48,0-120.85,44.75-151.43,102.7a212.55,212.55,0,0,0-19.63,52.78,31.36,31.36,0,0,1-19.06,6.4H932.41c-28.63,0-51.86-22.77-51.86-50.85V776.88a80.34,80.34,0,0,1,1.18-13.78,85.65,85.65,0,0,1,69.41-35H2221.31a83.16,83.16,0,0,1,67.16,33.71A80.36,80.36,0,0,1,2289.46,774.45Z" transform="translate(-80.73 -358.07)" style="fill:#9db0f4;opacity:0.30000000000000004"/><path d="M2289.46,774.45V1638.5a61.21,61.21,0,0,1-61.22,61.21H858.82a61.23,61.23,0,0,1-60.92-55c-.16-1.54-.25-3.1-.29-4.67,0-.54,0-1,0-1.58V1427.4c0-1.65.08-3.28.2-4.89a61.21,61.21,0,0,1,61-56.34H1681.7a75.82,75.82,0,0,0,75.81-75.81V1093.29a71.82,71.82,0,0,0-71.81-71.83H1392.82c-75.42,0-139.54,63.71-162.92,137.51a206.55,206.55,0,0,0-7.51,32.56,31.23,31.23,0,0,1-11.74,20.22,30.33,30.33,0,0,1-18.69,6.4H929.81A50.85,50.85,0,0,1,879,1167.3V776.88a83.6,83.6,0,0,1,83.63-83.62H2208.27a81.15,81.15,0,0,1,81.19,81.19Z" transform="translate(-80.73 -358.07)" style="fill:#f8faff"/><rect x="988.25" y="859.49" width="29.01" height="102.45" style="fill:#2b478b"/><rect x="1017.26" y="884.1" width="33.98" height="18.23" style="fill:#2b478b"/><path d="M1128.51,1251.29a17.14,17.14,0,1,1,17.14,17.14A17.14,17.14,0,0,1,1128.51,1251.29Z" transform="translate(-80.73 -358.07)" style="fill:#2b478b"/><rect x="973.34" y="928.34" width="19.06" height="15.02" style="fill:#2b478b"/><rect x="1042.82" y="305.86" width="44.2" height="28.73" style="fill:#2b478b"/><path d="M2139.07,674.4H2041.3a16.73,16.73,0,0,1-16.72-17.7l1.59-27.42V629l1.08-18.49,3-51.52,1-16.23,2.27-39.38.84-14.39a16.74,16.74,0,0,1,16.7-15.78h76.68a16.55,16.55,0,0,1,7.55,1.8,16.83,16.83,0,0,1,9.16,13.8l.79,11.55,2.25,33.25.36,5.25,3.72,54.73,3,43.79,1.31,19.13A16.75,16.75,0,0,1,2139.07,674.4Z" transform="translate(-80.73 -358.07)" style="fill:#f99746"/><g style="opacity:0.30000000000000004"><polygon points="1066.3 788.51 1001.38 788.51 1001.38 334.59 1004.14 334.59 1004.14 785.75 1063.54 785.75 1063.54 334.08 1066.3 334.08 1066.3 788.51" style="fill:#9db0f4"/></g><path d="M2208.74,462.45h44.84A17.59,17.59,0,0,1,2271.17,480V689.3a17.59,17.59,0,0,1-17.59,17.59h-44.84a0,0,0,0,1,0,0V462.45A0,0,0,0,1,2208.74,462.45Z" style="fill:#ed7d2b"/><rect x="895.7" y="1002.62" width="206.65" height="4.88" style="fill:#9db0f4"/><polygon points="1002.76 502.57 982.87 479.36 982.87 334.59 1002.76 334.59 1002.76 502.57" style="fill:#2b478b"/><g style="opacity:0.30000000000000004"><rect x="1001.38" y="787.13" width="2.76" height="72.36" style="fill:#9db0f4"/></g><g style="opacity:0.30000000000000004"><rect x="716.86" y="1278.44" width="1491.88" height="2.76" style="fill:#9db0f4"/></g><path d="M1222.87,765.6a11.05,11.05,0,1,1,11.05,11A11,11,0,0,1,1222.87,765.6Z" transform="translate(-80.73 -358.07)" style="fill:#2b478b"/><path d="M1266.24,765.6a11,11,0,1,1,11,11A11.05,11.05,0,0,1,1266.24,765.6Z" transform="translate(-80.73 -358.07)" style="fill:#2b478b"/><path d="M1309.62,765.6a11.05,11.05,0,1,1,11.05,11A11,11,0,0,1,1309.62,765.6Z" transform="translate(-80.73 -358.07)" style="fill:#2b478b"/><rect x="1061.47" y="277.41" width="7.18" height="38.68" style="fill:#2b478b"/><polygon points="1003.87 1002.62 1003.19 1002.62 1000.93 961.94 1006.24 961.94 1003.87 1002.62" style="fill:#2b478b"/><polygon points="1012.21 1002.62 1011.53 1002.62 1009.27 961.94 1014.58 961.94 1012.21 1002.62" style="fill:#2b478b"/><path d="M1095.77,1360.7h-15.22a5.49,5.49,0,0,1-5.23-5.69,1.58,1.58,0,1,1,3.14,0,2.19,2.19,0,0,0,2.09,2.27h15.22a2.19,2.19,0,0,0,2.09-2.27,1.58,1.58,0,1,1,3.14,0A5.49,5.49,0,0,1,1095.77,1360.7Z" transform="translate(-80.73 -358.07)" style="fill:#35488b"/><path d="M2079,1396.53h-47.81a21.31,21.31,0,0,1-21.24-21.24h0a21.31,21.31,0,0,1,21.24-21.24H2079a21.31,21.31,0,0,1,21.24,21.24h0A21.31,21.31,0,0,1,2079,1396.53Z" transform="translate(-80.73 -358.07)" style="fill:#f99746"/><path d="M2175.44,1397.91H2030.7a22.13,22.13,0,0,1-22.11-22.1v-1a22.13,22.13,0,0,1,22.11-22.1h144.74a22.13,22.13,0,0,1,22.1,22.1v1A22.13,22.13,0,0,1,2175.44,1397.91Zm-144.74-42.48a19.37,19.37,0,0,0-19.35,19.34v1a19.37,19.37,0,0,0,19.35,19.34h144.74a19.37,19.37,0,0,0,19.34-19.34v-1a19.37,19.37,0,0,0-19.34-19.34Z" transform="translate(-80.73 -358.07)" style="fill:#ed7d2b"/><path d="M2028.77,1325h0a5.89,5.89,0,0,1-5.87-5.87v-19.32a5.89,5.89,0,0,1,5.87-5.87h0a5.88,5.88,0,0,1,5.86,5.87v19.32A5.88,5.88,0,0,1,2028.77,1325Z" transform="translate(-80.73 -358.07)" style="fill:#2b478b"/><path d="M2106.75,1325h0a5.88,5.88,0,0,1-5.86-5.87v-19.32a5.88,5.88,0,0,1,5.86-5.87h0a5.89,5.89,0,0,1,5.87,5.87v19.32A5.89,5.89,0,0,1,2106.75,1325Z" transform="translate(-80.73 -358.07)" style="fill:#2b478b"/><path d="M2184.74,1325h0a5.88,5.88,0,0,1-5.86-5.87v-19.32a5.88,5.88,0,0,1,5.86-5.87h0a5.89,5.89,0,0,1,5.87,5.87v19.32A5.89,5.89,0,0,1,2184.74,1325Z" transform="translate(-80.73 -358.07)" style="fill:#2b478b"/><path d="M2030.23,559s51.91,6,117.19-25.37l2,29.73s-31.19,38.6-122.19,47.16Z" transform="translate(-80.73 -358.07)" style="fill:#ed7d2b;opacity:0.30000000000000004"/><path d="M2154.47,637.4s-16.64,20.09-52,37H2041.3a16.73,16.73,0,0,1-16.72-17.7l1.59-27.42V629s60-4,125.32-35.41Z" transform="translate(-80.73 -358.07)" style="fill:#ed7d2b;opacity:0.5"/><path d="M2145.17,500.38c-11,10.15-44.51,35.07-114,42.4l2.27-39.38c23.36,1.25,61.84-2,101.77-28.37a16.83,16.83,0,0,1,9.16,13.8Z" transform="translate(-80.73 -358.07)" style="fill:#ed7d2b;opacity:0.5"/><path d="M1083.92,693.11l-.86-.89,58.87-57.35h.23c205.23-10.09,399.27-62.63,401.2-63.16l.33,1.19c-1.94.53-196,53.06-401.23,63.19Z" transform="translate(-80.73 -358.07)" style="fill:#f99746"/><path d="M1665.47,827.93a5.93,5.93,0,0,1,1.06,6.33l0,0c-1.53,4.22-6.57,8.93-12.42,13.63-.75.6-1.42,1.15-2,1.66l-.44.4-.35.31c-5.46,5-3.4,6.19-13.21,16.4-11.19,11.64-18.89,11.85-21.08,10.79-1.86-.9,1.91-7.07,6.08-14,.2-.34.4-.68.61-1,.56-.93,1.11-1.86,1.66-2.79,4.89-8.35,3.63-12.27,2.48-24.69-.95-10.1-15.71-56.42-15.71-56.42l21.43-3.69s6.46,36.88,13.57,42.56c3.8,3,8.06,3.07,11.72,5.31l.76.48A28.51,28.51,0,0,1,1665.47,827.93Z" transform="translate(-80.73 -358.07)" style="fill:#ffb27d"/><path d="M1665.47,827.93a5.93,5.93,0,0,1,1.06,6.33l0,0c-1.87,4.21-6.78,8.9-12.44,13.59-.74.61-1.4,1.17-2,1.7l-.44.4-.35.31c-5.46,5-3.4,6.19-13.21,16.4-11.19,11.64-18.89,11.85-21.08,10.79-1.86-.9,1.91-7.07,6.08-14A47.67,47.67,0,0,0,1643,848.78c6.74-8.6,11.23-19.64,15.82-26l.76.48A28.51,28.51,0,0,1,1665.47,827.93Z" transform="translate(-80.73 -358.07)" style="fill:#233862"/><path d="M1492.62,814.55c-1.32,6.61-10.75,5.51-21.29,2.93s-8,.49-23-1.17-19.54-7.25-20-9.48c-.41-2,7-2.68,15-3.59l3-.36c9-1.13,15.54-6.92,23.69-11.68,7.73-4.5,19.25-22.86,19.25-22.86l20.57,1.63s-10.8,16.4-15,23.52c-2.46,4.2-2.33,9.74-2,14A26.36,26.36,0,0,1,1492.62,814.55Z" transform="translate(-80.73 -358.07)" style="fill:#ffb27d"/><path d="M1471.33,817.48c-10.54-2.57-8,.49-23-1.17s-19.54-7.25-20-9.48c-.41-2,7-2.68,15-3.59l.07.15a42.24,42.24,0,0,0,21.48,6.67c10.18.25,21-2.66,28-2.55a26.36,26.36,0,0,1-.16,7C1491.3,821.16,1481.87,820.06,1471.33,817.48Z" transform="translate(-80.73 -358.07)" style="fill:#233862"/><path d="M1571.44,683l19.23,51.74,25.1,67.55a40.6,40.6,0,0,0,13.34-1.22c6-1.73,12.89-6.27,12.89-6.27s-7-72.54-20-114.17c-3.33-10.69-7.07-19.34-11.19-24.2C1590.69,632.64,1571.44,683,1571.44,683Z" transform="translate(-80.73 -358.07)" style="fill:#ed7d2b"/><path d="M1591,600.87c12.6-4.07,48.52,1.15,84.61,8.21l7.56-12.46,77.95-6.09s25.72,57.05,11.64,93.39c-2.07,5.34-6.18,8.77-13.19,8.88h-1.14l-61.46,0c-38.77,0-82-26.65-87.64-27.77-9.17-1.83-12.83,16.49-22,35.74S1501.19,786,1501.19,786s-11.83.11-16.72-1.72c-5.25-2-7.18-4.53-7.18-4.53S1562.58,610,1591,600.87Z" transform="translate(-80.73 -358.07)" style="fill:#f99746"/><path d="M1669.17,481.22c23.5,21.25,80.84,58.95,81.17,58.82,0,0,18.36,12.34,31.57,7.45,22-8.16,40.29-39.79,12.36-77.31-13.92-18.71-25.94-25.27-21.79-49,4.48-25.66-5.48-58.75-35.14-61.67-2.48-.25-17.43-3.05-28.35-.24C1681.15,366.48,1630,465.91,1669.17,481.22Z" transform="translate(-80.73 -358.07)" style="fill:#a9453d"/><path d="M1703.78,467.23c-.14,0,13,8.39,22.92,6.54,9.32-1.74,18.34-13.85,18.22-13.88-3.8-1.08-6.57-5.7-4.62-28.48l-1.78.2-29.81,3.4s-.09,9.29-.78,18C1707.35,460.3,1705.52,466.59,1703.78,467.23Z" transform="translate(-80.73 -358.07)" style="fill:#ffb27d"/><path d="M1708.71,435s-.09,9.29-.78,18c16.45.89,26.36-13.37,30.59-21.38Z" transform="translate(-80.73 -358.07)" style="fill:#ed975d"/><path d="M1702.56,442.8s38.78,3.82,40.79-20.37,8.37-40-16.31-43.45-30.26,5.36-32.89,13.27S1692.52,441.18,1702.56,442.8Z" transform="translate(-80.73 -358.07)" style="fill:#ffb27d"/><path d="M1706.71,375.16s4.89,29.55,27,36.56c16.12,5.12,23.42,1.75,23.42,1.75a65.73,65.73,0,0,1-10.52-24.59,11.82,11.82,0,0,0-7.88-9C1727.24,376.09,1713.37,365.79,1706.71,375.16Z" transform="translate(-80.73 -358.07)" style="fill:#a9453d"/><path d="M1714,381.46s-7.31,1.63-13.79,11.06c-3.54,5.16-7.64,18.15-6.94,23.9,0,0-6.78-27.35,3.11-37.52C1706.9,368.11,1714,381.46,1714,381.46Z" transform="translate(-80.73 -358.07)" style="fill:#a9453d"/><path d="M1774.44,547.29c-.69,2.94-1.28,5.64-1.76,8.14-.79,4-1.33,7.49-1.72,10.55-1.18,9.54-.82,15.19-1.63,21.37a52.47,52.47,0,0,1-2.9,11.64c-1.6,4.43-43.75,8.38-67.73,6.79-7.61-.49-13.41-1.57-15.47-3.34-8.55-7.43-7.7,8.91-8.88-69.28-.56-38.13,32.36-72.1,32.36-72.1s2.63,16.29,35.29-3.09c1.16-.68,14,18.36,26.4,41.81C1782,525.68,1778.29,531.16,1774.44,547.29Z" transform="translate(-80.73 -358.07)" style="fill:#aec3ff"/><path d="M1590.67,734.77l25.1,67.55a40.6,40.6,0,0,0,13.34-1.22c6-1.73,12.89-6.27,12.89-6.27s-7-72.54-20-114.17Z" transform="translate(-80.73 -358.07)" style="fill:#f99746"/><path d="M1706.71,461.06s-33.6,5.69-37.54,20.16S1638,576.6,1638,576.6s21.12,7.2,29-.69,27.46-73.21,27.46-73.21Z" transform="translate(-80.73 -358.07)" style="fill:#aec3ff"/><path d="M1569.74,558l-8-3.15s-4.79-1.07-7.37-.25-9.06.73-9.09,1.79,7.38,4.36,7.38,4.36l.23-.09c-2.81,6.37-16.89,10-17.57,12.35-.82,2.83,5.73,4.3,9.29,5.18s12.31.8,16.62-3.75c3.14-3.32,8.47-7.88,8.47-7.88Z" transform="translate(-80.73 -358.07)" style="fill:#ffb27d"/><path d="M1711.51,428.53a6.68,6.68,0,0,1-5.92,4c-4.3,0-5.46-.64-6.27-1.55a13.62,13.62,0,0,1-1.62-2.66A36.45,36.45,0,0,1,1711.51,428.53Z" transform="translate(-80.73 -358.07)" style="fill:#fff"/><path d="M1647.33,548.64,1566,554.85s-1.7,7.88,3.55,16.83c0,0,73.38,14.35,92.53,7s17-41.88,17-41.88Z" transform="translate(-80.73 -358.07)" style="fill:#aec3ff"/><path d="M1698,550.05l-5.4-6.64s-3.66-3.27-6.31-3.82-8.26-3.79-8.81-2.88,4.31,7.41,4.31,7.41l.25,0c-5.57,4.18-19.63.49-21.36,2.19-2.1,2.08,2.89,6.55,5.57,9.06s10.35,6.71,16.33,4.85c4.37-1.36,11.25-2.75,11.25-2.75Z" transform="translate(-80.73 -358.07)" style="fill:#ffb27d"/><path d="M1771,566c-1.18,9.54-.82,15.19-1.63,21.37-30.5.1-71.29-23.56-71.29-23.56Z" transform="translate(-80.73 -358.07)" style="fill:#94b0ed"/><path d="M1698,543.79s47.52-1.42,55.54-28.44c8.8-29.67,18.65,12.21,18.65,12.21L1767,554.29h-52.14Z" transform="translate(-80.73 -358.07)" style="fill:#94b0ed"/><path d="M1742,458s30.85,2,38.56,14,17.28,73.13,13.27,94.11-102.81-4-102.81-4l3.15-18.21s57,.33,60.27-7.09C1758.76,526.94,1742,458,1742,458Z" transform="translate(-80.73 -358.07)" style="fill:#aec3ff"/><path d="M1783.26,556.84c-37.91,0-75-2.81-104.71-10.6a.61.61,0,0,1-.44-.75.61.61,0,0,1,.75-.44c33.91,8.87,99.79,16.7,221.06,3.6,72.55-7.83,131.31-19.63,131.9-19.75a.61.61,0,0,1,.72.49.61.61,0,0,1-.48.72c-.58.12-59.4,11.93-132,19.77C1865.4,553.62,1823.84,556.84,1783.26,556.84Z" transform="translate(-80.73 -358.07)" style="fill:#f99746"/><path d="M1585.05,568.56a366.6,366.6,0,0,1-37.51-2,.62.62,0,0,1-.55-.68.61.61,0,0,1,.67-.55c76.42,7.89,118-10.31,118.38-10.5a.62.62,0,0,1,.51,1.13C1666.21,556.13,1637.82,568.56,1585.05,568.56Z" transform="translate(-80.73 -358.07)" style="fill:#f99746"/><circle cx="2105.34" cy="1083.29" r="112.28" transform="translate(-227.07 -6.85) rotate(-9.22)" style="fill:#2a4e96"/><path d="M2020.76,1085.06a84.59,84.59,0,1,1,84.58,84.58A84.59,84.59,0,0,1,2020.76,1085.06Z" transform="translate(-80.73 -358.07)" style="fill:#fff"/><circle cx="2087.21" cy="850.32" r="68.6" transform="translate(815.98 2405.93) rotate(-80.28)" style="fill:#2a4e96"/><path d="M2035.53,851.39a51.68,51.68,0,1,1,51.68,51.68A51.68,51.68,0,0,1,2035.53,851.39Z" transform="translate(-80.73 -358.07)" style="fill:#fff"/><path d="M1868,1060.26s40.3,11,61.17,5.85,61-27.26,61-27.26l6.32,11.06s-32.85,48.94-63.21,54.5S1868,1060.26,1868,1060.26Z" transform="translate(-80.73 -358.07)" style="fill:#ed7d2b"/><path d="M2055.87,1195.9s20.87,8.32,27.91,6.1,19.18-9,21.37-14.59-14.33,1.45-19.91,0-11.65-3.16-22.58,0S2055.87,1195.9,2055.87,1195.9Z" transform="translate(-80.73 -358.07)" style="fill:#ffb27d"/><path d="M1866.1,1676s1.58,25.39,6.29,31.36H1945c-.46-2.53-2.51-8.78-11.58-10.37-11.47-2-30.66-10-37.6-25.2C1888.46,1655.85,1866.1,1676,1866.1,1676Z" transform="translate(-80.73 -358.07)" style="fill:#163560"/><path d="M1737.34,1672.46s-4.79,31.61,1.43,32.18c.82.07,29.89,0,37.79,1.2,12.9,1.94,34.43.25,34.43.25a3.41,3.41,0,0,0,3.09-5.13c-1.51-2.55-4.38-5.27-9.86-6.32-11.43-2.2-30.47-10.6-37.15-25.87C1760.05,1652.71,1737.34,1672.46,1737.34,1672.46Z" transform="translate(-80.73 -358.07)" style="fill:#163560"/><path d="M1900.22,1338.06s-18.25,63.84-70.53,174.71-56.33,161.38-56.33,161.38l-36-1.69s3.39-132,28.09-187.91,29.73-209,29.73-209Z" transform="translate(-80.73 -358.07)" style="fill:#94b0ed"/><path d="M1929.51,1283.13s1.45,98.86-15.65,220.23-11.31,172.9-11.31,172.9l-41,1.37s-24.48-121.43-17.46-182.18S1810.6,1287,1810.6,1287Z" transform="translate(-80.73 -358.07)" style="fill:#aec3ff"/><path d="M1848.68,1051.79l19.32,14.32,27.92-5.88c-.38-2.55-2.23-13.1-3.9-22.66-.1-.57-.21-1.13-.3-1.68-1.44-8.14-2.68-15.12-2.68-15.12l-26.08-13-9.73-4.85c0,.17.76,9,.86,10.32C1855.91,1036.2,1848.68,1051.79,1848.68,1051.79Z" transform="translate(-80.73 -358.07)" style="fill:#ffb27d"/><path d="M1933.26,1286.39c1.77,17.64-139.39,38.52-139.93,8.93-.46-26,15-169.27,19.84-189.76,8.49-36.27,16.12-57,32.29-61.74,6-1.74,28,4,43.89,8.59a26,26,0,0,1,3.28,1.14,33.7,33.7,0,0,1,19.76,21.64c2.45,8.26,5.28,18.83,7.56,30.5a231.84,231.84,0,0,1,4.28,33.12q.21,3.53.22,7c.09,8.66.85,19.84,1.91,32.27.67,7.83,1.47,16.17,2.3,24.66.25,2.43.5,4.88.73,7.34.18,1.7,2.88,57.67,3.67,72.65,0,.22,0,.41,0,.6a.17.17,0,0,0,0,.07c0,.21,0,.43,0,.63C1933.21,1285.39,1933.25,1286.21,1933.26,1286.39Z" transform="translate(-80.73 -358.07)" style="fill:#f99746"/><path d="M1856.05,1013.65c5.72,11,27.07,20.43,36,23.92-.1-.57-.21-1.13-.3-1.68-1.44-8.14-2.68-15.12-2.68-15.12l-26.08-13C1857.19,1007.68,1853.68,1009.14,1856.05,1013.65Z" transform="translate(-80.73 -358.07)" style="fill:#fca56b"/><path d="M1901.71,1019.24s-47,14.68-55.74-14.76-20.61-47.38,9.06-58,38.85-1.11,44.14,8S1913.73,1014.66,1901.71,1019.24Z" transform="translate(-80.73 -358.07)" style="fill:#ffb27d"/><path d="M1897.33,951.66s-3,34.26-10.09,32.77-13.51-2.59-12.47,7.74,10.86,22.25-11,24.08-53.22-54.49-47.22-65.15C1833.87,920.34,1922.34,914.13,1897.33,951.66Z" transform="translate(-80.73 -358.07)" style="fill:#163560"/><path d="M1990.18,1038.85s8.71-17.08,15.58-22.29,24.86-3.48,25.52-2.09c2,4.29-14.71,10.53-16.71,14.38s6,3.65-.31,10.28c-5.29,5.61-17.76,10.78-17.76,10.78Z" transform="translate(-80.73 -358.07)" style="fill:#ffb27d"/><path d="M2007.6,1032.33c.11,0,5.68-.65,11.11-1.24,4-.43,7.91-2.21,9.55-2.29,3.87-.19,1.14,6-7.23,9-7.09,2.59-9.1,6.79-15.79,7.92C1997.15,1047.11,2007.6,1032.33,2007.6,1032.33Z" transform="translate(-80.73 -358.07)" style="fill:#ffb27d"/><path d="M1894,1044.57c-.61-.25-38-11.28-42-9.94s-6.47,9.19-6.47,9.19l57.7,16.44S1901.78,1047.86,1894,1044.57Z" transform="translate(-80.73 -358.07)" style="fill:#ed7d2b"/><path d="M2062.66,1187.41s6.68-5.65,12.5-6.92,10.93-6.56,10.93-4-4.37,8.74-4.37,10.93S2062.66,1187.41,2062.66,1187.41Z" transform="translate(-80.73 -358.07)" style="fill:#ffb27d"/><path d="M1926.36,1178.1c-30-11.38-52.7-55.58-52.7-55.58l50.57,16.29q.21,3.53.22,7C1924.54,1154.49,1925.3,1165.67,1926.36,1178.1Z" transform="translate(-80.73 -358.07)" style="fill:#ed7d2b"/><path d="M2063.59,1192.23l.06-.24a11.09,11.09,0,0,0-5.94-12.78c-18.83-9.08-67.62-32.6-73.06-35.52-5.75-3.08-62.86-58-79.94-74.47a11.08,11.08,0,0,0-11.16-2.56l-47.32,15.46a11.11,11.11,0,0,0-2.83,19.72c34.8,23.86,107.61,73.49,120.7,80.18,23.07,11.8,69.76,18,87,19.91a11.08,11.08,0,0,0,11.45-6.66A24,24,0,0,0,2063.59,1192.23Z" transform="translate(-80.73 -358.07)" style="fill:#f99746"/><path d="M601.82,1268s-57.72,5.46-88.69,95.9-21.94,259.08-44.83,276-146.3-26.27-156.18,1.49,0,31.05-27.15,17.88-73.22-17.7-63.35,4.32-51,7.25-49.37,37.26H483s147.1-15.25,142-81.07-57-219.24-25.77-277.27,72.09-88.16,72.09-88.16Z" transform="translate(-80.73 -358.07)" style="fill:#ed7d2b"/><path d="M558.31,1678.67l-13,4.86s-56.72-78.65-63.7-147.86c-1.25-12.35-.83-24.32,1.87-35.38,0,0-.56-3.16-1.53-8.76-.44-2.61-1-5.75-1.63-9.36-1.84-10.56-4.38-25-7.28-41.47-6.67-37.88-15.32-86.3-22-121.89l3.52-1.13,38.06-12.28,7.87-25,28.34-7.47s6.33,12.39,12,70.9c1,7.68,2,16.14,2.7,25.32a500.93,500.93,0,0,1-2.69,102.49q-1.95,15.25-5,31.46c-1.49,7.91-1.72,18.69-1.09,31.06C537.55,1590.75,558.31,1678.67,558.31,1678.67Z" transform="translate(-80.73 -358.07)" style="fill:#aec3ff"/><path d="M543.45,1369.17,481.9,1491.53c-.44-2.61-1-5.75-1.63-9.36-1.84-10.56-4.38-25-7.28-41.47-6.67-37.88-15.32-86.3-22-121.89l3.52-1.13,38.06-12.28,7.87-25,28.34-7.47s6.33,12.39,12,70.9C541.79,1351.53,542.74,1360,543.45,1369.17Z" transform="translate(-80.73 -358.07)" style="fill:#94b0ed"/><path d="M516.38,1288.66,515,1276.44c-23.87,6.34-87.65-17.72-87.65-17.72s-23.13,20.33-20.09,69.06c1.48,23.78,4.19,124.84,7,154.75,1,10.84,1.91,18.55,2.28,21.63v0a4.28,4.28,0,0,1-.7,2.65,139.68,139.68,0,0,0-10.43,22c-27.75,73.94,4.27,165,4.27,165l8.31-3.35s18.22-101.34,33-146.12c2.52-7.59,4.93-13.56,7.13-17.13,6.44-10.39,12.42-27.37,17.84-47.56,10.25-38.18,18.5-87.84,24-126.18C500.72,1353.5,516.38,1288.66,516.38,1288.66Z" transform="translate(-80.73 -358.07)" style="fill:#aec3ff"/><path d="M687.74,1248.05,686,1260s-.79,0-2.17-.09c-4.35-.3-14.92-.89-26.88-2.18-18-1.78-39.32-4.94-47.82-10.18-13-7.9-34.19-32.11-48-56.32a13.71,13.71,0,0,1-1-1.78c-7.22-12.84-12.25-25.59-12.65-35.76a51.12,51.12,0,0,1,1.68-16.21,41.31,41.31,0,0,1,7.31-14.62,7.11,7.11,0,0,1,1.39-1.68,34,34,0,0,1,9.38-8c2.37-1,4.94.2,7.61,3.07v.09a45.74,45.74,0,0,1,6.82,10.08c.1.1.2.2.2.3.49.89,1,1.88,1.58,3a2.73,2.73,0,0,1,.39.7q1.63,3.41,3.26,7.11c12.16,26.48,25.1,66.6,35.87,78.55,4.64,5.14,25.89,15.22,42.79,22.73C677.86,1244.1,687.74,1248.05,687.74,1248.05Z" transform="translate(-80.73 -358.07)" style="fill:#ffb27d"/><path d="M562,1140.45a74.25,74.25,0,0,1-27.49,6.44c-41,2.25-50.36-33.73-52.05-57.6a34.3,34.3,0,0,1,14.08-1.79c2.91.17,6,.46,8.45.77,5-2.62,14-15.36,19.25-36.67l1.77.82,29.61,13.93s-3.14,9.63-5.46,18.85c-1.82,7.22-3.12,14.19-2,16.14,2.34,1,3.73,1.55,3.73,1.55v0A203,203,0,0,1,562,1140.45Z" transform="translate(-80.73 -358.07)" style="fill:#ffb27d"/><path d="M572.24,1167.38c-.3.82-.65,1.62-1,2.44-10.39,22.39-29.63,115.11-29.63,115.11,2.74,16.68-125.3-3.27-125.63-18.45-4.51-16.09,16-42,27.57-54.93a37,37,0,0,0,3.88-5.22,36.43,36.43,0,0,0,5.24-15.31c2.27-21.52,1.41-41.68,1.6-54h0c2.26-1.67,4.45-3.22,6.48-4.69a57.28,57.28,0,0,0,7.89-6.54c2.23-2.35,3.63-4.75,3.78-7.45a39.7,39.7,0,0,0-.15-6.25c-.1-1-.23-2-.38-3a84.63,84.63,0,0,0-5.95-19.86c11-4.46,30.6-1.81,30.6-1.81s0,1.09,0,2.87c-.07,7.16,0,25.52,2.29,29,2.86,4.33,55.32,23.29,58.09,17.42s-4.74-32.85-5-33.87v0c17.57,6.89,23.85,12.68,23.85,12.68C565.1,1122.44,580.43,1145.66,572.24,1167.38Z" transform="translate(-80.73 -358.07)" style="fill:#f99746"/><path d="M536.91,974c-.06-1.78-1.44-21-30.65-22,0,0,14.36,1.71,16.85,8,0,0-9.78-7.8-17.75-5.29s-12.64,16.46-12.68,21,4.37,19.38,9.43,20.64a15.56,15.56,0,0,0,6.12,0,69.35,69.35,0,0,0-3.92,7c-11.66,23.92.36,47.3,10.23,44.71,6.32-1.65,8.11,9.14,8.11,9.14l61.47-49.76S561.55,960.8,536.91,974Z" transform="translate(-80.73 -358.07)" style="fill:#2c3a64"/><path d="M555.61,1066.35s-3.15,9.63-5.47,18.86c-17.31-4.83-22.57-23-24.15-32.78Z" transform="translate(-80.73 -358.07)" style="fill:#ed985f"/><path d="M559.25,1076.54s-41.41-9.58-35-35.28,5.31-44.24,32-39.21,29.4,16.11,29.36,25.2S570.19,1078.38,559.25,1076.54Z" transform="translate(-80.73 -358.07)" style="fill:#ffb27d"/><path d="M587.91,1012.67c-4.45-9.32-9.69-8.82-13-7.17-19.46-18-38.54-3.3-38.54-3.3a50.58,50.58,0,0,1-23.27,25s6.36,6.52,24.8,6.37c5.63,0,11.29-2.63,16.45-6.19a99,99,0,0,1-21.6,16.1c23.09-4.41,38.56-31.13,40.15-34,2,2.89,5.69,9,6,14.22.43,7.06-2,20.75,2,21.27C581,1045,594.59,1026.63,587.91,1012.67Z" transform="translate(-80.73 -358.07)" style="fill:#2c3a64"/><path d="M575.69,1115.57s10,17.39,11.46,21.87c0,0-12.93-.5-18.15,9.45C569,1146.89,567.75,1117.91,575.69,1115.57Z" transform="translate(-80.73 -358.07)" style="fill:#f99746"/><path d="M507.11,1253.78c-25.25-.27-46.63-26.49-59.7-47.45a36.43,36.43,0,0,0,5.24-15.31c2.27-21.52,1.41-41.68,1.6-54h0c2.26-1.67,4.45-3.22,6.48-4.69a57.28,57.28,0,0,0,7.89-6.54C489.3,1160.79,541.35,1254.14,507.11,1253.78Z" transform="translate(-80.73 -358.07)" style="fill:#ed7d2b"/><path d="M458,1700.59H392.21s-1.57-10,1.86-17.62c3.29-7.3,8.45-10.62,7.21-19.44,4.18,4.3,11,9.12,20.5,7.84,1.17,1.88,7.52,12,11.41,14.79C437.49,1689.25,456.65,1688.15,458,1700.59Z" transform="translate(-80.73 -358.07)" style="fill:#233862"/><path d="M599.17,1700.59H533.41S531,1690.1,535.27,1683c3.82-6.32,2.36-9.92-.47-15.14a25.42,25.42,0,0,0,11.07,2.08c3.28-.18,6.74-1.67,9.78-3.44,2.83,3.23,15,17,18.74,19.69C578.69,1689.25,597.85,1688.15,599.17,1700.59Z" transform="translate(-80.73 -358.07)" style="fill:#233862"/><path d="M607.91,1271.51l-2.64,10.2s-32.84-6.88-40-8.46h-.1c-12.35-3-26.19-6.53-37.85-10.48-8.2-2.86-15.31-5.93-20.15-9a11.93,11.93,0,0,1-1.39-1c-11.56-8.4-25.29-33.1-36-59.58-1.49-3.66-2.87-7.31-4.25-10.87a270,270,0,0,1-11.27-37.55,106.59,106.59,0,0,1-2.67-17.88,45.43,45.43,0,0,1-.09-5c.19-28.66,14.42-32.61,14.42-32.61a9.37,9.37,0,0,1,1-.29c2.47-.4,5,1.28,7.71,4.54,3.36,4,6.91,10.67,10.57,18.67,5.63,12.75,11.56,29.25,17.09,45.66,3.07,9,6,18,9,26.28,1.68,5,3.36,9.78,4.94,14.13,3.06,8.3,5.83,15,8.3,19.27,1.58,2.76,6.12,6.62,12.15,11C547.13,1236.09,607.91,1271.51,607.91,1271.51Z" transform="translate(-80.73 -358.07)" style="fill:#ffb27d"/><path d="M485.15,1112.23c-19-5.25-33.7,9.6-33.7,9.6.24-28.6,14.48-32.52,14.48-32.52C471.66,1086.94,478.3,1096.86,485.15,1112.23Z" transform="translate(-80.73 -358.07)" style="fill:#f99746"/><path d="M1235.2,1360.13c.56,1.58-234.72,120.92-234.72,120.92s27.14,13.27,65.21,4.45,184.11-92.83,184.11-92.83Z" transform="translate(-80.73 -358.07)" style="fill:#2a4e96"/><path d="M998.46,1360.7s-78.05,125.71-286.37-104.12a29.67,29.67,0,0,0-29.23-8.88l-81,20.25s7-.56,10.74,3.28a20.85,20.85,0,0,1,4.25,7.51c16.73,46.65,79.31,202.93,180.77,246.13,119.71,51,246.62,21.53,341.54-164.17Z" transform="translate(-80.73 -358.07)" style="fill:#f99746"/><path d="M1531.79,1411.26c-.19.34-.39.68-.58,1-4.62,8-15.21,27.68-26.87,49.19-5.52,10.21-11.29,20.83-16.77,30.83-9.45,17.25-18,32.62-23,40.74s-8.84,14-10.36,16.37v0a3.81,3.81,0,0,0-.5,2.39,125.93,125.93,0,0,1-.33,21.64c-7,70-54.23,107.49-54.23,107.49l-14,2.07s19.86-73.57,25.71-115.15c1-7.05,1.42-12.77,1.07-16.49-1-10.84.89-26.75,4.53-45,6.48-32.46,18.36-72.3,28.69-104.19.66-2,20.39-73.42,20.39-73.42,16.56,14.48,77,20.45,77,20.45S1552.67,1374.13,1531.79,1411.26Z" transform="translate(-80.73 -358.07)" style="fill:#f99746"/><path d="M1355.61,1700.79h58.56s1.41-8.93-1.65-15.7c-2.93-6.5-7.11-6.7-.54-16.89-3.72,3.83-15.68,5.42-24.15,4.28-1,1.68-6.68,13-10.15,15.45C1373.85,1690.68,1356.79,1689.7,1355.61,1700.79Z" transform="translate(-80.73 -358.07)" style="fill:#233862"/><path d="M1531.79,1411.26c-.19.34-.39.68-.58,1-4.62,8-29.58,54.13-41.25,75.64,13.52-55.6,4.12-111.2,4.12-111.2Z" transform="translate(-80.73 -358.07)" style="fill:#ed7d2b"/><path d="M1305.75,1136.63s-2.32-25.27,25.91-25.27c0,0-8.55,2.32-13,7,0,0,18-10.57,37.61,5.67s7.42,57,13.38,64.72,29.16,9.29,26.33,34.3-73.66,56.34-69.11,77c0,0-27.75-40.79-7.91-59.41,0,0-9.67,9.11-10.65,19.94,0,0-2.63-21.14,10.83-27.91,11.9-6,21.66-27.87,20.62-31.78S1305.75,1136.63,1305.75,1136.63Z" transform="translate(-80.73 -358.07)" style="fill:#2c3a64"/><path d="M1345.6,1242.74s-40.17,101.37-48.83,97.61-59.67-20-59.67-20l-3.36,12.42s48.55,37.41,73.53,39,58.82-72,58.82-72Z" transform="translate(-80.73 -358.07)" style="fill:#ffb27d"/><path d="M1266.6,1432.79a50.55,50.55,0,1,1-20.44,68.51A50.62,50.62,0,0,1,1266.6,1432.79Zm38.72,71.66a30.89,30.89,0,1,0-41.86-12.49A30.93,30.93,0,0,0,1305.32,1504.45Z" transform="translate(-80.73 -358.07)" style="fill:#2a4e96"/><path d="M1224.78,1340.84a50.56,50.56,0,1,1,37.33,61A50.62,50.62,0,0,1,1224.78,1340.84Zm19.12,4.6a30.89,30.89,0,1,0,37.26-22.81A30.91,30.91,0,0,0,1243.9,1345.44Z" transform="translate(-80.73 -358.07)" style="fill:#2a4e96"/><path d="M1313.73,1133.07c-.38-1.53,33.45,15.3,35.17,17.2,15.87,17.6,11.34,40.57,2.26,40.79-5.82.14-4.69,9.82-4.69,9.82l-64.87-27.44S1289.41,1127.89,1313.73,1133.07Z" transform="translate(-80.73 -358.07)" style="fill:#2c3a64"/><path d="M1335.53,1244.85s-8.64,9-8.64,35.72c0,0,11.91,18.79,42.78,23.55C1369.67,1304.12,1343.13,1244.84,1335.53,1244.85Z" transform="translate(-80.73 -358.07)" style="fill:#aec3ff"/><path d="M1486.13,1353.58l-.2-10.95c21.82,2.75,75.25-26.08,75.25-26.08s22.83,15.19,26,58.55c1.52,21.17,11.17,110.69,12.24,137.42.39,9.68.52,16.6.56,19.36v0a3.76,3.76,0,0,0,.93,2.25,125.19,125.19,0,0,1,11.82,18.13c33.3,62,15.89,146.14,15.89,146.14l-7.73-2s-28.16-87.28-46.56-125c-3.13-6.4-6-11.38-8.34-14.26-6.92-8.41-14.22-22.68-21.41-39.86C1531,1484.85,1486.13,1353.58,1486.13,1353.58Z" transform="translate(-80.73 -358.07)" style="fill:#f99746"/><path d="M1582,1700.79h58.56s1.41-8.93-1.65-15.7c-2.93-6.5-7.53-9.45-6.43-17.31-3.72,3.83-9.78,8.12-18.25,7-1,1.68-6.7,10.68-10.16,13.17C1600.25,1690.68,1583.19,1689.7,1582,1700.79Z" transform="translate(-80.73 -358.07)" style="fill:#233862"/><path d="M1373.62,1316.7c7.87,1.34-1.28,7.59,9.54,8.77,15.39,1.68,31.29,2.83,39.62,6.15,3,1.21,5.07,2.71,5.71,4.62,3.61,10.86,19.52,27.61,19.52,27.61,102-4.64,113.17-47.3,113.17-47.3-66.18-64.28-127-102.18-173.51-107.2-8-.86-18,4.19-25.17,7.37-16.27,7.25-27,28.13-27,28.13S1343.73,1311.6,1373.62,1316.7Z" transform="translate(-80.73 -358.07)" style="fill:#aec3ff"/><path d="M1383.16,1325.47c15.39,1.68,31.29,2.83,39.62,6.15,3.41-50.86-20.59-89.12-20.59-89.12S1386.53,1306.22,1383.16,1325.47Z" transform="translate(-80.73 -358.07)" style="fill:#94b0ed"/><path d="M1369.87,1233.89s38.73-2.11,45.61,22.2-12.91,121.36-17.18,131.38c-7.76,18.23-45.56,70.28-45.56,70.28l-13.91-4.23s25.21-79.51,30.84-87.38C1378.5,1353.79,1358.28,1244.47,1369.87,1233.89Z" transform="translate(-80.73 -358.07)" style="fill:#ffb27d"/><path d="M1338.83,1453.52s-.71,6.16-3.32,9.35-10.18,10.88-10.31,15.39c0,0,.38,2,2,1.63s7.27-6,10.17-5.55c0,0-1.54,9-3.08,11.58s-.31,13.34.61,15.53,12.22-11.79,16.86-18,.08-31.6.08-31.6Z" transform="translate(-80.73 -358.07)" style="fill:#ffb27d"/><path d="M1423.11,1288.61c-.1.56-36.64,6.72-59.5-4.88,0,0-19.1-59.83,8.19-57s43.45,11.45,44.14,24.52S1423.11,1288.61,1423.11,1288.61Z" transform="translate(-80.73 -358.07)" style="fill:#aec3ff"/><path d="M1239.44,1315.73s-10-2.08-13.75,3.17-1.23,21,5.56,20.36,7.43-10.49,8.19-14.19S1239.44,1315.73,1239.44,1315.73Z" transform="translate(-80.73 -358.07)" style="fill:#ffb27d"/><path d="M1362.5,1216.72s-10.76,40.18-27,28.13c.46-1.94-2.37-7.58-5.7-13.3-4.26-7.32-9.33-14.8-9.33-14.8l21.92-19.2,1.31-1.15C1350.44,1208.12,1357,1212.72,1362.5,1216.72Z" transform="translate(-80.73 -358.07)" style="fill:#ffb27d"/><path d="M1320.5,1216.76s5.07,7.46,9.33,14.79c13.62-8.4,13.64-25.27,12.59-34Z" transform="translate(-80.73 -358.07)" style="fill:#ed985f"/><path d="M1319.9,1226.38s33.07-18.41,21.29-38.83-15.44-36.55-37.06-25.67-21.19,21-18.91,28.81S1311,1230.64,1319.9,1226.38Z" transform="translate(-80.73 -358.07)" style="fill:#ffb27d"/><path d="M1279.63,1178.77c1.51-9.06,6.12-9.93,9.33-9.32,12.22-20.21,32.18-12.32,32.18-12.32a45.08,45.08,0,0,0,26.07,15.66s-3.84,7.14-19.66,11.56c-4.83,1.35-10.31.53-15.6-1.25a88.39,88.39,0,0,0,22.45,8.47c-20.84,1.9-40.67-17.15-42.73-19.19-1,2.95-2.65,9.13-1.64,13.65,1.37,6.15,6.83,17.27,3.5,18.71C1293.53,1204.74,1277.36,1192.37,1279.63,1178.77Z" transform="translate(-80.73 -358.07)" style="fill:#2c3a64"/><path d="M1250.45,1473.6c.14-1.67-257.88-56.67-257.88-56.67s22.82-19.79,61.88-21,201.76,42.5,201.76,42.5Z" transform="translate(-80.73 -358.07)" style="fill:#2a4e96"/><path d="M1147,1421.94a5.65,5.65,0,1,1-5.57,5.71A5.64,5.64,0,0,1,1147,1421.94Z" transform="translate(-80.73 -358.07)" style="fill:#f99746"/><path d="M601.57,1267.8s16.72,6.52,20,9,9.46,10.83,10.57,15.2c0,0-.05,1.79-1.72,1.79s-5.41-6.41-8.15-5.38c0,0,3.48,8.48,5.53,10.62s3.22,13,2.81,15.29-14.5-8.83-20.4-13.91c-3.14-2.71-3-9.27-4-16.69-.86-6.5-18.81-10.27-18.81-10.27Z" transform="translate(-80.73 -358.07)" style="fill:#ffb27d"/><path d="M2696.4,1117.27a283,283,0,0,1-21.72,23.36c-14.45,13.89-33.85,29.38-50.87,32.27a27.27,27.27,0,0,1-13.1-.65c-8.52-2.74-17.21-8.47-25.42-15.48-23.39-20-42.81-50.12-42.81-50.12l12.16-13.78s27.22,20.21,44.25,31.07c6.77,4.29,11.94,7.12,13.14,6.6,4.23-1.81,77.45-51.18,77.45-51.18Z" transform="translate(-80.73 -358.07)" style="fill:#ffb27d"/><path d="M2696.4,1117.27a283,283,0,0,1-21.72,23.36c-18.95,13.32-39,26-50.87,32.27-5,2.65-8.55,4.15-9.93,4.07-9-.53-28.3-12.7-28.3-12.7a43.24,43.24,0,0,1-.29-7.5c.87-18.51,13.2-32.39,13.6-32.83,6.77,4.29,11.94,7.12,13.14,6.6,4.23-1.81,77.45-51.18,77.45-51.18Z" transform="translate(-80.73 -358.07)" style="fill:#94b0ed"/><path d="M2566.32,1294.58c2.5,15.33,4.21,26.48,4.21,26.48-18.81,8.2-40.33,11.56-61.31,12.22-7,.23-13.95.15-20.72-.16-10.55-.46-20.67-1.47-29.9-2.71a348.87,348.87,0,0,1-46.59-9.35c0-28.4,7.57-51.41,16.2-70.4,9.73-21.44,20.8-37.78,23.83-51.05,3.81-16.62-4.29-55.36-10.15-79.53-3-12.25-5.37-20.74-5.37-20.74-20.43-30-10.62-47.53-10.62-47.53s9.52-4,21.43-7.6l.18-.06c4.09-1.24,8.44-2.44,12.79-3.43a102,102,0,0,1,13.2-2.19c11.64-1,12.25-27.44,12.25-27.44s4.74-2.11,16.12-1.78a85.91,85.91,0,0,1,14.12,1.78s0,20.9,9.78,25.25c5,2.24,14.6,6.33,24,10.3h0l.94.39,3.09,1.31,4,1.69,1.93.82,3.1,1.31,12.08,5.08c4.36,11.29-10.9,36.64-10.9,36.64a26,26,0,0,1,1.06,5.7c0,.31,0,.63.08,1,.54,8.24-1,19.58-3.39,31.94-4.16,21.81-10.74,46.81-12.3,63.63-.55,5.9-.48,10.8.53,14.19a3.33,3.33,0,0,0,.13.45c.65,2,1.37,4.59,2.14,7.77C2556.53,1236.19,2562.4,1270.52,2566.32,1294.58Z" transform="translate(-80.73 -358.07)" style="fill:#aec3ff"/><path d="M2585.77,1695.72l-72.33-47a17.19,17.19,0,0,1-7.82-14.61L2510,1270c0-3.16-7.23-6.41-10.39-6.41s-12.58,1.34-12.58,4.5l8.43,368.42a11.88,11.88,0,0,1-5.4,10.23l-75.4,49a2.54,2.54,0,0,0,1.38,4.67h0l76.94-33.74a18.06,18.06,0,0,1,14.48,0l76.94,33.74A2.54,2.54,0,0,0,2585.77,1695.72Z" transform="translate(-80.73 -358.07)" style="fill:#aec3ff"/><path d="M2742.09,1066.09s-20.4,24.21-46.38,14.08c0,0-5.59-13.52-5.67-23.48,0-1.23,0-2.42,0-3.55-.14-11.22-.52-17.51-.52-17.51h0c1.18-.49,39.71-16.31,39.68-15C2728.53,1051,2742.09,1066.09,2742.09,1066.09Z" transform="translate(-80.73 -358.07)" style="fill:#ffb27d"/><path d="M2725.32,1027.86c-3.71,6.89-16.46,20.36-35.32,25.28-.14-11.22-.52-17.51-.52-17.51h0C2690.57,1035.33,2726.43,1025.83,2725.32,1027.86Z" transform="translate(-80.73 -358.07)" style="fill:#ed975d"/><path d="M2566.32,1294.58a244,244,0,0,1-56.63-.28,173.43,173.43,0,0,1-22.18-4.31c-22.93-6.11-45.13-17.81-59.3-39.33,9.72-21.44,20.8-37.79,23.84-51.05,3.79-16.62-4.3-55.36-10.16-79.53l5.44-75.87h0l.18,0,12.79-3.43s-4.34,48.55,64.43,51.4c21.65.9,33.81,3.86,40.32,7.47,2.48,27.62-21,93-15,111.16C2554.35,1223.48,2561.7,1266.19,2566.32,1294.58Z" transform="translate(-80.73 -358.07)" style="fill:#ff9843"/><path d="M2681.41,1034.46s43.34,10.19,49.27-16.9,15.51-44-11.91-51.66-35.07,1.51-39.25,10.06S2670.29,1031.11,2681.41,1034.46Z" transform="translate(-80.73 -358.07)" style="fill:#ffb27d"/><path d="M2729.19,1024.94c.6.38,9.92,3.25,27.58-31.93,2.77-5.53,4.66-17.47-1.8-28s-29.38-18.85-48.41-22.47-23.61,7.1-28.09,17.87c-4.71,11.3-18.3,20.6-18.3,20.6,16.42,9.18,36.19-3.94,43-1.78s9.27,12.95,9.78,16.41,1.3,6.33,9.92,3.24,3.89,12.21,2.51,15.14C2725.42,1014,2724.25,1021.78,2729.19,1024.94Z" transform="translate(-80.73 -358.07)" style="fill:#a9453d"/><path d="M2840.83,1700.39h26.24c5.5,0,11.61-5.51,13.14-15.59s12.84-15.59,15.29-23.85-10.09-19.87-10.09-19.87l-2.1-2.7-2.18-2.8-20.78,4.88s-.52,5-.84,11.26c-.22,4.55-.34,9.81-.08,14.43.61,11-3.09,22.86-12.86,25S2840.83,1700.39,2840.83,1700.39Z" transform="translate(-80.73 -358.07)" style="fill:#2c3a64"/><path d="M2658.15,1700.39h69.56a6.46,6.46,0,0,0,1.48-.43c4.64-2.33,3.19-20.1,2.63-25.6-.11-1-.18-1.61-.18-1.61s-24.46-19.56-27.83-4.58c-.11.46-.23.92-.36,1.37h0c-4.24,14-23.23,20.38-34.19,22.16C2660.88,1693.07,2658.71,1698,2658.15,1700.39Z" transform="translate(-80.73 -358.07)" style="fill:#2c3a64"/><path d="M2672.17,1299.28s3.72,46.34,8.08,102c5.94,75.67,13.07,168.63,13.78,186.24,1.22,30.58,6.12,79.49,6.12,79.49s11.61,11.62,34.85,6.73c0,0,20.71-69.83,26.62-143.71.1-1.21.19-2.43.28-3.65,5.5-75.21,14.06-233.58,14.06-233.58Z" transform="translate(-80.73 -358.07)" style="fill:#ff9843"/><path d="M2672.17,1299.28s3.72,46.34,8.08,102l81.37,128.75c.1-1.21.19-2.43.28-3.65,5.5-75.21,14.06-233.58,14.06-233.58Z" transform="translate(-80.73 -358.07)" style="fill:#ed7d2b"/><path d="M2689.14,1304.78s67,167.84,111,246.72,57.78,100.89,57.78,100.89,25.22-10.09,27.51-17c0,0-16.83-152.28-46.32-189.4-16.65-21-36.22-83.92-37.14-105.93s-6-65.58-6-65.58Z" transform="translate(-80.73 -358.07)" style="fill:#ff9843"/><path d="M2793.83,1303.29c-18.33,10.83-35.63,18.86-55.72,23.11-23.8,5.17-52.88,3-62.63,4.18a4.09,4.09,0,0,1-2.85-.72c-.71-.45-4.55-29.82-8.2-67-.16-1.43-.34-3-.37-4.44l-.06-.52q-.6-5.81-1.15-11.78c-.49-5.58-1-11.24-1.4-16.94q-.51-6.65-1-13.31c-.06-1-.13-2-.2-2.91-1.13-16.39-2-32.53-2.22-46.88,0-2.38-.06-4.7-.07-7v-.31c-.06-9.49.2-18,.82-25,.16-1.79.34-3.48.56-5.07,2.85-21.54,13.27-36.7,23.06-48.08l9.52-11.9c9.19.8,17.21,2.16,26.18-3.59,9.72-6.23,14-14.64,16-13.54,15,8.81,33.3,33,41.46,62.38a332.84,332.84,0,0,1,9.7,52.39q1.18,10.79,1.8,21.93c2.13,39.8,8.37,73.8,12,93.57,1,5.68,1.86,10.21,2.3,13.34C2801.81,1298,2796.26,1301.85,2793.83,1303.29Z" transform="translate(-80.73 -358.07)" style="fill:#aec3ff"/><path d="M2724.71,1117.27s-8.46,72-63.26,111.93q-.51-6.65-1-13.31c-.06-1-.13-2-.2-2.91-1.13-16.39-2-32.53-2.22-46.88,0-2.38-.06-4.7-.07-7v-.31c.05-8.47.31-16.14.82-22.68C2675.57,1125.84,2697.32,1118.65,2724.71,1117.27Z" transform="translate(-80.73 -358.07)" style="fill:#94b0ed"/><path d="M2549.74,1046.64s-1.53,98-59.15,133.74-16.69,246.69-33.45,324.49,150.4,14.33,158.86-73.48-73-223.13-72.29-239.92,21.28-124.11,19.1-139.3Z" transform="translate(-80.73 -358.07)" style="fill:#ed7d2b"/><path d="M2652.15,1202.4c-7.57,4.65-13.59,8-16.94,9.23-9.21,3.36-24,5.19-40.08,6.11-35.15,2-76-.24-76-.24-6.17,4.44-17,3.67-26.21-1.5s-7.17-2.93-13.76-6.46c-3.29-1.76-3-4.25-1.83-6.31a9.28,9.28,0,0,1,5.84-4.4c12.26-3.18,17.58-2.25,22.87-.65-1.13-1.59-1.69-3.16-1.43-4.12.36-1.33,9.28,4,13.22,6.39,13.23,1.88,44.4-7.34,67.65-15.2,14-4.72,25.14-9,27.76-10,2.13-.83,8.87-7.63,17.23-16.7C2635.54,1173.7,2642.68,1190.24,2652.15,1202.4Z" transform="translate(-80.73 -358.07)" style="fill:#ffb27d"/><path d="M2730.92,1149.22c-27.46,19.37-78.54,55.63-91.87,63-8.58,4.76-19.7,14-36,17.68-23.28-15.83-17.63-44.67-17.63-44.67,14-4.72,25.14-9,27.76-10,7-2.7,63.81-69.94,63.81-69.94s21.65-27.82,41.13-23.24c16.93,4,24.26,16.53,27.26,28.73A36.39,36.39,0,0,1,2730.92,1149.22Z" transform="translate(-80.73 -358.07)" style="fill:#aec3ff"/><path d="M2214.88,1702.28h-97.77a16.73,16.73,0,0,1-16.72-17.69l1.59-27.43,0-.26,1.07-18.48,3-51.53.95-16.23,2.27-39.38.84-14.39a16.73,16.73,0,0,1,16.7-15.77h76.68a16.55,16.55,0,0,1,7.55,1.8,16.79,16.79,0,0,1,9.16,13.8l.79,11.55,2.26,33.25.35,5.24,3.72,54.74,3,43.78,1.31,19.13A16.74,16.74,0,0,1,2214.88,1702.28Z" transform="translate(-80.73 -358.07)" style="fill:#94b0ed"/><path d="M2106.05,1586.89s51.9,6,117.18-25.37l2,29.74s-31.18,38.59-122.18,47.16Z" transform="translate(-80.73 -358.07)" style="fill:#aec3ff;opacity:0.5"/><path d="M2230.28,1665.28s-16.63,20.1-52,37h-61.19a16.73,16.73,0,0,1-16.72-17.69l1.59-27.43,0-.26s60-4,125.31-35.4Z" transform="translate(-80.73 -358.07)" style="fill:#aec3ff;opacity:0.5"/><path d="M2221,1528.27c-11,10.15-44.5,35.06-114,42.39l2.27-39.38c23.37,1.26,61.85-2,101.77-28.36a16.79,16.79,0,0,1,9.16,13.8Z" transform="translate(-80.73 -358.07)" style="fill:#aec3ff;opacity:0.5"/></svg>