<svg id="Layer_1" data-name="Layer 1" xmlns="http://www.w3.org/2000/svg" xmlns:xlink="http://www.w3.org/1999/xlink" viewBox="0 0 146.15 81.96"><defs><clipPath id="clip-path" transform="translate(-0.47 0)"><path d="M102.92,38.11c-.23.14-.5-.09-.86-.32A13.19,13.19,0,0,1,99.75,36a10,10,0,0,1-2.31-3.85,10.82,10.82,0,0,1,.28-6.47,13.89,13.89,0,0,1,3.57-5.15,14.26,14.26,0,0,1,8-4,53.56,53.56,0,0,0,6.43-1.07c3.75-1,7.41-2.94,9-6.66.67-1.62.83-3.47,1.59-5.07A6.09,6.09,0,0,1,130.58.3a5,5,0,0,1,2.9.1,6.58,6.58,0,0,1,2.69,1.81c-.68.8-1.34,1.68-2,2.54a4.12,4.12,0,0,0-2.9-1.5,3.71,3.71,0,0,0-3.34,1.65,8.49,8.49,0,0,0-1,3.73,9.3,9.3,0,0,1-2.35,4.65,12.66,12.66,0,0,1-2.71,2,23.5,23.5,0,0,1-6.71,2.45,40,40,0,0,0-10.31,3.38A8.75,8.75,0,0,0,101,24.23a8.25,8.25,0,0,0-.63,6.16,8.55,8.55,0,0,0,2.23,4.16c.5.47,1.32.64,1.17,1.35a7.89,7.89,0,0,1-.64,1.94A.56.56,0,0,1,102.92,38.11Z" style="fill:none"/></clipPath></defs><title>background-concentrese</title><path d="M113.25,80.6c-.25-.86-1.25-1.18-1.91-1.65a6.43,6.43,0,0,1-2-2.39,12.41,12.41,0,0,1-.75-3.17c-.2-1.24-.22-8.4-.28-11.59-.1-5.06.92-13.84,0-13.83a7.86,7.86,0,0,0-1.93.19,1.31,1.31,0,0,0-.67.32,1.46,1.46,0,0,0-.27,1c0,1.18.15,2.36.16,3.54,0,6.18.23,12.36.27,18.55a8.65,8.65,0,0,1-4.22,7.94c-.52.3-1.59.9-1.23,1.65s1.47.54,2,.59a48.12,48.12,0,0,0,6,.19C109.28,81.94,113.65,82,113.25,80.6Z" transform="translate(-0.47 0)" style="fill:#db900b"/><path d="M102.92,38.11c-.23.14-.5-.09-.86-.32A13.19,13.19,0,0,1,99.75,36a10,10,0,0,1-2.31-3.85,10.82,10.82,0,0,1,.28-6.47,13.89,13.89,0,0,1,3.57-5.15,14.26,14.26,0,0,1,8-4,53.56,53.56,0,0,0,6.43-1.07c3.75-1,7.41-2.94,9-6.66.67-1.62.83-3.47,1.59-5.07A6.09,6.09,0,0,1,130.58.3a5,5,0,0,1,2.9.1,6.58,6.58,0,0,1,2.69,1.81c-.68.8-1.34,1.68-2,2.54a4.12,4.12,0,0,0-2.9-1.5,3.71,3.71,0,0,0-3.34,1.65,8.49,8.49,0,0,0-1,3.73,9.3,9.3,0,0,1-2.35,4.65,12.66,12.66,0,0,1-2.71,2,23.5,23.5,0,0,1-6.71,2.45,40,40,0,0,0-10.31,3.38A8.75,8.75,0,0,0,101,24.23a8.25,8.25,0,0,0-.63,6.16,8.55,8.55,0,0,0,2.23,4.16c.5.47,1.32.64,1.17,1.35a7.89,7.89,0,0,1-.64,1.94A.56.56,0,0,1,102.92,38.11Z" transform="translate(-0.47 0)" style="fill:#f9ad15"/><path d="M114.64,48.16a6,6,0,0,0,1.64-4,40.71,40.71,0,0,0-.12-4.42,26.21,26.21,0,0,0-1.35-6.31,12.57,12.57,0,0,1-.46-6.32A16.48,16.48,0,0,1,116,23.45a9.91,9.91,0,0,0,1.34-3.78,3.85,3.85,0,0,0-1.47-3.56c-1.34-.89-2.9-.72-4-1.9-.67-.71-.31-1.77,0-2.7.39-1.18,1.34-2.23,1.57-3.45.43-2.4-.33-3.4-2-4.06a3.75,3.75,0,0,0-4.54,1.77,6.34,6.34,0,0,0-.22,4.08c.24,1.36.88,3.53-.24,4.71S104,16,102.89,16.91a5.31,5.31,0,0,0-1.62,2.59c-.37,1.45.25,3,.78,4.38a16.32,16.32,0,0,1,1.66,5.29,11.88,11.88,0,0,1-1.53,5.51,51.44,51.44,0,0,0-2.83,6,12,12,0,0,0-.73,6.15c.45,1.94,3.15,2.66,4.91,2.59l6.45-.26C111.74,49,113.16,49.27,114.64,48.16Z" transform="translate(-0.47 0)" style="fill:#424242"/><path d="M125.58,76.94a14.72,14.72,0,0,1,0-2.3c-.07-1-.17-1.9-.25-2.85-.16-1.94-.32-3.87-.43-5.81a13.58,13.58,0,0,1,.26-3.31,26.72,26.72,0,0,0,.53-3.86,27.63,27.63,0,0,0-4.25.38h0s.13,0,.11-.06a34.19,34.19,0,0,0,.14,5.81c.45,4.17,1.65,8.17,2.19,12.17A8.51,8.51,0,0,0,125.58,76.94Z" transform="translate(-0.47 0)" style="fill:#f8c19a"/><path d="M141.73,71.6c-.21.24-2.9-1.18-3.22-1.34-1.53-.62-3-1.33-4.51-2-1.76-.74-4.71-1.36-4.71-3.7a40.63,40.63,0,0,1,.44-5.94c0-.23,2-.26,2.18-.26a16.91,16.91,0,0,1,2,.42,38.1,38.1,0,0,0-.3,4.78,1.15,1.15,0,0,0,.66,1.24q4,2.81,8.28,5.3A2.86,2.86,0,0,1,141.73,71.6Z" transform="translate(-0.47 0)" style="fill:#f8c19a"/><path d="M118.55,79.29a2.38,2.38,0,0,1,1.26-1.18c1.07-.4,2.12-.83,3.19-1.25a6.75,6.75,0,0,1,2.11-.53,1.25,1.25,0,0,1,1.09.49c.33.5-.1.77-.31,1.17a2.23,2.23,0,0,0-.16.59,16.68,16.68,0,0,0,0,2,.27.27,0,0,1-.06.17h-.12l-1,.06h-.12a.21.21,0,0,1-.06-.18,13.84,13.84,0,0,0,.17-2.4.34.34,0,0,0-.09-.2c-.1-.1-.26,0-.39,0a7.29,7.29,0,0,0-1.84,1.71,3.44,3.44,0,0,1-2.14,1.37c-.82,0-1.8-.52-1.62-1.46A1.9,1.9,0,0,1,118.55,79.29Z" transform="translate(-0.47 0)" style="fill:#e26a84"/><path d="M142.49,70.11a.74.74,0,0,1,.43-.12,1.62,1.62,0,0,1,1.18.45c.13.13.24.28.37.41a3.19,3.19,0,0,0,1.76.74c.71.12.29,1,0,1.3a.45.45,0,0,1-.13.1c-.27.09-.75-.54-1-.66A3,3,0,0,0,144,72c-.82-.06-.74.65-.84,1.24s-.18,1-.24,1.5a6.07,6.07,0,0,1-.46,2,1.89,1.89,0,0,1-1.55,1.12,1.41,1.41,0,0,1-1.55-1.24h0a1.4,1.4,0,0,1,0-.29,1.88,1.88,0,0,1,.49-1.1,6.84,6.84,0,0,1,.75-.58,3.33,3.33,0,0,0,.59-.71,3,3,0,0,0,.43-1.7A2.1,2.1,0,0,1,142.49,70.11Z" transform="translate(-0.47 0)" style="fill:#e26a84"/><path d="M123.64,24.11c0,.9,1,1.55,1.84,1.61s1.29-.41,1.34.65a3.81,3.81,0,0,1-3.27,3.92,1.8,1.8,0,0,1-.73,0,2.77,2.77,0,0,1-.89-.53c-.37-.3-1-.47-1-1.08,0-.09.73-.5.82-.59a1.74,1.74,0,0,0,.35-2.16c-.14-.33-.37-.67-.26-1a1.06,1.06,0,0,1,.5-.5C122.79,24.11,123.25,23.91,123.64,24.11Z" transform="translate(-0.47 0)" style="fill:#f8c19a"/><path d="M124.56,21.6a1.56,1.56,0,0,0-1.5-.86,4,4,0,0,0-2.69,1.37,3.12,3.12,0,0,0-1,2.26c.09,1,.63,2.15,1.82,2.07C123.42,26.33,125.74,23.78,124.56,21.6Z" transform="translate(-0.47 0)" style="fill:#f8c19a"/><path d="M126.59,20.47c-.7.59-2.44.89-2.12-.52.14-.66.81-1.43,1.55-1.21s1.23,1.17.59,1.73Z" transform="translate(-0.47 0)" style="fill:#424242"/><path d="M118.47,22.73c-.13.37.59.67.89.73s1.6-.64,1-1.05a2.75,2.75,0,0,0-1.87.2A.37.37,0,0,0,118.47,22.73Z" transform="translate(-0.47 0)" style="fill:#f7aa77"/><path d="M129,29.55h.14c.19,0,.47-.7.59-.86a13.61,13.61,0,0,0,1-2.16,15.92,15.92,0,0,0,1-4.71,20.78,20.78,0,0,0-1.64-9.35,25.3,25.3,0,0,0-1.87-3.53,4.51,4.51,0,0,0-3-2.24,1,1,0,0,0-1.12.51c-.26.59.32,1,.69,1.35,3.19,2.8,3.66,8.13,3,12.11a15.27,15.27,0,0,1-1,3.34c-.25.64-1,1.41-.72,2.16a7.84,7.84,0,0,0,2,2.26,2.35,2.35,0,0,1,.54.59C128.76,29.21,128.68,29.53,129,29.55Z" transform="translate(-0.47 0)" style="fill:#f8c19a"/><path d="M122,21.29a2.15,2.15,0,0,0,.45.5l.21.26c-.12-.15.13.2.15.23.37.59.9,1.38,1.62,1.48a1.24,1.24,0,0,0,1.48-.91,1.1,1.1,0,0,0,0-.57c-.12-.75-1-1.44-1.58-1.85s-1.64-.75-2.2-.12A.85.85,0,0,0,122,21.29Z" transform="translate(-0.47 0)" style="fill:#2d2d2d"/><path d="M121.26,23a.35.35,0,0,0,.29-.39.33.33,0,0,0-.29-.29.34.34,0,0,0,0,.68Z" transform="translate(-0.47 0)" style="fill:#2d2d2d"/><path d="M119.29,24.62c.15.48.77.63,1.21.68a1.58,1.58,0,0,0,1.48-.64.13.13,0,0,0,0-.18.15.15,0,0,0-.13,0,2.52,2.52,0,0,1-1.28.44c-.43,0-.72-.29-1.11-.4,0,0-.08,0-.1.05v0Z" transform="translate(-0.47 0)" style="fill:#2d2d2d"/><path d="M102.35,29.11a3.21,3.21,0,0,0,1.18-.38,5.75,5.75,0,0,0,1.08-.46.72.72,0,0,0,.25-1,.7.7,0,0,0-.6-.34,3.22,3.22,0,0,0-1.49.47,1.46,1.46,0,0,0-1,1.13.6.6,0,0,0,.59.59h0Z" transform="translate(-0.47 0)" style="fill:#f8c19a"/><g style="opacity:0.27000001072883606"><path d="M110.83,10.41c-.34-.07.21,0,.23,0a1.28,1.28,0,0,0,.73-.39,2.55,2.55,0,0,0,.65-1.52A3.49,3.49,0,0,0,111,5.11c-1.28-.9-2.55,1.25-1.23,2.1a1.85,1.85,0,0,1,.78,1.45c0,.43-.37,1.63.32,1.76Z" transform="translate(-0.47 0)" style="fill:#8e8e8e"/></g><g style="opacity:0.27000001072883606"><path d="M114.55,23a5.66,5.66,0,0,0,1-1.57,3.77,3.77,0,0,0,.1-2.18,3.92,3.92,0,0,0-3.35-3.12,1.2,1.2,0,0,0-1.18,1.23,1.22,1.22,0,0,0,.59,1,3.81,3.81,0,0,1,1.06.5,2.77,2.77,0,0,1,.75,1.09,4.3,4.3,0,0,1,.46,2.68c-.1.32.36.63.58.35Z" transform="translate(-0.47 0)" style="fill:#8e8e8e"/></g><g style="clip-path:url(#clip-path)"><path d="M117.31,16.35a8.71,8.71,0,0,0,.54,1.53,4.52,4.52,0,0,0,.69,1.39.15.15,0,0,0,.2,0h0a.14.14,0,0,0,0-.09,4.78,4.78,0,0,0-.5-1.62,5.12,5.12,0,0,0-.71-1.35.14.14,0,0,0-.2.06A.19.19,0,0,0,117.31,16.35Z" transform="translate(-0.47 0)" style="fill:#424242"/><path d="M119.08,15.67a5.52,5.52,0,0,0,.64,1.55c.2.37.51,1,1,1.06a.16.16,0,0,0,.18-.11v-.06a4.92,4.92,0,0,0-.7-1.14c-.27-.46-.49-1-.79-1.42a.14.14,0,0,0-.21,0h0A.13.13,0,0,0,119.08,15.67Z" transform="translate(-0.47 0)" style="fill:#424242"/><path d="M120.73,14.85a9.72,9.72,0,0,0,.89,1,12.15,12.15,0,0,0,.93,1.09c.12.1.34,0,.33-.13a1.94,1.94,0,0,0-.67-1.13,7.55,7.55,0,0,0-1.23-1c-.12-.09-.3.08-.21.2Z" transform="translate(-0.47 0)" style="fill:#424242"/><path d="M122.75,13.59c.39.25.8.47,1.18.69a3.39,3.39,0,0,0,1,.47.15.15,0,0,0,.12-.15s0,0,0,0a1.73,1.73,0,0,0-.9-.72,8.1,8.1,0,0,0-1.33-.55c-.19-.07-.28.2-.13.3Z" transform="translate(-0.47 0)" style="fill:#424242"/><path d="M124.44,11.64a3.74,3.74,0,0,1,1,.9c.25.27.51.65.89.75a.22.22,0,0,0,.24-.15.17.17,0,0,0,0-.14,3.63,3.63,0,0,0-.91-1,2.66,2.66,0,0,0-1-.65c-.15,0-.24.19-.11.26Z" transform="translate(-0.47 0)" style="fill:#424242"/><path d="M126.64,5.53a7.23,7.23,0,0,0,.84.51,3.33,3.33,0,0,0,1,.4c.11,0,.19-.1.11-.18a2.33,2.33,0,0,0-.83-.52,7.24,7.24,0,0,0-1-.41c-.12,0-.23.12-.13.2Z" transform="translate(-0.47 0)" style="fill:#424242"/><path d="M127.85,3.64a4.53,4.53,0,0,1,.8,1.13c.19.3.46.69.85.69a.12.12,0,0,0,.12-.12h0a5.08,5.08,0,0,0-.72-1,2,2,0,0,0-.93-.8C127.88,3.45,127.77,3.57,127.85,3.64Z" transform="translate(-0.47 0)" style="fill:#424242"/><path d="M130.24,2.29c0,.46.1.93.18,1.39s0,.8.34,1.05a.13.13,0,0,0,.19-.05.08.08,0,0,0,0,0,3.07,3.07,0,0,0-.09-1.28,1.75,1.75,0,0,0-.47-1.15.11.11,0,0,0-.15,0v.07Z" transform="translate(-0.47 0)" style="fill:#424242"/><path d="M133.13,2.72c-.51.15-.8.83-1,1.26s-.59,1.12-.28,1.53a.16.16,0,0,0,.19,0c.35-.22.44-.83.59-1.18a5.91,5.91,0,0,0,.64-1.54.09.09,0,0,0-.09-.11h-.05Z" transform="translate(-0.47 0)" style="fill:#424242"/><path d="M100.24,23.85a1.62,1.62,0,0,0,.81.76,3.55,3.55,0,0,0,1.17.49.11.11,0,0,0,.11-.11h0c-.07-.33-.47-.46-.73-.59a2.69,2.69,0,0,1-1.12-.65c-.09-.12-.32,0-.25.11Z" transform="translate(-0.47 0)" style="fill:#424242"/><path d="M98.89,26.72a7.35,7.35,0,0,0,1.13.44,7.06,7.06,0,0,0,1.34.32.13.13,0,0,0,.11-.12.08.08,0,0,0,0-.07c-.59-.59-1.71-.55-2.47-.78a.11.11,0,0,0-.14.08A.11.11,0,0,0,98.89,26.72Z" transform="translate(-0.47 0)" style="fill:#424242"/><path d="M98.48,29.65a1.49,1.49,0,0,0,1.24,0,5.57,5.57,0,0,0,1.39-.54.09.09,0,0,0,0-.13h0c-.88-.19-1.65.66-2.54.55a.13.13,0,0,0-.12.15.14.14,0,0,0,0,.1Z" transform="translate(-0.47 0)" style="fill:#424242"/><path d="M98.87,32.68c.33.12.77-.16,1.06-.28a3.4,3.4,0,0,0,1.18-.79c.08-.1,0-.27-.12-.22a7.64,7.64,0,0,0-1.18.51c-.3.15-.84.34-1,.65a.1.1,0,0,0,0,.13Z" transform="translate(-0.47 0)" style="fill:#424242"/><path d="M100.13,34.83a13.87,13.87,0,0,1,1.18-1c.33-.27.81-.59.93-1a.13.13,0,0,0-.09-.16h-.07a3.14,3.14,0,0,0-1.14.81,3.9,3.9,0,0,0-1,1.21.18.18,0,0,0,.08.21.22.22,0,0,0,.16,0Z" transform="translate(-0.47 0)" style="fill:#424242"/></g><path d="M121.58,34.51a1.7,1.7,0,0,1-.19.35c-1,1.46-3.4,2.17-5,2.74a23.23,23.23,0,0,1-9.66,1.51,8.05,8.05,0,0,1-4-1.47,10,10,0,0,1-3.17-4.16c-.59-1.48-.31-5.89-.16-6.23s.27-1.63.66-2a1.76,1.76,0,0,1,2.59-.07,4.62,4.62,0,0,1,.46,3.22c-.15,1.39-.14,3.25.64,4.35A4.14,4.14,0,0,0,106.38,34a18.82,18.82,0,0,0,11.48-2.73c.54-.37,1.88-1.86,2.46-1.77s1.3,1.52,1.42,2.09a4,4,0,0,1,.06.7A5.61,5.61,0,0,1,121.58,34.51Z" transform="translate(-0.47 0)" style="fill:#f8c19a"/><path d="M137.3,58.54v-.12a18.83,18.83,0,0,0-.62-3.25,38.79,38.79,0,0,0-1.18-4.12,28.28,28.28,0,0,0-1.33-2.84A31.36,31.36,0,0,1,132.71,45a14.61,14.61,0,0,1-.87-4.52,25.94,25.94,0,0,0-.52-5.63A25.74,25.74,0,0,0,130,30.68c-.23-.59-.83-4.38-3.12-5.77-.48-.29-1.17.47-.86.92.51.75,0,1.76-.59,2.44a2.39,2.39,0,0,1-2,.86c-.69-.1-1.51-.86-2.17-.78a1.66,1.66,0,0,0-1.12.66c-.32.59.23,1,.56,1.38a4.22,4.22,0,0,1,.78,3.47,5.68,5.68,0,0,1-1.63,2.36c-.67.7-.26,1.63.36,2.23a4.54,4.54,0,0,1,1.5,2.48,10.75,10.75,0,0,1-.47,5.59l-.78,2.53a54.88,54.88,0,0,0-1.76,6.81,17.65,17.65,0,0,0-.34,3.49c.07,1.67,2.21,1.37,3.43,1.46a86.84,86.84,0,0,0,12.07-.48C135.16,60.22,137.3,60.38,137.3,58.54Z" transform="translate(-0.47 0)" style="fill:#2d2d2d"/><path d="M61.42,78.25a48.24,48.24,0,0,0-1-5.08C59.34,68,58.6,64.84,57.56,59.8,56.78,56,56,52.26,55.28,48.49c-1.1-5.56-2.67-11.12-3.46-16.71-.21-1.54-.35-3.36-1.8-4.32s-3.76-.41-5.37-.46q-3.28-.11-6.56-.13-6.41-.06-12.8.16c-3.49.11-14.31-.14-16.23.19s-1.86,1.3-2,3.09c-.48,6.51-1.78,12.91-2.82,19.34C3.71,53,3.4,56.5,3.07,59.89c-.41,4.28-1.23,8.51-1.73,12.78C1.12,74.52.9,76.35.58,78.13c-.52,3,.85,3.47,3.27,3.39,3.38-.11,6.81.16,10.2.21,6.93.11,13.86.13,20.79,0,5.23-.1,10.46-.28,15.69-.58,1.81-.1,8.68.07,9.93-.74A2.23,2.23,0,0,0,61.42,78.25Z" transform="translate(-0.47 0)" style="fill:#db900b"/><path d="M54.65,62c.31,2,1.46,9,1.78,10.51a8.24,8.24,0,0,1,.19,3.94c-.44,1.23-2.51,1-3.53,1.1-5.91.46-11.85.39-17.79.67-1.75.08-3.5.14-5.24.16-2.79,0-5.57-.12-8.35-.19s-5.66.07-8.48,0c-1.53-.05-3.05-.11-4.58-.2-1.25-.08-3.29.27-4-1.06-.52-.94,0-2.41.24-3.39.37-1.75.48-3.54.74-5.32.57-3.88,1.27-7.86,1.53-11.75S8.31,48.83,8.58,45c.16-2.24.24-4.61.57-6.84a68.74,68.74,0,0,1,.91-7,2.11,2.11,0,0,1,.85-1.53,4.36,4.36,0,0,1,1.83-.39c5.78-.39,11.59-.58,17.39-.56q4.4,0,8.79.18c2,.08,4.1,0,6.14.17a8.64,8.64,0,0,1,3.39.57c.94.53,1.26,1.91,1.4,2.89.19,1.33.35,2.6.63,3.94.67,3.22,1.18,6.47,1.69,9.72Q53.42,54.08,54.65,62Z" transform="translate(-0.47 0)" style="fill:#f7b0b9"/><path d="M36.74,33.06a5,5,0,0,0,.07,2.33c.18,1.18.33,2.36.44,3.55a6.39,6.39,0,0,0,.23,1.9c.39.89,1.63.88,2.43.73,1.68-.31,4.91.49,4.94-2,0-1.11-.38-2.19-.36-3.29s0-2.85-.73-3.77c-.93-1.08-3.74-.53-5.07-.46C38,32.1,37,32.28,36.74,33.06Z" transform="translate(-0.47 0)" style="fill:#ef8f9f"/><path d="M48,33a9.64,9.64,0,0,1-.33,1.65A8.45,8.45,0,0,1,46,38.36c-1.08,1.1-3,.58-2.73-1.14.08-.48.32-1.31,0-1.77s-1,0-1.45-.3c-.91-.5.66-1.17,1-1.22a.85.85,0,0,0,.44-.14c.49-.42.55-1.91.66-2.5a12.85,12.85,0,0,0,.15-3,27.17,27.17,0,0,0-1.44-6.41A27.62,27.62,0,0,0,40,16c-.13-.22,1.68-2,1.95-2.15,1.1-.55,2.36,1.83,2.73,2.56a37.49,37.49,0,0,1,2.85,8.77,27.27,27.27,0,0,1,.66,4.65A25,25,0,0,1,48,33Z" transform="translate(-0.47 0)" style="fill:#f8c19a"/><path d="M39.84,17c-.71-1.18-1.85-2.18-2.25-3.53a1.56,1.56,0,0,1,1.35-2A4.38,4.38,0,0,1,41.7,12c.85.49,2.85,2,2.07,3.11a12.47,12.47,0,0,1-2.44,2.2.87.87,0,0,1-1.08.2,1.73,1.73,0,0,1-.39-.5Z" transform="translate(-0.47 0)" style="fill:#2d2d2d"/><path d="M34.51,26.86s0-2.52,0-3.33c0-1.07.45-2.83,1.4-3.44.35-.23.79-.24,1.14-.46,1.26-.75,1.32-2.13,1.35-3.43,0-2.06.5-4-.79-5.75C37,9.69,35.43,8.32,34.5,9a10.13,10.13,0,0,1-3.34,1.48,12.92,12.92,0,0,0-4.85,3.37,27.91,27.91,0,0,0-4.68,6.65,61.28,61.28,0,0,0-3.46,6.56C18.08,27.31,32.73,26.86,34.51,26.86Z" transform="translate(-0.47 0)" style="fill:#424242"/><path d="M22.94,74.21a3,3,0,0,1-1.47.37c-2.39,0-4.8.1-7.18.09-2.68,0-2.45-3.31-2.67-5.28a16.29,16.29,0,0,1,.12-5.26,7,7,0,0,1,1.29-3c.37-.45.82-.84,1.17-1.31a3.65,3.65,0,0,0,.69-2A7.63,7.63,0,0,0,14.64,56a39,39,0,0,1-1-6.44c-.05-1.23-.05-3,1.51-3.22A34.59,34.59,0,0,1,19.48,46c.48,0,.44.52.45,1,.08,2.41.21,4.83.34,7.22A55.4,55.4,0,0,0,21.57,63c.27,1.23.33,2.45.59,3.65.3,1.4.65,2.83,1,4.21C23.41,71.71,24,73.57,22.94,74.21Z" transform="translate(-0.47 0)" style="fill:#ef8f9f"/><path d="M39.51,72.29A7.05,7.05,0,0,0,40.39,69a5.07,5.07,0,0,0-1.61-3c-1.23-1.36-2.73-2.51-3.62-4.14a29.92,29.92,0,0,1-2-5.12c-1.06-3.21-2.44-7.09-1.31-10.45.73-2.2-.82-1.62-2.36-1.46-1.84.18-3.67.4-5.5.74-.82.15-.79,1.12-.72,1.83.16,1.63.13,3.14.17,4.78,0,.93.06,1.87.14,2.81s.22,1.86.36,2.79L25.35,67c.26,1.73.52,3.47.95,5.17a2.5,2.5,0,0,0,.42,1c.89,1.07,2.42,1.22,3.71,1.22,1.44,0,2.88-.14,4.32-.23,1.2-.08,2.57.17,3.62-.54A3.91,3.91,0,0,0,39.51,72.29Z" transform="translate(-0.47 0)" style="fill:#ef8f9f"/><path d="M48,51.06c-1.08,1-3.74.58-4.95.52a35,35,0,0,0-6.06,0,1.73,1.73,0,0,1-1.27-.16,1.49,1.49,0,0,1-.44-.86,17.66,17.66,0,0,1-.5-3A4.47,4.47,0,0,1,34.82,46c.21-.68.36-.6,1-.64,1.8-.13,3.61-.21,5.41-.3,1.27-.07,2.53-.12,3.79-.2s2.77-.38,3,1.23c.18,1.3.92,3.29.32,4.55A1.27,1.27,0,0,1,48,51.06Z" transform="translate(-0.47 0)" style="fill:#ef8f9f"/><path d="M48.76,58.21a.68.68,0,0,0,.11-.68c0-1.17-2.24-2.82-3.24-3.1a9.06,9.06,0,0,0-2.75,0c-1.11,0-2.24,0-3.35,0s-2.28.13-2.14,1.41c.11,1,0,2.8.87,3.49a1.67,1.67,0,0,0,1.18.2c2.69-.16,5.34-.61,8-.87A2.07,2.07,0,0,0,48.76,58.21Z" transform="translate(-0.47 0)" style="fill:#ef8f9f"/><path d="M19.78,34.22a1.54,1.54,0,0,0-.43,0,5.09,5.09,0,0,0-2.62,1.56,10.14,10.14,0,0,0-2.41,5.69c-.15,1,.83,1.13,1.56,1.09,1.44-.08,4.67.46,4.66-1.71,0-1.43,0-2.87,0-4.3C20.53,35.65,20.72,34.37,19.78,34.22Z" transform="translate(-0.47 0)" style="fill:#ef8f9f"/><path d="M29.78,35.52a4.59,4.59,0,0,0-3-2.6c-1.32-.37-2.49-.4-2.71,1.23a9.47,9.47,0,0,0,0,1.92c.06.83.2,1.51.19,2.34a5.32,5.32,0,0,0,.43,2.5c.59,1.12,3.32.44,4.33.4s1.34-.19,1.55-1.25A7.77,7.77,0,0,0,29.78,35.52Z" transform="translate(-0.47 0)" style="fill:#ef8f9f"/><path d="M36,7.69a2.46,2.46,0,0,0-1.31,2.13,2,2,0,0,0,1.87,1.41c.75-.06,1.18-1,1.61-1.53s.94-1.54.25-2.15a1.52,1.52,0,0,0-1.3-.33A3.16,3.16,0,0,0,36,7.69Z" transform="translate(-0.47 0)" style="fill:#f8c19a"/><path d="M40.36,3.44A2.18,2.18,0,0,0,39.47,3a2.83,2.83,0,0,0-2.75,1,4.05,4.05,0,0,0-.24,4.22c.69,1.42,2.58,2.81,4,1.34A4.37,4.37,0,0,0,41.55,6.8a6,6,0,0,0,0-.74A3.75,3.75,0,0,0,40.36,3.44Z" transform="translate(-0.47 0)" style="fill:#f8c19a"/><path d="M36.11,3a1.59,1.59,0,0,0,.66-.82,1.73,1.73,0,0,0-.14-2,1.1,1.1,0,0,0-1.53.2,2.32,2.32,0,0,0-.58,1.74A1.16,1.16,0,0,0,36.11,3Z" transform="translate(-0.47 0)" style="fill:#2d2d2d"/><path d="M38.8,2.33c-.67-.76-1.94-.26-2.68.11a2.59,2.59,0,0,0-1.56,2c0,1,1,1.48,1.87,1.44a5.72,5.72,0,0,0,2-.61A3.78,3.78,0,0,0,40.08,4a1.66,1.66,0,0,0-.62-2.31c-1.39-.77-3.69.69-3.79,2.19A1.08,1.08,0,0,0,36.74,5a2.19,2.19,0,0,0,1.13-.36,1.29,1.29,0,0,0,.36-.25c-.23.18.08,0,.11-.07a4.66,4.66,0,0,1,.47-.3c-.15.06-.16.07,0,0s.11-.06-.35,0c-.63-.09-.73-.95-.41-1.35l-.12.13c-.24.22.2-.14-.08,0a4.62,4.62,0,0,1-.48.28L37,3.3c.28-.13-.1,0-.17.06a4.94,4.94,0,0,1-.55.15h-.15c.43,0,.69.3.79.87-.12.37-.13.46,0,.26-.07.06,0,0,.07-.08A6.82,6.82,0,0,1,37.51,4c.39-.36.94-.53,1.29-.93a.52.52,0,0,0,0-.7Z" transform="translate(-0.47 0)" style="fill:#2d2d2d"/><path d="M40.71,5.72h0a.23.23,0,0,0-.31.08.24.24,0,0,0,0,.31.2.2,0,0,0,.24,0,.28.28,0,0,0,.09-.1s0,0,0,0l0-.09-.16.12h0a.17.17,0,0,0,.17-.12.18.18,0,0,0-.12-.21Z" transform="translate(-0.47 0)" style="fill:#2d2d2d"/><path d="M38.12,7a.32.32,0,0,0,.31-.32.31.31,0,0,0-.62,0,.32.32,0,0,0,.31.32Z" transform="translate(-0.47 0)" style="fill:#2d2d2d"/><path d="M38.46,8.76c.2.42.77.43,1.17.37s1.15-.33,1.1-.8a.13.13,0,0,0-.11-.11c-.32,0-.61.3-.9.4a2.25,2.25,0,0,1-1.18,0c-.07,0-.1.08-.08.14Z" transform="translate(-0.47 0)" style="fill:#2d2d2d"/><path d="M39,6a3,3,0,0,0,.38,1.65c.27.47,1,0,.72-.42a4.41,4.41,0,0,1-.67-1.29c-.05-.25-.41-.18-.43.06Z" transform="translate(-0.47 0)" style="fill:#f9b180"/><path d="M36.27,6.74c-.05,0,0,0,0,0a.24.24,0,0,0-.06-.09l-.06-.06a.31.31,0,0,0-.13,0,.4.4,0,0,0-.31.14,1.16,1.16,0,0,0-.12.86c.09.54.6,1.45,1.23.88a1.12,1.12,0,0,0,.23-1.19c-.15-.41-.57-.94-1.08-.8s-.63.88-.44,1.33.88,1.07,1.36.51a.34.34,0,0,0-.23-.57c-.21,0-.31-.1-.38-.33a.3.3,0,0,1,0-.19c0,.07-.16.07-.22.06h0a.59.59,0,0,1,.23.46c0-.08,0,.06,0,.07l0,.08s0,0,0,0,0,0,0,0a.24.24,0,0,1,.17-.06s.09,0,.11,0,0,0,0,0a.46.46,0,0,1-.07-.07c.06.07,0,0,0,0a1.31,1.31,0,0,1-.17-.4A.92.92,0,0,1,36.16,7s0,0,0,0,0,0-.05.06.09-.06.11-.1,0,0-.07,0c.1,0,.22-.11.11-.2Z" transform="translate(-0.47 0)" style="fill:#f9b180"/><path d="M36.27,44.76c-.14-.17-.27-.78.1-.76.19,0,.54.4.69.53l.65.56c.86.77,3.41,3.14,3.88,3.5.79.61,1.59,1.48,1.34,1.52S39.72,47.76,38.79,47A21.94,21.94,0,0,1,36.27,44.76Z" transform="translate(-0.47 0)" style="fill:#424242"/><path d="M34,44.38c.38-.41.19-.83.43-.85s.85.53,1,.69.76.7.84.54c.18-.33.53-.74.15-1s-1.11-.78-2-1.4c-.19-.12-.41.12-.62,0s-.39-.51-.51-.7a2.61,2.61,0,0,0-1.4-1.07,1.44,1.44,0,0,0-1.65.41,1.62,1.62,0,0,0-.08,1.78,3.06,3.06,0,0,0,1.48,1.62C32.31,44.77,33.23,45.15,34,44.38Zm-2.58-1.52c-.28-.32-.41-.69-.13-1a.63.63,0,0,1,.68-.14,1.69,1.69,0,0,1,.61.41c.26.25,1,1.11.62,1.49a.53.53,0,0,1-.51.08A3.06,3.06,0,0,1,31.37,42.86Z" transform="translate(-0.47 0)" style="fill:#d14e70"/><path d="M36.65,43.71c.11,0,.2.12.27.3s.26.52.39.77l.78,1.56c.51,1,1,2,1.53,3,.25.51.51,1,.74,1.52.12.26.23.52.33.79a1.35,1.35,0,0,1,.18.52c-.24.05-.51-.66-.61-.84-.22-.38-.44-.77-.67-1.15-.43-.76-.86-1.51-1.3-2.26-.11-.2-.22-.4-.34-.59-.57-1-1.14-2-1.72-3a.48.48,0,0,1-.07-.21.43.43,0,0,1,.14-.24C36.44,43.75,36.55,43.69,36.65,43.71Z" transform="translate(-0.47 0)" style="fill:#606060"/><path d="M34.17,39.2a.88.88,0,0,1,0-.32.63.63,0,0,1,.68-.51,1.17,1.17,0,0,1,.47.21A1.23,1.23,0,0,1,35.91,40a.6.6,0,0,1-.26.34C35,40.66,34.29,39.71,34.17,39.2ZM36.8,44a.24.24,0,0,0,.14-.17.37.37,0,0,0,0-.14q-.36-.77-.66-1.56a1.32,1.32,0,0,1-.11-.91c.1-.27.36-.45.54-.68a1.36,1.36,0,0,0,.23-1.09,2.94,2.94,0,0,0-1.47-2,1.84,1.84,0,0,0-1-.41,1,1,0,0,0-.88.39,1.78,1.78,0,0,1-.21.27.26.26,0,0,1-.31.06,1.12,1.12,0,0,0-.32-.17c-.1,0-.18,0-.31.22s-.42.57-.24.87a3.63,3.63,0,0,0,.66.64,7.46,7.46,0,0,1,.72.77,18.6,18.6,0,0,1,2.24,3.39c.1.17.27.75.45.82S36.65,44.11,36.8,44Z" transform="translate(-0.47 0)" style="fill:#e26a84"/><g style="opacity:0.36"><path d="M36.32,40.08c.38-.2.26-.78.13-1.09a2.31,2.31,0,0,0-.82-1,1.58,1.58,0,0,0-1.08-.33c-.32,0-.76.4-.56.75a.07.07,0,0,0,.09,0,1.52,1.52,0,0,0,.28-.29.38.38,0,0,1,.28-.12,1.32,1.32,0,0,1,.8.28,2,2,0,0,1,.66.75,1.43,1.43,0,0,1,.12.45,3.93,3.93,0,0,0,0,.49.06.06,0,0,0,.08,0Z" transform="translate(-0.47 0)" style="fill:#fff"/></g><g style="opacity:0.36"><path d="M32.83,41.9a1.5,1.5,0,0,0-.18-.41,1.6,1.6,0,0,0-.41-.37c-.27-.18-.72-.35-1-.06a.11.11,0,0,0,.05.16c.13,0,.25,0,.38.05a1.07,1.07,0,0,1,.39.14,2.8,2.8,0,0,1,.35.25c.11.1.24.17.33.27s.08,0,.06,0Z" transform="translate(-0.47 0)" style="fill:#fff"/></g><g style="opacity:0.36"><path d="M37.09,45.45a.17.17,0,0,0,.32.11.17.17,0,0,0-.32-.11Z" transform="translate(-0.47 0)" style="fill:#fff"/></g><g style="opacity:0.36"><path d="M39.78,49.76a2.47,2.47,0,0,0,.25.84,2.73,2.73,0,0,0,.48.87,0,0,0,0,0,.08,0,2.74,2.74,0,0,0-.34-.81c-.16-.28-.26-.59-.43-.86,0,0,0,0,0,0Z" transform="translate(-0.47 0)" style="fill:#fff"/></g><path d="M35.24,37.54a3.91,3.91,0,0,1,.16,1.76,1.67,1.67,0,0,1-2.73.51,6.15,6.15,0,0,1-1.16-2.38,24.5,24.5,0,0,0-1.09-2.89c-.64-1.39-1.38-2.74-2-4.16a10.94,10.94,0,0,1-.55-2.9c-.23-2.13.43-4.47.65-6.58a12.88,12.88,0,0,1,.72-3.54c-.08,0-.18.13-.15,0A1.83,1.83,0,0,1,30.71,17a13.94,13.94,0,0,1,2.39.36.53.53,0,0,1,.32.17.63.63,0,0,1,0,.31c-.13,1.52-.25,3.05-.51,4.56a24.79,24.79,0,0,0-.64,6c.16,2.1,1.21,4,2,5.94.27.72.64,1.4,1.49,1.2.45-.1.65.25.54.62s-.54.24-.84.55A1,1,0,0,0,35.24,37.54Z" transform="translate(-0.47 0)" style="fill:#f8c19a"/><path d="M33.33,12.66c1.29.8.94,3.79.75,5.06-.13.8-.95.69-1.52.64-1-.1-2.05,0-3.07,0-.59,0-1.09-.12-.93-.85a11,11,0,0,1,1.67-3.64,3.28,3.28,0,0,1,1.86-1.33A1.65,1.65,0,0,1,33.33,12.66Z" transform="translate(-0.47 0)" style="fill:#2d2d2d"/></svg>