<svg xmlns="http://www.w3.org/2000/svg" viewBox="0 0 651.81 376.15"><title>background3</title><g style="isolation:isolate"><g id="OBJECTS"><path d="M669.68,106.13c-2.09,2.42-5.31,4.44-8,6.05a46.82,46.82,0,0,1-40.32,3.61c-2.47-.93-5.37-2.16-7-4.31s.64-4.58,1.34-6.58c2.28-6.47,2.38-13.43,3.48-20.15,1-6.16,3-12.28,7.69-16.65a18.76,18.76,0,0,1,3.1-2.33.35.35,0,0,1,.17-.17l.31-.13a18,18,0,0,1,5-1.92c5-1.67,10.36-2.49,15.39-.3,6.65,2.9,8.7,10.5,10.47,16.89,1.93,7,3.35,14.25,6.87,20.66C669.08,102.52,671.25,104.32,669.68,106.13Z" transform="translate(-49.09 -61.93)" style="fill:#976572"/><path d="M670.82,102.44a59.65,59.65,0,0,1-5.65-15.32c-1.26-5-2-10.33-4.06-15.09-2.93-6.9-11-11.2-18.26-8.38-.31.12-.19.6.14.51a14.93,14.93,0,0,1,12.5,1.89c4,2.77,5.53,7.31,6.67,11.85,2.12,8.42,3.71,17.25,8.53,24.62A.08.08,0,0,0,670.82,102.44Z" transform="translate(-49.09 -61.93)" style="fill:#976572"/><path d="M633.56,64.07c-8.34-.58-12.47,9.84-14.33,16.25-2.71,9.3-2.55,19.24-6.08,28.33a0,0,0,1,0,.09,0c3.49-7.3,3.89-15.37,5.48-23.19A49.07,49.07,0,0,1,623,72.69a14.59,14.59,0,0,1,10.69-8.19C633.91,64.44,633.78,64.09,633.56,64.07Z" transform="translate(-49.09 -61.93)" style="fill:#976572"/><path d="M629.7,141c-.51.39-1,.83-1.63,1.29-9.5,7.54-28,24.47-35.52,19.08-7.86-5.68-19.72-30.37-21.4-35.32s4.56-8.82,7.83-6.88,17.18,17.07,19.23,18.5c.88.61,5.65-3.21,13-8.19l1.81-1.22c8-5.32,17-10.85,22.41-10.55a6.76,6.76,0,0,1,1.68.33C643.56,120.42,642.88,130.73,629.7,141Z" transform="translate(-49.09 -61.93)" style="fill:#e9ab9e"/><path d="M629.7,141c-.51.39-1,.83-1.63,1.29a27.28,27.28,0,0,0-4-5.51c-3.9-4.15-9-5.87-12.93-7.3l1.81-1.22c8-5.32,17-10.85,22.41-10.55a6.76,6.76,0,0,1,1.68.33C643.56,120.42,642.88,130.73,629.7,141Z" transform="translate(-49.09 -61.93)" style="fill:#c27c88"/><path d="M596.67,158.31a1.8,1.8,0,0,0-2.51-.62,1.37,1.37,0,0,0,.07,2.3c.68.42,1.7-.25,1.25-1.08-.07-.12-.25,0-.21.15.13.52-.56.64-.83.33a.77.77,0,0,1-.08-.89.9.9,0,0,1,1.17-.31,1.32,1.32,0,0,1,.81,1.05,1.85,1.85,0,0,1-.54,1.34c-.08.08,0,.23.12.19A1.82,1.82,0,0,0,596.67,158.31Z" transform="translate(-49.09 -61.93)" style="fill:#c27c88"/><path d="M582.43,122.94l-3.6-5.63s-.87-5.43-2.73-7-2.81-10-5.9-9.65-6.46,9.27-5.94,12.58,5.17,7.77,5.17,7.77l2.76,7.65S580.58,127.58,582.43,122.94Z" transform="translate(-49.09 -61.93)" style="fill:#e9ab9e"/><path d="M629.69,141c-.9-.15-1.87-10.1-13.69-15.26-1.09-.47,14.29-9.68,20.43-9.65s7.82,6.07,5.74,11.74S630.94,141.24,629.69,141Z" transform="translate(-49.09 -61.93)" style="fill:#deb74a"/><path d="M689.73,219H618.36c1.53-18.57,11.2-35.31,11.2-35.31l35.6-6.61S685.12,190.54,689.73,219Z" transform="translate(-49.09 -61.93)" style="fill:#cc4d35"/><path d="M648.15,219H646.8c-.37-3.1-.52-6.47-.67-9.87-4.82-.43-9.1-3.43-12.54-6.6-.26-.25.12-.62.38-.4,3.79,3.19,8.1,4.41,12.63,6a.52.52,0,0,1,.17.13.25.25,0,0,1,.15.19A64.12,64.12,0,0,1,648.15,219Z" transform="translate(-49.09 -61.93)" style="fill:#b03e2f"/><path d="M640,114.92c-5.39.75-9.44,5.77-12.61,10.93s-10.23,15.7-10.78,24c-.43,6.45,8.19,13.68,8.19,13.68s2.2,16.07,3.82,19.58c2.43,5.26,22.08,13.66,36.13-3.18,1.45-1.74,4.23-37.9-.77-50.7C660.08,119.15,652.83,113.13,640,114.92Z" transform="translate(-49.09 -61.93)" style="fill:#deb74a"/><path d="M649,161.68c-3.7,1.08-6.78,2.9-10.81,2.49-3.48-.34-6.65-2-9.66-3.68-.13-.07-.24.13-.13.22a17.8,17.8,0,0,0,10.13,4.48c3.94.29,7.21-1.42,10.58-3.25A.14.14,0,0,0,649,161.68Z" transform="translate(-49.09 -61.93)" style="fill:#c18c2f"/><path d="M631,163.17a6.32,6.32,0,0,0-5.32-1.09c-.13,0-.09.25,0,.26a15.73,15.73,0,0,1,2.47.21,13.23,13.23,0,0,1,2.57,1A.24.24,0,0,0,631,163.17Z" transform="translate(-49.09 -61.93)" style="fill:#c18c2f"/><path d="M652.56,122a19.32,19.32,0,0,1-9.2,5.08c-4.46.92-10-.68-9.32-6.35,0-.08-.1-.09-.12,0a6.07,6.07,0,0,0,5.82,7.47c4.74.23,9.91-2.56,13-6C652.83,122.08,652.67,121.91,652.56,122Z" transform="translate(-49.09 -61.93)" style="fill:#c18c2f"/><path d="M637.33,120.6s.7,3.27,3.63,3.18c5.06-.14,8.67-5,9-6.16a68.55,68.55,0,0,0,.28-9.34c0-.43,0-.87,0-1.3s0-.85-.06-1.27-.07-1.09-.11-1.64c-.28-4.1-.55-7.61-.55-7.61l-1.83.9L635,104.19l1.5,10.39.08.64,0,.2.47,3.14v0Z" transform="translate(-49.09 -61.93)" style="fill:#e9ab9e"/><path d="M636.55,115.22a11.07,11.07,0,0,0,5.25,0c3.94-.9,6.52-3.7,8.49-7,0-.43,0-.87,0-1.3s0-.85-.06-1.27-.07-1.09-.11-1.64c-.28-4.1-.55-7.61-.55-7.61l-1.83.9L635,104.19l1.5,10.39Z" transform="translate(-49.09 -61.93)" style="fill:#c27c88"/><path d="M621,91.21c1.73,18.52,12.19,18.57,15.39,18.8,3.63.26,17.54-1.58,17.73-20.18s-9-23.65-17.3-23.3S619.27,72.69,621,91.21Z" transform="translate(-49.09 -61.93)" style="fill:#e9ab9e"/><path d="M634.88,90.28s.1.06.1.11c-.05,1.27.11,2.73,1.25,3.15,0,0,0,.08,0,.07C634.82,93.41,634.63,91.47,634.88,90.28Z" transform="translate(-49.09 -61.93)" style="fill:#1a2c6d"/><path d="M636,89c2-.14,2.17,4,.28,4.08S634.31,89.09,636,89Z" transform="translate(-49.09 -61.93)" style="fill:#1a2c6d"/><path d="M636.64,89.07c.37.14.77.43,1.16.38s.71-.52.91-1c0,0,.06,0,.07,0a1.37,1.37,0,0,1-.65,1.76c-.67.25-1.3-.25-1.64-.92C636.43,89.24,636.5,89,636.64,89.07Z" transform="translate(-49.09 -61.93)" style="fill:#1a2c6d"/><path d="M626.44,90.41s-.09.07-.08.12c.21,1.25.24,2.72-.84,3.29,0,0,0,.08,0,.07C626.9,93.51,626.84,91.56,626.44,90.41Z" transform="translate(-49.09 -61.93)" style="fill:#1a2c6d"/><path d="M625.15,89.25c-2,.12-1.66,4.19.23,4.08S626.85,89.15,625.15,89.25Z" transform="translate(-49.09 -61.93)" style="fill:#1a2c6d"/><path d="M624.5,89.47c-.33.21-.65.59-1,.63s-.8-.35-1.1-.73c0,0-.06,0-.06,0,0,.72.27,1.45,1,1.56s1.21-.54,1.38-1.27C624.75,89.58,624.63,89.38,624.5,89.47Z" transform="translate(-49.09 -61.93)" style="fill:#1a2c6d"/><path d="M635.94,99.6c-.25.34-.47.8-.92.91a3.17,3.17,0,0,1-1.4-.08s-.07,0,0,.08a1.71,1.71,0,0,0,1.7.4,1.35,1.35,0,0,0,.79-1.27C636.08,99.56,636,99.55,635.94,99.6Z" transform="translate(-49.09 -61.93)" style="fill:#c27c88"/><path d="M623.68,85.9c.42-.1.8-.26,1.22-.4a2.08,2.08,0,0,0,1.16-.65.65.65,0,0,0-.09-.8,1.65,1.65,0,0,0-1.65-.2,2.44,2.44,0,0,0-1.41,1A.71.71,0,0,0,623.68,85.9Z" transform="translate(-49.09 -61.93)" style="fill:#1a2c6d"/><path d="M637.57,85.5c-.44,0-.83-.16-1.26-.25a2,2,0,0,1-1.24-.49.66.66,0,0,1,0-.81,1.65,1.65,0,0,1,1.61-.41,2.43,2.43,0,0,1,1.53.83A.71.71,0,0,1,637.57,85.5Z" transform="translate(-49.09 -61.93)" style="fill:#1a2c6d"/><path d="M630.76,98a5.15,5.15,0,0,0,2.13,1.55,2.36,2.36,0,0,0,1.42,0c1-.3,1-1.24.8-2a5.34,5.34,0,0,0-.5-1.22A6.69,6.69,0,0,1,630.76,98Z" transform="translate(-49.09 -61.93)" style="fill:#1a2c6d"/><path d="M632.89,99.59a2.36,2.36,0,0,0,1.42,0c1-.3,1-1.24.8-2A2.41,2.41,0,0,0,632.89,99.59Z" transform="translate(-49.09 -61.93)" style="fill:#c27c88"/><path d="M630.16,95.65s0,1.91.06,2.8c0,.08.23.1.53.08,0,0,0,0,0,0a4.27,4.27,0,0,0,3.91-2,.09.09,0,0,0-.15-.11,6.37,6.37,0,0,1-3.72,1.54c-.09-.24.19-3.27,0-3.26a7.57,7.57,0,0,0-2,.69c0-4,.6-7.93.52-11.89a.12.12,0,0,0-.24,0,64.21,64.21,0,0,0-1.1,12.79C628.08,96.72,629.83,95.85,630.16,95.65Z" transform="translate(-49.09 -61.93)" style="fill:#c27c88"/><path d="M653.49,90c-2.06.14-8.15-4.8-9.61-14.69,0,0,1.93,8.79,2.77,10s-3.41-2.78-4.7-10.74a32.61,32.61,0,0,1-7.64,5.33c-3.64,1.55-5.95,1.82-6.26,1.58s5-2.72,6.3-4.64c0,0-9.43,6-14,6.94-.53.11-2.61-10.81,3.93-16.42s18.53-2,22,.49c0,0,3.64,0,8.23,4.82S655.72,89.8,653.49,90Z" transform="translate(-49.09 -61.93)" style="fill:#976572"/><path d="M635.84,96.56A5.41,5.41,0,0,1,631,90.69h0a5.4,5.4,0,1,1,6.23,5.83A5.07,5.07,0,0,1,635.84,96.56Zm-4.16-5.81a4.68,4.68,0,1,0,5.09-4.22,4.5,4.5,0,0,0-1.16,0A4.71,4.71,0,0,0,631.68,90.75Z" transform="translate(-49.09 -61.93)" style="fill:#cc4d35"/><path d="M624.45,97c-2.22.09-4.12-2.26-4.24-5.24a6.47,6.47,0,0,1,1-3.82A3.55,3.55,0,0,1,624,86.19a3.6,3.6,0,0,1,3,1.51,6.52,6.52,0,0,1,1.29,3.73c.11,2.82-1.41,5.2-3.45,5.52Zm-2.65-8.66a5.75,5.75,0,0,0-.87,3.39c.11,2.58,1.67,4.62,3.49,4.55s3.21-2.23,3.11-4.81a5.73,5.73,0,0,0-1.14-3.31A2.91,2.91,0,0,0,624,86.91l-.27,0A3,3,0,0,0,621.8,88.33Z" transform="translate(-49.09 -61.93)" style="fill:#cc4d35"/><path d="M631.17,91.31l.44-.58c-.84-.65-2.77-1.5-4,0l.55.48C629.25,89.85,631.09,91.25,631.17,91.31Z" transform="translate(-49.09 -61.93)" style="fill:#cc4d35"/><path d="M655.74,90.17l.56-.46c-.22-.26-2.15-2.53-3.78-2.45s-10.79,3-11.18,3.16l.22.68c2.65-.84,9.82-3,11-3.11S655.22,89.54,655.74,90.17Z" transform="translate(-49.09 -61.93)" style="fill:#cc4d35"/><path d="M651.34,92.3s3-6.44,5.81-5.49,1.35,9.78-1.48,11.47a3.15,3.15,0,0,1-4.45-.91Z" transform="translate(-49.09 -61.93)" style="fill:#e9ab9e"/><path d="M656.66,89.33a0,0,0,0,1,0,.08c-2,1.25-2.74,3.43-3.16,5.63a1.73,1.73,0,0,1,2.47-.93c.07,0,0,.12,0,.12a1.94,1.94,0,0,0-2,1,9.54,9.54,0,0,0-.69,1.87c-.07.21-.43.17-.4-.06v0C652.36,94.33,653.78,90.14,656.66,89.33Z" transform="translate(-49.09 -61.93)" style="fill:#c27c88"/><path d="M695.37,172.29c-3.13,7.11-18.52-4.41-21.72-9-3.77-5.36-11.13-13.79-15.6-20.28a36.59,36.59,0,0,1-2.92-4.86c-3-6.44-4.5-15.49.39-17.78,2-.92,5.82,1.35,8,2.87,5.42,3.71,11,9.38,16,15.58C689.91,151.83,697.59,167.22,695.37,172.29Z" transform="translate(-49.09 -61.93)" style="fill:#e9ab9e"/><path d="M679.53,138.86a41.12,41.12,0,0,0-21.48,4.19,36.59,36.59,0,0,1-2.92-4.86c-3-6.44-4.5-15.49.39-17.78,2-.92,5.82,1.35,8,2.87C669,127,674.57,132.66,679.53,138.86Z" transform="translate(-49.09 -61.93)" style="fill:#c27c88"/><path d="M656.25,142.07c.86.09,6.47-7.51,18.65-9.19,1.13-.15-8.15-10.53-16.24-14.14-6.56-2.92-6.9,3-7,8.8C651.5,134.62,655,141.93,656.25,142.07Z" transform="translate(-49.09 -61.93)" style="fill:#deb74a"/><path d="M565,108.11s.12,0,.09,0c-4.15,7.67,5.38,13.33,10,17.51a.28.28,0,0,1-.34.45C569.29,122.73,559.26,115.38,565,108.11Z" transform="translate(-49.09 -61.93)" style="fill:#fff"/><path d="M573.42,110.81c-.13-.89.23-4.88-.42-6.85v0c-.09-.33-.18-.66-.29-1a3.76,3.76,0,0,0-.85-1.4,2.39,2.39,0,0,1,1.24.6c1.83,1.63.76,6.59.58,8.61C573.67,110.92,573.44,111,573.42,110.81Z" transform="translate(-49.09 -61.93)" style="fill:#fff"/><path d="M573.25,110.33c-.08-1,4.83,4.31,12.61,6.2,1.6.38,6.34.76,8.63,1.76s4.9,4.13,7.94,5.81c1,.58-5.34,7.87-9.65,10.18a11.56,11.56,0,0,1-7.48.57c-5.78-1.94-13.83-9.52-14.59-11.74C570.1,121.32,573.94,119.93,573.25,110.33Z" transform="translate(-49.09 -61.93)" style="fill:#fff"/><path d="M600.92,125.45a41.1,41.1,0,0,0-5.66-4.52c-1.76-1.15-3.74-1.32-5.78-1.57a30.37,30.37,0,0,1-14.64-6.26c-.05,0-.1,0-.06.08a25,25,0,0,0,11.83,6.18c2.41.54,5.07.51,7.31,1.63,2.45,1.23,4.45,3.29,6.78,4.74A.18.18,0,0,0,600.92,125.45Z" transform="translate(-49.09 -61.93)" style="fill:#f4f3e4"/><path d="M592.7,132.93a48.62,48.62,0,0,1-5.4,0c-2.09-.3-4.07-1.79-5.75-3-3.18-2.23-6-4.92-9-7.42,0,0-.05,0,0,0a54.87,54.87,0,0,0,10.24,8.7,11.89,11.89,0,0,0,4.16,2,22.56,22.56,0,0,0,5.74-.24S592.76,132.93,592.7,132.93Z" transform="translate(-49.09 -61.93)" style="fill:#f4f3e4"/><path d="M597.91,127.35c-3.16-2.44-6.56-3.67-10.34-4.83A53.29,53.29,0,0,1,575.38,117a0,0,0,0,0,0,.05,45.21,45.21,0,0,0,10.74,5.27c1.84.62,3.73,1.11,5.55,1.78a25.74,25.74,0,0,1,6.15,3.47A.11.11,0,0,0,597.91,127.35Z" transform="translate(-49.09 -61.93)" style="fill:#f4f3e4"/><path d="M595.73,130.07a21.77,21.77,0,0,1-11.24-2.59c-3.56-1.9-6.58-4.65-9.66-7.23,0,0-.08,0-.05.07,6,5.64,12.36,10.5,21,10A.11.11,0,1,0,595.73,130.07Z" transform="translate(-49.09 -61.93)" style="fill:#f4f3e4"/><path d="M586.89,134.18c6.28,1.33,10.53,7.13,16.78,8.45,6.57,1.39,5.48-6,4-9.78a19.26,19.26,0,0,0-7.1-8.66c-.12-.09,0-.31.15-.23a19.62,19.62,0,0,1,7.54,8.68c1.27,2.81,2.77,7.62.06,10.09s-7.11.32-9.73-1.18c-4-2.3-7.46-5.3-11.84-6.94C586.49,134.52,586.64,134.13,586.89,134.18Z" transform="translate(-49.09 -61.93)" style="fill:#fff"/><path d="M613.5,130s4.63,5.1,9.21,10.09c2.44,2.66,4.87,5.3,6.57,7.11,1.35,1.43,2.25,2.36,2.33,2.37.4,0,2.23-.33,3,.41s1.42-.61,1.5-.7-1.2-.5-2.37-1.27a5.26,5.26,0,0,1-1.26-1.08,15.53,15.53,0,0,1-2.05-3.87,25.7,25.7,0,0,0-2-2c-3.85-3.56-11.81-10.57-12.19-10.81A5.06,5.06,0,0,0,613.5,130Z" transform="translate(-49.09 -61.93)" style="fill:#1a2c6d"/><path d="M641.07,143c0,1.41,1.6,3.42,4.59,3.83s5.06-.91,5.3-3-1.67-4.31-4.24-4.67C642.07,138.54,641.09,141.6,641.07,143Zm5.49-2.94a3.59,3.59,0,0,1,3.26,3.58c-.18,1.6-1.77,2.62-4.07,2.3s-3.53-1.86-3.52-2.94S643,139.58,646.56,140.07Z" transform="translate(-49.09 -61.93)" style="fill:#1a2c6d"/><path d="M634.46,152.94a11.88,11.88,0,0,0,3,5.23c1.76,1.7,5.21,4.35,7.69,2.23s-.69-5.73-2.29-7.6c-1.75-2.06-5.7-5.22-7.84-3.53C634.07,150,634.22,151.53,634.46,152.94Zm1.34-2.77c1.68-1.22,5.07,1.61,6.4,3.17s4.12,4.75,2.23,6.36-5-1-6.33-2.28a10.89,10.89,0,0,1-2.45-4C635.23,152,635.28,150.54,635.8,150.17Z" transform="translate(-49.09 -61.93)" style="fill:#1a2c6d"/><path d="M622.71,140.13c2.44,2.66,4.87,5.3,6.57,7.11l4.46.81a5.26,5.26,0,0,1-1.26-1.08,15.53,15.53,0,0,1-2.05-3.87,25.7,25.7,0,0,0-2-2C626.63,140.76,624.69,140.48,622.71,140.13Z" transform="translate(-49.09 -61.93)" style="fill:#1a2c6d;mix-blend-mode:multiply"/><path d="M610.09,137.82c.25,0,22.26,5.8,22.57,5.79s2.89-1.06,4.6-1a39,39,0,0,1,4.53.38,5.14,5.14,0,0,1,.17,1.68,25.14,25.14,0,0,0-3.41-.47c-1.59,0-5.12,1.2-6.36,3-.09.14-19.76-6.22-20.9-7A4.11,4.11,0,0,1,610.09,137.82Z" transform="translate(-49.09 -61.93)" style="fill:#1a2c6d"/><path d="M629.34,144.11l.06,0a.48.48,0,0,1,.46.07l0,0a.57.57,0,1,1-.57-.08Z" transform="translate(-49.09 -61.93)" style="fill:#1a2c6d;mix-blend-mode:multiply"/><path d="M673,175.07c-7.3-3.56-15.1-8.89-21.63-13.29-3.32-2.24.24-11.26,5.69-10.41,13.44,2.08,26.79,3.12,33.72,11.53,4.08,4.95,5.8,6.53,4.26,10.24C692.44,179.49,684.71,180.78,673,175.07Z" transform="translate(-49.09 -61.93)" style="fill:#e9ab9e"/><path d="M664.06,152.61l-10.65-2.51a25.88,25.88,0,0,0-8.67-3.91c-4.52-.92-11.19,1-11.91,4.45s1.1,2.53,3,3,5.74,4.16,8.86,4.52c0,0,.94.55,3.61,1.94s11.2,6.46,11.2,6.46S667.11,161.38,664.06,152.61Z" transform="translate(-49.09 -61.93)" style="fill:#e9ab9e"/><path d="M692.15,171.81a1.8,1.8,0,0,0-2.51-.62,1.37,1.37,0,0,0,.07,2.3c.68.42,1.7-.25,1.25-1.08-.07-.13-.25,0-.21.14.13.53-.56.65-.83.34a.77.77,0,0,1-.08-.89.91.91,0,0,1,1.17-.32,1.35,1.35,0,0,1,.81,1,1.86,1.86,0,0,1-.54,1.35c-.08.08,0,.23.12.19A1.82,1.82,0,0,0,692.15,171.81Z" transform="translate(-49.09 -61.93)" style="fill:#c27c88"/><path d="M693,165.63a23.88,23.88,0,0,0-10.52-9.15c-5.15-2.21-11.08-3.1-16.6-3.88-.05,0-.06.07,0,.08,5.25,1.19,10.53,2.12,15.56,4.1,4.8,1.9,7.89,5.37,11.37,9A.13.13,0,0,0,693,165.63Z" transform="translate(-49.09 -61.93)" style="fill:#c27c88"/><rect x="452.78" y="137.66" width="199.03" height="6.45" style="fill:#976572"/><path d="M594.88,128.4c-.24-2.48-.32-5.37-1.83-7.49-1.74-2.43-5.15-2.73-7.83-3.35q-12.56-2.86-25.25-5.08c-9.13-1.6-18.28-2.72-27.47-3.83-.1,0-.1.13,0,.14,9.92,1.21,19.86,2.92,29.7,4.71q7.17,1.31,14.31,2.81c4.36.92,9.28,1.49,13.45,3.1,4.95,1.92,4.39,9.45,4.7,13.8q.51,7.22.47,14.45a225.29,225.29,0,0,1-2.57,29.69c0,.17.23.26.27.07C596.13,161.47,596.45,144.58,594.88,128.4Z" transform="translate(-49.09 -61.93)" style="fill:#fff"/><path d="M536.58,107.65c.49.27.38,12.41.11,12.36s-6-.05-6.27-.19-1.08-11.91-.83-12.15S536,107.31,536.58,107.65Z" transform="translate(-49.09 -61.93)" style="fill:#fff"/><line x1="489.43" y1="45.78" x2="478.82" y2="45.77" style="fill:none;stroke:#deb74a;stroke-miterlimit:10;stroke-width:2px"/><line x1="489.86" y1="58.29" x2="479.24" y2="58.29" style="fill:none;stroke:#deb74a;stroke-miterlimit:10;stroke-width:2px"/><polygon points="544.65 104.01 544.15 115.71 543.65 104.01 544.65 104.01" style="fill:#4c60ad"/><path d="M605.07,145.57a14.08,14.08,0,0,1-2.43.05c-1.64,0-3.5-.12-3.5-.12l1.4-16.51c.18,0,1.61,0,3,0,1.18.06,2.28.19,2.45.46C606.32,130.06,605.65,145.37,605.07,145.57Z" transform="translate(-49.09 -61.93)" style="fill:#1a2c6d"/><path d="M603.5,129q-.19,8.31-.86,16.58c-1.64,0-3.5-.12-3.5-.12l1.4-16.51C600.72,129,602.15,129,603.5,129Z" transform="translate(-49.09 -61.93)" style="fill:#1a2c6d;opacity:0.30000000000000004;mix-blend-mode:multiply"/><path d="M517.57,148.63c-.08,0-1.87.07-3.64.05a13,13,0,0,1-3.51-.3c-.56-.43.47-17.55.66-18,.1-.22,2-.27,3.83-.24a21.2,21.2,0,0,1,3.64.23C518.94,130.79,517.74,148.58,517.57,148.63Z" transform="translate(-49.09 -61.93)" style="fill:#1a2c6d"/><path d="M517.57,148.63c-.08,0-1.87.07-3.64.05.24-6.18.53-12.36,1-18.52a21.2,21.2,0,0,1,3.64.23C518.94,130.79,517.74,148.58,517.57,148.63Z" transform="translate(-49.09 -61.93)" style="fill:#1a2c6d;opacity:0.30000000000000004;mix-blend-mode:multiply"/><path d="M598.67,159c-1,2.3-3.59,5-6.17,4.82-5-.32-5.52-11.4-9-14.14s-24.69.11-28.46,1.39-5.13,4-6,8.91c-.65,3.82,3.35,9.4,4.84,18.16a37.59,37.59,0,0,1,.52,8l-33-.21a49.7,49.7,0,0,1,.11-7.72,11.29,11.29,0,0,1,.66-3.17c1.12-2.47,3.67-4.86,3.41-9.94s-7.27-11.39-8.28-13.17-.23-22.18.46-23.47,8.22-7.18,15.52-8,19.94,6.4,27,8.36a95.07,95.07,0,0,0,17,2.8c1.68.08,9.93-8.11,12.37-9.41s10.51-1.71,11.31,2.42S599.64,156.65,598.67,159Z" transform="translate(-49.09 -61.93)" style="fill:#1a2c6d"/><path d="M554.43,186.11l-33-.21a49.7,49.7,0,0,1,.11-7.72h2.86c9.85-.15,19.7-.12,29.56-.07A37.59,37.59,0,0,1,554.43,186.11Z" transform="translate(-49.09 -61.93)" style="fill:#1a2c6d;opacity:0.30000000000000004;mix-blend-mode:multiply"/><path d="M534.48,138.26a1.71,1.71,0,0,1,0,3.42A1.71,1.71,0,0,1,534.48,138.26Z" transform="translate(-49.09 -61.93)" style="fill:#1a2c6d;opacity:0.30000000000000004;mix-blend-mode:multiply"/><path d="M593.25,151.77a1.71,1.71,0,0,1,0,3.42A1.71,1.71,0,0,1,593.25,151.77Z" transform="translate(-49.09 -61.93)" style="fill:#1a2c6d;opacity:0.30000000000000004;mix-blend-mode:multiply"/><path d="M593.25,126.89a1.71,1.71,0,0,1,0,3.42A1.71,1.71,0,0,1,593.25,126.89Z" transform="translate(-49.09 -61.93)" style="fill:#1a2c6d;opacity:0.30000000000000004;mix-blend-mode:multiply"/><path d="M597.87,190.9c0,.43,0,.87,0,1.3-.08,3.76-.51,7.38-1.25,7.42-1.49.07-81.24.7-82.29-.25-.51-.46-.74-3.85-.74-7.33,0-.33,0-.66,0-1,0-3.4.31-6.64.77-7,1.44-1.24,81.24-.86,82.61-.1C597.58,184.25,597.87,187.47,597.87,190.9Z" transform="translate(-49.09 -61.93)" style="fill:#1a2c6d"/><path d="M597.87,190.9c0,.43,0,.87,0,1.3-13,.08-26-.12-39-.12-15.05,0-30.2.42-45.27,0,0-.33,0-.66,0-1,15.06-.46,30.21,0,45.26,0C571.84,191,584.86,190.81,597.87,190.9Z" transform="translate(-49.09 -61.93)" style="fill:#1a2c6d;opacity:0.30000000000000004;mix-blend-mode:multiply"/><path d="M590.19,162.13s.08,4.5.34,4.72,5.22.14,5.55-.29.2-4.62.2-4.62Z" transform="translate(-49.09 -61.93)" style="fill:#1a2c6d"/><rect x="551" y="132.89" width="20.89" height="2.79" style="fill:#fff"/><path d="M618.94,193.91v4.59a1.08,1.08,0,0,1-1.08,1.08H603.23a1.08,1.08,0,0,1-.53-.14,1.09,1.09,0,0,1-.26-.21,1.06,1.06,0,0,1-.29-.73v-4.59a1.08,1.08,0,0,1,1.08-1.08h14.63a1.09,1.09,0,0,1,.84.4,1.35,1.35,0,0,1,.15.26A1,1,0,0,1,618.94,193.91Z" transform="translate(-49.09 -61.93)" style="fill:#4c60ad"/><path d="M604.81,192.83a25.74,25.74,0,0,1-2.66,3.68V196a27.46,27.46,0,0,0,2.36-3.12Z" transform="translate(-49.09 -61.93)" style="fill:#1a2c6d"/><path d="M608.42,192.83a24.31,24.31,0,0,1-5.72,6.61,1.09,1.09,0,0,1-.26-.21,30.11,30.11,0,0,0,5.68-6.4Z" transform="translate(-49.09 -61.93)" style="fill:#1a2c6d"/><path d="M612,192.83a24.39,24.39,0,0,1-5.89,6.75h-.49a30.26,30.26,0,0,0,6.08-6.75Z" transform="translate(-49.09 -61.93)" style="fill:#1a2c6d"/><path d="M615.64,192.83a24.52,24.52,0,0,1-5.88,6.75h-.5a30.55,30.55,0,0,0,6.09-6.75Z" transform="translate(-49.09 -61.93)" style="fill:#1a2c6d"/><path d="M618.85,193.49a24.27,24.27,0,0,1-5.48,6.09h-.5a30.84,30.84,0,0,0,5.83-6.35A1.35,1.35,0,0,1,618.85,193.49Z" transform="translate(-49.09 -61.93)" style="fill:#1a2c6d"/><path d="M618.94,197.31v.55a23,23,0,0,1-2,1.72h-.5A31,31,0,0,0,618.94,197.31Z" transform="translate(-49.09 -61.93)" style="fill:#1a2c6d"/><rect x="613.79" y="191.44" width="20.89" height="2.79" transform="translate(142.31 -358.49) rotate(31.34)" style="fill:#fff"/><path d="M632.6,195.24l-2.39,3.92a1.08,1.08,0,0,1-1.48.36l-12.5-7.61a1.09,1.09,0,0,1-.38-.39,1.35,1.35,0,0,1-.11-.32,1,1,0,0,1,.13-.77l2.39-3.92a1.07,1.07,0,0,1,1.48-.36l12.5,7.61a1.1,1.1,0,0,1,.51.77,1.48,1.48,0,0,1,0,.3A1,1,0,0,1,632.6,195.24Z" transform="translate(-49.09 -61.93)" style="fill:#deb74a"/><path d="M621.09,187a25.38,25.38,0,0,1-4.18,1.76l.29-.48a27.82,27.82,0,0,0,3.64-1.44Z" transform="translate(-49.09 -61.93)" style="fill:#c18c2f"/><path d="M624.17,188.85a24.37,24.37,0,0,1-8.32,2.67,1.35,1.35,0,0,1-.11-.32,30.16,30.16,0,0,0,8.18-2.51Z" transform="translate(-49.09 -61.93)" style="fill:#c18c2f"/><path d="M627.26,190.72a24.23,24.23,0,0,1-8.54,2.7l-.42-.25a30.25,30.25,0,0,0,8.7-2.6Z" transform="translate(-49.09 -61.93)" style="fill:#c18c2f"/><path d="M630.34,192.6a24.68,24.68,0,0,1-8.53,2.71l-.43-.26a30.73,30.73,0,0,0,8.71-2.6Z" transform="translate(-49.09 -61.93)" style="fill:#c18c2f"/><path d="M632.74,194.83a24.43,24.43,0,0,1-7.85,2.36l-.43-.27a30.66,30.66,0,0,0,8.29-2.39A1.48,1.48,0,0,1,632.74,194.83Z" transform="translate(-49.09 -61.93)" style="fill:#c18c2f"/><path d="M630.83,198.14l-.29.47a21.91,21.91,0,0,1-2.57.45l-.42-.26A30.71,30.71,0,0,0,630.83,198.14Z" transform="translate(-49.09 -61.93)" style="fill:#c18c2f"/><rect x="459.52" y="144.1" width="185.54" height="23.87" style="fill:#976572"/><g style="opacity:0.5;mix-blend-mode:multiply"><rect x="459.52" y="144.1" width="185.54" height="9.32" style="fill:#976572"/></g><rect y="345.84" width="199.03" height="6.45" style="fill:#976572"/><rect x="6.75" y="352.28" width="185.54" height="23.87" style="fill:#976572"/><g style="opacity:0.5;mix-blend-mode:multiply"><rect x="6.75" y="352.28" width="185.54" height="9.32" style="fill:#976572"/></g><path d="M205.14,385.39c-4.22,2.59-13.52,1.87-15.6,1.4,0,0-36.26-6.08-46.66-20.86-6.4-9.08-10.1-23.31-9.53-36.3.54-12,7.1-28.61,14.79-11.32,3.43,7.71,7.39,26.23,13.55,34.27,1.34,1.75,20.2,22,36.44,23.63,9.53,1,11.67-.85,13.1,1.38C212.26,379.21,210.26,382.24,205.14,385.39Z" transform="translate(-49.09 -61.93)" style="fill:#e9ab9e"/><path d="M148.26,368a1.72,1.72,0,0,1,2-1.48,1.31,1.31,0,0,1,.79,2.05c-.44.62-1.59.41-1.5-.48,0-.14.22-.1.24,0,.07.51.73.36.85,0a.75.75,0,0,0-.26-.82.88.88,0,0,0-1.15.17,1.27,1.27,0,0,0-.32,1.22,1.75,1.75,0,0,0,1,1c.1.05.06.22,0,.21A1.74,1.74,0,0,1,148.26,368Z" transform="translate(-49.09 -61.93)" style="fill:#c27c88"/><path d="M179,386c-2.82-.72-27.06-7.17-35.63-17.81S129.71,342.87,133,325.37c2.18-11.69,5.1-19.77,9.84-16.18,2.35,1.78,6,7.16,8.56,15,5.29,16.3,8.75,24,11,26.79s22.12,18.3,24.13,19.46S181.12,386.54,179,386Z" transform="translate(-49.09 -61.93)" style="fill:#d67e5a"/><path d="M183.6,367.44c-.71-.11-3.76,8.87-4.89,10.37s-5.53,6.75-5.15,7.25,6.53,2.57,7.34,2.19,4.85-6,5.94-8.31,1.78-7.82,1.41-8.5A14.36,14.36,0,0,0,183.6,367.44Z" transform="translate(-49.09 -61.93)" style="fill:#cc4d35"/><path d="M125.39,300.9c12.66-.93,20.21,10.5,25.31,24.86,6.64,18.66,12.81,78.54,11.07,82H85c-1.34-1.84,11.66-69.38,18.58-86.81C106.29,314.06,114.4,301.7,125.39,300.9Z" transform="translate(-49.09 -61.93)" style="fill:#d67e5a"/><path d="M152.21,330c.7,2.7,1.36,5.38,1.94,8.07.09-.88.19-1.76.2-2.65,0-.17.24-.16.26,0a16.65,16.65,0,0,1,0,5.13c.64,3.4,5,35.32,5.14,38.83,0,.22-.34.28-.38,0-1.32-6.92-6-42.45-7.54-49.33C151.82,329.91,152.16,329.81,152.21,330Z" transform="translate(-49.09 -61.93)" style="fill:#cc4d35"/><path d="M146.16,293.17,141,309.23v0l-.72,2.25s-.23,6.5-5.39,6.05c-8.8-.76-12.74-11-13-12.37-.14-.71,1.16-6.61,2.46-12.21,1.23-5.34,2.47-10.4,2.47-10.4l2.16,1.18Z" transform="translate(-49.09 -61.93)" style="fill:#e9ab9e"/><path d="M146.16,293.17,141,309.23v0A32.89,32.89,0,0,1,127.8,298.8a31,31,0,0,1-3.46-5.82c1.23-5.34,2.47-10.4,2.47-10.4l2.16,1.18Z" transform="translate(-49.09 -61.93)" style="fill:#c27c88"/><path d="M158.83,266.71a14.39,14.39,0,0,1,3.47,6.74c.61,3.78-4.25,12.31-4.25,12.31Z" transform="translate(-49.09 -61.93)" style="fill:#1a2c6d"/><path d="M131.64,261c-5.59,6.14-8.76,25.12-5.32,33.07,2.37,5.44,10.1,9.46,17,9a12.29,12.29,0,0,0,8.33-3.67c7.08-7.48,10.37-30,7-34.78C152.83,256.09,138.47,253.44,131.64,261Z" transform="translate(-49.09 -61.93)" style="fill:#e9ab9e"/><path d="M145.48,282.25c0-.05-.11,0-.12.09-.26,1.22-.76,2.57-2,2.7,0,0,0,.07,0,.07C144.79,285.25,145.43,283.45,145.48,282.25Z" transform="translate(-49.09 -61.93)" style="fill:#1a2c6d"/><path d="M144.71,280.72c-1.91-.62-3,3.25-1.25,3.83S146.31,281.25,144.71,280.72Z" transform="translate(-49.09 -61.93)" style="fill:#1a2c6d"/><path d="M152.88,284.43s.08.08.07.13c-.39,1.19-.62,2.61.35,3.32,0,0,0,.09,0,.07C152,287.38,152.33,285.49,152.88,284.43Z" transform="translate(-49.09 -61.93)" style="fill:#1a2c6d"/><path d="M154.31,283.49c2,.4,1,4.31-.81,3.94S152.66,283.14,154.31,283.49Z" transform="translate(-49.09 -61.93)" style="fill:#1a2c6d"/><path d="M142.21,293.22c.2.36.38.83.8,1a3.21,3.21,0,0,0,1.38.07,0,0,0,0,1,0,.08,1.67,1.67,0,0,1-1.71.21,1.32,1.32,0,0,1-.63-1.33C142.08,293.16,142.18,293.17,142.21,293.22Z" transform="translate(-49.09 -61.93)" style="fill:#c27c88"/><path d="M143.69,278.51a15.07,15.07,0,0,0,1.65-.09A2.77,2.77,0,0,0,147,278a.86.86,0,0,0,.15-1,2.12,2.12,0,0,0-2-.8,3.12,3.12,0,0,0-2.08.8A.9.9,0,0,0,143.69,278.51Z" transform="translate(-49.09 -61.93)" style="fill:#1a2c6d"/><path d="M156.37,282a15.57,15.57,0,0,1-1.42-.84,2.66,2.66,0,0,1-1.29-1.14.84.84,0,0,1,.33-1,2.1,2.1,0,0,1,2.13.2,3.07,3.07,0,0,1,1.49,1.66A.91.91,0,0,1,156.37,282Z" transform="translate(-49.09 -61.93)" style="fill:#1a2c6d"/><path d="M147.27,291.89S145.5,294,143.76,293c-1.31-.8.33-3.44.33-3.44A6.46,6.46,0,0,0,147.27,291.89Z" transform="translate(-49.09 -61.93)" style="fill:#fff"/><path d="M143.94,289.58a4.26,4.26,0,0,0,2.2,2.6,5.64,5.64,0,0,0,1.45.49l.29.05.28,0a.3.3,0,0,0,.31-.2h0a.5.5,0,0,0,0-.12h0l0-.11c.29-.91.61-2.34.61-2.34.28.26,1.78,1.53,1.89,1a63.27,63.27,0,0,0,2-12.8c0-.14-.2-.17-.22,0-1,3.87-1.37,7.89-2.34,11.79a7.61,7.61,0,0,0-1.76-1.14c-.14,0-.55,2.78-.72,3.18a.06.06,0,0,1,0,0,5.89,5.89,0,0,1-3.84-2.52C144,289.41,143.9,289.47,143.94,289.58Z" transform="translate(-49.09 -61.93)" style="fill:#c27c88"/><path d="M126.22,280.75c1.69,1.07,5.85-10.63,5.85-10.63s10.23-1.34,12.53-5.39c0,0,1.77,4.75,4.77,6.95s13.64,3.21,14.7,2.76c.77-.33,1.58-11.3-5-16.66-4.35-3.54-10.19-3.7-16.94-1.14,0,0-8.76-1-12.81,4S123.32,278.9,126.22,280.75Z" transform="translate(-49.09 -61.93)" style="fill:#1a2c6d"/><path d="M158.5,274.75c-3.81-.56-8.31-.84-10.75-4.22a23.28,23.28,0,0,1-3.37-8.38.36.36,0,0,0-.7.09,14.86,14.86,0,0,0,3.9,9.53c2.73,2.87,7.31,2.85,11,3.12C158.72,274.9,158.64,274.77,158.5,274.75Z" transform="translate(-49.09 -61.93)" style="fill:#1a2c6d"/><path d="M128.41,281s-1.64-7.52-4.88-7.17-3.71,10.06-1.1,12.5a3.41,3.41,0,0,0,4.93.07Z" transform="translate(-49.09 -61.93)" style="fill:#e9ab9e"/><path d="M123.46,276.63s-.08,0,0,.07c1.81,1.79,2.11,4.28,2,6.7a1.89,1.89,0,0,0-2.41-1.56c-.07,0-.05.13,0,.14a2.1,2.1,0,0,1,1.85,1.57,9.69,9.69,0,0,1,.3,2.15c0,.24.42.28.44,0v-.06C126.85,282.92,126.32,278.15,123.46,276.63Z" transform="translate(-49.09 -61.93)" style="fill:#c27c88"/><path d="M196.07,373.62c-6.66-1.77-26.11.22-35.64,8.11s-29.93,8.33-29.93,8.33l10.94,15.25-16.31-11.05S113.74,402.7,111,408s-5.6,16.65-9.85,17.28c0,0,32.5,13.37,57.37,10.5,0,0,10.3-25.6,20.2-27.78s17.05-20.73,18.8-23.85,5.38-7.3,8.25-7.65S201.93,375.19,196.07,373.62Z" transform="translate(-49.09 -61.93)" style="fill:#fff"/><path d="M112.53,376.21c-1.43-1.69-6.82-2.7-7.39-2.74s3.42,4.63,4.42,5c1.71.62,5.57,3.54,6.42,3.07C116.46,381.27,115.16,379.31,112.53,376.21Z" transform="translate(-49.09 -61.93)" style="fill:#e9ab9e"/><path d="M136.7,400.57s-4.63-5.1-9.21-10.09c-2.45-2.66-4.87-5.29-6.57-7.1a30,30,0,0,0-2.34-2.37c-.39-.05-2.22.33-3-.41s-1.43.61-1.51.7,1.21.5,2.38,1.27a5.67,5.67,0,0,1,1.26,1.08,15.88,15.88,0,0,1,2,3.87,22.93,22.93,0,0,0,2,2c3.85,3.56,11.81,10.58,12.19,10.81A5,5,0,0,0,136.7,400.57Z" transform="translate(-49.09 -61.93)" style="fill:#4c60ad"/><path d="M109.12,387.61c0-1.41-1.59-3.42-4.58-3.83s-5.06.91-5.3,3,1.67,4.3,4.24,4.66C108.12,392.08,109.1,389,109.12,387.61Zm-5.49,2.94a3.58,3.58,0,0,1-3.25-3.58c.18-1.6,1.77-2.61,4.06-2.3s3.54,1.86,3.52,2.94S107.2,391.05,103.63,390.55Z" transform="translate(-49.09 -61.93)" style="fill:#4c60ad"/><path d="M115.74,377.68a11.82,11.82,0,0,0-3-5.23c-1.75-1.7-5.21-4.35-7.69-2.23s.69,5.73,2.29,7.6c1.76,2.06,5.7,5.22,7.85,3.53C116.12,380.62,116,379.09,115.74,377.68Zm-1.34,2.77c-1.68,1.22-5.07-1.61-6.41-3.17s-4.12-4.75-2.23-6.36,5,1,6.34,2.28a11,11,0,0,1,2.45,4C115,378.58,114.91,380.08,114.4,380.45Z" transform="translate(-49.09 -61.93)" style="fill:#4c60ad"/><path d="M127.49,390.48c-2.45-2.66-4.87-5.29-6.57-7.1l-4.46-.81a5.67,5.67,0,0,1,1.26,1.08,15.88,15.88,0,0,1,2,3.87,22.93,22.93,0,0,0,2,2C123.57,389.86,125.51,390.13,127.49,390.48Z" transform="translate(-49.09 -61.93)" style="fill:#4c60ad;mix-blend-mode:multiply"/><path d="M140.11,392.8c-.26,0-22.27-5.8-22.57-5.79s-2.89,1.06-4.6,1a38.76,38.76,0,0,1-4.53-.38,4.88,4.88,0,0,1-.17-1.68,24.59,24.59,0,0,0,3.41.47c1.58,0,5.12-1.2,6.35-3,.1-.14,19.77,6.21,20.91,7A4.15,4.15,0,0,1,140.11,392.8Z" transform="translate(-49.09 -61.93)" style="fill:#4c60ad"/><path d="M120.86,386.51l-.06,0a.48.48,0,0,1-.46-.07l0,0a.57.57,0,1,1,.57.08Z" transform="translate(-49.09 -61.93)" style="fill:#4c60ad;mix-blend-mode:multiply"/><path d="M110.56,305.76c-17,4.43-47.57,31-55,44.68-2.12,3.88,5.1,10.32,6.13,11.13,3.15,2.48,15.12-6.63,19.25-9.7,5.88-4.37,28.44-18.24,32.17-23.16C119.25,320.53,121.43,302.92,110.56,305.76Z" transform="translate(-49.09 -61.93)" style="fill:#e9ab9e"/><path d="M56.19,353.15c.1,3.67,3.67,7.35,8.41,10.67a229.41,229.41,0,0,0,23,13.67c3.15,1.58,11.63-8.64,8.2-12.05-4-3.94-8.32-8.3-11.9-12.24-4.28-4.72-8.83-8.45-14-9.36C64.39,342.86,56.09,349.62,56.19,353.15Z" transform="translate(-49.09 -61.93)" style="fill:#e9ab9e"/><path d="M93.38,363.37l9.75,8.38s.84.56,2,1.53c2.11,1.75,5.34,4.86,6.83,8.55,1.16,2.9,6.25,9.43,2.85,9.7-5.23.41-13.49-5.27-18.1-10.16l-12.63-5.52S85.52,365.48,93.38,363.37Z" transform="translate(-49.09 -61.93)" style="fill:#e9ab9e"/><path d="M59.48,353.59a1.58,1.58,0,0,1,1.71,1.49,1.21,1.21,0,0,1-1.69,1.11.75.75,0,0,1,.14-1.44c.13,0,.14.18,0,.22-.44.17-.18.73.18.76a.69.69,0,0,0,.68-.38.82.82,0,0,0-.37-1,1.22,1.22,0,0,0-1.16,0,1.66,1.66,0,0,0-.69,1.07c0,.1-.19.09-.2,0A1.6,1.6,0,0,1,59.48,353.59Z" transform="translate(-49.09 -61.93)" style="fill:#ab8177"/><path d="M113.47,304.56c-14.79,2.75-52.83,32.29-59,44.81-5.28,10.71,32.85,30.41,34.84,30.14,4.6-.64,10.78-12.34,9.91-13.84s-14.24-13.42-15-14.3,20.92-12.12,28.87-20.66S122.84,302.81,113.47,304.56Z" transform="translate(-49.09 -61.93)" style="fill:#d67e5a"/><path d="M97.3,343c3.79-3.61,11-7.94,15.51-10.45.11-.06.22.1.11.17-2.06,1.33-4,2.77-6,4.23a33.8,33.8,0,0,1,3.66-1c.11,0,.17.14.06.18-1.83.55-3.5,1.41-5.27,2.11a.19.19,0,0,1-.13,0c-1.65,1.23-6.23,4-7.94,5.16C97,343.58,97,343.29,97.3,343Z" transform="translate(-49.09 -61.93)" style="fill:#cc4d35"/><path d="M115.67,304.74a.08.08,0,0,0,0,.15c4.85,1.36,3.36,11,2.44,14.5a39.74,39.74,0,0,1-5.39,11.4c-.09.14.13.26.23.13a31.17,31.17,0,0,0,6.4-15C119.67,312.76,120,305.43,115.67,304.74Z" transform="translate(-49.09 -61.93)" style="fill:#cc4d35"/><path d="M82.09,377.06c.21.36,7.19,3.44,7.88,3.31s8.21-5.06,10.39-14.68c.17-.75-4.2-5-5.14-5s-4.29,7.1-5.52,8.92C88.24,371.79,81.66,376.31,82.09,377.06Z" transform="translate(-49.09 -61.93)" style="fill:#cc4d35"/><path d="M124.93,429.19l.16.1a19.25,19.25,0,0,1-1.75,2.46c-.1.11-.26,0-.2-.16.45-.88.88-1.77,1.31-2.66Z" transform="translate(-49.09 -61.93)" style="fill:#f4f3e4"/><path d="M126.33,424.92a4.78,4.78,0,0,0,.8.43c-.41.9-.83,1.78-1.3,2.63l-.71-.44Z" transform="translate(-49.09 -61.93)" style="fill:#f4f3e4"/><path d="M128.77,420.85l.27.21c-.39.86-.77,1.74-1.16,2.61a3.27,3.27,0,0,0-.58-.34l-.17-.09c.42-.88.84-1.76,1.29-2.63C128.54,420.68,128.65,420.77,128.77,420.85Z" transform="translate(-49.09 -61.93)" style="fill:#f4f3e4"/><path d="M130.63,416.59a3.12,3.12,0,0,0,.49.47l-.55.95c-.26.46-.51.94-.75,1.42l-.15-.13c-.13-.11-.25-.22-.39-.32C129.7,418.17,130.16,417.37,130.63,416.59Z" transform="translate(-49.09 -61.93)" style="fill:#f4f3e4"/><path d="M132.88,413.23c.17.16.34.31.52.45-.47.61-.91,1.24-1.34,1.89l-.38-.36-.1-.11C132,414.47,132.43,413.84,132.88,413.23Z" transform="translate(-49.09 -61.93)" style="fill:#f4f3e4"/><path d="M135.32,410.27l.46.53c-.47.51-.91,1-1.35,1.55l-.5-.45C134.36,411.34,134.83,410.8,135.32,410.27Z" transform="translate(-49.09 -61.93)" style="fill:#f4f3e4"/><path d="M138.21,407.37l.43.5q-.87.81-1.68,1.65c-.15-.17-.32-.33-.48-.49C137,408.46,137.61,407.91,138.21,407.37Z" transform="translate(-49.09 -61.93)" style="fill:#f4f3e4"/><path d="M141.3,405.51c-.5.41-1,.84-1.47,1.26l-.42-.43c.52-.43,1-.84,1.58-1.24C141.23,404.92,141.53,405.32,141.3,405.51Z" transform="translate(-49.09 -61.93)" style="fill:#f4f3e4"/><rect x="66.46" y="389.49" width="0.43" height="9" transform="translate(-154.45 -28.6) rotate(-15.89)" style="fill:#4c60ad"/><path d="M66.32,389.41a.91.91,0,1,1-1.13-.62A.91.91,0,0,1,66.32,389.41Z" transform="translate(-49.09 -61.93)" style="fill:#d67e5a"/><rect x="78.08" y="398.52" width="9" height="0.43" transform="translate(-231.06 27.25) rotate(-28.82)" style="fill:#4c60ad"/><path d="M87,397.37a.91.91,0,1,1,.36-1.24A.91.91,0,0,1,87,397.37Z" transform="translate(-49.09 -61.93)" style="fill:#d67e5a"/><rect x="58.6" y="394.67" width="0.43" height="9" transform="translate(-359.44 174.4) rotate(-57.82)" style="fill:#4c60ad"/><path d="M55.49,396a.9.9,0,0,1,.29,1.25.91.91,0,1,1-.29-1.25Z" transform="translate(-49.09 -61.93)" style="fill:#d67e5a"/><path d="M83.9,403.66H58a13.35,13.35,0,0,1,25.94,0Z" transform="translate(-49.09 -61.93)" style="fill:#deb74a"/><rect x="8.24" y="341.73" width="27.19" height="4.11" style="fill:#f5c1b8"/><rect x="62.52" y="389.51" width="0.43" height="9" transform="matrix(0.86, -0.51, 0.51, 0.86, -241.05, 24.99)" style="fill:#4c60ad"/><path d="M61.23,389.67a.91.91,0,1,1-1.25-.32A.91.91,0,0,1,61.23,389.67Z" transform="translate(-49.09 -61.93)" style="fill:#d67e5a"/><rect x="69.69" y="390.27" width="9" height="0.43" transform="translate(-372.09 343.65) rotate(-81.42)" style="fill:#4c60ad"/><path d="M75.76,386.17a.92.92,0,0,1-1,.77.92.92,0,1,1,1-.77Z" transform="translate(-49.09 -61.93)" style="fill:#d67e5a"/><rect x="69.85" y="391.8" width="0.43" height="9" transform="translate(-103.61 -48.31) rotate(-8.01)" style="fill:#4c60ad"/><path d="M70.34,391.71a.91.91,0,1,1-1.8.26.91.91,0,1,1,1.8-.26Z" transform="translate(-49.09 -61.93)" style="fill:#d67e5a"/><rect x="75.16" y="396.73" width="9" height="0.43" transform="translate(-295.52 95.06) rotate(-42.3)" style="fill:#4c60ad"/><path d="M83.6,394.59a.91.91,0,1,1,.06-1.29A.92.92,0,0,1,83.6,394.59Z" transform="translate(-49.09 -61.93)" style="fill:#d67e5a"/><rect x="167.58" y="317.27" width="3.58" height="28.66" style="fill:#fff"/><path d="M226,407.85h-15.1a1.42,1.42,0,0,1-1.4-1.67l.11-.61,0-.15.53-3,0-.19.52-2.93,0-.21.52-2.94,0-.23.51-2.91,0-.26.52-2.92,0-.26.52-2.91,0-.29.51-2.91.06-.3,0-.3a1.42,1.42,0,0,1,1.4-1.17h6.86a1.42,1.42,0,0,1,1.4,1.17l.14.8.08.42.58,3.29.07.41.58,3.29.07.4.58,3.28.07.39.59,3.29.06.38.58,3.28.07.36.58,3.3.06.34v.05A1.42,1.42,0,0,1,226,407.85Z" transform="translate(-49.09 -61.93)" style="fill:#f5c1b8"/><g style="opacity:0.30000000000000004;mix-blend-mode:multiply"><path d="M223.51,384.12a33.84,33.84,0,0,1-6.7-2.39h.91a39.29,39.29,0,0,0,5.71,2Z" transform="translate(-49.09 -61.93)" style="fill:#f5c1b8"/><path d="M224.16,387.82a35.36,35.36,0,0,1-10.64-4.32l.06-.3a39.54,39.54,0,0,0,10.51,4.21Z" transform="translate(-49.09 -61.93)" style="fill:#f5c1b8"/><path d="M224.81,391.51A35.33,35.33,0,0,1,213,386.7l0-.29a39.79,39.79,0,0,0,11.73,4.7Z" transform="translate(-49.09 -61.93)" style="fill:#f5c1b8"/><path d="M225.46,395.18a35.2,35.2,0,0,1-13.06-5.31l0-.26a39.9,39.9,0,0,0,12.95,5.18Z" transform="translate(-49.09 -61.93)" style="fill:#f5c1b8"/><path d="M226.11,398.85a35.75,35.75,0,0,1-14.28-5.8l0-.26a39.62,39.62,0,0,0,14.17,5.68Z" transform="translate(-49.09 -61.93)" style="fill:#f5c1b8"/><path d="M226.76,402.49a35.39,35.39,0,0,1-15.48-6.3l0-.23a39.83,39.83,0,0,0,15.37,6.17Z" transform="translate(-49.09 -61.93)" style="fill:#f5c1b8"/><path d="M227.4,406.13a35.52,35.52,0,0,1-16.68-6.79l0-.21a39.89,39.89,0,0,0,16.58,6.66Z" transform="translate(-49.09 -61.93)" style="fill:#f5c1b8"/><path d="M221.19,407.85h-1.26a35.86,35.86,0,0,1-9.76-5.39l0-.19A39.43,39.43,0,0,0,221.19,407.85Z" transform="translate(-49.09 -61.93)" style="fill:#f5c1b8"/><path d="M213.28,407.85h-.51a35,35,0,0,1-3.15-2.28l0-.15A41.14,41.14,0,0,0,213.28,407.85Z" transform="translate(-49.09 -61.93)" style="fill:#f5c1b8"/></g><rect x="137.24" y="340.98" width="20.89" height="2.79" style="fill:#fff"/><path d="M205.18,402v4.59a1.08,1.08,0,0,1-1.08,1.08H189.47a1.08,1.08,0,0,1-.53-.14,1.09,1.09,0,0,1-.26-.21,1.06,1.06,0,0,1-.29-.73V402a1.08,1.08,0,0,1,1.08-1.08H204.1a1.09,1.09,0,0,1,.84.4,1.35,1.35,0,0,1,.15.26A1,1,0,0,1,205.18,402Z" transform="translate(-49.09 -61.93)" style="fill:#deb74a"/><path d="M191.05,400.93a25.74,25.74,0,0,1-2.66,3.68v-.56a27.46,27.46,0,0,0,2.36-3.12Z" transform="translate(-49.09 -61.93)" style="fill:#c18c2f"/><path d="M194.66,400.93a24.31,24.31,0,0,1-5.72,6.61,1.09,1.09,0,0,1-.26-.21,30.11,30.11,0,0,0,5.68-6.4Z" transform="translate(-49.09 -61.93)" style="fill:#c18c2f"/><path d="M198.27,400.93a24.39,24.39,0,0,1-5.89,6.75h-.49a30.26,30.26,0,0,0,6.08-6.75Z" transform="translate(-49.09 -61.93)" style="fill:#c18c2f"/><path d="M201.88,400.93a24.52,24.52,0,0,1-5.88,6.75h-.5a30.55,30.55,0,0,0,6.09-6.75Z" transform="translate(-49.09 -61.93)" style="fill:#c18c2f"/><path d="M205.09,401.59a24.27,24.27,0,0,1-5.48,6.09h-.5a30.84,30.84,0,0,0,5.83-6.35A1.35,1.35,0,0,1,205.09,401.59Z" transform="translate(-49.09 -61.93)" style="fill:#c18c2f"/><path d="M205.18,405.41V406a23,23,0,0,1-2,1.72h-.5A31,31,0,0,0,205.18,405.41Z" transform="translate(-49.09 -61.93)" style="fill:#c18c2f"/><rect x="203.55" y="400.53" width="20.89" height="2.79" transform="translate(125.22 -113.61) rotate(23.03)" style="fill:#fff"/><path d="M222.62,403.09l-1.8,4.23a1.08,1.08,0,0,1-1.42.57l-13.46-5.73a1.08,1.08,0,0,1-.43-.33,1.1,1.1,0,0,1-.16-.3,1.05,1.05,0,0,1,0-.78l1.8-4.23a1.08,1.08,0,0,1,1.41-.57l13.47,5.73a1.07,1.07,0,0,1,.61.69,1,1,0,0,1,0,.3A1,1,0,0,1,222.62,403.09Z" transform="translate(-49.09 -61.93)" style="fill:#4c60ad"/><g style="mix-blend-mode:multiply"><path d="M210,396.57a26.3,26.3,0,0,1-3.89,2.35l.22-.52a25.89,25.89,0,0,0,3.39-1.95Z" transform="translate(-49.09 -61.93)" style="fill:#4c60ad"/><path d="M213.36,398a24.34,24.34,0,0,1-7.85,3.85,1.1,1.1,0,0,1-.16-.3,30.27,30.27,0,0,0,7.73-3.66Z" transform="translate(-49.09 -61.93)" style="fill:#4c60ad"/><path d="M216.68,399.4a24.4,24.4,0,0,1-8.06,3.9l-.45-.19a30.28,30.28,0,0,0,8.23-3.83Z" transform="translate(-49.09 -61.93)" style="fill:#4c60ad"/><path d="M220,400.81a24.67,24.67,0,0,1-8.05,3.91l-.46-.2a30.24,30.24,0,0,0,8.25-3.83Z" transform="translate(-49.09 -61.93)" style="fill:#4c60ad"/><path d="M222.7,402.67a24.14,24.14,0,0,1-7.43,3.46l-.46-.19a30.78,30.78,0,0,0,7.85-3.57A1,1,0,0,1,222.7,402.67Z" transform="translate(-49.09 -61.93)" style="fill:#4c60ad"/><path d="M221.29,406.22l-.22.51a21.13,21.13,0,0,1-2.48.81l-.46-.19A32.1,32.1,0,0,0,221.29,406.22Z" transform="translate(-49.09 -61.93)" style="fill:#4c60ad"/></g><path d="M81.64,398c-2,.43-4.25.28-6.31.5-1.57.17-4.19.38-5.19,1.71a3.55,3.55,0,0,0-.45,2.52,5.6,5.6,0,0,0,1.22,2.89c1.51,1.84,4,2.31,6.68,2.44,2.36.12,4.75-.13,7.11-.1.47,0,.5-.6,0-.61-1.69,0-3.42.16-5.12.16-2.46,0-5.36,0-7.17-1.4a5.12,5.12,0,0,1-1.85-2.65,3.85,3.85,0,0,1,.06-2.83c.76-1.33,3.82-1.45,5.2-1.58a51.67,51.67,0,0,0,6-.48c.47-.1.3-.66-.16-.57Z" transform="translate(-49.09 -61.93)" style="fill:#fff"/><path d="M91.26,393.7a5.74,5.74,0,0,1-2.69-1.51,1.39,1.39,0,0,1-.12-1.91,3.52,3.52,0,0,1,1.77-.74,22.05,22.05,0,0,1,5.43-.27,48.11,48.11,0,0,1,5.41.56c.44.08.66-.52.21-.59a46,46,0,0,0-6.58-.6,14.63,14.63,0,0,0-5.79.67c-1.45.61-1.86,1.89-1.18,2.95a5.67,5.67,0,0,0,3.15,2c.42.12.82-.42.39-.55Z" transform="translate(-49.09 -61.93)" style="fill:#fff"/><path d="M80.86,398.4c-.13.33,2.21,2.43,2.35,4.58s.46,4.81,1,5a33.32,33.32,0,0,0,4.91,0,38.29,38.29,0,0,0,11.52-1.09,7.32,7.32,0,0,0,5.56-5.91,8.47,8.47,0,0,0,.84-2.09c.11-.69-.83-.91-1-1.76s.74-.77.26-2.34-3.8-4.22-4-4.34-.38-1-.53-1.17a16.84,16.84,0,0,0-7.39.95c-2.74,1.23-7.88,4.84-9.42,5.8S81,398,80.86,398.4Z" transform="translate(-49.09 -61.93)" style="fill:#fff"/><path d="M82.73,398.73s0,0,0,0a9,9,0,0,1,2.09,3.78,10.59,10.59,0,0,1,.09,4.31s.06,0,.07,0A7.7,7.7,0,0,0,82.73,398.73Z" transform="translate(-49.09 -61.93)" style="fill:#f4f3e4"/><path d="M105.34,402.51a21.28,21.28,0,0,1-9.71,3.63c-1.67.2-3.34.23-5,.31a32.78,32.78,0,0,0-4.92.55s0,0,0,0c3.51-.59,7-.23,10.53-.74a20.73,20.73,0,0,0,9.15-3.74S105.37,402.49,105.34,402.51Z" transform="translate(-49.09 -61.93)" style="fill:#f4f3e4"/><path d="M102,390.5a15,15,0,0,0-4.59.51,18.82,18.82,0,0,0-4.55,2c-3.16,1.76-6.27,3.59-9.42,5.37,0,0,0,0,0,0,3-1.67,6.09-3.31,9.12-5a23.88,23.88,0,0,1,4.54-2.07,18.39,18.39,0,0,1,4.87-.76S102.07,390.5,102,390.5Z" transform="translate(-49.09 -61.93)" style="fill:#f4f3e4"/><path d="M106.61,399.15a27.88,27.88,0,0,1-9,4.32,36.7,36.7,0,0,1-5,1,44.54,44.54,0,0,0-5,.7s0,0,0,0c1.82-.38,3.67-.38,5.5-.63A34,34,0,0,0,98,403.54a26.63,26.63,0,0,0,8.68-4.35S106.64,399.13,106.61,399.15Z" transform="translate(-49.09 -61.93)" style="fill:#f4f3e4"/><path d="M105.6,397.74a37,37,0,0,1-8.42,4.05c-3.05,1.1-6.26,1.3-9.37,2.15,0,0,0,0,0,0,1.68-.44,3.42-.6,5.12-.88a24.87,24.87,0,0,0,4.69-1.21,31.11,31.11,0,0,0,8-4.08S105.65,397.7,105.6,397.74Z" transform="translate(-49.09 -61.93)" style="fill:#f4f3e4"/><path d="M106,396.53c-1.56.36-3.13.48-4.7.78a28.08,28.08,0,0,0-4.75,1.47,89.15,89.15,0,0,0-9,4s0,0,0,0a99.35,99.35,0,0,1,9.2-3.88,33,33,0,0,1,4.56-1.42,46.38,46.38,0,0,0,4.67-.91C106.06,396.6,106,396.51,106,396.53Z" transform="translate(-49.09 -61.93)" style="fill:#f4f3e4"/><path d="M104.9,394.41a39.51,39.51,0,0,0-9.82,2.23,29.91,29.91,0,0,0-8.1,4.5h0c5-3.86,11.57-5.77,17.9-6.65C105,394.48,105,394.4,104.9,394.41Z" transform="translate(-49.09 -61.93)" style="fill:#f4f3e4"/><path d="M103.26,392.74a36.38,36.38,0,0,1-4.62.73,19.55,19.55,0,0,0-4.23,1.24,34.8,34.8,0,0,0-7.79,4.59s0,0,0,0a50.79,50.79,0,0,1,7.77-4.45A20.42,20.42,0,0,1,99,393.55a28.63,28.63,0,0,0,4.28-.75S103.31,392.73,103.26,392.74Z" transform="translate(-49.09 -61.93)" style="fill:#f4f3e4"/><path d="M424.68,263.4c-2.18,4.48-9.86,15.91-16.92,25.42-.4.53-.78,1.05-1.17,1.56-5.2,6.9-7.55,8.64-9.19,9.23-9,3.23-40.19-27.74-40.63-27.65s-3.71-.66-5.77-.49-11.83-4.69-13.12-5.16-11.88,1.25-13.1-.13,9.74-6.67,13.48-6.77,13.88-.92,19.14.35c2.32.57,25.46,12.23,31.74,14.24.81.25,1.34.35,1.51.25s9.21-15.26,13-19.87c6.9-8.38,18.8-21,25.22-18.6C430.72,236.48,431.7,249,424.68,263.4Z" transform="translate(-49.09 -61.93)" style="fill:#e9ab9e"/><path d="M424.68,263.4c-2.18,4.48-9.86,15.91-16.92,25.42l-1.84-.76A36.51,36.51,0,0,1,389.14,274c.81.25,1.34.35,1.51.25s9.21-15.26,13-19.87c6.9-8.38,18.8-21,25.22-18.6C430.72,236.48,431.7,249,424.68,263.4Z" transform="translate(-49.09 -61.93)" style="fill:#c27c88"/><path d="M388.81,272c0,1.57,13.36,12.56,24.94,10.8,1.6-.24,10.81-16.92,14-24.41,2.69-6.37,5.08-19.6,1.51-23.47-2.92-3.18-15.21,6.82-21.54,13.3S388.81,270.11,388.81,272Z" transform="translate(-49.09 -61.93)" style="fill:#deb74a"/><path d="M422.65,232.55c-7.88,6.54-15.15,32.37-17.89,48.19S400.62,336,402.27,338l78,5.85c3.26-2.08-6.51-38.36-9.31-52.86s-9-45.72-13-50.93-12.82-11.75-18.74-12.14C436.83,227.71,425.52,230.16,422.65,232.55Z" transform="translate(-49.09 -61.93)" style="fill:#deb74a"/><path d="M443.16,233.33c-2.54,4.61-5.27,9.41-9.83,12.11-5.48,3.25-11.44.18-12.76-6.19,0-.07-.11-.05-.1,0,.82,5.57,5,9.58,10.57,7.88s10.37-8.25,12.34-13.72C443.42,233.31,443.23,233.2,443.16,233.33Z" transform="translate(-49.09 -61.93)" style="fill:#c18c2f"/><path d="M412.26,252.89c0-.08-.1-.1-.13,0-.93,2.9-2,5.75-3,8.62.13-1,.28-1.91.49-2.87,0-.21-.27-.34-.33-.11a44.42,44.42,0,0,0-1.18,6.08c-.24.77-.49,1.53-.71,2.31a122.31,122.31,0,0,0-2.88,13.26c-1.65,9.82-2.33,19.77-3.14,29.69a.24.24,0,0,0,.48,0c.89-9.76,1.92-19.52,3.57-29.18q1.21-7.14,3-14.15a.23.23,0,0,0,.08-.16c0-.12,0-.23,0-.34l.06-.24C409.82,261.48,411.36,257.27,412.26,252.89Z" transform="translate(-49.09 -61.93)" style="fill:#c18c2f"/><path d="M415.77,220.61l6.8,15.44v0l.95,2.17s.9,6.43,6,5.45c8.67-1.67,11.53-12.24,11.65-13.64.06-.72-1.85-6.46-3.71-11.89-1.79-5.19-3.54-10.1-3.54-10.1l-2,1.41Z" transform="translate(-49.09 -61.93)" style="fill:#e9ab9e"/><path d="M415.77,220.61l6.8,15.44v0a32.94,32.94,0,0,0,12-11.76,31.92,31.92,0,0,0,2.84-6.15c-1.79-5.19-3.54-10.1-3.54-10.1l-2,1.41Z" transform="translate(-49.09 -61.93)" style="fill:#c27c88"/><path d="M427.3,185.85c5.75,6,9.43,24.88,6.2,32.92-2.22,5.5-9.85,9.72-16.77,9.46a12.31,12.31,0,0,1-8.42-3.45c-7.28-7.29-11.17-29.68-8-34.58C406,181.55,420.27,178.52,427.3,185.85Z" transform="translate(-49.09 -61.93)" style="fill:#e9ab9e"/><path d="M414.28,207.3s.11,0,.12.08c.29,1.22.83,2.56,2,2.66a0,0,0,0,1,0,.07C415.05,210.29,414.36,208.5,414.28,207.3Z" transform="translate(-49.09 -61.93)" style="fill:#1a2c6d"/><path d="M415,205.75c1.89-.67,3.11,3.17,1.35,3.79S413.42,206.32,415,205.75Z" transform="translate(-49.09 -61.93)" style="fill:#1a2c6d"/><path d="M406.24,209.8c0-.05-.08.08-.06.13.41,1.18.69,2.59-.26,3.33,0,0,0,.08,0,.06C407.2,212.72,406.82,210.85,406.24,209.8Z" transform="translate(-49.09 -61.93)" style="fill:#1a2c6d"/><path d="M404.78,208.89c-2,.46-.89,4.34.92,3.92S406.42,208.51,404.78,208.89Z" transform="translate(-49.09 -61.93)" style="fill:#1a2c6d"/><path d="M417.6,218.38c-.2.37-.36.84-.78,1a3.38,3.38,0,0,1-1.38.11s-.06.05,0,.07a1.69,1.69,0,0,0,1.72.17,1.35,1.35,0,0,0,.6-1.35A.07.07,0,0,0,417.6,218.38Z" transform="translate(-49.09 -61.93)" style="fill:#c27c88"/><path d="M416,203.52c-.57,0-1.09,0-1.65-.05a2.7,2.7,0,0,1-1.68-.38.84.84,0,0,1-.18-1,2.12,2.12,0,0,1,2-.85,3.07,3.07,0,0,1,2.11.74A.91.91,0,0,1,416,203.52Z" transform="translate(-49.09 -61.93)" style="fill:#1a2c6d"/><path d="M402.69,207.43c.5-.26.92-.58,1.4-.88s1-.56,1.25-1.17a.82.82,0,0,0-.36-1,2.12,2.12,0,0,0-2.12.25,3.15,3.15,0,0,0-1.45,1.7A.91.91,0,0,0,402.69,207.43Z" transform="translate(-49.09 -61.93)" style="fill:#1a2c6d"/><path d="M416,218.15a1.92,1.92,0,0,1-1.32.31,4.18,4.18,0,0,1-2.21-1.28,6.44,6.44,0,0,0,3.11-2.46,7.19,7.19,0,0,1,.63,1.24C416.56,216.75,416.73,217.7,416,218.15Z" transform="translate(-49.09 -61.93)" style="fill:#1a2c6d"/><path d="M416,218.15a1.92,1.92,0,0,1-1.32.31,3.88,3.88,0,0,1,.29-1.14,3.25,3.25,0,0,1,1.24-1.36C416.56,216.75,416.73,217.7,416,218.15Z" transform="translate(-49.09 -61.93)" style="fill:#c27c88"/><path d="M415.76,214.79a4.19,4.19,0,0,1-2.13,2.65,5.12,5.12,0,0,1-1.43.53l-.29.06-.27,0a.33.33,0,0,1-.33-.19h0l0-.13h0l0-.1c-.31-.91-.67-2.33-.67-2.33-.28.28-1.74,1.58-1.86,1.09a63.53,63.53,0,0,1-2.31-12.74.12.12,0,0,1,.23,0c1.13,3.84,1.57,7.85,2.65,11.72a7.19,7.19,0,0,1,1.73-1.18c.14,0,.63,2.75.8,3.15a.06.06,0,0,0,0,0,5.91,5.91,0,0,0,3.78-2.62C415.69,214.62,415.81,214.67,415.76,214.79Z" transform="translate(-49.09 -61.93)" style="fill:#c27c88"/><path d="M433,202.57c-2.91,1.9-6.23-.69-9.82-4.89-2.1-2.45-4.32-8.38-4.32-8.38s-5.85,7.83-10.49,9.81-10.46.19-12.12-3.4c-1.42-3.07,1.54-9.63,8-13.45,4.51-2.66,14.28-3.12,20.36,0,0,0,7.29-.33,8.77,4.52S436.3,200.4,433,202.57Z" transform="translate(-49.09 -61.93)" style="fill:#1a2c6d"/><path d="M432.59,202.33c-3.56,3-8.93-1.92-10.72-5s-2.37-7.22-3.51-10.72c0,0,0,0,0,0,.71,4.61,1.87,10.31,5.36,13.67,2.2,2.12,6.34,5.34,9.07,2.27C432.85,202.42,432.71,202.24,432.59,202.33Z" transform="translate(-49.09 -61.93)" style="fill:#1a2c6d"/><path d="M433.55,185c-2-2.4-6.51-3.41-9.43-2.67,0,0,0,.05,0,.05,3.69-.52,9.17,1.13,10.06,5.11.72,3.17,1.33,7.53.62,10.73a.06.06,0,1,0,.12,0c.7-2.28.31-4.56.07-6.89C434.79,189.32,435,186.64,433.55,185Z" transform="translate(-49.09 -61.93)" style="fill:#1a2c6d"/><path d="M425.42,182.35c-6.43-3.28-17.46-5-23.32.18,0,0,0,0,0,0,6.54-4.9,16.21-2.27,23.17.14C425.5,182.77,425.6,182.45,425.42,182.35Z" transform="translate(-49.09 -61.93)" style="fill:#1a2c6d"/><path d="M431.07,205.8s1.43-7.55,4.68-7.29,4,10,1.43,12.47a3.43,3.43,0,0,1-4.93.2Z" transform="translate(-49.09 -61.93)" style="fill:#e9ab9e"/><path d="M435.89,201.29c.05,0,.09,0,.06.08-1.76,1.83-2,4.33-1.86,6.75a1.89,1.89,0,0,1,2.36-1.63.07.07,0,0,1,0,.14,2.1,2.1,0,0,0-1.8,1.62,9.8,9.8,0,0,0-.25,2.16c0,.24-.4.29-.43,0a.13.13,0,0,0,0-.06C432.67,207.67,433.08,202.89,435.89,201.29Z" transform="translate(-49.09 -61.93)" style="fill:#c27c88"/><path d="M356.13,230c6.67-.19,13.57-.53,19.83,2.23,5.38,2.37,7.1,7,7.43,12.57.44,7.4.56,14.88.6,22.29,0,7.2-.51,14.32-3.18,21.07-.11.26-.53.15-.43-.12,4.45-12.32,2.76-26.21,2.39-39-.18-6.13-.23-12.69-6.51-15.78s-13.44-3.05-20.13-3C356,230.21,356,230,356.13,230Z" transform="translate(-49.09 -61.93)" style="fill:#fff"/><polygon points="332.71 215.25 332.21 226.94 331.71 215.25 332.71 215.25" style="fill:#c18c2f"/><path d="M373.2,309.57s.09,1.64.33,3a3.37,3.37,0,0,0,.67,1.89c.75.41,6.08.41,6.58,0a5.44,5.44,0,0,0,.61-1.95c.26-1.38.47-3,.47-3Z" transform="translate(-49.09 -61.93)" style="fill:#4c60ad"/><path d="M373.2,309.57s.09,1.64.33,3c2.57,0,5.53,0,7.86-.06.26-1.38.47-3,.47-3Z" transform="translate(-49.09 -61.93)" style="fill:#4c60ad;opacity:0.5;mix-blend-mode:multiply"/><path d="M324.28,311.34l9.9-.16c14.2-.22,39.09-.61,43.1-.61,5.66,0,10.58.77,11.45-3.23a50.23,50.23,0,0,0,.88-9.94c0-.13,0-.25,0-.38s0-.3,0-.44c-.29-4.19-2.83-6.87-5.8-7.34-1.79-.28-19.49-.72-35-1-12-.23-22.72-.38-23.81-.31l-.24,8.46,0,.88Z" transform="translate(-49.09 -61.93)" style="fill:#4c60ad"/><path d="M324.68,297.23c16.14.4,50.54.15,64.92-.22,0-.15,0-.3,0-.44-14.38-.37-48.74-.62-64.88-.22Z" transform="translate(-49.09 -61.93)" style="fill:#4c60ad;opacity:0.5;mix-blend-mode:multiply"/><path d="M324.28,311.34l9.9-.16c.51-5.91,1.87-12.39,5.56-17.15a17.81,17.81,0,0,1,9-5.82c-12-.23-22.72-.38-23.81-.31l-.24,8.46,0,.88Z" transform="translate(-49.09 -61.93)" style="fill:#4c60ad;opacity:0.5;mix-blend-mode:multiply"/><path d="M293.4,262.94a7,7,0,0,0,2.79,1.07,17.74,17.74,0,0,0,3.59.56c.37-.13,0-23,0-23s-2.08.17-3.88.51c-1.2.23-2.29.53-2.53.92C292.2,244.83,292.65,262.07,293.4,262.94Z" transform="translate(-49.09 -61.93)" style="fill:#4c60ad"/><path d="M295.9,242.08c.11,7.31.18,14.62.29,21.93a17.74,17.74,0,0,0,3.59.56c.37-.13,0-23,0-23S297.7,241.74,295.9,242.08Z" transform="translate(-49.09 -61.93)" style="fill:#4c60ad;opacity:0.5;mix-blend-mode:multiply"/><path d="M375.94,277.42c.12.88.33,1.65.67,1.83.9.5,8.45.66,9.11.3a5.2,5.2,0,0,0,1-2.07c.43-1.3.78-2.72.78-2.72l-11.72-.51A25.16,25.16,0,0,0,375.94,277.42Z" transform="translate(-49.09 -61.93)" style="fill:#4c60ad"/><path d="M375.94,277.42c3.75.05,7.89.07,10.76.06.43-1.3.78-2.72.78-2.72l-11.72-.51A25.16,25.16,0,0,0,375.94,277.42Z" transform="translate(-49.09 -61.93)" style="fill:#4c60ad;opacity:0.5;mix-blend-mode:multiply"/><path d="M309,309.57s.09,1.63.33,3c.15.92.37,1.73.67,1.9.75.41,6.08.41,6.58,0a5.35,5.35,0,0,0,.6-1.92c.27-1.38.48-3,.48-3Z" transform="translate(-49.09 -61.93)" style="fill:#4c60ad"/><path d="M309,309.57s.09,1.63.33,3c2.42,0,5.37,0,7.85,0,.27-1.38.48-3,.48-3Z" transform="translate(-49.09 -61.93)" style="fill:#4c60ad;opacity:0.5;mix-blend-mode:multiply"/><path d="M397.4,248.56c0,6.19-3,19-4.37,23s-4.13,4.5-11.88,4.13-13.25.37-13.25-8.88c0-.75-22.75-.87-26.87-.62s-9.38,0-9.5,11,.62,33.5,0,33.75-28.5.75-30.25,0-3.67-59-3.34-64.38.84-14,16.67-13.83,68.17,4.5,73.5,5.67S397.36,241.9,397.4,248.56Z" transform="translate(-49.09 -61.93)" style="fill:#4c60ad"/><path d="M314.36,234s-.13-5.42-.33-5.67a6.22,6.22,0,0,0-2.88,0c-.37.21,0,5.88,0,5.88Z" transform="translate(-49.09 -61.93)" style="fill:#4c60ad"/><path d="M372.08,237.1s.94-7.76.79-8.15-2.44-.64-2.85-.39-1.16,8.4-1.16,8.4Z" transform="translate(-49.09 -61.93)" style="fill:#4c60ad"/><path d="M344.9,234.65s.36-7.81.17-8.18-2.48-.46-2.87-.18-.52,8.46-.52,8.46Z" transform="translate(-49.09 -61.93)" style="fill:#4c60ad"/><path d="M344,228.81v1.62s18.69,1.13,19.07,1.13.75-1.2,0-1.47S344,228.81,344,228.81Z" transform="translate(-49.09 -61.93)" style="fill:#4c60ad"/><path d="M364.86,227.29c-.34-.48-15.93-1.17-15.86-.92s0,5.62.2,5.88,15.28,1.8,15.6,1.58S365.3,227.9,364.86,227.29Z" transform="translate(-49.09 -61.93)" style="fill:#fff"/><line x1="316.43" y1="163.53" x2="315.65" y2="173.48" style="fill:none;stroke:#deb74a;stroke-miterlimit:10;stroke-width:2px"/><line x1="299.65" y1="162.31" x2="299.59" y2="172.26" style="fill:none;stroke:#deb74a;stroke-miterlimit:10;stroke-width:2px"/><path d="M381.62,265.51a1.72,1.72,0,0,1,0,3.43A1.72,1.72,0,0,1,381.62,265.51Z" transform="translate(-49.09 -61.93)" style="fill:#4c60ad;opacity:0.5;mix-blend-mode:multiply"/><path d="M313.28,246.72a1.71,1.71,0,0,1,0,3.42A1.71,1.71,0,0,1,313.28,246.72Z" transform="translate(-49.09 -61.93)" style="fill:#4c60ad;opacity:0.5;mix-blend-mode:multiply"/><path d="M313.28,297.72a1.71,1.71,0,0,1,0,3.42A1.71,1.71,0,0,1,313.28,297.72Z" transform="translate(-49.09 -61.93)" style="fill:#4c60ad;opacity:0.5;mix-blend-mode:multiply"/><rect x="289.38" y="314.25" width="199.03" height="6.45" transform="translate(728.71 573.01) rotate(180)" style="fill:#976572"/><path d="M374.81,303.77a16.86,16.86,0,0,0-1.9,5.2c-.31,2.11-.09,4.27-.65,6.34-.71,2.64-3.57,4.85-5.91,2.28a12.51,12.51,0,0,1-2.11-3.48,20.9,20.9,0,0,1-1.37-8.32c0-.24-.42-.24-.43,0-.26,3.54,0,7.45,1.7,10.64.93,1.76,2.66,4.08,4.92,4,2.55,0,3.76-2.82,4.2-4.94a34.27,34.27,0,0,0,.33-5.07,22.79,22.79,0,0,1,1.56-6.54A.18.18,0,0,0,374.81,303.77Z" transform="translate(-49.09 -61.93)" style="fill:#fff"/><path d="M376.8,285.63c-1.45.72-12.63,6.36-13.89,10.15s-1.63,11.92-.65,12.17,12.4-2.42,13.39-2.65,3.57-9.1,4.35-11.39,6-6.64,6.31-7.54S378,285,376.8,285.63Z" transform="translate(-49.09 -61.93)" style="fill:#fff"/><path d="M377.19,285.9a40,40,0,0,0-10.4,7.15c-3,3.11-3.45,7.36-3.72,11.49,0,.06.08.07.08,0,.58-4.61,1.38-8.95,5.12-12.08,2.83-2.38,6.08-4.17,9.05-6.36C377.43,286,377.32,285.83,377.19,285.9Z" transform="translate(-49.09 -61.93)" style="fill:#f4f3e4"/><path d="M384.82,286.71c-5.82,4.46-8.95,8.34-9.68,17.21a.06.06,0,0,0,.12,0,41.3,41.3,0,0,1,2.78-9.34c1.54-3.22,4.35-5.44,6.93-7.79C385.13,286.65,385,286.57,384.82,286.71Z" transform="translate(-49.09 -61.93)" style="fill:#f4f3e4"/><path d="M381.87,287.19c-2.34,2.09-5.12,4.24-6.67,7s-2.21,6.39-2.7,9.58c0,.11.14.12.17,0,.74-2.86,1.14-5.95,2.44-8.64,1.53-3.17,4.47-5.35,6.9-7.81C382.11,287.27,382,287.09,381.87,287.19Z" transform="translate(-49.09 -61.93)" style="fill:#f4f3e4"/><path d="M380.25,286.68c-2.85,2.41-6.19,5-8,8.33a23.56,23.56,0,0,0-2.35,9s0,0,.05,0c.74-3.27,1.19-6.74,3-9.63s4.86-5.18,7.38-7.59C380.45,286.75,380.34,286.6,380.25,286.68Z" transform="translate(-49.09 -61.93)" style="fill:#f4f3e4"/><path d="M378.24,286.42c-3.38,2.42-7.5,5.1-9.88,8.61-1.76,2.61-2.07,6.47-2.07,9.51,0,.08.13.08.14,0,.43-3.45.65-7.47,3-10.19a63.92,63.92,0,0,1,8.88-7.8A.08.08,0,0,0,378.24,286.42Z" transform="translate(-49.09 -61.93)" style="fill:#f4f3e4"/><path d="M464.86,305.46c-2.46,2.91-14,7.37-23.7,8s-38.86-17.31-39.41-17.66-6.28-.18-8.5-.12c-3.92.09-8.05-2.47-9.42-3.69-3.78-3.4-12.41-1.33-11.75-4.83.87-4.52,12.8-4.76,16.17-4.67,9.25.25,11.83,2.61,14.52,2.39s35.2,3.79,36.41,3.54c.12,0,.21-.25.29-.63.69-3.48-.3-20.42.28-23.44.65-3.35,5.81-30.12,12.54-28.59,2.41.53,10.67,12.2,12,20,1.08,6.15,2.32,32,1.57,43.93C465.7,302.71,465.36,304.86,464.86,305.46Z" transform="translate(-49.09 -61.93)" style="fill:#e9ab9e"/><path d="M465.89,299.61a54.4,54.4,0,0,1-12.16-3.15c-5.15-1.94-10.55-4.52-14.26-8.71.69-3.48-.3-20.42.28-23.44.65-3.35,5.81-30.12,12.54-28.59,2.41.53,10.67,12.2,12,20C465.4,261.83,466.64,287.72,465.89,299.61Z" transform="translate(-49.09 -61.93)" style="fill:#c27c88"/><path d="M461.13,304.3a1.81,1.81,0,0,0-2.3-1.2,1.38,1.38,0,0,0-.47,2.26.86.86,0,0,0,1.47-.75c0-.14-.25-.07-.24.08,0,.54-.7.5-.89.13a.77.77,0,0,1,.14-.88.9.9,0,0,1,1.21,0,1.34,1.34,0,0,1,.54,1.21,1.85,1.85,0,0,1-.85,1.18c-.09.07,0,.24.07.21A1.82,1.82,0,0,0,461.13,304.3Z" transform="translate(-49.09 -61.93)" style="fill:#c27c88"/><path d="M407.75,299c-2-1.29-5-3.45-6.4-3.8-.51-.13-9.61,1-13.66-.84-.09,0-.21.09-.11.14a13.57,13.57,0,0,0,8.43,1.66,36.39,36.39,0,0,1,5.3-.17c1.46.38,4.52,2.38,6.29,3.38C408,299.55,408.08,299.21,407.75,299Z" transform="translate(-49.09 -61.93)" style="fill:#c27c88"/><path d="M401.3,284.6a38.63,38.63,0,0,0-17.22-2.32c-3.79.36-10.12.93-12.14,4.58,0,.07.07.15.12.09,3-3.57,9.83-4.13,14.26-4.3a42.71,42.71,0,0,1,14.94,2.1C401.35,284.78,401.39,284.64,401.3,284.6Z" transform="translate(-49.09 -61.93)" style="fill:#c27c88"/><path d="M451,234.13c-7.5,3.54-11.76,24.84-12.36,28.77s-.39,18.75.07,20c.57,1.53,20.56,12.38,30,9.63,1.42-.41-1.5-33.77-4.44-41.38S453.21,233.08,451,234.13Z" transform="translate(-49.09 -61.93)" style="fill:#deb74a"/><path d="M440.22,284.1c-.14-.2-1.26-1.24-1.36-1.42,0-5.72-.1-11.6-.6-17.29a0,0,0,0,0-.08,0c-.1,2.14-.13,4.28-.15,6.42a15.29,15.29,0,0,0-1-2.17.14.14,0,0,0-.26.11c.58,1.56.83,3.17,1.25,4.76,0,2.65.18,8.11.18,8.2a3.6,3.6,0,0,0,1.94,1.55A.11.11,0,0,0,440.22,284.1Z" transform="translate(-49.09 -61.93)" style="fill:#c18c2f"/><rect x="247.04" y="258.76" width="185.54" height="23.87" style="fill:#976572"/><g style="opacity:0.5;mix-blend-mode:multiply"><rect x="247.04" y="258.76" width="185.54" height="9.32" style="fill:#976572"/></g></g></g></svg>