<svg id="Layer_1" data-name="Layer 1" xmlns="http://www.w3.org/2000/svg" viewBox="0 0 1445.9 1811.52"><title>fondo4</title><path d="M1365.57,1893a104.43,104.43,0,0,1-20.55,12.84,85.39,85.39,0,0,1-94.57-17.79c-33.14-33.06-33.14-87.35,0-120.49s87.43-33.06,120.49,0a85.55,85.55,0,0,1,21.32,84.91v.26a5.26,5.26,0,0,1-.68,2,86.08,86.08,0,0,1-7.8,17,26,26,0,0,1,8.22-2.1c9.91-.75,17.46,5.37,20.48,22.91.17,6.71.5,13,11,13.59a36.78,36.78,0,0,0,12.75-2.1,21.52,21.52,0,0,1-1.84-3.69,21,21,0,0,1-1.26-10.74,13,13,0,0,1,5.28-9.06c3.61-2.52,8.56-2.77,14.69.67,8.05,4.62,8.89,10.74,5.45,16.78a21.22,21.22,0,0,1-5.7,6.38c10.07.08,22.32.67,32.89,4,11.49,3.61,21.06,10.4,24.16,23a4.19,4.19,0,0,1-3,5,4.23,4.23,0,0,1-5.12-3.1c-2.26-9.06-9.56-14.18-18.54-17-9.65-3.11-21.23-3.61-30.79-3.61a18.78,18.78,0,0,1-9.57-2.35,45,45,0,0,1-19.8,4c-10.91-.59-19.55-6.38-19-20.89-2-11.75-6.21-16-11.5-15.61-11.49.84-22,12.75-27,15.1Zm78.37,7.39c4-2.27,12-8,5-11.92-2.94-1.68-4.79-1.76-5.88-1.09-3.52,2.43-1.42,10.15.84,13Zm-59.74-95.07a4.73,4.73,0,0,1-1.85.25,97.68,97.68,0,0,0-46.9,10.24,79.78,79.78,0,0,0,8.22,10.48,80.3,80.3,0,0,1,12.59-4.86,72.56,72.56,0,0,1,30.79-2.18,82.86,82.86,0,0,0-2.85-13.93Zm-56.13,14.6a100.26,100.26,0,0,0-11,7.8,112.45,112.45,0,0,0,8.39,10.57h.08a102.4,102.4,0,0,1,10.66-7.8,92,92,0,0,1-8.14-10.57Zm-15.44.59a114,114,0,0,1,11.16-7.72,97.16,97.16,0,0,1-4.37-8.9,116.37,116.37,0,0,0-11.24,7.72c1.34,3,2.85,6,4.45,8.9Zm18.46-11.84a105.82,105.82,0,0,1,50.09-11.49,78.4,78.4,0,0,0-5.2-9.82,116.29,116.29,0,0,0-49.26,12.5,84.74,84.74,0,0,0,4.37,8.81Zm-20.31,24.59c-2.35,2.35-4.61,4.78-6.79,7.38a100.56,100.56,0,0,0,8.55,10.41,88,88,0,0,1,6.72-7.22,113.38,113.38,0,0,1-8.48-10.57Zm-12.08,14.26a96.57,96.57,0,0,0-6.88,11.33,119.52,119.52,0,0,0,9.4,10.24,65.71,65.71,0,0,1,6.21-11.16,125.62,125.62,0,0,1-8.73-10.41ZM1288,1867.28a100.5,100.5,0,0,0-6.88,31.47,73.09,73.09,0,0,0,13.51,4.28,79.13,79.13,0,0,1,3.35-25.43c-3.52-3.27-6.79-6.71-10-10.32Zm-15,27.52A107.32,107.32,0,0,1,1282,1860c-2.18-3-4.36-6.12-6.37-9.31a117,117,0,0,0-11.58,35.83,3.64,3.64,0,0,1-.76,1.84,92.19,92.19,0,0,0,9.65,6.46Zm13.34-43.21a112.65,112.65,0,0,1,7.3-11.24c-1.93-2.94-3.69-6-5.37-9.15a130.05,130.05,0,0,0-7.89,11.16c1.85,3.19,3.86,6.21,6,9.23Zm12.92-18.12a94.72,94.72,0,0,1,7-7.3c-1.76-2.94-3.27-6-4.7-9a101.7,101.7,0,0,0-7.47,7.21c1.6,3.11,3.28,6.13,5.12,9.07Zm-1.09-24.5a115.11,115.11,0,0,1-3.86-12.93c-2.85,2.19-5.62,4.53-8.3,7h0a100.89,100.89,0,0,0,4.44,13.17c2.44-2.52,5-4.86,7.72-7.21Zm7-5.46a115.9,115.9,0,0,1,11.32-7.47,65.37,65.37,0,0,1-2.85-12.33,120.69,120.69,0,0,0-11.83,7,95.38,95.38,0,0,0,3.36,12.84Zm18.79-11.58a125.36,125.36,0,0,1,46.32-12.58,66.77,66.77,0,0,0-10.24-10.41c-.17,0-.33.09-.59.09a147.06,147.06,0,0,0-37.84,10.82,59.75,59.75,0,0,0,2.35,12.08Zm-67.54,90.2a124.76,124.76,0,0,1,14.34-39.94c-2.26-4.28-4.36-8.72-6.2-13.25-9.49,15.18-12.25,25.92-16.79,42.79a72.66,72.66,0,0,0,8.65,10.4Zm19.55-48.24a111.3,111.3,0,0,1,8.3-10.91,120.65,120.65,0,0,1-5-13.26,122.2,122.2,0,0,0-9,10.83,125.88,125.88,0,0,0,5.71,13.34Zm7.88-40.11c2.86-2.44,5.79-4.78,8.81-7a106.62,106.62,0,0,1,.76-33.81,76.33,76.33,0,0,0-10.49,3.27,117.1,117.1,0,0,0,.92,37.51Zm16.62-12.25c4-2.44,8.22-4.79,12.5-6.88a73.37,73.37,0,0,1,3.94-23.33,74.82,74.82,0,0,0-14.43.17,4.43,4.43,0,0,0-.5,1.51,99.49,99.49,0,0,0-1.51,28.53Zm21.06-10.74a153.57,153.57,0,0,1,29-8.73,77.27,77.27,0,0,0-25.09-9.65,65.15,65.15,0,0,0-3.86,18.38Zm-79.88,90.54a135.43,135.43,0,0,1,19.3-42.21,152.62,152.62,0,0,1-7.22-42.71,77,77,0,0,0-12.08,84.92Zm25.51-50.52c3-3.69,6.21-7.13,9.56-10.49a124.23,124.23,0,0,1-2.68-39.94,79.26,79.26,0,0,0-12.17,8.23,2.69,2.69,0,0,1,.17,1.42,148.16,148.16,0,0,0,5.12,40.78Zm120.4,17a66.29,66.29,0,0,0-28.86,1.68,79.13,79.13,0,0,0-8.39,3.1,66.29,66.29,0,0,0,6.12,4.62,67.08,67.08,0,0,0,28.53,10.66,74.6,74.6,0,0,0,2.6-20Zm-45.22,8.9a111.69,111.69,0,0,0-10.91,7.63,97.91,97.91,0,0,0,44.81,23.83,78.34,78.34,0,0,0,6-12.17,75.85,75.85,0,0,1-30.54-11.83,78.91,78.91,0,0,1-9.4-7.46Zm-17.2,13.25a76.42,76.42,0,0,0-6.63,7.22,116.19,116.19,0,0,0,44,26l1,.5c.5-.41,1-.92,1.51-1.42a73.08,73.08,0,0,0,6-6.71,106.23,106.23,0,0,1-45.89-25.6Zm-11.58,14a73.84,73.84,0,0,0-4.7,8.81c-.42.75-.76,1.59-1.09,2.35a129.71,129.71,0,0,0,36.5,21.9,81.45,81.45,0,0,0,11.91-7.14,124.61,124.61,0,0,1-42.62-25.92Zm-8.56,19.8a71.33,71.33,0,0,0-1.93,20.56,77.64,77.64,0,0,0,30.12-2.94,143.54,143.54,0,0,1-28.19-17.62Z" transform="translate(-64.12 -145.35)" style="fill:#141515"/><path d="M200.33,145.35a121,121,0,1,1-85.59,35.41,120.68,120.68,0,0,1,85.59-35.41ZM280,186.72a112.74,112.74,0,1,0,33,79.71,112.36,112.36,0,0,0-33-79.71Zm-79.71-8a87.64,87.64,0,1,1-62,25.67,87.37,87.37,0,0,1,62-25.67Zm56,31.63a79.21,79.21,0,1,0,23.24,56.05,79,79,0,0,0-23.24-56.05Zm-72,12.5a20.89,20.89,0,1,1-29.54,0,20.94,20.94,0,0,1,29.54,0Zm-6,6a12.46,12.46,0,1,0,0,17.62,12.47,12.47,0,0,0,0-17.62ZM154.85,310a20.88,20.88,0,1,1,29.54,0,20.91,20.91,0,0,1-29.54,0Zm6-6a12.49,12.49,0,1,0,0-17.7,12.45,12.45,0,0,0,0,17.7Zm55.46,6a20.88,20.88,0,1,1,29.54,0,20.91,20.91,0,0,1-29.54,0Zm6-6a12.49,12.49,0,1,0,0-17.7,12.45,12.45,0,0,0,0,17.7Zm23.58-81.14a20.89,20.89,0,1,1-29.54,0,20.94,20.94,0,0,1,29.54,0Zm-6,6a12.46,12.46,0,1,0,0,17.62,12.47,12.47,0,0,0,0-17.62Z" transform="translate(-64.12 -145.35)" style="fill:#141515"/><path d="M1303.35,1203.67a98.19,98.19,0,0,1,23.74,2.69c7.72,2.09,12.51,5.62,12.51,10.15s-4.79,8.06-12.51,10.15a106.5,106.5,0,0,1-47.57,0c-7.72-2.09-12.5-5.62-12.5-10.15s4.78-8.06,12.5-10.15a98.43,98.43,0,0,1,23.83-2.69Zm68.3,206.25c8.39,2.35,15.27,5,20.3,8.06,6.38,3.94,10,8.55,10,13.84,0,9.15-11.83,16.87-30.8,22-17.45,4.62-41.45,7.56-67.79,7.56s-50.43-2.94-67.88-7.56c-19-5.11-30.71-12.83-30.71-22,0-5.29,3.52-9.9,9.9-13.84,5-3,11.91-5.71,20.3-8.06-4.86-3.19-7.55-6.8-7.55-10.91a10.68,10.68,0,0,1,3-7.3l.76-.75c-2.44-2.44-3.78-5.12-3.78-8a10.66,10.66,0,0,1,3-7.3l.76-.76c-2.44-2.43-3.78-5.12-3.78-8a10.82,10.82,0,0,1,3-7.3l.76-.76c-2.44-2.43-3.78-5.11-3.78-8a10.84,10.84,0,0,1,3-7.3l.76-.75c-2.44-2.44-3.78-5.12-3.78-7.89a10.84,10.84,0,0,1,3-7.38l.76-.76c-2.44-2.43-3.78-5.12-3.78-7.89a10.86,10.86,0,0,1,3-7.38l.76-.76c-2.44-2.43-3.78-5-3.78-7.88a10.89,10.89,0,0,1,3-7.39l.76-.75c-2.44-2.44-3.78-5-3.78-7.89a10.84,10.84,0,0,1,3-7.38l.76-.76c-2.44-2.43-3.78-5-3.78-7.89a10.86,10.86,0,0,1,3-7.38l.76-.76c-2.44-2.43-3.78-5-3.78-7.88a10.89,10.89,0,0,1,3-7.39l.76-.75c-2.44-2.44-3.78-5-3.78-7.89a10,10,0,0,1,.34-2.69,60.12,60.12,0,0,1-14.69-6.88c-5.37-3.69-8.3-8-8.3-12.75,0-9.15,11.74-16.87,30.71-22,17.45-4.7,41.45-7.56,67.88-7.56s50.34,2.86,67.79,7.56c19,5.11,30.8,12.83,30.8,22,0,4.78-3,9.06-8.39,12.75a59.77,59.77,0,0,1-14.69,6.88,9.72,9.72,0,0,1,.42,2.69c0,2.85-1.34,5.45-3.86,7.89l.76.75a11,11,0,0,1,3.1,7.39c0,2.85-1.34,5.45-3.86,7.88l.76.76a11,11,0,0,1,3.1,7.38c0,2.86-1.34,5.46-3.86,7.89l.76.76a10.94,10.94,0,0,1,3.1,7.38c0,2.85-1.34,5.45-3.86,7.89l.76.75a11,11,0,0,1,3.1,7.39c0,2.85-1.34,5.45-3.86,7.88l.76.76a11,11,0,0,1,3.1,7.38c0,2.77-1.34,5.46-3.86,7.89l.76.76a10.94,10.94,0,0,1,3.1,7.38c0,2.77-1.34,5.45-3.86,7.89l.76.75a10.94,10.94,0,0,1,3.1,7.3c0,2.86-1.34,5.54-3.86,8l.76.76a10.93,10.93,0,0,1,3.1,7.3c0,2.85-1.34,5.54-3.86,8l.76.76a11,11,0,0,1,3,6.88c14.94-.42,24.08,11.16,33.81,23.49,14.69,18.46,30.88,38.93,74.09,9.9a4.18,4.18,0,0,1,4.62,7c-49.59,33.31-68.3,9.65-85.25-11.75-9.06-11.41-17.54-22.15-30.63-19.8l.34.33a10.77,10.77,0,0,1,3.1,7.3c0,4.11-2.77,7.81-7.63,10.91Zm15.94,15.27a66.36,66.36,0,0,0-16.28-6.63v1.76a11.78,11.78,0,0,1-.17,1.77c-1.25,6.29-9.81,11.41-22.9,14.77-25.68,6.54-64.19,6.54-89.87,0-13.09-3.36-21.64-8.48-22.9-14.77,0-.34-.17-1.43-.17-1.77v-1.76a69.49,69.49,0,0,0-16.28,6.63c-3.77,2.27-5.87,4.53-5.87,6.63,0,4.87,9.31,9.82,24.5,13.85,16.78,4.53,39.94,7.3,65.7,7.3s48.92-2.77,65.61-7.3c15.19-4,24.59-9,24.59-13.85,0-2.1-2.18-4.36-6-6.63ZM1266,1235.64a335.8,335.8,0,0,0,74.59,0,183.41,183.41,0,0,0,19.39-3.1c2.09-.42,4.19-.93,6.12-1.35l.17-.08c1.68-.42,3.35-.84,5-1.34a.46.46,0,0,0,.33-.09c7.47-2.09,13.35-4.61,17.29-7.38,3-2,4.7-4,4.7-5.79,0-4.87-9.4-9.82-24.59-13.85-16.69-4.53-39.94-7.3-65.61-7.3s-48.92,2.77-65.7,7.3c-15.19,4-24.5,9-24.5,13.85,0,1.76,1.59,3.78,4.61,5.79,4,2.77,9.9,5.2,17.29,7.38a.59.59,0,0,0,.33.09,191.37,191.37,0,0,0,30.63,5.87Zm96.91,184.68v-6.12a73.15,73.15,0,0,1-7.8,2.52c-29.12,7.8-74.51,7.8-103.63,0q-4.15-1.14-7.8-2.52l.08,6.38c.59,2.77,6.88,5.7,16.7,8.14,24.25,6.21,61.42,6.21,85.67,0,9.82-2.44,16.11-5.37,16.78-8.14Zm0-14.93v-7.22a68.87,68.87,0,0,1-7.8,2.52c-29.12,7.8-74.51,7.8-103.63,0a81.21,81.21,0,0,1-7.8-2.52v7.22a89.5,89.5,0,0,0,10,3.19c27.68,7.47,71.65,7.47,99.26,0a89.28,89.28,0,0,0,10-3.19Zm0-16v-7.21a71,71,0,0,1-7.8,2.51c-29.12,7.81-74.51,7.81-103.63,0q-4.15-1.12-7.8-2.51v7.21c2.77,1.09,6.13,2.18,10,3.27,27.68,7.39,71.65,7.39,99.26,0,3.86-1.09,7.21-2.18,10-3.27Zm0-16v-7.22a73.15,73.15,0,0,1-7.8,2.52c-29.12,7.8-74.51,7.8-103.63,0q-4.15-1.14-7.8-2.52v7.22c2.77,1.09,6.13,2.18,10,3.27,27.68,7.38,71.65,7.38,99.26,0,3.86-1.09,7.21-2.18,10-3.27Zm0-16v-7.13c-2.35.84-5,1.68-7.8,2.43-29.12,7.89-74.51,7.89-103.63,0-2.77-.75-5.37-1.59-7.8-2.43v7.13c2.77,1.09,6.13,2.18,10,3.27,27.68,7.39,71.65,7.39,99.26,0,3.86-1.09,7.21-2.18,10-3.27Zm0-16v-7.13c-2.35.84-5,1.68-7.8,2.43-29.12,7.89-74.51,7.89-103.63,0-2.77-.75-5.37-1.59-7.8-2.43v7.13c2.77,1.09,6.13,2.18,10,3.28,27.68,7.38,71.65,7.38,99.26,0,3.86-1.1,7.21-2.19,10-3.28Zm0-16v-7.14c-2.35.84-5,1.68-7.8,2.44-29.12,7.88-74.51,7.88-103.63,0-2.77-.76-5.37-1.6-7.8-2.44v7.14c2.77,1.09,6.13,2.18,10,3.27,27.68,7.38,71.65,7.38,99.26,0,3.86-1.09,7.21-2.18,10-3.27Zm0-16v-7.13a71,71,0,0,1-7.8,2.51c-29.12,7.81-74.51,7.81-103.63,0q-4.15-1.12-7.8-2.51v7.13a88.34,88.34,0,0,0,10,3.27c27.68,7.47,71.65,7.47,99.26,0a88.12,88.12,0,0,0,10-3.27Zm0-16v-7.13a73.15,73.15,0,0,1-7.8,2.52c-29.12,7.8-74.51,7.8-103.63,0q-4.15-1.14-7.8-2.52v7.13a73.21,73.21,0,0,0,10,3.28c27.68,7.46,71.65,7.46,99.26,0a73,73,0,0,0,10-3.28Zm0-16V1270a68.87,68.87,0,0,1-7.8,2.52c-29.12,7.8-74.51,7.8-103.63,0a81.21,81.21,0,0,1-7.8-2.52v7.14a74.71,74.71,0,0,0,10,3.27c27.68,7.47,71.65,7.47,99.26,0a74.53,74.53,0,0,0,10-3.27Zm0-16V1254a71,71,0,0,1-7.8,2.51c-29.12,7.81-74.51,7.81-103.63,0q-4.15-1.12-7.8-2.51v7.13a74.71,74.71,0,0,0,10,3.27c27.68,7.47,71.65,7.47,99.26,0a74.53,74.53,0,0,0,10-3.27Zm0-16v-4.61c-7.05,1.51-14.26,2.6-21.39,3.44a342.77,342.77,0,0,1-76.44,0c-6.46-.76-12.59-1.68-18.88-2.94l-2.52-.5v4.61a73.21,73.21,0,0,0,10,3.28c27.68,7.46,71.65,7.46,99.26,0a73,73,0,0,0,10-3.28Zm-38-30.62a96.87,96.87,0,0,0-43.21,0c-3.86,1-6.29,1.76-6.29,2s2.43,1,6.29,2.1a100.49,100.49,0,0,0,43.21,0c3.86-1.09,6.3-1.85,6.3-2.1s-2.44-1-6.3-2Z" transform="translate(-64.12 -145.35)" style="fill:#141515"/><path d="M272.15,1305.54c-3.94,1.09-6.63,6.29-7.8,13.93-1.43,8.81-.67,20.22,2.6,32.39h0c3.19,12.08,8.31,22.4,13.84,29.28,4.87,6,9.91,9.23,13.76,8.14s6.63-6.29,7.89-13.93c1.34-8.72.59-20.22-2.68-32.3V1343c-3.19-12.08-8.31-22.4-13.85-29.2-4.86-6-9.9-9.23-13.76-8.22Zm-118.81-98.76c4.53,1.26,8,4.61,10.57,9.48,2.44-4.87,6-8.22,10.49-9.48,7.38-1.93,15.44,2.35,22.4,11,6,7.3,11.33,17.87,14.85,30.12,3.61-12.25,9-22.82,14.86-30.12,7-8.64,15-12.92,22.4-11,4.53,1.26,8,4.61,10.57,9.48,2.43-4.87,6-8.22,10.49-9.48,7.38-1.93,15.44,2.35,22.4,11,6,7.3,11.33,17.87,14.85,30.12,3.61-12.25,9-22.82,14.86-30.12,7-8.64,15-12.92,22.48-11s12.17,9.82,13.93,20.72c1.51,9.91.76,22.58-2.85,35.83s-9.15,24.67-15.44,32.39a18,18,0,0,0-1.17,1.43,13.55,13.55,0,0,1,5.2.25,1.11,1.11,0,0,1,.58.17c7.22,2.1,11.92,9.82,13.68,20.64,1.51,9.82.76,22.57-2.85,35.75v.08c-3.53,13.17-9.15,24.58-15.44,32.39-7.05,8.56-15,12.92-22.4,11-4.53-1.26-8.06-4.61-10.58-9.48-2.43,4.87-6,8.22-10.48,9.48-7.39,1.93-15.44-2.43-22.41-11-5.95-7.3-11.32-17.87-14.85-30.13-3.61,12.26-9,22.83-14.85,30.13-7,8.56-15,12.92-22.4,11-4.53-1.26-8.06-4.61-10.58-9.48-2.43,4.87-6,8.22-10.48,9.48-7.39,1.93-15.44-2.43-22.41-11-5.95-7.3-11.32-17.87-14.85-30.13-3.61,12.26-9,22.83-14.93,30.13-7,8.56-14.94,12.92-22.41,11-4.44-1.26-8-4.61-10.49-9.48-2.43,4.87-6,8.22-10.48,9.48-7.39,1.93-15.44-2.43-22.41-11-6.29-7.72-11.91-19-15.44-32.22-.08-.09-.08-.25-.16-.42-3.44-13.18-4.28-25.76-2.69-35.58,1.76-11,6.55-18.71,13.93-20.73a13.67,13.67,0,0,1,5.54-.33,16.84,16.84,0,0,1-1.18-1.43c-6.29-7.72-12-19.13-15.52-32.39s-4.36-25.92-2.77-35.83c1.76-10.9,6.55-18.71,13.93-20.72s15.44,2.35,22.4,11c6,7.3,11.33,17.87,14.85,30.12,3.61-12.25,9-22.82,14.86-30.12,7-8.64,15-12.92,22.4-11Zm10.57,58.82c-3.61,12.25-9,22.82-14.93,30.12-.34.51-.76.93-1.09,1.43a13.33,13.33,0,0,1,5.45.33c4.53,1.18,8,4.54,10.57,9.49,2.44-5,6-8.31,10.49-9.49a13.85,13.85,0,0,1,5.54-.33,16.84,16.84,0,0,1-1.18-1.43c-5.95-7.3-11.32-17.87-14.85-30.12Zm-31.8,41.45a13.69,13.69,0,0,1-5.54-.34c-4.44-1.17-8-4.53-10.49-9.48-2.43,5-6,8.31-10.48,9.48a13.69,13.69,0,0,1-5.54.34c.42.42.75.92,1.17,1.43,6,7.3,11.33,17.87,14.85,30.12,3.61-12.25,9-22.82,14.86-30.12.42-.51.84-1,1.17-1.43Zm26.94-78.2c-1.26-7.64-4-12.93-7.81-13.93s-8.89,2.1-13.76,8.14c-5.62,6.88-10.66,17.2-13.93,29.28h0c-3.27,12.17-4,23.58-2.6,32.31,1.18,7.63,4,12.92,7.8,13.93s8.9-2.1,13.77-8.14c5.62-6.88,10.65-17.21,13.92-29.29s4-23.58,2.61-32.3Zm-78-13.93c-3.94,1-6.63,6.29-7.89,13.93-1.34,8.72-.58,20.22,2.61,32.3s8.39,22.41,13.92,29.29c4.87,6,9.82,9.23,13.76,8.14s6.63-6.3,7.81-13.93c1.42-8.73.67-20.14-2.6-32.31h0c-3.28-12.08-8.31-22.4-13.85-29.28-5-6-9.9-9.23-13.76-8.14Zm95.57,0c-3.94,1-6.63,6.29-7.89,13.93-1.34,8.72-.58,20.22,2.69,32.3s8.31,22.41,13.84,29.29c4.87,6,9.91,9.23,13.76,8.14s6.63-6.3,7.81-13.93c1.42-8.73.67-20.14-2.6-32.31h0c-3.19-12.08-8.31-22.4-13.85-29.28-4.86-6-9.9-9.23-13.76-8.14Zm35.07,82.31c-2.43,5-6,8.31-10.48,9.48a13.69,13.69,0,0,1-5.54.34c.42.42.75.92,1.17,1.43,6,7.3,11.33,17.87,14.85,30.12,3.61-12.25,9-22.82,14.86-30.12.42-.51.84-1,1.17-1.43a13.15,13.15,0,0,1-5.45-.34c-4.53-1.17-8.06-4.53-10.58-9.48Zm47.83-31.63c-3.61,12.25-9,22.82-14.85,30.12a18,18,0,0,0-1.17,1.43,13.33,13.33,0,0,1,5.45.33c4.53,1.18,8,4.54,10.57,9.49,2.43-5,6-8.31,10.49-9.49a13.85,13.85,0,0,1,5.54-.33l-1.18-1.43c-5.95-7.3-11.32-17.87-14.85-30.12Zm-4.86-36.75c-1.18-7.64-4-12.93-7.81-13.93s-8.89,2.1-13.76,8.14c-5.62,6.88-10.66,17.2-13.93,29.28h0c-3.27,12.17-4,23.58-2.6,32.31,1.18,7.63,3.95,12.92,7.8,13.93s8.9-2.1,13.77-8.14c5.62-6.88,10.65-17.21,13.92-29.29s4-23.58,2.61-32.3Zm68.63,78.2a13.15,13.15,0,0,1-5.45-.34c-4.53-1.17-8.06-4.53-10.58-9.48-2.43,5-6,8.31-10.48,9.48a13.69,13.69,0,0,1-5.54.34,9,9,0,0,1,1.17,1.43c6,7.3,11.33,17.87,14.85,30.12,3.61-12.25,9-22.82,14.94-30.12.34-.51.76-1,1.09-1.43Zm26.93-78.2c-1.17-7.64-3.94-12.93-7.8-13.93s-8.89,2.1-13.76,8.14c-5.62,6.88-10.66,17.2-13.93,29.28h0c-3.19,12.17-4,23.58-2.6,32.31,1.26,7.63,3.94,12.92,7.8,13.93s8.9-2.1,13.77-8.14c5.62-6.88,10.65-17.21,13.92-29.29s4-23.58,2.6-32.3Zm-78-13.93c-3.94,1-6.63,6.29-7.8,13.93-1.43,8.72-.67,20.22,2.6,32.3s8.31,22.41,13.84,29.29c4.87,6,9.91,9.23,13.76,8.14s6.63-6.3,7.89-13.93c1.34-8.73.59-20.14-2.68-32.31h0c-3.19-12.08-8.31-22.4-13.85-29.28-4.86-6-9.9-9.23-13.76-8.14Zm-113.1,104.55c-1.26-7.64-4-12.84-7.81-13.93s-8.89,2.18-13.76,8.22c-5.62,6.8-10.66,17.12-13.93,29.2v.09c-3.27,12.08-4,23.58-2.6,32.3,1.18,7.64,4,12.92,7.8,13.93s8.9-2.1,13.77-8.14c5.62-6.88,10.65-17.2,13.92-29.28h0c3.19-12.17,4-23.58,2.61-32.39Zm-78-13.93c-3.94,1.09-6.63,6.29-7.89,13.93-1.34,8.81-.58,20.22,2.61,32.39h.08c3.19,12.08,8.31,22.4,13.84,29.28,4.87,6,9.82,9.23,13.76,8.14s6.63-6.29,7.81-13.93c1.42-8.72.67-20.22-2.6-32.3V1343c-3.28-12.08-8.31-22.4-13.85-29.2-5-6-9.9-9.23-13.76-8.22Zm95.57,0c-3.94,1.09-6.63,6.29-7.89,13.93-1.34,8.81-.58,20.22,2.69,32.39h0c3.19,12.08,8.31,22.4,13.84,29.28,4.87,6,9.91,9.23,13.76,8.14s6.63-6.29,7.81-13.93c1.42-8.72.67-20.22-2.6-32.3V1343c-3.19-12.08-8.31-22.4-13.85-29.2-4.86-6-9.9-9.23-13.76-8.22Zm78,13.93c-1.18-7.64-4-12.84-7.81-13.93s-8.89,2.18-13.76,8.22c-5.62,6.8-10.66,17.12-13.93,29.2v.09c-3.27,12.08-4,23.58-2.6,32.3,1.18,7.64,3.95,12.92,7.8,13.93s8.9-2.1,13.77-8.14c5.62-6.88,10.65-17.2,13.92-29.28h0c3.28-12.17,4-23.58,2.61-32.39Zm95.56,0c-1.17-7.64-3.94-12.84-7.8-13.93h0c-3.94-1-8.89,2.18-13.76,8.22-5.62,6.8-10.66,17.12-13.93,29.2v.09c-3.19,12.08-4,23.58-2.6,32.3,1.26,7.64,3.94,12.92,7.8,13.93s8.9-2.1,13.77-8.14c5.62-6.88,10.65-17.2,13.92-29.28h0c3.28-12.17,4-23.58,2.6-32.39Zm-2.6,32.39h0" transform="translate(-64.12 -145.35)" style="fill:#141515"/><path d="M1389.49,748.46c-10.83,3.11-19.64,7-25.59,11.33-5.21,3.86-8.23,7.89-8.31,12a4.12,4.12,0,0,1-2.1,3.44c-4.11,8.06-14.26,15.11-28.44,20.31C1307.43,802,1283.18,806,1256.5,806s-50.85-4-68.47-10.49c-18.88-7-30.54-17-30.54-28.62h0V711.63c0-11.58,11.66-21.65,30.54-28.53,17.62-6.55,41.78-10.49,68.47-10.49s50.93,3.94,68.55,10.49c13.93,5,23.91,11.91,28.19,19.72,5.12-5.62,13.43-10.57,24-14.43,17.28-6.47,41.2-10.58,67.54-10.66a4.14,4.14,0,0,1,4.2,4.11h0v55.63a4.21,4.21,0,0,1-4.2,4.2h-.33a234.77,234.77,0,0,0-28.87,1.84,177.69,177.69,0,0,0-25.92,5Zm-62.26-9.06v18.88a4.16,4.16,0,0,1-4.2,4.2,4.21,4.21,0,0,1-4.19-4.2v-16c-1.09.41-2.18.67-3.36,1h0v.09h-.17l-.16.08H1315c-1.26.34-2.6.67-4,1v19.72a4.2,4.2,0,0,1-4.19,4.19,4.26,4.26,0,0,1-4.2-4.19V746.37c-3.77.75-7.72,1.42-11.74,2v20.06a4.16,4.16,0,0,1-4.2,4.19,4.21,4.21,0,0,1-4.19-4.19V749.39c-3.78.33-7.72.67-11.75.92v19.13a4.16,4.16,0,0,1-4.2,4.2,4.21,4.21,0,0,1-4.19-4.2V750.65h-11.75v18.79a4.15,4.15,0,0,1-4.19,4.2,4.21,4.21,0,0,1-4.2-4.2V750.31c-3.94-.25-7.89-.5-11.75-.92v19.05a4.15,4.15,0,0,1-4.19,4.19,4.21,4.21,0,0,1-4.2-4.19V748.8a3.19,3.19,0,0,1,.09-.42c-4.11-.59-8-1.26-11.83-2v17.79a4.21,4.21,0,0,1-4.2,4.19,4.26,4.26,0,0,1-4.19-4.19V744.44c-2.69-.67-5.29-1.35-7.81-2.18v16a4.15,4.15,0,0,1-4.19,4.2,4.21,4.21,0,0,1-4.2-4.2V739.4c-1.93-.75-3.77-1.59-5.54-2.43l-.42-.17-.08-.08h0l-.33-.09V752a4.15,4.15,0,0,1-4.2,4.19A4.2,4.2,0,0,1,1171,752V732.35a1,1,0,0,1,.09-.5c-.67-.42-1.26-.84-1.85-1.26a27.3,27.3,0,0,1-3.35-2.68v39h0c0,7.72,9.56,15,25,20.73,16.7,6.13,39.94,10,65.62,10s48.91-3.86,65.69-10c15.44-5.71,25-13,25-20.73h0v-39a28.21,28.21,0,0,1-3.36,2.68c-.58.42-1.17.84-1.84,1.26V752a4.15,4.15,0,0,1-4.2,4.19,4.2,4.2,0,0,1-4.19-4.19V736.63l-.26.09h-.08l-.42.25h0c-1.76.84-3.61,1.59-5.62,2.43Zm-161.35-27.69v.42a6.79,6.79,0,0,0,.16,1.26c.68,3.52,3.53,7.13,8.14,10.49a63.57,63.57,0,0,0,13.51,7.22l.34.16h.08l.5.17.17.08h0l.67.26h0a10,10,0,0,0,1.43.58c.76.26,1.59.59,2.35.84h.08l.26.09.41.16h.09l.17.09.67.25h.08l.76.25h.16l.51.17h0l.5.17.51.17h0l.5.16.42.09h.08l.51.17h0l.5.16.5.17h0c17,4.53,36.92,6.71,56.56,6.71,20.3,0,40.19-2.26,56.63-6.71l.17-.08,2.52-.76.42-.17.42-.08h.08l.5-.17h.09l.08-.08.59-.17h.08l.09-.08.5-.17.25-.09h.09l1.51-.5h.08a9.34,9.34,0,0,1,1.59-.59,14.85,14.85,0,0,0,1.43-.58h.08a4.7,4.7,0,0,1,1.18-.42l.08-.09h0l.42-.16a63.33,63.33,0,0,0,13.51-7.22c4.62-3.36,7.47-7,8.14-10.57a10.85,10.85,0,0,0,.17-1.68c0-7.64-9.57-15-25-20.73-16.78-6.12-39.94-9.9-65.69-9.9s-48.92,3.78-65.62,9.9c-15.44,5.71-25,13.09-25,20.73Zm90.62-29.45c19.46,0,37.08,2.94,49.92,7.64,14.1,5.2,22.82,12.83,22.82,21.73s-8.72,16.53-22.82,21.73c-12.84,4.7-30.46,7.64-49.92,7.64s-37-2.94-49.85-7.64c-14.09-5.2-22.82-12.84-22.82-21.73s8.73-16.53,22.82-21.73c12.84-4.7,30.46-7.64,49.85-7.64Zm47.07,15.52c-12-4.36-28.62-7.13-47.07-7.13s-35,2.77-47,7.13c-10.66,4-17.29,8.81-17.29,13.85s6.63,9.9,17.29,13.84c12,4.45,28.61,7.14,47,7.14s35.07-2.69,47.07-7.14c10.65-3.94,17.28-8.81,17.28-13.84s-6.63-9.9-17.28-13.85Zm-47.07-6.12c12.41,0,23.66,1.84,32,4.86,9.49,3.45,15.36,8.82,15.36,15.11s-5.87,11.66-15.36,15.1c-8.3,3-19.55,4.95-32,4.95s-23.67-1.93-31.89-4.95c-9.48-3.44-15.35-8.81-15.35-15.1s5.87-11.66,15.35-15.11c8.22-3,19.55-4.86,31.89-4.86Zm29,12.75c-7.3-2.77-17.62-4.36-29-4.36s-21.65,1.59-29,4.36c-6.13,2.18-9.9,4.79-9.9,7.22s3.77,5,9.9,7.3c7.3,2.68,17.53,4.36,29,4.36s21.73-1.68,29-4.36c6.12-2.27,9.9-4.87,9.9-7.3s-3.78-5-9.9-7.22Zm-29-3.35a43.16,43.16,0,0,1,13.76,2.09c4.86,1.85,7.8,4.79,7.8,8.48s-2.94,6.71-7.8,8.47a43.14,43.14,0,0,1-13.76,2.1,42.57,42.57,0,0,1-13.68-2.1c-4.87-1.76-7.89-4.78-7.89-8.47s3-6.63,7.89-8.48a42.59,42.59,0,0,1,13.68-2.09Zm10.9,10a32.84,32.84,0,0,0-10.9-1.59,32.39,32.39,0,0,0-10.83,1.59c-1.42.59-2.35.42-2.35.59s.93.08,2.35.59a32.65,32.65,0,0,0,10.83,1.59,33.1,33.1,0,0,0,10.9-1.59c1.43-.51,2.27-.42,2.27-.59s-.84,0-2.27-.59Zm98.17-7.8v19.88a4.21,4.21,0,0,1-4.19,4.2,4.16,4.16,0,0,1-4.2-4.2V711.29a10.28,10.28,0,0,0-1.59,5.46h0v39a28.21,28.21,0,0,1,3.36-2.68c6.79-5,16.53-9.31,28.27-12.67.09,0,.17-.08.25-.08a192,192,0,0,1,27.11-5.21c8.39-1,17.11-1.59,26-1.76V686.12q-10.46.25-20.14,1.26V707.1a4.2,4.2,0,0,1-8.39,0V688.39c-2.52.42-5,.83-7.3,1.25v20.23a4.26,4.26,0,0,1-4.2,4.19,4.2,4.2,0,0,1-4.19-4.19V691.41c-2.43.5-4.7,1.09-7,1.76v19.55a4.14,4.14,0,0,1-4.19,4.19,4.2,4.2,0,0,1-4.2-4.19V695.85l-.92.34c-1.26.5-2.6,1-3.78,1.51v20.14a4.2,4.2,0,0,1-4.19,4.19,4.15,4.15,0,0,1-4.2-4.19v-16c-.84.5-1.59.92-2.35,1.43Z" transform="translate(-64.12 -145.35)" style="fill:#141515"/><path d="M104.22,625.49c-5.79-24.67-11.49-49.17-17-72.07A4.18,4.18,0,0,1,90,548.21a4.33,4.33,0,0,1,5.21,2.86c6.54,22.48,13.92,46.73,21.22,71.07,14,46.15,28,92.55,40.53,138.7,18.12,3.1,40.61,11.49,64.44,20.39,5.87,2.18,11.75,4.36,17.71,6.54,24.58-10.32,48.16-21.73,65.61-30.2,15.19-7.39,25.84-12.51,29.28-13a4.2,4.2,0,1,1,1.18,8.31c-2.1.33-12.25,5.2-26.77,12.25-15.6,7.55-36,17.37-57.73,26.77,48.17,16.78,96.33,27.6,117.64-6.3a4.17,4.17,0,1,1,7.05,4.45c-25.93,41.2-82.14,26.1-136,6.71-35.91,14.85-73.67,27.27-98.17,25.18-19.22-1.6-30.8-11.42-28.87-34,1.6-18.21,10.57-26.26,24.59-28-11.67-44.39-22.15-89.45-32.73-134.43Zm55.13,144.33a76.69,76.69,0,0,1,2.43,12.25c.42,5.79-1.09,9.9-6,11.16-5.12,1.42-8.47-1.6-11.07-7.22a115.5,115.5,0,0,1-4.87-15.44h0v-.17l-.59-2.09h0v-.09c-10.57,1.26-17.37,7.14-18.46,20.39-1.51,16.62,7,23.75,21.15,25,21.14,1.76,53.61-8.23,85.83-21.15-3.1-1.17-6.2-2.26-9.23-3.44-21.73-8-42.37-15.77-59.15-19.21Zm-13.76-10.16a20.6,20.6,0,0,1,2.35.09c-6.29-23.16-13-46.49-19.89-69.81,5.71,23.41,11.41,46.65,17.54,69.72Zm4.7,8.73c-.59-.08-1.18-.08-1.76-.17l-.67-.08v.08l.08.17v.09h0c1.51,5.62,2.85,10.74,4.36,14,.76,1.68,1.26,2.68,1.26,2.68a24.84,24.84,0,0,0-.17-2.51,79.07,79.07,0,0,0-2.85-13.26h0Z" transform="translate(-64.12 -145.35)" style="fill:#141515"/><path d="M1401.23,254.43V240.09a33.79,33.79,0,0,0-.83-5.29,24.72,24.72,0,0,0-12.59-16.36c-7-3.61-16.53-5.12-28.53-4.11a124.77,124.77,0,0,0-19.63,3.35c-10.57,2.6-19.72,5.12-28,7.39-44.89,12.33-67.54,18.62-117.22-9.91h-14.93v92.89l15,.67h.08a4.16,4.16,0,0,1,4.2,4.2v1.34c.59-8.39,4.7-20.72,10-30.88,5-9.73,11.41-17.7,17.37-19.46a3.87,3.87,0,0,1,1.43-.26c11.91,0,23.49-.58,34.65-1.25,22.49-1.18,43.13-2.27,58.74,1.84,24.41,6.55,36.41,24.67,24.08,71.16a4.3,4.3,0,0,1-4.11,3.44H1203a4.19,4.19,0,0,1-4.19-3.7,4.14,4.14,0,0,1-4.2,3.86h-34.4v40.87H1432V341.7h-26.6a4.27,4.27,0,0,1-4.2-4.2Zm7.89-18.54,4.2.08a144.81,144.81,0,0,1,3.52-27.94c2.69-11.24,7.13-18.12,12.76-18.12,4.36,0,8,4.11,10.65,11.24l3.11-5.12a2.15,2.15,0,0,1-.09-.75V183a4.16,4.16,0,0,1,4.2-4.2h42.12a4.15,4.15,0,0,1,4.19,4.2v12.25a4.14,4.14,0,0,1-4.19,4.19h-38.68c-.09.26-.25.51-.34.76l-7.3,12.08a176,176,0,0,1,2.86,32.73c0,14.34-1.43,27.43-3.78,37-2.69,11.24-7.13,18.12-12.75,18.12s-10.07-6.88-12.76-18.12a138.56,138.56,0,0,1-3.27-23.41h-3.94v74.68h26.59a4.2,4.2,0,0,1,4.2,4.19v46.57a4.27,4.27,0,0,1-4.2,4.2H1156a4.21,4.21,0,0,1-4.2-4.2V334.82a4.21,4.21,0,0,1,4.2-4.2h34.4V316.86l-15.27-.67a4.17,4.17,0,0,1-4-4.19h0V211a4.2,4.2,0,0,1,4.19-4.2h20.23a3.94,3.94,0,0,1,2.34.76c47.16,27.19,68.72,21.31,111.6,9.48,8.56-2.35,18-4.95,28.28-7.47a145.88,145.88,0,0,1,20.81-3.61c13.67-1.09,24.83.68,33.14,5.12a32.61,32.61,0,0,1,16.86,21.74,31.55,31.55,0,0,1,.59,3.1Zm-202,79.13v15.44h130.47c9.48-38.18.17-53-18.88-58.07-14.34-3.86-34.31-2.77-56.13-1.59-11.24.58-23,1.26-34.48,1.26-3.53,1.25-8,7.46-12,15.18-4.87,9.32-8.65,20.48-9,27.78Zm214.38-74.26.17,13.09a140.33,140.33,0,0,0,3.27,26.26c1.76,7.22,3.44,11.66,4.62,11.66s2.85-4.44,4.61-11.66c2.18-8.89,3.52-21.31,3.52-35.07s-1.34-26.18-3.52-35.08c-1.76-7.21-3.44-11.66-4.61-11.66s-2.86,4.45-4.62,11.66c-1.93,8-3.19,18.71-3.44,30.8Zm-8.39,9.48c0-1.68-.08-3.44-.08-5.2v-.67l-3.44-.09v6Zm72.24-63h-33.73v3.86h33.73Zm-124.51-33.73h21.06a4.2,4.2,0,0,1,4.19,4.2v42.37a4.2,4.2,0,0,1-4.19,4.2h-21.06a4.27,4.27,0,0,1-4.2-4.2V157.69a4.27,4.27,0,0,1,4.2-4.2Zm16.86,8.39h-12.67v34h12.67Zm-3.94,80a24.15,24.15,0,0,1,17.11,41.2v.08a24.09,24.09,0,0,1-17.11,7.05A24.07,24.07,0,0,1,1349.63,266a24.09,24.09,0,0,1,7-17.11h.08a24,24,0,0,1,17-7.05Zm11.16,13a15.81,15.81,0,0,0-22.32,0h0a15.77,15.77,0,1,0,22.32,0Z" transform="translate(-64.12 -145.35)" style="fill:#141515"/><path d="M194.18,1839a2.51,2.51,0,0,0,.76,4.53H195a2.66,2.66,0,0,0,1.76-.34,2.44,2.44,0,0,0-.67-4.45H196a2.44,2.44,0,0,0-1.85.26Zm-28.11,40.61c-.16-.09-.33-.25-.5-.34a36.36,36.36,0,0,0-14.6-5h-.25a37.64,37.64,0,0,0-20.73,3.52,36.58,36.58,0,0,0-8.05,5.37,9.43,9.43,0,0,0-1.34,1.18h0a37.21,37.21,0,0,0-10.24,36.5h0a40.91,40.91,0,0,0,4.62,10.57h0l.25.33h0l.25.42h0l.25.34.25.34h0l.34.42h0a36.79,36.79,0,0,0,10.4,9.64h.09v.09H127v.08h.09v.09h.08l.42.25h0l.42.25h0l.42.25h0l.42.17h0l.42.25c4.78,2.18,8,3.44,13.42,4h0a38.56,38.56,0,0,0,12.42-.84A37.48,37.48,0,0,0,179,1929.18h.08a38,38,0,0,0,4.53-20.06h0v-.5l-.08-.34h0v-.42h0l-.09-.33a37.11,37.11,0,0,0-5.28-15.86l-.17-.25h0l-.17-.25-.42-.59c0-.08-.08-.17-.17-.34a36.56,36.56,0,0,0-11.16-10.65ZM233.28,1867l-9.23-15.19-28.44-32.3L176,1841.83c3,3.27,6.2,6.38,9.39,9.4,4,3.69,8.23,7.21,12.76,10.65a9.54,9.54,0,0,1,1.42,1.09,5.28,5.28,0,0,1,1.18,1.18l10.15,16.61a47.08,47.08,0,0,1,10.07-8.47H221a47.63,47.63,0,0,1,12.25-5.29ZM214,1890.24a45,45,0,0,0-4.79,10.16l-.08.33a37,37,0,0,0,3.86,29.71,1.71,1.71,0,0,1,.25.42,37.34,37.34,0,0,0,22.91,16.61,30.65,30.65,0,0,0,4,.67h0a7.9,7.9,0,0,0,1.35.17,37.26,37.26,0,0,0,17.53-2.69h0a37.25,37.25,0,0,0,22.49-41.2v-.08l-.08-.42a37.32,37.32,0,0,0-40.95-29.7h-.17a36.76,36.76,0,0,0-14.68,5c-.17.09-.25.25-.42.34A36,36,0,0,0,214,1890.24Zm-23.92-77-83.49-94.82c10.41,26.26,21.48,51.52,34.32,74.09,8.9,15.77,18.55,30.29,29.45,43ZM149,1865.66l11.32-18.55c.09-.16.26-.33.42-.58h0l4.12-4.62a275.09,275.09,0,0,1-31.22-45.31c-16.53-29.28-30.2-62.68-43.29-96.91a4.24,4.24,0,0,1,7-4.53l98.26,111.68L294,1695.16a4.21,4.21,0,0,1,5.87-.34,4.14,4.14,0,0,1,1.09,4.87c-10.4,27.35-21.23,54.2-33.64,78.87-11.83,23.58-25.18,45.14-40.78,63.35l4.11,4.62s.33.58.42.58l11.24,18.55a44.48,44.48,0,0,1,22.57,4.53,45.26,45.26,0,0,1,18.29,16.11h0a5.88,5.88,0,0,1,.59,1l.09.08h0l.33.5h0l.25.51h0l.34.5h0l.25.5h0l.25.51h0l.25.5.09.09.25.42v.08a47,47,0,0,1,3.94,11.75,45.9,45.9,0,0,1-13.34,41.45,47.47,47.47,0,0,1-7.63,5.87,30.14,30.14,0,0,1-3.7,2,44.84,44.84,0,0,1-30,3.7c-.34-.09-.59-.17-.84-.25a45.38,45.38,0,0,1-23.41-13.93v-.09a45.77,45.77,0,0,1-9.23-15.86l-.09-.42a44.37,44.37,0,0,1-1-24.5v-.25a47.29,47.29,0,0,1,5-12.42l-9.9-16.19-9.9,16.19a44.41,44.41,0,0,1,5,12.42l.09.25a46,46,0,0,1-2.44,28.36h0a47.29,47.29,0,0,1-10.65,15.28,45.3,45.3,0,0,1-23.92,11.83l-.16.08h-.09c-1.76.25-3.52.42-5.28.5h-.09a42.65,42.65,0,0,1-9.81-.67h-.09a45,45,0,0,1-12.17-4h0l-.5-.25h0l-.5-.25h0l-.51-.25h0l-.5-.34h0l-.5-.25h0l-.51-.33h0c-.75-.42-1.42-.84-2.09-1.26h0a42.91,42.91,0,0,1-7-5.79v-.09a39.56,39.56,0,0,1-5.62-6.88h0a46.15,46.15,0,0,1-5.88-12.92,35.59,35.59,0,0,1-1.34-6.63c-.17-1.26-.25-2.51-.34-3.77a45.41,45.41,0,0,1,9.32-29.62h0A45.45,45.45,0,0,1,149,1865.66Zm36-27.1a11.14,11.14,0,0,1,4.87-6.72,10.68,10.68,0,0,1,8.22-1.26h0a11.18,11.18,0,0,1,6.72,4.87,10.87,10.87,0,0,1-3.61,14.85,10.88,10.88,0,0,1-8,1.35h-.26a11,11,0,0,1-6.71-5,10.75,10.75,0,0,1-1.26-8.13Zm-17.78,13.25L157.94,1867a47.63,47.63,0,0,1,12.25,5.29h.08a49.61,49.61,0,0,1,10.15,8.47l9.15-14.93a191.37,191.37,0,0,1-19.13-17.62v-.09ZM284.72,1718.4l-83.49,94.82,19.64,22.32c14.85-17.37,27.52-38.1,38.93-60.76,9-17.78,17.12-36.75,24.92-56.38ZM137.13,1895.53a1.71,1.71,0,0,0-.42.25,18,18,0,0,0-8,11.16h0a17.9,17.9,0,0,0,2,13.51,1.71,1.71,0,0,0,.25.42,18.23,18.23,0,0,0,11.16,8.06h.08a18.22,18.22,0,0,0,21.82-13.43l.08-.17a18.34,18.34,0,0,0-13.5-21.81,17.9,17.9,0,0,0-13.51,2ZM120.6,1905a26.47,26.47,0,0,1,11.83-16.44h.08a26.43,26.43,0,0,1,36.5,8.81,26.15,26.15,0,0,1,3.27,19.88l-.08.17a26.55,26.55,0,0,1-31.8,19.64l-.25-.09a26.23,26.23,0,0,1-16.36-11.83l-.09-.08a26.69,26.69,0,0,1-3.1-20.06Zm114.78-9.31a18.09,18.09,0,0,0-8.22,11.24v.17a17.88,17.88,0,0,0,2.18,13.59,18.2,18.2,0,0,0,25,6h0a18.54,18.54,0,0,0,8.23-11.24h0a18.25,18.25,0,0,0-2.18-13.76h0a17.85,17.85,0,0,0-11.25-8.22,18.25,18.25,0,0,0-13.76,2.18ZM219,1905a26.55,26.55,0,0,1,48.5-7.63h0a26.23,26.23,0,0,1,3.19,20h0a26.5,26.5,0,0,1-12,16.45h0a26.66,26.66,0,0,1-19.89,3.19l-.17-.09a26.44,26.44,0,0,1-19.63-31.8Z" transform="translate(-64.12 -145.35)" style="fill:#141515"/></svg>