<svg id="Layer_1" data-name="Layer 1" xmlns="http://www.w3.org/2000/svg" viewBox="0 0 33.08 55.67"><title>incognita</title><path d="M47.13,13.72c-2.33-4.25-5.08-7.91-11.29-9.2a17.87,17.87,0,0,0-15.13,4,13.88,13.88,0,0,0-5.25,10.12,15.32,15.32,0,0,0,2.17,7.92c.83.83,9.08.66,9.71.25s-.13-1.54.71-3.42a5.65,5.65,0,0,1,4.87-3.12c1.71.08,2.38,1,3.13,2.83s-.34,3.5-1.63,4.87a21.92,21.92,0,0,0-4.91,7.46C28,39.35,27.59,44.52,28.3,46.22s1.91,1.8,3.37,1.92,5.5.29,6.79-.42,1.34-1.45,1.63-4.37a32.68,32.68,0,0,1,2.17-8.13C43.38,32,46.51,27.85,47.46,25S49.46,18,47.13,13.72Zm-.92,6.42a17.7,17.7,0,0,1-.7,3.13s-2.09-6.09-2.75-6.21-.67.5-.59.62,3.25,6.71,3.17,7-.67,2-.75,1.67-2-5.21-2.46-5.21-.92.37-.75.62,2.79,5,2.63,5.55-.88,2-.88,1.7a17.72,17.72,0,0,0-2-4.16c-.33-.13-.87.16-.62.41A26.49,26.49,0,0,1,42.63,30c-.12.25-.62,1.12-.75,1s-1.58-3.75-2-3.75-.58.29-.54.41a43.91,43.91,0,0,1,1.87,4.55c-.08.29-.75,2.08-.83,1.91s-1.79-4.66-2.08-4.62-.46.87-.46.87,2.25,4.42,2.21,4.71a30.88,30.88,0,0,0-1.71,5.13,31.77,31.77,0,0,1-.67,3.5c0-.13-2.79-5.8-2.91-5.8s-1,.38-.67.88,2.62,5,2.92,5.46.58.75.33,1.21-.54.87-.92.83a2,2,0,0,1-.71-.25s.59-.25.42-.54a29.23,29.23,0,0,1-1.75-3.71c-.37-1.17-.37-1.21-.71-1.21s-.62.42-.37,1,2,4.21,2,4.42-1.25.33-1.25.12S32.8,43,32.3,43s-.67.63-.46.8,1.42,2.5,1.08,2.45-1.62.09-2-.41-.79-2-.33-5.25a18.88,18.88,0,0,1,3.62-9.25c2.13-2.67,4.3-4.5,4-7.67S36,18.35,33.63,18.31s-5.46.46-6.75,3-.79,4-1.21,4.08-6.16-.13-6.16-.13a11.92,11.92,0,0,1-1.21-8.5,13,13,0,0,1,6.62-8.5A15.81,15.81,0,0,1,37.38,7a12.15,12.15,0,0,1,7.92,7.75C46.13,17.22,46.46,18.31,46.21,20.14ZM42.88,14a.85.85,0,0,0-.37.67c0,.17.08.33,1,1.29s1.79,4.63,2,4.88,0,0,.25-.17-.38-1.87-.92-4S43.22,13.81,42.88,14ZM37.34,32.43a.85.85,0,0,0-.71.67,27.57,27.57,0,0,0,1.79,4c.17.08.38-.08.46-.33S37.6,32.43,37.34,32.43Zm-2.25,2.71a48.52,48.52,0,0,0,2.29,5.29c.21.25.17,0,.38-.41s-1.67-5.32-1.88-5.34A.73.73,0,0,0,35.09,35.14ZM21.3,14c-.38.25-1.21,1.59-1.46,4.21s.33,3.83.62,4,.67.17.84-.41-.59-1.38-.46-2.63a12.77,12.77,0,0,1,1.67-4.67C23.26,13.39,21.67,13.72,21.3,14ZM31.63,50.06c-1.29.25-4.87,1.16-5.17,3.87s.38,5.38,4.34,5.84,7.29-1.13,8-2.09a4.64,4.64,0,0,0,.46-5C38.17,50.35,34.49,49.5,31.63,50.06Zm5.92,5.08c-.5,0-1-2.25-1.5-2.29s-1.17-.21-.71.42,1.75,3.12,1.46,3.25-.67.66-.75.54-1.21-3.17-1.5-3.25-.84.25-.63.54,1.21,3,1.21,3-.37.5-.58.17A26.82,26.82,0,0,0,33.3,55c-.17,0-.71.29-.63.5s1.25,2.5.79,2.5a6,6,0,0,1-4.16-.88c-1.75-1.25-.92-4.67,3.29-5.54a5.58,5.58,0,0,1,4,.79C37.09,52.85,38.05,55.1,37.55,55.14ZM31,53.43a2.43,2.43,0,0,0-1,3,1,1,0,0,0,1.2.75l.14,0c.37-.12-.13-.41-.3-1.21s.42-1.45.59-2A.42.42,0,0,0,31,53.43Z" transform="translate(-15.46 -4.18)" style="fill:#ff873d"/></svg>