<svg id="Layer_1" data-name="Layer 1" xmlns="http://www.w3.org/2000/svg" viewBox="0 0 290 270.61"><title>loading</title><path d="M117.05,150.25a7,7,0,0,1,2.72,3.41,9.92,9.92,0,0,1,.45,1.4,10.89,10.89,0,0,1-.1,5.29,6,6,0,0,1-5.14,4.78c.8,5,1.56,8.36,1.72,9.16.79,3.37.73,2.53.62,3.35l-.41.34-.53-.07-.34-.42c0-.1-1.07-3.16-2.05-7.51-1.4-6.16-1.25-5.77-1.09-6.17a1,1,0,0,1,.46-.46h0c.43-.16,1-.13,1.94-.44a3.09,3.09,0,0,0,1.73-1.18,8,8,0,0,0,.68-7.13,4.56,4.56,0,0,0-2.28-2.65c-1.22-.68-.18-1.32-1-6-3.07-15.81-20.62-16.24-27.75-6.77h0l-.45.28-.5-.1h0l-.27-.43c.11-.62.07-.5.15-.62h0C94.22,125,116.89,129,117.05,150.25Z" transform="translate(-5 -14.69)" style="fill-rule:evenodd"/><path d="M94.4,145.45a3.23,3.23,0,0,1,2.29.87,2.18,2.18,0,0,1,.73,1.13s-.09.46-.09.46c-1.53.16-.65.11-1.54,0l-.47-.07h0a3.59,3.59,0,0,0-1.63,0h0a2,2,0,0,0-.81.53c-.13.17-.25.19-.83.56-.1.08,0,0-.94.43-.43-1-.38-.87-.39-1A2.21,2.21,0,0,1,91,147a4.1,4.1,0,0,1,1.93-1.35h0A4.64,4.64,0,0,1,94.4,145.45Z" transform="translate(-5 -14.69)" style="fill-rule:evenodd"/><ellipse cx="94.45" cy="153.85" rx="2.3" ry="2.03" transform="translate(-68.37 226.83) rotate(-87.5)"/><path d="M94.46,171.45l-.55-.15h0c-.13-.08-.55-.28-.69-.35h0l-1-.47h0a5.83,5.83,0,0,1-.7-.37h0a5.14,5.14,0,0,0-1.41-.54h0a2.07,2.07,0,0,0-.35,0h-.22a.43.43,0,0,0,0,.07h0l0,0h0v0h0l0,0h0l0,.06h0a2.48,2.48,0,0,0-.19.26h0a3.7,3.7,0,0,0-.25.43h0l-.71.68c-.76-.79-.67-.58-.85-1.35h0a3.88,3.88,0,0,1,0-.59h0a2,2,0,0,1,.13-.59,2.58,2.58,0,0,1,1-1.1,2.74,2.74,0,0,1,1.68-.39,7.07,7.07,0,0,1,3.38,1.36h0A7.65,7.65,0,0,1,95,170.18l.18.54-.15.46h0Z" transform="translate(-5 -14.69)" style="fill-rule:evenodd"/><path d="M86.23,175.55c.3.26,1.11.82,1.22.89a10.16,10.16,0,0,0,8.57,1.8c.78-.17,1.55-.61,2.11.5a46.4,46.4,0,0,1,2.2,6.08c.36,1.1.3.69.29,1.42l-.33.39h-.53c-.5-.43-.3-.08-1.43-2.24,0-.09-1.29-2.62-1.88-3.93a11.92,11.92,0,0,1-2.59.32,12.34,12.34,0,0,1-7-2,7.28,7.28,0,0,1-2.18-2.17h0a11.61,11.61,0,0,1-.75-1.33h0l-.07-.55.25-.41h0l.47-.08C85.44,174.69,84.58,174.14,86.23,175.55Z" transform="translate(-5 -14.69)" style="fill-rule:evenodd"/><path d="M89.31,178.82c-1.77-.64-4.13-1.33-4.62-3.14-.37-1.3-.67-2.63-.91-4a21.13,21.13,0,0,1-.18-5.27c0-.2,0-.69.12-.58,1.72,1.16.78,4.08,5.36,12.81" transform="translate(-5 -14.69)" style="fill-rule:evenodd"/><path d="M87.67,176.64a6.75,6.75,0,0,0,3.16.62c-.58-1.41-2.18-5.37-.67-5.15.48.07.84.57,1.09.94.66,1,.9,2.44,1.83,3.22s2.93-.27,3.75-.6c.55-.22,1.9-.5,2.09-1.2s-.45-1.76-.73-2.43c-.6-1.44-1.25-2.89-1.94-4.31a7,7,0,0,0-1.5-2.39c-1.43-1.27-2.45-.52-3.38-1.14-.59-.4-.87-1.08,0-1.42a4.09,4.09,0,0,1,2.3,0,6.14,6.14,0,0,1,2.11.72c1.92,1.18,2.9,3.5,4.76,6.43,1.39,2.24,1.34,4.14,4.67.45,4.88-5.35,3-7.5,4.53-12.76.1-.33.33-1.31.85-1.19.81.2,1,1.4,1.13,2.08a19.58,19.58,0,0,1-.12,6.57,13.58,13.58,0,0,1-2.38,5.51c-1.4,1.75-4.83,5.24-8.52,6.76-.81.34-3.65,1.61-4.32,1.78-5.1,1.31-9.41-.77-10.08-2.28-.13-.3,0-.59.36-.57a4.11,4.11,0,0,1,1.08.34" transform="translate(-5 -14.69)" style="fill-rule:evenodd"/><path d="M58.32,145c.44.47.3.09,1.08,2.47,6.19,21-4.25,35.91-2.29,67.25.73,9.66,2.48,17.84,7.51,26a41.53,41.53,0,0,0,15.56,14.27c.52,0,14.52,9.49,35.39,2.4h0l.53,0,.37.38s0,.53,0,.54l-.39.37a49.32,49.32,0,0,1-12.9,2.95,43.34,43.34,0,0,1-42.78-23.93c-6.88-13.86-6.52-34-4.47-49.34,1.26-10.8,5.11-26.36,2.68-37.89a37.33,37.33,0,0,0-1.2-4.65h0l0-.53.38-.35Z" transform="translate(-5 -14.69)" style="fill:#010101;fill-rule:evenodd"/><path d="M65.31,143.39l.42.36c1.28,1.75,1.48,3.07,2,5.83a29.5,29.5,0,0,1,.54,5.3,21.2,21.2,0,0,1-.36,3.18l-.27.49-.46.19h0l-.45-.23-.22-.51h0c-.06-.72-.39-3.1-.54-4.76h0c-.38-4.3-1.2-5.91-1.43-7.8,0,0-.12-1.16-.13-1.2s.09-.55.09-.56l.32-.33h0Z" transform="translate(-5 -14.69)" style="fill:#010101;fill-rule:evenodd"/><path d="M73.38,142.6a2.3,2.3,0,0,1,.78.94,7.72,7.72,0,0,1,.74,1.53,28.53,28.53,0,0,1,.88,5.5,15.26,15.26,0,0,1-.32,5.09c-.09.48-.38,1.3-.38,1.4l-.33.46-.48.14h0l-.41-.28-.17-.54h0c0-1.24-.12-5.37-.14-5.91a29.16,29.16,0,0,0-.84-5.4c-.08-.44-.21-2-.21-2.1h0l.1-.55.32-.33h0Z" transform="translate(-5 -14.69)" style="fill:#010101;fill-rule:evenodd"/><path d="M81.41,145.54c.36.51.37.23.89,3.6A74.87,74.87,0,0,1,82.57,162,54.5,54.5,0,0,0,83,172.39c2.39,13.8,12.48,28.92,18.2,45a1.6,1.6,0,0,1,.16,1.07l-.39.37h0l-.52,0c-.5-.51-.22,0-1.07-2.08-6-13.48-15.66-29.51-18.34-42.63-1.88-9.62.27-17.42-.53-26.8-.16-1.33-.17-1,0-1.62l.43-.29Z" transform="translate(-5 -14.69)" style="fill:#010101;fill-rule:evenodd"/><path d="M107.44,208l.39.29v.49c-1.32,1.7-4,2.54-7.07,4.31h0a5,5,0,0,1-1.88.69c-.21.06,0,.07-1.11-.16.22-1.11.16-.91.3-1.09a4.1,4.1,0,0,1,1.57-1.41c0-.12,3.89-2,4.48-2.3a16.62,16.62,0,0,1,1.81-.59A2.94,2.94,0,0,1,107.44,208Z" transform="translate(-5 -14.69)" style="fill:#010101;fill-rule:evenodd"/><path d="M16.16,165h0l.34.38c0,.88.11.09-.86,2.49-3.73,9-5.94,19.9-7.19,29.74-.71,6.25-1,11.73-1.16,15.71a47,47,0,0,0,1.37,14.17,50.88,50.88,0,0,0,1.76,5.27A31.92,31.92,0,0,0,25.58,249a31.09,31.09,0,0,0,13.6,3,42,42,0,0,0,15.53-3.23c.94-.38,3.81-1.68,3.93-1.79l.54,0s.4.34.41.35l0,.53c-.46.56,0,.28-3.32,1.92a46.64,46.64,0,0,1-11.17,3.63,40.37,40.37,0,0,1-7.76.62c-.61,0-1.21-.06-1.61-.08a31.17,31.17,0,0,1-10.7-2.7A32.4,32.4,0,0,1,15,243.83a32.28,32.28,0,0,1-6.13-9C4.32,224.72,4.7,216.07,5.49,205c1.23-14.42,3.13-26.63,9.75-39.66h0l.4-.35Z" transform="translate(-5 -14.69)" style="fill:#010101;fill-rule:evenodd"/><path d="M38,170.14l.44.24.18.5c0,.15,0,1.87,0,3.16h0c0,.71.1,2.27.12,2.59A86.55,86.55,0,0,0,40,188.21c1.1,7.33,4.58,17.41,7.35,24.22,2.49,6.11,2.17,4.74,2.21,5.69l-.34.41-.53,0c-.55-.46-.3-.14-1.13-1.67-.58-1.11-2.28-4.27-3.66-7.54a95.19,95.19,0,0,1-6.5-23.05c-1.46-9.72-.17-14.6-.13-15.52l.27-.47.47-.16Z" transform="translate(-5 -14.69)" style="fill:#010101;fill-rule:evenodd"/><path d="M53.4,207.24l.37.29,0,.47-.38.48a9.81,9.81,0,0,1-2.3,1.45c-.11,0-.83.39-3.2,1.26h0a1.94,1.94,0,0,1-.7.2,4.64,4.64,0,0,1-.52,0c-.66,0-.35,0-1.41-.45.5-1.07.31-.78.8-1.24a2.67,2.67,0,0,1,1-.64c.21,0,3.74-1.63,5-1.75A3,3,0,0,1,53.4,207.24Z" transform="translate(-5 -14.69)" style="fill:#010101;fill-rule:evenodd"/><ellipse cx="221.42" cy="143.26" rx="2.53" ry="2.76" transform="translate(-14.51 1.2) rotate(-4.02)"/><path d="M222.35,133h0a6.09,6.09,0,0,1,.81.4c.11.07,0,0,.46.47l0,.47h0l-.34.33-.57.09a4.42,4.42,0,0,0-.63,0,8.59,8.59,0,0,0-1.44.18h0a4.88,4.88,0,0,0-1.46.41,5.61,5.61,0,0,0-1.68,1.16h0a3,3,0,0,1-.57.5h0a3.08,3.08,0,0,1-1.75.78l-.24-.95a5.17,5.17,0,0,1,.35-1.14h0a2.47,2.47,0,0,1,.63-.81h0a8.09,8.09,0,0,1,2.18-1.53,7.72,7.72,0,0,1,2.29-.67A4.83,4.83,0,0,1,222.35,133Z" transform="translate(-5 -14.69)" style="fill:#010101;fill-rule:evenodd"/><path d="M220.86,159.74l.36.33.1.56a8.21,8.21,0,0,1-.64,2.29c-.06.11.14-.28-.28.54h0a11.39,11.39,0,0,1-4.2,3.9,7.2,7.2,0,0,1-1.81.77,5.17,5.17,0,0,1-1.57,0c-.37-.06-.14.07-1-.65.88-1.11.23-.49,1.93-1.48h0a10.13,10.13,0,0,0,2.56-1.4h0a12.56,12.56,0,0,0,2.33-2.39h0a13.19,13.19,0,0,0,.86-1.14h0a7.77,7.77,0,0,0,.53-.87h0l.39-.41.48-.08Z" transform="translate(-5 -14.69)" style="fill:#010101;fill-rule:evenodd"/><path d="M101.91,35.64l.43.26c.31.91.08-.32.13,4.34,0,4.84,0,4.6-.25,5-.93,1-1.47-.2-3.72.51a3.88,3.88,0,0,0-1.92,1.32,3.41,3.41,0,0,0-.68,2.54v0s0,.11,0,.17A2.39,2.39,0,0,0,97,51.06c1.49.86,4.2.39,5,.62.94.42.63.93,1,2.54a7.54,7.54,0,0,0,2.53,4.36h0c1.7,1.35,1.68-.55,1.41,6.46-.06,2,0,1.53-.26,2.18l-.48.22h0c-.86-.36-.68.25-1.06-6.72-2-.93-3.71-2.91-4.45-6.5h0c0-.2-.05-.27-.07-.36A9.5,9.5,0,0,1,96,53,4.84,4.84,0,0,1,94,51.1a4.12,4.12,0,0,1-.43-2.1,6.15,6.15,0,0,1,6.53-5.72h.1a46.18,46.18,0,0,1,.52-5c.41-2.42.33-2,.66-2.52l.48-.15Z" transform="translate(-5 -14.69)" style="fill:#010101;fill-rule:evenodd"/><path d="M122.46,36.39l.45.21.23.49c0,.67.49,4.63.54,6.86a7.6,7.6,0,0,1,3.5.79A4.74,4.74,0,0,1,129.55,49a5.62,5.62,0,0,1-.07.92c-.56,3.21-3.28,4.32-6.55,4.38-.2,0-.11-.07-.22.36A8.71,8.71,0,0,1,119,60.2c-.16.1,0-.26-.26,2.74s0,2.25-.35,3l-.47.22h0l-.48-.2c-.33-.7-.2-.19-.32-2.14-.15-4.9-.1-3.59-.13-4a1,1,0,0,1,.37-.94h0a6.42,6.42,0,0,0,2-2,1.19,1.19,0,0,1,.09-.15,9.83,9.83,0,0,0,1-2.3c.38-1.29.1-1.68.74-2.23.59-.36.9-.12,2.52-.24a4.53,4.53,0,0,0,2.84-1,3,3,0,0,0,.46-3.33c-.62-1.23-2-1.4-3.39-1.46-1,0-1.65.16-2.08-.74a2.83,2.83,0,0,1-.08-.87,62.72,62.72,0,0,1,.32-7.51l.23-.49.46-.2Z" transform="translate(-5 -14.69)" style="fill:#010101;fill-rule:evenodd"/><path d="M114.11,52.35c-.07,1,0,.95-.28,1.36a2.75,2.75,0,0,1-1.11,1,3.79,3.79,0,0,1-3.39-.23c-.39-.22-.4-.22-.68-.7h0c-.1-.22-.15-.4-.16-.4l-.1-1c2.07-.21,1.68,0,2.41.27s.91-.05,1.47-.15C113.49,52.26,112.57,52.29,114.11,52.35Z" transform="translate(-5 -14.69)" style="fill:#010101;fill-rule:evenodd"/><path d="M111.94,42.21c.54,1.4.35.68.27,4.06a11.07,11.07,0,0,1-.33,3.19,2,2,0,0,1-.34.88l-.4.24h0l-.43-.2-.3-.5h0c-.62-2.06-.51-2.57-.37-5.59a3.07,3.07,0,0,1,.29-1.66c.29-.61.1-.37,1-1.15Z" transform="translate(-5 -14.69)" style="fill:#010101;fill-rule:evenodd"/><ellipse cx="106.48" cy="42.88" rx="1.84" ry="1.38" transform="translate(54 132.7) rotate(-87.5)"/><ellipse cx="116.14" cy="43.3" rx="1.84" ry="1.38" transform="translate(62.82 142.75) rotate(-87.5)"/><path d="M123.21,155.44c4.59-1.06,12.52-7.38,11.47,4.28-.62,6.83-2.57,14.64,0,21.31" transform="translate(-5 -14.69)" style="fill:none"/><path d="M105.94,59.32a9.65,9.65,0,0,1,1.08.13,6.88,6.88,0,0,0,2.23.59c.66.06,1,0,1.39.07a6.58,6.58,0,0,1,2.12.37l.29.36-.13.46-.45.38h0a5.19,5.19,0,0,1-2.58.66,10.17,10.17,0,0,1-3.14-.56,2.33,2.33,0,0,1-1.41-1c-.29-.45-.18-.11-.38-1.3C106.28,59.26,105.83,59.31,105.94,59.32Z" transform="translate(-5 -14.69)" style="fill-rule:evenodd"/><path d="M101.33,45a9.92,9.92,0,0,1-.79-10.24c-3.36-.76-6.3-4-7.24-7.24,6.7,4,19.27-6.95,27.47-2.41,3.25,1.8,4.6,5.85,4,9.4,4.74,2.22,3.27,6.54.84,11.18a8.57,8.57,0,0,0-3-.44c-.21-3.43.19-6.86-.08-10.29a28.39,28.39,0,0,1-5.57,1c-4.26.5-9,.67-13.19-.48a19.11,19.11,0,0,0-2.26,9.94" transform="translate(-5 -14.69)" style="fill-rule:evenodd"/><path d="M94,26.56c5.53,2.85,14.51-4.24,23-3.68,5.86.37,9,4.62,9.09,9.91,0,1.75-.45.47,1.15,1.93,2.9,2.92,1.85,6.4.08,10.12-.61,1.19-.79,2.06-1.92,1.92a7,7,0,0,0-2.75-.42c-1.22-.13-1.11-1.16-1.15-2.23-.08-1.82.12-6,0-7.77-.87.18-1.76.32-2.64.42-10.1,1.2-14-.21-14.29-.23l-.33-.08a20.64,20.64,0,0,0-1,2.48,17.28,17.28,0,0,0-1,5.46c0,1,.15.56-.16,1.43l-.47.25h0l-.5-.17-.24-.48h0v-.05l0,0a11.43,11.43,0,0,1-2.15-7.24,10.38,10.38,0,0,1,.58-2.75,11.16,11.16,0,0,1-5.06-3.83,11.37,11.37,0,0,1-1.77-3.31,1.74,1.74,0,0,1-.15-1,1.13,1.13,0,0,1,1.12-.88A1.26,1.26,0,0,1,94,26.56Zm7.5,7.83a.91.91,0,0,1,0,.65,8.67,8.67,0,0,0-.69,7.07c.06.2,0,.18.08-.32a21.47,21.47,0,0,1,1.43-5.26c.68-1.59.71-1.78,1.24-2,.11,0,0,0,.3,0a24.81,24.81,0,0,0,5.27.75,59.61,59.61,0,0,0,11.32-1,18,18,0,0,0,1.92-.5,1.09,1.09,0,0,1,1.18.65c.37,1.12.09,6.45.15,9.65a9.6,9.6,0,0,1,1.31.18c.11-.21.34-.69.45-.91a12.78,12.78,0,0,0,1.06-2.86c.59-2.61-.15-3.77-1.62-4.72-.71-.41-.72-.29-1.06-.67-.59-.93.25-.85-.22-4.1a7.25,7.25,0,0,0-3-4.76c-6.78-4.29-17.75,4.29-25.23,3.11A9.81,9.81,0,0,0,100,33.53C100.84,33.85,101.17,33.72,101.47,34.39Z" transform="translate(-5 -14.69)" style="fill-rule:evenodd"/><path d="M144.39,81.85s-9.78,9.65-30.74,12.47c-8.53,1.14-17.24-1.47-24.89-5.25-3.69-1.82-8.12-4-10.76-7.24.84-2.56,3.32-4.91,5.36-6.58,4.94-4,11.16-7.35,17.6-8.07a9,9,0,0,0,4.7,4.09c6,2.64,12.29.61,16.08-4.53C130.53,67.75,140.33,74.66,144.39,81.85Z" transform="translate(-5 -14.69)" style="fill:#fc7323;fill-rule:evenodd"/><path d="M139.3,86.61a60,60,0,0,1-18.49,7.56c-11,2.51-19.94,2.68-35.63-5.64a26.81,26.81,0,0,1-7.78-5.66,1.45,1.45,0,0,1-.53-1,7.21,7.21,0,0,1,1-2.37,15.42,15.42,0,0,1,1.41-1.91,38.55,38.55,0,0,1,8.33-6.73,33.1,33.1,0,0,1,12.91-4.75,1.24,1.24,0,0,1,1.28.33,6.6,6.6,0,0,0,2.42,2.76c4.65,3.14,11.21,3.16,16.12-2.35h0c1-1.16.77-1.24,2.38-1,8.11,1.34,17.46,7.41,22.24,15.57a.72.72,0,0,1-.08.94h0A36.66,36.66,0,0,1,139.3,86.61ZM120.88,69.32a14,14,0,0,1-11.42,4.14c-4.26-.48-7.9-2.9-9.13-5.07a32.33,32.33,0,0,0-13,5.35,33,33,0,0,0-6.45,5.5,10.22,10.22,0,0,0-1.53,2.37,18.93,18.93,0,0,0,3.44,2.87,75.8,75.8,0,0,0,11.78,5.9c8,3.07,14.08,3.5,19.46,2.75,9.3-1.32,19.56-4.44,27.48-9.88a25.18,25.18,0,0,0,2-1.54C139.16,74.94,130.34,69,122.2,67.83A15.45,15.45,0,0,1,120.88,69.32Z" transform="translate(-5 -14.69)" style="fill:#fc7323;fill-rule:evenodd"/><path d="M128.74,15.23c9.92.79,28.3,3.19,37.74,7.88a30.26,30.26,0,0,1,13,11.64,23.59,23.59,0,0,1,2.48,6.2c1.9,8.2-.78,15.91-5.88,22.69A96.26,96.26,0,0,1,166,74.44a142.71,142.71,0,0,1-16.37,13c-6.77,4.65-6.65,4-5.17,3.9a23,23,0,0,1,8.74,1.25c4,1.37,5.35,5.18,3.8,8.32-4,8.18-23.46,6.34-26.82-.49a4.82,4.82,0,0,1-.46-1.32c-14.21,1.27-32.17,4.71-55.82-8.14-6.1-3.36-11.52-7-15.52-12.63a38.13,38.13,0,0,1-3.87-6.7,37.4,37.4,0,0,1-1.56-26.5C61.72,17.43,99.81,12.87,128.74,15.23Zm10.92,77.28c.16-.7,0-.26,3.31-2.41,11.46-7.27,30.3-22.22,35.41-34.07a23.76,23.76,0,0,0,2.14-9.71,21.88,21.88,0,0,0-6.9-15.62c-4.47-4.24-8.82-6.31-14.72-8.12-6.76-2-16.42-3.55-22.9-4.34-21.65-2.61-52.56-2.15-69.59,11.52a33.67,33.67,0,0,0-12,34.55C57,74.87,62.51,81.39,70.6,86.47c17.3,10.76,32.31,12.94,51,11.26,9.31-.87,9.38-1.17,10-.39a1.08,1.08,0,0,1,.19.76v.19c-.22,5,16.49,9.29,22.77,3.06,2.26-2.65,1.38-5.6-1.1-6.85a23.45,23.45,0,0,0-6.05-1.57,28.64,28.64,0,0,0-6.92.28h0a.71.71,0,0,1-.8-.61v-.1Z" transform="translate(-5 -14.69)" style="fill-rule:evenodd"/><path d="M152.77,183.94c-4-3.17-9.29-4.95-14.2-6.06-6.22-1.42-18.73-.41-18.85-.3-4.82,4.55-9.25,9.41-15,12.87-2.31,1.38-7.48,2.23-6.22-2.1A14.68,14.68,0,0,0,93.06,192c2.5,5.54,4.63,10,7.15,15.52,2.62-1.07,4.4-1.41,7-2.46,7.92,5.34,13.28,15.21,16.18,24.12,1.13-1.9,2.27-3.86,3.55-5.67-1.48-4.17-3.31-12.54,3.46-12.9-.35-5.19,1.27-11,7.57-10.34-.23-2.66-.22-5.66,1.3-8,1.93-2.93,6-1.56,7.94.53C148.85,190,152.77,183.94,152.77,183.94Z" transform="translate(-5 -14.69)" style="fill:#fc7323;fill-rule:evenodd"/><path d="M149.67,190.27c-1.95,3.21-1.76,3.42-2.55,3.39-.42-.1-.45-.25-.65-.42a6.38,6.38,0,0,0-2.61-1.52,4.2,4.2,0,0,0-2.08-.14h-.05a2.56,2.56,0,0,0-1.08.54l0,0h0a7.35,7.35,0,0,0-1.76,4.74c-.13,3.11.32,3.2,0,3.92a1,1,0,0,1-1,.44,5.87,5.87,0,0,0-3.3.55,5.66,5.66,0,0,0-2.56,3.52,10.84,10.84,0,0,0-.37,1.69c-.45,3.56.37,3.84-.62,4.56h0c-1,.45-5.16-.39-4.11,7h0a26.17,26.17,0,0,0,1.16,4.55c.26,1-.16.66-3.22,5.92-.44.74-.56,1.17-1.33,1.27a1.12,1.12,0,0,1-1.13-.78,60.16,60.16,0,0,0-6-13,35.23,35.23,0,0,0-9.29-10.24c-.86.27,1-.3-3.44,1.16-1.9.6-2.87,1-3.19,1.13a1.14,1.14,0,0,1-1.27-.63c-4.9-10.78-7.25-15.31-7.25-16.1a1,1,0,0,1,.32-.68,14.48,14.48,0,0,1,4.09-3.12,12.57,12.57,0,0,1,2-.9,1.12,1.12,0,0,1,1.16.71c.16.53,0,.56-.07,1.18a1.8,1.8,0,0,0,0,.61v0s0,0,0,.06v0a.56.56,0,0,0,0,.12h0v0h0s0,0,0,0h0l0,0h.07l0,0h0l0,0h0l.06,0h0l.2.07h.19c2.68.12,4.23-1.06,6.4-2.59,5.89-4.34,11.46-10.5,12.52-11.23,1-.44,13-1,19,.21,5,1.12,11.06,3.29,15,6.6h0C153.88,184,153.52,183.94,149.67,190.27Zm-2.62,1.29h0c.4-.75,4.58-7.25,4.77-7.46-3.66-2.68-9-4.38-13.46-5.29-3.14-.77-10-.62-13.23-.5-.91.05-4,.22-4.89.33-6.57,6.32-8.17,8.09-13.06,11.56a12.35,12.35,0,0,1-5.08,2.37c-1.32.23-3,.19-4-.74a2.76,2.76,0,0,1-.89-1.61,12.05,12.05,0,0,0-2.8,2.06c1.53,3.43,5.77,12.46,6.38,13.83,1-.4,4.34-1.4,5.33-1.8,1.36-.5,1.14-.62,2.88.65a37.46,37.46,0,0,1,8.9,9.84,62,62,0,0,1,5.79,11.75c.06-.11,1.34-2.22,2-3.18-1.17-3.65-2.24-8.81.22-11.8a5.52,5.52,0,0,1,3.38-1.89,12.57,12.57,0,0,1,2.2-8,6.47,6.47,0,0,1,1.47-1.34,6.93,6.93,0,0,1,4-1.12c-.16-3.14.45-7.39,3.15-8.92,1.62-.92,4.28-.87,6.94,1.21Z" transform="translate(-5 -14.69)" style="fill:#fc7323;fill-rule:evenodd"/><path d="M131.15,282.62a25.56,25.56,0,0,1-10.9-24.44c-8.49,4.81-17.42,7.28-27.11,5,1.5,6.65,3,13.3,4.49,19.95,3.78-.13,22.42-.35,33.86-.29" transform="translate(-5 -14.69)" style="fill:#fc7323;fill-rule:evenodd"/><path d="M120.44,257.07a1.13,1.13,0,0,1,.94,1.07c0,.21-.09.82-.1.93a23.92,23.92,0,0,0,.63,8.47,25.92,25.92,0,0,0,4.61,9.66h0a28.62,28.62,0,0,0,5.1,5l.37.16c.67,1.58.74,1.14-13.72,1.43-15,.43-4.62,0-20.61.48a1.14,1.14,0,0,1-1.14-.89c-4.77-21.45-4.59-19.89-4.47-20.51a1.14,1.14,0,0,1,1.15-.81,31.55,31.55,0,0,0,11,.63A38.15,38.15,0,0,0,116,259.13C119.85,257.31,119.58,257,120.44,257.07ZM96.72,265c-.11,0-2-.26-2.1-.32.78,3.4,3.17,13.94,3.91,17.34.87-.25,25.84,0,30.57.1-.11-.06-1-.76-1.52-1.22a23.22,23.22,0,0,1-2.47-2.49,25.56,25.56,0,0,1-6.19-18.17C112,263.79,104.51,265.91,96.72,265Z" transform="translate(-5 -14.69)" style="fill:#fc7323;fill-rule:evenodd"/><path d="M203.85,177a9.81,9.81,0,0,0,1.6.93l.63.33h0a10.34,10.34,0,0,0,3.4,1.26,13,13,0,0,0,3.47.17A21.35,21.35,0,0,0,217,179a7.16,7.16,0,0,0,1.37-.56l.54-.1.44.24h0l.1.5-.26.49h0a10.15,10.15,0,0,1-1.47,1.06,10.63,10.63,0,0,1-4.18,1.3,15.2,15.2,0,0,1-6.28-.64,11.36,11.36,0,0,1-2.35-1.08h0l-.36-.26a8,8,0,0,1-1.72-2h0l-.13-.53.17-.44h0l.45-.14Z" transform="translate(-5 -14.69)" style="fill-rule:evenodd"/><path d="M206.6,179c.34.64.21.15.48,1.86a27.31,27.31,0,0,1,.19,5.79,1.37,1.37,0,0,1-.17.77c-.5.72-.95.53-2.2.59a87.37,87.37,0,0,0-10.7,1.21c-1.69.31-1,.32-1.87.2L192,189s0-.5,0-.52l.4-.37h0a26.13,26.13,0,0,1,9.12-2.21c3.76-.3,3.45-.12,3.46-.27s0-1.05,0-1.6h0a16.55,16.55,0,0,1,.21-3.22c0-.05.21-1.33.21-1.37h0l.25-.49.44-.2h0Z" transform="translate(-5 -14.69)" style="fill-rule:evenodd"/><path d="M240.45,138.34h0a10.83,10.83,0,0,1,1.23.74c5.09,3.71,4.77,9.9-.36,13.48a14.62,14.62,0,0,1-5,2.23,37.29,37.29,0,0,1-1.84,12,27.79,27.79,0,0,1-4.52,8.62c0,.13.08,5.3.37,9.81A89.56,89.56,0,0,1,241.26,189c1.17.55.88.35,1.34.87v.52l-.39.37h-.55a89.29,89.29,0,0,0-12.2-3.69,1.46,1.46,0,0,1-.57-.15h0c-.54-.35-.54-.72-.6-1.38-.23-2.19-.46-5.31-.56-9.57,0-1.76,0-1.28.87-2.5l.38-.53a25,25,0,0,0,2.48-4.5,34.3,34.3,0,0,0,2.6-14.53,1.13,1.13,0,0,1,.79-1.12,12.6,12.6,0,0,0,2.42-.6c3.24-1.34,6-3.49,5.8-7,0,0,0-.16,0-.16a6,6,0,0,0-1-2.82h0a7.57,7.57,0,0,0-2.43-2.28,8,8,0,0,0-4.09-1.23l-.5-.2-.22-.47h0l.19-.48c.56-.27.4-.23.87-.25A9.78,9.78,0,0,1,240.45,138.34Z" transform="translate(-5 -14.69)" style="fill-rule:evenodd"/><path d="M195.3,120.57c2.91,1.53,5.69,3.26,8.92,4,7.21,1.71,15.58-1.17,21-6.08.79,8,2.38,17.09,11.06,19.27.57-5,0-10.92-2.24-15.49-2.54-5.21-8-9.06-13.61-10.34a25.63,25.63,0,0,0-14.36.7c-1.9.71-3.58,2-5.56,2.53-.82.23-2-.14-1.86-1.2a4.81,4.81,0,0,1,1.64-3,23.56,23.56,0,0,1,9.4-4.2c5-.92,12.88.08,17.4,2.6a28.27,28.27,0,0,1,10.55,11.53c2.07.1,3.29.45,5-1,2.1-1.73,1-5.4-6.33-6.3a15.78,15.78,0,0,0,3.91-1.81A7.52,7.52,0,0,0,243.3,109c1.32-2.64-.53-5.19-3.32-5.48s-6.2,1.86-8.19,3.87c1.45-2.27,3.29-4.35,4.1-7,1.05-3.36-.4-5.62-3.73-3.94-2.66,1.34-4.35,4.33-6,6.71a23,23,0,0,0,2.22-5.59c.61-3,.08-9.23-4.65-7.78-4,1.22-6.21,5.83-7.49,9.8.33-3,1.58-10.2.15-13.14A2.87,2.87,0,0,0,212.66,85a2.73,2.73,0,0,0-.87.57A6.73,6.73,0,0,0,210.52,87c-2.45,3.7-2.48,8.34-2.8,12.61-.7-3-1.64-6.4-4-8.6-3.57-3.36-6.53,1.24-6.76,4.66s1.08,6.39,2.14,9.49c-1.91-2.8-3.31-6.93-6.26-8.89s-5.54,1-5.52,4.14c0,3.65,2.78,7.32,4.75,10.27-2.33-2.18-5.36-5.26-8.85-5.14-2.42.08-5,5.4-.23,10.56,3.24,3.54,7.64,3.6,12,4" transform="translate(-5 -14.69)" style="fill-rule:evenodd"/><path d="M236.67,96c1.38,2.07.46,4.93-.72,7.11l.17-.07c7.86-3.07,11.62,5,6.15,8.75-.47.36-1.74,1.16-2.27,1.46a11.68,11.68,0,0,1,2,.84c3,1.64,4,5,.74,7.17-1.58,1-2.78.92-4.61.8-.7,0-.7,0-1-.17-.7-.46-.14-.34-2-3.25a28.46,28.46,0,0,0-7.44-7.6c-5.35-3.46-14.35-4.19-19.13-2.83a23.1,23.1,0,0,0-6.77,3.1,4.55,4.55,0,0,0-1.42,1.34,3.81,3.81,0,0,0-.54,1.4h0a.78.78,0,0,0,.34,0,21.15,21.15,0,0,0,4-1.81c9.24-4.62,24.76-2.31,30.85,9.23a23.92,23.92,0,0,1,2.16,6.64,33.19,33.19,0,0,1,.36,9.12c-.08.68-.05.75-.27,1.13a1.12,1.12,0,0,1-1.27.4,14.78,14.78,0,0,1-2.34-.83c-5.83-2.81-7.67-8.35-8.75-14.75-.09-.6-.31-2.12-.37-2.83a26.44,26.44,0,0,1-15.49,5.49c-7,0-11.08-3.41-13.94-4.72-.57-.69.28-.23-3.79-.7-4.51-.52-7.76-1.91-10.21-5.79a11.9,11.9,0,0,1-.79-1.55,8.23,8.23,0,0,1-.62-3.46c.1-2.28,1.41-4.9,3.76-5a8.73,8.73,0,0,1,4.91,1.59h0c-1.24-2.36-2.21-4.83-1.64-7.46.82-3,2.63-4.19,4.35-4.18,2.12,0,3.78,1.73,5.09,3.39-.05-.17-.09-1.23-.1-1.34-.07-5.72,4.19-10.12,8.22-6.78a12,12,0,0,1,2.92,4,17.08,17.08,0,0,1,2.82-8c1.36-1.94,3.43-2.93,5.57-2,3.06,1.55,2.84,5.54,2.69,9a15.49,15.49,0,0,1,1-1.3c3.64-3.92,8.46-4.52,10,.12a12.3,12.3,0,0,1,.49,5.08,8.52,8.52,0,0,1,3-1.77C234.64,94.46,236,95,236.67,96Zm-22.52,9.31c4.43.07,9.86,1,13.65,3.2a29.47,29.47,0,0,1,8.36,7.8,25.8,25.8,0,0,1,2.17,3.5,9.13,9.13,0,0,0,2.09,0,3.33,3.33,0,0,0,1.86-1.18h0l0,0h0l0-.06h0v0h0v0a.72.72,0,0,1,.05-.14v-.07h0v0h0V118h0V118h0v0c0-.06,0-.1,0-.16v0h0v-.06l0-.08c0-.15-.37-1-2.24-1.85a14.72,14.72,0,0,0-3.76-1,1.19,1.19,0,0,1-1.07-.67,1.13,1.13,0,0,1,.35-1.38c.35-.22.86-.3,2-.79s3.82-2,4.46-3.08a2.55,2.55,0,0,0-1.46-4,6.06,6.06,0,0,0-4.57.77,15.2,15.2,0,0,0-3.46,2.61,1.12,1.12,0,0,1-1.43.14,1.13,1.13,0,0,1-.41-1.38c.86-1.64,5-6.21,4.26-9.2l0,0a.43.43,0,0,1,0,0v0h0v0h0v0c-.14-.28-.16-.3-.16-.31h-.11l0,0h0a1,1,0,0,0-.43-.06,5.51,5.51,0,0,0-3.14,1.59c-3.74,3.74-3.48,6.1-5.25,5.6a1.14,1.14,0,0,1-.72-1.2c.17-.74,2.07-3.67,2.36-6.41.17-1.7,0-4.47-1.29-5.56-1.1-.87-3.08.13-4.15,1-2,1.49-3.45,4.53-4.29,6.9-.43,1.21-.37,1.39-1,1.72a1.13,1.13,0,0,1-.77,0c-1.75-.71.05-2.61,0-10.69,0-1.39-.24-3.42-1.5-4a1.61,1.61,0,0,0-.94-.13,3.21,3.21,0,0,0-1.86,1.45c-2.37,3.5-2.5,7.25-2.81,11.77,0,.73,0,1-.47,1.4a1.11,1.11,0,0,1-1.37,0c-.7-.67-.26-1.28-1.7-5a9.66,9.66,0,0,0-.43-1c-.63-1.34-2.14-3.51-3.63-3.54a2.62,2.62,0,0,0-2,1.3c-2.61,3.81-.71,8.1.74,12.47a1,1,0,0,1-.25,1.24,1,1,0,0,1-1.26,0c-1.32-1.16-3.76-8.28-7-9.29a1.84,1.84,0,0,0-1.77.27c-4.7,4.27,3,12.4,3.2,13.66a.88.88,0,0,1-.8,1,.91.91,0,0,1-.43-.07c-.92-.49-4.47-5.1-8.33-5.13a1.25,1.25,0,0,0-.78.2c-2.54,1.94-1.67,7,1.66,9.72,2.72,2.52,6.78,2.74,10.39,3.06.51,0,.31,0,.89.29l.11.33c3.77,2,6.92,3.81,10.76,4.18a22.52,22.52,0,0,0,11.35-2,25.32,25.32,0,0,0,6.73-4.38,1,1,0,0,1,1.21-.07c.7.59.16.69,1.08,5.76a27.86,27.86,0,0,0,2,6.74c1.55,3,3.18,4.86,6.41,6.1h0a30.51,30.51,0,0,0-1.12-10.54,17.32,17.32,0,0,0-2.24-4.86c-3.89-5.58-10.81-9.11-19.58-8.47-6.09.46-7.69,2.41-10.73,3.55a3.42,3.42,0,0,1-2.8.12,2.44,2.44,0,0,1-.77-.54,2.17,2.17,0,0,1-.54-1.25,5.08,5.08,0,0,1,.67-2.52,7.17,7.17,0,0,1,2.95-2.8,26.26,26.26,0,0,1,6.28-2.82A21.56,21.56,0,0,1,214.15,105.34Z" transform="translate(-5 -14.69)" style="fill-rule:evenodd"/><path d="M184.78,186.85c.31.65.2.21.35,1.65a85,85,0,0,1,.45,9.3c.24,12.18.34,11.24.43,19.82-.1,8.24,0,7.37-.8,7.78h0l-.48-.21c-.3-.67-.22-.29-.34-1.7-.72-8.72-.64-9.9-.81-15.14-.35-15-.37-14.72-.21-17.51.08-1.39.26-3.39.27-3.5h0l.23-.49.46-.21h0Z" transform="translate(-5 -14.69)" style="fill:#fc7323;fill-rule:evenodd"/><path d="M249.55,184l.46.22.21.49c.48,4.71.31,23.79.28,24.83a93.05,93.05,0,0,1-1.12,13.85c-.26,1.81-.21,1.5-.53,2l-.5.15h0c-.9-.54-.52.24-.3-7.33.6-21.7-.21-23.77.69-32.64.13-1.16,0-.8.35-1.42l.46-.19Z" transform="translate(-5 -14.69)" style="fill:#fc7323;fill-rule:evenodd"/><path d="M217.34,218c.63,1.2.37.47.62,3.52a6.07,6.07,0,0,1-.23,2.87h0l-.28.55-.38.24h0c-.51-.26-.34-.1-.73-.72h0a6.71,6.71,0,0,1-.57-2.15c0-.13-.25-3-.19-3.34a2.87,2.87,0,0,1,.23-.64c.2-.42,0-.17.83-1C216.64,217.35,217.33,218,217.34,218Z" transform="translate(-5 -14.69)" style="fill-rule:evenodd"/><path d="M130.16,213.61c2.44,2.67.34.33,4.13,5.26,5.84,6.74,5.52,6,5.25,7h0l-.47.2-.55-.16c.44,0-2.5-.8-7.23-7.19a16.08,16.08,0,0,1-1.75-2.71,12.52,12.52,0,0,1-.59-1.69c0-.71-.1-.4.27-.94h0l.46,0Z" transform="translate(-5 -14.69)" style="fill-rule:evenodd"/><path d="M135.12,205.27a19,19,0,0,1,1.61,2.09c2.93,5.27,3.49,5.82,4.63,7.7,2,3.68,1.69,2.81,1.86,3.65l-.23.44h0l-.49.1L142,219h0c-.44-.45-1.51-1.55-2.11-2.32a72.5,72.5,0,0,1-5.16-8.29,15.51,15.51,0,0,1-.81-2.47c0-.69-.07-.45.29-.93h.46Z" transform="translate(-5 -14.69)" style="fill-rule:evenodd"/><path d="M148.11,208.91l-.52-.24h0a22.57,22.57,0,0,1-2.38-2.41,30.49,30.49,0,0,1-3.54-6.11,7.18,7.18,0,0,1-.8-3.61c0-.29,0-.12.16-.76l.36-.29h0l.44.11c.44.48.37.38.48.6s.86,1.57.93,1.82c1.57,4.14,2.57,4.91,4.87,8.86.67,1.12.5.68.68,1.44l-.2.46h0Z" transform="translate(-5 -14.69)" style="fill-rule:evenodd"/><path d="M157.67,195.8h0l.34.37c0,2.44-6.75,15.15-6,34.88.06,3,.47,7.48.61,9.21,1.26,12.08,1.73,11.31,1.46,12.53l-.43.3-.52-.11-.31-.44a121.43,121.43,0,0,1-2.77-16.06,97.25,97.25,0,0,1,.27-18.69c.29-2.77,1.1-6.72,1.12-6.83a51.88,51.88,0,0,1,4.22-12.73c1.14-2.39,1-2,1.45-2.44Z" transform="translate(-5 -14.69)" style="fill-rule:evenodd"/><path d="M128,228.82l.35.37c0,1.72-.3-.51-1.87,8.16-1.36,7.41-5,18.23-2.4,29.33a23.21,23.21,0,0,0,4.25,9.07,19.08,19.08,0,0,0,8.14,6,19.75,19.75,0,0,0,8.81,1.27,24.81,24.81,0,0,0,6.82-1.8c6.38-2.59,10.37-8.36,13.67-14.3,3.4-6.24,2.44-5.14,3.24-5.84l.53,0,.36.4c0,.7,0,.36-.38,1.33-2.17,4.83-5.25,11.19-9,15a23.52,23.52,0,0,1-18.38,7.45,21.87,21.87,0,0,1-19.26-14.81,38,38,0,0,1-1.8-15.72c.92-9.45,2-11.36,3.14-16,.27-1,1.44-6.67,2.88-9.54h0l.39-.36H128Z" transform="translate(-5 -14.69)" style="fill-rule:evenodd"/><path d="M179.33,191.44l.25.47h0l-.17.5c-.53.28-.41.25-.72.3-4.27.6-9,3.72-12.39,6.36h0c-5.9,4.54-9.48,9.6-13.8,15.5l-.44.32-.5,0h0l-.3-.4c0-.65,0-.5.11-.72a33.7,33.7,0,0,1,6.45-9.72,52.25,52.25,0,0,1,9.19-8.26,25.76,25.76,0,0,1,6.22-3.35c.11,0,1.78-.6,1.93-.6a17.46,17.46,0,0,1,3.66-.52Z" transform="translate(-5 -14.69)" style="fill-rule:evenodd"/><path d="M253.5,193.07c6.66,1.81,13.81,4.65,19.21,9.12,4.5,3.63,7.63,7.46,10.84,14.66,6.34,13.51,8.66,27.31,9.76,42.2.18,3.25.85,6.8,1.41,11.67a37.65,37.65,0,0,1,.2,7l-.24.49-.5.18h0l-.48-.24-.18-.5c.2-4.74-1.11-10.25-1.69-14.07-1-6.33-1.14-14.33-3.7-25.87a90.58,90.58,0,0,0-5-16.25c-1.87-4.35-4.46-10-7.68-13.55a34.28,34.28,0,0,0-2.91-2.87c-5.08-4.57-12.57-8.21-19.44-10.6h0l-.4-.35s-.06-.51-.05-.52l.33-.39Z" transform="translate(-5 -14.69)" style="fill-rule:evenodd"/><path d="M264.27,283.14c-.44-.51-.33-.24-1.11-2-.5-1.16-.35-.69-2.05-6.57h0a5.52,5.52,0,0,1-.25-2.45l.48-.85.86.48a12.15,12.15,0,0,1,.88,1.53c.05.16,1.66,5.59,1.81,6.3.08.35.24,1.55.25,1.72.12,1.3.14.88,0,1.65l-.36.33Z" transform="translate(-5 -14.69)" style="fill-rule:evenodd"/><path d="M174.55,282.29c-2.16-18.3-6-37.34,2.84-54.52,8.88-2.05,62.7-2.28,80.2-.8,6.13,18.71,2,37.77-1.66,56.52" transform="translate(-5 -14.69)" style="fill:#fc7323;fill-rule:evenodd"/><path d="M256.6,225.76c1.28.09,1.28.09,1.61.27.46.36.45.61.73,1.48,5.61,18.35,1.64,36.4-2.14,55.24-.22,1.05-.1.76-.48,1.33l-.52.11h0l-.45-.3c-.15-.75-.17-.18.22-2.29,3.25-17.87,2.74-16.77,2.84-16.77,1.84-13.43,2.09-24.18-1.66-36.79,0,0-.56,0-4.21-.27-16.31-.71-32.77-.74-48.24-.46-3.4.07-22.9.52-26.14,1.46a49.3,49.3,0,0,0-4.74,16.55c-1.76,16,2.32,35.25,1.68,37.4l-.45.26h0l-.5-.15-.27-.46h0c-2.59-18.6-6.48-37.81,2.31-54.7.54-1.1.59-1,3.24-1.38C195.56,224.45,242.65,224.58,256.6,225.76Z" transform="translate(-5 -14.69)" style="fill:#fc7323;fill-rule:evenodd"/><path d="M121.31,112.56c.12.07,0,.08.55-.08,3.87.33,8.07,5.25,7.12,8.94v.06h0c-1.38,5.32-8.66,3.66-11.53-1.07h0a7.34,7.34,0,0,1-1.09-3,4.58,4.58,0,0,1,.28-2.26A4,4,0,0,1,121.31,112.56Zm-.17,1.37a2.48,2.48,0,0,0-1.17.26,2.71,2.71,0,0,0-1.36,2.17.53.53,0,0,1,0,.13c-.26,1.68,1.33,4.61,4.67,5.8a3.9,3.9,0,0,0,2,.19,2.11,2.11,0,0,0,1.48-1.56h0a3.19,3.19,0,0,0-.11-1.81,9.61,9.61,0,0,0-.9-1.92,7,7,0,0,0-4.23-3.39Z" transform="translate(-5 -14.69)" style="fill:#010000;fill-rule:evenodd"/><path d="M131.83,106.82c2,0,4,2.38,3.93,4.83-.12,3-4.09,4.7-6.64.93a3.59,3.59,0,0,1-.26-3.71,3.51,3.51,0,0,1,.42-.59c.85-.79.59-.37.79-.78A2.44,2.44,0,0,1,131.83,106.82Zm-.7,1.7-.07.15h0a1.82,1.82,0,0,0-.38.71v.05a.91.91,0,0,0,0,.23v.51a.07.07,0,0,1,0,0h0v.06a1.49,1.49,0,0,0,0,.18h0s0,.1,0,.13v.2c.44,1.19,1.27,1.69,1.83,1.65a1.16,1.16,0,0,0,.62-.24l0,0h0l.06-.07h0l0-.07h0v0a.42.42,0,0,0,0-.06h0v0h0v0h0v0h0v0h0v-.08h0v-.34c-.13-1.13-1.22-3.06-2.32-2.71Z" transform="translate(-5 -14.69)" style="fill:#010000;fill-rule:evenodd"/><path d="M158.07,111.51a7.39,7.39,0,0,1,1.61.25,5,5,0,0,1,3.62,2.91c1.08,2.4-.61,4.71-3.92,4.12a8,8,0,0,1-3.7-1.6C153.25,115,154.46,111.49,158.07,111.51Zm.55,1.86h0a4.2,4.2,0,0,0-1.15.38h0a1,1,0,0,0-.21.11c-.4.22-.39.25-.48.36h0l0,0h0v0h0v0h0v0h0v0h0v0h0v.06h0v0h0v0h0v.05h0v0a.42.42,0,0,1,0,.12v0l0,0h0v0h0v0h0v0l0,0h0l.06.09h0l0,0h0v0h0l0,0v0c.92,1,3.4,1.62,4.18,1.15h0l0,0h0l0,0h0v0h0v0h0v0h0v-.05h0a1.83,1.83,0,0,0-.16-.86h0a3.81,3.81,0,0,0-1.57-1.9h0a3,3,0,0,0-1,.07Z" transform="translate(-5 -14.69)" style="fill:#010000;fill-rule:evenodd"/><path d="M167.06,179.43a11.32,11.32,0,0,1-4.84-3.18c-3.26,5.11-6.35,9.31-10.36,15-.9,1.26-2.88,4.34-1.87,6,1.67,2.73,4.84-1.48,6-3.05,4.38-6.07,6.34-8.69,11.11-14.78" transform="translate(-5 -14.69)" style="fill-rule:evenodd"/><path d="M162.4,175.25c.46.13.49.23.79.59a10.84,10.84,0,0,0,3.83,2.81h0l.51.13h0l.25.47c-.09.34-.08.25-.06.41l-.06.06,0,.07h0c-10.37,14.3-10.82,15.4-12.66,17.35a5.77,5.77,0,0,1-3.44,2.07,2.69,2.69,0,0,1-2.4-1.26,3.88,3.88,0,0,1-.29-3.49c.76-2.45,2.68-4.71,6.91-10.68C161.83,175.05,161.44,175.16,162.4,175.25Zm-11.31,19.67a3,3,0,0,0-.22,1.45v0l0,.13h0l.14.19a.39.39,0,0,0,.08.09h.38l0,0h0l.07,0h0l.27-.13h0c1.53-.91,3.18-3.41,4.25-4.89,2.86-4,6.66-8.55,9.61-12.1a11.66,11.66,0,0,1-1.53-.68,10.39,10.39,0,0,1-1.85-1.22c-4.49,7.45-10.5,14.52-11.33,17.11Z" transform="translate(-5 -14.69)" style="fill:#010000;fill-rule:evenodd"/><path d="M182.78,120.14h0a31.29,31.29,0,0,1,30.45,31.34,33.39,33.39,0,0,1-1,8.21v0a32.25,32.25,0,0,1-34.6,24,30.88,30.88,0,0,1-7.83-1.83,32.25,32.25,0,0,1-21-29.58,31.47,31.47,0,0,1,3.05-14.08,31.86,31.86,0,0,1,31-18.08Zm-5,2.53A29.19,29.19,0,0,0,155,139.42a28.89,28.89,0,0,0-2.49,14.52,28.52,28.52,0,0,0,56.92-1.25,30.42,30.42,0,0,0-.25-5.05,28,28,0,0,0-3-9.25,29.51,29.51,0,0,0-12.79-12.8,25.87,25.87,0,0,0-15.63-2.92Zm5-2.53Z" transform="translate(-5 -14.69)" style="fill:#010000;fill-rule:evenodd"/><ellipse cx="186.66" cy="148.2" rx="5.52" ry="4.14" transform="translate(25.47 313.53) rotate(-87.5)"/><path d="M186.8,141.49a6.14,6.14,0,0,1,2,.28c2.32.89,4,3.26,3.83,6.51a9.42,9.42,0,0,1-.45,2.63,6.73,6.73,0,0,1-4.39,4.52,5.18,5.18,0,0,1-4.88-1.31,7.09,7.09,0,0,1-1.75-2.67h0C179.43,146.88,182.29,141.3,186.8,141.49Zm0,2.35c-2.23.4-2.87,3.56-2.31,5.76a2.84,2.84,0,0,0,1.76,2.22h.39a2.75,2.75,0,0,0,1.84-1.76c1.08-2.38-.22-5.82-1.68-6.25Zm.16-2.32Z" transform="translate(-5 -14.69)" style="fill:#010000;fill-rule:evenodd"/><path d="M202.78,141.66l.14.53a51.67,51.67,0,0,1-.52,6.2c-.41,3.23-.39,4.89-1.35,12.89a11.09,11.09,0,0,0-.35,2.69V164a.89.89,0,0,0,.07.28h0v0h0c.13.21.49.37,1.1.5.35.06.14,0,.74.31l.18.48h0l-.25.46c-.56.22-.45.21-.82.19a2.9,2.9,0,0,1-2.58-1.22h0a3.39,3.39,0,0,1-.4-1.46c-.13-2.71.75-8.56.94-11.07.14-1.25,0-1.25.62-5.92a23.68,23.68,0,0,1,1.22-4.75l.34-.42.48-.11Z" transform="translate(-5 -14.69)" style="fill:#010000;fill-rule:evenodd"/><path d="M177.37,127.45a6.41,6.41,0,0,1,3.17.83h0a3.38,3.38,0,0,1,1.64,2.36c.64,4.1-6.18,8.26-9.17,10.82-1.72,1.51-3.23,2.94-5.5,3.25-3.16.17-4.17-2.92-3.67-6a7.6,7.6,0,0,1,.84-2.41,17.18,17.18,0,0,1,8.77-8c1.44-.59,1.23-.5,1.74-.48l.24-.17A8.36,8.36,0,0,1,177.37,127.45Zm-1.66,1.6-.31-.06a24,24,0,0,0-6.58,5.27,14.36,14.36,0,0,0-2.45,3.75,5.24,5.24,0,0,0,0,4h0v0l0,0h0l0,0h0v0h.05l0,0h0l0,0h.09l.09,0h0l0,0h.47a3.88,3.88,0,0,0,1.33-.45,11.38,11.38,0,0,0,2-1.42c4.81-4.12,7.26-5.37,9.1-8a6.44,6.44,0,0,0,.4-.73,2.43,2.43,0,0,0,.17-.6V131h0v-.21a1.3,1.3,0,0,0,0-.15h0v0h0v0h0s0,0,0,0v0a1.76,1.76,0,0,0-.6-.7h0a3.87,3.87,0,0,0-.34-.21h0l0,0A6,6,0,0,0,175.71,129.05Z" transform="translate(-5 -14.69)" style="fill:#010000;fill-rule:evenodd"/><path d="M163.74,150.7c.54.32.45.24.5.4.24,0,.09,0,.36,0a4,4,0,0,1,.92.42,4.93,4.93,0,0,1,2.18,3.53,6.94,6.94,0,0,1-.4,3.55h0a4.88,4.88,0,0,1-7.55,2.39c-2-1.36-2.52-4.25-1.71-6.53a5.38,5.38,0,0,1,3.4-3.68A4.5,4.5,0,0,1,163.74,150.7Zm-.18,1.38a2.94,2.94,0,0,0-1.28.39h0a4.63,4.63,0,0,0-1.46,1.46h0a4.79,4.79,0,0,0-.53,1,7.67,7.67,0,0,0-.23.78c-.34,1.39.06,3.13,1.36,3.68a2.86,2.86,0,0,0,2.05.2,3.06,3.06,0,0,0,1.75-1.84h0a5.4,5.4,0,0,0,.31-.88,5.88,5.88,0,0,0,.18-1.45,4,4,0,0,0-.33-1.6A2.81,2.81,0,0,0,164,152.4h0l-.34-.33Z" transform="translate(-5 -14.69)" style="fill:#010000;fill-rule:evenodd"/><path d="M25.88,134.56a24.57,24.57,0,0,1,8.17,1.65c3.55,1.28,2.93,1,3.45,1.46l.06.5h0l-.33.39-.53.07h0a53.61,53.61,0,0,0-10.14-1.8,5.41,5.41,0,0,0-2.78.38h0a4.62,4.62,0,0,0-1.56,1.58h0a17.6,17.6,0,0,0-1.76,4.83,44.33,44.33,0,0,0-1,13.2c.19,2.64.62,5.93,2.66,7.6,2.5,2.05,7.51,1.5,10.74,1,2.76-.4,2-.46,2.88-.26l.3.44h0l-.12.52-.45.3a57.85,57.85,0,0,1-7.14,1.32c-3.16.33-6.93-.29-8.82-2.83-3.33-4-2.63-15.8-1.48-20.92.69-3.11,1.65-6.8,4.31-8.56a5.12,5.12,0,0,1,1.53-.68A7.51,7.51,0,0,1,25.88,134.56Z" transform="translate(-5 -14.69)" style="fill:#010000;fill-rule:evenodd"/><path d="M26.44,138.21a8.33,8.33,0,0,1,1.81,2.8h0c.86,2.22,1,5.63,1,8a40.31,40.31,0,0,1-1.15,9h0c-.32,1.24-.22.81-.33,1.22h0c-.59,1.74-1.16,3.5-2.72,4.6h0l-.53.14-.46-.25h0l-.12-.49.24-.49c.9-.81,1.38-2.81,1.58-4h0c.9-4.9,1.59-8.4,1.08-13.65-.19-1.76-.53-3.38-.55-3.5h0a8.4,8.4,0,0,0-.9-2.56h0l-.1-.54.22-.43h0L26,138Z" transform="translate(-5 -14.69)" style="fill:#010000;fill-rule:evenodd"/><path d="M27.27,141.4c-2.56,3.89-2.93,7.87-3.15,12a17.64,17.64,0,0,0,.05,2.62c.07.8.09,3.31.87,3.9.11.08.6-.37.69-.47,2-2.14,2.12-10.39,2.13-13.32,0-.54,0-4-1.16-3.57" transform="translate(-5 -14.69)" style="fill-rule:evenodd"/><path d="M27.65,140.82h0l.27.43c-.1.7,0,.42-.23.84h0c.89.7,1.05,3.16,1.08,4.29.22,3.47,0,10.27-1.76,13.26-.62.94-1.68,1.85-2.64,1.2s-1.15-2.21-1.24-3.44h0a31.22,31.22,0,0,1-.16-3.62c.22-5.16.58-8.68,3.72-12.76h0l.46-.28Zm-2.27,10.42a33.77,33.77,0,0,0-.15,3.76c0,.17.16,2.49.21,2.78,1.17-3.05,1.63-12,1.46-13.82A30.63,30.63,0,0,0,25.38,151.24Z" transform="translate(-5 -14.69)" style="fill:#010000;fill-rule:evenodd"/><path d="M55.7,132.94s18.61,4.76,19.18,4.92c5.18,1.41,6.37,1.75,7.64,2.36a7,7,0,0,1,2.57,2c1.39,1.79,1.8,4.52,1.91,6.79a15.52,15.52,0,0,1-.29,3.78,41.4,41.4,0,0,1-1.45,4.59l-.35.39-.51.06s-.4-.33-.4-.34c-.11-1-.17.2.87-4a13.66,13.66,0,0,0,.3-2.21c.1-2.3-.43-6.42-2-7.9-1.09-1.8-11.43-4-22.4-6.8-4-1-10-2.86-14.15-2.53a3.57,3.57,0,0,0-2.18,1.07,17.38,17.38,0,0,0-1.4,1.58,21.06,21.06,0,0,0-2.56,4.4,31.39,31.39,0,0,0-2.33,9.81,29.41,29.41,0,0,0,.72,9.58,9.27,9.27,0,0,0,1.73,3.67c2.81,3.39,10.09,2.48,14.46,2h0l.52.15.26.46h0l-.14.51-.47.27c-.46,0-6.29,1.19-10.88.46-6.14-1-7.48-5.55-8.36-11.57a32.18,32.18,0,0,1,3.73-18.88,16.31,16.31,0,0,1,4.22-5,6.05,6.05,0,0,1,1.75-.7C48.51,131.38,51.94,132.13,55.7,132.94Z" transform="translate(-5 -14.69)" style="fill:#010000;fill-rule:evenodd"/><path d="M35.16,146.25v0h.06v0l.06,0v0l0,0v0h.05v0h0v0h.05v0h0v0h0v0h0v0h0v0h0l0,0h0a5.34,5.34,0,0,0,.81.21c.23.1.26.17.44.26.48.38-.1-.19,1.05,1-.88.66-1,.79-1.7,1h0a1,1,0,0,1-.39,0,3.37,3.37,0,0,1-2.14-1.13h0a1.11,1.11,0,0,1,.05-1.1l1.39-.1h0Z" transform="translate(-5 -14.69)" style="fill:#010000;fill-rule:evenodd"/><path d="M37.19,155.77c.3.17,0-.09.9.82a4.49,4.49,0,0,1-1.38,1h0l-.14.06h0l-.13,0a2.55,2.55,0,0,0-1,.34h-.07l0,0h0l0,0h0l0,0h0l0,0h-.46c-.25,0,.1.18-1.29-.78h0c0-.82.15-.87.59-1.21a4.11,4.11,0,0,1,1.13-.56A2.32,2.32,0,0,1,37.19,155.77Z" transform="translate(-5 -14.69)" style="fill:#010000;fill-rule:evenodd"/><path d="M48.08,136l0,0h0a10.59,10.59,0,0,1,2.29,3.86c.28.95.22.62.22.72s.12.54.15.65a32.16,32.16,0,0,1,.54,8.48,29,29,0,0,1-2,9.1c-.9,2.17-2,5.18-4.37,5.4-.6,0-.36.08-1-.3l-.16-.5h0l.26-.45.51-.17h.2l0,0h0l.14,0H45l0,0h0c.18-.05.55-.42.95-1.14h0a17.41,17.41,0,0,0,1.17-3.11,32.19,32.19,0,0,0,1.66-6.7,31.72,31.72,0,0,0,0-7.85,28,28,0,0,0-.61-3.39A14.13,14.13,0,0,0,47,136.81h0l-.1-.54.23-.43h0l.49-.11Z" transform="translate(-5 -14.69)" style="fill:#010000;fill-rule:evenodd"/><path d="M48.62,139.2c-2.88,1.43-4,4.67-4.72,7.6-.48,2-.93,7.25-.54,9.08s1.76,5.63,3.35,4.32c3.1-2.57,3.21-11.79,3.06-15.82-.05-1.58-.15-3.65-1.34-4.87" transform="translate(-5 -14.69)" style="fill-rule:evenodd"/><path d="M49.24,138.88h0l0,.49a6.45,6.45,0,0,1,1.23,3.15c.18,1.44.28,2.89.32,4.34a32.86,32.86,0,0,1-1,9.88c-.53,2-1.88,4.95-3.9,4.86-1.73-.08-2.74-2.38-3.28-4-.58-2-.73-2.57-.43-7,.05-1.05.33-2.82.38-3.14h0c.73-3.74,2.16-7.31,5.64-8.86.11,0,0,0,.6-.05Zm-4.41,9h0a38.14,38.14,0,0,0-.47,4.77,24.26,24.26,0,0,0,.07,2.83A9.48,9.48,0,0,0,46,159.29h0a3.16,3.16,0,0,0,.4-.42c2.31-2.64,2.75-14.75,2.27-17.13a5.08,5.08,0,0,0-.28-.94,2.82,2.82,0,0,0-.23-.46C46.19,142.18,45.43,145,44.83,147.88Z" transform="translate(-5 -14.69)" style="fill:#010000;fill-rule:evenodd"/><path d="M48.1,144a3.74,3.74,0,0,1-.32,1.77h0c-1.3,3.53-.53,2.51-1.89,6.07h0l-.34.47-.45.16h0l-.39-.26a2.3,2.3,0,0,1-.25-1.09,8.92,8.92,0,0,1,0-1.79,23.75,23.75,0,0,1,1.23-4.38h0a2.75,2.75,0,0,1,.86-1.28c.41-.38.14-.24,1.26-.6Z" transform="translate(-5 -14.69)" style="fill:#fff;fill-rule:evenodd"/><path d="M27.1,149.73a5.51,5.51,0,0,1-.51,2.15c-.22.5,0,.23-.92,1.07-.72-.93-.62-.72-.73-1.2a7.82,7.82,0,0,1,0-3.37c.12-1.22.12-1.24.22-1.46a5.64,5.64,0,0,1,.46-.7l.77-.6C27.59,147.07,27.41,146.78,27.1,149.73Z" transform="translate(-5 -14.69)" style="fill:#fff;fill-rule:evenodd"/><path d="M87.43,149.45a3.09,3.09,0,0,1,2.07.63c1.62,1.19,1.9,3.7,1.63,5.65-.46,3.21-2.55,4.77-4.9,4.67a3.77,3.77,0,0,1-1.19-.29l-.4-.38-.06-.5h0l.34-.37a8.5,8.5,0,0,0,1.61-.21h0a3,3,0,0,0,.87-.49h0a4.24,4.24,0,0,0,1.22-1.68c.45-1.08.52-3.71-.31-4.43h0v0l-.14-.12a1,1,0,0,1-.17-.12h0c-.13-.09-.27-.17-.41-.25h0a3.1,3.1,0,0,0-.56-.25h0c-.25-.1-.76-.25-.87-.28h0l-.47-.3-.19-.42h0l.23-.41.5-.25h0A5.58,5.58,0,0,1,87.43,149.45Z" transform="translate(-5 -14.69)" style="fill-rule:evenodd"/><path d="M126.46,192.72h0c.15.86.35.53-2.86,3.28-1.46,1.27-8.67,6.75-12.76,9.36l-.27.19h0l-.52.17-.46-.15h0l-.17-.45.16-.53h0c.1-.12,0,0,.83-1.09a14.21,14.21,0,0,1,3.29-2.8c5.29-3.77,5.84-4.8,11.75-8.14h0l.56-.1Z" transform="translate(-5 -14.69)" style="fill-rule:evenodd"/><path d="M212.64,262.91a9,9,0,0,1,1.49,1c2.1,2.39,3.63,3.31,5.44,5.13.78.78.43.29.89,1.06l0,.48h0l-.42.26-.57-.05h0a12.61,12.61,0,0,1-2.74-1.39,33.75,33.75,0,0,1-3.43-3.12,5.57,5.57,0,0,1-1.66-2.5v0l.09-1Z" transform="translate(-5 -14.69)" style="fill-rule:evenodd"/></svg>