<svg xmlns="http://www.w3.org/2000/svg" xmlns:xlink="http://www.w3.org/1999/xlink" viewBox="0 0 81.99 81.77"><defs><linearGradient id="_ÂÁ_Ï_ÌÌ_È_ËÂÌÚ_875" x1="-4825.41" y1="2405.44" x2="-4824.57" y2="2403.98" gradientTransform="matrix(0.69, -0.83, 0.8, 0.53, 1585.65, -5182.06)" gradientUnits="userSpaceOnUse"><stop offset="0" stop-color="#383530"/><stop offset="0.26" stop-color="#403e39"/><stop offset="0.29" stop-color="#4f4e4a"/><stop offset="0.66" stop-color="#4f4e4a"/><stop offset="0.68" stop-color="#5c5b59"/></linearGradient><linearGradient id="_ÂÁ_Ï_ÌÌ_È_ËÂÌÚ_875-2" x1="-4827.56" y1="2404.36" x2="-4826.72" y2="2402.9" xlink:href="#_ÂÁ_Ï_ÌÌ_È_ËÂÌÚ_875"/><linearGradient id="_ÂÁ_Ï_ÌÌ_È_ËÂÌÚ_875-3" x1="-4829.71" y1="2403.28" x2="-4828.87" y2="2401.82" xlink:href="#_ÂÁ_Ï_ÌÌ_È_ËÂÌÚ_875"/><linearGradient id="_ÂÁ_Ï_ÌÌ_È_ËÂÌÚ_875-4" x1="-4831.86" y1="2402.2" x2="-4831.02" y2="2400.74" xlink:href="#_ÂÁ_Ï_ÌÌ_È_ËÂÌÚ_875"/><linearGradient id="_ÂÁ_Ï_ÌÌ_È_ËÂÌÚ_875-5" x1="-4834.01" y1="2401.12" x2="-4833.17" y2="2399.66" xlink:href="#_ÂÁ_Ï_ÌÌ_È_ËÂÌÚ_875"/><linearGradient id="_ÂÁ_Ï_ÌÌ_È_ËÂÌÚ_875-6" x1="-4825.29" y1="2402.63" x2="-4824.44" y2="2401.16" xlink:href="#_ÂÁ_Ï_ÌÌ_È_ËÂÌÚ_875"/><linearGradient id="_ÂÁ_Ï_ÌÌ_È_ËÂÌÚ_875-7" x1="-4827.44" y1="2401.55" x2="-4826.59" y2="2400.08" xlink:href="#_ÂÁ_Ï_ÌÌ_È_ËÂÌÚ_875"/><linearGradient id="_ÂÁ_Ï_ÌÌ_È_ËÂÌÚ_875-8" x1="-4829.59" y1="2400.47" x2="-4828.74" y2="2399" xlink:href="#_ÂÁ_Ï_ÌÌ_È_ËÂÌÚ_875"/><linearGradient id="_ÂÁ_Ï_ÌÌ_È_ËÂÌÚ_875-9" x1="-4831.74" y1="2399.39" x2="-4830.89" y2="2397.92" xlink:href="#_ÂÁ_Ï_ÌÌ_È_ËÂÌÚ_875"/><linearGradient id="_ÂÁ_Ï_ÌÌ_È_ËÂÌÚ_875-10" x1="-5109.05" y1="2391.02" x2="-5107.69" y2="2388.65" gradientTransform="matrix(0.65, -0.86, 0.83, 0.49, 1521.83, -5471.53)" xlink:href="#_ÂÁ_Ï_ÌÌ_È_ËÂÌÚ_875"/><linearGradient id="_ÂÁ_Ï_ÌÌ_È_ËÂÌÚ_875-11" x1="-5111.69" y1="2389.51" x2="-5110.33" y2="2387.15" gradientTransform="matrix(0.65, -0.86, 0.83, 0.49, 1521.83, -5471.53)" xlink:href="#_ÂÁ_Ï_ÌÌ_È_ËÂÌÚ_875"/><linearGradient id="_ÂÁ_Ï_ÌÌ_È_ËÂÌÚ_875-12" x1="-5114.44" y1="2387.92" x2="-5113.07" y2="2385.56" gradientTransform="matrix(0.65, -0.86, 0.83, 0.49, 1521.83, -5471.53)" xlink:href="#_ÂÁ_Ï_ÌÌ_È_ËÂÌÚ_875"/><linearGradient id="_ÂÁ_Ï_ÌÌ_È_ËÂÌÚ_875-13" x1="-5117.31" y1="2386.46" x2="-5115.95" y2="2384.1" gradientTransform="matrix(0.65, -0.86, 0.83, 0.49, 1521.83, -5471.53)" xlink:href="#_ÂÁ_Ï_ÌÌ_È_ËÂÌÚ_875"/><linearGradient id="_ÂÁ_Ï_ÌÌ_È_ËÂÌÚ_875-14" x1="-5106.23" y1="2387.45" x2="-5104.87" y2="2385.09" gradientTransform="matrix(0.65, -0.86, 0.83, 0.49, 1521.83, -5471.53)" xlink:href="#_ÂÁ_Ï_ÌÌ_È_ËÂÌÚ_875"/><linearGradient id="_ÂÁ_Ï_ÌÌ_È_ËÂÌÚ_875-15" x1="-5108.87" y1="2385.94" x2="-5107.51" y2="2383.58" gradientTransform="matrix(0.65, -0.86, 0.83, 0.49, 1521.83, -5471.53)" xlink:href="#_ÂÁ_Ï_ÌÌ_È_ËÂÌÚ_875"/><linearGradient id="_ÂÁ_Ï_ÌÌ_È_ËÂÌÚ_875-16" x1="-5111.62" y1="2384.36" x2="-5110.25" y2="2381.99" gradientTransform="matrix(0.65, -0.86, 0.83, 0.49, 1521.83, -5471.53)" xlink:href="#_ÂÁ_Ï_ÌÌ_È_ËÂÌÚ_875"/><linearGradient id="_ÂÁ_Ï_ÌÌ_È_ËÂÌÚ_875-17" x1="-5114.49" y1="2382.89" x2="-5113.13" y2="2380.53" gradientTransform="matrix(0.65, -0.86, 0.83, 0.49, 1521.83, -5471.53)" xlink:href="#_ÂÁ_Ï_ÌÌ_È_ËÂÌÚ_875"/><linearGradient id="_ÂÁ_Ï_ÌÌ_È_ËÂÌÚ_875-18" x1="181.13" y1="85.23" x2="185.73" y2="85.23" gradientTransform="matrix(1, 0, 0, 1, 0, 0)" xlink:href="#_ÂÁ_Ï_ÌÌ_È_ËÂÌÚ_875"/><linearGradient id="_ÂÁ_Ï_ÌÌ_È_ËÂÌÚ_596" x1="181.66" y1="81.55" x2="185.2" y2="81.55" gradientUnits="userSpaceOnUse"><stop offset="0" stop-color="#c40700"/><stop offset="0.18" stop-color="#e31510"/><stop offset="0.44" stop-color="#f22421"/><stop offset="0.51" stop-color="#f72927"/><stop offset="0.68" stop-color="#ff3030"/><stop offset="0.85" stop-color="#fc2d2d"/><stop offset="0.98" stop-color="#f42623"/><stop offset="1" stop-color="#f22421"/></linearGradient><linearGradient id="_ÂÁ_Ï_ÌÌ_È_ËÂÌÚ_623" x1="182.73" y1="78.06" x2="184.13" y2="78.06" gradientUnits="userSpaceOnUse"><stop offset="0" stop-color="#a0897f"/><stop offset="0.26" stop-color="#bfaba6"/><stop offset="0.29" stop-color="#cec4c2"/><stop offset="0.66" stop-color="#cec4c2"/><stop offset="0.68" stop-color="#dbdbdb"/></linearGradient><linearGradient id="_ÂÁ_Ï_ÌÌ_È_ËÂÌÚ_622" x1="182.95" y1="77.67" x2="183.91" y2="77.67" gradientUnits="userSpaceOnUse"><stop offset="0.32" stop-color="#dbdbdb"/><stop offset="0.34" stop-color="#cec4c2"/><stop offset="0.71" stop-color="#cec4c2"/><stop offset="0.74" stop-color="#bfaba6"/><stop offset="1" stop-color="#a0897f"/></linearGradient><linearGradient id="_ÂÁ_Ï_ÌÌ_È_ËÂÌÚ_875-19" x1="176.64" y1="88.01" x2="181.23" y2="88.01" gradientTransform="matrix(1, 0, 0, 1, 0, 0)" xlink:href="#_ÂÁ_Ï_ÌÌ_È_ËÂÌÚ_875"/><linearGradient id="_ÂÁ_Ï_ÌÌ_È_ËÂÌÚ_743" x1="177.17" y1="84.34" x2="180.7" y2="84.34" gradientUnits="userSpaceOnUse"><stop offset="0" stop-color="#0067c4"/><stop offset="0.18" stop-color="#1085e3"/><stop offset="0.44" stop-color="#219af2"/><stop offset="0.55" stop-color="#2aa7f9"/><stop offset="0.68" stop-color="#30b0ff"/><stop offset="0.82" stop-color="#2eadfd"/><stop offset="0.94" stop-color="#27a3f7"/><stop offset="1" stop-color="#219af2"/></linearGradient><linearGradient id="_ÂÁ_Ï_ÌÌ_È_ËÂÌÚ_623-2" x1="178.24" y1="80.85" x2="179.63" y2="80.85" xlink:href="#_ÂÁ_Ï_ÌÌ_È_ËÂÌÚ_623"/><linearGradient id="_ÂÁ_Ï_ÌÌ_È_ËÂÌÚ_622-2" x1="178.46" y1="80.45" x2="179.41" y2="80.45" xlink:href="#_ÂÁ_Ï_ÌÌ_È_ËÂÌÚ_622"/><linearGradient id="_ÂÁ_Ï_ÌÌ_È_ËÂÌÚ_875-20" x1="172.14" y1="90.8" x2="176.74" y2="90.8" gradientTransform="matrix(1, 0, 0, 1, 0, 0)" xlink:href="#_ÂÁ_Ï_ÌÌ_È_ËÂÌÚ_875"/><linearGradient id="_ÂÁ_Ï_ÌÌ_È_ËÂÌÚ_6" x1="172.67" y1="87.12" x2="176.21" y2="87.12" gradientUnits="userSpaceOnUse"><stop offset="0" stop-color="#269410"/><stop offset="0.18" stop-color="#3db321"/><stop offset="0.44" stop-color="#4fc230"/><stop offset="0.53" stop-color="#58c837"/><stop offset="0.68" stop-color="#61cf3e"/><stop offset="0.84" stop-color="#5ecd3c"/><stop offset="0.96" stop-color="#54c634"/><stop offset="1" stop-color="#4fc230"/></linearGradient><linearGradient id="_ÂÁ_Ï_ÌÌ_È_ËÂÌÚ_623-3" x1="173.74" y1="83.64" x2="175.14" y2="83.64" xlink:href="#_ÂÁ_Ï_ÌÌ_È_ËÂÌÚ_623"/><linearGradient id="_ÂÁ_Ï_ÌÌ_È_ËÂÌÚ_622-3" x1="173.96" y1="83.24" x2="174.92" y2="83.24" xlink:href="#_ÂÁ_Ï_ÌÌ_È_ËÂÌÚ_622"/><linearGradient id="_ÂÁ_Ï_ÌÌ_È_ËÂÌÚ_875-21" x1="181.84" y1="88.51" x2="186.44" y2="88.51" gradientTransform="matrix(1, 0, 0, 1, 0, 0)" xlink:href="#_ÂÁ_Ï_ÌÌ_È_ËÂÌÚ_875"/><linearGradient id="_ÂÁ_Ï_ÌÌ_È_ËÂÌÚ_8" x1="182.37" y1="84.59" x2="185.9" y2="84.59" gradientUnits="userSpaceOnUse"><stop offset="0" stop-color="#0b2a3e"/><stop offset="0.18" stop-color="#254358"/><stop offset="0.44" stop-color="#38576b"/><stop offset="0.54" stop-color="#426075"/><stop offset="0.68" stop-color="#4b697e"/><stop offset="0.83" stop-color="#48667b"/><stop offset="0.95" stop-color="#3e5d71"/><stop offset="1" stop-color="#38576b"/></linearGradient><linearGradient id="_ÂÁ_Ï_ÌÌ_È_ËÂÌÚ_623-4" x1="183.44" y1="80.85" x2="184.83" y2="80.85" xlink:href="#_ÂÁ_Ï_ÌÌ_È_ËÂÌÚ_623"/><linearGradient id="_ÂÁ_Ï_ÌÌ_È_ËÂÌÚ_622-4" x1="183.66" y1="80.45" x2="184.61" y2="80.45" xlink:href="#_ÂÁ_Ï_ÌÌ_È_ËÂÌÚ_622"/><linearGradient id="_ÂÁ_Ï_ÌÌ_È_ËÂÌÚ_875-22" x1="177.34" y1="91.3" x2="181.94" y2="91.3" gradientTransform="matrix(1, 0, 0, 1, 0, 0)" xlink:href="#_ÂÁ_Ï_ÌÌ_È_ËÂÌÚ_875"/><linearGradient id="_ÂÁ_Ï_ÌÌ_È_ËÂÌÚ_779" x1="177.87" y1="87.37" x2="181.41" y2="87.37" gradientUnits="userSpaceOnUse"><stop offset="0" stop-color="#d06800"/><stop offset="0.18" stop-color="#ef7d0f"/><stop offset="0.44" stop-color="#fe8a1f"/><stop offset="0.48" stop-color="#fe8b22"/><stop offset="0.68" stop-color="#ff8e2b"/><stop offset="0.86" stop-color="#ff8d28"/><stop offset="1" stop-color="#fe8a1f"/></linearGradient><linearGradient id="_ÂÁ_Ï_ÌÌ_È_ËÂÌÚ_623-5" x1="178.94" y1="83.64" x2="180.34" y2="83.64" xlink:href="#_ÂÁ_Ï_ÌÌ_È_ËÂÌÚ_623"/><linearGradient id="_ÂÁ_Ï_ÌÌ_È_ËÂÌÚ_622-5" x1="179.16" y1="83.24" x2="180.12" y2="83.24" xlink:href="#_ÂÁ_Ï_ÌÌ_È_ËÂÌÚ_622"/><linearGradient id="_ÂÁ_Ï_ÌÌ_È_ËÂÌÚ_133" x1="56.4" y1="49.55" x2="51.29" y2="40.71" gradientUnits="userSpaceOnUse"><stop offset="0" stop-color="#a9cd15"/><stop offset="1" stop-color="#628500"/></linearGradient><linearGradient id="_ÂÁ_Ï_ÌÌ_È_ËÂÌÚ_3" x1="10875.68" y1="105.67" x2="10874.96" y2="104.43" gradientTransform="translate(-10655.98)" gradientUnits="userSpaceOnUse"><stop offset="0.01" stop-color="#7b827f"/><stop offset="0.11" stop-color="#858c8a"/><stop offset="0.28" stop-color="#9fa8a6"/><stop offset="0.39" stop-color="#b2bdbb"/><stop offset="0.39" stop-color="#b6c1bf"/><stop offset="0.4" stop-color="#ccd5d3"/><stop offset="0.41" stop-color="#dde4e2"/><stop offset="0.43" stop-color="#e8efed"/><stop offset="0.45" stop-color="#eff5f3"/><stop offset="0.5" stop-color="#f1f7f5"/><stop offset="0.57" stop-color="#eff5f3"/><stop offset="0.6" stop-color="#e8efed"/><stop offset="0.62" stop-color="#dde5e3"/><stop offset="0.63" stop-color="#ccd6d4"/><stop offset="0.65" stop-color="#b8c4c2"/><stop offset="0.68" stop-color="#afbab8"/><stop offset="0.83" stop-color="#89908e"/><stop offset="0.87" stop-color="#929a97"/><stop offset="0.97" stop-color="#a8b3ae"/></linearGradient><linearGradient id="_ÂÁ_Ï_ÌÌ_È_ËÂÌÚ_152" x1="219.23" y1="109.57" x2="215.2" y2="102.6" gradientUnits="userSpaceOnUse"><stop offset="0.26" stop-color="#c9bd9b"/><stop offset="0.29" stop-color="#d8cfb6"/><stop offset="0.66" stop-color="#d8cfb6"/><stop offset="0.68" stop-color="#e5dfcf"/></linearGradient><linearGradient id="_ÂÁ_Ï_ÌÌ_È_ËÂÌÚ_135" x1="206.75" y1="115.27" x2="203.84" y2="110.22" gradientUnits="userSpaceOnUse"><stop offset="0" stop-color="#789f00"/><stop offset="0.71" stop-color="#bedb2a"/><stop offset="0.84" stop-color="#bbd927"/><stop offset="0.95" stop-color="#b1d21d"/><stop offset="1" stop-color="#a9cd15"/></linearGradient><linearGradient id="_ÂÁ_Ï_ÌÌ_È_ËÂÌÚ_152-2" x1="196.64" y1="122.45" x2="192.61" y2="115.48" xlink:href="#_ÂÁ_Ï_ÌÌ_È_ËÂÌÚ_152"/><linearGradient id="_ÂÁ_Ï_ÌÌ_È_ËÂÌÚ_3-2" x1="10849.74" y1="120.7" x2="10848.58" y2="118.7" xlink:href="#_ÂÁ_Ï_ÌÌ_È_ËÂÌÚ_3"/><linearGradient id="_ÂÁ_Ï_ÌÌ_È_ËÂÌÚ_3-3" x1="10845.85" y1="122.39" x2="10845.13" y2="121.15" xlink:href="#_ÂÁ_Ï_ÌÌ_È_ËÂÌÚ_3"/><linearGradient id="_ÂÁ_Ï_ÌÌ_È_ËÂÌÚ_111" x1="56.4" y1="58.02" x2="51.29" y2="49.18" gradientUnits="userSpaceOnUse"><stop offset="0" stop-color="#178ee5"/><stop offset="1" stop-color="#004f9d"/></linearGradient><linearGradient id="_ÂÁ_Ï_ÌÌ_È_ËÂÌÚ_3-4" x1="10875.68" y1="114.14" x2="10874.96" y2="112.9" xlink:href="#_ÂÁ_Ï_ÌÌ_È_ËÂÌÚ_3"/><linearGradient id="_ÂÁ_Ï_ÌÌ_È_ËÂÌÚ_152-3" x1="219.23" y1="118.04" x2="215.2" y2="111.07" xlink:href="#_ÂÁ_Ï_ÌÌ_È_ËÂÌÚ_152"/><linearGradient id="_ÂÁ_Ï_ÌÌ_È_ËÂÌÚ_134" x1="206.75" y1="123.73" x2="203.84" y2="118.69" gradientUnits="userSpaceOnUse"><stop offset="0" stop-color="#005fb7"/><stop offset="0.26" stop-color="#0b7bd6"/><stop offset="0.4" stop-color="#178ae0"/><stop offset="0.71" stop-color="#2ea7f3"/><stop offset="0.83" stop-color="#2ba4f1"/><stop offset="0.93" stop-color="#229aec"/><stop offset="1" stop-color="#178ee5"/></linearGradient><linearGradient id="_ÂÁ_Ï_ÌÌ_È_ËÂÌÚ_152-4" x1="196.64" y1="130.92" x2="192.61" y2="123.95" xlink:href="#_ÂÁ_Ï_ÌÌ_È_ËÂÌÚ_152"/><linearGradient id="_ÂÁ_Ï_ÌÌ_È_ËÂÌÚ_3-5" x1="10849.74" y1="129.17" x2="10848.58" y2="127.17" xlink:href="#_ÂÁ_Ï_ÌÌ_È_ËÂÌÚ_3"/><linearGradient id="_ÂÁ_Ï_ÌÌ_È_ËÂÌÚ_3-6" x1="10845.85" y1="130.86" x2="10845.13" y2="129.62" xlink:href="#_ÂÁ_Ï_ÌÌ_È_ËÂÌÚ_3"/><linearGradient id="_ÂÁ_Ï_ÌÌ_È_ËÂÌÚ_93" x1="56.42" y1="66.81" x2="51.31" y2="57.97" gradientUnits="userSpaceOnUse"><stop offset="0" stop-color="#e51a17"/><stop offset="1" stop-color="#9d0700"/></linearGradient><linearGradient id="_ÂÁ_Ï_ÌÌ_È_ËÂÌÚ_3-7" x1="10875.7" y1="122.93" x2="10874.98" y2="121.69" xlink:href="#_ÂÁ_Ï_ÌÌ_È_ËÂÌÚ_3"/><linearGradient id="_ÂÁ_Ï_ÌÌ_È_ËÂÌÚ_152-5" x1="219.25" y1="126.83" x2="215.22" y2="119.86" xlink:href="#_ÂÁ_Ï_ÌÌ_È_ËÂÌÚ_152"/><linearGradient id="_ÂÁ_Ï_ÌÌ_È_ËÂÌÚ_136" x1="206.77" y1="132.52" x2="203.86" y2="127.48" gradientUnits="userSpaceOnUse"><stop offset="0" stop-color="#b70700"/><stop offset="0.71" stop-color="#f32e2e"/><stop offset="0.84" stop-color="#f12b2b"/><stop offset="0.94" stop-color="#eb2321"/><stop offset="1" stop-color="#e51a17"/></linearGradient><linearGradient id="_ÂÁ_Ï_ÌÌ_È_ËÂÌÚ_152-6" x1="196.66" y1="139.71" x2="192.63" y2="132.74" xlink:href="#_ÂÁ_Ï_ÌÌ_È_ËÂÌÚ_152"/><linearGradient id="_ÂÁ_Ï_ÌÌ_È_ËÂÌÚ_3-8" x1="10849.76" y1="137.96" x2="10848.6" y2="135.95" xlink:href="#_ÂÁ_Ï_ÌÌ_È_ËÂÌÚ_3"/><linearGradient id="_ÂÁ_Ï_ÌÌ_È_ËÂÌÚ_3-9" x1="10845.87" y1="139.65" x2="10845.15" y2="138.4" xlink:href="#_ÂÁ_Ï_ÌÌ_È_ËÂÌÚ_3"/></defs><title>logo1</title><g style="isolation:isolate"><g id="_1" data-name="1"><polygon points="0 44.58 19.96 33.05 50.84 50.89 30.88 62.41 0 44.58" style="fill:#b0b4b5"/><polygon points="45.01 48.18 29.3 57.87 24.09 54.58 20.22 54.19 15.77 53.65 1.62 45.51 21.33 33.84 45.01 48.18" style="fill:#898386"/><polygon points="0 45.67 30.88 63.52 30.88 62.41 0 44.58 0 45.67" style="fill:#6f7575"/><polygon points="30.88 62.41 30.88 63.52 50.84 52 50.84 50.89 30.88 62.41" style="fill:#8f9396"/><polygon points="32.46 45.52 35.15 47.08 35.15 13.64 32.46 12.1 32.46 45.52" style="fill:#b28b64"/><polygon points="36.91 46.05 35.15 47.08 35.15 13.64 36.91 12.63 36.91 46.05" style="fill:#d8cfb6"/><polygon points="36.91 12.63 35.15 13.64 32.46 12.1 34.23 11.07 36.91 12.63" style="fill:#555553"/><path d="M188.68,86.46l-2.94-1.69a.82.82,0,0,0-.2-.12h0a1.32,1.32,0,0,0-1.23.06l-1,.62V91l3-1.8V87.09l.07,0Z" transform="translate(-151.65 -77.25)" style="fill:#c9aa7e"/><polygon points="31.61 13.7 34.73 15.5 34.73 9.88 31.61 8.08 31.61 13.7" style="fill:#9d9c9d"/><path d="M189.42,91l-3,1.8V87.13l1.05-.62a1.32,1.32,0,0,1,2,1.14Z" transform="translate(-151.65 -77.25)" style="fill:#e5dfcf"/><polygon points="43.23 48.74 43.11 49.61 42.99 48.88 42.99 46.92 43.23 46.78 43.23 48.74" style="fill:#dadbd9"/><polygon points="43.9 47.16 43.24 47.55 43.24 46.92 43.9 46.54 43.9 47.16" style="fill:#abaea9"/><polygon points="42.58 47.16 43.24 47.55 43.24 46.92 42.58 46.54 42.58 47.16" style="fill:#898386"/><polygon points="44.16 46.62 43.16 47.2 43.16 46.26 44.16 45.68 44.16 46.62" style="fill:#abaea9"/><polygon points="42.16 46.62 43.16 47.2 43.16 46.26 42.16 45.68 42.16 46.62" style="fill:#6b6366"/><polygon points="41.99 49.46 41.87 50.33 41.75 49.6 41.75 47.64 41.99 47.5 41.99 49.46" style="fill:#dadbd9"/><polygon points="42.66 47.88 42 48.27 42 47.64 42.66 47.26 42.66 47.88" style="fill:#abaea9"/><polygon points="41.34 47.88 42 48.27 42 47.64 41.34 47.26 41.34 47.88" style="fill:#898386"/><polygon points="42.92 47.34 41.92 47.91 41.92 46.97 42.92 46.4 42.92 47.34" style="fill:#abaea9"/><polygon points="40.92 47.34 41.92 47.91 41.92 46.97 40.92 46.4 40.92 47.34" style="fill:#6b6366"/><polygon points="40.75 50.18 40.63 51.04 40.51 50.32 40.51 48.35 40.75 48.22 40.75 50.18" style="fill:#dadbd9"/><polygon points="41.42 48.6 40.76 48.98 40.76 48.35 41.42 47.97 41.42 48.6" style="fill:#abaea9"/><polygon points="40.09 48.6 40.76 48.98 40.76 48.35 40.09 47.97 40.09 48.6" style="fill:#898386"/><polygon points="41.68 48.05 40.68 48.63 40.68 47.69 41.68 47.11 41.68 48.05" style="fill:#abaea9"/><polygon points="39.67 48.05 40.68 48.63 40.68 47.69 39.67 47.11 39.67 48.05" style="fill:#6b6366"/><polygon points="39.51 50.9 39.39 51.76 39.27 51.03 39.27 49.07 39.51 48.93 39.51 50.9" style="fill:#dadbd9"/><polygon points="40.18 49.31 39.52 49.7 39.52 49.07 40.18 48.69 40.18 49.31" style="fill:#abaea9"/><polygon points="38.85 49.31 39.52 49.7 39.52 49.07 38.85 48.69 38.85 49.31" style="fill:#898386"/><polygon points="40.44 48.77 39.44 49.35 39.44 48.41 40.44 47.83 40.44 48.77" style="fill:#abaea9"/><polygon points="38.43 48.77 39.44 49.35 39.44 48.41 38.43 47.83 38.43 48.77" style="fill:#6b6366"/><polygon points="38.27 51.61 38.15 52.48 38.03 51.75 38.03 49.79 38.27 49.65 38.27 51.61" style="fill:#dadbd9"/><polygon points="38.94 50.03 38.27 50.41 38.27 49.79 38.94 49.41 38.94 50.03" style="fill:#abaea9"/><polygon points="37.61 50.03 38.27 50.41 38.27 49.79 37.61 49.41 37.61 50.03" style="fill:#898386"/><polygon points="39.2 49.49 38.19 50.06 38.19 49.12 39.2 48.55 39.2 49.49" style="fill:#abaea9"/><polygon points="37.19 49.49 38.19 50.06 38.19 49.12 37.19 48.55 37.19 49.49" style="fill:#6b6366"/><polygon points="37.03 52.33 36.91 53.19 36.79 52.47 36.79 50.51 37.03 50.37 37.03 52.33" style="fill:#dadbd9"/><polygon points="37.7 50.75 37.03 51.13 37.03 50.51 37.7 50.12 37.7 50.75" style="fill:#abaea9"/><polygon points="36.37 50.75 37.03 51.13 37.03 50.51 36.37 50.12 36.37 50.75" style="fill:#898386"/><polygon points="37.95 50.2 36.95 50.78 36.95 49.84 37.95 49.26 37.95 50.2" style="fill:#abaea9"/><polygon points="35.95 50.2 36.95 50.78 36.95 49.84 35.95 49.26 35.95 50.2" style="fill:#6b6366"/><polygon points="35.78 53.05 35.66 53.91 35.55 53.18 35.55 51.22 35.78 51.08 35.78 53.05" style="fill:#dadbd9"/><polygon points="36.45 51.47 35.79 51.85 35.79 51.22 36.45 50.84 36.45 51.47" style="fill:#abaea9"/><polygon points="35.13 51.47 35.79 51.85 35.79 51.22 35.13 50.84 35.13 51.47" style="fill:#898386"/><polygon points="36.71 50.92 35.71 51.5 35.71 50.56 36.71 49.98 36.71 50.92" style="fill:#abaea9"/><polygon points="34.71 50.92 35.71 51.5 35.71 50.56 34.71 49.98 34.71 50.92" style="fill:#6b6366"/><polygon points="34.54 53.76 34.42 54.63 34.3 53.9 34.3 51.94 34.54 51.8 34.54 53.76" style="fill:#dadbd9"/><polygon points="35.21 52.18 34.55 52.56 34.55 51.94 35.21 51.55 35.21 52.18" style="fill:#abaea9"/><polygon points="33.89 52.18 34.55 52.56 34.55 51.94 33.89 51.55 33.89 52.18" style="fill:#898386"/><polygon points="35.47 51.64 34.47 52.21 34.47 51.27 35.47 50.7 35.47 51.64" style="fill:#abaea9"/><polygon points="33.47 51.64 34.47 52.21 34.47 51.27 33.47 50.7 33.47 51.64" style="fill:#6b6366"/><polygon points="33.3 54.48 33.18 55.34 33.06 54.62 33.06 52.66 33.3 52.52 33.3 54.48" style="fill:#dadbd9"/><polygon points="33.97 52.9 33.31 53.28 33.31 52.66 33.97 52.27 33.97 52.9" style="fill:#abaea9"/><polygon points="32.65 52.9 33.31 53.28 33.31 52.66 32.65 52.27 32.65 52.9" style="fill:#898386"/><polygon points="34.23 52.35 33.23 52.93 33.23 51.99 34.23 51.41 34.23 52.35" style="fill:#abaea9"/><polygon points="32.23 52.35 33.23 52.93 33.23 51.99 32.23 51.41 32.23 52.35" style="fill:#6b6366"/><polygon points="45.8 30.94 32.3 38.74 28.22 19.14 41.73 11.34 45.8 30.94" style="fill:#f7f5f5"/><polygon points="45.8 30.94 32.3 38.74 28.78 19.36 41.35 12.25 45.8 30.94" style="fill:#e5dfcf"/><polygon points="45.8 30.94 45.8 45.11 44.31 45.98 43.9 46.21 43.07 46.69 42.66 46.93 41.83 47.41 41.42 47.65 40.58 48.13 40.17 48.36 39.34 48.84 38.93 49.08 38.1 49.56 37.69 49.8 36.86 50.28 36.45 50.51 35.62 50.99 35.21 51.23 34.38 51.71 33.97 51.95 32.3 52.91 32.3 38.74 33.97 37.78 34.38 37.54 35.21 37.06 35.62 36.83 36.45 36.34 36.86 36.11 37.69 35.63 38.1 35.39 38.93 34.91 39.34 34.67 40.17 34.19 40.58 33.96 41.42 33.48 41.83 33.24 42.66 32.76 43.07 32.52 43.9 32.04 44.31 31.81 45.8 30.94" style="fill:#d8cfb6"/><polygon points="34.38 38.14 34.38 51.71 33.97 51.95 33.97 38.38 34.38 38.14" style="fill:#84543e"/><polygon points="35.62 37.42 35.62 50.99 35.21 51.23 35.21 37.66 35.62 37.42" style="fill:#84543e"/><polygon points="36.86 36.71 36.86 50.28 36.45 50.51 36.45 36.94 36.86 36.71" style="fill:#84543e"/><polygon points="38.1 35.99 38.1 49.56 37.69 49.8 37.69 36.23 38.1 35.99" style="fill:#84543e"/><polygon points="39.34 35.27 39.34 48.84 38.93 49.08 38.93 35.51 39.34 35.27" style="fill:#84543e"/><polygon points="40.58 34.56 40.58 48.13 40.17 48.36 40.17 34.79 40.58 34.56" style="fill:#84543e"/><polygon points="41.83 33.84 41.83 47.41 41.42 47.65 41.42 34.08 41.83 33.84" style="fill:#84543e"/><polygon points="43.07 33.12 43.07 46.69 42.66 46.93 42.66 33.36 43.07 33.12" style="fill:#84543e"/><polygon points="44.31 32.41 44.31 45.98 43.9 46.21 43.9 32.64 44.31 32.41" style="fill:#84543e"/><polygon points="33.15 39.92 32.3 42.48 32.3 49.71 45.8 41.76 45.8 39.92 33.15 39.92" style="fill:#a26f4a"/><polygon points="33.4 48.73 34.11 49.13 34.11 48.57 33.4 48.18 33.4 48.73" style="fill:#a26f4a"/><polygon points="45.63 42.48 34.11 49.13 34.11 48.57 45.63 41.92 45.63 42.48" style="fill:#e3dfda"/><polygon points="45.63 41.92 34.11 48.57 33.4 48.18 44.92 41.53 45.63 41.92" style="fill:#fff"/><polygon points="31.29 52.31 32.3 52.91 32.3 38.74 28.45 36.39 30.55 43.92 31.29 52.31" style="fill:#b28b64"/><polygon points="17.68 29.79 32.3 38.74 28.22 19.14 17.43 13.03 17.68 29.79" style="fill:#c9aa7e"/><polygon points="41.73 11.34 28.22 19.14 19.87 14.41 17.43 13.03 19 12.12 20.86 11.04 24.15 9.14 25.34 8.46 25.34 8.46 28.61 6.57 30.93 5.23 41.73 11.34" style="fill:#f7f7f6"/><polygon points="40.92 11.34 28.22 18.36 19.87 14.41 17.43 13.03 19 12.12 20.86 11.04 24.15 9.14 25.34 8.46 25.34 8.46 28.61 6.57 30.93 5.23 40.92 11.34" style="fill:#eeeae0"/><path d="M175.37,91.36c-.89.52-1.17.48-2.79.4l-1.05-.1-2.45-1.38,1.58-.91,1.45.11a3.58,3.58,0,0,1,3.25,0,1.91,1.91,0,0,1,.21.14h0C176.26,90.14,176.19,90.89,175.37,91.36Z" transform="translate(-151.65 -77.25)" style="fill:#bb9875"/><path d="M181,91.79c-.89.52-1.17.48-2.79.4-.07,0-4.55-.42-4.61-.46l-.89-.5c-.11-.09.23-.08.15-.17-.39-.48-.25-1.08.44-1.48l4.44.33a3.58,3.58,0,0,1,3.25,0,1.1,1.1,0,0,1,.21.14h0C181.9,90.58,181.83,91.32,181,91.79Z" transform="translate(-151.65 -77.25)" style="fill:#bb9875"/><path d="M185.51,89.05c-.9.52-1.17.48-2.79.4-.08,0-4.56-.42-4.62-.47l-.88-.5c-.11-.08.22-.07.15-.16-.4-.48-.25-1.08.44-1.49l4.44.34a3.58,3.58,0,0,1,3.25,0l.21.13h0C186.39,87.84,186.32,88.58,185.51,89.05Z" transform="translate(-151.65 -77.25)" style="fill:#bb9875"/><path d="M179.61,88.32c-.9.52-1.17.48-2.79.4l-4.31-.42,3.29-1.9.55,0a3.58,3.58,0,0,1,3.25,0l.21.14h0C180.49,87.1,180.43,87.85,179.61,88.32Z" transform="translate(-151.65 -77.25)" style="fill:#bb9875"/><path d="M184.25,85.75c-.89.52-1.17.48-2.79.4-.07,0-3.69-.34-4.47-.44l3.28-1.89.72.05a3.58,3.58,0,0,1,3.25,0,1.1,1.1,0,0,1,.21.14h0C185.13,84.54,185.07,85.28,184.25,85.75Z" transform="translate(-151.65 -77.25)" style="fill:#bb9875"/><polygon points="25.01 19.85 28.45 36.39 17.68 29.79 17.47 15.85 25.01 19.85" style="fill:#107e9a"/><polygon points="45.01 32.99 45.82 33.46 45.82 37.19 46.64 37.67 46.64 40.98 45.83 41.44 44.19 33.45 45.01 32.99" style="fill:#f7f7f6"/><polygon points="44.19 33.45 45 33.92 45 37.65 45.83 38.13 45.83 41.44 44.19 40.5 44.19 33.45" style="fill:#a26f4a"/><polygon points="43.78 33.71 44.59 34.18 44.59 37.91 45.42 38.39 45.42 41.7 44.6 42.16 42.96 34.17 43.78 33.71" style="fill:#f7f7f6"/><polygon points="42.96 34.17 43.77 34.64 43.77 38.37 44.6 38.85 44.6 42.16 42.96 41.22 42.96 34.17" style="fill:#a26f4a"/><polygon points="42.55 34.43 43.37 34.89 43.37 38.63 44.19 39.1 44.19 42.42 43.37 42.88 41.74 34.89 42.55 34.43" style="fill:#f7f7f6"/><polygon points="41.74 34.89 42.55 35.36 42.55 39.09 43.37 39.57 43.37 42.88 41.74 41.94 41.74 34.89" style="fill:#a26f4a"/><polygon points="41.33 35.15 42.14 35.61 42.14 39.35 42.96 39.82 42.96 43.14 42.15 43.6 40.51 35.61 41.33 35.15" style="fill:#f7f7f6"/><polygon points="40.51 35.61 41.32 36.08 41.32 39.81 42.15 40.29 42.15 43.6 40.51 42.66 40.51 35.61" style="fill:#a26f4a"/><polygon points="40.1 35.86 40.91 36.33 40.91 40.06 41.74 40.54 41.74 43.86 40.92 44.32 39.28 36.33 40.1 35.86" style="fill:#f7f7f6"/><polygon points="39.28 36.33 40.09 36.8 40.09 40.53 40.92 41.01 40.92 44.32 39.28 43.38 39.28 36.33" style="fill:#a26f4a"/><polygon points="38.87 36.58 39.69 37.05 39.69 40.78 40.51 41.26 40.51 44.58 39.69 45.04 38.06 37.05 38.87 36.58" style="fill:#f7f7f6"/><polygon points="38.06 37.05 38.87 37.51 38.87 41.25 39.69 41.72 39.69 45.04 38.06 44.09 38.06 37.05" style="fill:#a26f4a"/><polygon points="37.65 37.3 38.46 37.77 38.46 41.5 39.28 41.98 39.28 45.29 38.47 45.76 36.83 37.77 37.65 37.3" style="fill:#f7f7f6"/><polygon points="36.83 37.77 37.64 38.23 37.64 41.97 38.47 42.44 38.47 45.76 36.83 44.81 36.83 37.77" style="fill:#a26f4a"/><polygon points="36.42 38.02 37.23 38.49 37.23 42.22 38.06 42.7 38.06 46.01 37.24 46.48 35.6 38.48 36.42 38.02" style="fill:#f7f7f6"/><polygon points="35.6 38.48 36.41 38.95 36.41 42.69 37.24 43.16 37.24 46.48 35.6 45.53 35.6 38.48" style="fill:#a26f4a"/><polygon points="35.19 38.74 36.01 39.21 36.01 42.94 36.83 43.42 36.83 46.73 36.01 47.19 34.38 39.2 35.19 38.74" style="fill:#f7f7f6"/><polygon points="34.38 39.2 35.19 39.67 35.19 43.4 36.01 43.88 36.01 47.19 34.38 46.25 34.38 39.2" style="fill:#a26f4a"/><polygon points="33.97 39.46 34.78 39.93 34.78 43.66 35.6 44.13 35.6 47.45 34.78 47.91 33.15 39.92 33.97 39.46" style="fill:#f7f7f6"/><polygon points="33.15 39.92 33.96 40.39 33.96 44.12 34.78 44.6 34.78 47.91 33.15 46.97 33.15 39.92" style="fill:#b28b64"/><path d="M183.64,99.87a1.18,1.18,0,0,1,.41,1.11c-.07.38-1.56.67-1.87.47a1.09,1.09,0,0,1-.42-1.06C181.83,100,183.33,99.67,183.64,99.87Z" transform="translate(-151.65 -77.25)" style="fill:#a26f4a"/><path d="M183.64,97.12a1.16,1.16,0,0,1,.41,1.11c-.07.38-1.56.67-1.87.46a1.08,1.08,0,0,1-.42-1.06C181.83,97.25,183.33,96.92,183.64,97.12Z" transform="translate(-151.65 -77.25)" style="fill:#a26f4a"/><path d="M186,95.9a1.17,1.17,0,0,1,.41,1.11c-.07.38-1.56.67-1.87.47a1.1,1.1,0,0,1-.42-1.06C184.15,96,185.65,95.7,186,95.9Z" transform="translate(-151.65 -77.25)" style="fill:#a26f4a"/><path d="M188.43,94.79a1.19,1.19,0,0,1,.41,1.11c-.08.38-1.56.67-1.87.47a1.13,1.13,0,0,1-.43-1.06C186.62,94.92,188.12,94.59,188.43,94.79Z" transform="translate(-151.65 -77.25)" style="fill:#a26f4a"/><path d="M190.76,93.47a1.2,1.2,0,0,1,.41,1.11c-.08.38-1.56.67-1.87.47a1.1,1.1,0,0,1-.43-1.06C189,93.61,190.45,93.27,190.76,93.47Z" transform="translate(-151.65 -77.25)" style="fill:#a26f4a"/><path d="M192.84,95.15a1.16,1.16,0,0,1,.41,1.11c-.08.38-1.56.67-1.87.46a1.11,1.11,0,0,1-.43-1.06C191,95.28,192.53,95,192.84,95.15Z" transform="translate(-151.65 -77.25)" style="fill:#a26f4a"/><path d="M190.44,96.37a1.15,1.15,0,0,1,.41,1.1c-.07.39-1.56.68-1.87.47a1.09,1.09,0,0,1-.42-1.06C188.63,96.5,190.13,96.16,190.44,96.37Z" transform="translate(-151.65 -77.25)" style="fill:#a26f4a"/><path d="M188.05,97.59a1.17,1.17,0,0,1,.41,1.1c-.08.38-1.56.67-1.87.47a1.12,1.12,0,0,1-.43-1.06C186.24,97.72,187.74,97.38,188.05,97.59Z" transform="translate(-151.65 -77.25)" style="fill:#a26f4a"/><path d="M185.79,98.77a1.17,1.17,0,0,1,.41,1.11c-.07.38-1.56.67-1.87.47a1.1,1.1,0,0,1-.42-1.06C184,98.9,185.48,98.57,185.79,98.77Z" transform="translate(-151.65 -77.25)" style="fill:#a26f4a"/><path d="M192.63,94.9h0l1.15-.37.41,1.19-1,.66a.09.09,0,0,1-.07,0h0C192.18,96.51,192,95.08,192.63,94.9Z" transform="translate(-151.65 -77.25)" style="fill:url(#_ÂÁ_Ï_ÌÌ_È_ËÂÌÚ_875)"/><path d="M194.11,94.58a.85.85,0,0,1,.33.82c-.06.3-.3.41-.54.25a.82.82,0,0,1-.33-.82A.33.33,0,0,1,194.11,94.58Z" transform="translate(-151.65 -77.25)" style="fill:#686868"/><path d="M194.07,94.78a.49.49,0,0,1,.19.48.2.2,0,0,1-.32.15.5.5,0,0,1-.19-.49A.19.19,0,0,1,194.07,94.78Z" transform="translate(-151.65 -77.25)" style="fill:#f7f7f6"/><path d="M190.28,96.12h0l1.15-.37.41,1.18-1,.67s-.05,0-.08,0h0C189.83,97.73,189.62,96.3,190.28,96.12Z" transform="translate(-151.65 -77.25)" style="fill:url(#_ÂÁ_Ï_ÌÌ_È_ËÂÌÚ_875-2)"/><path d="M191.76,95.8a.84.84,0,0,1,.33.82c-.06.3-.3.41-.54.25a.86.86,0,0,1-.33-.82C191.28,95.75,191.52,95.64,191.76,95.8Z" transform="translate(-151.65 -77.25)" style="fill:#686868"/><path d="M191.72,96a.5.5,0,0,1,.19.49.2.2,0,0,1-.32.15.53.53,0,0,1-.19-.49A.2.2,0,0,1,191.72,96Z" transform="translate(-151.65 -77.25)" style="fill:#f7f7f6"/><path d="M187.94,97.34h0l1.15-.38.41,1.19-1,.67-.08,0h0C187.48,99,187.27,97.52,187.94,97.34Z" transform="translate(-151.65 -77.25)" style="fill:url(#_ÂÁ_Ï_ÌÌ_È_ËÂÌÚ_875-3)"/><path d="M189.41,97a.87.87,0,0,1,.33.83c-.06.3-.3.41-.54.25a.86.86,0,0,1-.33-.82A.34.34,0,0,1,189.41,97Z" transform="translate(-151.65 -77.25)" style="fill:#686868"/><path d="M189.37,97.21a.5.5,0,0,1,.19.49.19.19,0,0,1-.32.14.51.51,0,0,1-.19-.48C189.09,97.19,189.23,97.12,189.37,97.21Z" transform="translate(-151.65 -77.25)" style="fill:#f7f7f6"/><path d="M185.59,98.56h0l1.15-.38.4,1.19-1,.67-.08,0h0C185.13,100.17,184.92,98.73,185.59,98.56Z" transform="translate(-151.65 -77.25)" style="fill:url(#_ÂÁ_Ï_ÌÌ_È_ËÂÌÚ_875-4)"/><path d="M187.06,98.23a.87.87,0,0,1,.33.83.33.33,0,0,1-.54.25.87.87,0,0,1-.33-.83A.33.33,0,0,1,187.06,98.23Z" transform="translate(-151.65 -77.25)" style="fill:#686868"/><path d="M187,98.43a.49.49,0,0,1,.19.48c0,.18-.17.25-.31.15a.49.49,0,0,1-.2-.48C186.74,98.4,186.88,98.34,187,98.43Z" transform="translate(-151.65 -77.25)" style="fill:#f7f7f6"/><path d="M183.24,99.78h0l1.15-.38.4,1.19-1,.67-.08,0h0C182.78,101.39,182.57,100,183.24,99.78Z" transform="translate(-151.65 -77.25)" style="fill:url(#_ÂÁ_Ï_ÌÌ_È_ËÂÌÚ_875-5)"/><path d="M184.71,99.45a.87.87,0,0,1,.33.83.34.34,0,0,1-.54.25.87.87,0,0,1-.33-.83A.33.33,0,0,1,184.71,99.45Z" transform="translate(-151.65 -77.25)" style="fill:#686868"/><path d="M184.67,99.65a.52.52,0,0,1,.2.48c0,.18-.18.24-.32.15a.49.49,0,0,1-.2-.48C184.39,99.62,184.53,99.56,184.67,99.65Z" transform="translate(-151.65 -77.25)" style="fill:#f7f7f6"/><path d="M190.46,93.31h0l1.14-.37.41,1.19-1,.66a.13.13,0,0,1-.08,0h0C190,94.92,189.79,93.49,190.46,93.31Z" transform="translate(-151.65 -77.25)" style="fill:url(#_ÂÁ_Ï_ÌÌ_È_ËÂÌÚ_875-6)"/><path d="M191.93,93a.86.86,0,0,1,.33.82c-.06.3-.3.41-.54.25a.84.84,0,0,1-.33-.82C191.45,92.94,191.69,92.83,191.93,93Z" transform="translate(-151.65 -77.25)" style="fill:#686868"/><path d="M191.89,93.19a.49.49,0,0,1,.19.48.19.19,0,0,1-.31.15.5.5,0,0,1-.2-.49C191.61,93.16,191.75,93.09,191.89,93.19Z" transform="translate(-151.65 -77.25)" style="fill:#f7f7f6"/><path d="M188.11,94.53h0l1.15-.37.4,1.18-1,.67a.13.13,0,0,1-.08,0h0C187.65,96.14,187.44,94.71,188.11,94.53Z" transform="translate(-151.65 -77.25)" style="fill:url(#_ÂÁ_Ï_ÌÌ_È_ËÂÌÚ_875-7)"/><path d="M189.58,94.21a.84.84,0,0,1,.33.82c-.06.3-.3.41-.54.25a.85.85,0,0,1-.33-.82C189.1,94.16,189.34,94.05,189.58,94.21Z" transform="translate(-151.65 -77.25)" style="fill:#686868"/><path d="M189.54,94.4a.53.53,0,0,1,.2.49c0,.17-.18.24-.32.15a.51.51,0,0,1-.2-.49C189.26,94.38,189.4,94.31,189.54,94.4Z" transform="translate(-151.65 -77.25)" style="fill:#f7f7f6"/><path d="M185.76,95.75h0l1.15-.38.4,1.19-1,.67-.08,0h0C185.3,97.36,185.1,95.93,185.76,95.75Z" transform="translate(-151.65 -77.25)" style="fill:url(#_ÂÁ_Ï_ÌÌ_È_ËÂÌÚ_875-8)"/><path d="M187.23,95.43a.84.84,0,0,1,.33.82c-.06.3-.3.41-.54.25a.86.86,0,0,1-.33-.82C186.75,95.38,187,95.27,187.23,95.43Z" transform="translate(-151.65 -77.25)" style="fill:#686868"/><path d="M187.19,95.62a.53.53,0,0,1,.2.49c0,.17-.18.24-.32.14a.49.49,0,0,1-.2-.48C186.91,95.6,187.05,95.53,187.19,95.62Z" transform="translate(-151.65 -77.25)" style="fill:#f7f7f6"/><path d="M183.41,97h0l1.15-.38.4,1.19-1,.67-.07,0h0C183,98.58,182.75,97.14,183.41,97Z" transform="translate(-151.65 -77.25)" style="fill:url(#_ÂÁ_Ï_ÌÌ_È_ËÂÌÚ_875-9)"/><path d="M184.88,96.64a.87.87,0,0,1,.33.83.33.33,0,0,1-.54.25.86.86,0,0,1-.33-.82A.34.34,0,0,1,184.88,96.64Z" transform="translate(-151.65 -77.25)" style="fill:#686868"/><path d="M184.84,96.84a.52.52,0,0,1,.2.49c0,.17-.18.24-.32.14a.52.52,0,0,1-.2-.48C184.56,96.82,184.7,96.75,184.84,96.84Z" transform="translate(-151.65 -77.25)" style="fill:#f7f7f6"/><path d="M185.61,109.45a1.57,1.57,0,0,1,.65,1.71.83.83,0,0,1-1.28.58,1.6,1.6,0,0,1-.65-1.71A.84.84,0,0,1,185.61,109.45Z" transform="translate(-151.65 -77.25)" style="fill:#a26f4a"/><path d="M188.61,107.71a1.6,1.6,0,0,1,.65,1.71A.85.85,0,0,1,188,110a1.59,1.59,0,0,1-.64-1.72A.83.83,0,0,1,188.61,107.71Z" transform="translate(-151.65 -77.25)" style="fill:#a26f4a"/><path d="M191.7,106.07a1.6,1.6,0,0,1,.65,1.71.84.84,0,0,1-1.28.58,1.61,1.61,0,0,1-.65-1.72A.84.84,0,0,1,191.7,106.07Z" transform="translate(-151.65 -77.25)" style="fill:#a26f4a"/><path d="M194.66,104.6a1.6,1.6,0,0,1,.65,1.71.84.84,0,0,1-1.28.58,1.57,1.57,0,0,1-.65-1.71A.83.83,0,0,1,194.66,104.6Z" transform="translate(-151.65 -77.25)" style="fill:#a26f4a"/><ellipse cx="184.17" cy="106.45" rx="0.99" ry="1.3" transform="translate(-173.65 -23.19) rotate(-15.77)" style="fill:#a26f4a"/><path d="M187.48,103.56a1.6,1.6,0,0,1,.65,1.71.84.84,0,0,1-1.29.58,1.58,1.58,0,0,1-.64-1.71A.84.84,0,0,1,187.48,103.56Z" transform="translate(-151.65 -77.25)" style="fill:#a26f4a"/><path d="M190.57,101.92a1.6,1.6,0,0,1,.65,1.71.84.84,0,0,1-1.28.58,1.6,1.6,0,0,1-.65-1.71A.84.84,0,0,1,190.57,101.92Z" transform="translate(-151.65 -77.25)" style="fill:#a26f4a"/><path d="M193.53,100.45a1.62,1.62,0,0,1,.65,1.72.84.84,0,0,1-1.28.58,1.59,1.59,0,0,1-.65-1.72A.84.84,0,0,1,193.53,100.45Z" transform="translate(-151.65 -77.25)" style="fill:#a26f4a"/><path d="M194.54,106.6a1.74,1.74,0,0,1-.76-1.65.81.81,0,0,1,.4-.63h0l.59-.29.95,2.38-.42.21a.53.53,0,0,1-.15.08h0A.73.73,0,0,1,194.54,106.6Z" transform="translate(-151.65 -77.25)" style="fill:url(#_ÂÁ_Ï_ÌÌ_È_ËÂÌÚ_875-10)"/><path d="M195.44,104.1a1.75,1.75,0,0,1,.76,1.65.69.69,0,0,1-1.09.57,1.77,1.77,0,0,1-.75-1.65A.68.68,0,0,1,195.44,104.1Z" transform="translate(-151.65 -77.25)" style="fill:#4f4e4a"/><path d="M195.45,104.12a1.63,1.63,0,0,1,.7,1.53.64.64,0,0,1-1,.52,1.63,1.63,0,0,1-.7-1.53A.64.64,0,0,1,195.45,104.12Z" transform="translate(-151.65 -77.25)" style="fill:#706f6d"/><path d="M191.58,108.15a1.76,1.76,0,0,1-.76-1.65.8.8,0,0,1,.41-.63h0l.58-.3.95,2.39-.42.21-.14.08h0A.73.73,0,0,1,191.58,108.15Z" transform="translate(-151.65 -77.25)" style="fill:url(#_ÂÁ_Ï_ÌÌ_È_ËÂÌÚ_875-11)"/><path d="M192.48,105.65a1.74,1.74,0,0,1,.76,1.65.68.68,0,0,1-1.08.56,1.74,1.74,0,0,1-.76-1.65A.68.68,0,0,1,192.48,105.65Z" transform="translate(-151.65 -77.25)" style="fill:#4f4e4a"/><path d="M192.49,105.67a1.6,1.6,0,0,1,.7,1.52.63.63,0,0,1-1,.53,1.61,1.61,0,0,1-.71-1.53A.64.64,0,0,1,192.49,105.67Z" transform="translate(-151.65 -77.25)" style="fill:#706f6d"/><path d="M188.49,109.75a1.76,1.76,0,0,1-.76-1.65.81.81,0,0,1,.4-.63h0l.59-.29.94,2.38-.41.21-.15.08h0A.73.73,0,0,1,188.49,109.75Z" transform="translate(-151.65 -77.25)" style="fill:url(#_ÂÁ_Ï_ÌÌ_È_ËÂÌÚ_875-12)"/><path d="M189.39,107.25a1.74,1.74,0,0,1,.76,1.65.69.69,0,0,1-1.09.57,1.74,1.74,0,0,1-.75-1.66A.68.68,0,0,1,189.39,107.25Z" transform="translate(-151.65 -77.25)" style="fill:#4f4e4a"/><path d="M189.4,107.27a1.63,1.63,0,0,1,.7,1.53.64.64,0,0,1-1,.52,1.63,1.63,0,0,1-.7-1.53A.64.64,0,0,1,189.4,107.27Z" transform="translate(-151.65 -77.25)" style="fill:#706f6d"/><path d="M185.42,111.53a1.76,1.76,0,0,1-.76-1.65.79.79,0,0,1,.4-.64h0l.59-.29.94,2.39-.41.21-.15.07h0A.72.72,0,0,1,185.42,111.53Z" transform="translate(-151.65 -77.25)" style="fill:url(#_ÂÁ_Ï_ÌÌ_È_ËÂÌÚ_875-13)"/><path d="M186.32,109a1.76,1.76,0,0,1,.76,1.65.69.69,0,0,1-1.09.57,1.76,1.76,0,0,1-.76-1.65A.69.69,0,0,1,186.32,109Z" transform="translate(-151.65 -77.25)" style="fill:#4f4e4a"/><path d="M186.32,109a1.64,1.64,0,0,1,.71,1.53.64.64,0,0,1-1,.53,1.62,1.62,0,0,1-.7-1.53A.63.63,0,0,1,186.32,109Z" transform="translate(-151.65 -77.25)" style="fill:#706f6d"/><path d="M193.41,102.43a1.76,1.76,0,0,1-.76-1.65.81.81,0,0,1,.4-.63h0l.59-.3.94,2.39-.41.21a.51.51,0,0,1-.15.07h0A.73.73,0,0,1,193.41,102.43Z" transform="translate(-151.65 -77.25)" style="fill:url(#_ÂÁ_Ï_ÌÌ_È_ËÂÌÚ_875-14)"/><path d="M194.31,99.92a1.76,1.76,0,0,1,.76,1.65.69.69,0,0,1-1.09.57,1.74,1.74,0,0,1-.75-1.65A.69.69,0,0,1,194.31,99.92Z" transform="translate(-151.65 -77.25)" style="fill:#4f4e4a"/><path d="M194.32,99.94a1.65,1.65,0,0,1,.7,1.53c-.09.57-.54.81-1,.53a1.64,1.64,0,0,1-.7-1.53A.64.64,0,0,1,194.32,99.94Z" transform="translate(-151.65 -77.25)" style="fill:#706f6d"/><path d="M190.45,104a1.76,1.76,0,0,1-.76-1.65.8.8,0,0,1,.4-.63h0l.59-.29.95,2.39-.42.21-.14.07h0A.73.73,0,0,1,190.45,104Z" transform="translate(-151.65 -77.25)" style="fill:url(#_ÂÁ_Ï_ÌÌ_È_ËÂÌÚ_875-15)"/><path d="M191.35,101.47a1.76,1.76,0,0,1,.76,1.65.68.68,0,0,1-1.08.57,1.76,1.76,0,0,1-.76-1.65A.68.68,0,0,1,191.35,101.47Z" transform="translate(-151.65 -77.25)" style="fill:#4f4e4a"/><path d="M191.36,101.49a1.64,1.64,0,0,1,.7,1.53.64.64,0,0,1-1,.53,1.64,1.64,0,0,1-.7-1.53A.64.64,0,0,1,191.36,101.49Z" transform="translate(-151.65 -77.25)" style="fill:#706f6d"/><path d="M187.36,105.58a1.76,1.76,0,0,1-.76-1.65.8.8,0,0,1,.4-.63h0l.59-.3.94,2.39-.41.21a.51.51,0,0,1-.15.07h0A.73.73,0,0,1,187.36,105.58Z" transform="translate(-151.65 -77.25)" style="fill:url(#_ÂÁ_Ï_ÌÌ_È_ËÂÌÚ_875-16)"/><path d="M188.26,103.07a1.76,1.76,0,0,1,.76,1.65.69.69,0,0,1-1.09.57,1.76,1.76,0,0,1-.76-1.65A.69.69,0,0,1,188.26,103.07Z" transform="translate(-151.65 -77.25)" style="fill:#4f4e4a"/><path d="M188.26,103.09a1.62,1.62,0,0,1,.71,1.53c-.09.57-.54.81-1,.53a1.62,1.62,0,0,1-.7-1.53A.63.63,0,0,1,188.26,103.09Z" transform="translate(-151.65 -77.25)" style="fill:#706f6d"/><path d="M184.28,107.35a1.75,1.75,0,0,1-.75-1.65.77.77,0,0,1,.4-.63h0l.59-.29.94,2.38-.42.21a.39.39,0,0,1-.14.08h0A.75.75,0,0,1,184.28,107.35Z" transform="translate(-151.65 -77.25)" style="fill:url(#_ÂÁ_Ï_ÌÌ_È_ËÂÌÚ_875-17)"/><path d="M185.19,104.85a1.75,1.75,0,0,1,.75,1.65.68.68,0,0,1-1.08.57,1.76,1.76,0,0,1-.76-1.65A.69.69,0,0,1,185.19,104.85Z" transform="translate(-151.65 -77.25)" style="fill:#4f4e4a"/><path d="M185.19,104.87a1.61,1.61,0,0,1,.7,1.53.63.63,0,0,1-1,.52,1.61,1.61,0,0,1-.7-1.53A.63.63,0,0,1,185.19,104.87Z" transform="translate(-151.65 -77.25)" style="fill:#706f6d"/><path d="M185.73,84.22h-4.6v.69h0a1.17,1.17,0,0,0,.68.94,3.58,3.58,0,0,0,3.25,0,1.14,1.14,0,0,0,.67-.94h0Z" transform="translate(-151.65 -77.25)" style="fill:url(#_ÂÁ_Ï_ÌÌ_È_ËÂÌÚ_875-18)"/><path d="M185.06,85.16a3.58,3.58,0,0,1-3.25,0,.57.57,0,0,1-.18-.12h0a1.34,1.34,0,0,1-.27-.26c-.4-.48-.25-1.08.44-1.48h0a3.58,3.58,0,0,1,3.25,0l.21.14h0C185.94,83.94,185.88,84.69,185.06,85.16Z" transform="translate(-151.65 -77.25)" style="fill:#686868"/><path d="M184.69,84.9a3,3,0,0,1-2.69,0l-.16-.1h0c-.59-.44-.54-1.06.15-1.46a2.94,2.94,0,0,1,2.69,0,.78.78,0,0,1,.18.11h0C185.43,83.89,185.37,84.51,184.69,84.9Z" transform="translate(-151.65 -77.25)" style="fill:#403e39"/><path d="M183.39,83.38l-1,1.69-1-.3c-.4-.48-.25-1.08.44-1.48Z" transform="translate(-151.65 -77.25)" style="fill:#403e39"/><path d="M185.2,84a.57.57,0,0,1,0,.13,1,1,0,0,1-.5.59,2.75,2.75,0,0,1-2.5,0,1.1,1.1,0,0,1-.45-.43l0-.09a.29.29,0,0,1,0-.09.52.52,0,0,1,0-.11h0l.29-5.87h3Z" transform="translate(-151.65 -77.25)" style="fill:url(#_ÂÁ_Ï_ÌÌ_È_ËÂÌÚ_596)"/><path d="M184.48,78.72a2.32,2.32,0,0,1-2.1,0l-.12-.08h0c-.45-.33-.42-.82.12-1.13a2.35,2.35,0,0,1,2.1,0l.13.09h0C185.06,77.93,185,78.41,184.48,78.72Z" transform="translate(-151.65 -77.25)" style="fill:#ff5e5e"/><path d="M184.35,78.65a2.14,2.14,0,0,1-2,0l-.12-.07h0c-.43-.32-.39-.78.11-1.07a2.17,2.17,0,0,1,2,0,.57.57,0,0,1,.13.08h0C184.88,77.92,184.84,78.37,184.35,78.65Z" transform="translate(-151.65 -77.25)" style="fill:#ff4040"/><path d="M183.72,78.36a1.58,1.58,0,0,1-1.2-.12l-.05,0h0c-.22-.16-.2-.39.05-.54a1.15,1.15,0,0,1,1,0l.06,0h0C183.78,77.88,184,78.22,183.72,78.36Z" transform="translate(-151.65 -77.25)" style="fill:#d36572;mix-blend-mode:multiply"/><path d="M184.13,77.68h-1.4V78h0a.35.35,0,0,0,.21.29,1.08,1.08,0,0,0,1,0,.35.35,0,0,0,.2-.29h0Z" transform="translate(-151.65 -77.25)" style="fill:url(#_ÂÁ_Ï_ÌÌ_È_ËÂÌÚ_623)"/><path d="M183.93,78a1.15,1.15,0,0,1-1,0l-.06,0h0c-.21-.16-.2-.39.06-.54a1.09,1.09,0,0,1,1,0l.07,0h0C184.19,77.6,184.17,77.82,183.93,78Z" transform="translate(-151.65 -77.25)" style="fill:#fff"/><path d="M183.88,77.94a1.06,1.06,0,0,1-.95,0,.1.1,0,0,1-.05,0h0c-.21-.15-.19-.37.05-.51a1.06,1.06,0,0,1,.95,0l.06,0h0C184.14,77.58,184.12,77.8,183.88,77.94Z" transform="translate(-151.65 -77.25)" style="fill:#fdfdfd"/><path d="M183.77,77.86a.74.74,0,0,1-.68,0l0,0h0c-.15-.1-.14-.26,0-.36a.74.74,0,0,1,.68,0l0,0h0C184,77.61,183.94,77.76,183.77,77.86Z" transform="translate(-151.65 -77.25)" style="fill:url(#_ÂÁ_Ï_ÌÌ_È_ËÂÌÚ_622)"/><path d="M183.77,77.86a.74.74,0,0,1-.68,0l0,0c.61,0,.75-.33.75-.33h0C184,77.61,183.94,77.76,183.77,77.86Z" transform="translate(-151.65 -77.25)" style="fill:#886572;mix-blend-mode:multiply"/><path d="M181.23,87h-4.59v.7h0a1.14,1.14,0,0,0,.68.93,3.61,3.61,0,0,0,3.25,0,1.11,1.11,0,0,0,.66-.94h0Z" transform="translate(-151.65 -77.25)" style="fill:url(#_ÂÁ_Ï_ÌÌ_È_ËÂÌÚ_875-19)"/><path d="M180.57,88a3.61,3.61,0,0,1-3.25,0l-.19-.12h0a1.34,1.34,0,0,1-.27-.26c-.4-.49-.25-1.08.43-1.49h0a3.61,3.61,0,0,1,3.25,0l.21.14h0C181.45,86.73,181.38,87.47,180.57,88Z" transform="translate(-151.65 -77.25)" style="fill:#686868"/><path d="M180.2,87.69a3,3,0,0,1-2.7,0l-.15-.1h0c-.59-.43-.54-1.06.14-1.45a3,3,0,0,1,2.7,0l.17.12h0C180.93,86.68,180.88,87.3,180.2,87.69Z" transform="translate(-151.65 -77.25)" style="fill:#403e39"/><path d="M178.89,86.16l-1,1.7-1-.3c-.4-.49-.25-1.08.43-1.49Z" transform="translate(-151.65 -77.25)" style="fill:#403e39"/><path d="M180.7,86.76a.66.66,0,0,1,0,.14,1,1,0,0,1-.5.59,2.79,2.79,0,0,1-2.5,0,1.12,1.12,0,0,1-.44-.42.36.36,0,0,1,0-.09l0-.09a.49.49,0,0,1,0-.12h0l.28-5.87h3Z" transform="translate(-151.65 -77.25)" style="fill:url(#_ÂÁ_Ï_ÌÌ_È_ËÂÌÚ_743)"/><path d="M180,81.5a2.32,2.32,0,0,1-2.1,0l-.12-.08h0c-.46-.34-.42-.83.11-1.13a2.29,2.29,0,0,1,2.1,0l.14.09h0C180.56,80.72,180.52,81.2,180,81.5Z" transform="translate(-151.65 -77.25)" style="fill:#5ec1ff"/><path d="M179.85,81.44a2.2,2.2,0,0,1-2,0l-.11-.08h0c-.43-.31-.4-.77.11-1.06a2.2,2.2,0,0,1,2,0l.12.09h0C180.39,80.7,180.35,81.15,179.85,81.44Z" transform="translate(-151.65 -77.25)" style="fill:#40b6ff"/><path d="M179.22,81.15A1.6,1.6,0,0,1,178,81L178,81h0c-.21-.16-.19-.39.06-.53a1.06,1.06,0,0,1,1,0l.07,0h0C179.29,80.66,179.47,81,179.22,81.15Z" transform="translate(-151.65 -77.25)" style="fill:#65b7d3;mix-blend-mode:multiply"/><path d="M179.63,80.47h-1.39v.36h0a.34.34,0,0,0,.2.28,1.11,1.11,0,0,0,1,0,.33.33,0,0,0,.2-.29h0Z" transform="translate(-151.65 -77.25)" style="fill:url(#_ÂÁ_Ï_ÌÌ_È_ËÂÌÚ_623-2)"/><path d="M179.43,80.75a1.08,1.08,0,0,1-1,0,.1.1,0,0,1-.05,0h0c-.22-.15-.2-.38.05-.53a1.08,1.08,0,0,1,1,0l.06,0h0C179.7,80.38,179.68,80.61,179.43,80.75Z" transform="translate(-151.65 -77.25)" style="fill:#fff"/><path d="M179.39,80.73a1,1,0,0,1-.95,0l-.06,0h0c-.21-.15-.19-.37.05-.51a1,1,0,0,1,.95,0,.09.09,0,0,1,.06,0h0C179.64,80.37,179.63,80.59,179.39,80.73Z" transform="translate(-151.65 -77.25)" style="fill:#fdfdfd"/><path d="M179.27,80.65a.79.79,0,0,1-.67,0l0,0h0c-.15-.11-.13-.26,0-.36a.72.72,0,0,1,.67,0l0,0h0C179.46,80.39,179.44,80.55,179.27,80.65Z" transform="translate(-151.65 -77.25)" style="fill:url(#_ÂÁ_Ï_ÌÌ_È_ËÂÌÚ_622-2)"/><path d="M179.27,80.65a.79.79,0,0,1-.67,0l0,0c.62,0,.76-.33.76-.33h0C179.46,80.39,179.44,80.55,179.27,80.65Z" transform="translate(-151.65 -77.25)" style="fill:#886572;mix-blend-mode:multiply"/><path d="M176.74,89.79h-4.6v.69h0a1.17,1.17,0,0,0,.68.94,3.58,3.58,0,0,0,3.25,0,1.14,1.14,0,0,0,.67-.94h0Z" transform="translate(-151.65 -77.25)" style="fill:url(#_ÂÁ_Ï_ÌÌ_È_ËÂÌÚ_875-20)"/><path d="M176.07,90.73a3.58,3.58,0,0,1-3.25,0,1.18,1.18,0,0,1-.18-.13h0a1.38,1.38,0,0,1-.28-.25c-.4-.49-.25-1.09.44-1.49h0a3.55,3.55,0,0,1,3.25,0l.21.13h0C177,89.52,176.89,90.26,176.07,90.73Z" transform="translate(-151.65 -77.25)" style="fill:#686868"/><path d="M175.7,90.47a3,3,0,0,1-2.69,0l-.16-.1h0c-.59-.44-.54-1.06.15-1.46a3,3,0,0,1,2.69,0,.78.78,0,0,1,.18.11h0C176.44,89.46,176.38,90.08,175.7,90.47Z" transform="translate(-151.65 -77.25)" style="fill:#403e39"/><path d="M174.4,89l-1,1.69-1-.29c-.4-.49-.25-1.09.44-1.49Z" transform="translate(-151.65 -77.25)" style="fill:#403e39"/><path d="M176.21,89.55a.57.57,0,0,1,0,.13,1,1,0,0,1-.5.59,2.75,2.75,0,0,1-2.5,0,1.1,1.1,0,0,1-.45-.43s0,0,0-.08a.44.44,0,0,1,0-.1.41.41,0,0,1,0-.11h0l.23-5.08.06-.79h3l0,.57h0Z" transform="translate(-151.65 -77.25)" style="fill:url(#_ÂÁ_Ï_ÌÌ_È_ËÂÌÚ_6)"/><path d="M175.49,84.29a2.3,2.3,0,0,1-2.09,0,.36.36,0,0,1-.12-.08h0c-.45-.33-.42-.82.12-1.13a2.32,2.32,0,0,1,2.1,0,.38.38,0,0,1,.13.09h0C176.07,83.5,176,84,175.49,84.29Z" transform="translate(-151.65 -77.25)" style="fill:#7dcf63"/><path d="M175.36,84.23a2.17,2.17,0,0,1-2,0,.41.41,0,0,1-.11-.07h0c-.43-.32-.39-.77.11-1.07a2.17,2.17,0,0,1,2,0,.57.57,0,0,1,.13.08h0C175.9,83.49,175.86,83.94,175.36,84.23Z" transform="translate(-151.65 -77.25)" style="fill:#6bcf4b"/><path d="M174.73,83.93a1.55,1.55,0,0,1-1.19-.12l-.06,0h0c-.22-.16-.2-.39.05-.54a1.11,1.11,0,0,1,1,0l.06,0h0C174.79,83.45,175,83.79,174.73,83.93Z" transform="translate(-151.65 -77.25)" style="fill:#78a360;mix-blend-mode:multiply"/><path d="M175.14,83.25h-1.4v.37h0a.35.35,0,0,0,.21.28,1.08,1.08,0,0,0,1,0,.35.35,0,0,0,.2-.28h0Z" transform="translate(-151.65 -77.25)" style="fill:url(#_ÂÁ_Ï_ÌÌ_È_ËÂÌÚ_623-3)"/><path d="M174.94,83.54a1.11,1.11,0,0,1-1,0l-.06,0h0c-.21-.16-.2-.39.06-.53a1.06,1.06,0,0,1,1,0l.07,0h0C175.21,83.17,175.19,83.39,174.94,83.54Z" transform="translate(-151.65 -77.25)" style="fill:#fff"/><path d="M174.89,83.51a1.06,1.06,0,0,1-.95,0,.1.1,0,0,1-.05,0h0c-.21-.15-.19-.37.05-.51a1.06,1.06,0,0,1,.95,0l.06,0h0C175.15,83.16,175.13,83.37,174.89,83.51Z" transform="translate(-151.65 -77.25)" style="fill:#fdfdfd"/><path d="M174.78,83.43a.72.72,0,0,1-.67,0l0,0h0a.2.2,0,0,1,0-.37.77.77,0,0,1,.68,0l0,0h0C175,83.18,175,83.33,174.78,83.43Z" transform="translate(-151.65 -77.25)" style="fill:url(#_ÂÁ_Ï_ÌÌ_È_ËÂÌÚ_622-3)"/><path d="M174.78,83.43a.72.72,0,0,1-.67,0l0,0c.62,0,.75-.34.75-.34h0C175,83.18,175,83.33,174.78,83.43Z" transform="translate(-151.65 -77.25)" style="fill:#886572;mix-blend-mode:multiply"/><path d="M186.44,87.51h-4.6v.69h0a1.14,1.14,0,0,0,.68.93,3.58,3.58,0,0,0,3.25,0,1.11,1.11,0,0,0,.66-.94h0Z" transform="translate(-151.65 -77.25)" style="fill:url(#_ÂÁ_Ï_ÌÌ_È_ËÂÌÚ_875-21)"/><path d="M185.77,88.45a3.61,3.61,0,0,1-3.25,0l-.19-.12h0a1.34,1.34,0,0,1-.27-.26c-.4-.49-.25-1.08.43-1.49h0a3.61,3.61,0,0,1,3.25,0l.21.14h0C186.65,87.23,186.58,88,185.77,88.45Z" transform="translate(-151.65 -77.25)" style="fill:#686868"/><path d="M185.4,88.19a3,3,0,0,1-2.7,0l-.15-.1h0c-.59-.43-.54-1.06.14-1.45a3,3,0,0,1,2.7,0l.17.12h0C186.13,87.18,186.08,87.8,185.4,88.19Z" transform="translate(-151.65 -77.25)" style="fill:#403e39"/><path d="M184.09,86.66l-1,1.7-1-.3c-.4-.49-.25-1.08.43-1.49Z" transform="translate(-151.65 -77.25)" style="fill:#403e39"/><path d="M185.9,87.26a.66.66,0,0,1,0,.14,1,1,0,0,1-.5.59,2.79,2.79,0,0,1-2.5,0,1.12,1.12,0,0,1-.44-.42.36.36,0,0,1,0-.09l0-.09a.49.49,0,0,1,0-.12h0l.28-6.37h3Z" transform="translate(-151.65 -77.25)" style="fill:url(#_ÂÁ_Ï_ÌÌ_È_ËÂÌÚ_8)"/><path d="M185.19,81.5a2.32,2.32,0,0,1-2.1,0l-.12-.08h0c-.46-.34-.42-.83.11-1.13a2.29,2.29,0,0,1,2.1,0l.14.09h0C185.76,80.72,185.72,81.2,185.19,81.5Z" transform="translate(-151.65 -77.25)" style="fill:#638196"/><path d="M185.05,81.44a2.2,2.2,0,0,1-2,0l-.11-.08h0c-.43-.31-.4-.77.11-1.06a2.2,2.2,0,0,1,2,0l.12.09h0C185.59,80.7,185.55,81.15,185.05,81.44Z" transform="translate(-151.65 -77.25)" style="fill:#537286"/><path d="M184.42,81.15a1.6,1.6,0,0,1-1.19-.12l-.06,0h0c-.21-.16-.19-.39.06-.53a1.06,1.06,0,0,1,1,0l.07,0h0C184.49,80.66,184.67,81,184.42,81.15Z" transform="translate(-151.65 -77.25)" style="fill:#5a798d;mix-blend-mode:multiply"/><path d="M184.83,80.47h-1.39v.36h0a.34.34,0,0,0,.2.28,1.11,1.11,0,0,0,1,0,.33.33,0,0,0,.2-.29h0Z" transform="translate(-151.65 -77.25)" style="fill:url(#_ÂÁ_Ï_ÌÌ_È_ËÂÌÚ_623-4)"/><path d="M184.63,80.75a1.08,1.08,0,0,1-1,0l0,0h0c-.22-.15-.2-.38,0-.53a1.08,1.08,0,0,1,1,0l.06,0h0C184.9,80.38,184.88,80.61,184.63,80.75Z" transform="translate(-151.65 -77.25)" style="fill:#fff"/><path d="M184.59,80.73a1,1,0,0,1-1,0l-.06,0h0c-.21-.15-.19-.37,0-.51a1,1,0,0,1,1,0,.09.09,0,0,1,.06,0h0C184.85,80.37,184.83,80.59,184.59,80.73Z" transform="translate(-151.65 -77.25)" style="fill:#fdfdfd"/><path d="M184.47,80.65a.79.79,0,0,1-.67,0l0,0h0c-.15-.11-.13-.26,0-.36a.72.72,0,0,1,.67,0l.05,0h0C184.66,80.39,184.64,80.55,184.47,80.65Z" transform="translate(-151.65 -77.25)" style="fill:url(#_ÂÁ_Ï_ÌÌ_È_ËÂÌÚ_622-4)"/><path d="M184.47,80.65a.79.79,0,0,1-.67,0l0,0c.62,0,.76-.33.76-.33h0C184.66,80.39,184.64,80.55,184.47,80.65Z" transform="translate(-151.65 -77.25)" style="fill:#886572;mix-blend-mode:multiply"/><path d="M181.94,90.29h-4.6V91h0a1.17,1.17,0,0,0,.68.94,3.58,3.58,0,0,0,3.25,0,1.13,1.13,0,0,0,.67-.94h0Z" transform="translate(-151.65 -77.25)" style="fill:url(#_ÂÁ_Ï_ÌÌ_È_ËÂÌÚ_875-22)"/><path d="M181.27,91.23a3.58,3.58,0,0,1-3.25,0,1.18,1.18,0,0,1-.18-.13h0a1.38,1.38,0,0,1-.28-.25c-.4-.49-.25-1.09.44-1.49h0a3.58,3.58,0,0,1,3.25,0,1.1,1.1,0,0,1,.21.14h0C182.16,90,182.09,90.76,181.27,91.23Z" transform="translate(-151.65 -77.25)" style="fill:#686868"/><path d="M180.9,91a3,3,0,0,1-2.69,0l-.16-.1h0c-.59-.44-.54-1.06.15-1.46a3,3,0,0,1,2.69,0,.78.78,0,0,1,.18.11h0C181.64,90,181.58,90.58,180.9,91Z" transform="translate(-151.65 -77.25)" style="fill:#403e39"/><path d="M179.6,89.45l-1,1.69-1-.29c-.4-.49-.25-1.09.44-1.49Z" transform="translate(-151.65 -77.25)" style="fill:#403e39"/><path d="M181.41,90.05a.57.57,0,0,1,0,.13,1,1,0,0,1-.5.59,2.75,2.75,0,0,1-2.5,0,1.1,1.1,0,0,1-.45-.43s0,0,0-.08a.44.44,0,0,1,0-.1.41.41,0,0,1,0-.11h0l.29-6.37h3Z" transform="translate(-151.65 -77.25)" style="fill:url(#_ÂÁ_Ï_ÌÌ_È_ËÂÌÚ_779)"/><path d="M180.7,84.29a2.32,2.32,0,0,1-2.1,0,.36.36,0,0,1-.12-.08h0c-.45-.33-.42-.82.12-1.13a2.32,2.32,0,0,1,2.1,0,.38.38,0,0,1,.13.09h0C181.27,83.5,181.22,84,180.7,84.29Z" transform="translate(-151.65 -77.25)" style="fill:#ffa759"/><path d="M180.56,84.23a2.17,2.17,0,0,1-2,0,.41.41,0,0,1-.11-.07h0c-.43-.32-.39-.77.11-1.07a2.17,2.17,0,0,1,2,0,.57.57,0,0,1,.13.08h0C181.1,83.49,181.06,83.94,180.56,84.23Z" transform="translate(-151.65 -77.25)" style="fill:#ff973b"/><path d="M179.93,83.93a1.55,1.55,0,0,1-1.19-.12l-.06,0h0c-.22-.16-.2-.39,0-.54a1.11,1.11,0,0,1,1,0s.05,0,.06,0h0C180,83.45,180.18,83.79,179.93,83.93Z" transform="translate(-151.65 -77.25)" style="fill:#df9966;mix-blend-mode:multiply"/><path d="M180.34,83.25h-1.4v.37h0a.35.35,0,0,0,.21.28,1.08,1.08,0,0,0,1,0,.35.35,0,0,0,.2-.28h0Z" transform="translate(-151.65 -77.25)" style="fill:url(#_ÂÁ_Ï_ÌÌ_È_ËÂÌÚ_623-5)"/><path d="M180.14,83.54a1.11,1.11,0,0,1-1,0l-.06,0h0c-.21-.16-.2-.39.06-.53a1.06,1.06,0,0,1,1,0l.07,0h0C180.41,83.17,180.39,83.39,180.14,83.54Z" transform="translate(-151.65 -77.25)" style="fill:#fff"/><path d="M180.09,83.51a1.06,1.06,0,0,1-1,0,.1.1,0,0,1,0,0h0c-.21-.15-.19-.37,0-.51a1.06,1.06,0,0,1,1,0l.06,0h0C180.35,83.16,180.33,83.37,180.09,83.51Z" transform="translate(-151.65 -77.25)" style="fill:#fdfdfd"/><path d="M180,83.43a.72.72,0,0,1-.67,0l0,0h0a.2.2,0,0,1,0-.37.77.77,0,0,1,.68,0l0,0h0C180.16,83.18,180.15,83.33,180,83.43Z" transform="translate(-151.65 -77.25)" style="fill:url(#_ÂÁ_Ï_ÌÌ_È_ËÂÌÚ_622-5)"/><path d="M180,83.43a.72.72,0,0,1-.67,0l0,0c.62,0,.75-.34.75-.34h0C180.16,83.18,180.15,83.33,180,83.43Z" transform="translate(-151.65 -77.25)" style="fill:#886572;mix-blend-mode:multiply"/><polygon points="33.4 48.73 33.15 49.21 33.15 49.8 44.69 43.31 45.63 42.48 34.11 49.13 33.4 48.73" style="fill:#a26f4a"/><path d="M184,102.78a.87.87,0,0,1,.3,1,.46.46,0,0,1-.74.22.87.87,0,0,1-.3-1A.47.47,0,0,1,184,102.78Z" transform="translate(-151.65 -77.25)" style="fill:#689b31"/><path d="M183.84,103a.53.53,0,0,1,.18.59.29.29,0,0,1-.46.14.54.54,0,0,1-.18-.6A.28.28,0,0,1,183.84,103Z" transform="translate(-151.65 -77.25)" style="fill:#86c95a"/><path d="M187.31,101.2a.87.87,0,0,1,.31,1,.47.47,0,0,1-.74.22.88.88,0,0,1-.31-1A.46.46,0,0,1,187.31,101.2Z" transform="translate(-151.65 -77.25)" style="fill:#689b31"/><path d="M187.11,101.45a.56.56,0,0,1,.19.6.29.29,0,0,1-.46.14.56.56,0,0,1-.19-.6A.29.29,0,0,1,187.11,101.45Z" transform="translate(-151.65 -77.25)" style="fill:#86c95a"/><path d="M190.12,99.74a.87.87,0,0,1,.3,1,.46.46,0,0,1-.74.22.85.85,0,0,1-.3-1A.46.46,0,0,1,190.12,99.74Z" transform="translate(-151.65 -77.25)" style="fill:#689b31"/><path d="M189.91,100a.54.54,0,0,1,.19.6.28.28,0,0,1-.46.13.54.54,0,0,1-.19-.59A.28.28,0,0,1,189.91,100Z" transform="translate(-151.65 -77.25)" style="fill:#86c95a"/><path d="M192.86,98.18a.89.89,0,0,1,.3,1,.46.46,0,0,1-.74.22.88.88,0,0,1-.31-1A.48.48,0,0,1,192.86,98.18Z" transform="translate(-151.65 -77.25)" style="fill:#689b31"/><path d="M192.65,98.44a.52.52,0,0,1,.19.59.29.29,0,0,1-.46.14.56.56,0,0,1-.19-.6A.29.29,0,0,1,192.65,98.44Z" transform="translate(-151.65 -77.25)" style="fill:#86c95a"/><polygon points="21.81 26.98 26.38 29.62 26.38 32.18 21.81 29.54 21.81 26.98" style="fill:#e9eaeb"/><polygon points="21.81 25.9 26.38 28.54 26.38 29.62 21.81 26.98 21.81 25.9" style="fill:#efc42f"/><polygon points="22.61 26.71 25.57 28.42 25.57 28.7 22.61 26.99 22.61 26.71" style="fill:#84878b"/><polygon points="25.51 29.45 26.08 31.53 24.85 30.82 25.51 29.45" style="fill:#efc42f"/><polygon points="24.58 28.58 24.58 31.14 24.44 31.06 24.44 28.5 24.58 28.58" style="fill:#84878b"/><polygon points="15.77 53.65 18.45 55.2 18.45 21.77 15.77 20.22 15.77 53.65" style="fill:#b28b64"/><polygon points="20.22 54.19 18.45 55.2 18.45 21.77 20.22 20.75 20.22 54.19" style="fill:#d8cfb6"/><polygon points="20.22 20.75 18.45 21.77 15.77 20.22 17.53 19.2 20.22 20.75" style="fill:#555553"/><path d="M169.27,91.5l-1.52.9a3.11,3.11,0,0,0-1.52,2.67v3.85l3.11,1.8,3-7.42Z" transform="translate(-151.65 -77.25)" style="fill:#c9aa7e"/><path d="M172.38,98.92l-3,1.8V96.87a3.09,3.09,0,0,1,1.53-2.67l1.51-.9Z" transform="translate(-151.65 -77.25)" style="fill:#e5dfcf"/><polygon points="61.65 49.97 67.2 46.76 81.72 55.15 76.17 58.35 61.65 49.97" style="fill:#b0b4b5"/><polygon points="72.32 53.15 67.16 53.15 63.08 50.8 70.78 50.8 72.32 53.15" style="fill:#898386"/><polygon points="61.26 51.3 76.43 60.07 76.17 58.35 61.65 49.97 61.26 51.3" style="fill:#494f55"/><polygon points="76.17 58.35 76.43 60.07 81.99 56.86 81.72 55.15 76.17 58.35" style="fill:#898d86"/><polygon points="71.13 21.59 71.49 21.39 71.49 51.45 71.13 51.65 71.13 21.59" style="fill:#babfbe"/><polygon points="69.48 51.51 70.42 52.06 70.42 22 69.48 21.46 69.48 51.51" style="fill:#899593"/><polygon points="70.42 22 70.78 21.8 70.78 51.85 70.42 52.06 70.42 22" style="fill:#babfbe"/><polygon points="70.78 51.85 71.72 52.4 71.72 22.34 70.78 21.8 70.78 51.85" style="fill:#9da7a5"/><polygon points="71.37 22.55 71.72 22.34 71.72 52.4 71.37 52.6 71.37 22.55" style="fill:#8f9795"/><polygon points="72.32 23.1 72.32 53.15 73.38 52.54 73.38 22.48 72.32 23.1" style="fill:#babfbe"/><polygon points="73.38 22.48 72.43 21.94 72.08 22.14 71.13 21.59 71.49 21.39 70.54 20.84 69.83 21.25 69.83 21.25 69.48 21.46 70.42 22 70.78 21.8 70.78 21.8 71.72 22.34 71.37 22.55 72.32 23.1 72.67 22.89 72.67 22.89 73.38 22.48" style="fill:#c6d1cf"/><polygon points="63.6 41.67 63.6 31.9 41.74 44.52 41.74 54.29 63.6 41.67" style="fill:url(#_ÂÁ_Ï_ÌÌ_È_ËÂÌÚ_133)"/><path d="M223.19,103.43a.33.33,0,0,1-.13.3h0l-6.75,3.78a.31.31,0,0,1-.34,0,1,1,0,0,1-.48-.81.33.33,0,0,1,.13-.3h0l6.75-3.79h0a.34.34,0,0,1,.33,0A1,1,0,0,1,223.19,103.43Z" transform="translate(-151.65 -77.25)" style="fill:url(#_ÂÁ_Ï_ÌÌ_È_ËÂÌÚ_3)"/><path d="M215.48,106.69a1,1,0,0,0,.47.81c.26.14.46,0,.46-.27a1,1,0,0,0-.46-.81C215.69,106.27,215.48,106.39,215.48,106.69Z" transform="translate(-151.65 -77.25)" style="fill:#f3f4f4"/><path d="M215.5,106.75a.91.91,0,0,0,.43.73c.23.14.43,0,.43-.24a1,1,0,0,0-.43-.74C215.69,106.37,215.5,106.48,215.5,106.75Z" transform="translate(-151.65 -77.25)" style="fill:#e4e5e5"/><path d="M219.34,108.08a6.24,6.24,0,0,0-2.83-4.88,2,2,0,0,0-2-.17h0l-.57.38,4,6.88.45-.22a1.79,1.79,0,0,0,.34-.22h0A2.35,2.35,0,0,0,219.34,108.08Z" transform="translate(-151.65 -77.25)" style="fill:url(#_ÂÁ_Ï_ÌÌ_È_ËÂÌÚ_152)"/><path d="M213.16,105.17A6.21,6.21,0,0,0,216,110c1.56.91,2.83.18,2.83-1.61a6.23,6.23,0,0,0-2.83-4.87C214.42,102.66,213.16,103.38,213.16,105.17Z" transform="translate(-151.65 -77.25)" style="fill:#b18961"/><path d="M217.59,108a4.49,4.49,0,0,0-2-3.53,1.43,1.43,0,0,0-1.47-.13h0L192.16,117l2.9,5,21.83-12.61a.82.82,0,0,0,.25-.16h0A1.7,1.7,0,0,0,217.59,108Z" transform="translate(-151.65 -77.25)" style="fill:url(#_ÂÁ_Ï_ÌÌ_È_ËÂÌÚ_135)"/><path d="M191.61,118.32a4.52,4.52,0,0,0,2,3.53c1.13.65,2,.13,2-1.17a4.51,4.51,0,0,0-2-3.53C192.53,116.5,191.61,117,191.61,118.32Z" transform="translate(-151.65 -77.25)" style="fill:#b18961"/><path d="M196.75,121a6.23,6.23,0,0,0-2.83-4.87,2,2,0,0,0-2-.18h0l-.57.37,4,6.88.45-.22a1,1,0,0,0,.34-.22h0A2.33,2.33,0,0,0,196.75,121Z" transform="translate(-151.65 -77.25)" style="fill:url(#_ÂÁ_Ï_ÌÌ_È_ËÂÌÚ_152-2)"/><ellipse cx="193.39" cy="119.68" rx="2.3" ry="3.98" transform="translate(-185.62 36.71) rotate(-30.31)" style="fill:#b18961"/><path d="M191.8,118.76a3.52,3.52,0,0,0,1.59,2.74c.88.51,1.59.1,1.59-.91a3.51,3.51,0,0,0-1.59-2.74C192.52,117.35,191.8,117.75,191.8,118.76Z" transform="translate(-151.65 -77.25)" style="fill:#9a4232"/><path d="M194.16,120.07a.58.58,0,0,1-.23.53h0l-.31.18a.6.6,0,0,1-.6-.05,1.82,1.82,0,0,1-.82-1.42.59.59,0,0,1,.22-.51h0l.31-.17,0,0a.57.57,0,0,1,.57.06A1.78,1.78,0,0,1,194.16,120.07Z" transform="translate(-151.65 -77.25)" style="fill:url(#_ÂÁ_Ï_ÌÌ_È_ËÂÌÚ_3-2)"/><path d="M192.18,119.35a1.77,1.77,0,0,0,.81,1.39c.44.26.81.05.81-.46a1.78,1.78,0,0,0-.81-1.39C192.54,118.63,192.18,118.84,192.18,119.35Z" transform="translate(-151.65 -77.25)" style="fill:#f3f4f4"/><path d="M192.22,119.45a1.64,1.64,0,0,0,.74,1.27c.4.24.73,0,.73-.42A1.66,1.66,0,0,0,193,119C192.55,118.79,192.22,119,192.22,119.45Z" transform="translate(-151.65 -77.25)" style="fill:#e4e5e5"/><path d="M193.36,120.15a.31.31,0,0,1-.14.3h0l-6.74,3.79a.35.35,0,0,1-.35,0,1,1,0,0,1-.47-.82.35.35,0,0,1,.12-.3h0l6.74-3.79h0a.33.33,0,0,1,.34,0A1,1,0,0,1,193.36,120.15Z" transform="translate(-151.65 -77.25)" style="fill:url(#_ÂÁ_Ï_ÌÌ_È_ËÂÌÚ_3-3)"/><path d="M185.65,123.41a1,1,0,0,0,.46.8c.26.15.47,0,.47-.26a1,1,0,0,0-.47-.81C185.85,123,185.65,123.11,185.65,123.41Z" transform="translate(-151.65 -77.25)" style="fill:#f3f4f4"/><path d="M185.67,123.46a1,1,0,0,0,.42.74c.24.14.43,0,.43-.24a1,1,0,0,0-.43-.74C185.86,123.08,185.67,123.19,185.67,123.46Z" transform="translate(-151.65 -77.25)" style="fill:#e4e5e5"/><polygon points="63.6 50.14 63.6 40.37 41.74 52.99 41.74 62.76 63.6 50.14" style="fill:url(#_ÂÁ_Ï_ÌÌ_È_ËÂÌÚ_111)"/><path d="M223.19,111.9a.33.33,0,0,1-.13.3h0L216.3,116a.31.31,0,0,1-.34,0,1,1,0,0,1-.48-.82.32.32,0,0,1,.13-.29h0l6.75-3.79h0a.34.34,0,0,1,.33,0A1,1,0,0,1,223.19,111.9Z" transform="translate(-151.65 -77.25)" style="fill:url(#_ÂÁ_Ï_ÌÌ_È_ËÂÌÚ_3-4)"/><path d="M215.48,115.16a1,1,0,0,0,.47.8c.26.15.46,0,.46-.26a1,1,0,0,0-.46-.81C215.69,114.74,215.48,114.86,215.48,115.16Z" transform="translate(-151.65 -77.25)" style="fill:#f3f4f4"/><path d="M215.5,115.22a.91.91,0,0,0,.43.73c.23.14.43,0,.43-.24a1,1,0,0,0-.43-.74C215.69,114.84,215.5,114.94,215.5,115.22Z" transform="translate(-151.65 -77.25)" style="fill:#e4e5e5"/><path d="M219.34,116.55a6.24,6.24,0,0,0-2.83-4.88,2,2,0,0,0-2-.18h0l-.57.38,4,6.88.45-.22a1.79,1.79,0,0,0,.34-.22h0A2.32,2.32,0,0,0,219.34,116.55Z" transform="translate(-151.65 -77.25)" style="fill:url(#_ÂÁ_Ï_ÌÌ_È_ËÂÌÚ_152-3)"/><path d="M213.16,113.64a6.21,6.21,0,0,0,2.82,4.87c1.56.9,2.83.18,2.83-1.61A6.23,6.23,0,0,0,216,112C214.42,111.13,213.16,111.85,213.16,113.64Z" transform="translate(-151.65 -77.25)" style="fill:#b18961"/><path d="M217.59,116.43a4.49,4.49,0,0,0-2-3.52,1.4,1.4,0,0,0-1.47-.13h0l-21.92,12.73,2.9,5,21.83-12.61a.82.82,0,0,0,.25-.16h0A1.71,1.71,0,0,0,217.59,116.43Z" transform="translate(-151.65 -77.25)" style="fill:url(#_ÂÁ_Ï_ÌÌ_È_ËÂÌÚ_134)"/><path d="M191.61,126.79a4.5,4.5,0,0,0,2,3.52c1.13.66,2,.13,2-1.16a4.51,4.51,0,0,0-2-3.53C192.53,125,191.61,125.49,191.61,126.79Z" transform="translate(-151.65 -77.25)" style="fill:#b18961"/><path d="M196.75,129.42a6.23,6.23,0,0,0-2.83-4.87,2,2,0,0,0-2-.18h0l-.57.37,4,6.88.45-.22a1,1,0,0,0,.34-.22h0A2.33,2.33,0,0,0,196.75,129.42Z" transform="translate(-151.65 -77.25)" style="fill:url(#_ÂÁ_Ï_ÌÌ_È_ËÂÌÚ_152-4)"/><path d="M190.57,126.51a6.22,6.22,0,0,0,2.82,4.88c1.56.9,2.83.18,2.83-1.61a6.24,6.24,0,0,0-2.83-4.88C191.83,124,190.57,124.72,190.57,126.51Z" transform="translate(-151.65 -77.25)" style="fill:#b18961"/><path d="M191.8,127.23a3.52,3.52,0,0,0,1.59,2.74c.88.51,1.59.1,1.59-.91a3.51,3.51,0,0,0-1.59-2.74C192.52,125.82,191.8,126.22,191.8,127.23Z" transform="translate(-151.65 -77.25)" style="fill:#9a4232"/><path d="M194.16,128.54a.6.6,0,0,1-.23.53h0l-.31.17a.57.57,0,0,1-.6,0,1.82,1.82,0,0,1-.82-1.42.59.59,0,0,1,.22-.51h0l.31-.17,0,0a.55.55,0,0,1,.57.06A1.78,1.78,0,0,1,194.16,128.54Z" transform="translate(-151.65 -77.25)" style="fill:url(#_ÂÁ_Ï_ÌÌ_È_ËÂÌÚ_3-5)"/><path d="M192.18,127.82a1.77,1.77,0,0,0,.81,1.39c.44.26.81,0,.81-.46a1.78,1.78,0,0,0-.81-1.39C192.54,127.1,192.18,127.31,192.18,127.82Z" transform="translate(-151.65 -77.25)" style="fill:#f3f4f4"/><path d="M192.22,127.91a1.64,1.64,0,0,0,.74,1.28c.4.23.73.05.73-.42a1.66,1.66,0,0,0-.73-1.28C192.55,127.26,192.22,127.45,192.22,127.91Z" transform="translate(-151.65 -77.25)" style="fill:#e4e5e5"/><path d="M193.36,128.61a.33.33,0,0,1-.14.31h0l-6.74,3.79a.35.35,0,0,1-.35,0,1,1,0,0,1-.47-.82.35.35,0,0,1,.12-.3h0l6.74-3.79h0a.33.33,0,0,1,.34,0A1,1,0,0,1,193.36,128.61Z" transform="translate(-151.65 -77.25)" style="fill:url(#_ÂÁ_Ï_ÌÌ_È_ËÂÌÚ_3-6)"/><path d="M185.65,131.88a1,1,0,0,0,.46.8c.26.15.47,0,.47-.27a1,1,0,0,0-.47-.8C185.85,131.46,185.65,131.58,185.65,131.88Z" transform="translate(-151.65 -77.25)" style="fill:#f3f4f4"/><path d="M185.67,131.93a1,1,0,0,0,.42.74c.24.14.43,0,.43-.24a.93.93,0,0,0-.43-.74C185.86,131.55,185.67,131.66,185.67,131.93Z" transform="translate(-151.65 -77.25)" style="fill:#e4e5e5"/><polygon points="63.62 58.93 63.62 49.16 41.76 61.78 41.76 71.55 63.62 58.93" style="fill:url(#_ÂÁ_Ï_ÌÌ_È_ËÂÌÚ_93)"/><path d="M223.21,120.69a.33.33,0,0,1-.13.3h0l-6.75,3.78a.31.31,0,0,1-.34,0,1,1,0,0,1-.48-.82.32.32,0,0,1,.13-.29h0l6.75-3.79h0a.32.32,0,0,1,.33,0A1,1,0,0,1,223.21,120.69Z" transform="translate(-151.65 -77.25)" style="fill:url(#_ÂÁ_Ï_ÌÌ_È_ËÂÌÚ_3-7)"/><path d="M215.5,124a1,1,0,0,0,.47.8c.26.15.46,0,.46-.26a1,1,0,0,0-.46-.81C215.71,123.53,215.5,123.65,215.5,124Z" transform="translate(-151.65 -77.25)" style="fill:#f3f4f4"/><path d="M215.52,124a.92.92,0,0,0,.43.74c.23.14.43,0,.43-.24a1,1,0,0,0-.43-.74C215.71,123.62,215.52,123.73,215.52,124Z" transform="translate(-151.65 -77.25)" style="fill:#e4e5e5"/><path d="M219.36,125.34a6.23,6.23,0,0,0-2.83-4.88,2,2,0,0,0-2-.18h0l-.57.38,4,6.88.45-.22a1.79,1.79,0,0,0,.34-.22h0A2.32,2.32,0,0,0,219.36,125.34Z" transform="translate(-151.65 -77.25)" style="fill:url(#_ÂÁ_Ï_ÌÌ_È_ËÂÌÚ_152-5)"/><ellipse cx="216" cy="124.06" rx="2.3" ry="3.98" transform="translate(-184.74 48.72) rotate(-30.31)" style="fill:#b18961"/><path d="M217.61,125.22a4.49,4.49,0,0,0-2-3.52,1.4,1.4,0,0,0-1.47-.13h0L192.18,134.3l2.9,5,21.83-12.62a.64.64,0,0,0,.25-.15h0A1.68,1.68,0,0,0,217.61,125.22Z" transform="translate(-151.65 -77.25)" style="fill:url(#_ÂÁ_Ï_ÌÌ_È_ËÂÌÚ_136)"/><path d="M191.63,135.58a4.5,4.5,0,0,0,2.05,3.52c1.13.65,2,.13,2-1.16a4.49,4.49,0,0,0-2-3.53C192.55,133.76,191.63,134.28,191.63,135.58Z" transform="translate(-151.65 -77.25)" style="fill:#b18961"/><path d="M196.77,138.21a6.23,6.23,0,0,0-2.83-4.87,1.93,1.93,0,0,0-2-.18h0l-.57.37,4,6.88.45-.22a1,1,0,0,0,.34-.22h0A2.33,2.33,0,0,0,196.77,138.21Z" transform="translate(-151.65 -77.25)" style="fill:url(#_ÂÁ_Ï_ÌÌ_È_ËÂÌÚ_152-6)"/><ellipse cx="193.41" cy="136.93" rx="2.3" ry="3.98" transform="translate(-194.32 39.08) rotate(-30.31)" style="fill:#b18961"/><path d="M191.82,136a3.54,3.54,0,0,0,1.59,2.74c.88.5,1.59.1,1.59-.91a3.5,3.5,0,0,0-1.59-2.74C192.54,134.6,191.82,135,191.82,136Z" transform="translate(-151.65 -77.25)" style="fill:#9a4232"/><path d="M194.18,137.33a.6.6,0,0,1-.23.53h0l-.31.17a.57.57,0,0,1-.6,0,1.84,1.84,0,0,1-.82-1.42.59.59,0,0,1,.22-.51h0l.31-.18h0a.55.55,0,0,1,.57.06A1.78,1.78,0,0,1,194.18,137.33Z" transform="translate(-151.65 -77.25)" style="fill:url(#_ÂÁ_Ï_ÌÌ_È_ËÂÌÚ_3-8)"/><path d="M192.2,136.61A1.77,1.77,0,0,0,193,138c.44.25.81.05.81-.46a1.78,1.78,0,0,0-.81-1.39C192.56,135.89,192.2,136.09,192.2,136.61Z" transform="translate(-151.65 -77.25)" style="fill:#f3f4f4"/><path d="M192.24,136.7A1.64,1.64,0,0,0,193,138c.4.23.73,0,.73-.42a1.66,1.66,0,0,0-.73-1.28C192.57,136.05,192.24,136.24,192.24,136.7Z" transform="translate(-151.65 -77.25)" style="fill:#e4e5e5"/><path d="M193.38,137.4a.33.33,0,0,1-.14.31h0l-6.74,3.79a.35.35,0,0,1-.35,0,1,1,0,0,1-.47-.82.34.34,0,0,1,.12-.3h0l6.74-3.78h0a.35.35,0,0,1,.34,0A1,1,0,0,1,193.38,137.4Z" transform="translate(-151.65 -77.25)" style="fill:url(#_ÂÁ_Ï_ÌÌ_È_ËÂÌÚ_3-9)"/><path d="M185.67,140.66a1,1,0,0,0,.46.81c.26.15.47,0,.47-.27a1,1,0,0,0-.47-.8C185.87,140.25,185.67,140.37,185.67,140.66Z" transform="translate(-151.65 -77.25)" style="fill:#f3f4f4"/><path d="M185.69,140.72a1,1,0,0,0,.42.74c.24.13.43,0,.43-.25a.91.91,0,0,0-.43-.73C185.88,140.34,185.69,140.45,185.69,140.72Z" transform="translate(-151.65 -77.25)" style="fill:#e4e5e5"/><polygon points="24.06 71.67 29.61 68.47 44.13 76.85 38.58 80.06 24.06 71.67" style="fill:#b0b4b5"/><polygon points="34.73 74.86 29.57 74.86 25.49 72.5 33.19 72.5 34.73 74.86" style="fill:#898386"/><polygon points="23.66 73.01 38.84 81.77 38.58 80.06 24.06 71.67 23.66 73.01" style="fill:#494f55"/><polygon points="38.58 80.06 38.84 81.77 44.4 78.56 44.13 76.85 38.58 80.06" style="fill:#898d86"/><polygon points="33.54 43.3 33.9 43.09 33.9 73.15 33.54 73.35 33.54 43.3" style="fill:#babfbe"/><polygon points="31.89 73.22 32.83 73.76 32.83 43.71 31.89 43.16 31.89 73.22" style="fill:#899593"/><polygon points="32.83 43.71 33.19 43.5 33.19 73.56 32.83 73.76 32.83 43.71" style="fill:#babfbe"/><polygon points="33.19 73.56 34.13 74.1 34.13 44.05 33.19 43.5 33.19 73.56" style="fill:#9da7a5"/><polygon points="33.78 44.25 34.13 44.05 34.13 74.1 33.78 74.31 33.78 44.25" style="fill:#8f9795"/><polygon points="33.78 74.31 34.73 74.86 34.73 44.8 33.78 44.25 33.78 74.31" style="fill:#899593"/><polygon points="34.73 44.8 34.73 74.86 35.79 74.24 35.79 44.19 34.73 44.8" style="fill:#babfbe"/><polygon points="35.79 44.19 34.84 43.64 34.49 43.84 33.54 43.3 33.9 43.09 32.95 42.55 32.24 42.95 32.24 42.95 31.89 43.16 32.83 43.71 33.19 43.5 33.19 43.5 34.13 44.05 33.78 44.25 34.73 44.8 35.08 44.59 35.08 44.59 35.79 44.19" style="fill:#c6d1cf"/><polygon points="71.37 52.6 72.32 53.15 72.32 23.1 71.37 22.55 71.37 52.6" style="fill:#899593"/></g></g></svg>