<svg xmlns="http://www.w3.org/2000/svg" xmlns:xlink="http://www.w3.org/1999/xlink" viewBox="0 0 80.52 66.09"><defs><linearGradient id="_ÂÁ_Ï_ÌÌ_È_ËÂÌÚ_152" x1="-529.54" y1="91.69" x2="-531.95" y2="87.52" gradientTransform="matrix(-1, 0, 0, 1, -336.66, 0)" gradientUnits="userSpaceOnUse"><stop offset="0.26" stop-color="#c9bd9b"/><stop offset="0.29" stop-color="#d8cfb6"/><stop offset="0.66" stop-color="#d8cfb6"/><stop offset="0.68" stop-color="#e5dfcf"/></linearGradient><linearGradient id="_ÂÁ_Ï_ÌÌ_È_ËÂÌÚ_152-2" x1="-530.47" y1="92.99" x2="-533.52" y2="87.72" xlink:href="#_ÂÁ_Ï_ÌÌ_È_ËÂÌÚ_152"/><linearGradient id="_ÂÁ_Ï_ÌÌ_È_ËÂÌÚ_3" x1="-547.02" y1="92.5" x2="-546.61" y2="92.5" gradientTransform="matrix(-1, 0, 0, 1, -336.66, 0)" gradientUnits="userSpaceOnUse"><stop offset="0.01" stop-color="#7b827f"/><stop offset="0.11" stop-color="#858c8a"/><stop offset="0.28" stop-color="#9fa8a6"/><stop offset="0.39" stop-color="#b2bdbb"/><stop offset="0.39" stop-color="#b6c1bf"/><stop offset="0.4" stop-color="#ccd5d3"/><stop offset="0.41" stop-color="#dde4e2"/><stop offset="0.43" stop-color="#e8efed"/><stop offset="0.45" stop-color="#eff5f3"/><stop offset="0.5" stop-color="#f1f7f5"/><stop offset="0.57" stop-color="#eff5f3"/><stop offset="0.6" stop-color="#e8efed"/><stop offset="0.62" stop-color="#dde5e3"/><stop offset="0.63" stop-color="#ccd6d4"/><stop offset="0.65" stop-color="#b8c4c2"/><stop offset="0.68" stop-color="#afbab8"/><stop offset="0.83" stop-color="#89908e"/><stop offset="0.87" stop-color="#929a97"/><stop offset="0.97" stop-color="#a8b3ae"/></linearGradient><linearGradient id="_ÂÁ_Ï_ÌÌ_È_ËÂÌÚ_639" x1="202.09" y1="91.28" x2="205.29" y2="91.28" gradientUnits="userSpaceOnUse"><stop offset="0.01" stop-color="#7b827f"/><stop offset="0.11" stop-color="#858c8a"/><stop offset="0.28" stop-color="#9fa8a6"/><stop offset="0.39" stop-color="#b2bdbb"/><stop offset="0.57" stop-color="#dee5e3"/><stop offset="0.64" stop-color="#f1f7f5"/><stop offset="0.79" stop-color="#eff5f3"/><stop offset="0.84" stop-color="#e8efed"/><stop offset="0.88" stop-color="#dde4e1"/><stop offset="0.91" stop-color="#ccd4d1"/><stop offset="0.94" stop-color="#b6c0bc"/><stop offset="0.95" stop-color="#a8b3ae"/><stop offset="1" stop-color="#89908e"/></linearGradient><linearGradient id="_ÂÁ_Ï_ÌÌ_È_ËÂÌÚ_596" x1="202.46" y1="89.6" x2="204.92" y2="89.6" gradientUnits="userSpaceOnUse"><stop offset="0" stop-color="#c40700"/><stop offset="0.18" stop-color="#e31510"/><stop offset="0.44" stop-color="#f22421"/><stop offset="0.51" stop-color="#f72927"/><stop offset="0.68" stop-color="#ff3030"/><stop offset="0.85" stop-color="#fc2d2d"/><stop offset="0.98" stop-color="#f42623"/><stop offset="1" stop-color="#f22421"/></linearGradient><linearGradient id="_ÂÁ_Ï_ÌÌ_È_ËÂÌÚ_623" x1="203.2" y1="87.88" x2="204.17" y2="87.88" gradientUnits="userSpaceOnUse"><stop offset="0" stop-color="#a0897f"/><stop offset="0.26" stop-color="#bfaba6"/><stop offset="0.29" stop-color="#cec4c2"/><stop offset="0.66" stop-color="#cec4c2"/><stop offset="0.68" stop-color="#dbdbdb"/></linearGradient><linearGradient id="_ÂÁ_Ï_ÌÌ_È_ËÂÌÚ_622" x1="203.35" y1="87.6" x2="204.02" y2="87.6" gradientUnits="userSpaceOnUse"><stop offset="0.32" stop-color="#dbdbdb"/><stop offset="0.34" stop-color="#cec4c2"/><stop offset="0.71" stop-color="#cec4c2"/><stop offset="0.74" stop-color="#bfaba6"/><stop offset="1" stop-color="#a0897f"/></linearGradient><linearGradient id="_ÂÁ_Ï_ÌÌ_È_ËÂÌÚ_639-2" x1="199.36" y1="90.08" x2="202.56" y2="90.08" xlink:href="#_ÂÁ_Ï_ÌÌ_È_ËÂÌÚ_639"/><linearGradient id="_ÂÁ_Ï_ÌÌ_È_ËÂÌÚ_779" x1="199.73" y1="88.4" x2="202.2" y2="88.4" gradientUnits="userSpaceOnUse"><stop offset="0" stop-color="#d06800"/><stop offset="0.18" stop-color="#ef7d0f"/><stop offset="0.44" stop-color="#fe8a1f"/><stop offset="0.48" stop-color="#fe8b22"/><stop offset="0.68" stop-color="#ff8e2b"/><stop offset="0.86" stop-color="#ff8d28"/><stop offset="1" stop-color="#fe8a1f"/></linearGradient><linearGradient id="_ÂÁ_Ï_ÌÌ_È_ËÂÌÚ_623-2" x1="200.48" y1="86.68" x2="201.45" y2="86.68" xlink:href="#_ÂÁ_Ï_ÌÌ_È_ËÂÌÚ_623"/><linearGradient id="_ÂÁ_Ï_ÌÌ_È_ËÂÌÚ_622-2" x1="200.63" y1="86.4" x2="201.3" y2="86.4" xlink:href="#_ÂÁ_Ï_ÌÌ_È_ËÂÌÚ_622"/></defs><title>logo3</title><g style="isolation:isolate"><g id="_1" data-name="1"><path d="M168.47,94.09s-5.56.21-7.25-1.58.33-1.59.33-1.59-.29-.55,1.93-.83a15.76,15.76,0,0,1,5.17.54Z" transform="translate(-154.29 -78.71)" style="fill:#bcbcbc"/><path d="M168.88,126.1s-1.54,10.65-1.93,11.84-1.77.24-2.09-.65-.53-8.06-.53-8.06Z" transform="translate(-154.29 -78.71)" style="fill:#d1d1d1"/><path d="M164.16,129.75s-1.13,7.82-1,9.26-.67,2.22-1.35,2-1.17-3.06-1.21-3.34a43.29,43.29,0,0,0-.16-4.92c-.26-.71-1-2.78-.8-3.63S164.16,129.75,164.16,129.75Z" transform="translate(-154.29 -78.71)" style="fill:#e8e8e8"/><path d="M167.29,137.07a4.53,4.53,0,0,1,.75,1.14,3.54,3.54,0,0,0,1.1,1.29c.21.12.72.11.93.76s-.08,1.68-.64,1.85a1.94,1.94,0,0,1-1.75-.25c-.6-.43-1-1.44-1.23-1.61a10.72,10.72,0,0,1-2-1.4,8.69,8.69,0,0,1,0-1.47l.59-1.29Z" transform="translate(-154.29 -78.71)" style="fill:#d1d1d1"/><path d="M165.74,137.15c0,.39-.16.71-.38.72s-.43-.29-.44-.68.15-.71.38-.72S165.72,136.77,165.74,137.15Z" transform="translate(-154.29 -78.71)" style="fill:#626b6c"/><path d="M163.28,138.12l.67,2.14s1.86,2.9,2,3.17-.08,1-.8,1.22a2.8,2.8,0,0,1-2.39-.23,10.47,10.47,0,0,1-1.19-2.27l-.66-1.45-.21-1.57.22-1.53Z" transform="translate(-154.29 -78.71)" style="fill:#e8e8e8"/><path d="M161.75,138.48c0,.42-.16.77-.41.78s-.46-.32-.48-.74.17-.77.42-.78S161.73,138.06,161.75,138.48Z" transform="translate(-154.29 -78.71)" style="fill:#626b6c"/><path d="M156.76,119.19a32.26,32.26,0,0,1,.42-7.48,19.56,19.56,0,0,1,.79-2.46c.56-1.51,1.75-4.38,3.78-4.16q1.81.19,3.63.36c1.87.19,3.74.35,5.6.53.51,0,.88,1,1.14,1.38l0,0c1.4,2.1,1.93,4.91,2.28,7.35s.5,4.9.65,7.36l.39,6.23a.87.87,0,0,1-.17.72.74.74,0,0,1-.41.16c-.58.07-1.17-.09-1.74,0-1.65.22-.85,1.78-1.45,2.71a1.92,1.92,0,0,1-2.28.39c-.76-.45-.94-1.21-1.2-1.31s-1.29-.14-1.6.33-.93,1.82-1.58,1.82a4.81,4.81,0,0,1-1.84-.34c-.44-.21-.73-.65-1.18-.84-1.3-.56-2.81.13-3.81-1.28a4.63,4.63,0,0,0-.54-.77,3.2,3.2,0,0,0-1.89-.5c-.36-1.48.17-3,.51-4.49A24.72,24.72,0,0,0,156.76,119.19Z" transform="translate(-154.29 -78.71)" style="fill:#ff2a3b"/><path d="M170.58,90.77a6.14,6.14,0,0,1,2.87,5.35c.07,3.87.21,5,.49,5.3s0,1.16-1.25,2.28-1.4,1.29-2.05.75-2.37-13.8-2.37-13.8Z" transform="translate(-154.29 -78.71)" style="fill:#bcbcbc"/><path d="M172.8,102.54s.71-1.06,1.24-.87,2.38,5.54,3.05,7.15a6.26,6.26,0,0,0,1.68,2.38,1.33,1.33,0,0,1,.27,1.15,9.34,9.34,0,0,0,0,1.74,15.22,15.22,0,0,1-1.29,2.11l-.43-.18s-.45.23-.41-.17a3.19,3.19,0,0,1,.09-.55l.43-.65,0-.65s-.51-1.11-.85-1.74a4.23,4.23,0,0,1-.62-1.45c0-.38-4.15-5.21-4.23-5.59A3.26,3.26,0,0,1,172.8,102.54Z" transform="translate(-154.29 -78.71)" style="fill:#e8e8e8"/><path d="M173,103.28c0,.48-.19.88-.47.89s-.53-.36-.55-.84.19-.88.47-.89S173,102.81,173,103.28Z" transform="translate(-154.29 -78.71)" style="fill:#626b6c"/><path d="M167,89.56a16.08,16.08,0,0,1,3.12.75c.53.23,1.55,3.63,2,4.78a13.5,13.5,0,0,1,.62,2.69c0,1,.29,2.6-.24,3.49-.2.34-.59.53-.82.86a4,4,0,0,0-.59,1.86,7.87,7.87,0,0,0-.15,1.88c0,.37.29.75.3,1.11,0,.66-.44,1-1,1.41a8.19,8.19,0,0,1-4.89,1.23c-1.54,0-3.66-.22-4.63-1.62s-.42-3-.35-4.39a3.37,3.37,0,0,0-.1-1.23,3.74,3.74,0,0,0-.46-.83,13,13,0,0,1-2-4.72c-.18-.83-1-3-.5-3.78.32-.56,1.21-1.12,2.79-1.88l1.57-.75S163.78,93.21,166,93,167.34,90.08,167,89.56Z" transform="translate(-154.29 -78.71)" style="fill:#ff3b48"/><path d="M158,92.7s.12-.39.88.84a7.29,7.29,0,0,1,1.07,3.7c.16,1.67-.14,2.32-.37,2.56s-.54.24-1.08-.34S155.72,92.61,158,92.7Z" transform="translate(-154.29 -78.71)" style="fill:#cfcfcf"/><path d="M167.14,92a4.89,4.89,0,0,1,.32-2.2c.42-.77-.55-3-2.44-3.65s-2.84-.25-2.66-.09a2.82,2.82,0,0,1,.58,2.15,25.11,25.11,0,0,0-.28,2.55C162.7,91,165.07,93.59,167.14,92Z" transform="translate(-154.29 -78.71)" style="fill:#d9d9d9"/><path d="M169.6,85.18a9.13,9.13,0,0,0-.22-2.6,3.61,3.61,0,0,0-.33-1c-.31-.64-.43-1.31-1.08-1.7a8.7,8.7,0,0,0-2-1.09c-1.29-.34-3.53.23-4.12,1.57a8.35,8.35,0,0,0-.33,2.69,5.36,5.36,0,0,0,1,3.94c.17.19.33.39.5.59a8.59,8.59,0,0,0,3.07,2.58C169,91.42,169.36,86.84,169.6,85.18Z" transform="translate(-154.29 -78.71)" style="fill:#e8e8e8"/><path d="M162.6,85.61s-.08-.81-.75-.88-.44,1-.3,1.49.58.66.85.82.32-.09.32-.09a4.35,4.35,0,0,0-.1-.82A1.6,1.6,0,0,1,162.6,85.61Z" transform="translate(-154.29 -78.71)" style="fill:#e8e8e8"/><path d="M176.88,110.51s.74,0,.79.45-.09.74,0,1a7.73,7.73,0,0,0,.13,1.22c.1.2.14.59,0,.67a.5.5,0,0,1-.63,0c-.27-.23-.34-1.13-.32-1.26a6.28,6.28,0,0,1-.42-1.25A.7.7,0,0,1,176.88,110.51Z" transform="translate(-154.29 -78.71)" style="fill:#f5f5f5"/><path d="M155.27,100.46c-.21,1.45-.88,6-.88,6a.84.84,0,0,0,.06.39,2.05,2.05,0,0,0,1.46,1c.8.22,1.19,0,1.21,0a17.09,17.09,0,0,0,1-3.26,19.07,19.07,0,0,1,.74-2.4c0-.26,1.47-2.6.93-5.22-.07-.33-.15-.64-.24-.94A10.59,10.59,0,0,0,158,92.7a10.4,10.4,0,0,0-1.91,2.35C155.58,96.12,155.48,99,155.27,100.46Z" transform="translate(-154.29 -78.71)" style="fill:#d9d9d9"/><path d="M154.41,111.59c.14,1,.75,3.76.83,4.51a9.59,9.59,0,0,1-.08,2.23,3,3,0,0,0,.44,1.73c.15.12.23.67.26.75s.3.26.3.26a2.16,2.16,0,0,1,.19.28c.11.19.44.19.44.19s.15.21.31.41a1.19,1.19,0,0,0,.52.18,6.55,6.55,0,0,0,1.14.14c.13,0,.09-.21.07-.35s-.18-.13-.34-.24a3.23,3.23,0,0,1-.53-.31,4,4,0,0,1-.24-1,8.83,8.83,0,0,1,.07-1s.23.08.28.11a7,7,0,0,0,.4,1.26c.24.33.38.14.48,0a1.72,1.72,0,0,0-.13-1.21,11.71,11.71,0,0,1-.33-1.5c-.16-.52-.44-.67-.91-1.19a6.63,6.63,0,0,1-.7-2.4s0-.11,0-1.45.23-4.4.24-5.25-.07-.84-.07-.84-.42-.11-.93-.19-1.4-.16-1.67.08A20.12,20.12,0,0,0,154.41,111.59Z" transform="translate(-154.29 -78.71)" style="fill:#e8e8e8"/><path d="M157.56,96.4c0,.53-.26,1-.65,1s-.71-.41-.73-.94.27-1,.65-1S157.54,95.86,157.56,96.4Z" transform="translate(-154.29 -78.71)" style="fill:#626b6c"/><path d="M155.53,107c0,.48-.19.88-.47.89s-.52-.36-.54-.84.19-.88.47-.89S155.51,106.51,155.53,107Z" transform="translate(-154.29 -78.71)" style="fill:#626b6c"/><polygon points="68.97 54.77 72.63 54.51 71.32 55.47 65.74 55.61 68.97 54.77" style="fill:#b0b4b5"/><polygon points="53.38 63.44 58.19 63.36 55.79 64.25 51.3 64.46 53.38 63.44" style="fill:#b0b4b5"/><polygon points="53.94 65.21 54.97 65.81 57.57 65.97 74.24 54.54 73.21 53.94 53.94 65.21" style="fill:#bcbcbc"/><path d="M214.38,125.86s-.46,1.47-.61,1.79a6.93,6.93,0,0,1-1.42,1.73,2.24,2.24,0,0,0-.93,1.27,2.93,2.93,0,0,0,.69,1.73,2,2,0,0,0,1.75-.29l1.38-1.68.8-1.36s1.55-.6,1.68-1,.3-.9.3-.9.11-1.09-.34-1.39l-1.47-1Z" transform="translate(-154.29 -78.71)" style="fill:#6b2912"/><path d="M219.14,127.14a1.35,1.35,0,0,0-.75,1,7,7,0,0,1-.58,2c-.22.35-1.86,2.76-2.08,3.19s-.3,1,.18,1.15a3.51,3.51,0,0,0,2.26.25c.71-.3,1.56-.6,1.71-.92a8.93,8.93,0,0,0,.73-1.84,9.81,9.81,0,0,1,.8-2.17,8.42,8.42,0,0,0,.17-1.8Z" transform="translate(-154.29 -78.71)" style="fill:#6b2912"/><path d="M216.23,116.54s.32,3.54.42,4.66.92,3.54.92,4a2.9,2.9,0,0,1-1.34,1.86,5.23,5.23,0,0,1-2,0s-1.68-4.19-2.28-5.53a16.77,16.77,0,0,1-1.17-5.13C210.72,115.05,216.23,116.54,216.23,116.54Z" transform="translate(-154.29 -78.71)" style="fill:#323232"/><path d="M219.21,104.16a30.24,30.24,0,0,0-5.74,6.43c-3.06,4.4-2.89,4.18-2.72,5.78s1.73,2.59,3.76,1.85a13,13,0,0,0,3.88-2.63c.6-.43,5.43-3.88,6.56-5.74S219.73,104.12,219.21,104.16Z" transform="translate(-154.29 -78.71)" style="fill:#404040"/><path d="M222.31,119.09s.39,3.1.35,4-1,5-1,5a3.58,3.58,0,0,1-1.69.74c-.9.08-1.46-1-1.46-1a22.44,22.44,0,0,0-.64-3.84,37.3,37.3,0,0,1-1-4.74Z" transform="translate(-154.29 -78.71)" style="fill:#4d4d4d"/><path d="M222.49,107.87v2.72c0,.21-4.36,5.18-4.92,6.17a3.85,3.85,0,0,0-.74,2.46c.13.73.92,2.54,2.82,1.94a10.78,10.78,0,0,0,3.61-1.77c.69-.56,6-4.06,6.78-4.53a6,6,0,0,0,2.2-4,41,41,0,0,0-.69-4.62Z" transform="translate(-154.29 -78.71)" style="fill:#555"/><path d="M217.58,91.25a7.14,7.14,0,0,0-1.73,1.91,10.56,10.56,0,0,1-2.77,3c-.88.57-1.37,1.06-1.5,1.55s1,3,1.87,2.55a12.3,12.3,0,0,0,2.06-1.73A18.43,18.43,0,0,0,218,96.36c.38-.57,1.1-.91,1.32-1.75a4.76,4.76,0,0,0-.2-2.16Z" transform="translate(-154.29 -78.71)" style="fill:#f6b486"/><path d="M221.45,89a4.6,4.6,0,0,0-2.87.92c-.92,1-1.86,1.89-1.86,1.89s1,1.21,1.5,1.73.71,1.41,1.29,1.41S221.45,89,221.45,89Z" transform="translate(-154.29 -78.71)" style="fill:#3d7dc0"/><path d="M233.23,92.7s-.71,6.71-1.16,8a21.27,21.27,0,0,0-.8,5.54c.08.91.19,1.81.19,1.81s-2.26,1.88-7.91,1.13-5.31-4.64-5.33-4.81.47-.35.43-2.83a55.23,55.23,0,0,1,.91-8.41,38.89,38.89,0,0,1,1.7-4.06c.22-.3,4.1-.3,4.75-.13S231.64,90.78,233.23,92.7Z" transform="translate(-154.29 -78.71)" style="fill:#589fed"/><polygon points="44.5 36.26 45.59 36.7 45.59 35.68 44.5 35.04 44.5 36.26" style="fill:#50535a"/><polygon points="45.59 36.7 45.98 36.46 45.98 35.43 45.59 35.68 45.59 36.7" style="fill:#232323"/><polygon points="44.5 35.04 45.59 35.68 45.98 35.43 44.89 34.79 44.5 35.04" style="fill:#686a73"/><polygon points="25.26 47.3 26.28 47.9 26.28 46.99 25.26 46.38 25.26 47.3" style="fill:#5f5f5f"/><polygon points="26.28 47.9 45.55 36.63 45.55 35.72 26.28 46.99 26.28 47.9" style="fill:#939394"/><polygon points="25.26 46.38 26.28 46.99 45.55 35.72 44.53 35.11 25.26 46.38" style="fill:#d9d9d9"/><polygon points="26.95 46.58 27.81 46.08 27.81 23.64 26.95 24.14 26.95 46.58" style="fill:#939394"/><polygon points="26.01 46.01 26.95 46.58 26.95 24.14 26.01 23.64 26.01 46.01" style="fill:#5f5f5f"/><polygon points="44.23 36.44 45.1 35.94 45.1 13.5 44.23 13.99 44.23 36.44" style="fill:#8d919c"/><polygon points="43.3 35.87 44.23 36.44 44.23 13.99 43.3 13.5 43.3 35.87" style="fill:#b6b8d1"/><polygon points="56.55 65.37 57.57 65.97 57.57 65.06 56.55 64.45 56.55 65.37" style="fill:#5f5f5f"/><polygon points="57.57 65.97 76.84 54.7 76.84 53.79 57.57 65.06 57.57 65.97" style="fill:#939394"/><polygon points="56.55 64.45 57.57 65.06 76.84 53.79 75.82 53.18 56.55 64.45" style="fill:#d9d9d9"/><polygon points="58.24 64.65 59.1 64.15 59.1 41.71 58.24 42.2 58.24 64.65" style="fill:#939394"/><polygon points="57.3 64.08 58.24 64.65 58.24 42.2 57.3 41.71 57.3 64.08" style="fill:#5f5f5f"/><polygon points="75.52 54.51 76.39 54.01 76.39 31.57 75.52 32.06 75.52 54.51" style="fill:#939394"/><polygon points="74.59 53.94 75.52 54.51 75.52 32.06 74.59 31.57 74.59 53.94" style="fill:#5f5f5f"/><polygon points="24.29 25.66 58.09 45.17 58.09 43.58 24.29 24.07 24.29 25.66" style="fill:#78301d"/><polygon points="79.09 31.31 58.09 43.58 24.29 24.08 29.7 20.92 37.42 16.41 45.3 11.81 79.09 31.31" style="fill:#ea9854"/><polygon points="24.29 24.07 58.09 42.66 77.78 31.4 45.3 11.8 24.29 24.07" style="fill:#d16d45"/><polygon points="58.09 45.17 79.09 32.9 79.09 31.31 58.09 43.58 58.09 45.17" style="fill:#b04833"/><polygon points="43.75 15.43 41.96 15.43 32.22 20.89 55.9 34.98 58.44 35.12 43.75 15.43" style="fill:#78301d"/><polygon points="47.61 26.05 40.7 27.3 29.7 20.92 37.42 16.41 40.22 16.41 47.61 26.05" style="fill:#78301d"/><path d="M212.28,119.63a4.94,4.94,0,0,1-4-.75c-2.26-1.37-9.23-5.46-9.23-5.46L204,110Z" transform="translate(-154.29 -78.71)" style="fill:#78301d"/><polygon points="34.89 20.54 43.75 15.43 66.87 28.79 58.02 33.9 34.89 20.54" style="fill:#eeeae0"/><polygon points="47.61 24.98 42.59 24.98 34.89 20.54 42.34 16.25 47.61 24.98" style="fill:#a26f4a"/><polygon points="62.45 28.16 60.64 27.11 56.08 29.75 57.89 30.79 62.45 28.16" style="fill:#b0b4b5"/><polygon points="62.45 28.16 60.28 29.41 58.39 28.41 60.64 27.11 62.45 28.16" style="fill:#898386"/><polygon points="34.27 21.16 58.44 35.12 58.02 33.9 34.89 20.54 34.27 21.16" style="fill:#c9aa7e"/><polygon points="58.02 33.9 58.44 35.12 67.29 30 66.87 28.79 58.02 33.9" style="fill:#b18961"/><path d="M231,108.59l-17.75,10.2a2.53,2.53,0,0,1-2.5,0l-9.2-5.27a.83.83,0,0,1-.08-1.4,11.91,11.91,0,0,0,2.41-2.11,7.35,7.35,0,0,1,1.52-1.64l6.49-3.24,2.61-1.29,4.4-2.2Z" transform="translate(-154.29 -78.71)" style="fill:#abca1e"/><path d="M226.09,105.45c-.73-.18-3.13-1-4.1-.55s-5-.19-4.86.24a1.31,1.31,0,0,1,0,.25l-2.7-1.55-1.46.72c-.13-.21-.25-.38-.25-.38s-3.85,1.41-4.16,3.18a1.43,1.43,0,0,0,1.26-.11,5.2,5.2,0,0,1,1.16-.54s1.21-.6,1.84-1l.62.36-1.35.81,3.3,1.74,2.28-.2v0a13.84,13.84,0,0,0,1.43-.13c.36-.08,3.48-1.87,3.48-1.87l3.29.54,2.71.27A12.07,12.07,0,0,0,226.09,105.45Z" transform="translate(-154.29 -78.71)" style="fill:#919222"/><polygon points="65.13 25.23 65 25.01 64.63 25.21 64.76 25.44 65.13 25.23" style="fill:#284702;fill-rule:evenodd"/><polygon points="65.78 24.87 65.66 24.64 65.29 24.84 65.42 25.07 65.78 24.87" style="fill:#284702;fill-rule:evenodd"/><rect x="220.27" y="103.06" width="0.42" height="0.26" transform="translate(-176.58 42.44) rotate(-29.31)" style="fill:#284702"/><polygon points="63.16 26.34 63.02 26.11 62.66 26.32 62.79 26.55 63.16 26.34" style="fill:#284702;fill-rule:evenodd"/><polygon points="63.81 25.97 63.68 25.74 63.31 25.95 63.45 26.18 63.81 25.97" style="fill:#284702;fill-rule:evenodd"/><polygon points="64.47 25.61 64.34 25.38 63.97 25.58 64.1 25.81 64.47 25.61" style="fill:#284702;fill-rule:evenodd"/><polygon points="61.18 27.45 61.05 27.22 60.68 27.43 60.82 27.65 61.18 27.45" style="fill:#284702;fill-rule:evenodd"/><polygon points="61.84 27.08 61.71 26.85 61.34 27.06 61.47 27.28 61.84 27.08" style="fill:#284702;fill-rule:evenodd"/><polygon points="62.49 26.71 62.36 26.48 62 26.69 62.13 26.92 62.49 26.71" style="fill:#284702;fill-rule:evenodd"/><polygon points="59.21 28.55 59.08 28.33 58.71 28.53 58.84 28.76 59.21 28.55" style="fill:#284702;fill-rule:evenodd"/><polygon points="59.87 28.18 59.73 27.96 59.37 28.16 59.5 28.39 59.87 28.18" style="fill:#284702;fill-rule:evenodd"/><polygon points="60.52 27.82 60.39 27.59 60.02 27.8 60.15 28.02 60.52 27.82" style="fill:#284702;fill-rule:evenodd"/><polygon points="57.26 29.7 57.13 29.47 56.77 29.69 56.9 29.92 57.26 29.7" style="fill:#284702;fill-rule:evenodd"/><polygon points="57.9 29.31 57.77 29.08 57.41 29.3 57.54 29.52 57.9 29.31" style="fill:#284702;fill-rule:evenodd"/><polygon points="58.55 28.93 58.41 28.7 58.05 28.91 58.18 29.14 58.55 28.93" style="fill:#284702;fill-rule:evenodd"/><polygon points="55.33 30.87 55.19 30.64 54.83 30.86 54.97 31.09 55.33 30.87" style="fill:#284702;fill-rule:evenodd"/><polygon points="55.97 30.48 55.83 30.25 55.48 30.47 55.61 30.7 55.97 30.48" style="fill:#284702;fill-rule:evenodd"/><polygon points="56.61 30.09 56.48 29.86 56.12 30.08 56.25 30.31 56.61 30.09" style="fill:#284702;fill-rule:evenodd"/><polygon points="53.39 32.05 53.26 31.82 52.9 32.04 53.03 32.26 53.39 32.05" style="fill:#284702;fill-rule:evenodd"/><polygon points="54.03 31.66 53.9 31.43 53.54 31.65 53.68 31.87 54.03 31.66" style="fill:#284702;fill-rule:evenodd"/><polygon points="54.68 31.27 54.54 31.04 54.18 31.26 54.32 31.48 54.68 31.27" style="fill:#284702;fill-rule:evenodd"/><polygon points="51.46 33.22 51.32 32.99 50.96 33.21 51.1 33.44 51.46 33.22" style="fill:#284702;fill-rule:evenodd"/><polygon points="52.1 32.83 51.97 32.6 51.61 32.82 51.74 33.05 52.1 32.83" style="fill:#284702;fill-rule:evenodd"/><polygon points="52.74 32.44 52.61 32.21 52.25 32.43 52.38 32.66 52.74 32.44" style="fill:#284702;fill-rule:evenodd"/><rect x="203.35" y="112.96" width="0.42" height="0.26" transform="translate(-183.43 43.21) rotate(-31.23)" style="fill:#284702"/><polygon points="50.17 34 50.03 33.78 49.67 34 49.81 34.22 50.17 34" style="fill:#284702;fill-rule:evenodd"/><polygon points="50.81 33.61 50.67 33.39 50.31 33.61 50.45 33.83 50.81 33.61" style="fill:#284702;fill-rule:evenodd"/><path d="M213.22,117.71a2.49,2.49,0,0,1-2.49,0l-9.22-5.26a.86.86,0,0,1-.19-.19.82.82,0,0,0,.19,1.26l9.22,5.27a2.49,2.49,0,0,0,2.49,0L231,108.59l-.94-.54Z" transform="translate(-154.29 -78.71)" style="fill:#8b9f17"/><path d="M224.51,90a6,6,0,0,1,.41,1.49c0,.47,0,1.25.32,1.49s1,.1,1.65-.09,2-2.2,2-2.26a3.29,3.29,0,0,1-.48-2c0-1.39-.93-1.19-1-1.16S224.51,90,224.51,90Z" transform="translate(-154.29 -78.71)" style="fill:#f6b486"/><path d="M230.55,98.54s-.3,2.73-.32,3.1a16.24,16.24,0,0,0-.31,2.39c.05.6,1.18,3.16,1.92,2.93a3.21,3.21,0,0,0,1.76-2.56c.11-1.18.43-3.62.49-4.25s0-2.42,0-2.42Z" transform="translate(-154.29 -78.71)" style="fill:#fcd1b3"/><path d="M232.39,104.63s-1.38-1.35-2.45-1.23a11.55,11.55,0,0,1-3.24.28,16.62,16.62,0,0,0-3.17-.51c-.75.11-2.34.41-2.92.48a13.55,13.55,0,0,0-1.67.39c-.33.1-.87.79-.87.79s-.71,0-.89.22.12.52.12.52l.64-.06-.32.5a7.89,7.89,0,0,0-1.09.85.59.59,0,0,0,.07.62c.06,0-.09.27.07.53s.29.28.36.29.58.22.69.14.69-.54.69-.54.19.42.87.18a15.37,15.37,0,0,0,2.43-1.42,7.67,7.67,0,0,1,1.43-1.08c.28,0,.41-.07,1.71.55a15.31,15.31,0,0,0,5.15,1.12c1.79.1,2.05.39,2.62-.49S232.39,104.63,232.39,104.63Z" transform="translate(-154.29 -78.71)" style="fill:#ffdec7"/><path d="M214.23,99a3.34,3.34,0,0,0-.43-1.74,1.75,1.75,0,0,0-1.74-.31,5.19,5.19,0,0,0-1.21,2.15c-.17.73-.15,2.11-.28,2.51a3.2,3.2,0,0,1-.71,1.28c-.26.19-.87.52-1.1.74s-1,1.69-1.23,1.79-.65.51-.58.62.36.19.36.19-.42.26-.43.46a.67.67,0,0,0,.06.35s0,.47.21.51.63-.24.63-.24.11.21.61.17,1.26-.78,1.26-.78l.69-.61s-.21.47,0,.66a.88.88,0,0,0,.53.21s.24-.34.24-.34,1-1,1.15-1.18a2.43,2.43,0,0,0,.33-1.27c0-.47,0-.92,0-.92s.49-1.77.57-1.87.92-1.09.93-1.19S214.23,99,214.23,99Z" transform="translate(-154.29 -78.71)" style="fill:#fcd1b3"/><path d="M232.37,91.9s-1.56.39-1.88,3.21a38.9,38.9,0,0,0-.26,4.75,12.46,12.46,0,0,1,2.88-.79c.63.07,1.7.33,1.7.33a23.87,23.87,0,0,0-.44-4.55C234,93.5,233.09,91.81,232.37,91.9Z" transform="translate(-154.29 -78.71)" style="fill:#3d7dc0"/><path d="M224.19,81.41a5.1,5.1,0,0,0-1.36,2.46,28.28,28.28,0,0,0-.38,3.76c0,1,1.29,3.6,1.74,3.6a3.7,3.7,0,0,0,2.83-.84,4.52,4.52,0,0,0,1.68-2.63,3,3,0,0,0,.45-2.46c-.28-1.62-1.51-3.15-2.33-3.17A12.18,12.18,0,0,1,224.19,81.41Z" transform="translate(-154.29 -78.71)" style="fill:#fcd1b3"/><path d="M226.26,84.24a10.41,10.41,0,0,1-1.74.11c-.59-.07-.65-.45-1-.43a1.36,1.36,0,0,0-.73.44l-.3,2.36,0,.91a6,6,0,0,1-.61-1.73,17.74,17.74,0,0,1,1.45-4.49,3.81,3.81,0,0,1,4.33-.82c2-.1,2.68,1.73,2.63,3.34a33.61,33.61,0,0,0,1.3,6.46c.13.3.56,1.38.56,1.38l-2.63-1.08c-.67-.28-.57-.21-.94-.69s-.1-1-.23-2.14S228,84.2,226.26,84.24Z" transform="translate(-154.29 -78.71)" style="fill:#6a3120"/><polygon points="58.98 27.92 59.09 28.66 59.19 28.04 59.19 26.36 58.98 26.24 58.98 27.92" style="fill:#dadbd9"/><polygon points="58.41 26.48 58.98 26.81 58.98 26.27 58.41 25.95 58.41 26.48" style="fill:#abaea9"/><polygon points="59.55 26.48 58.98 26.81 58.98 26.27 59.55 25.95 59.55 26.48" style="fill:#898386"/><polygon points="57.51 25.74 58.81 26.49 58.81 25.27 57.51 24.52 57.51 25.74" style="fill:#abaea9"/><polygon points="60.1 25.74 58.81 26.49 58.81 25.27 60.1 24.52 60.1 25.74" style="fill:#6b6366"/><path d="M192.62,90.74a3.76,3.76,0,0,1,1.71-2.95,1.19,1.19,0,0,1,1.23-.11h0l.68.41-2.6,4-.42-.25a1,1,0,0,1-.23-.13h0A1.28,1.28,0,0,1,192.62,90.74Z" transform="translate(-154.29 -78.71)" style="fill:url(#_ÂÁ_Ï_ÌÌ_È_ËÂÌÚ_152)"/><path d="M196.7,89.16a3.77,3.77,0,0,1-1.71,3c-.94.54-1.71.11-1.71-1A3.76,3.76,0,0,1,195,88.19C195.94,87.64,196.7,88.08,196.7,89.16Z" transform="translate(-154.29 -78.71)" style="fill:#b18961"/><path d="M193.34,91.7A4.78,4.78,0,0,1,195.5,88a1.53,1.53,0,0,1,1.56-.14h0l1.15.69-3.29,5.11-.82-.48a1,1,0,0,1-.28-.17h0A1.63,1.63,0,0,1,193.34,91.7Z" transform="translate(-154.29 -78.71)" style="fill:url(#_ÂÁ_Ï_ÌÌ_È_ËÂÌÚ_152-2)"/><path d="M198.78,89.87a4.75,4.75,0,0,1-2.16,3.73c-1.19.69-2.16.14-2.16-1.23a4.78,4.78,0,0,1,2.16-3.73C197.82,88,198.78,88.5,198.78,89.87Z" transform="translate(-154.29 -78.71)" style="fill:#b18961"/><path d="M194.76,90.24v4.41a2,2,0,0,0,1,1.69l1.26.72,1.47.85,1.48-7.06v0l.31-1.48-1-1.81c-.66-.37-4,1.56-4.41,2.43A.6.6,0,0,0,194.76,90.24Z" transform="translate(-154.29 -78.71)" style="fill:#84878b"/><path d="M194.76,90.24v4.41a2,2,0,0,0,1,1.69l1.26.72,2.95-6.21v0h0a24.2,24.2,0,0,0-4.5-1,1.86,1.86,0,0,0-.61.14A.6.6,0,0,0,194.76,90.24Z" transform="translate(-154.29 -78.71)" style="fill:#2c333a"/><polygon points="51.31 22.85 47.61 24.98 47.61 16.54 51.31 14.4 51.31 22.85" style="fill:#b18961"/><path d="M196.49,90.3v10.27l5.41,3.12V99.84c0-1.12.78-1.57,1.75-1l7.43,4.29V97.37l2.29-3-12-6.94a2.37,2.37,0,0,0-2.36,0l-.33.19c-.65.38-2.13,1.64-2.22,2.36A1.46,1.46,0,0,0,196.49,90.3Z" transform="translate(-154.29 -78.71)" style="fill:#c9aa7e"/><path d="M211.08,98.43V97.37l2.29-3-12-6.94a2.37,2.37,0,0,0-2.36,0l-.33.19a5,5,0,0,0-1.67,1.12Z" transform="translate(-154.29 -78.71)" style="fill:#eeeae0"/><path d="M210.63,98.12v-.47l2.29-3-12-7a2.35,2.35,0,0,0-2.35,0l-.34.19-.55.28a6,6,0,0,1,1-.56l.33-.19a2.37,2.37,0,0,1,2.36,0l12,6.94-2.29,3v1.06Z" transform="translate(-154.29 -78.71)" style="fill:#d8cfb6"/><polygon points="55.98 15.44 53.93 15.44 53.61 15.25 53.84 15.11 56.1 15.11 55.98 15.44" style="fill:#bb9875"/><path d="M196.51,90a2.3,2.3,0,0,1,.55-1.24L211.28,97l-.2.38v1.06Z" transform="translate(-154.29 -78.71)" style="fill:#d5cbb1"/><polygon points="54.71 17.33 58.47 15.16 61.78 17.08 58.03 19.24 54.71 17.33" style="fill:#f8f7f3"/><polygon points="58.03 19.24 61.78 17.08 62.13 17.77 61.78 23.88 58.03 26.05 57.48 22.59 58.03 19.24" style="fill:#c9aa7e"/><polygon points="58.66 19.77 62.13 17.77 62.59 20.53 62.13 24.05 58.66 26.05 58.16 22.86 58.66 19.77" style="fill:#d8cfb6"/><polygon points="54.71 24.13 58.03 26.05 57.48 22.59 54.16 20.68 54.71 24.13" style="fill:#b28b64"/><polygon points="54.71 17.33 58.03 19.24 57.48 22.59 54.16 20.68 54.71 17.33" style="fill:#d0b58f"/><path d="M210,90.85h.48V94h0a.1.1,0,0,1-.07.09.34.34,0,0,1-.34,0A.1.1,0,0,1,210,94h0Z" transform="translate(-154.29 -78.71)" style="fill:url(#_ÂÁ_Ï_ÌÌ_È_ËÂÌÚ_3)"/><path d="M210,90.94a.34.34,0,0,0,.34,0h0c.08-.05.07-.13,0-.18a.34.34,0,0,0-.34,0h0A.1.1,0,0,0,210,90.94Z" transform="translate(-154.29 -78.71)" style="fill:#e4e5e5"/><polygon points="57.48 22.59 58.16 22.86 58.66 26.05 58.03 26.05 57.48 22.59" style="fill:#bb9875"/><polygon points="62.13 17.77 58.66 19.77 58.03 19.24 61.78 17.08 62.13 17.77" style="fill:#f1eee5"/><polygon points="43.07 14.79 45.92 16.43 45.92 18.04 43.07 16.39 43.07 14.79" style="fill:#e9eaeb"/><polygon points="43.07 14.11 45.92 15.76 45.92 16.43 43.07 14.79 43.07 14.11" style="fill:#efc42f"/><polygon points="43.57 14.62 45.42 15.69 45.42 15.86 43.57 14.79 43.57 14.62" style="fill:#84878b"/><polygon points="45.38 16.33 45.74 17.63 44.97 17.19 45.38 16.33" style="fill:#efc42f"/><polygon points="44.8 15.79 44.8 17.39 44.72 17.34 44.72 15.74 44.8 15.79" style="fill:#84878b"/><path d="M205.29,90.75h-3.2v.14h0a.81.81,0,0,0,.47.65,2.5,2.5,0,0,0,2.26,0,.79.79,0,0,0,.47-.65h0Z" transform="translate(-154.29 -78.71)" style="fill:url(#_ÂÁ_Ï_ÌÌ_È_ËÂÌÚ_639)"/><path d="M204.82,91.41a2.5,2.5,0,0,1-2.26,0,.57.57,0,0,1-.13-.08h0a1.11,1.11,0,0,1-.19-.18c-.28-.34-.18-.76.3-1h0a2.52,2.52,0,0,1,2.27,0,.71.71,0,0,1,.14.1h0C205.44,90.56,205.39,91.08,204.82,91.41Z" transform="translate(-154.29 -78.71)" style="fill:#e4e5e5"/><path d="M204.56,91.23a2.09,2.09,0,0,1-1.87,0,.41.41,0,0,1-.11-.07h0c-.41-.3-.38-.74.1-1a2.08,2.08,0,0,1,1.88,0l.12.08h0C205.08,90.52,205,91,204.56,91.23Z" transform="translate(-154.29 -78.71)" style="fill:#89918f"/><path d="M203.66,90.17l-.7,1.17-.72-.2c-.28-.34-.18-.76.3-1Z" transform="translate(-154.29 -78.71)" style="fill:#89918f"/><path d="M204.92,90.58a.38.38,0,0,1,0,.1.67.67,0,0,1-.35.41,1.94,1.94,0,0,1-1.74,0,.73.73,0,0,1-.31-.29l0-.06a.14.14,0,0,0,0-.07v-.08h0v-.16l.05-.76v-.07l.08-1.13,0-.55h2.07l0,.39h0l.1,1.31,0,.31Z" transform="translate(-154.29 -78.71)" style="fill:url(#_ÂÁ_Ï_ÌÌ_È_ËÂÌÚ_596)"/><path d="M204.42,88.33a1.6,1.6,0,0,1-1.46,0l-.09,0h0c-.32-.24-.29-.58.08-.79a1.59,1.59,0,0,1,1.47,0l.09.06h0C204.82,87.79,204.79,88.12,204.42,88.33Z" transform="translate(-154.29 -78.71)" style="fill:#ff5e5e"/><path d="M204.33,88.29a1.53,1.53,0,0,1-1.38,0l-.08-.05h0c-.3-.22-.27-.54.08-.74a1.5,1.5,0,0,1,1.37,0l.09.06h0C204.7,87.78,204.67,88.09,204.33,88.29Z" transform="translate(-154.29 -78.71)" style="fill:#ff4040"/><path d="M203.88,88.09a1.08,1.08,0,0,1-.82-.09.05.05,0,0,1,0,0h0a.2.2,0,0,1,0-.37.76.76,0,0,1,.69,0l0,0h0C203.93,87.75,204.06,88,203.88,88.09Z" transform="translate(-154.29 -78.71)" style="fill:#d36572;mix-blend-mode:multiply"/><path d="M204.17,87.61h-1v.26h0a.23.23,0,0,0,.14.19.76.76,0,0,0,.69,0,.22.22,0,0,0,.14-.19h0Z" transform="translate(-154.29 -78.71)" style="fill:url(#_ÂÁ_Ï_ÌÌ_È_ËÂÌÚ_623)"/><path d="M204,87.81a.76.76,0,0,1-.69,0l0,0h0c-.15-.11-.13-.27,0-.37a.76.76,0,0,1,.69,0l0,0h0C204.22,87.55,204.2,87.71,204,87.81Z" transform="translate(-154.29 -78.71)" style="fill:#fff"/><path d="M204,87.79a.7.7,0,0,1-.66,0l0,0h0c-.14-.11-.13-.26,0-.36a.7.7,0,0,1,.66,0l0,0h0A.19.19,0,0,1,204,87.79Z" transform="translate(-154.29 -78.71)" style="fill:#fdfdfd"/><path d="M203.92,87.74a.55.55,0,0,1-.47,0s0,0,0,0h0a.13.13,0,0,1,0-.25.49.49,0,0,1,.47,0l0,0h0C204.05,87.56,204,87.67,203.92,87.74Z" transform="translate(-154.29 -78.71)" style="fill:url(#_ÂÁ_Ï_ÌÌ_È_ËÂÌÚ_622)"/><path d="M203.92,87.74a.55.55,0,0,1-.47,0s0,0,0,0c.43,0,.52-.23.52-.23h0C204.05,87.56,204,87.67,203.92,87.74Z" transform="translate(-154.29 -78.71)" style="fill:#886572;mix-blend-mode:multiply"/><path d="M202.56,89.55h-3.2v.14h0a.82.82,0,0,0,.48.65,2.5,2.5,0,0,0,2.26,0,.76.76,0,0,0,.46-.65h0Z" transform="translate(-154.29 -78.71)" style="fill:url(#_ÂÁ_Ï_ÌÌ_È_ËÂÌÚ_639-2)"/><path d="M202.1,90.21a2.5,2.5,0,0,1-2.26,0,.57.57,0,0,1-.13-.08h0a1.11,1.11,0,0,1-.19-.18c-.28-.34-.18-.76.3-1h0a2.5,2.5,0,0,1,2.26,0l.15.1h0C202.71,89.36,202.67,89.88,202.1,90.21Z" transform="translate(-154.29 -78.71)" style="fill:#e4e5e5"/><path d="M201.84,90A2.11,2.11,0,0,1,200,90l-.1-.07h0c-.41-.3-.38-.73.1-1a2.08,2.08,0,0,1,1.88,0L202,89h0C202.35,89.32,202.31,89.75,201.84,90Z" transform="translate(-154.29 -78.71)" style="fill:#89918f"/><path d="M200.93,89l-.69,1.17-.72-.2c-.28-.34-.18-.76.3-1Z" transform="translate(-154.29 -78.71)" style="fill:#89918f"/><path d="M202.2,89.38s0,.06,0,.1a.7.7,0,0,1-.35.41,1.94,1.94,0,0,1-1.74,0,.68.68,0,0,1-.31-.29l0-.06a.64.64,0,0,0,0-.07s0,0,0-.08h0v-.16l.06-.76v-.07l.08-1.13,0-.55H202l0,.39h0l.09,1.31,0,.31Z" transform="translate(-154.29 -78.71)" style="fill:url(#_ÂÁ_Ï_ÌÌ_È_ËÂÌÚ_779)"/><path d="M201.7,87.13a1.6,1.6,0,0,1-1.46,0l-.09,0h0c-.32-.24-.29-.58.08-.79a1.6,1.6,0,0,1,1.46,0l.1.06h0C202.09,86.59,202.07,86.92,201.7,87.13Z" transform="translate(-154.29 -78.71)" style="fill:#ffa759"/><path d="M201.6,87.09a1.5,1.5,0,0,1-1.37,0l-.08,0h0c-.3-.22-.27-.54.08-.74a1.5,1.5,0,0,1,1.37,0l.09.06h0C202,86.58,202,86.89,201.6,87.09Z" transform="translate(-154.29 -78.71)" style="fill:#ff973b"/><path d="M201.16,86.89a1.1,1.1,0,0,1-.83-.09l0,0h0c-.15-.11-.13-.27,0-.37a.76.76,0,0,1,.69,0l0,0h0C201.21,86.55,201.33,86.79,201.16,86.89Z" transform="translate(-154.29 -78.71)" style="fill:#df9966;mix-blend-mode:multiply"/><path d="M201.45,86.41h-1v.26h0a.23.23,0,0,0,.14.19.8.8,0,0,0,.69,0,.26.26,0,0,0,.14-.2h0Z" transform="translate(-154.29 -78.71)" style="fill:url(#_ÂÁ_Ï_ÌÌ_È_ËÂÌÚ_623-2)"/><path d="M201.31,86.61a.76.76,0,0,1-.69,0l0,0h0c-.15-.11-.14-.27,0-.37a.76.76,0,0,1,.69,0l0,0h0C201.5,86.35,201.48,86.51,201.31,86.61Z" transform="translate(-154.29 -78.71)" style="fill:#fff"/><path d="M201.28,86.59a.7.7,0,0,1-.66,0l0,0h0c-.15-.11-.14-.26,0-.36a.75.75,0,0,1,.67,0l0,0h0C201.46,86.35,201.44,86.5,201.28,86.59Z" transform="translate(-154.29 -78.71)" style="fill:#fdfdfd"/><path d="M201.2,86.54a.55.55,0,0,1-.47,0l0,0h0c-.1-.08-.09-.18,0-.25a.49.49,0,0,1,.47,0l0,0h0C201.33,86.36,201.32,86.47,201.2,86.54Z" transform="translate(-154.29 -78.71)" style="fill:url(#_ÂÁ_Ï_ÌÌ_È_ËÂÌÚ_622-2)"/><path d="M201.2,86.54a.55.55,0,0,1-.47,0l0,0c.43,0,.53-.23.53-.23h0C201.33,86.36,201.32,86.47,201.2,86.54Z" transform="translate(-154.29 -78.71)" style="fill:#886572;mix-blend-mode:multiply"/><polygon points="42.77 24.98 42.16 25.57 34.71 21.27 35.31 20.68 42.77 24.98" style="fill:#b18961"/></g></g></svg>