<?xml version="1.0" encoding="utf-8"?>
<!-- Generator: Adobe Illustrator 24.0.1, SVG Export Plug-In . SVG Version: 6.00 Build 0)  -->
<svg version="1.1" id="Layer_1" xmlns="http://www.w3.org/2000/svg" xmlns:xlink="http://www.w3.org/1999/xlink" x="0px" y="0px"
	 viewBox="0 0 300 300" style="enable-background:new 0 0 300 300;" xml:space="preserve">
<style type="text/css">
	.st0{fill-rule:evenodd;clip-rule:evenodd;}
	.st1{fill-rule:evenodd;clip-rule:evenodd;fill:#010101;}
	.st2{fill:none;}
	.st3{fill-rule:evenodd;clip-rule:evenodd;fill:#FC7323;}
	.st4{fill-rule:evenodd;clip-rule:evenodd;fill:#010000;}
	.st5{fill-rule:evenodd;clip-rule:evenodd;fill:#FFFFFF;}
</style>
<title>Searchng User</title>
<path class="st0" d="M117,150.3c1.2,0.8,2.2,2,2.7,3.4c0.2,0.5,0.3,0.9,0.4,1.4c0.4,1.7,0.4,3.6-0.1,5.3c-0.5,2.5-2.6,4.5-5.1,4.8
	c0.8,5,1.6,8.4,1.7,9.2c0.8,3.4,0.7,2.5,0.6,3.3l-0.4,0.3l-0.5-0.1l-0.3-0.4c0-0.1-1.1-3.2-2.1-7.5c-1.4-6.2-1.2-5.8-1.1-6.2
	c0.1-0.2,0.3-0.4,0.5-0.5l0,0c0.4-0.2,1-0.1,1.9-0.4c0.7-0.2,1.3-0.6,1.7-1.2c1.3-2.1,1.6-4.8,0.7-7.1c-0.4-1.2-1.2-2.1-2.3-2.7
	c-1.2-0.7-0.2-1.3-1-6c-3.1-15.8-20.6-16.2-27.7-6.8l0,0l-0.5,0.3l-0.5-0.1h0l-0.3-0.4c0.1-0.6,0.1-0.5,0.2-0.6v0
	C94.2,125,116.9,129,117,150.3z"/>
<path class="st0" d="M94.4,145.5c0.8,0,1.7,0.3,2.3,0.9c0.4,0.3,0.6,0.7,0.7,1.1c0,0-0.1,0.5-0.1,0.5c-1.5,0.2-0.7,0.1-1.5,0
	c-0.2,0-0.3-0.1-0.5-0.1l0,0c-0.5-0.1-1.1-0.1-1.6,0l0,0l0,0c-0.3,0.1-0.6,0.3-0.8,0.5c-0.1,0.2-0.2,0.2-0.8,0.6
	c-0.1,0.1,0,0-0.9,0.4c-0.4-1-0.4-0.9-0.4-1c0-0.5,0.1-0.9,0.3-1.3c0.5-0.6,1.2-1.1,1.9-1.4l0,0C93.4,145.5,93.9,145.4,94.4,145.5z"
	/>
<ellipse transform="matrix(4.354968e-02 -0.9991 0.9991 4.354968e-02 -63.3718 241.5132)" cx="94.4" cy="153.9" rx="2.3" ry="2"/>
<path class="st0" d="M94.5,171.4l-0.6-0.1l0,0c-0.1-0.1-0.5-0.3-0.7-0.4l0,0c-0.1,0-0.9-0.4-1-0.5l0,0c-0.2-0.1-0.5-0.2-0.7-0.4l0,0
	c-0.4-0.2-0.9-0.4-1.4-0.5l0,0c-0.1,0-0.2,0-0.3,0h0h0h0h0h0h0h0h0h0h0h0l0,0h0l0,0l0,0h0h0l0,0l0,0l0,0l0,0l0,0l0,0l0,0h0l0,0h0
	l0,0l0,0l0,0l0,0l0,0l0,0l0,0l0,0h0l0,0l0,0l0,0l0,0l0,0v0l0,0l0,0l0,0l0,0l0,0v0h0c0,0,0,0,0,0.1l0,0l0,0l0,0l0,0l0,0l0,0l0,0l0,0
	l0,0l0,0.1l0,0c-0.1,0.1-0.1,0.2-0.2,0.3l0,0c-0.1,0.1-0.2,0.3-0.2,0.4v0l-0.7,0.7c-0.8-0.8-0.7-0.6-0.9-1.4l0,0c0-0.2,0-0.4,0-0.6
	l0,0c0-0.2,0.1-0.4,0.1-0.6c0.2-0.5,0.5-0.8,1-1.1c0.5-0.3,1.1-0.4,1.7-0.4c1.2,0.1,2.4,0.6,3.4,1.4l0,0c0.6,0.5,1.1,1,1.5,1.6
	l0.2,0.5l-0.1,0.5l0,0l0,0L94.5,171.4z"/>
<path class="st0" d="M86.2,175.6c0.3,0.3,1.1,0.8,1.2,0.9c1.6,1.2,3.5,2,5.6,2.1c1,0.1,2,0,3-0.3c0.8-0.2,1.5-0.6,2.1,0.5
	c0.9,2,1.6,4,2.2,6.1c0.4,1.1,0.3,0.7,0.3,1.4l-0.3,0.4h0l-0.5,0c-0.5-0.4-0.3-0.1-1.4-2.2c-0.1-0.1-1.3-2.6-1.9-3.9
	c-0.8,0.2-1.7,0.3-2.6,0.3c-2.5,0-4.9-0.7-7-2c-0.9-0.6-1.6-1.3-2.2-2.2v0c-0.3-0.4-0.5-0.9-0.8-1.3l0,0l-0.1-0.5l0.2-0.4h0l0.5-0.1
	C85.4,174.7,84.6,174.1,86.2,175.6z"/>
<path class="st0" d="M89.3,178.8c-1.8-0.6-4.1-1.3-4.6-3.1c-0.4-1.3-0.7-2.6-0.9-4c-0.3-1.7-0.3-3.5-0.2-5.3c0-0.2-0.1-0.7,0.1-0.6
	c1.7,1.2,0.8,4.1,5.4,12.8"/>
<path class="st0" d="M87.7,176.6c1,0.5,2.1,0.7,3.2,0.6c-0.6-1.4-2.2-5.4-0.7-5.1c0.5,0.1,0.8,0.6,1.1,0.9c0.7,1,0.9,2.4,1.8,3.2
	c0.8,0.7,2.9-0.3,3.8-0.6c0.5-0.2,1.9-0.5,2.1-1.2c0.2-0.8-0.4-1.8-0.7-2.4c-0.6-1.4-1.3-2.9-1.9-4.3c-0.3-0.9-0.8-1.7-1.5-2.4
	c-1.4-1.3-2.5-0.5-3.4-1.1c-0.6-0.4-0.9-1.1,0-1.4c0.8-0.2,1.6-0.2,2.3,0c0.7,0.1,1.5,0.4,2.1,0.7c1.9,1.2,2.9,3.5,4.8,6.4
	c1.4,2.2,1.3,4.1,4.7,0.5c4.9-5.4,3-7.5,4.5-12.8c0.1-0.3,0.3-1.3,0.9-1.2c0.8,0.2,1.1,1.4,1.1,2.1c0.3,2.2,0.3,4.4-0.1,6.6
	c-0.4,2-1.2,3.9-2.4,5.5c-1.4,1.7-4.8,5.2-8.5,6.8c-0.8,0.3-3.7,1.6-4.3,1.8c-5.1,1.3-9.4-0.8-10.1-2.3c-0.1-0.3,0-0.6,0.4-0.6
	C87,176.4,87.4,176.5,87.7,176.6"/>
<path class="st1" d="M58.3,144.9c0.4,0.5,0.3,0.1,1.1,2.5c6.2,21-4.3,35.9-2.3,67.2c0.7,9.7,2.5,17.8,7.5,26
	c3.9,6,9.2,10.9,15.6,14.3c0.5,0,14.5,9.5,35.4,2.4l0,0l0.5,0l0.4,0.4c0,0,0,0.5,0,0.5l-0.4,0.4c-4.1,1.6-8.5,2.5-12.9,2.9
	c-17.8,1.6-34.8-7.9-42.8-23.9c-6.9-13.9-6.5-34-4.5-49.3c1.3-10.8,5.1-26.4,2.7-37.9c-0.3-1.6-0.7-3.1-1.2-4.6l0,0l0-0.5l0.4-0.4
	L58.3,144.9z"/>
<path class="st1" d="M65.3,143.4l0.4,0.4c1.3,1.7,1.5,3.1,2,5.8c0.3,1.7,0.5,3.5,0.5,5.3c0,1.1-0.2,2.1-0.4,3.2l-0.3,0.5l-0.5,0.2
	l0,0l-0.4-0.2l-0.2-0.5h0c-0.1-0.7-0.4-3.1-0.5-4.8l0,0c-0.4-4.3-1.2-5.9-1.4-7.8c0,0-0.1-1.2-0.1-1.2c0,0,0.1-0.5,0.1-0.6l0.3-0.3
	h0L65.3,143.4z"/>
<path class="st1" d="M73.4,142.6c0.3,0.2,0.6,0.6,0.8,0.9c0.3,0.5,0.6,1,0.7,1.5c0.5,1.8,0.8,3.6,0.9,5.5c0.2,1.7,0.1,3.4-0.3,5.1
	c-0.1,0.5-0.4,1.3-0.4,1.4l-0.3,0.5l-0.5,0.1l0,0l-0.4-0.3l-0.2-0.5l0,0c0-1.2-0.1-5.4-0.1-5.9c-0.1-1.8-0.4-3.6-0.8-5.4
	c-0.1-0.4-0.2-2-0.2-2.1l0,0l0.1-0.6l0.3-0.3h0L73.4,142.6z"/>
<path class="st1" d="M81.4,145.5c0.4,0.5,0.4,0.2,0.9,3.6c0.5,4.3,0.5,8.6,0.3,12.9c-0.2,3.5-0.1,6.9,0.4,10.4
	c2.4,13.8,12.5,28.9,18.2,45c0.2,0.3,0.2,0.7,0.2,1.1l-0.4,0.4l0,0l0,0l-0.5,0c-0.5-0.5-0.2,0-1.1-2.1c-6-13.5-15.7-29.5-18.3-42.6
	c-1.9-9.6,0.3-17.4-0.5-26.8c-0.2-1.3-0.2-1,0-1.6l0.4-0.3L81.4,145.5z"/>
<path class="st1" d="M107.4,208l0.4,0.3c0,0,0,0.5,0,0.5c-1.3,1.7-4,2.5-7.1,4.3l0,0c-0.6,0.4-1.2,0.6-1.9,0.7
	c-0.2,0.1,0,0.1-1.1-0.2c0.2-1.1,0.2-0.9,0.3-1.1c0.4-0.6,0.9-1.1,1.6-1.4c0-0.1,3.9-2,4.5-2.3c0.6-0.2,1.2-0.4,1.8-0.6
	C106.4,208,106.9,207.9,107.4,208z"/>
<path class="st1" d="M16.2,165L16.2,165l0.4,0.4c0,0.9,0.1,0.1-0.9,2.5c-3.7,9-5.9,19.9-7.2,29.7c-0.7,6.3-1,11.7-1.2,15.7
	c-0.3,4.8,0.2,9.5,1.4,14.2c0.5,1.8,1.1,3.5,1.8,5.3c3,7,8.3,12.7,15.1,16.1c4.2,2,8.9,3.1,13.6,3c5.3-0.1,10.6-1.2,15.5-3.2
	c0.9-0.4,3.8-1.7,3.9-1.8l0.5,0c0,0,0.4,0.3,0.4,0.3l0,0.5c-0.5,0.6,0,0.3-3.3,1.9c-3.6,1.7-7.3,2.9-11.2,3.6
	c-2.6,0.5-5.2,0.7-7.8,0.6c-0.6,0-1.2-0.1-1.6-0.1c-1.8-0.1-3.7-0.4-5.5-0.9c-1.8-0.5-3.6-1.1-5.2-1.8c-3.8-1.8-7.2-4.3-10.1-7.4
	c-2.5-2.6-4.6-5.7-6.1-9c-4.5-10.1-4.1-18.8-3.4-29.8c1.2-14.4,3.1-26.6,9.8-39.7l0,0l0.4-0.3L16.2,165z"/>
<path class="st1" d="M38,170.1l0.4,0.2l0.2,0.5c0,0.1,0,1.9,0,3.2l0,0c0,0.7,0.1,2.3,0.1,2.6c0.1,3.9,0.5,7.8,1.2,11.6
	c1.1,7.3,4.6,17.4,7.4,24.2c2.5,6.1,2.2,4.7,2.2,5.7c0,0-0.3,0.4-0.3,0.4s-0.5,0-0.5,0c-0.5-0.5-0.3-0.1-1.1-1.7
	c-0.6-1.1-2.3-4.3-3.7-7.5c-3.1-7.4-5.3-15.1-6.5-23.1c-1.5-9.7-0.2-14.6-0.1-15.5l0.3-0.5L38,170.1L38,170.1z"/>
<path class="st1" d="M53.4,207.2l0.4,0.3c0,0,0,0.5,0,0.5l-0.4,0.5c-0.7,0.6-1.5,1.1-2.3,1.4c-0.1,0-0.8,0.4-3.2,1.3l0,0
	c-0.2,0.1-0.5,0.2-0.7,0.2c-0.1,0-0.4,0-0.5,0c-0.7,0-0.3,0.1-1.4-0.4c0.5-1.1,0.3-0.8,0.8-1.2c0.3-0.3,0.7-0.5,1-0.6
	c0.2,0,3.7-1.6,5-1.8C52.5,207.2,53,207.2,53.4,207.2z"/>
<ellipse transform="matrix(0.9975 -7.017433e-02 7.017433e-02 0.9975 -9.5071 15.8914)" cx="221.4" cy="143.3" rx="2.5" ry="2.8"/>
<path class="st1" d="M222.3,133L222.3,133c0.3,0.1,0.6,0.2,0.8,0.4c0.1,0.1,0,0,0.5,0.5l0.1,0.5l0,0l0,0l-0.3,0.3l-0.6,0.1
	c-0.2,0-0.4,0-0.6,0c-0.5,0-1,0.1-1.4,0.2h0c-0.5,0.1-1,0.2-1.5,0.4c-0.6,0.3-1.2,0.7-1.7,1.2l0,0c-0.2,0.2-0.4,0.4-0.6,0.5l0,0
	c-0.5,0.4-1.1,0.7-1.8,0.8l-0.2-0.9c0.1-0.4,0.2-0.8,0.4-1.1l0,0c0.2-0.3,0.4-0.6,0.6-0.8l0,0c0.6-0.6,1.4-1.1,2.2-1.5
	c0.7-0.3,1.5-0.6,2.3-0.7C221.1,132.6,221.7,132.8,222.3,133z"/>
<path class="st1" d="M220.9,159.7l0.4,0.3l0.1,0.6c-0.1,0.8-0.3,1.6-0.6,2.3c-0.1,0.1,0.1-0.3-0.3,0.5l0,0c-1.1,1.6-2.5,3-4.2,3.9
	c-0.6,0.3-1.2,0.6-1.8,0.8c-0.5,0.1-1,0.1-1.6,0c-0.4-0.1-0.1,0.1-1-0.6c0.9-1.1,0.2-0.5,1.9-1.5l0,0c0.9-0.3,1.8-0.8,2.6-1.4l0,0
	c0.9-0.7,1.7-1.5,2.3-2.4l0,0c0.1-0.2,0.6-0.7,0.9-1.1l0,0c0.2-0.3,0.4-0.6,0.5-0.9l0,0l0.4-0.4L220.9,159.7L220.9,159.7z"/>
<path class="st1" d="M101.9,35.6l0.4,0.3c0.3,0.9,0.1-0.3,0.1,4.3c0,4.8,0,4.6-0.3,5c-0.9,1-1.5-0.2-3.7,0.5
	c-0.8,0.2-1.4,0.7-1.9,1.3c-0.6,0.7-0.8,1.6-0.7,2.5l0,0v0c0,0,0,0.1,0,0.2c0.2,0.5,0.6,0.9,1.1,1.2c1.5,0.9,4.2,0.4,5.1,0.6
	c0.9,0.4,0.6,0.9,1,2.5c0.3,1.7,1.2,3.2,2.5,4.4l0,0c1.7,1.3,1.7-0.5,1.4,6.5c-0.1,2,0,1.5-0.3,2.2l-0.5,0.2h0
	c-0.9-0.4-0.7,0.2-1.1-6.7c-2-0.9-3.7-2.9-4.4-6.5l0,0c0-0.2-0.1-0.3-0.1-0.4C99.1,54,97.5,53.7,96,53c-0.8-0.5-1.5-1.1-1.9-1.9
	c-0.3-0.7-0.5-1.4-0.4-2.1c0.2-3.4,3.2-5.9,6.5-5.7c0,0,0.1,0,0.1,0c0.1-1.7,0.3-3.3,0.5-5c0.4-2.4,0.3-2,0.7-2.5L101.9,35.6
	L101.9,35.6z"/>
<path class="st1" d="M122.5,36.4l0.5,0.2l0.2,0.5c0,0.7,0.5,4.6,0.5,6.9c1.2,0,2.4,0.3,3.5,0.8c1.5,0.9,2.4,2.5,2.4,4.2
	c0,0.3,0,0.6-0.1,0.9c-0.6,3.2-3.3,4.3-6.5,4.4c-0.2,0-0.1-0.1-0.2,0.4c-0.5,2.3-1.8,4.3-3.7,5.6c-0.2,0.1-0.1-0.3-0.3,2.7
	c-0.2,3,0,2.3-0.4,3l-0.5,0.2h0l-0.5-0.2c-0.3-0.7-0.2-0.2-0.3-2.1c-0.2-4.9-0.1-3.6-0.1-4c-0.1-0.4,0.1-0.7,0.4-0.9l0,0
	c0.8-0.5,1.5-1.2,2-2c0,0,0.1-0.1,0.1-0.2c0.4-0.7,0.7-1.5,1-2.3c0.4-1.3,0.1-1.7,0.7-2.2c0.6-0.4,0.9-0.1,2.5-0.2c1,0,2-0.4,2.8-1
	c0.8-0.9,1-2.2,0.5-3.3c-0.6-1.2-2-1.4-3.4-1.5c-1,0-1.6,0.2-2.1-0.7c-0.1-0.3-0.1-0.6-0.1-0.9c0-2.5,0.1-5,0.3-7.5l0.2-0.5
	L122.5,36.4L122.5,36.4z"/>
<path class="st1" d="M114.1,52.3c-0.1,1,0,1-0.3,1.4c-0.3,0.4-0.7,0.8-1.1,1c-1.1,0.5-2.4,0.4-3.4-0.2c-0.4-0.2-0.4-0.2-0.7-0.7l0,0
	c-0.1-0.2-0.2-0.4-0.2-0.4l-0.1-1c2.1-0.2,1.7,0,2.4,0.3c0.7,0.2,0.9-0.1,1.5-0.2C113.5,52.3,112.6,52.3,114.1,52.3z"/>
<path class="st1" d="M111.9,42.2c0.5,1.4,0.3,0.7,0.3,4.1c0,1.1-0.1,2.1-0.3,3.2c0,0.3-0.2,0.6-0.3,0.9l-0.4,0.2h0l-0.4-0.2
	l-0.3-0.5l0,0c-0.6-2.1-0.5-2.6-0.4-5.6c-0.1-0.6,0-1.1,0.3-1.7c0.3-0.6,0.1-0.4,1-1.2C111.3,41.5,111.9,42.2,111.9,42.2z"/>
<ellipse transform="matrix(4.354968e-02 -0.9991 0.9991 4.354968e-02 59.0056 147.3884)" cx="106.5" cy="42.9" rx="1.8" ry="1.4"/>
<ellipse transform="matrix(4.354968e-02 -0.9991 0.9991 4.354968e-02 67.8202 157.4385)" cx="116.1" cy="43.3" rx="1.8" ry="1.4"/>
<path class="st2" d="M123.2,155.4c4.6-1.1,12.5-7.4,11.5,4.3c-0.6,6.8-2.6,14.6,0,21.3"/>
<path class="st0" d="M105.9,59.3c0.4,0,0.7,0.1,1.1,0.1c0.7,0.3,1.5,0.5,2.2,0.6c0.7,0.1,1,0,1.4,0.1c1.9,0.2,1.4,0.1,2.1,0.4
	l0.3,0.4c0,0-0.1,0.4-0.1,0.5l-0.5,0.4l0,0c-0.8,0.4-1.7,0.7-2.6,0.7c-1.1,0-2.1-0.2-3.1-0.6c-0.6-0.1-1.1-0.5-1.4-1
	c-0.3-0.4-0.2-0.1-0.4-1.3C106.3,59.3,105.8,59.3,105.9,59.3z"/>
<path class="st0" d="M101.3,45c-2.1-3-2.5-6.9-0.8-10.2c-3.4-0.8-6.3-4-7.2-7.2c6.7,4,19.3-6.9,27.5-2.4c3.3,1.8,4.6,5.9,3.9,9.4
	c4.7,2.2,3.3,6.5,0.8,11.2c-1-0.3-2-0.5-3-0.4c-0.2-3.4,0.2-6.9-0.1-10.3c-1.8,0.5-3.7,0.8-5.6,1c-4.3,0.5-9,0.7-13.2-0.5
	c-1.6,3.1-2.4,6.5-2.3,9.9"/>
<path class="st0" d="M94,26.6c5.5,2.9,14.5-4.2,23-3.7c5.9,0.4,9.1,4.6,9.1,9.9c0,1.7-0.4,0.5,1.2,1.9c2.9,2.9,1.8,6.4,0.1,10.1
	c-0.6,1.2-0.8,2.1-1.9,1.9c-0.9-0.3-1.8-0.5-2.8-0.4c-1.2-0.1-1.1-1.2-1.2-2.2c-0.1-1.8,0.1-6,0.1-7.8c-0.9,0.2-1.8,0.3-2.6,0.4
	c-10.1,1.2-14-0.2-14.3-0.2c-0.2-0.1-0.3-0.1-0.3-0.1c-0.4,0.8-0.7,1.6-1,2.5c-0.6,1.8-1,3.6-1,5.5c0,1,0.2,0.6-0.2,1.4l-0.5,0.2h0
	l-0.5-0.2l-0.2-0.5l0,0v-0.1l0,0c-1.5-2.1-2.3-4.6-2.2-7.2c0.1-0.9,0.3-1.9,0.6-2.7c-2-0.8-3.8-2.1-5.1-3.8c-0.8-1-1.4-2.1-1.8-3.3
	c-0.1-0.3-0.2-0.7-0.1-1c0.1-0.5,0.6-0.9,1.1-0.9C93.6,26.4,93.8,26.4,94,26.6z M101.5,34.4c0.1,0.2,0.1,0.4,0,0.6
	c-1.2,2.2-1.5,4.7-0.7,7.1c0.1,0.2,0,0.2,0.1-0.3c0.2-1.8,0.7-3.6,1.4-5.3c0.7-1.6,0.7-1.8,1.2-2c0.1,0-0.1,0,0.3,0
	c1.7,0.4,3.5,0.7,5.3,0.7c3.8,0,7.6-0.3,11.3-1c0.6-0.1,1.3-0.3,1.9-0.5c0.5-0.1,1,0.2,1.2,0.7c0.4,1.1,0.1,6.4,0.1,9.6
	c0.4,0,0.9,0.1,1.3,0.2c0.1-0.2,0.3-0.7,0.4-0.9c0.5-0.9,0.8-1.9,1.1-2.9c0.6-2.6-0.1-3.8-1.6-4.7c-0.7-0.4-0.7-0.3-1.1-0.7
	c-0.6-0.9,0.3-0.8-0.2-4.1c-0.3-1.9-1.4-3.6-3-4.8c-6.8-4.3-17.8,4.3-25.2,3.1c1.1,1.8,2.7,3.3,4.7,4.1
	C100.8,33.8,101.2,33.7,101.5,34.4z"/>
<path class="st3" d="M144.4,81.8c0,0-9.8,9.7-30.7,12.5c-8.5,1.1-17.2-1.5-24.9-5.2c-3.7-1.8-8.1-4-10.8-7.2
	c0.8-2.6,3.3-4.9,5.4-6.6c4.9-4,11.2-7.3,17.6-8.1c1,1.9,2.7,3.3,4.7,4.1c5.9,2.6,12.3,0.6,16.1-4.5
	C130.5,67.7,140.3,74.7,144.4,81.8z"/>
<path class="st3" d="M139.3,86.6c-5.7,3.5-11.9,6.1-18.5,7.6c-11,2.5-19.9,2.7-35.6-5.6c-2.9-1.4-5.6-3.3-7.8-5.7
	c-0.3-0.3-0.5-0.6-0.5-1c0.2-0.8,0.5-1.6,1-2.4c0.4-0.7,0.9-1.3,1.4-1.9c2.4-2.6,5.3-4.9,8.3-6.7c3.9-2.5,8.3-4.1,12.9-4.8
	c0.5-0.1,1,0,1.3,0.3c0.5,1.1,1.4,2.1,2.4,2.8c4.7,3.1,11.2,3.2,16.1-2.4l0,0c1-1.2,0.8-1.2,2.4-1c8.1,1.3,17.5,7.4,22.2,15.6
	c0.2,0.3,0.2,0.7-0.1,0.9l0,0C143.2,83.9,141.3,85.4,139.3,86.6z M120.9,69.3c-3,3.1-7.2,4.6-11.4,4.1c-4.3-0.5-7.9-2.9-9.1-5.1
	c-4.7,0.8-9.2,2.6-13.1,5.3c-2.4,1.5-4.5,3.4-6.4,5.5c-0.6,0.7-1.1,1.5-1.5,2.4c1,1.1,2.2,2.1,3.4,2.9c3.7,2.3,7.7,4.3,11.8,5.9
	c8,3.1,14.1,3.5,19.5,2.8c9.3-1.3,19.6-4.4,27.5-9.9c0.7-0.5,1.4-1,2-1.5c-4.3-6.8-13.2-12.7-21.3-13.9
	C121.8,68.3,121.4,68.8,120.9,69.3z"/>
<path class="st0" d="M128.7,15.2c9.9,0.8,28.3,3.2,37.7,7.9c5.4,2.5,9.9,6.6,12.9,11.6c1.1,1.9,2,4,2.5,6.2
	c1.9,8.2-0.8,15.9-5.9,22.7c-3.1,3.9-6.4,7.5-10.1,10.8c-5.1,4.7-10.6,9.1-16.4,13c-6.8,4.7-6.6,4-5.2,3.9c3-0.2,5.9,0.3,8.7,1.2
	c4,1.4,5.4,5.2,3.8,8.3c-4,8.2-23.5,6.3-26.8-0.5c-0.2-0.4-0.4-0.9-0.5-1.3c-14.2,1.3-32.2,4.7-55.8-8.1c-6.1-3.4-11.5-7-15.5-12.6
	c-1.5-2.1-2.8-4.3-3.9-6.7c-3.7-8.3-4.3-17.8-1.6-26.5C61.7,17.4,99.8,12.9,128.7,15.2z M139.7,92.5c0.2-0.7,0-0.3,3.3-2.4
	c11.5-7.3,30.3-22.2,35.4-34.1c1.4-3.1,2.1-6.4,2.1-9.7c-0.1-5.9-2.6-11.6-6.9-15.6c-4.5-4.2-8.8-6.3-14.7-8.1
	c-6.8-2-16.4-3.5-22.9-4.3c-21.7-2.6-52.6-2.1-69.6,11.5c-10.5,8.1-15.2,21.7-12.1,34.6c2.6,10.6,8.2,17.1,16.2,22.2
	c17.3,10.8,32.3,12.9,50.9,11.3c9.3-0.9,9.4-1.2,10-0.4c0.2,0.2,0.2,0.5,0.2,0.8l0,0.2v0c-0.2,5,16.5,9.3,22.8,3.1
	c2.3-2.7,1.4-5.6-1.1-6.9c-1.9-0.8-4-1.3-6.1-1.6c-2.3-0.2-4.6-0.1-6.9,0.3v0C140.1,93.3,139.7,93,139.7,92.5
	C139.7,92.6,139.7,92.5,139.7,92.5L139.7,92.5z"/>
<path class="st3" d="M152.8,183.9c-4-3.2-9.3-4.9-14.2-6.1c-6.2-1.4-18.7-0.4-18.8-0.3c-4.8,4.6-9.3,9.4-15,12.9
	c-2.3,1.4-7.5,2.2-6.2-2.1c-2.1,0.8-3.9,2.1-5.4,3.7c2.5,5.5,4.6,10,7.2,15.5c2.6-1.1,4.4-1.4,7-2.5c7.9,5.3,13.3,15.2,16.2,24.1
	c1.1-1.9,2.3-3.9,3.6-5.7c-1.5-4.2-3.3-12.5,3.5-12.9c-0.4-5.2,1.3-11,7.6-10.3c-0.2-2.7-0.2-5.7,1.3-8c1.9-2.9,6-1.6,7.9,0.5
	C148.9,189.9,152.8,183.9,152.8,183.9z"/>
<path class="st3" d="M149.7,190.3c-1.9,3.2-1.8,3.4-2.6,3.4c-0.4-0.1-0.4-0.2-0.6-0.4c-0.7-0.7-1.6-1.2-2.6-1.5
	c-0.7-0.2-1.4-0.3-2.1-0.1l0,0h0c-0.4,0.1-0.8,0.3-1.1,0.5l0,0l0,0c-1.1,1.3-1.8,3-1.8,4.7c-0.1,3.1,0.3,3.2,0,3.9
	c-0.2,0.3-0.6,0.5-1,0.4c-1.1-0.1-2.3,0-3.3,0.5c-1.3,0.8-2.2,2.1-2.6,3.5c-0.2,0.6-0.3,1.1-0.4,1.7c-0.5,3.6,0.4,3.8-0.6,4.6l0,0
	c-1,0.5-5.2-0.4-4.1,7l0,0c0.3,1.5,0.6,3.1,1.2,4.6c0.3,1-0.2,0.7-3.2,5.9c-0.4,0.7-0.6,1.2-1.3,1.3c-0.5,0-1-0.3-1.1-0.8
	c-1.5-4.5-3.5-8.9-6-13c-2.4-4-5.5-7.5-9.3-10.2c-0.9,0.3,1-0.3-3.4,1.2c-1.9,0.6-2.9,1-3.2,1.1c-0.5,0.1-1-0.1-1.3-0.6
	c-4.9-10.8-7.3-15.3-7.3-16.1c0-0.3,0.1-0.5,0.3-0.7c1.2-1.3,2.6-2.3,4.1-3.1c0.6-0.4,1.3-0.7,2-0.9c0.5-0.1,1,0.2,1.2,0.7
	c0.2,0.5,0,0.6-0.1,1.2c0,0.2-0.1,0.4,0,0.6v0v0c0,0,0,0,0,0.1v0c0,0,0,0.1,0,0.1v0l0,0l0,0v0c0,0,0,0,0,0v0l0,0v0l0,0v0l0,0h0v0
	l0,0h0v0l0,0l0,0h0l0,0h0l0,0l0,0l0,0c0,0,0,0,0,0l0,0l0.1,0l0,0l0.1,0l0,0c0,0,0.2,0.1,0.2,0.1h0c0,0,0,0,0.1,0h0l0,0h0l0,0
	c2.7,0.1,4.2-1.1,6.4-2.6c5.9-4.3,11.5-10.5,12.5-11.2c1-0.4,13-1,19,0.2c5.1,1.1,11.1,3.3,15,6.6l0,0
	C153.9,184,153.5,183.9,149.7,190.3z M147,191.6L147,191.6c0.4-0.7,4.6-7.2,4.8-7.5c-3.7-2.7-9-4.4-13.5-5.3
	c-3.1-0.8-10-0.6-13.2-0.5c-0.9,0-4,0.2-4.9,0.3c-6.6,6.3-8.2,8.1-13.1,11.6c-1.5,1.2-3.2,2-5.1,2.4c-1.3,0.2-3,0.2-4-0.7
	c-0.5-0.4-0.8-1-0.9-1.6c-1,0.5-2,1.2-2.8,2.1c1.5,3.4,5.8,12.5,6.4,13.8c1-0.4,4.3-1.4,5.3-1.8c1.4-0.5,1.1-0.6,2.9,0.7
	c3.5,2.7,6.5,6.1,8.9,9.8c2.3,3.7,4.3,7.6,5.8,11.7c0.1-0.1,1.3-2.2,2-3.2c-1.2-3.6-2.2-8.8,0.2-11.8c0.9-1,2.1-1.7,3.4-1.9
	c-0.2-2.8,0.6-5.6,2.2-7.9c0.4-0.5,0.9-1,1.5-1.3c1.2-0.8,2.6-1.2,4-1.1c-0.2-3.1,0.5-7.4,3.2-8.9
	C141.7,189.4,144.4,189.5,147,191.6L147,191.6z"/>
<path class="st3" d="M131.2,282.6c-8-5.4-12.2-14.9-10.9-24.4c-8.5,4.8-17.4,7.3-27.1,5c1.5,6.6,3,13.3,4.5,20
	c3.8-0.1,22.4-0.4,33.9-0.3"/>
<path class="st3" d="M120.4,257.1c0.5,0.1,0.9,0.5,0.9,1.1c0,0.2-0.1,0.8-0.1,0.9c-0.3,2.8-0.1,5.7,0.6,8.5c0.8,3.5,2.4,6.8,4.6,9.7
	h0c1.5,1.9,3.2,3.5,5.1,5l0.4,0.2c0.7,1.6,0.7,1.1-13.7,1.4c-15,0.4-4.6,0-20.6,0.5c-0.5,0-1-0.4-1.1-0.9
	c-4.8-21.5-4.6-19.9-4.5-20.5c0.2-0.5,0.6-0.8,1.2-0.8c3.6,0.9,7.3,1.1,11,0.6c4.1-0.5,8-1.7,11.7-3.5
	C119.8,257.3,119.6,257,120.4,257.1z M96.7,264.9c-0.1,0-2-0.3-2.1-0.3c0.8,3.4,3.2,13.9,3.9,17.3c0.9-0.3,25.8,0,30.6,0.1
	c-0.1-0.1-1-0.8-1.5-1.2c-0.9-0.8-1.7-1.6-2.5-2.5c-4.3-5-6.6-11.5-6.2-18.2C112,263.8,104.5,265.9,96.7,264.9z"/>
<path class="st0" d="M203.9,177c0.5,0.4,1,0.7,1.6,0.9l0.6,0.3l0,0c1,0.6,2.2,1,3.4,1.3c1.1,0.2,2.3,0.3,3.5,0.2
	c1.4-0.1,2.7-0.4,4.1-0.7c0.5-0.1,0.9-0.3,1.4-0.6l0.5-0.1l0.4,0.2h0l0.1,0.5l-0.3,0.5l0,0c-0.5,0.4-0.9,0.8-1.5,1.1
	c-1.3,0.7-2.7,1.2-4.2,1.3c-2.1,0.2-4.3,0-6.3-0.6c-0.8-0.3-1.6-0.6-2.4-1.1l0,0l-0.4-0.3c-0.7-0.6-1.3-1.2-1.7-2l0,0l-0.1-0.5
	l0.2-0.4l0,0l0.4-0.1L203.9,177z"/>
<path class="st0" d="M206.6,179c0.3,0.6,0.2,0.2,0.5,1.9c0.3,1.9,0.3,3.9,0.2,5.8c0,0.3,0,0.5-0.2,0.8c-0.5,0.7-1,0.5-2.2,0.6
	c-3.6,0.2-7.2,0.6-10.7,1.2c-1.7,0.3-1,0.3-1.9,0.2L192,189c0,0,0.1-0.5,0.1-0.5l0.4-0.4l0,0c2.9-1.3,6-2,9.1-2.2
	c3.8-0.3,3.5-0.1,3.5-0.3c0-0.2,0-1.1,0-1.6l0,0c0-1.1,0-2.2,0.2-3.2c0,0,0.2-1.3,0.2-1.4l0,0l0.3-0.5l0.4-0.2l0,0L206.6,179z"/>
<path class="st0" d="M240.4,138.3L240.4,138.3c0.4,0.2,0.8,0.5,1.2,0.7c5.1,3.7,4.8,9.9-0.4,13.5c-1.5,1.1-3.2,1.8-5,2.2
	c0,4.1-0.6,8.1-1.8,11.9c-1,3.1-2.5,6-4.5,8.6c0,0.1,0.1,5.3,0.4,9.8c3.7,1,7.4,2.3,10.9,3.8c1.2,0.6,0.9,0.3,1.3,0.9l0,0.5
	l-0.4,0.4c-0.1,0-0.7,0-0.5,0c-4-1.5-8.1-2.7-12.2-3.7c-0.2,0-0.4-0.1-0.6-0.1l0,0c-0.5-0.3-0.5-0.7-0.6-1.4
	c-0.2-2.2-0.5-5.3-0.6-9.6c0-1.8,0-1.3,0.9-2.5l0.4-0.5c1-1.4,1.8-2.9,2.5-4.5c1.9-4.6,2.8-9.6,2.6-14.5c0-0.5,0.3-1,0.8-1.1
	c0.8-0.1,1.6-0.3,2.4-0.6c3.2-1.3,6-3.5,5.8-7c0,0,0-0.2,0-0.2c-0.1-1-0.5-2-1-2.8l0,0c-0.6-0.9-1.5-1.7-2.4-2.3
	c-1.2-0.8-2.6-1.2-4.1-1.2l-0.5-0.2l-0.2-0.5l0,0l0.2-0.5c0.6-0.3,0.4-0.2,0.9-0.3C237.4,137.3,239,137.6,240.4,138.3z"/>
<path class="st0" d="M195.3,120.6c2.9,1.5,5.7,3.3,8.9,4c7.2,1.7,15.6-1.2,21-6.1c0.8,8,2.4,17.1,11.1,19.3c0.6-5,0-10.9-2.2-15.5
	c-2.5-5.2-8-9.1-13.6-10.3c-4.8-1.1-9.7-0.9-14.4,0.7c-1.9,0.7-3.6,2-5.6,2.5c-0.8,0.2-2-0.1-1.9-1.2c0.2-1.2,0.8-2.2,1.6-3
	c2.8-2.1,6-3.5,9.4-4.2c5-0.9,12.9,0.1,17.4,2.6c4.5,2.8,8.2,6.8,10.6,11.5c2.1,0.1,3.3,0.5,5-1c2.1-1.7,1-5.4-6.3-6.3
	c1.4-0.4,2.7-1,3.9-1.8c1.3-0.6,2.3-1.6,3.1-2.8c1.3-2.6-0.5-5.2-3.3-5.5c-2.9-0.3-6.2,1.9-8.2,3.9c1.4-2.3,3.3-4.3,4.1-7
	c1-3.4-0.4-5.6-3.7-3.9c-2.7,1.3-4.4,4.3-6,6.7c1-1.8,1.7-3.6,2.2-5.6c0.6-3,0.1-9.2-4.6-7.8c-4,1.2-6.2,5.8-7.5,9.8
	c0.3-3,1.6-10.2,0.1-13.1c-0.6-1.5-2.3-2.2-3.8-1.5c-0.3,0.1-0.6,0.3-0.9,0.6c-0.5,0.4-0.9,0.9-1.3,1.5c-2.5,3.7-2.5,8.3-2.8,12.6
	c-0.7-3-1.6-6.4-4-8.6c-3.6-3.4-6.5,1.2-6.8,4.7c-0.2,3.4,1.1,6.4,2.1,9.5c-1.9-2.8-3.3-6.9-6.3-8.9c-3.1-2-5.5,1-5.5,4.1
	c0,3.6,2.8,7.3,4.7,10.3c-2.3-2.2-5.4-5.3-8.9-5.1c-2.4,0.1-5,5.4-0.2,10.6c3.2,3.5,7.6,3.6,12,4"/>
<path class="st0" d="M236.7,96c1.4,2.1,0.5,4.9-0.7,7.1c0,0,0.1-0.1,0.2-0.1c7.9-3.1,11.6,5,6.1,8.7c-0.5,0.4-1.7,1.2-2.3,1.5
	c0.7,0.2,1.3,0.5,2,0.8c3,1.6,4,5,0.7,7.2c-1.6,1-2.8,0.9-4.6,0.8c-0.7,0-0.7,0-1-0.2c-0.7-0.5-0.1-0.3-2-3.2c-2-3-4.5-5.6-7.4-7.6
	c-5.3-3.5-14.4-4.2-19.1-2.8c-2.4,0.7-4.7,1.7-6.8,3.1c-0.6,0.3-1.1,0.8-1.4,1.3c-0.3,0.4-0.5,0.9-0.5,1.4l0,0c0.1,0,0.2,0.1,0.3,0
	c1.4-0.5,2.7-1.1,4-1.8c9.2-4.6,24.8-2.3,30.8,9.2c1,2.1,1.8,4.3,2.2,6.6c0.5,3,0.7,6.1,0.4,9.1c-0.1,0.7,0,0.8-0.3,1.1
	c-0.3,0.4-0.8,0.6-1.3,0.4c-0.8-0.2-1.6-0.5-2.3-0.8c-5.8-2.8-7.7-8.4-8.8-14.7c-0.1-0.6-0.3-2.1-0.4-2.8c-4.4,3.4-9.9,5.4-15.5,5.5
	c-7,0-11.1-3.4-13.9-4.7c-0.6-0.7,0.3-0.2-3.8-0.7c-4.5-0.5-7.8-1.9-10.2-5.8c-0.3-0.5-0.6-1-0.8-1.6c-0.5-1.1-0.7-2.3-0.6-3.5
	c0.1-2.3,1.4-4.9,3.8-5c1.8,0,3.5,0.6,4.9,1.6l0,0c-1.2-2.4-2.2-4.8-1.6-7.5c0.8-3,2.6-4.2,4.4-4.2c2.1,0,3.8,1.7,5.1,3.4
	c0-0.2-0.1-1.2-0.1-1.3c-0.1-5.7,4.2-10.1,8.2-6.8c1.2,1.1,2.2,2.5,2.9,4c0.3-2.9,1.2-5.6,2.8-8c1.4-1.9,3.4-2.9,5.6-2
	c3.1,1.6,2.8,5.5,2.7,9c0.3-0.5,0.6-0.9,1-1.3c3.6-3.9,8.5-4.5,10,0.1c0.5,1.6,0.7,3.4,0.5,5.1c0.9-0.8,1.9-1.4,3-1.8
	C234.6,94.5,236,95,236.7,96z M214.1,105.3c4.4,0.1,9.9,1,13.7,3.2c3.3,2,6.1,4.7,8.4,7.8c0.8,1.1,1.5,2.3,2.2,3.5
	c0.7,0.1,1.4,0.1,2.1,0c0.7-0.2,1.4-0.6,1.9-1.2l0,0l0,0l0,0l0-0.1l0,0l0,0v0l0,0c0-0.1,0-0.1,0-0.1v0l0,0v0l0,0v0l0,0l0-0.2v0v0v0
	v0v0v0c0-0.1,0-0.1,0-0.2l0,0v0l0,0v0l0,0v0l0-0.1c0-0.1-0.4-1-2.2-1.9c-1.2-0.5-2.5-0.8-3.8-1c-0.5,0-0.9-0.3-1.1-0.7
	c-0.2-0.5-0.1-1.1,0.4-1.4c0.4-0.2,0.9-0.3,2-0.8c1.1-0.5,3.8-2,4.5-3.1c0.9-1.1,0.6-2.7-0.5-3.6c-0.3-0.2-0.6-0.4-1-0.5
	c-1.6-0.4-3.2-0.1-4.6,0.8c-1.3,0.7-2.4,1.6-3.5,2.6c-0.2,0.2-0.4,0.3-0.7,0.3c-0.3,0-0.5,0-0.7-0.2c-0.4-0.3-0.6-0.9-0.4-1.4
	c0.9-1.6,5-6.2,4.3-9.2l0,0c0,0,0,0,0-0.1l0,0v0l0,0v0l0,0v0c-0.1-0.3-0.2-0.3-0.2-0.3l0,0v0l0,0v0l0,0v0l0,0l0,0l0,0v0l0,0v0h0l0,0
	h0v0h0v0l0,0l0,0l0,0l0,0c-0.1-0.1-0.3-0.1-0.4-0.1c-1.2,0.2-2.3,0.7-3.1,1.6c-3.7,3.7-3.5,6.1-5.2,5.6c-0.5-0.2-0.8-0.7-0.7-1.2
	c0.2-0.7,2.1-3.7,2.4-6.4c0.2-1.7,0-4.5-1.3-5.6c-1.1-0.9-3.1,0.1-4.1,1c-2,1.5-3.4,4.5-4.3,6.9c-0.4,1.2-0.4,1.4-1,1.7
	c-0.2,0.1-0.5,0.1-0.8,0c-1.8-0.7,0-2.6,0-10.7c0-1.4-0.2-3.4-1.5-4c-0.3-0.1-0.6-0.2-0.9-0.1c-0.8,0.2-1.4,0.7-1.9,1.4
	c-2.4,3.5-2.5,7.3-2.8,11.8c0,0.7,0,1-0.5,1.4c-0.4,0.3-1,0.3-1.4,0c-0.7-0.7-0.3-1.3-1.7-5.1c-0.1-0.1-0.3-0.6-0.4-1
	c-0.6-1.3-2.1-3.5-3.6-3.5c-0.8,0.1-1.5,0.6-2,1.3c-2.6,3.8-0.7,8.1,0.7,12.5c0.2,0.4,0.1,0.9-0.2,1.2c-0.4,0.3-0.9,0.3-1.3,0.1
	c-1.3-1.2-3.8-8.3-7-9.3c-0.6-0.2-1.3-0.1-1.8,0.3c-4.7,4.3,3,12.4,3.2,13.7c0,0.5-0.3,0.9-0.8,1c-0.1,0-0.3,0-0.4-0.1
	c-0.9-0.5-4.5-5.1-8.3-5.1c-0.3,0-0.6,0.1-0.8,0.2c-2.5,1.9-1.7,7,1.7,9.7c2.7,2.5,6.8,2.7,10.4,3.1c0.5,0,0.3,0,0.9,0.3l0.1,0.3
	c3.8,2,6.9,3.8,10.8,4.2c3.9,0.3,7.8-0.4,11.4-2c2.5-1.1,4.7-2.6,6.7-4.4c0.3-0.3,0.8-0.3,1.2-0.1c0.7,0.6,0.2,0.7,1.1,5.8
	c0.4,2.3,1.1,4.6,2,6.7c1.5,3,3.2,4.9,6.4,6.1l0,0c0.2-3.6-0.1-7.1-1.1-10.5c-0.5-1.7-1.3-3.4-2.2-4.9c-3.9-5.6-10.8-9.1-19.6-8.5
	c-6.1,0.5-7.7,2.4-10.7,3.6c-0.9,0.4-1.9,0.5-2.8,0.1c-0.3-0.1-0.6-0.3-0.8-0.5c-0.3-0.3-0.5-0.8-0.5-1.2c0-0.9,0.2-1.8,0.7-2.5
	c0.7-1.2,1.7-2.2,2.9-2.8c2-1.2,4.1-2.2,6.3-2.8C209.6,105.6,211.9,105.3,214.1,105.3z"/>
<path class="st3" d="M184.8,186.9c0.3,0.6,0.2,0.2,0.3,1.7c0.3,3.1,0.5,6.2,0.5,9.3c0.2,12.2,0.3,11.2,0.4,19.8
	c-0.1,8.2,0,7.4-0.8,7.8h0l-0.5-0.2c-0.3-0.7-0.2-0.3-0.3-1.7c-0.7-8.7-0.6-9.9-0.8-15.1c-0.4-15-0.4-14.7-0.2-17.5
	c0.1-1.4,0.3-3.4,0.3-3.5l0,0l0.2-0.5l0.5-0.2h0L184.8,186.9z"/>
<path class="st3" d="M249.6,184l0.5,0.2l0.2,0.5c0.5,4.7,0.3,23.8,0.3,24.8c0,4.6-0.4,9.3-1.1,13.8c-0.3,1.8-0.2,1.5-0.5,2l-0.5,0.2
	h0c-0.9-0.5-0.5,0.2-0.3-7.3c0.6-21.7-0.2-23.8,0.7-32.6c0.1-1.2,0-0.8,0.4-1.4L249.6,184L249.6,184z"/>
<path class="st0" d="M217.3,218c0.6,1.2,0.4,0.5,0.6,3.5c0.2,1,0.1,1.9-0.2,2.9l0,0l-0.3,0.6l-0.4,0.2h0c-0.5-0.3-0.3-0.1-0.7-0.7
	l0,0c-0.3-0.7-0.5-1.4-0.6-2.1c0-0.1-0.3-3-0.2-3.3c0-0.2,0.1-0.4,0.2-0.6c0.2-0.4,0-0.2,0.8-1C216.6,217.4,217.3,218,217.3,218z"/>
<path class="st0" d="M130.2,213.6c2.4,2.7,0.3,0.3,4.1,5.3c5.8,6.7,5.5,6,5.2,7l0,0l-0.5,0.2l-0.6-0.2c0.4,0-2.5-0.8-7.2-7.2
	c-0.7-0.8-1.3-1.7-1.7-2.7c-0.2-0.5-0.4-1.1-0.6-1.7c0-0.7-0.1-0.4,0.3-0.9h0l0.5,0L130.2,213.6z"/>
<path class="st0" d="M135.1,205.3c0.6,0.7,1.1,1.4,1.6,2.1c2.9,5.3,3.5,5.8,4.6,7.7c2,3.7,1.7,2.8,1.9,3.6l-0.2,0.4l0,0l-0.5,0.1
	L142,219l0,0c-0.4-0.5-1.5-1.5-2.1-2.3c-1.9-2.6-3.6-5.4-5.2-8.3c-0.3-0.8-0.6-1.6-0.8-2.5c0-0.7-0.1-0.4,0.3-0.9l0,0l0.5,0
	L135.1,205.3z"/>
<path class="st0" d="M148.1,208.9l-0.5-0.2l0,0c-0.9-0.7-1.6-1.6-2.4-2.4c-1.4-1.9-2.6-3.9-3.5-6.1c-0.6-1.1-0.9-2.4-0.8-3.6
	c0-0.3,0-0.1,0.2-0.8l0.4-0.3h0l0.4,0.1c0.4,0.5,0.4,0.4,0.5,0.6c0.1,0.1,0.9,1.6,0.9,1.8c1.6,4.1,2.6,4.9,4.9,8.9
	c0.7,1.1,0.5,0.7,0.7,1.4l-0.2,0.5l0,0v0L148.1,208.9z"/>
<path class="st0" d="M157.7,195.8L157.7,195.8l0.4,0.4c0,2.4-6.8,15.1-6,34.9c0.1,3,0.5,7.5,0.6,9.2c1.3,12.1,1.7,11.3,1.5,12.5
	c0,0-0.4,0.3-0.4,0.3s-0.5-0.1-0.5-0.1l-0.3-0.4c-1.3-5.3-2.2-10.7-2.8-16.1c-0.5-6.2-0.4-12.5,0.3-18.7c0.3-2.8,1.1-6.7,1.1-6.8
	c0.9-4.4,2.3-8.7,4.2-12.7c1.1-2.4,1-2,1.4-2.4L157.7,195.8z"/>
<path class="st0" d="M128,228.8l0.4,0.4c0,1.7-0.3-0.5-1.9,8.2c-1.4,7.4-5,18.2-2.4,29.3c0.7,3.3,2.2,6.4,4.2,9.1
	c2.1,2.7,4.9,4.7,8.1,6c2.8,1.1,5.8,1.5,8.8,1.3c2.3-0.3,4.6-0.9,6.8-1.8c6.4-2.6,10.4-8.4,13.7-14.3c3.4-6.2,2.4-5.1,3.2-5.8l0.5,0
	l0.4,0.4c0,0.7,0,0.4-0.4,1.3c-2.2,4.8-5.2,11.2-9,15c-4.7,5.1-11.5,7.8-18.4,7.5c-8.8-0.6-16.4-6.4-19.3-14.8
	c-1.7-5.1-2.3-10.4-1.8-15.7c0.9-9.4,2-11.4,3.1-16c0.3-1,1.4-6.7,2.9-9.5l0,0l0.4-0.4L128,228.8L128,228.8z"/>
<path class="st0" d="M179.3,191.4l0.2,0.5l0,0l-0.2,0.5c-0.5,0.3-0.4,0.3-0.7,0.3c-4.3,0.6-9,3.7-12.4,6.4l0,0
	c-5.9,4.5-9.5,9.6-13.8,15.5c0,0-0.4,0.3-0.4,0.3l-0.5,0l0,0l-0.3-0.4c0-0.6,0-0.5,0.1-0.7c1.6-3.6,3.8-6.9,6.4-9.7
	c2.7-3.1,5.8-5.9,9.2-8.3c1.9-1.4,4-2.5,6.2-3.3c0.1,0,1.8-0.6,1.9-0.6c1.2-0.3,2.4-0.5,3.7-0.5L179.3,191.4z"/>
<path class="st0" d="M253.5,193.1c6.7,1.8,13.8,4.7,19.2,9.1c4.5,3.6,7.6,7.5,10.8,14.7c6.3,13.5,8.7,27.3,9.8,42.2
	c0.2,3.3,0.9,6.8,1.4,11.7c0.3,2.3,0.3,4.6,0.2,7l-0.2,0.5l-0.5,0.2h0l-0.5-0.2l-0.2-0.5c0.2-4.7-1.1-10.2-1.7-14.1
	c-1-6.3-1.1-14.3-3.7-25.9c-1.2-5.6-2.8-11-5-16.2c-1.9-4.4-4.5-10-7.7-13.6c-0.9-1-1.9-2-2.9-2.9c-5.1-4.6-12.6-8.2-19.4-10.6l0,0
	l-0.4-0.3c0,0-0.1-0.5-0.1-0.5l0.3-0.4L253.5,193.1z"/>
<path class="st0" d="M264.3,283.1c-0.4-0.5-0.3-0.2-1.1-2c-0.5-1.2-0.3-0.7-2-6.6l0,0c-0.3-0.8-0.3-1.6-0.2-2.4l0.5-0.9l0.9,0.5
	c0.3,0.5,0.6,1,0.9,1.5c0.1,0.2,1.7,5.6,1.8,6.3c0.1,0.4,0.2,1.6,0.3,1.7c0.1,1.3,0.1,0.9,0,1.6l-0.4,0.3
	C264.7,283.2,264.3,283.1,264.3,283.1z"/>
<path class="st3" d="M174.5,282.3c-2.2-18.3-6-37.3,2.8-54.5c8.9-2.1,62.7-2.3,80.2-0.8c6.1,18.7,2,37.8-1.7,56.5"/>
<path class="st3" d="M256.6,225.8c1.3,0.1,1.3,0.1,1.6,0.3c0.5,0.4,0.5,0.6,0.7,1.5c5.6,18.3,1.6,36.4-2.1,55.2
	c-0.2,1.1-0.1,0.8-0.5,1.3l-0.5,0.1h0l-0.4-0.3c-0.2-0.7-0.2-0.2,0.2-2.3c3.3-17.9,2.7-16.8,2.8-16.8c1.8-13.4,2.1-24.2-1.7-36.8
	c0,0-0.6,0-4.2-0.3c-16.3-0.7-32.8-0.7-48.2-0.5c-3.4,0.1-22.9,0.5-26.1,1.5c-2.5,5.2-4.1,10.8-4.7,16.6c-1.8,16,2.3,35.3,1.7,37.4
	l-0.5,0.3h0l-0.5-0.1l-0.3-0.5l0,0c-2.6-18.6-6.5-37.8,2.3-54.7c0.5-1.1,0.6-1,3.2-1.4C195.6,224.5,242.7,224.6,256.6,225.8z"/>
<path class="st4" d="M121.3,112.6c0.1,0.1,0,0.1,0.5-0.1c3.9,0.3,8.1,5.3,7.1,8.9l0,0.1l0,0c-1.4,5.3-8.7,3.7-11.5-1.1l0,0
	c-0.6-0.9-1-1.9-1.1-3c-0.1-0.8,0-1.5,0.3-2.3C117.3,113.2,119.3,112.1,121.3,112.6z M121.1,113.9c-0.4,0-0.8,0.1-1.2,0.3
	c-0.8,0.5-1.3,1.3-1.4,2.2c0,0,0,0.1,0,0.1c-0.3,1.7,1.3,4.6,4.7,5.8c0.6,0.2,1.3,0.3,2,0.2c0.7-0.2,1.3-0.8,1.5-1.6l0,0
	c0.1-0.6,0.1-1.2-0.1-1.8c-0.2-0.7-0.5-1.3-0.9-1.9c-0.9-1.7-2.4-2.9-4.2-3.4L121.1,113.9z"/>
<path class="st4" d="M131.8,106.8c2,0,4,2.4,3.9,4.8c-0.1,3-4.1,4.7-6.6,0.9c-0.8-1.1-0.9-2.5-0.3-3.7c0.1-0.2,0.3-0.4,0.4-0.6
	c0.8-0.8,0.6-0.4,0.8-0.8C130.5,107.1,131.2,106.8,131.8,106.8z M131.1,108.5l-0.1,0.1l0,0c-0.2,0.2-0.3,0.4-0.4,0.7v0l0,0
	c0,0.1,0,0.2,0,0.2l0,0v0.1v0v0.1v0v0v0v0v0v0v0v0v0v0l0,0.1v0c0,0,0,0,0,0.1v0l0,0v0c0,0.1,0,0.1,0,0.2v0c0,0,0,0.1,0,0.1l0,0l0,0
	l0,0v0l0,0v0l0,0v0c0.4,1.2,1.3,1.7,1.8,1.7c0.2,0,0.4-0.1,0.6-0.2l0,0v0c0,0,0,0,0.1-0.1v0l0,0l0,0l0,0l0-0.1l0,0v0l0,0v0v0
	c0,0,0,0,0-0.1v0l0,0v0l0,0v0l0,0v0l0,0v0l0,0v0l0,0v-0.1v0v0v0v-0.1v0v0v0v0v0v0l0,0v0C133.3,110.1,132.2,108.2,131.1,108.5
	L131.1,108.5z"/>
<path class="st4" d="M158.1,111.5c0.5,0,1.1,0.1,1.6,0.2c1.6,0.3,3,1.4,3.6,2.9c1.1,2.4-0.6,4.7-3.9,4.1c-1.3-0.2-2.6-0.8-3.7-1.6
	C153.3,115,154.5,111.5,158.1,111.5z M158.6,113.4L158.6,113.4c-0.4,0.1-0.8,0.2-1.2,0.4l0,0c-0.1,0-0.1,0.1-0.2,0.1
	c-0.4,0.2-0.4,0.3-0.5,0.4l0,0c0,0,0,0,0,0l0,0l0,0v0l0,0v0v0v0l0,0v0v0v0l0,0v0v0v0v0v0v0v0v0v0v0v0.1v0v0v0v0v0v0l0,0v0l0,0v0
	c0,0,0,0.1,0,0.1l0,0l0,0l0,0l0,0l0,0v0l0,0v0l0,0v0l0.1,0.1l0,0l0,0l0,0l0,0l0,0l0,0l0,0l0,0c0.9,1,3.4,1.6,4.2,1.2l0,0l0,0v0l0,0
	l0,0l0,0c0,0,0,0,0,0l0,0l0,0l0,0l0,0l0,0l0,0l0,0l0,0l0,0l0,0l0,0l0,0v0l0,0v0l0,0v0v0v0l0,0v0v0v0l0,0v0v0v0v0v0v0v0v0v0v0
	c0-0.3,0-0.6-0.2-0.9v0c-0.3-0.8-0.9-1.5-1.6-1.9h0C159.3,113.3,158.9,113.3,158.6,113.4L158.6,113.4z"/>
<path class="st0" d="M167.1,179.4c-1.9-0.6-3.5-1.7-4.8-3.2c-3.3,5.1-6.3,9.3-10.4,15c-0.9,1.3-2.9,4.3-1.9,6c1.7,2.7,4.8-1.5,6-3
	C160.3,188.1,162.3,185.5,167.1,179.4"/>
<path class="st4" d="M162.4,175.3c0.5,0.1,0.5,0.2,0.8,0.6c1.1,1.2,2.4,2.2,3.8,2.8l0,0l0.5,0.1l0,0l0.3,0.5
	c-0.1,0.3-0.1,0.2-0.1,0.4l-0.1,0.1l0,0.1l0,0c-10.4,14.3-10.8,15.4-12.7,17.3c-0.9,1.1-2.1,1.8-3.4,2.1c-1,0-1.9-0.4-2.4-1.3
	c-0.6-1-0.7-2.3-0.3-3.5c0.8-2.5,2.7-4.7,6.9-10.7C161.8,175,161.4,175.2,162.4,175.3z M151.1,194.9c-0.2,0.5-0.3,1-0.2,1.5v0
	c0,0,0,0.1,0,0.1l0,0l0,0l0,0l0,0l0,0v0l0,0v0v0c0,0.1,0.1,0.1,0.1,0.2c0,0,0.1,0.1,0.1,0.1h0l0,0l0,0h0l0,0h0l0,0h0l0,0l0,0l0,0
	l0,0h0l0,0l0,0l0,0h0h0h0h0l0,0l0.1,0l0,0h0l0,0h0h0h0l0,0h0l0,0h0c0,0,0,0,0.1,0l0,0c0.1,0,0.2-0.1,0.3-0.1l0,0
	c1.5-0.9,3.2-3.4,4.3-4.9c2.9-4,6.7-8.6,9.6-12.1c-0.5-0.2-1-0.4-1.5-0.7c-0.7-0.3-1.3-0.8-1.9-1.2
	C157.9,185.3,151.9,192.3,151.1,194.9L151.1,194.9z"/>
<path class="st4" d="M182.8,120.1L182.8,120.1c17,0.5,30.5,14.4,30.5,31.3c0,2.8-0.3,5.5-1,8.2v0c-4,15.5-18.7,25.7-34.6,24
	c-2.7-0.3-5.3-0.9-7.8-1.8c-12.4-4.6-20.7-16.3-21-29.6c-0.1-4.9,1-9.7,3.1-14.1c1.4-3,3.3-5.7,5.5-8.1
	C163.9,123.1,173.2,119.4,182.8,120.1z M177.8,122.7c-10,1.3-18.6,7.6-22.8,16.7c-2.1,4.5-2.9,9.5-2.5,14.5
	c1.3,15.7,15,27.4,30.7,26.1c14.4-1.2,25.6-12.9,26.2-27.4c0.1-1.7,0-3.4-0.3-5.1c-0.5-3.2-1.5-6.4-3-9.3c-2.8-5.5-7.3-10-12.8-12.8
	C188.7,123,183.2,122,177.8,122.7L177.8,122.7z M182.8,120.1L182.8,120.1C182.3,120.1,182.3,120.1,182.8,120.1z"/>
<ellipse transform="matrix(4.354968e-02 -0.9991 0.9991 4.354968e-02 30.4699 328.221)" cx="186.7" cy="148.2" rx="5.5" ry="4.1"/>
<path class="st4" d="M186.8,141.5c0.7,0,1.4,0.1,2,0.3c2.3,0.9,4,3.3,3.8,6.5c0,0.9-0.2,1.8-0.5,2.6c-0.6,2.1-2.3,3.8-4.4,4.5
	c-1.7,0.4-3.6-0.1-4.9-1.3c-0.8-0.7-1.4-1.7-1.7-2.7l0,0C179.4,146.9,182.3,141.3,186.8,141.5z M186.9,143.8
	c-2.2,0.4-2.9,3.6-2.3,5.8c0.2,1,0.8,1.8,1.8,2.2h0l0,0h0h0h0l0,0h0.1h0h0h0h0h0h0c0.9-0.2,1.6-0.9,1.8-1.8
	C189.6,147.7,188.3,144.3,186.9,143.8L186.9,143.8z M187,141.5L187,141.5z"/>
<path class="st4" d="M202.8,141.7l0.1,0.5c-0.1,2.1-0.2,4.1-0.5,6.2c-0.4,3.2-0.4,4.9-1.3,12.9c-0.2,0.9-0.3,1.8-0.4,2.7l0,0v0
	c0,0.1,0,0.2,0.1,0.3l0,0v0l0,0v0l0,0l0,0c0.1,0.2,0.5,0.4,1.1,0.5c0.4,0.1,0.1,0,0.7,0.3l0.2,0.5v0l-0.2,0.5
	c-0.6,0.2-0.5,0.2-0.8,0.2c-1,0.1-2-0.4-2.6-1.2l0,0c-0.2-0.4-0.4-0.9-0.4-1.5c-0.1-2.7,0.7-8.6,0.9-11.1c0.1-1.2,0-1.3,0.6-5.9
	c0.2-1.6,0.7-3.2,1.2-4.7l0.3-0.4l0.5-0.1C202.4,141.4,202.8,141.7,202.8,141.7z"/>
<path class="st4" d="M177.4,127.5c1.1,0,2.2,0.3,3.2,0.8l0,0c0.9,0.5,1.5,1.4,1.6,2.4c0.6,4.1-6.2,8.3-9.2,10.8
	c-1.7,1.5-3.2,2.9-5.5,3.2c-3.2,0.2-4.2-2.9-3.7-6c0.1-0.8,0.4-1.7,0.8-2.4c1.9-3.6,5-6.4,8.8-8c1.4-0.6,1.2-0.5,1.7-0.5l0.2-0.2
	C176.1,127.5,176.7,127.4,177.4,127.5z M175.7,129.1l-0.3-0.1c-2.5,1.4-4.7,3.1-6.6,5.3c-1,1.1-1.8,2.4-2.5,3.7
	c-0.5,1.3-0.5,2.7,0,4v0l0,0l0,0l0,0l0,0l0,0l0,0l0,0l0,0l0,0l0,0v0l0,0l0,0h0l0,0h0l0,0h0l0,0h0l0,0l0,0l0,0l0.1,0.1h0c0,0,0,0,0,0
	h0c0,0,0,0,0,0h0h0h0c0,0,0,0,0,0h0l0,0h0h0l0.2,0h0h0h0h0h0c0.5-0.1,0.9-0.2,1.3-0.5c0.7-0.4,1.4-0.9,2-1.4c4.8-4.1,7.3-5.4,9.1-8
	c0.2-0.2,0.3-0.5,0.4-0.7c0.1-0.2,0.1-0.4,0.2-0.6l0,0v0v0l0-0.1v0v-0.1v0v0l0,0v0l0,0v0c0-0.1,0-0.1,0-0.1l0,0l0,0l0,0v0l0,0v0
	c0,0,0,0,0,0v0c-0.1-0.3-0.3-0.5-0.6-0.7l0,0c-0.1-0.1-0.2-0.2-0.3-0.2l0,0l0,0C178.1,129,176.9,128.9,175.7,129.1z"/>
<path class="st4" d="M163.7,150.7c0.5,0.3,0.4,0.2,0.5,0.4c0.2,0,0.1,0,0.4,0c0.3,0.1,0.6,0.2,0.9,0.4c1.2,0.8,2,2.1,2.2,3.5
	c0.2,1.2,0,2.4-0.4,3.5l0,0c-0.9,2.6-3.6,4-6.2,3.1c-0.5-0.2-0.9-0.4-1.4-0.7c-2-1.4-2.5-4.3-1.7-6.5c0.5-1.7,1.7-3.1,3.4-3.7
	C162.2,150.6,163,150.5,163.7,150.7z M163.6,152.1c-0.4,0-0.9,0.2-1.3,0.4l0,0c-0.6,0.4-1.1,0.9-1.5,1.5l0,0c-0.2,0.3-0.4,0.6-0.5,1
	c-0.1,0.3-0.2,0.5-0.2,0.8c-0.3,1.4,0.1,3.1,1.4,3.7c0.6,0.3,1.4,0.4,2,0.2c0.8-0.3,1.5-1,1.8-1.8l0,0c0.1-0.3,0.2-0.6,0.3-0.9
	c0.1-0.5,0.2-1,0.2-1.4c0-0.6-0.1-1.1-0.3-1.6c-0.3-0.6-0.8-1.1-1.4-1.4l0,0L163.6,152.1C163.6,152.1,163.6,152.1,163.6,152.1
	L163.6,152.1z"/>
<path class="st4" d="M25.9,134.6c2.8,0.1,5.6,0.6,8.2,1.7c3.6,1.3,2.9,1,3.5,1.5l0.1,0.5l0,0l-0.3,0.4l-0.5,0.1l0,0
	c-3.3-0.9-6.7-1.5-10.1-1.8c-0.9-0.1-1.9,0-2.8,0.4l0,0c-0.6,0.4-1.2,0.9-1.6,1.6h0c-0.8,1.5-1.4,3.1-1.8,4.8c-1,4.3-1.3,8.8-1,13.2
	c0.2,2.6,0.6,5.9,2.7,7.6c2.5,2.1,7.5,1.5,10.7,1c2.8-0.4,2-0.5,2.9-0.3l0.3,0.4l0,0l-0.1,0.5l-0.4,0.3c-2.4,0.6-4.7,1-7.1,1.3
	c-3.2,0.3-6.9-0.3-8.8-2.8c-3.3-4-2.6-15.8-1.5-20.9c0.7-3.1,1.7-6.8,4.3-8.6c0.5-0.3,1-0.5,1.5-0.7
	C24.5,134.6,25.2,134.5,25.9,134.6z"/>
<path class="st4" d="M26.4,138.2c0.8,0.8,1.4,1.8,1.8,2.8l0,0c0.9,2.2,1,5.6,1,8c0,3-0.4,6.1-1.1,9v0c-0.3,1.2-0.2,0.8-0.3,1.2l0,0
	c-0.6,1.7-1.2,3.5-2.7,4.6l0,0l-0.5,0.1l-0.5-0.2l0,0l0,0l-0.1-0.5l0.2-0.5c0.9-0.8,1.4-2.8,1.6-4l0,0c0.9-4.9,1.6-8.4,1.1-13.6
	c-0.2-1.8-0.5-3.4-0.6-3.5l0,0c-0.2-0.9-0.5-1.8-0.9-2.6l0,0l-0.1-0.5l0.2-0.4l0,0L26,138L26.4,138.2z"/>
<path class="st0" d="M27.3,141.4c-2.6,3.9-2.9,7.9-3.2,12c0,0.9,0,1.7,0,2.6c0.1,0.8,0.1,3.3,0.9,3.9c0.1,0.1,0.6-0.4,0.7-0.5
	c2-2.1,2.1-10.4,2.1-13.3c0-0.5,0-4-1.2-3.6"/>
<path class="st4" d="M27.6,140.8L27.6,140.8l0.3,0.4c-0.1,0.7,0,0.4-0.2,0.8l0,0c0.9,0.7,1.1,3.2,1.1,4.3c0.2,3.5,0,10.3-1.8,13.3
	c-0.6,0.9-1.7,1.9-2.6,1.2c-0.9-0.7-1.2-2.2-1.2-3.4l0,0c-0.1-1.2-0.2-2.4-0.2-3.6c0.2-5.2,0.6-8.7,3.7-12.8v0l0.5-0.3L27.6,140.8z
	 M25.4,151.2c-0.1,1.3-0.2,2.5-0.1,3.8c0,0.2,0.2,2.5,0.2,2.8c1.2-3.1,1.6-12,1.5-13.8C26.1,146.3,25.6,148.8,25.4,151.2z"/>
<path class="st4" d="M55.7,132.9c0.1,0,18.6,4.8,19.2,4.9c5.2,1.4,6.4,1.7,7.6,2.4c1,0.5,1.9,1.2,2.6,2c1.4,1.8,1.8,4.5,1.9,6.8
	c0.1,1.3,0,2.5-0.3,3.8c-0.4,1.6-0.9,3.1-1.4,4.6l-0.3,0.4l-0.5,0.1c0,0-0.4-0.3-0.4-0.3c-0.1-1-0.2,0.2,0.9-4
	c0.2-0.7,0.3-1.5,0.3-2.2c0.1-2.3-0.4-6.4-2-7.9c-1.1-1.8-11.4-4-22.4-6.8c-4-1-10-2.9-14.1-2.5c-0.8,0.1-1.6,0.5-2.2,1.1
	c-0.5,0.5-1,1-1.4,1.6c-1,1.4-1.9,2.8-2.6,4.4c-1.3,3.1-2.1,6.4-2.3,9.8c-0.3,3.2,0,6.4,0.7,9.6c0.3,1.3,0.9,2.6,1.7,3.7
	c2.8,3.4,10.1,2.5,14.5,2.1h0l0.5,0.2l0.3,0.5v0l-0.1,0.5l-0.5,0.3c-0.5,0-6.3,1.2-10.9,0.5c-6.1-1-7.5-5.6-8.4-11.6
	c-0.7-6.5,0.6-13.1,3.7-18.9c1.1-1.9,2.5-3.6,4.2-5c0.5-0.3,1.1-0.6,1.7-0.7C48.5,131.4,51.9,132.1,55.7,132.9z"/>
<path class="st4" d="M35.2,146.2L35.2,146.2L35.2,146.2L35.2,146.2L35.2,146.2l0.1,0v0c0,0,0,0,0.1,0v0l0,0l0,0l0,0l0,0l0,0h0l0,0h0
	l0,0l0,0h0l0,0h0h0l0,0h0h0c0,0,0,0,0,0l0,0l0,0h0h0l0,0l0,0l0,0l0,0v0l0,0h0l0,0l0,0l0,0l0,0h0v0l0,0h0c0.3,0.1,0.5,0.2,0.8,0.2
	c0.2,0.1,0.3,0.2,0.4,0.3c0.5,0.4-0.1-0.2,1,1c-0.9,0.7-0.9,0.8-1.7,1l0,0c-0.1,0-0.3,0-0.4,0c-0.8-0.1-1.6-0.5-2.1-1.1v0
	c-0.2-0.4-0.2-0.8,0.1-1.1L35.2,146.2L35.2,146.2L35.2,146.2z"/>
<path class="st4" d="M37.2,155.8c0.3,0.2,0-0.1,0.9,0.8c-0.4,0.4-0.9,0.8-1.4,1l0,0l-0.1,0.1h0c0,0-0.1,0-0.1,0.1
	c-0.4,0-0.7,0.2-1,0.3l0,0l0,0h0l0,0l0,0l0,0l0,0l0,0l0,0l0,0l0,0l0,0l0,0h0h0l0,0h0h0c0,0-0.4,0-0.4,0c-0.2,0,0.1,0.2-1.3-0.8v0
	c0-0.8,0.1-0.9,0.6-1.2c0.3-0.2,0.7-0.4,1.1-0.6C35.8,155.4,36.5,155.4,37.2,155.8z"/>
<path class="st4" d="M48.1,136L48.1,136L48.1,136c1.1,1.2,1.8,2.5,2.3,3.9c0.3,1,0.2,0.6,0.2,0.7c0,0.1,0.1,0.5,0.1,0.6
	c0.6,2.8,0.7,5.6,0.5,8.5c-0.2,3.1-0.8,6.2-2,9.1c-0.9,2.2-2,5.2-4.4,5.4c-0.6,0-0.4,0.1-1-0.3l-0.2-0.5v0l0.3-0.4l0.5-0.2h0h0h0h0
	h0h0h0h0h0h0h0l0,0h0c0,0,0.1,0,0.1,0l0,0c0,0,0,0,0,0l0,0h0c0,0,0,0,0,0l0,0c0.2-0.1,0.6-0.4,1-1.1v0c0.5-1,0.9-2,1.2-3.1
	c0.8-2.2,1.3-4.4,1.7-6.7c0.3-2.6,0.4-5.2,0-7.9c-0.1-1.1-0.3-2.3-0.6-3.4c-0.3-1.3-0.7-2.5-1.3-3.7l0,0l-0.1-0.5l0.2-0.4l0,0
	l0.5-0.1L48.1,136z"/>
<path class="st0" d="M48.6,139.2c-2.9,1.4-4,4.7-4.7,7.6c-0.5,2-0.9,7.2-0.5,9.1c0.4,1.9,1.8,5.6,3.3,4.3c3.1-2.6,3.2-11.8,3.1-15.8
	c-0.1-1.6-0.2-3.7-1.3-4.9"/>
<path class="st4" d="M49.2,138.9L49.2,138.9l0,0.5c0.7,0.9,1.1,2,1.2,3.1c0.2,1.4,0.3,2.9,0.3,4.3c0.2,3.3-0.2,6.7-1,9.9
	c-0.5,2-1.9,4.9-3.9,4.9c-1.7-0.1-2.7-2.4-3.3-4c-0.6-2-0.7-2.6-0.4-7c0-1.1,0.3-2.8,0.4-3.1l0,0c0.7-3.7,2.2-7.3,5.6-8.9
	c0.1,0,0,0,0.6,0L49.2,138.9z M44.8,147.9L44.8,147.9c-0.3,1.6-0.4,3.2-0.5,4.8c0,0.9,0,1.9,0.1,2.8c0.2,1.4,0.8,2.7,1.6,3.8l0,0
	l0,0c0.1-0.1,0.3-0.3,0.4-0.4c2.3-2.6,2.8-14.7,2.3-17.1c-0.1-0.3-0.2-0.6-0.3-0.9c-0.1-0.2-0.1-0.3-0.2-0.5
	C46.2,142.2,45.4,145,44.8,147.9z"/>
<path class="st5" d="M48.1,144c0,0.6-0.1,1.2-0.3,1.8l0,0c-1.3,3.5-0.5,2.5-1.9,6.1l0,0l-0.3,0.5l-0.4,0.2h0l-0.4-0.3
	c-0.2-0.3-0.3-0.7-0.3-1.1c-0.1-0.6-0.1-1.2,0-1.8c0.3-1.5,0.7-3,1.2-4.4l0,0c0.2-0.5,0.5-0.9,0.9-1.3c0.4-0.4,0.1-0.2,1.3-0.6
	L48.1,144z"/>
<path class="st5" d="M27.1,149.7c0,0.7-0.2,1.5-0.5,2.2c-0.2,0.5,0,0.2-0.9,1.1c-0.7-0.9-0.6-0.7-0.7-1.2c-0.2-1.1-0.2-2.3,0-3.4
	c0.1-1.2,0.1-1.2,0.2-1.5c0.1-0.2,0.3-0.5,0.5-0.7l0.8-0.6C27.6,147.1,27.4,146.8,27.1,149.7z"/>
<path class="st0" d="M87.4,149.4c0.7,0,1.5,0.2,2.1,0.6c1.6,1.2,1.9,3.7,1.6,5.6c-0.5,3.2-2.5,4.8-4.9,4.7c-0.4,0-0.8-0.1-1.2-0.3
	l-0.4-0.4c0,0-0.1-0.5-0.1-0.5l0,0l0.3-0.4c1-0.2,1.1,0,1.6-0.2l0,0c0.3-0.1,0.6-0.3,0.9-0.5l0,0c0.5-0.4,1-1,1.2-1.7
	c0.4-1.1,0.5-3.7-0.3-4.4v0l0,0l0,0c0,0-0.1-0.1-0.1-0.1c-0.1,0-0.1-0.1-0.2-0.1h0c-0.1-0.1-0.3-0.2-0.4-0.3l0,0
	c-0.2-0.1-0.4-0.2-0.6-0.3l0,0c-0.2-0.1-0.8-0.2-0.9-0.3l0,0l-0.5-0.3l-0.2-0.4l0,0l0.2-0.4l0.5-0.3h0
	C86.6,149.5,87,149.5,87.4,149.4z"/>
<path class="st0" d="M126.5,192.7L126.5,192.7c0.2,0.9,0.4,0.5-2.9,3.3c-1.5,1.3-8.7,6.7-12.8,9.4c0,0-0.3,0.2-0.3,0.2l0,0l-0.5,0.2
	l-0.5-0.2l0,0l-0.2-0.4l0.2-0.5v0c0.1-0.1,0,0,0.8-1.1c0.9-1.1,2.1-2,3.3-2.8c5.3-3.8,5.8-4.8,11.7-8.1l0,0l0.6-0.1L126.5,192.7z"/>
<path class="st0" d="M212.6,262.9c0.5,0.3,1,0.6,1.5,1c2.1,2.4,3.6,3.3,5.4,5.1c0.8,0.8,0.4,0.3,0.9,1.1l0,0.5l0,0l0,0l-0.4,0.3
	l-0.6,0l0,0c-1-0.3-1.9-0.8-2.7-1.4c-1.2-1-2.4-2-3.4-3.1c-0.8-0.7-1.3-1.5-1.7-2.5l0,0l0.1-1L212.6,262.9z"/>
</svg>
