<svg id="Layer_1" data-name="Layer 1" xmlns="http://www.w3.org/2000/svg" xmlns:xlink="http://www.w3.org/1999/xlink" viewBox="0 0 226.48 274.99"><defs><linearGradient id="linear-gradient" x1="135.62" y1="230.35" x2="164.84" y2="299.66" gradientTransform="matrix(1, 0, 0, -1, 0, 368)" gradientUnits="userSpaceOnUse"><stop offset="0.29" stop-color="#00214e"/><stop offset="0.51" stop-color="#6878b1"/><stop offset="0.79" stop-color="#00214e"/></linearGradient></defs><title>talk3</title><path d="M244.67,107.86c-4.24-19.92-6-35.11-23.19-47.8-13.73-10.12-31.27-15.53-48.34-14.18-14.48,1.15-32.65,6.3-46.87,15A58.91,58.91,0,0,0,110.06,75c-6.31,8.32-10.83,18.44-14.27,29.18-5.18,16.15-8,33.72-10.79,48.71C80.15,178.4,75.81,204,71.46,229.6c29.94,3,186.24,2.11,186.24,2.11S254.12,152.15,244.67,107.86ZM170.5,128.3l-16.8-5.43,50.66-19,3.71,2.06Z" transform="translate(-69.93 -45.68)" style="fill:#00214e"/><path d="M296.41,282.34a184.56,184.56,0,0,1-226.48-1l48.66-22.81a47.87,47.87,0,0,0,4.35-2.34l1.12-.7c.4-.25.79-.51,1.18-.78a46.54,46.54,0,0,0,14.67-16.47c4-7.55,5.32-15.89,5.38-24.39,0-5.72-.31-11.44-.37-17.17q-.06-4.76-.1-9.51l2,1,5.2,2.69L182.29,196l31.12,5.3.94,32,.47,15.87,11.47,4.67,9,3.64Z" transform="translate(-69.93 -45.68)" style="fill:#f2d4cf"/><path d="M214.16,229.6c-2.72,1.68-5.29,2.47-7.54,2.23-14.79-1.59-43.64-13.18-61.8-34.63q0-1.57-.06-3.15-.06-4.76-.1-9.51l2,1,5.2,2.69,30.29,5.15,31.12,5.3Z" transform="translate(-69.93 -45.68)" style="fill:#daaea8"/><path d="M296.41,282.34a184.56,184.56,0,0,1-226.48-1l48.66-22.81a47.6,47.6,0,0,0,4.35-2.33c23.68,17.41,56.64,28.74,85.06,15.95,8.06-3.62,15.33-10,18.29-18.31l9,3.64Z" transform="translate(-69.93 -45.68)" style="fill:#ff2609"/><circle cx="48.21" cy="108.21" r="17" style="fill:#f2d4cf"/><circle cx="54.21" cy="106.21" r="17" style="fill:#daaea8"/><path d="M233.68,128.14c11.74,40.69-13.2,89.88-28.54,89.88-21,0-72-16.78-83.73-57.47s3.87-80.92,34.87-89.87S221.93,87.46,233.68,128.14Z" transform="translate(-69.93 -45.68)" style="fill:#f2d4cf"/><path d="M202.93,124.13A31.08,31.08,0,0,1,225.78,122" transform="translate(-69.93 -45.68)" style="fill:none;stroke:#00214e;stroke-miterlimit:10"/><path d="M154.05,126.42a36.76,36.76,0,0,1,31.23-1" transform="translate(-69.93 -45.68)" style="fill:none;stroke:#00214e;stroke-miterlimit:10"/><ellipse cx="167.27" cy="139.43" rx="3.27" ry="7.94" transform="translate(-54.05 250.28) rotate(-85.77)" style="fill:#00214e"/><ellipse cx="218.76" cy="137.81" rx="7.94" ry="3.27" transform="translate(-95.66 8.05) rotate(-13.23)" style="fill:#00214e"/><path d="M203.73,148.49s.29,5.65,1.62,8.3c.57,1.14,1.45,2.11,2,3.24,2.21,4.34-1.37,5.25-4.81,5.25" transform="translate(-69.93 -45.68)" style="fill:none;stroke:#00214e;stroke-miterlimit:10"/><path d="M189.81,158.37a3.4,3.4,0,0,0,2.11,6.38" transform="translate(-69.93 -45.68)" style="fill:none;stroke:#00214e;stroke-miterlimit:10"/><path d="M171.83,173.88a1.86,1.86,0,0,1,2.58-.57l.11.07c2.07,1.46,5.87,4.56,11.27,5.63,7.36,1.47,13.75-1.48,15.27.42.86,1.07-.19,2.38-2.2,4A19.69,19.69,0,0,1,184,187.17c-7.09-1.33-12.4-9.53-12.4-12.43A1.73,1.73,0,0,1,171.83,173.88Z" transform="translate(-69.93 -45.68)" style="fill:#fff"/><polygon points="156.57 49.93 134.43 58.22 83.77 77.19 83.76 77.19 45.93 91.36 45.35 64.79 44.57 28.93 68.06 21.61 105.57 9.93 156.57 49.93" style="fill:#00214e"/><path d="M204.36,103.9l-50.66,19h0l-38.41-12.4L95.8,104.21c3.44-10.74,8-20.86,14.27-29.18a58.81,58.81,0,0,1,16.21-14.09c3.5,1.89,7.47,4,11.72,6.38C161.45,80.11,193.57,97.91,204.36,103.9Z" transform="translate(-69.93 -45.68)" style="fill:url(#linear-gradient)"/></svg>