<svg id="Layer_1" data-name="Layer 1" xmlns="http://www.w3.org/2000/svg" viewBox="0 0 290.02 252.22"><title>Winner</title><path d="M277,87.38c-1.2-2.2-1-4.85-2.09-7.1a.73.73,0,0,0-.81-.33,4.85,4.85,0,0,0-3.06,3,14.94,14.94,0,0,1-1.41,3c-1.08-1.78-.16-4.25-.67-6.21a2.8,2.8,0,0,0-2.38-2.16,3.25,3.25,0,0,0-2.7,1.54,5.17,5.17,0,0,0-1.12,3.55.75.75,0,0,0,.72.72.73.73,0,0,0,.73-.72,3.75,3.75,0,0,1,.68-2.49c.35-.54,1-1.29,1.68-1.15s1.06,1.11,1.1,1.83c.06,1-.07,2.11,0,3.16a5.2,5.2,0,0,0,1.41,3.56.74.74,0,0,0,1,0,8.72,8.72,0,0,0,2-3.55,4.61,4.61,0,0,1,1.76-2.42,18.11,18.11,0,0,1,.69,2.91,12.24,12.24,0,0,0,1.16,3.6A.73.73,0,0,0,277,87.38Z" transform="translate(-4.99 -23.89)" style="fill:#ffc010"/><path d="M286.2,159a.74.74,0,0,0-1-.24l-.12.1a18.93,18.93,0,0,0-2.63,3,17.81,17.81,0,0,1-1.56,1.8c0-2,0-4-.06-6a.75.75,0,0,0-.72-.72,4.38,4.38,0,0,0-2.89,1.09c-.37.27-.73.57-1.1.85a3.46,3.46,0,0,1-.46.32l-.13.07h0s0,0,0,0c-.82-.06-1.15,1.21-.28,1.39s1.66-.56,2.3-1.08a5.82,5.82,0,0,1,1.89-1.15c.06,2.23,0,4.46.08,6.69a.73.73,0,0,0,.75.71.69.69,0,0,0,.34-.09c2.08-1.17,3.2-3.46,4.81-5.17a17.54,17.54,0,0,1,.83,4.48.75.75,0,0,0,.73.72.73.73,0,0,0,.72-.72C287.38,163.05,287.33,160.79,286.2,159Z" transform="translate(-4.99 -23.89)" style="fill:#ffc010"/><path d="M275.5,159.27h0Z" transform="translate(-4.99 -23.89)" style="fill:#ffc010"/><path d="M28.69,162.18a2.84,2.84,0,0,0-2.66-.83,3.13,3.13,0,0,0-1.67,1.79,24.88,24.88,0,0,0-1,2.75c-.12.42-.26.84-.41,1.25l-.07.17c-.13-.14-.26-.28-.38-.43-.41-.51-.77-1-1.14-1.58a13.54,13.54,0,0,0-2.23-2.88,2,2,0,0,0-2.76.24,6.18,6.18,0,0,0-1.4,3.16,29.57,29.57,0,0,0-.44,3.65c-.08.93,1.36.92,1.44,0s.13-1.76.27-2.63a7.18,7.18,0,0,1,1-3,1.09,1.09,0,0,1,.73-.49.25.25,0,0,1,.12,0l.08.05.23.21a20.15,20.15,0,0,1,2,2.65,8.52,8.52,0,0,0,2.37,2.73.73.73,0,0,0,.87-.12c1-1.22,1.25-3,1.78-4.5a6,6,0,0,1,.43-1c.05-.09.1-.18.16-.27l.08-.11c0-.05.09-.1.13-.16l.12-.1a.35.35,0,0,1,.12-.07c.1-.05-.08,0,.1-.05h.22a2.18,2.18,0,0,1,.92.5C28.38,163.78,29.41,162.77,28.69,162.18Z" transform="translate(-4.99 -23.89)" style="fill:#ffc010"/><path d="M294.7,209.32a.73.73,0,0,0-.89-.5c-1.46.61-2.68,1.68-4.1,2.39a7.46,7.46,0,0,1,.22-2.78,11.43,11.43,0,0,0,.38-3.64.74.74,0,0,0-.72-.72c-1.86-.07-3.49.85-5.23,1.33a.73.73,0,0,0,.38,1.4,25.24,25.24,0,0,1,4.16-1.26c0,2.37-1.27,4.65-.25,7a.71.71,0,0,0,.81.33,36.09,36.09,0,0,0,3.91-2.26,6.09,6.09,0,0,1-.36,2.07c-.3.88,1.09,1.26,1.39.38A7.57,7.57,0,0,0,294.7,209.32Z" transform="translate(-4.99 -23.89)" style="fill:#ffc010"/><path d="M62.25,166.19a.89.89,0,0,0-1.07-.6c-2.66.37-4.9,2-7.46,2.71a.88.88,0,0,0-.56,1.09.87.87,0,0,0,1,.58c2.56-.69,4.8-2.34,7.46-2.71A.88.88,0,0,0,62.25,166.19Z" transform="translate(-4.99 -23.89)" style="fill:#b263ea"/><path d="M168.1,225l2.1-2.21a.35.35,0,0,0-.06-.24,34.09,34.09,0,0,0-3.29-3.8c-.61-.61-1.24-1.21-1.88-1.78a10.31,10.31,0,0,0-1.79-1.43,3,3,0,0,0-3.16.22,3.59,3.59,0,0,0-1.35,2,.45.45,0,0,0-.45.44v0a7.13,7.13,0,0,1-1.35,4,24,24,0,0,1-2.66,3.38,22.28,22.28,0,0,1-3.67,3.12,7.91,7.91,0,0,1-1.37.87c-.43.19-.88.35-1.32.53a13,13,0,0,0-1.54.67,1.56,1.56,0,0,0-.8.72c2.43,1.16,5.22,1.3,8,1.33a12.15,12.15,0,0,0,4.67-.63c3.44-1.38,4.64-5,5.94-8.12l.3-.72c.05-.1.17-.28.22-.41l.24.13A20.15,20.15,0,0,0,168,225,.32.32,0,0,0,168.1,225Z" transform="translate(-4.99 -23.89)" style="fill:#60358e"/><path d="M160.1,25a5.65,5.65,0,0,0-6,3.57,7,7,0,0,0-.26.89,4.91,4.91,0,0,0-1.62.58c-2.41,1.37-4.48,4.49-4.11,7.33,0,.12,0,.23.07.35a3.09,3.09,0,0,0-2.28,2.43,5.51,5.51,0,0,0,1.39,3.9.73.73,0,0,0,1,.26.71.71,0,0,0,.26-1,5.44,5.44,0,0,1-1.22-2.64V40.4a.17.17,0,0,1,0-.07v-.06l.06-.23c0-.17,0,0,0-.1l.12-.2c.07-.11.05-.07.05-.07l.15-.16.13-.11a2.8,2.8,0,0,1,.32-.2l.14-.07.22-.08.17,0a5,5,0,0,0,2.75,1.92.71.71,0,0,0,.81-.33,2,2,0,0,0-.3-2.32,3.32,3.32,0,0,0-2.16-.82h-.24a.25.25,0,0,1,0-.07c0-.06,0-.13,0-.19v-.09a3.38,3.38,0,0,1,0-.45c0-.13,0-.26,0-.39s0-.09,0-.1,0-.16,0-.24a6.36,6.36,0,0,1,.6-1.68,8.12,8.12,0,0,1,1-1.51,9,9,0,0,1,.68-.7,5.27,5.27,0,0,1,.63-.52,6.65,6.65,0,0,1,.73-.43l.17-.08.09,0,.19-.06a5,5,0,0,0,1.19,3.42,3,3,0,0,0,3,.8.75.75,0,0,0,.5-.89c-.25-1.65-.82-3.63-2.38-4.5a2.82,2.82,0,0,0-.7-.27c0-.1.05-.19.07-.28a4.35,4.35,0,0,1,1.34-2,4.68,4.68,0,0,1,3.4-.82C161,26.49,161,25,160.1,25Zm-4.62,6.18.1.07a2.74,2.74,0,0,1,.57.7,6.47,6.47,0,0,1,.69,1.9.78.78,0,0,1-.22,0l-.18,0-.13-.07-.2-.12-.13-.13a1.29,1.29,0,0,1-.16-.17c-.1-.12,0,0-.09-.12a3.05,3.05,0,0,1-.28-.5.52.52,0,0,1-.06-.13c0-.1-.06-.19-.1-.29s-.1-.41-.14-.61a4,4,0,0,1,0-.69h0a1,1,0,0,1,.17.1,1.77,1.77,0,0,1,.17.12Z" transform="translate(-4.99 -23.89)" style="fill:#ffc010"/><path d="M100.89,35.36a.72.72,0,0,0-1,0c-.66.84-1.57,1.24-2.41.41a2.37,2.37,0,0,1-.32-.39,4.53,4.53,0,0,0-.21-3.16.73.73,0,0,0-1-.25.85.85,0,0,0-.25.25,4,4,0,0,0-.09,3.32,6.58,6.58,0,0,1-.29.66,8.63,8.63,0,0,1-2.5,3.09,3,3,0,0,1-2.82.65,4.87,4.87,0,0,1-1.9-1.08A6.87,6.87,0,0,0,88.87,35a3.27,3.27,0,0,0-.62-1.87,1.27,1.27,0,0,0-1.72-.1,3.73,3.73,0,0,0-1.3,4.15,5.88,5.88,0,0,0,1.08,2,3.17,3.17,0,0,1-1.6,1.42,1.71,1.71,0,0,1-2.24-.89,1.43,1.43,0,0,1-.09-.27,12.54,12.54,0,0,1-.28-3.51.72.72,0,0,0-1.44,0,12.7,12.7,0,0,0,.37,4,3,3,0,0,0,3.12,2.17,4.21,4.21,0,0,0,3.17-1.93,4.94,4.94,0,0,0,4.9,1.12,8.68,8.68,0,0,0,4-3.81l.3-.55a2.87,2.87,0,0,0,4.06-.19,2.1,2.1,0,0,0,.26-.33A.75.75,0,0,0,100.89,35.36Zm-14.25-.23a2.28,2.28,0,0,1,.36-.6l.27-.28a4.29,4.29,0,0,1,.14.62,5.1,5.1,0,0,1-.36,2.81A2.84,2.84,0,0,1,86.64,35.13Z" transform="translate(-4.99 -23.89)" style="fill:#ffc010"/><path d="M270.73,123.54a2.72,2.72,0,0,0-2.44-.35,5.81,5.81,0,0,0-1.85.91,4.65,4.65,0,0,0-.31-1.47,3.26,3.26,0,0,0-2.42-2,5.65,5.65,0,0,0-4,.91,2.49,2.49,0,0,0-2.19-1.06,3.75,3.75,0,0,0-2.76,1.86,3.25,3.25,0,0,0-.29,3.42c.51.77,1.76,0,1.24-.73-.78-1.2,1.24-3.92,2.6-2.92a1.19,1.19,0,0,1,.3.37,5.6,5.6,0,0,0-.67.87,3.88,3.88,0,0,0-.11,3.83.73.73,0,0,0,1,.26c1.49-.76,1.83-2.9,1.47-4.52a3.77,3.77,0,0,1,.54-.34,4.3,4.3,0,0,1,2.33-.58h.16l.28.06.29.1h0l.17.09.19.12.18.16.13.15c.07.09.12.18.18.27a3.42,3.42,0,0,1,.32,1.51,8.2,8.2,0,0,1-.23,1.79,4.44,4.44,0,0,0-.16.6l0,.12h0c0,.07,0,.13,0,.19-.06.83,1.2,1,1.42.19.07-.25.14-.5.2-.76a3.06,3.06,0,0,1,.64-.91,4.28,4.28,0,0,1,1.61-1,2.71,2.71,0,0,1,.8-.16h.28l.15,0,.08,0h0l0,0,.07.07a.4.4,0,0,1,.09.2,2.27,2.27,0,0,1,0,1c-.18.9,1.21,1.3,1.39.38A2.75,2.75,0,0,0,270.73,123.54Z" transform="translate(-4.99 -23.89)" style="fill:#ffc010"/><path d="M227.14,227a3,3,0,0,0-2.42-.37,6.87,6.87,0,0,0-4.22,3.19c-1.3-1.13-3.3-1.62-4.54-.37a2.81,2.81,0,0,0-.52.72,3.53,3.53,0,0,0-2.71-1.64,3.15,3.15,0,0,0-3.23,3.07v.06a4.86,4.86,0,0,0,.23,1.73,2.15,2.15,0,0,0,.52,1.07c.38.29.95.19,1.4.22.93,0,.92-1.4,0-1.45h-.45a3.23,3.23,0,0,1-.09-2.29,1.62,1.62,0,0,1,1.16-.95,1.85,1.85,0,0,1,.74,0,2,2,0,0,1,.78.41A4.17,4.17,0,0,1,215,233c.13.8,1.45.61,1.42-.2a3.57,3.57,0,0,1,.43-2.26c0,.06.11-.12.18-.18l.07,0a.94.94,0,0,1,.22-.12c-.13.06.16,0,.23-.05H218l.1,0,.42.11a1.14,1.14,0,0,1,.3.13,2.88,2.88,0,0,1,.38.22,3,3,0,0,1,.68.64,4.16,4.16,0,0,0,0,2.16.74.74,0,0,0,.91.5.92.92,0,0,0,.3-.18,2.33,2.33,0,0,0,.35-2.72,5.31,5.31,0,0,1,1.27-1.73,5.61,5.61,0,0,1,1.81-1.14,3.17,3.17,0,0,1,.86-.2,1.28,1.28,0,0,1,.72.09l.11.06.09,0h0a.75.75,0,0,1,.25.28,2.49,2.49,0,0,1,.27,1.07c0,.92,1.49.93,1.44,0A3.2,3.2,0,0,0,227.14,227Z" transform="translate(-4.99 -23.89)" style="fill:#ffc010"/><path d="M93.8,233.73a1.58,1.58,0,0,1-.58.41.35.35,0,0,1-.37,0c.09,0-.1-.07-.1-.07l-.16-.16a2.27,2.27,0,0,1-.27-.48,3.78,3.78,0,0,1-.08-2.69.73.73,0,0,0-.52-.89.75.75,0,0,0-.53.07,10.92,10.92,0,0,0-2,2.18,5.63,5.63,0,0,1-2,1.93c-1.24.48-1.76-.83-1.85-2l.13-.14A8.69,8.69,0,0,0,87.19,229a.74.74,0,0,0-.51-.89l-.19,0c-1.74.12-2.49,1.76-2.57,3.37a3.25,3.25,0,0,1-.5.4,1.52,1.52,0,0,1-.5.23.47.47,0,0,1-.35,0c-.72-.31-.42-1.38-.16-2a4.35,4.35,0,0,1,1.75-2.08c.84-.39.11-1.63-.72-1.24a5.2,5.2,0,0,0-2,2.11,4.05,4.05,0,0,0-.64,3.08,2.12,2.12,0,0,0,2.36,1.52,2.73,2.73,0,0,0,1-.39,1,1,0,0,1,0,.14,3,3,0,0,0,2.15,2.2,3.48,3.48,0,0,0,3.15-1.39,17.43,17.43,0,0,0,1.19-1.53,4.79,4.79,0,0,0,.63,1.91,2.26,2.26,0,0,0,1.44,1.1,2.49,2.49,0,0,0,2.13-.84C95.49,234.12,94.47,233.1,93.8,233.73Z" transform="translate(-4.99 -23.89)" style="fill:#ffc010"/><path d="M107.17,159.35c-1.64,1-1.84,3-1.67,4.7.09.86.26,1.79.34,2.51a7.11,7.11,0,0,1,0,1c0,.06,0,.11,0,.17s0,.08,0,.1,0,.12,0,.17h0l0,.05h0v0h0c-.16.07.07,0,0,0l-.08,0a2.32,2.32,0,0,1-1-.17,11.51,11.51,0,0,1-1.77-.76,8.79,8.79,0,0,1-1.48-1.31c-1.3-1.13-2.93.19-3.08,1.66a5.1,5.1,0,0,0,1.2,3.45,19.23,19.23,0,0,1,1.78,2.24l.06.12h-.2a6.44,6.44,0,0,1-1.23-.2c-.9-.2-1.28,1.19-.38,1.39s2.63.66,3.2-.42c.46-.85-.3-1.82-.8-2.45-.29-.38-.6-.74-.91-1.1-.14-.17-.28-.33-.41-.5a1.7,1.7,0,0,1-.23-.3,4.56,4.56,0,0,1-.65-1.71,1.14,1.14,0,0,1,.2-.89,1.26,1.26,0,0,1,.32-.29l0,0c.21.09.39.38.54.54a5.29,5.29,0,0,0,.82.75,9,9,0,0,0,2,1,3.41,3.41,0,0,0,2.67.25c1.45-.71.93-2.86.75-4.1a12.89,12.89,0,0,1-.2-2.84,2.27,2.27,0,0,1,1-1.88A.72.72,0,0,0,107.17,159.35Z" transform="translate(-4.99 -23.89)" style="fill:#ffc010"/><path d="M105.76,168.11v0h0S105.72,168.11,105.76,168.11Z" transform="translate(-4.99 -23.89)" style="fill:#ffc010"/><path d="M48,187.77s-.06,0,0,0h0Z" transform="translate(-4.99 -23.89)" style="fill:#ffc010"/><path d="M51.43,191.5a1.6,1.6,0,0,1-.67-.67,5.82,5.82,0,0,1-.5-1.21,9.9,9.9,0,0,0-.92-2.54,1.57,1.57,0,0,0-2.17-.5l-.15.1a3.43,3.43,0,0,0-1.54,2.41c-.17.93-.18,2-.32,2.85a4.69,4.69,0,0,1-.14.65c0,.09-.05.18-.09.27h0a.61.61,0,0,1-.07.14.38.38,0,0,1-.44.23,2.87,2.87,0,0,1-.56-.14,1.63,1.63,0,0,1-.58-.31,3.05,3.05,0,0,1-.63-1.32c-.31-1.1-.43-2.44-1.21-3.33a2.18,2.18,0,0,0-3.1,0,2.15,2.15,0,0,0-.32.41,9.7,9.7,0,0,0-1.37,3.75c-.19.91,1.2,1.3,1.39.39a9.8,9.8,0,0,1,1-3.12c.2-.32.5-.66.81-.68a.55.55,0,0,1,.43.11c-.09-.07.12.14.07.07a1.81,1.81,0,0,1,.2.33c.48,1,.54,2.18,1,3.22a3.13,3.13,0,0,0,2.54,2c2.33.35,2.51-2.33,2.66-4,0-.42.08-.85.15-1.27a2.58,2.58,0,0,1,.34-1c.07-.09,0,0,.09-.1l.32-.29a2.56,2.56,0,0,1,.35-.22h0l0,0h0l0,0a3.72,3.72,0,0,1,.44,1.07c.16.51.3,1,.48,1.53a3.7,3.7,0,0,0,2,2.48C51.92,193.21,52.29,191.82,51.43,191.5Z" transform="translate(-4.99 -23.89)" style="fill:#ffc010"/><path d="M49.86,80a1.42,1.42,0,0,1-.72.2.82.82,0,0,1-.38-.13l-.18-.19A13.64,13.64,0,0,0,48.82,75a.71.71,0,0,0-.9-.49.75.75,0,0,0-.3.17c-1.17,1.12-1.24,3.22-.84,4.69a4.37,4.37,0,0,0,.31.78,4,4,0,0,1-.93,2,1.42,1.42,0,0,1-.9.21,2.32,2.32,0,0,1-1.2-.62,5.08,5.08,0,0,1-.5-.54l0-.12A13.78,13.78,0,0,0,44.07,78a5.06,5.06,0,0,0-.4-2.49.74.74,0,0,0-.82-.33c-2.81.87-2.14,4.23-.86,6.31a6.91,6.91,0,0,1-1.17,2.33,1.58,1.58,0,0,1-1.33.69,1.72,1.72,0,0,1-1.36-.66c-.08-.09-.13-.2-.2-.29,1-1.38,1.21-3.79,1.07-5.28-.08-.86-.23-2.36-1.27-2.59-1.35-.31-1.95,1.94-2.16,2.84a8.28,8.28,0,0,0,.5,4.64,1,1,0,0,1-.84-.2,3.08,3.08,0,0,1-.69-1.59,6.3,6.3,0,0,1,.37-3.81.74.74,0,0,0-.31-1,.73.73,0,0,0-.94.25,7.37,7.37,0,0,0-.56,4.58c.21,1.43.95,3.17,2.63,3.21a2.62,2.62,0,0,0,1-.17,3.08,3.08,0,0,0,3.71,1.32,4.72,4.72,0,0,0,2.56-3,3.36,3.36,0,0,0,3.25.92,3.28,3.28,0,0,0,1.92-2.34,2.55,2.55,0,0,0,2.37-.16C51.41,80.81,50.68,79.57,49.86,80ZM37.17,78.22c.08-.22.16-.45.26-.66,0,.14.07.28.09.42a.76.76,0,0,1,0,.21l0,.33c0,.29,0,.58,0,.86a9,9,0,0,1-.16,1.56c0,.25-.11.49-.18.73a1.79,1.79,0,0,1-.11.33,8.17,8.17,0,0,1-.29-1.91A5.44,5.44,0,0,1,37.17,78.22Zm5.25-.83A1.11,1.11,0,0,1,42.6,77c0,.21,0,.47,0,.68a9.64,9.64,0,0,1-.13,1.52c0-.1-.06-.19-.08-.28A3,3,0,0,1,42.42,77.39Z" transform="translate(-4.99 -23.89)" style="fill:#ffc010"/><path d="M51.79,137.33h0l.08.08v0Z" transform="translate(-4.99 -23.89)" style="fill:#ffc010"/><path d="M65.14,138.67a3.11,3.11,0,0,1-.43,0h-.13l-.25-.07-.11-.06h0l0,0L64,138.3h0l0,0-.2-.34-.15-.3,0-.05v0c-.09-.23-.18-.47-.26-.71-.16-.44-.3-.89-.48-1.32a3.18,3.18,0,0,0-2.15-2.22,3.1,3.1,0,0,0-3.4,2.12,13.31,13.31,0,0,0-.55,3.76c0,.14,0,.27,0,.4,0-.3,0,0,0,.13s0,.24-.08.36-.22.47,0,.16c-.05.08-.09.16-.13.24l0,0-.18.11a1,1,0,0,0-.17.1h0a.34.34,0,0,0-.14.05h0l-.06-.07,0,0c0-.09-.1-.17-.14-.25l-.1-.22c-.35-.92-.56-1.88-.87-2.8a6,6,0,0,0-.68-1.47,3.6,3.6,0,0,0-2.49-1.42c-2.28-.31-4.17,1.62-4.56,3.76a1.34,1.34,0,0,0,.91,1.6,1.31,1.31,0,0,0,1.6-.91,2.62,2.62,0,0,1,.29-.91s.27-.43.18-.32a2.73,2.73,0,0,1,.23-.25l.13-.13a2.36,2.36,0,0,1,.38-.22s.24,0,.21-.06a1.11,1.11,0,0,1,.79.18l.13.07h0l0,0s0,0,0,0,0,0,.06.06.09.06.09.08l-.09-.07h0c.06.05,0,.05,0,0,.08.14.19.38.21.41a.28.28,0,0,1,0-.08l.05.13c0,.1.07.2.1.3s.15.47.22.7c.55,1.95,1.3,4.95,4,4.45a3.5,3.5,0,0,0,2.67-2.47,21.7,21.7,0,0,0,.42-3.6l0-.17c0-.13,0-.26.08-.39s.07-.24.11-.36a.14.14,0,0,1,0-.06l.06-.12.06-.1a1,1,0,0,1,.14-.11l.13-.08h0c0,.08.1.15.14.23l.12.24s0,.08,0,.12a15.66,15.66,0,0,0,1.28,3.11,3.55,3.55,0,0,0,3.46,1.7,1.34,1.34,0,0,0,1.3-1.3,1.3,1.3,0,0,0-1.3-1.3Z" transform="translate(-4.99 -23.89)" style="fill:#ffc010"/><path d="M52,137.73S52,137.67,52,137.73Z" transform="translate(-4.99 -23.89)" style="fill:#ffc010"/><path d="M51.84,137.35l0,0,0,0Z" transform="translate(-4.99 -23.89)" style="fill:#ffc010"/><path d="M265.68,187.46a1.32,1.32,0,0,0-1.6-.91c-1.76.5-3,1.95-4.26,3.24-.21.23-.43.45-.66.67,0-.06,0-.18,0-.22s0-.24,0-.3,0-.3,0-.45v-.3c0-.2.07-.4.11-.6.22-1,.52-2,.67-3a4.17,4.17,0,0,0-.51-3.23,2.65,2.65,0,0,0-2.92-.85,7.53,7.53,0,0,0-3.28,2.43,6.66,6.66,0,0,1,.46-3.58,1.31,1.31,0,0,0-.91-1.6,1.34,1.34,0,0,0-1.6.91,9,9,0,0,0,.45,7.53,1.3,1.3,0,0,0,1.78.46,1.22,1.22,0,0,0,.25-.2c.5-.6,1-1.21,1.5-1.78a13.33,13.33,0,0,1,1-1l.26-.22,0,0,0,0L257,184h0l.22-.06h0a.15.15,0,0,0,0,.06.9.9,0,0,1,0,.16c0,.06,0,.11,0,.17q0,.33,0,.66V185a.25.25,0,0,1,0,.07l-.06.36c-.06.29-.12.57-.19.86a17.29,17.29,0,0,0-.59,2.93,6.52,6.52,0,0,0,.58,3.08,2,2,0,0,0,2.22,1.11,4,4,0,0,0,1.8-1.2c.65-.64,1.25-1.33,1.9-2l.27-.25c0,.76-.15,1.51-.26,2.25a22.75,22.75,0,0,0-.4,4.66,1.3,1.3,0,1,0,2.6,0,22.81,22.81,0,0,1,.39-4.52A16.5,16.5,0,0,0,265.68,187.46Z" transform="translate(-4.99 -23.89)" style="fill:#ffc010"/><path d="M234.91,51.37h0Z" transform="translate(-4.99 -23.89)" style="fill:#ffc010"/><path d="M238.51,50.2s-.06.06,0,.06l0,0Z" transform="translate(-4.99 -23.89)" style="fill:#ffc010"/><path d="M242.24,48.64Z" transform="translate(-4.99 -23.89)" style="fill:#ffc010"/><path d="M244.52,46.6a3.72,3.72,0,0,0-3.57-.23,4.42,4.42,0,0,0-1.61,2.13l-.21.5h0l0,.05-.27.59a4.39,4.39,0,0,1-.27.47l-.06.08,0,0-.05.05,0,0-.11.11s0,0,0,0h0l-.08,0-.15.05s-.17-.09,0,0h0l-.23-.14a1.29,1.29,0,0,1-.18-.14l-.36-.31c-1.13-1-2.59-1.64-3.95-.6s-1.06,2.39-1.43,3.72c0,.07-.08.22-.08.24s-.16.32-.25.48-.15.28-.24.41-.1.14-.14.22l-.22-.14a5.74,5.74,0,0,0-1-.62,4.7,4.7,0,0,0-4.51.23,5,5,0,0,0-1.91,4.74,1.32,1.32,0,0,0,1.3,1.3,1.31,1.31,0,0,0,1.3-1.3,6.55,6.55,0,0,1,0-1,1.23,1.23,0,0,1,0-.2v0a3.65,3.65,0,0,1,.13-.5.86.86,0,0,1,.05-.15l0-.07a2.54,2.54,0,0,0,.16-.28,2.39,2.39,0,0,0,.22-.23l0,0c.07,0,.14-.08.2-.13l.06,0,.24-.08.32-.07.32,0,.32,0,.19,0,.3.09h0l.32.18a5.17,5.17,0,0,0,2,1c1.21.16,2-.79,2.61-1.74a5.77,5.77,0,0,0,.83-1.92c.12-.58.14-1.2.3-1.77a1.42,1.42,0,0,0,.05-.16h0l.07-.12h0l.06,0a.36.36,0,0,0,.12.08l.07,0,0,0c.11.09.22.18.32.28,1,.85,2,1.59,3.38,1.15A3.74,3.74,0,0,0,241,51c.1-.2.2-.41.29-.62l.18-.41.06-.15,0,0a9.35,9.35,0,0,1,.56-1.09l0,0,.08-.06-.08,0h0l.1-.07.06,0h.2l.39.12.07,0,.22.1a1.3,1.3,0,0,0,1.32-2.25Z" transform="translate(-4.99 -23.89)" style="fill:#ffc010"/><path d="M26.11,116.47c-2.27-.85-4.71-1.51-6.61-3.09a1.17,1.17,0,0,0-1.63,0,1.15,1.15,0,0,0,0,1.63c2.23,1.86,4.95,2.68,7.63,3.69a1.16,1.16,0,1,0,.61-2.23Z" transform="translate(-4.99 -23.89)" style="fill:#b263ea"/><path d="M80.54,94.73c-1.65-2-3-4.17-4.57-6.21a1.19,1.19,0,0,0-1.58-.42A1.17,1.17,0,0,0,74,89.68c1.68,2.2,3.15,4.56,4.93,6.68a1.17,1.17,0,0,0,1.63,0A1.2,1.2,0,0,0,80.54,94.73Z" transform="translate(-4.99 -23.89)" style="fill:#b263ea"/><path d="M243.76,95.56A28.34,28.34,0,0,1,237.89,92a1.16,1.16,0,0,0-1.63,1.64,31.55,31.55,0,0,0,6.34,3.91,1.19,1.19,0,0,0,1.58-.42A1.17,1.17,0,0,0,243.76,95.56Z" transform="translate(-4.99 -23.89)" style="fill:#b263ea"/><path d="M257.52,147.8a1.17,1.17,0,0,0-1.42-.81c-3.05,1.11-6.76,1.45-8.83,4.27a1.15,1.15,0,0,0,2,1.16c-.07.09,0,0,.05,0l.16-.18a4.83,4.83,0,0,1,.4-.38,6.62,6.62,0,0,1,.71-.46,10.05,10.05,0,0,1,2-.86c1.38-.46,2.8-.77,4.17-1.27A1.18,1.18,0,0,0,257.52,147.8Z" transform="translate(-4.99 -23.89)" style="fill:#b263ea"/><path d="M219.26,202.59c-1-2.55-1.94-5.14-3.69-7.29a1.15,1.15,0,0,0-1.63,0,1.17,1.17,0,0,0,0,1.63A23.63,23.63,0,0,1,217,203.2a1.2,1.2,0,0,0,1.42.81A1.18,1.18,0,0,0,219.26,202.59Z" transform="translate(-4.99 -23.89)" style="fill:#b263ea"/><path d="M267.4,214.78c-1.76-1.84-4.22-2.61-6.34-3.91-1.27-.79-2.43,1.21-1.16,2,1.93,1.19,4.27,1.88,5.87,3.55C266.8,217.48,268.43,215.85,267.4,214.78Z" transform="translate(-4.99 -23.89)" style="fill:#b263ea"/><path d="M110.72,204.6a47.31,47.31,0,0,0-5-4.93,1.16,1.16,0,0,0-1.58.42,1.18,1.18,0,0,0,.42,1.57,44.23,44.23,0,0,1,4.51,4.57,1.15,1.15,0,0,0,1.63-1.63Z" transform="translate(-4.99 -23.89)" style="fill:#b263ea"/><path d="M53.47,206.64A37.08,37.08,0,0,0,48.21,213a1.15,1.15,0,0,0,2,1.17,34.07,34.07,0,0,1,4.91-5.87C56.12,207.19,54.49,205.55,53.47,206.64Z" transform="translate(-4.99 -23.89)" style="fill:#b263ea"/><path d="M204.5,30.53a1.17,1.17,0,0,0-1.58-.42c-2.38,1.6-4.11,3.83-6,6a1.19,1.19,0,0,0,0,1.63,1.17,1.17,0,0,0,1.63,0c1.74-1.95,3.34-4.11,5.53-5.59A1.17,1.17,0,0,0,204.5,30.53Z" transform="translate(-4.99 -23.89)" style="fill:#b263ea"/><path d="M119.5,31.82A23.16,23.16,0,0,1,118.18,25c.06-1.48-2.25-1.48-2.3,0-.1,2.5.74,5.05,1.4,7.43a1.15,1.15,0,0,0,2.22-.61Z" transform="translate(-4.99 -23.89)" style="fill:#b263ea"/><rect x="127.91" y="209.12" width="49.5" height="40.36" rx="3" style="fill:#ffc010"/><rect x="84.25" y="221.66" width="49.5" height="27.81" rx="3" style="fill:#ffc010"/><rect x="172.28" y="235.57" width="49.5" height="13.9" rx="3" style="fill:#ffc010"/><path d="M58.59,247.55a1,1,0,0,0-1.43,0,5.46,5.46,0,0,0-1,2,19.31,19.31,0,0,1-.64,1.95,3.35,3.35,0,0,1-.21.36l-.12.13c.05,0-.17.09-.23.11a.83.83,0,0,1-.21.06h-.07l0,0a1,1,0,0,1-.15-.13c-.22-.22-.41-.48-.61-.72a4.76,4.76,0,0,0-4.25-1.61A3.67,3.67,0,0,0,47,251.91a27.07,27.07,0,0,0-1.13,3.51,1.91,1.91,0,0,1-.7-.22c-1.15-.6-2.17,1.14-1,1.74,1,.5,2.94,1,3.46-.32a18.15,18.15,0,0,0,.56-1.91c.09-.31.17-.62.27-.92s.1-.33.16-.5.18-.45.12-.32a5.53,5.53,0,0,1,.46-.82h0a.63.63,0,0,1,.11-.12l.15-.15v0l.09,0,.2-.1a2.14,2.14,0,0,1,.34-.09h.47l.33.07a2.78,2.78,0,0,1,1.69,1.08,3.56,3.56,0,0,0,1.62,1.32,2.7,2.7,0,0,0,2.43-.65,5.07,5.07,0,0,0,1.23-2.4c.14-.44.26-.87.4-1.3l.15-.38.12-.23s.21-.29.08-.13A1,1,0,0,0,58.59,247.55Z" transform="translate(-4.99 -23.89)" style="fill:#ffc010"/><path d="M23.32,274.35c-.53-.46-1-1-1.58-1.38a3.07,3.07,0,0,0-2.1-.91,2.92,2.92,0,0,0-2.16,1.38c0,.05-.28.39-.16.24a1.8,1.8,0,0,1-.19.2h0l-.05,0,0,0-.18,0c-.2.05-.52.1-.66.12l-.38,0h-.24l-.09,0h0s0-.06-.06-.06h0a.29.29,0,0,0-.07-.1l-.18-.32c-.18-.3-.34-.62-.52-.92s-.46-.7-.63-1.07c0,.05-.1-.26-.12-.34l-.12-.43a2.37,2.37,0,0,0-1.47-1.64A4.24,4.24,0,0,0,7.08,272l0,.11c-.31,1.26,1.64,1.8,2,.54a2.41,2.41,0,0,1,1.39-1.52,1.88,1.88,0,0,1,1-.1,1.68,1.68,0,0,1,.32.09h.07l0,0h0s.08.2,0,0,.06.2.08.26a7.92,7.92,0,0,0,.28.82,21.39,21.39,0,0,0,1.13,2.05,2.76,2.76,0,0,0,2.58,1.8,4.88,4.88,0,0,0,2.28-.48,3.08,3.08,0,0,0,.78-.79l.22-.3.07-.11a1.54,1.54,0,0,0,.12-.13.48.48,0,0,1,.45-.22h0l.06,0,.45.3c.48.37,1.05.92,1.56,1.36a1,1,0,0,0,1.43,0A1,1,0,0,0,23.32,274.35Z" transform="translate(-4.99 -23.89)" style="fill:#ffc010"/><path d="M17.11,273.88Z" transform="translate(-4.99 -23.89)" style="fill:#ffc010"/><path d="M17.14,273.88h0v0h0Z" transform="translate(-4.99 -23.89)" style="fill:#ffc010"/><path d="M264.23,270.46a3.77,3.77,0,0,0-4.2.31,4.93,4.93,0,0,0-1.57,2.7l-.24-.13a4.42,4.42,0,0,1-1.08-.84c-.82-.79-1.53-1.69-2.36-2.47a5.55,5.55,0,0,0-3.14-1.66,4.17,4.17,0,0,0-3.55,1.43,11.35,11.35,0,0,0-2,4c-.4,1.24,1.55,1.77,2,.54a10.06,10.06,0,0,1,1.33-2.95,2.25,2.25,0,0,1,2.3-.94,1.61,1.61,0,0,1,.29.09h0l.14.07a4.9,4.9,0,0,1,.62.38l.47.4c.2.19.39.37.57.57.74.76,1.4,1.58,2.2,2.28a4.61,4.61,0,0,0,3.24,1.38,1,1,0,0,0,1-1,3.77,3.77,0,0,1,1-2.27,1.63,1.63,0,0,1,.77-.37,2.35,2.35,0,0,1,1.17.24,1,1,0,0,0,1.38-.37A1,1,0,0,0,264.23,270.46Z" transform="translate(-4.99 -23.89)" style="fill:#ffc010"/><path d="M294.68,245.36a1.86,1.86,0,0,0-1.78-.85,11.1,11.1,0,0,0-4.06,1.73l-1,.5-.2.09h0a3,3,0,0,1-.42.15l-.13,0h0v-.38a3.81,3.81,0,0,1,.07-.59c.09-.5.2-1,.27-1.48a3.67,3.67,0,0,0-.68-3.21c-.93-1-2.35-.82-3.54-.55a24.47,24.47,0,0,0-3.13,1.05,1,1,0,0,0-.7,1.24,1,1,0,0,0,1.24.71c.83-.32,1.66-.65,2.52-.89a8,8,0,0,1,1.29-.29H285l.15,0h0a.41.41,0,0,1,.11.07.76.76,0,0,1,.15.23c0,.05,0,.15,0,.15s0,.07,0,.1v0a4.3,4.3,0,0,1-.1,1.29,7.69,7.69,0,0,0-.25,3,1.86,1.86,0,0,0,1.68,1.54,4,4,0,0,0,1.77-.46c1.23-.54,2.35-1.28,3.57-1.83l.35-.14.43-.11h0a2.8,2.8,0,0,1,0,.29,2.11,2.11,0,0,1,0,.26v.09l0,.15a1,1,0,0,0,.7,1.24,1,1,0,0,0,1.24-.7A3.63,3.63,0,0,0,294.68,245.36Z" transform="translate(-4.99 -23.89)" style="fill:#ffc010"/><path d="M293,246.52h0Z" transform="translate(-4.99 -23.89)" style="fill:#ffc010"/><path d="M108.71,244.5a5,5,0,0,1-1.82,1c-.8.26-1.62.44-2.43.67a8.46,8.46,0,0,0-4.73,3,1,1,0,0,0,1.75,1,7.05,7.05,0,0,1,4.13-2.22,10.37,10.37,0,0,0,4.53-2C111.1,245.06,109.67,243.63,108.71,244.5Z" transform="translate(-4.99 -23.89)" style="fill:#b263ea"/><path d="M199.63,258.79c-2.55.31-4.26-1.64-5.57-3.57-.73-1.07-2.48-.06-1.74,1,1.67,2.47,4,5,7.31,4.57a1,1,0,0,0,1-1A1,1,0,0,0,199.63,258.79Z" transform="translate(-4.99 -23.89)" style="fill:#b263ea"/><path d="M178.07,232.16a3,3,0,0,1-.72,1,2.36,2.36,0,0,1-.67.38,3.44,3.44,0,0,1-2,0,7.8,7.8,0,0,1-3.83-2.54,1,1,0,0,0-1.43,0,1,1,0,0,0,0,1.43c2.45,2.95,8.14,5.16,10.4.81C180.41,232,178.67,231,178.07,232.16Z" transform="translate(-4.99 -23.89)" style="fill:#b263ea"/><path d="M282,267.61a15.85,15.85,0,0,0-6.11.87,11.44,11.44,0,0,0-4.6,4,1,1,0,0,0,.36,1.38,1,1,0,0,0,1.38-.36,12.92,12.92,0,0,1,1.91-2.13,7.54,7.54,0,0,1,1.75-1.09,14.24,14.24,0,0,1,5.3-.69,1,1,0,0,0,1-1A1,1,0,0,0,282,267.61Z" transform="translate(-4.99 -23.89)" style="fill:#b263ea"/><path d="M242.32,273.1a1,1,0,0,0-1.25-.7A4.44,4.44,0,0,1,237,271a1,1,0,0,0-1.43,0,1,1,0,0,0,0,1.43,6.56,6.56,0,0,0,6.07,2A1,1,0,0,0,242.32,273.1Z" transform="translate(-4.99 -23.89)" style="fill:#b263ea"/><path d="M66.86,272.49a4.32,4.32,0,0,1-3.25.36,7.32,7.32,0,0,1-3-1.9c-.93-.9-2.36.53-1.42,1.43a9.51,9.51,0,0,0,4,2.46,6.51,6.51,0,0,0,4.66-.6C69,273.64,68,271.9,66.86,272.49Z" transform="translate(-4.99 -23.89)" style="fill:#b263ea"/><path d="M38.81,272.39a14.11,14.11,0,0,0-4.63,0,8.66,8.66,0,0,0-4.15,2,1,1,0,0,0,0,1.42,1,1,0,0,0,1.43,0c1.9-1.61,4.44-1.79,6.82-1.43a1,1,0,0,0,1.24-.71A1,1,0,0,0,38.81,272.39Z" transform="translate(-4.99 -23.89)" style="fill:#b263ea"/><path d="M245.75,240.48a2.5,2.5,0,0,1-1.64-.46,5.48,5.48,0,0,1-1.46-1.46,7.69,7.69,0,0,1-1-1.95,4.44,4.44,0,0,1-.3-1.9c.07-1.3-2-1.3-2,0a8.2,8.2,0,0,0,1.74,5.08c1.1,1.49,2.74,2.84,4.7,2.71a1,1,0,0,0,1-1A1,1,0,0,0,245.75,240.48Z" transform="translate(-4.99 -23.89)" style="fill:#b263ea"/><path d="M14.2,234.41a8.26,8.26,0,0,1-4.16.17,4,4,0,0,1-3.18-2.08,1,1,0,0,0-1.38-.36,1,1,0,0,0-.36,1.38,5.81,5.81,0,0,0,4.26,3,10.59,10.59,0,0,0,5.36-.14C16,236,15.44,234,14.2,234.41Z" transform="translate(-4.99 -23.89)" style="fill:#b263ea"/><path d="M158.81,95c.11-.25.2-.49.3-.74a4.43,4.43,0,0,0,3.65.71c1.7-.62,2.09-2.74,1.43-4.23a3.56,3.56,0,0,0-4-2,18.31,18.31,0,0,0-.32-5.17,7.85,7.85,0,0,0-3.9-5.34,11,11,0,0,0-5.3-1.33c.14.12.15.35-.08.38a8.46,8.46,0,0,0-3.18.7,5.85,5.85,0,0,0-2.09,2.35.24.24,0,0,1-.34.07.1.1,0,0,1-.05,0A11.91,11.91,0,0,0,143.75,83a14.55,14.55,0,0,0-1.22,5.7c0,.06,0,.13,0,.19,0,.26-.08.51-.1.77a11.91,11.91,0,0,0,.93,6,6.46,6.46,0,0,0,3.69,4.3,5.24,5.24,0,0,0,.86.24c.16.06.31.13.47.18a6.15,6.15,0,0,0,1.86.26,60.35,60.35,0,0,1-1.2,6.66l0,.1.26-.09a.43.43,0,0,1,.52.33.42.42,0,0,1-.29.5,2.67,2.67,0,0,1-.26.09c0,.09,0,.18,0,.27a.4.4,0,0,0,.5-.26v0a59.88,59.88,0,0,0,1.41-7.65,7.21,7.21,0,0,0,1.12-.24,14,14,0,0,0,4.39-2.3,8.28,8.28,0,0,0,1.12-1.25,97,97,0,0,0-.47,11.81.41.41,0,0,0,.39.41l.23-.63a.46.46,0,0,1,.14-.37.64.64,0,0,1,.1-.13A96.08,96.08,0,0,1,158.81,95Z" transform="translate(-4.99 -23.89)" style="fill:#ffaf97"/><path d="M150.45,76.78a8.32,8.32,0,0,0-3.43.83,6.41,6.41,0,0,0-2.15,2.44.2.2,0,0,0,.07.26.25.25,0,0,0,.35,0l0,0a5.84,5.84,0,0,1,2.1-2.36,8.65,8.65,0,0,1,3.17-.7c.24,0,.23-.26.08-.37A.29.29,0,0,0,150.45,76.78Z" transform="translate(-4.99 -23.89)" style="fill:none"/><path d="M210,161.92a12.25,12.25,0,0,0-2.22-4.17c-2.5-2.74-6.28-2.62-9.68-2.74l-.79,0c-.1,0-.32-.06-.46-.06a2.71,2.71,0,0,1,.05-.27,21.6,21.6,0,0,0,.6-3.4,13.7,13.7,0,0,1-3.08-1.18,35.14,35.14,0,0,0-2.32,4.26c-.36.78-.7,1.58-1,2.38a9.87,9.87,0,0,0-.72,2.17,3,3,0,0,0,1.3,2.89,3.69,3.69,0,0,0,2.4.56.44.44,0,0,0,.57.26h0a7.16,7.16,0,0,1,4.2-.13,25.34,25.34,0,0,1,4.09,1.32,22.34,22.34,0,0,1,4.21,2.36,8.12,8.12,0,0,1,1.29,1c.33.34.64.7.95,1.05a16.85,16.85,0,0,0,1.17,1.22l.23.2A33.32,33.32,0,0,0,210,161.92Zm-1.74.71a.32.32,0,0,1-.45,0l0-.07a14.8,14.8,0,0,0-2.55-3.94c-.24-.28.17-.69.41-.41v0a.31.31,0,0,1,.19,0,5.85,5.85,0,0,1,2.76,4.07.31.31,0,0,1-.24.36Z" transform="translate(-4.99 -23.89)" style="fill:#60358e"/><path d="M133.17,160.49c-1-.18-2.09-.37-3.13-.58a.78.78,0,0,0-.19.59,113.47,113.47,0,0,0,5.09,22.5,106.58,106.58,0,0,0,5.61,13.6c1.63,3.25,3.37,6.46,5.27,9.56a42.84,42.84,0,0,0,6.93,9.18,12.28,12.28,0,0,0,1,.87l.34.4s0,.09.07.13a2.79,2.79,0,0,0,1.05.88c.14.1.27.2.41.28a3.82,3.82,0,0,0,3.48.48,2.21,2.21,0,0,0,.34-.18,5.78,5.78,0,0,0,4.15-3.85c.71-2.35.06-5-.69-7.26-.38-1.17-.84-2.32-1.32-3.46-.12-.29-.24-.58-.37-.87l-.14-.33-.13-.31c-.17-.42-.35-.84-.51-1.27-1.47-3.87-2.82-7.79-4.1-11.72q-3.9-11.92-6.76-24.15c-.24-1-.47-2-.7-3.06l0-.08c-.61,0-1.23,0-1.84,0C147,161.9,133.2,160.54,133.17,160.49Z" transform="translate(-4.99 -23.89)" style="fill:#a3ed96"/><path d="M195.29,161.76a4.36,4.36,0,0,0-3-1.73c-2.68-.39-5.54.67-7.88,1.92a25.14,25.14,0,0,0-6.57,5.22,44.09,44.09,0,0,0-3.19,3.9,51.78,51.78,0,0,0-3.72-11.66l-1.52.35a99.27,99.27,0,0,1-12.5,1.79c-.16,0-3.14.2-4.57.24a1.74,1.74,0,0,0,0,.32,63.31,63.31,0,0,0,3.46,12.37c1.66,4.1,3.93,8.23,7.45,11a14.44,14.44,0,0,0,5.74,2.83,16.3,16.3,0,0,0,7.32-.12c4.69-1.11,8.51-4.3,11.42-8a59.43,59.43,0,0,0,7.12-12.62l.35-.8a6.08,6.08,0,0,0,.49-1.07A4.3,4.3,0,0,0,195.29,161.76Z" transform="translate(-4.99 -23.89)" style="fill:#a3ed96"/><path d="M146.42,72.64c-1.56,0-7.26,5.36-5.3,6.25C141.47,79,147.15,72.64,146.42,72.64Z" transform="translate(-4.99 -23.89)" style="fill:none"/><path d="M145.32,80.28a5.84,5.84,0,0,1,2.1-2.36,8.65,8.65,0,0,1,3.17-.7c.24,0,.23-.26.08-.37a.25.25,0,0,0-.22-.06,8.31,8.31,0,0,0-3.43.82,6.56,6.56,0,0,0-2.15,2.44.19.19,0,0,0,.07.26.24.24,0,0,0,.35,0Z" transform="translate(-4.99 -23.89)" style="fill:none"/><path d="M157.29,108.6a95,95,0,0,1,.46-11.81A7.41,7.41,0,0,1,156.63,98a14,14,0,0,1-4.39,2.3,7,7,0,0,1-1.12.24,58.18,58.18,0,0,1-1.41,7.65.4.4,0,0,1-.48.3h0c-.25,2-.9,3.84-1,5.8a5,5,0,0,0,1.75,4.59,2.77,2.77,0,0,0,3.88-.57l.05-.06a15.78,15.78,0,0,0,2-4.5l1.77-4.78A.4.4,0,0,1,157.29,108.6Z" transform="translate(-4.99 -23.89)" style="fill:none"/><path d="M148.93,107.44H149l0-.1Z" transform="translate(-4.99 -23.89)" style="fill:none"/><path d="M183.74,71.85a105.06,105.06,0,0,0-20.4,43.23c-.11.54-1,.31-.83-.23q.53-2.49,1.19-4.95a14.51,14.51,0,0,0-5-1.1c-.85,2.3-1.71,4.61-2.57,6.91a8.21,8.21,0,0,1-2.49,4,3.63,3.63,0,0,1-4.45-.3c-3.33-2.71-1.3-7.28-.82-10.86a34.13,34.13,0,0,0-5.12,2.22.42.42,0,0,1-.34.51.41.41,0,0,1-.38-.11h0a32.87,32.87,0,0,0-9.4,8.09c-.35.43-1-.18-.61-.61a33.23,33.23,0,0,1,9.4-8.11c-2.11-2.17-4.17-4.36-6.2-6.6a249.61,249.61,0,0,1-21.31-27.09l-7,5.56a81.17,81.17,0,0,0,21.8,42.35c.26-1,.52-1.9.8-2.85a.43.43,0,0,1,.55-.28.44.44,0,0,1,.29.51c-.75,2.56-1.44,5.15-2.05,7.75a144.36,144.36,0,0,0-3.63,26.32.34.34,0,0,1,0,.2l-.11,1.44a93.28,93.28,0,0,0,12,2.35l1.93.22,1.29.13a95.88,95.88,0,0,0,12.68.36l.56,0h.34l.58,0c1.72-.09,3.44-.22,5.15-.4,2.7-.29,5.38-.69,8-1.22l.69-.13a94.6,94.6,0,0,0,12.69-3.5.33.33,0,0,1-.06-.19q-.54-9-.32-18.09a221.16,221.16,0,0,1,10.73-63,.91.91,0,0,1-.3-.42A8.42,8.42,0,0,0,183.74,71.85Z" transform="translate(-4.99 -23.89)" style="fill:none"/><path d="M148.52,107.59a.46.46,0,0,1,.41-.15l.11-.12a59.93,59.93,0,0,0,1.2-6.66,6.15,6.15,0,0,1-1.86-.26c-.16-.05-.32-.12-.47-.18a4.4,4.4,0,0,1-.86-.24,6.42,6.42,0,0,1-3.69-4.3,11.8,11.8,0,0,1-.93-6c0-.25.07-.51.1-.77,0-.06,0-.13,0-.19a14.55,14.55,0,0,1,1.22-5.7,12,12,0,0,1,1.19-2.73.21.21,0,0,1-.07-.27A6.5,6.5,0,0,1,147,77.6a8.47,8.47,0,0,1,3.42-.82.29.29,0,0,1,.22.06,10.86,10.86,0,0,1,5.3,1.33,7.84,7.84,0,0,1,3.91,5.34,18.26,18.26,0,0,1,.32,5.16,3.58,3.58,0,0,1,4,2c.66,1.5.27,3.61-1.43,4.22a4.43,4.43,0,0,1-3.65-.7c-.09.25-.19.5-.3.74a94.46,94.46,0,0,0-.66,12.92.44.44,0,0,1,.63,0,.25.25,0,0,1,.08.1,15.68,15.68,0,0,1,5.06,1.12c.43-1.55.88-3.09,1.38-4.62a106.44,106.44,0,0,1,7.29-17.14,47.49,47.49,0,0,0-4-5s-2.64-2.94-3.93-4.41a45,45,0,0,0-5.39-4.56c-4.82-3.4-12.83-3.39-17.23.86a11.1,11.1,0,0,0-2.12,3.16s0,0,0,0c-3.78,6.9-.06,15.49-3.56,22.45a13.73,13.73,0,0,1-1.3,2.09q3.74,4.18,7.63,8.2A34.21,34.21,0,0,1,148.52,107.59Zm-7.4-28.7c-2-.89,3.74-6.25,5.31-6.25.72,0-5,6.4-5.31,6.25Z" transform="translate(-4.99 -23.89)" style="fill:#b263ea"/><path d="M202.12,67.11a21.38,21.38,0,0,0-5,.79l5.71-10.16a1,1,0,0,0-1.58-1.22,24.14,24.14,0,0,0-3.75,4.2c-.39.56-.76,1.38-1.38,1.72a1.23,1.23,0,0,1-.42.14l1.47-2.85,1.24-2.41a6.07,6.07,0,0,0,1-2.37,1.32,1.32,0,0,0-1.91-1.21c-.75.39-1.18,1.38-1.62,2.07-1,1.48-1.89,3-2.92,4.46-.17.24-.78,1-1.15.67,0,0,0,0,0,0,1.1-2.52,2.36-5,3.62-7.43a1,1,0,0,0-.32-1.39,1,1,0,0,0-1.39.32l0,.05a63.06,63.06,0,0,0-9.47,17.72.88.88,0,0,0,.1.74A9.26,9.26,0,0,1,192.39,74a.38.38,0,0,1,.09.35.73.73,0,0,0,.32-.33,5.77,5.77,0,0,1,3.48-2.69c2-.79,4.07-1.49,6.1-2.24a1,1,0,0,0,.72-1.1A1,1,0,0,0,202.12,67.11Z" transform="translate(-4.99 -23.89)" style="fill:#ffaf97"/><path d="M191.32,74.3l0-.12c-.11-.11-.23-.2-.34-.3A.91.91,0,0,0,191.32,74.3Z" transform="translate(-4.99 -23.89)" style="fill:#ffaf97"/><path d="M114.05,76a46.48,46.48,0,0,1-3-11,1,1,0,0,0-1.11-.72,1,1,0,0,0-.87,1,31.46,31.46,0,0,0-.23,4.55l-4.71-8.4c-.55-1-2.25-.32-1.85.78l2.24,6.09a4.11,4.11,0,0,1,.3,1h0a3.18,3.18,0,0,1-.77-.47l-3.32-5.24a1,1,0,0,0-1.39-.37A1,1,0,0,0,99,64.6h0q1.44,3.34,2.86,6.68c.09.21.19.42.26.63s0,.33.08.45c-.15-.08-.41-.17-.52-.24l-.26-.17-4.33-5.12a1,1,0,0,0-1.33-.08,1,1,0,0,0-.26,1.3A39.17,39.17,0,0,0,106.39,81.6a1.58,1.58,0,0,0,.36.2L114,76Z" transform="translate(-4.99 -23.89)" style="fill:#ffaf97"/><path d="M180.6,137.32a221.29,221.29,0,0,1,10.72-63l0-.12c-.11-.11-.23-.2-.34-.3a8.39,8.39,0,0,0-7.28-2,105.06,105.06,0,0,0-20.4,43.23c-.11.54-1,.31-.83-.23.36-1.67.75-3.32,1.19-5a14.74,14.74,0,0,0-5-1.1c-.85,2.31-1.71,4.61-2.57,6.92a8.21,8.21,0,0,1-2.49,4,3.62,3.62,0,0,1-4.44-.3c-3.34-2.71-1.3-7.28-.83-10.86a32.2,32.2,0,0,0-5.12,2.22.43.43,0,0,1-.34.51.41.41,0,0,1-.38-.11h0a32.72,32.72,0,0,0-9.4,8.09c-.35.43-1-.18-.61-.62a33.55,33.55,0,0,1,9.4-8.11q-3.16-3.24-6.2-6.59a249.72,249.72,0,0,1-21.31-27.1l-7,5.56a81.13,81.13,0,0,0,21.8,42.35c.26-.95.52-1.9.8-2.85a.44.44,0,0,1,.84.23c-.75,2.57-1.44,5.16-2.05,7.76a144.12,144.12,0,0,0-3.63,26.32.34.34,0,0,1,0,.2l-.11,1.44a95,95,0,0,0,12,2.35c.64.08,1.29.15,1.93.21l1.29.14a97.61,97.61,0,0,0,12.68.35l.56,0,.34,0,.58,0c1.72-.09,3.44-.23,5.15-.41,2.7-.28,5.38-.69,8-1.21l.69-.14A96.08,96.08,0,0,0,181,155.58a.35.35,0,0,1-.06-.19Q180.39,146.38,180.6,137.32Z" transform="translate(-4.99 -23.89)" style="fill:none"/><path d="M201.49,108.15a5.13,5.13,0,0,0-2.39-3.25c-1-.65-2.23-1-3.29-1.67a1,1,0,0,0-1.37.4,1,1,0,0,0,.35,1.34c1,.58,2,1,3,1.49a3.2,3.2,0,0,1,1.77,2.23C199.83,110,201.78,109.42,201.49,108.15Z" transform="translate(-4.99 -23.89)" style="fill:none"/><path d="M209.92,139.56a17.6,17.6,0,0,1-1.79-1.77,21.94,21.94,0,0,1-1.65-2.53,1,1,0,0,0-1.75,1,17.81,17.81,0,0,0,3.2,4.22,9.74,9.74,0,0,1,1.45,1.42c.36.48.45.71.19,1.1-.72,1.09,1,2.1,1.74,1C212.41,142.37,211.15,140.69,209.92,139.56Z" transform="translate(-4.99 -23.89)" style="fill:none"/><path d="M207.77,127a1,1,0,0,0,2,0c.08-4.67-4-8-7.49-10.41a1,1,0,0,0-1.38.36,1,1,0,0,0,.36,1.38C204.17,120.3,207.84,123.11,207.77,127Z" transform="translate(-4.99 -23.89)" style="fill:none"/><path d="M128.57,125.37a82.75,82.75,0,0,1-5.67-6.45c-1.36,2.46-8.37,15.72-4.34,21,2,2.55,5.87,2.31,7.1,1.73A147,147,0,0,1,129,125.47.37.37,0,0,1,128.57,125.37Z" transform="translate(-4.99 -23.89)" style="fill:#b263ea"/><path d="M211.47,138.87c-1.86-2.08-3.85-4.05-5.51-6.3,5.43.71,7.25-4.67,5.15-8.79-2-3.87-5.54-7.74-9.75-9,3.93-2.08,3.22-7,.31-9.54-3.36-3-8-3.71-12-5.5-1-.44-2.55-1.48-3.62-2h0a218.78,218.78,0,0,0-4.48,51.94,3.55,3.55,0,0,0,2.67,2.51c5,.9,7.33-3.54,6.44-7.54A20.82,20.82,0,0,0,205,149.28C210.36,149.17,216.22,144.18,211.47,138.87Zm-11.93-30.18a3.2,3.2,0,0,0-1.77-2.23c-1-.55-2-.91-3-1.49a1,1,0,0,1,1-1.74c1.06.63,2.24,1,3.29,1.67a5.13,5.13,0,0,1,2.39,3.25C201.78,109.42,199.83,110,199.54,108.69Zm1.38,8.25a1,1,0,0,1,1.38-.36c3.5,2.4,7.57,5.74,7.49,10.41a1,1,0,0,1-1,1,1,1,0,0,1-1-1c.07-3.88-3.6-6.69-6.49-8.67a1,1,0,0,1-.36-1.38ZM211.31,144c-.72,1.08-2.46.07-1.75-1,.27-.39.18-.62-.18-1.1a10.24,10.24,0,0,0-1.45-1.42,17.29,17.29,0,0,1-3.2-4.22,1,1,0,0,1,1.74-1,22.62,22.62,0,0,0,1.66,2.54,17.6,17.6,0,0,0,1.79,1.77c1.23,1.13,2.49,2.81,1.39,4.47Z" transform="translate(-4.99 -23.89)" style="fill:#b263ea"/><path d="M182.24,123.29A222.92,222.92,0,0,1,186,97.7q.63-3,1.33-6,2-8.55,4.75-16.93a.47.47,0,0,0,.39-.4.38.38,0,0,0-.09-.35,9.26,9.26,0,0,0-8.08-3.09c-.17,0-.34,0-.51.06a.35.35,0,0,0-.49,0s0,0,0,0l0,0a.39.39,0,0,0-.24.31,105,105,0,0,0-10.2,15.5c-.08.14-.14.28-.22.42a107.35,107.35,0,0,0-7.29,17.14c-.5,1.52-1,3.07-1.37,4.62a15.8,15.8,0,0,0-5.06-1.12.46.46,0,0,0-.63-.15l-.09.08a.41.41,0,0,0-.1.13.4.4,0,0,0-.14.37l-.23.63-1.78,4.77a16,16,0,0,1-2,4.51A2.79,2.79,0,0,1,150,119l-.06,0a5,5,0,0,1-1.75-4.59c.12-2,.77-3.85,1-5.8,0-.09,0-.18,0-.27l.27-.09a.44.44,0,0,0,.28-.54.43.43,0,0,0-.51-.29l-.26.08,0,0h0a.45.45,0,0,0-.41.15,33.45,33.45,0,0,0-5.87,2.51q-3.91-4-7.63-8.2-7.69-8.64-14.57-18-2.89-3.93-5.63-8a.47.47,0,0,0-.76,0h0l-7.28,5.79-.21.16a.36.36,0,0,0-.08.5.23.23,0,0,0,.07.07,81.88,81.88,0,0,0,15.09,34.71c.42.56.85,1.11,1.29,1.67a80.59,80.59,0,0,0,5.66,6.45.41.41,0,0,0,.42.1,144.68,144.68,0,0,0-3.33,16.21c-.4,2.72-.72,5.44-1,8.18s-.4,5.23-.49,7.85a.43.43,0,0,0-.27.55.42.42,0,0,0,.28.27q2.9.78,5.83,1.38c1,.21,2.08.4,3.13.58l.21,0a95.38,95.38,0,0,0,13.29,1.29H147c.61,0,1.22,0,1.84,0,1.14,0,2.28,0,3.41-.05,1.43,0,2.85-.11,4.27-.22l.3,0a97.47,97.47,0,0,0,12.5-1.79l1.53-.35a94.85,94.85,0,0,0,10.93-3.19.45.45,0,0,0,.27-.57.44.44,0,0,0-.31-.28c-.11-1.91-.19-3.82-.25-5.73A220.69,220.69,0,0,1,182.24,123.29Zm-14,35.8-.69.14c-2.66.51-5.34.92-8,1.21-1.71.18-3.43.32-5.15.41l-.58,0-.34,0-.57,0a97.46,97.46,0,0,1-12.67-.35l-1.3-.14-1.93-.21a95.38,95.38,0,0,1-12-2.35l.12-1.45a.51.51,0,0,0,0-.2,143.26,143.26,0,0,1,3.63-26.31c.61-2.61,1.29-5.19,2-7.76a.43.43,0,0,0-.32-.52.44.44,0,0,0-.51.29c-.28,1-.54,1.9-.8,2.85a81.08,81.08,0,0,1-21.81-42.35l7-5.56A252.21,252.21,0,0,0,135.68,104q3,3.36,6.2,6.6a33.37,33.37,0,0,0-9.4,8.11c-.34.43.27,1,.61.61a33.14,33.14,0,0,1,9.4-8.09h0a.44.44,0,0,0,.62,0,.46.46,0,0,0,.1-.39,33.25,33.25,0,0,1,5.13-2.22c-.49,3.58-2.51,8.15.82,10.86a3.61,3.61,0,0,0,4.44.3,8.15,8.15,0,0,0,2.5-4c.86-2.31,1.71-4.61,2.57-6.91a14.23,14.23,0,0,1,5,1.1q-.64,2.46-1.19,5c-.11.54.72.77.84.23a104.88,104.88,0,0,1,20.4-43.23,8.42,8.42,0,0,1,7.28,2l.34.3a.56.56,0,0,1,0,.12,221.51,221.51,0,0,0-10.73,63q-.21,9,.32,18.08a.36.36,0,0,0,.06.2A96.5,96.5,0,0,1,168.29,159.09Z" transform="translate(-4.99 -23.89)" style="fill:#ffc010"/><path d="M143.85,133.36a43.84,43.84,0,0,0-3.09-4.43l2.81-2.28c.43-.36-.19-1-.62-.62l-2.5,2c.11-.82.21-1.64.3-2.45.07-.56-.8-.55-.86,0l-.24,1.95c-.28-.33-.56-.66-.85-1s-1,.2-.61.61.89,1,1.31,1.53v.12l-2.58,2.1c-.43.35.18,1,.61.61l1.81-1.47L139,133c-.07.55.8.54.86,0l.42-3.32a44.88,44.88,0,0,1,2.85,4.11C143.39,134.27,144.14,133.84,143.85,133.36Z" transform="translate(-4.99 -23.89)" style="fill:#ffc010"/><path d="M168.35,141l-2-.38,1.82-.91c.5-.25.06-1-.44-.75l-1.79.9.59-2.41c.14-.54-.7-.77-.83-.23l-.77,3.13L163,140c-.54-.1-.78.73-.23.83l.92.18-1,.52c-.5.25-.06,1,.43.75l1.58-.79c-.15.61-.31,1.23-.46,1.85a.44.44,0,0,0,.84.23l.54-2.2,2.53.48C168.66,141.93,168.9,141.1,168.35,141Z" transform="translate(-4.99 -23.89)" style="fill:#ffc010"/><path d="M166.53,124l-1.8-1.93,1.53-1.75c.37-.42-.24-1-.61-.61l-1.5,1.71c.06-.64.12-1.29.17-1.93s-.82-.55-.86,0l-.1,1.11-1.13-1.21c-.38-.41-1,.2-.61.61l1.63,1.77-.06.75-1.1,1.26c-.37.42.24,1,.61.61l.37-.42c-.06.71-.12,1.42-.19,2.13s.82.55.87,0l.28-3.23.13-.14,1.75,1.89C166.29,125.07,166.9,124.45,166.53,124Z" transform="translate(-4.99 -23.89)" style="fill:#ffc010"/><path d="M151.43,147.34l-2.32,1c.39-.7.79-1.4,1.19-2.1a.44.44,0,0,0-.18-.59.43.43,0,0,0-.57.15l-.9,1.59a16.79,16.79,0,0,1-.07-1.88.44.44,0,0,0-.46-.41.43.43,0,0,0-.41.41,17.41,17.41,0,0,0,.23,3.14l-.13.24-3.09,1.29c-.51.21-.28,1,.23.83l2.17-.91-.88,1.55a.44.44,0,0,0,.75.44l1.22-2.15a16.35,16.35,0,0,0,.79,2.55c.21.51,1,.29.84-.23a16.77,16.77,0,0,1-.89-2.93l2.72-1.13C152.17,148,152,147.12,151.43,147.34Z" transform="translate(-4.99 -23.89)" style="fill:#ffc010"/><path d="M135.49,145.92l-3,1.3-.48-2.87c-.09-.55-.92-.31-.83.23.13.77.26,1.54.38,2.32l-1.18-.65c-.49-.27-.93.48-.44.74l1.36.75-1.67.72c-.51.22-.07,1,.44.75l1.75-.76.42,2.48c.09.55.92.32.83-.23-.12-.73-.24-1.46-.37-2.2l2,1.11c.49.27.92-.48.43-.74l-1.9-1.05,2.67-1.15C136.43,146.45,136,145.71,135.49,145.92Z" transform="translate(-4.99 -23.89)" style="fill:#ffc010"/><path d="M180.33,104.62l-2.25.75a11,11,0,0,1,1.17-1.79c.34-.43-.27-1-.61-.61a12.37,12.37,0,0,0-1.3,2l-1.18-1c-.43-.35-1,.26-.61.61l1.37,1.13,0,0-2.67.89c-.53.17-.3,1,.23.83l2-.67a13.91,13.91,0,0,0-.55,1.91c-.1.55.73.78.84.23a12.28,12.28,0,0,1,.78-2.5l.19-.06,2.13,1.76c.43.35,1-.26.62-.61l-1.79-1.47,1.86-.62C181.09,105.28,180.86,104.44,180.33,104.62Z" transform="translate(-4.99 -23.89)" style="fill:#ffc010"/><path d="M180.44,87l-2.24.11a18.59,18.59,0,0,0,1.76-1.9c.35-.43-.26-1-.61-.61a19.7,19.7,0,0,1-1.75,1.9l-1.4-2.79c-.25-.5-1-.06-.75.43l1.49,3-.07,0-2.28.12c-.55,0-.55.89,0,.86l1.15-.05c-.51.38-1,.75-1.58,1.09s0,1,.44.74a22,22,0,0,0,2.6-1.91h.19l1.36,2.74c.25.5,1,.06.75-.44L178.33,88l2.11-.11C181,87.86,181,87,180.44,87Z" transform="translate(-4.99 -23.89)" style="fill:#ffc010"/><path d="M180.52,134.47l-1-1h.62a.44.44,0,0,0,0-.87H179l1.27-1.9c.31-.46-.44-.9-.75-.43l-1.23,1.85-1.11-1.19c-.38-.41-1,.2-.61.61l1,1.06h-2a.44.44,0,0,0,0,.87h1.81l-.92,1.37c-.31.47.44.9.75.44l1.18-1.77,1.48,1.59C180.29,135.49,180.9,134.88,180.52,134.47Z" transform="translate(-4.99 -23.89)" style="fill:#ffc010"/><path d="M130.07,113.24c-.66.48-1.35.93-2,1.34.23-.94.47-1.88.7-2.82a.44.44,0,0,0-.84-.23l-.69,2.78-.77-1.37a.44.44,0,0,0-.6-.13.43.43,0,0,0-.15.57l1.07,1.9a22.3,22.3,0,0,1-2.06.92c-.52.2-.3,1,.23.84s1.2-.5,1.8-.78l-.6,2.4a.42.42,0,0,0,.3.53.43.43,0,0,0,.53-.3l.57-2.26c.39.7.79,1.4,1.18,2.11a.43.43,0,0,0,.6.12.43.43,0,0,0,.15-.56l-1.5-2.67a23.79,23.79,0,0,0,2.57-1.64C131,113.66,130.52,112.91,130.07,113.24Z" transform="translate(-4.99 -23.89)" style="fill:#ffc010"/><path d="M128.19,96.74l-2.46.48.86-1.16c.33-.45-.42-.88-.75-.44l-1,1.43-.14-1.42c-.05-.55-.92-.56-.86,0l.18,1.94-2.1.42c-.54.1-.31.94.23.83l1.62-.32-1.53,2.08c-.33.45.42.88.75.44l1.21-1.64.15,1.59c0,.55.92.55.86,0-.08-.88-.16-1.76-.25-2.64l.06-.08,3.45-.68C129,97.46,128.73,96.63,128.19,96.74Z" transform="translate(-4.99 -23.89)" style="fill:#ffc010"/><path d="M115,88.64a12.09,12.09,0,0,0-2.43-1.17l2-2a.43.43,0,0,0,0-.61.42.42,0,0,0-.59,0l-1.68,1.69c0-.54,0-1.07,0-1.61a.44.44,0,0,0-.45-.42.44.44,0,0,0-.41.42l0,2.18a11.72,11.72,0,0,0-1.94-.32c-.56,0-.56.82,0,.86a12.59,12.59,0,0,1,1.48.22l-1.68,1.69a.43.43,0,0,0,.61.61l1.51-1.51,0,2.88a.43.43,0,0,0,.45.41.43.43,0,0,0,.41-.41l0-3.3a11.11,11.11,0,0,1,2.33,1.12C115.08,89.68,115.51,88.93,115,88.64Z" transform="translate(-4.99 -23.89)" style="fill:#ffc010"/><path d="M171.8,153c.55.06.55-.81,0-.87a11.65,11.65,0,0,0-2.21,0V152a10.26,10.26,0,0,1,1.08-1.38c.37-.41-.24-1-.62-.61-.17.19-.32.4-.49.6a.43.43,0,0,0-.54-.27.45.45,0,0,0-.3.39v1h0l-1.36-1c-.45-.33-.88.42-.44.75l1.14.85a12,12,0,0,0-1.45.41c-.52.18-.3,1,.23.83.34-.12.68-.21,1-.3a13.14,13.14,0,0,0-.93,2.42.43.43,0,0,0,.83.23,13.73,13.73,0,0,1,1-2.47v2.35a.44.44,0,0,0,.87,0v-2.32l1.76,1.31c.44.33.87-.42.43-.74l-1.49-1.12A10.89,10.89,0,0,1,171.8,153Z" transform="translate(-4.99 -23.89)" style="fill:#ffc010"/><path d="M145.4,86.25c-.14.52-.33,1.58-.91,1.81a.62.62,0,0,1-.76-.43.19.19,0,0,1,0-.07,2.91,2.91,0,0,1,.11-1.21c.13-.55-.7-.78-.83-.23-.27,1.12-.24,2.84,1.34,2.83,1.23,0,1.64-1.54,1.91-2.48a.43.43,0,0,0-.34-.51A.45.45,0,0,0,145.4,86.25Z" transform="translate(-4.99 -23.89)" style="fill:#7f57b2"/><path d="M155,87c-.16.54-.41,1.61-1.05,1.79-.9.25-1-1.24-1-1.8a.45.45,0,0,0-.46-.42.43.43,0,0,0-.41.42c0,1.12.38,2.75,1.82,2.68,1.19-.06,1.68-1.49,2-2.44a.42.42,0,0,0-.32-.52A.43.43,0,0,0,155,87Z" transform="translate(-4.99 -23.89)" style="fill:#7f57b2"/><path d="M145,81.28l.25-.14a.43.43,0,0,0,.12-.6.43.43,0,0,0-.56-.15c-1.42.83-2.83,1.53-3.12,3.31a.42.42,0,0,0,.21.46.34.34,0,0,0,.46.17.25.25,0,0,0,.1-.08h0a.34.34,0,0,0,.19-.2h0a3.92,3.92,0,0,1,1.94-1.11.34.34,0,0,0,.25-.42.39.39,0,0,0-.12-.19,1.9,1.9,0,0,0,.66-.5C145.63,81.54,145.31,81.2,145,81.28Z" transform="translate(-4.99 -23.89)" style="fill:#7f57b2"/><path d="M158.34,82.41a7,7,0,0,0-.69-1.22,4.63,4.63,0,0,0-.88-.94c-.36-.29-.83-.4-1.19-.69a.38.38,0,0,0-.54,0,.4.4,0,0,0-.08.23,4.59,4.59,0,0,0-.9-.1.36.36,0,0,0-.36.36.42.42,0,0,0,.09.24h-.08c-.56,0-.56.89,0,.86a4.11,4.11,0,0,1,3.44,2,.43.43,0,0,0,.41.18.42.42,0,0,0,.36-.07v0c0,.46.75.46.72,0A2.26,2.26,0,0,0,158.34,82.41Z" transform="translate(-4.99 -23.89)" style="fill:#7f57b2"/><path d="M162.13,91.54c-.86,0-1.68-.3-2.54-.26-.46,0-.47.75,0,.72.86,0,1.68.29,2.54.26C162.59,92.24,162.6,91.52,162.13,91.54Z" transform="translate(-4.99 -23.89)" style="fill:#7f57b2"/><path d="M150.06,91.8a40.26,40.26,0,0,0-5.38.18c1.08,2.24,3,4.18,5.66,4,2.28-.18,3.4-1.77,3.93-3.66C152.87,92.13,151.48,91.86,150.06,91.8Z" transform="translate(-4.99 -23.89)" style="fill:#fff"/><path d="M160.18,214.12c-1.05-3.35-2.77-6.44-4-9.72s-2.3-6.72-3.24-10.14-1.8-6.86-2.7-10.28-1.86-7-2.52-10.62c-.32-1.69-.65-3.37-.93-5.06a19.38,19.38,0,0,1-.31-5.1c.06-.55-.81-.55-.87,0-.3,3,.48,6,1,8.94.65,3.52,1.45,7,2.36,10.45,1.82,6.93,3.44,13.95,5.87,20.7.67,1.86,1.43,3.68,2.24,5.48a49,49,0,0,1,2.27,5.58C159.51,214.88,160.34,214.65,160.18,214.12Z" transform="translate(-4.99 -23.89)" style="fill:#7dc16f"/><path d="M188.64,161.09c-2.61.95-4.77,3-6.79,4.83a28.36,28.36,0,0,0-3.07,3.13c-.91,1.15-1.74,2.36-2.64,3.52a1.68,1.68,0,0,1-1-.64.48.48,0,0,0-.34-.18s0-.05,0-.07a.37.37,0,0,0-.23-.37c-.07-.3-.48-.52-.71-.23-.38.47-.73,1-1.09,1.45-2-3.95-2-8.68-4.47-12.43-.31-.47-1.06,0-.75.43,2.58,3.93,2.45,9,4.78,13a.45.45,0,0,0,.6.15l.08-.07c.23-.3.46-.6.68-.91,0,.19,0,.38,0,.58a18,18,0,0,0-.56,5.76.43.43,0,0,0,.86,0,44.6,44.6,0,0,1,.49-5,6.3,6.3,0,0,0,.54,1,.43.43,0,0,0,.6.14.42.42,0,0,0,.2-.35,4.51,4.51,0,0,0-.21-1.55,1.67,1.67,0,0,0,.3.08.37.37,0,0,0,.48.25.35.35,0,0,0,.19-.12c.94-1.19,1.78-2.45,2.72-3.64a25.52,25.52,0,0,1,3-3.14c2-1.8,4.07-3.88,6.62-4.81C189.39,161.73,189.16,160.89,188.64,161.09Z" transform="translate(-4.99 -23.89)" style="fill:#7dc16f"/></svg>